<svg width="128" height="40" viewBox="0 0 128 40" fill="none" xmlns="http://www.w3.org/2000/svg">
  <path d="M6.59748 8.65628H4.96419L2.98205 5.80199L4.96419 2.99529H6.59748L4.61534 5.80199L6.59748 8.65628ZM3.91762 8.65628H2.3002L0.31806 5.80199L2.3002 2.99529H3.91762L1.93548 5.80199L3.91762 8.65628Z" fill="white"/>
  <path d="M12.3804 10.6553H10.541V2.99629H12.4438V7.30942L14.8065 2.99629H16.757V10.6553H14.8383V6.16771L12.3804 10.6553ZM26.3822 2.99629H28.2851V8.99028H29.1414V12.6057H27.2227V10.6553H18.6281V2.99629H20.531V8.99028H22.4972V2.99629H24.4159V8.99028H26.3822V2.99629ZM32.2247 10.6553H30.3853V2.99629H32.2881V7.30942L34.6508 2.99629H36.6013V10.6553H34.6826V6.16771L32.2247 10.6553ZM41.4853 10.6553H39.5666V4.66128H37.8857V2.99629H43.182V4.66128H41.4853V10.6553ZM47.6249 10.8456C46.5467 10.8456 45.6798 10.4756 45.0244 9.73556C44.3795 8.99556 44.0571 8.02299 44.0571 6.81785C44.0571 5.67614 44.3689 4.72471 44.9927 3.96357C45.6164 3.19186 46.4462 2.806 47.4822 2.806C48.5182 2.806 49.3269 3.18657 49.9084 3.94771C50.4898 4.69828 50.7805 5.68143 50.7805 6.89714V7.43628H45.9758C46.0181 7.98599 46.1978 8.43528 46.5149 8.78413C46.8321 9.13299 47.2708 9.30742 47.8311 9.30742C48.1165 9.30742 48.4125 9.24399 48.7191 9.11713C49.0257 8.97971 49.2847 8.79471 49.4961 8.56213L50.3682 9.70385C49.6705 10.465 48.7561 10.8456 47.6249 10.8456ZM48.9411 6.136C48.9199 5.66028 48.7931 5.24271 48.5605 4.88328C48.3279 4.52386 47.9579 4.34414 47.4505 4.34414C46.9642 4.34414 46.5995 4.52386 46.3564 4.88328C46.1238 5.24271 45.9969 5.66028 45.9758 6.136H48.9411ZM59.5253 10.8456C58.7008 10.8456 58.0559 10.4597 57.5908 9.68799V13.573H55.6879V2.99629H57.5908V3.96357C58.077 3.19186 58.7219 2.806 59.5253 2.806C60.3922 2.806 61.0793 3.16543 61.5868 3.88429C62.1048 4.59257 62.3638 5.57043 62.3638 6.81785C62.3638 8.05471 62.1048 9.03785 61.5868 9.76728C61.0793 10.4861 60.3922 10.8456 59.5253 10.8456ZM58.9069 9.1647C59.3826 9.1647 59.7473 8.94799 60.001 8.51456C60.2653 8.08114 60.3975 7.51557 60.3975 6.81785C60.3975 6.13071 60.2653 5.57043 60.001 5.137C59.7473 4.70357 59.3826 4.48686 58.9069 4.48686C58.6532 4.48686 58.3995 4.57143 58.1458 4.74057C57.9026 4.90971 57.7176 5.12114 57.5908 5.37486V8.26085C57.7176 8.51456 57.9026 8.73128 58.1458 8.91099C58.3995 9.08013 58.6532 9.1647 58.9069 9.1647ZM69.7045 10.6553H67.7858V9.89413C67.5743 10.1901 67.2836 10.4227 66.9136 10.5918C66.5542 10.761 66.1736 10.8456 65.7719 10.8456C65.1271 10.8456 64.5721 10.6183 64.1069 10.1637C63.6418 9.70913 63.4092 9.09071 63.4092 8.30842C63.4092 7.51557 63.6365 6.90242 64.0911 6.469C64.5562 6.03557 65.1165 5.81885 65.7719 5.81885C66.1842 5.81885 66.5701 5.89814 66.9295 6.05671C67.2995 6.21528 67.5849 6.43728 67.7858 6.72271V5.72371C67.7858 5.31143 67.6589 4.989 67.4052 4.75643C67.1621 4.51329 66.8185 4.39171 66.3745 4.39171C65.6768 4.39171 65.0478 4.66657 64.4875 5.21628L63.7739 3.916C64.5456 3.176 65.5288 2.806 66.7233 2.806C67.6219 2.806 68.3408 3.028 68.8799 3.472C69.4296 3.90543 69.7045 4.58728 69.7045 5.51757V10.6553ZM66.5013 9.56113C67.0933 9.56113 67.5215 9.31799 67.7858 8.83171V7.84856C67.5109 7.35171 67.0828 7.10328 66.5013 7.10328C66.1419 7.10328 65.8512 7.21957 65.6292 7.45214C65.4178 7.67414 65.3121 7.97014 65.3121 8.34013C65.3121 8.71013 65.4178 9.00613 65.6292 9.22813C65.8512 9.45013 66.1419 9.56113 66.5013 9.56113ZM73.5184 8.49871C73.7721 8.94271 74.1421 9.1647 74.6284 9.1647C75.1146 9.1647 75.4846 8.94271 75.7384 8.49871C76.0026 8.04414 76.1348 7.47857 76.1348 6.80199C76.1348 6.14657 76.0026 5.59685 75.7384 5.15286C75.4846 4.70886 75.1146 4.48686 74.6284 4.48686C74.1421 4.48686 73.7721 4.70886 73.5184 5.15286C73.2646 5.59685 73.1378 6.14657 73.1378 6.80199C73.1378 7.47857 73.2646 8.04414 73.5184 8.49871ZM74.6284 10.8456C73.5184 10.8456 72.6621 10.4438 72.0595 9.64042C71.4675 8.82642 71.1715 7.76928 71.1715 6.469C71.1715 4.53443 71.4252 3.15486 71.9327 2.33029C72.4507 1.49515 73.3492 0.966578 74.6284 0.744578C75.4846 0.596578 75.9128 0.374578 75.9128 0.0785789H77.8474C77.8474 1.16743 76.9541 1.85986 75.1675 2.15586C73.7615 2.38843 72.9792 2.97515 72.8207 3.916C73.3281 3.176 74.0575 2.806 75.0089 2.806C75.9709 2.806 76.7268 3.19186 77.2765 3.96357C77.8262 4.73528 78.1011 5.68143 78.1011 6.80199C78.1011 7.93314 77.7945 8.88985 77.1814 9.67213C76.5788 10.4544 75.7278 10.8456 74.6284 10.8456ZM82.669 10.8456C81.5908 10.8456 80.745 10.4597 80.1319 9.68799C79.5188 8.90571 79.2122 7.94899 79.2122 6.81785C79.2122 5.68671 79.5188 4.73528 80.1319 3.96357C80.745 3.19186 81.5908 2.806 82.669 2.806C83.7579 2.806 84.6089 3.19186 85.222 3.96357C85.8352 4.73528 86.1417 5.68671 86.1417 6.81785C86.1417 7.95956 85.8352 8.91628 85.222 9.68799C84.6089 10.4597 83.7579 10.8456 82.669 10.8456ZM82.669 9.1647C83.1659 9.1647 83.5412 8.94271 83.7949 8.49871C84.0486 8.05471 84.1755 7.49442 84.1755 6.81785C84.1755 6.14128 84.0486 5.58628 83.7949 5.15286C83.5412 4.70886 83.1659 4.48686 82.669 4.48686C82.1827 4.48686 81.8127 4.70886 81.559 5.15286C81.3159 5.59685 81.1943 6.15185 81.1943 6.81785C81.1943 7.49442 81.3159 8.05471 81.559 8.49871C81.8127 8.94271 82.1827 9.1647 82.669 9.1647ZM90.6312 10.6553H88.7124V4.66128H87.0316V2.99629H92.3279V4.66128H90.6312V10.6553ZM93.425 13.6523L93.7104 11.9714C93.8584 12.0454 94.0223 12.0824 94.202 12.0824C94.6248 12.0824 94.905 11.8974 95.0424 11.5274L95.2961 10.798L92.7114 2.99629H94.7411L96.2793 8.35599L97.8333 2.99629H99.863L96.866 11.9556C96.644 12.6321 96.3321 13.0973 95.9304 13.351C95.5287 13.6153 95.0001 13.7527 94.3447 13.7633C93.9747 13.7633 93.6681 13.7263 93.425 13.6523ZM16.424 24.6553H14.5053V23.8941C14.2938 24.1901 14.0031 24.4227 13.6331 24.5918C13.2737 24.761 12.8931 24.8456 12.4914 24.8456C11.8465 24.8456 11.2915 24.6183 10.8264 24.1637C10.3613 23.7091 10.1287 23.0907 10.1287 22.3084C10.1287 21.5156 10.356 20.9024 10.8105 20.469C11.2757 20.0356 11.836 19.8189 12.4914 19.8189C12.9037 19.8189 13.2895 19.8981 13.649 20.0567C14.019 20.2153 14.3044 20.4373 14.5053 20.7227V19.7237C14.5053 19.3114 14.3784 18.989 14.1247 18.7564C13.8815 18.5133 13.538 18.3917 13.094 18.3917C12.3963 18.3917 11.7673 18.6666 11.207 19.2163L10.4934 17.916C11.2651 17.176 12.2483 16.806 13.4428 16.806C14.3414 16.806 15.0603 17.028 15.5994 17.472C16.1491 17.9054 16.424 18.5873 16.424 19.5176V24.6553ZM13.2208 23.5611C13.8128 23.5611 14.241 23.318 14.5053 22.8317V21.8486C14.2304 21.3517 13.8023 21.1033 13.2208 21.1033C12.8614 21.1033 12.5707 21.2196 12.3487 21.4521C12.1373 21.6741 12.0315 21.9701 12.0315 22.3401C12.0315 22.7101 12.1373 23.0061 12.3487 23.2281C12.5707 23.4501 12.8614 23.5611 13.2208 23.5611ZM17.7007 26.6057V23.133C18.0284 23.0801 18.2769 22.9163 18.446 22.6414C18.6151 22.356 18.742 21.7851 18.8266 20.9289L19.1913 16.9963H24.5034V22.9903H25.2963V26.6057H23.3934V24.6553H19.6036V26.6057H17.7007ZM20.9197 18.6613L20.7294 20.9923C20.6554 21.8803 20.3964 22.5463 19.9524 22.9903H22.5847V18.6613H20.9197ZM34.5531 24.6553H32.6661V20.0091L30.9535 24.6553H30.129L28.4323 20.0091V24.6553H26.5294V16.9963H28.9714L30.5413 21.2619L32.127 16.9963H34.5531V24.6553ZM38.2678 24.6553H36.4283V16.9963H38.3312V21.3094L40.6939 16.9963H42.6443V24.6553H40.7256V20.1677L38.2678 24.6553ZM46.4183 24.6553H44.5155V16.9963H46.4183V19.8506H48.8127V16.9963H50.7314V24.6553H48.8127V21.5156H46.4183V24.6553ZM54.442 24.6553H52.6026V16.9963H54.5054V21.3094L56.8681 16.9963H58.8186V24.6553H56.8999V20.1677L54.442 24.6553ZM63.7977 24.8456C62.7511 24.8456 61.9054 24.4703 61.2606 23.7197C60.6157 22.9691 60.2933 22.0018 60.2933 20.8179C60.2933 19.6444 60.6157 18.6824 61.2606 17.9319C61.9054 17.1813 62.7511 16.806 63.7977 16.806C64.8548 16.806 65.6688 17.1496 66.2397 17.8367L65.2883 19.1529C64.9288 18.7089 64.5007 18.4869 64.0038 18.4869C63.4647 18.4869 63.0366 18.7089 62.7194 19.1529C62.4129 19.5863 62.2596 20.1413 62.2596 20.8179C62.2596 21.505 62.4129 22.0706 62.7194 22.5146C63.0366 22.948 63.4647 23.1647 64.0038 23.1647C64.5007 23.1647 64.9288 22.9427 65.2883 22.4987L66.2397 23.8148C65.6688 24.502 64.8548 24.8456 63.7977 24.8456ZM70.5354 24.6553H68.6167V18.6613H66.9358V16.9963H72.2321V18.6613H70.5354V24.6553ZM77.341 24.8456C76.5165 24.8456 75.8716 24.4597 75.4065 23.688V27.573H73.5036V16.9963H75.4065V17.9636C75.8928 17.1919 76.5376 16.806 77.341 16.806C78.2079 16.806 78.895 17.1654 79.4025 17.8843C79.9205 18.5926 80.1795 19.5704 80.1795 20.8179C80.1795 22.0547 79.9205 23.0378 79.4025 23.7673C78.895 24.4861 78.2079 24.8456 77.341 24.8456ZM76.7226 23.1647C77.1983 23.1647 77.563 22.948 77.8168 22.5146C78.081 22.0811 78.2132 21.5156 78.2132 20.8179C78.2132 20.1307 78.081 19.5704 77.8168 19.137C77.563 18.7036 77.1983 18.4869 76.7226 18.4869C76.4689 18.4869 76.2152 18.5714 75.9615 18.7406C75.7183 18.9097 75.5333 19.1211 75.4065 19.3749V22.2608C75.5333 22.5146 75.7183 22.7313 75.9615 22.911C76.2152 23.0801 76.4689 23.1647 76.7226 23.1647ZM87.5202 24.6553H85.6015V23.8941C85.3901 24.1901 85.0993 24.4227 84.7293 24.5918C84.3699 24.761 83.9893 24.8456 83.5876 24.8456C82.9428 24.8456 82.3878 24.6183 81.9226 24.1637C81.4575 23.7091 81.2249 23.0907 81.2249 22.3084C81.2249 21.5156 81.4522 20.9024 81.9068 20.469C82.3719 20.0356 82.9322 19.8189 83.5876 19.8189C83.9999 19.8189 84.3858 19.8981 84.7452 20.0567C85.1152 20.2153 85.4006 20.4373 85.6015 20.7227V19.7237C85.6015 19.3114 85.4746 18.989 85.2209 18.7564C84.9778 18.5133 84.6342 18.3917 84.1902 18.3917C83.4925 18.3917 82.8635 18.6666 82.3032 19.2163L81.5896 17.916C82.3613 17.176 83.3445 16.806 84.5391 16.806C85.4376 16.806 86.1565 17.028 86.6956 17.472C87.2453 17.9054 87.5202 18.5873 87.5202 19.5176V24.6553ZM84.3171 23.5611C84.9091 23.5611 85.3372 23.318 85.6015 22.8317V21.8486C85.3266 21.3517 84.8985 21.1033 84.3171 21.1033C83.9576 21.1033 83.6669 21.2196 83.4449 21.4521C83.2335 21.6741 83.1278 21.9701 83.1278 22.3401C83.1278 22.7101 83.2335 23.0061 83.4449 23.2281C83.6669 23.4501 83.9576 23.5611 84.3171 23.5611ZM92.3965 24.6553H90.4778V18.6613H88.7969V16.9963H94.0932V18.6613H92.3965V24.6553ZM98.4252 24.8456C97.3469 24.8456 96.5012 24.4597 95.888 23.688C95.2749 22.9057 94.9683 21.949 94.9683 20.8179C94.9683 19.6867 95.2749 18.7353 95.888 17.9636C96.5012 17.1919 97.3469 16.806 98.4252 16.806C99.514 16.806 100.365 17.1919 100.978 17.9636C101.591 18.7353 101.898 19.6867 101.898 20.8179C101.898 21.9596 101.591 22.9163 100.978 23.688C100.365 24.4597 99.514 24.8456 98.4252 24.8456ZM98.4252 23.1647C98.922 23.1647 99.2973 22.9427 99.551 22.4987C99.8047 22.0547 99.9316 21.4944 99.9316 20.8179C99.9316 20.1413 99.8047 19.5863 99.551 19.1529C99.2973 18.7089 98.922 18.4869 98.4252 18.4869C97.9389 18.4869 97.5689 18.7089 97.3152 19.1529C97.072 19.5969 96.9505 20.1519 96.9505 20.8179C96.9505 21.4944 97.072 22.0547 97.3152 22.4987C97.5689 22.9427 97.9389 23.1647 98.4252 23.1647ZM107.212 24.8456C106.387 24.8456 105.742 24.4597 105.277 23.688V27.573H103.374V16.9963H105.277V17.9636C105.764 17.1919 106.408 16.806 107.212 16.806C108.079 16.806 108.766 17.1654 109.273 17.8843C109.791 18.5926 110.05 19.5704 110.05 20.8179C110.05 22.0547 109.791 23.0378 109.273 23.7673C108.766 24.4861 108.079 24.8456 107.212 24.8456ZM106.593 23.1647C107.069 23.1647 107.434 22.948 107.688 22.5146C107.952 22.0811 108.084 21.5156 108.084 20.8179C108.084 20.1307 107.952 19.5704 107.688 19.137C107.434 18.7036 107.069 18.4869 106.593 18.4869C106.34 18.4869 106.086 18.5714 105.832 18.7406C105.589 18.9097 105.404 19.1211 105.277 19.3749V22.2608C105.404 22.5146 105.589 22.7313 105.832 22.911C106.086 23.0801 106.34 23.1647 106.593 23.1647ZM114.568 24.8456C113.49 24.8456 112.644 24.4597 112.031 23.688C111.418 22.9057 111.112 21.949 111.112 20.8179C111.112 19.6867 111.418 18.7353 112.031 17.9636C112.644 17.1919 113.49 16.806 114.568 16.806C115.657 16.806 116.508 17.1919 117.121 17.9636C117.735 18.7353 118.041 19.6867 118.041 20.8179C118.041 21.9596 117.735 22.9163 117.121 23.688C116.508 24.4597 115.657 24.8456 114.568 24.8456ZM114.568 23.1647C115.065 23.1647 115.441 22.9427 115.694 22.4987C115.948 22.0547 116.075 21.4944 116.075 20.8179C116.075 20.1413 115.948 19.5863 115.694 19.1529C115.441 18.7089 115.065 18.4869 114.568 18.4869C114.082 18.4869 113.712 18.7089 113.458 19.1529C113.215 19.5969 113.094 20.1519 113.094 20.8179C113.094 21.4944 113.215 22.0547 113.458 22.4987C113.712 22.9427 114.082 23.1647 114.568 23.1647ZM127.541 24.6553H125.654V20.0091L123.942 24.6553H123.117L121.421 20.0091V24.6553H119.518V16.9963H121.96L123.53 21.2619L125.115 16.9963H127.541V24.6553ZM12.4438 38.6553H10.541V30.9963H12.4438V33.8506H14.8383V30.9963H16.757V38.6553H14.8383V35.5156H12.4438V38.6553ZM24.5111 38.6553H22.5924V37.8941C22.381 38.1901 22.0902 38.4227 21.7202 38.5918C21.3608 38.761 20.9802 38.8456 20.5785 38.8456C19.9337 38.8456 19.3787 38.6183 18.9135 38.1637C18.4484 37.7091 18.2158 37.0907 18.2158 36.3084C18.2158 35.5156 18.4431 34.9024 18.8977 34.469C19.3628 34.0356 19.9231 33.8189 20.5785 33.8189C20.9908 33.8189 21.3767 33.8981 21.7361 34.0567C22.1061 34.2153 22.3915 34.4373 22.5924 34.7227V33.7237C22.5924 33.3114 22.4655 32.989 22.2118 32.7564C21.9687 32.5133 21.6251 32.3917 21.1811 32.3917C20.4834 32.3917 19.8544 32.6666 19.2941 33.2163L18.5805 31.916C19.3522 31.176 20.3354 30.806 21.53 30.806C22.4285 30.806 23.1474 31.028 23.6865 31.472C24.2362 31.9054 24.5111 32.5873 24.5111 33.5176V38.6553ZM21.308 37.5611C21.9 37.5611 22.3281 37.318 22.5924 36.8317V35.8486C22.3175 35.3517 21.8894 35.1033 21.308 35.1033C20.9485 35.1033 20.6578 35.2196 20.4358 35.4521C20.2244 35.6741 20.1187 35.9701 20.1187 36.3401C20.1187 36.7101 20.2244 37.0061 20.4358 37.2281C20.6578 37.4501 20.9485 37.5611 21.308 37.5611ZM36.0785 38.6553H34.1756V33.581C34.1756 32.8516 33.8373 32.4869 33.1608 32.4869C32.8753 32.4869 32.6111 32.582 32.3679 32.7723C32.1248 32.952 31.9292 33.174 31.7812 33.4383V38.6553H29.8625V28.0786H31.7812V31.9953C31.9926 31.6676 32.2992 31.3874 32.7009 31.1549C33.1132 30.9223 33.5519 30.806 34.0171 30.806C35.3913 30.806 36.0785 31.4931 36.0785 32.8674V38.6553ZM44.1656 38.6553H42.2628V33.581C42.2628 32.8516 41.9245 32.4869 41.2479 32.4869C40.9625 32.4869 40.6982 32.582 40.455 32.7723C40.2119 32.952 40.0163 33.174 39.8683 33.4383V38.6553H37.9496V28.0786H39.8683V31.9953C40.0798 31.6676 40.3863 31.3874 40.788 31.1549C41.2003 30.9223 41.639 30.806 42.1042 30.806C43.4785 30.806 44.1656 31.4931 44.1656 32.8674V38.6553ZM48.0347 38.4808C47.8022 38.7134 47.5167 38.8297 47.1785 38.8297C46.8402 38.8297 46.5495 38.7081 46.3063 38.465C46.0632 38.2218 45.9416 37.9364 45.9416 37.6087C45.9416 37.2704 46.0632 36.9797 46.3063 36.7366C46.5495 36.4934 46.8402 36.3718 47.1785 36.3718C47.5062 36.3718 47.7916 36.4934 48.0347 36.7366C48.2779 36.9797 48.3995 37.2704 48.3995 37.6087C48.3995 37.947 48.2779 38.2377 48.0347 38.4808ZM52.0934 38.6553H50.1906V30.9963H52.0934V32.0429C52.3154 31.694 52.6167 31.4033 52.9973 31.1707C53.3884 30.9276 53.7848 30.806 54.1866 30.806V32.6771C54.0597 32.6454 53.9064 32.6296 53.7267 32.6296C53.4201 32.6296 53.1083 32.7194 52.7911 32.8991C52.4846 33.0683 52.252 33.285 52.0934 33.5493V38.6553ZM61.6285 38.6553H59.7256V37.688C59.5036 38.0157 59.1918 38.2906 58.7901 38.5126C58.3884 38.7346 57.9497 38.8456 57.4739 38.8456C56.1102 38.8456 55.4284 38.1584 55.4284 36.7841V30.9963H57.3312V36.0547C57.3312 36.7947 57.6695 37.1647 58.3461 37.1647C58.9169 37.1647 59.3768 36.8528 59.7256 36.2291V30.9963H61.6285V38.6553Z" fill="white"/>
  <path d="M65.2644 34.0383L66.8977 34.0383L68.8798 36.8926L66.8977 39.6993L65.2644 39.6993L67.2465 36.8926L65.2644 34.0383ZM67.9443 34.0383L69.5617 34.0383L71.5438 36.8926L69.5617 39.6993L67.9443 39.6993L69.9264 36.8926L67.9443 34.0383Z" fill="white"/>
  </svg>
  