<svg width="166" height="71" viewBox="0 0 166 71" fill="none" xmlns="http://www.w3.org/2000/svg">
  <path d="M18.9935 18.0679H15.9122V5.23802H19.0997V12.4631L23.0576 5.23802H26.3248V18.0679H23.1107V10.5506L18.9935 18.0679ZM42.4485 5.23802H45.636V15.2788H47.0704V21.3351H43.8563V18.0679H29.4592V5.23802H32.6468V15.2788H35.9406V5.23802H39.1547V15.2788H42.4485V5.23802ZM52.2354 18.0679H49.1541V5.23802H52.3417V12.4631L56.2995 5.23802H59.5668V18.0679H56.3527V10.5506L52.2354 18.0679ZM67.7481 18.0679H64.534V8.02711H61.7184V5.23802H70.5903V8.02711H67.7481V18.0679ZM78.0329 18.3866C76.2267 18.3866 74.7745 17.7668 73.6766 16.5272C72.5964 15.2876 72.0563 13.6584 72.0563 11.6397C72.0563 9.72714 72.5787 8.13337 73.6235 6.85835C74.6683 5.56562 76.0584 4.91926 77.7939 4.91926C79.5293 4.91926 80.884 5.55677 81.858 6.83179C82.8319 8.08909 83.3189 9.73599 83.3189 11.7725V12.6756H75.2704C75.3412 13.5965 75.6423 14.3491 76.1735 14.9335C76.7048 15.5178 77.4397 15.81 78.3782 15.81C78.8564 15.81 79.3522 15.7038 79.8658 15.4913C80.3793 15.2611 80.8132 14.9512 81.1673 14.5616L82.6283 16.4741C81.4595 17.7491 79.9277 18.3866 78.0329 18.3866ZM80.2376 10.4975C80.2022 9.70057 79.9897 9.00109 79.6001 8.39899C79.2105 7.7969 78.5907 7.49586 77.7407 7.49586C76.9261 7.49586 76.3152 7.7969 75.9079 8.39899C75.5183 9.00109 75.3058 9.70057 75.2704 10.4975H80.2376ZM97.9677 18.3866C96.5865 18.3866 95.5062 17.7403 94.7271 16.4475V22.9554H91.5395V5.23802H94.7271V6.85835C95.5416 5.56562 96.6219 4.91926 97.9677 4.91926C99.4198 4.91926 100.571 5.52135 101.421 6.72553C102.289 7.91201 102.722 9.55005 102.722 11.6397C102.722 13.7116 102.289 15.3585 101.421 16.5804C100.571 17.7845 99.4198 18.3866 97.9677 18.3866ZM96.9318 15.571C97.7287 15.571 98.3396 15.2079 98.7646 14.4819C99.2073 13.7558 99.4287 12.8084 99.4287 11.6397C99.4287 10.4886 99.2073 9.55005 98.7646 8.824C98.3396 8.09795 97.7287 7.73492 96.9318 7.73492C96.5068 7.73492 96.0818 7.87659 95.6568 8.15993C95.2495 8.44327 94.9396 8.79744 94.7271 9.22244V14.0569C94.9396 14.4819 95.2495 14.8449 95.6568 15.146C96.0818 15.4293 96.5068 15.571 96.9318 15.571ZM115.019 18.0679H111.805V16.7929C111.451 17.2887 110.964 17.6783 110.344 17.9616C109.742 18.245 109.105 18.3866 108.432 18.3866C107.351 18.3866 106.422 18.0059 105.643 17.2444C104.863 16.483 104.474 15.447 104.474 14.1366C104.474 12.8084 104.854 11.7813 105.616 11.0553C106.395 10.3292 107.334 9.9662 108.432 9.9662C109.122 9.9662 109.769 10.099 110.371 10.3646C110.991 10.6303 111.469 11.0022 111.805 11.4803V9.80683C111.805 9.11619 111.593 8.57608 111.168 8.18649C110.76 7.77919 110.185 7.57555 109.441 7.57555C108.272 7.57555 107.219 8.03597 106.28 8.95681L105.085 6.77866C106.377 5.53906 108.024 4.91926 110.025 4.91926C111.531 4.91926 112.735 5.29114 113.638 6.0349C114.559 6.76095 115.019 7.90315 115.019 9.46151V18.0679ZM109.654 16.235C110.645 16.235 111.362 15.8277 111.805 15.0131V13.3662C111.345 12.5339 110.627 12.1178 109.654 12.1178C109.051 12.1178 108.564 12.3126 108.193 12.7022C107.838 13.0741 107.661 13.5699 107.661 14.1897C107.661 14.8095 107.838 15.3053 108.193 15.6772C108.564 16.0491 109.051 16.235 109.654 16.235ZM121.408 14.4553C121.833 15.1991 122.453 15.571 123.267 15.571C124.082 15.571 124.702 15.1991 125.127 14.4553C125.569 13.6939 125.791 12.7464 125.791 11.6131C125.791 10.5152 125.569 9.59432 125.127 8.85056C124.702 8.1068 124.082 7.73492 123.267 7.73492C122.453 7.73492 121.833 8.1068 121.408 8.85056C120.983 9.59432 120.77 10.5152 120.77 11.6131C120.77 12.7464 120.983 13.6939 121.408 14.4553ZM123.267 18.3866C121.408 18.3866 119.974 17.7137 118.964 16.3678C117.973 15.0043 117.477 13.2334 117.477 11.0553C117.477 7.81461 117.902 5.50364 118.752 4.12238C119.619 2.7234 121.125 1.83797 123.267 1.46609C124.702 1.21817 125.419 0.84629 125.419 0.350451H128.66C128.66 2.17443 127.163 3.33434 124.171 3.83018C121.815 4.21977 120.505 5.2026 120.239 6.77866C121.089 5.53906 122.311 4.91926 123.905 4.91926C125.516 4.91926 126.783 5.56562 127.703 6.85835C128.624 8.15107 129.085 9.73599 129.085 11.6131C129.085 13.5079 128.571 15.1105 127.544 16.421C126.535 17.7314 125.109 18.3866 123.267 18.3866ZM136.737 18.3866C134.93 18.3866 133.514 17.7403 132.487 16.4475C131.459 15.1371 130.946 13.5345 130.946 11.6397C130.946 9.74485 131.459 8.15107 132.487 6.85835C133.514 5.56562 134.93 4.91926 136.737 4.91926C138.561 4.91926 139.986 5.56562 141.013 6.85835C142.04 8.15107 142.554 9.74485 142.554 11.6397C142.554 13.5522 142.04 15.1548 141.013 16.4475C139.986 17.7403 138.561 18.3866 136.737 18.3866ZM136.737 15.571C137.569 15.571 138.198 15.1991 138.623 14.4553C139.048 13.7116 139.26 12.773 139.26 11.6397C139.26 10.5063 139.048 9.57661 138.623 8.85056C138.198 8.1068 137.569 7.73492 136.737 7.73492C135.922 7.73492 135.302 8.1068 134.877 8.85056C134.47 9.59432 134.266 10.524 134.266 11.6397C134.266 12.773 134.47 13.7116 134.877 14.4553C135.302 15.1991 135.922 15.571 136.737 15.571ZM150.074 18.0679H146.86V8.02711H144.045V5.23802H152.917V8.02711H150.074V18.0679ZM154.754 23.0882L155.232 20.2726C155.48 20.3965 155.755 20.4585 156.056 20.4585C156.764 20.4585 157.234 20.1486 157.464 19.5288L157.889 18.3069L153.559 5.23802H156.959L159.536 14.2163L162.139 5.23802H165.539L160.518 20.246C160.147 21.3794 159.624 22.1585 158.951 22.5836C158.278 23.0263 157.393 23.2565 156.295 23.2742C155.675 23.2742 155.162 23.2122 154.754 23.0882ZM21.1185 44.3866C19.3653 44.3866 17.9487 43.758 16.8684 42.5007C15.7882 41.2434 15.2481 39.623 15.2481 37.6397C15.2481 35.674 15.7882 34.0625 16.8684 32.8052C17.9487 31.5479 19.3653 30.9193 21.1185 30.9193C22.8894 30.9193 24.2529 31.4948 25.2092 32.6458L23.6154 34.8506C23.0133 34.1068 22.2961 33.7349 21.4638 33.7349C20.5607 33.7349 19.8435 34.1068 19.3122 34.8506C18.7987 35.5766 18.5419 36.5063 18.5419 37.6397C18.5419 38.7907 18.7987 39.7381 19.3122 40.4819C19.8435 41.2079 20.5607 41.571 21.4638 41.571C22.2961 41.571 23.0133 41.1991 23.6154 40.4553L25.2092 42.66C24.2529 43.8111 22.8894 44.3866 21.1185 44.3866ZM34.0519 44.0679H27.3581V31.238H33.866C35.1587 31.238 36.1327 31.5479 36.7879 32.1677C37.4608 32.7875 37.7973 33.5755 37.7973 34.5318C37.7973 35.2756 37.5936 35.9042 37.1863 36.4178C36.779 36.9136 36.2478 37.2501 35.5925 37.4272C36.3186 37.5865 36.9118 37.9584 37.3723 38.5428C37.8327 39.1272 38.0629 39.809 38.0629 40.5881C38.0629 41.6152 37.7264 42.4564 37.0535 43.1116C36.3806 43.7491 35.38 44.0679 34.0519 44.0679ZM33.3081 41.4913C34.2998 41.4913 34.7957 41.0486 34.7957 40.1631C34.7957 39.7735 34.6628 39.4548 34.3972 39.2069C34.1493 38.9412 33.7863 38.8084 33.3081 38.8084H30.5456V41.4913H33.3081ZM33.2019 36.2318C34.105 36.2318 34.5566 35.8334 34.5566 35.0365C34.5566 34.6646 34.4415 34.3724 34.2113 34.1599C33.9811 33.9297 33.6446 33.8146 33.2019 33.8146H30.5456V36.2318H33.2019ZM50.8118 44.0679H47.5977V42.7929C47.2435 43.2887 46.7566 43.6783 46.1368 43.9616C45.5347 44.245 44.8972 44.3866 44.2242 44.3866C43.144 44.3866 42.2143 44.0059 41.4351 43.2444C40.656 42.483 40.2664 41.447 40.2664 40.1366C40.2664 38.8084 40.6471 37.7813 41.4086 37.0553C42.1877 36.3292 43.1263 35.9662 44.2242 35.9662C44.9149 35.9662 45.5612 36.099 46.1633 36.3646C46.7831 36.6303 47.2612 37.0022 47.5977 37.4803V35.8068C47.5977 35.1162 47.3852 34.5761 46.9602 34.1865C46.5529 33.7792 45.9774 33.5755 45.2336 33.5755C44.0649 33.5755 43.0112 34.036 42.0726 34.9568L40.8773 32.7787C42.17 31.5391 43.8169 30.9193 45.818 30.9193C47.3232 30.9193 48.5274 31.2911 49.4305 32.0349C50.3514 32.761 50.8118 33.9032 50.8118 35.4615V44.0679ZM45.4461 42.235C46.4378 42.235 47.155 41.8277 47.5977 41.0131V39.3662C47.1373 38.5339 46.4201 38.1178 45.4461 38.1178C44.844 38.1178 44.357 38.3126 43.9852 38.7022C43.631 39.0741 43.4539 39.5699 43.4539 40.1897C43.4539 40.8095 43.631 41.3053 43.9852 41.6772C44.357 42.0491 44.844 42.235 45.4461 42.235ZM60.3616 44.3866C58.9803 44.3866 57.9001 43.7403 57.1209 42.4475V48.9554H53.9334V31.238H57.1209V32.8583C57.9355 31.5656 59.0157 30.9193 60.3616 30.9193C61.8137 30.9193 62.9647 31.5214 63.8147 32.7255C64.6825 33.912 65.1163 35.5501 65.1163 37.6397C65.1163 39.7116 64.6825 41.3585 63.8147 42.5804C62.9647 43.7845 61.8137 44.3866 60.3616 44.3866ZM59.3256 41.571C60.1225 41.571 60.7335 41.2079 61.1585 40.4819C61.6012 39.7558 61.8225 38.8084 61.8225 37.6397C61.8225 36.4886 61.6012 35.5501 61.1585 34.824C60.7335 34.0979 60.1225 33.7349 59.3256 33.7349C58.9006 33.7349 58.4756 33.8766 58.0506 34.1599C57.6433 34.4433 57.3334 34.7974 57.1209 35.2224V40.0569C57.3334 40.4819 57.6433 40.8449 58.0506 41.146C58.4756 41.4293 58.9006 41.571 59.3256 41.571ZM80.5475 31.238H83.735V41.2788H85.1694V47.3351H81.9553V44.0679H67.5582V31.238H70.7458V41.2788H74.0396V31.238H77.2537V41.2788H80.5475V31.238ZM90.3344 44.0679H87.2531V31.238H90.4407V38.4631L94.3985 31.238H97.6658V44.0679H94.4517V36.5506L90.3344 44.0679ZM111.744 44.0679H107.999L105.342 39.0475L103.988 40.9335V44.0679H100.8V31.238H103.988V37.0553L107.892 31.238H111.611L107.547 37.0022L111.744 44.0679ZM118.41 44.3866C116.604 44.3866 115.187 43.7403 114.16 42.4475C113.133 41.1371 112.62 39.5345 112.62 37.6397C112.62 35.7448 113.133 34.1511 114.16 32.8583C115.187 31.5656 116.604 30.9193 118.41 30.9193C120.234 30.9193 121.66 31.5656 122.687 32.8583C123.714 34.1511 124.228 35.7448 124.228 37.6397C124.228 39.5522 123.714 41.1548 122.687 42.4475C121.66 43.7403 120.234 44.3866 118.41 44.3866ZM118.41 41.571C119.243 41.571 119.871 41.1991 120.296 40.4553C120.721 39.7116 120.934 38.773 120.934 37.6397C120.934 36.5063 120.721 35.5766 120.296 34.8506C119.871 34.1068 119.243 33.7349 118.41 33.7349C117.596 33.7349 116.976 34.1068 116.551 34.8506C116.144 35.5943 115.94 36.524 115.94 37.6397C115.94 38.773 116.144 39.7116 116.551 40.4553C116.976 41.1991 117.596 41.571 118.41 41.571ZM140.142 44.0679H136.981V36.285L134.112 44.0679H132.731L129.889 36.285V44.0679H126.701V31.238H130.792L133.421 38.3834L136.078 31.238H140.142V44.0679ZM19.0997 70.0679H15.9122V57.238H19.0997V62.0193H23.1107V57.238H26.3248V70.0679H23.1107V64.8084H19.0997V70.0679ZM39.314 70.0679H36.0999V68.7929C35.7458 69.2887 35.2588 69.6783 34.639 69.9616C34.0369 70.245 33.3994 70.3866 32.7265 70.3866C31.6462 70.3866 30.7165 70.0059 29.9374 69.2444C29.1582 68.483 28.7686 67.447 28.7686 66.1366C28.7686 64.8084 29.1493 63.7813 29.9108 63.0553C30.69 62.3292 31.6285 61.9662 32.7265 61.9662C33.4171 61.9662 34.0635 62.099 34.6655 62.3646C35.2853 62.6303 35.7635 63.0022 36.0999 63.4803V61.8068C36.0999 61.1162 35.8874 60.5761 35.4624 60.1865C35.0551 59.7792 34.4796 59.5755 33.7358 59.5755C32.5671 59.5755 31.5134 60.036 30.5749 60.9568L29.3795 58.7787C30.6723 57.5391 32.3192 56.9193 34.3202 56.9193C35.8255 56.9193 37.0296 57.2911 37.9328 58.0349C38.8536 58.761 39.314 59.9032 39.314 61.4615V70.0679ZM33.9484 68.235C34.94 68.235 35.6572 67.8277 36.0999 67.0131V65.3662C35.6395 64.5339 34.9223 64.1178 33.9484 64.1178C33.3463 64.1178 32.8593 64.3126 32.4874 64.7022C32.1332 65.0741 31.9561 65.5699 31.9561 66.1897C31.9561 66.8095 32.1332 67.3053 32.4874 67.6772C32.8593 68.0491 33.3463 68.235 33.9484 68.235ZM58.691 70.0679H55.5035V61.5678C55.5035 60.3459 54.9368 59.7349 53.8035 59.7349C53.3253 59.7349 52.8826 59.8943 52.4753 60.2131C52.068 60.5141 51.7404 60.886 51.4925 61.3287V70.0679H48.2784V52.3505H51.4925V58.9115C51.8467 58.3625 52.3602 57.8932 53.0331 57.5036C53.7238 57.1141 54.4587 56.9193 55.2379 56.9193C57.54 56.9193 58.691 58.0703 58.691 60.3724V70.0679ZM72.2381 70.0679H69.0505V61.5678C69.0505 60.3459 68.4839 59.7349 67.3505 59.7349C66.8724 59.7349 66.4297 59.8943 66.0224 60.2131C65.6151 60.5141 65.2875 60.886 65.0395 61.3287V70.0679H61.8254V52.3505H65.0395V58.9115C65.3937 58.3625 65.9073 57.8932 66.5802 57.5036C67.2708 57.1141 68.0057 56.9193 68.7849 56.9193C71.087 56.9193 72.2381 58.0703 72.2381 60.3724V70.0679ZM78.7194 69.7757C78.3298 70.1653 77.8517 70.3601 77.285 70.3601C76.7183 70.3601 76.2314 70.1564 75.8241 69.7491C75.4168 69.3418 75.2131 68.8637 75.2131 68.3147C75.2131 67.748 75.4168 67.2611 75.8241 66.8538C76.2314 66.4465 76.7183 66.2428 77.285 66.2428C77.834 66.2428 78.3121 66.4465 78.7194 66.8538C79.1267 67.2611 79.3304 67.748 79.3304 68.3147C79.3304 68.8814 79.1267 69.3684 78.7194 69.7757ZM85.5183 70.0679H82.3307V57.238H85.5183V58.9912C85.8901 58.4068 86.3948 57.9198 87.0323 57.5302C87.6876 57.1229 88.3516 56.9193 89.0245 56.9193V60.0537C88.812 60.0006 88.5553 59.974 88.2542 59.974C87.7407 59.974 87.2183 60.1245 86.687 60.4256C86.1735 60.7089 85.7839 61.0719 85.5183 61.5146V70.0679ZM101.491 70.0679H98.3033V68.4475C97.9314 68.9965 97.409 69.4569 96.7361 69.8288C96.0631 70.2007 95.3282 70.3866 94.5314 70.3866C92.247 70.3866 91.1048 69.2356 91.1048 66.9335V57.238H94.2923V65.7116C94.2923 66.9512 94.859 67.571 95.9923 67.571C96.9486 67.571 97.7189 67.0486 98.3033 66.0038V57.238H101.491V70.0679ZM114.003 63.6131L110.682 68.3944H107.973L111.293 63.6131L107.973 58.9115H110.682L114.003 63.6131ZM118.492 63.6131L115.171 68.3944H112.435L115.756 63.6131L112.435 58.9115H115.171L118.492 63.6131Z" fill="white"/>
  <path d="M11.295 16.6332H8.55905L5.23869 11.8519L8.55905 7.15024H11.295L7.97467 11.8519L11.295 16.6332ZM6.8059 16.6332H4.09649L0.776133 11.8519L4.09649 7.15024H6.8059L3.48554 11.8519L6.8059 16.6332Z" fill="white"/>
  </svg>
  