<svg width="199" height="120" viewBox="0 0 199 120" fill="none" xmlns="http://www.w3.org/2000/svg">
  <path d="M199 0L23.8031 0.000110699C15.4712 0.000115963 11.3053 0.000118596 8.12294 1.62161C5.32367 3.04792 3.04778 5.3238 1.62148 8.12308C-1.08209e-05 11.3054 -1.08209e-05 15.4714 -1.08209e-05 23.8032V96.1724C-1.08209e-05 104.504 -1.08209e-05 108.67 1.62148 111.853C3.04778 114.652 5.32367 116.928 8.12295 118.354C11.3053 119.976 15.4712 119.976 23.8031 119.976H175.197C183.529 119.976 187.695 119.976 190.877 118.354C193.676 116.928 195.952 114.652 197.379 111.853C199 108.67 199 104.504 199 96.1724L199 0Z" fill="#D6001C"/>
  </svg>
  