<svg width="425" height="71" viewBox="0 0 425 71" fill="none" xmlns="http://www.w3.org/2000/svg">
  <path d="M16.4037 23.8049H12.2801L7.27582 16.5987L12.2801 9.51255H16.4037L11.3994 16.5987L16.4037 23.8049ZM9.63786 23.8049H5.55434L0.550033 16.5987L5.55434 9.51255H9.63786L4.63355 16.5987L9.63786 23.8049Z" fill="white"/>
  <path d="M31.0039 27.327H26.3599V7.99038H31.164V18.8798L37.1291 7.99038H42.0534V27.327H37.2092V15.9973L31.0039 27.327ZM66.3543 7.99038H71.1584V23.1234H73.3203V32.2513H68.4761V27.327H46.7774V7.99038H51.5816V23.1234H56.5458V7.99038H61.39V23.1234H66.3543V7.99038ZM81.1048 27.327H76.4608V7.99038H81.2649V18.8798L87.2301 7.99038H92.1543V27.327H87.3101V15.9973L81.1048 27.327ZM104.485 27.327H99.6408V12.194H95.3971V7.99038H108.769V12.194H104.485V27.327ZM119.986 27.8074C117.263 27.8074 115.075 26.8733 113.42 25.005C111.792 23.1368 110.978 20.6813 110.978 17.6387C110.978 14.7562 111.765 12.3541 113.34 10.4325C114.915 8.48414 117.01 7.50997 119.625 7.50997C122.241 7.50997 124.283 8.47079 125.751 10.3924C127.219 12.2874 127.953 14.7695 127.953 17.8389V19.2H115.822C115.929 20.5879 116.383 21.7222 117.183 22.603C117.984 23.4837 119.092 23.9241 120.506 23.9241C121.227 23.9241 121.974 23.764 122.748 23.4437C123.522 23.0967 124.176 22.6296 124.71 22.0425L126.912 24.925C125.15 26.8466 122.842 27.8074 119.986 27.8074ZM123.309 15.9172C123.255 14.7162 122.935 13.6619 122.348 12.7545C121.761 11.847 120.826 11.3933 119.545 11.3933C118.318 11.3933 117.397 11.847 116.783 12.7545C116.196 13.6619 115.876 14.7162 115.822 15.9172H123.309ZM150.031 27.8074C147.949 27.8074 146.321 26.8333 145.146 24.8849V34.6934H140.342V7.99038H145.146V10.4325C146.374 8.48414 148.002 7.50997 150.031 7.50997C152.219 7.50997 153.954 8.41741 155.235 10.2323C156.543 12.0205 157.197 14.4893 157.197 17.6387C157.197 20.7614 156.543 23.2435 155.235 25.0851C153.954 26.9 152.219 27.8074 150.031 27.8074ZM148.469 23.5638C149.67 23.5638 150.591 23.0166 151.232 21.9224C151.899 20.8281 152.233 19.4002 152.233 17.6387C152.233 15.9039 151.899 14.4893 151.232 13.395C150.591 12.3008 149.67 11.7536 148.469 11.7536C147.829 11.7536 147.188 11.9671 146.548 12.3942C145.934 12.8212 145.467 13.355 145.146 13.9956V21.2818C145.467 21.9224 145.934 22.4695 146.548 22.9232C147.188 23.3503 147.829 23.5638 148.469 23.5638ZM175.73 27.327H170.886V25.4054C170.352 26.1527 169.618 26.7399 168.684 27.1669C167.776 27.5939 166.816 27.8074 165.801 27.8074C164.173 27.8074 162.772 27.2336 161.598 26.086C160.423 24.9383 159.836 23.377 159.836 21.4019C159.836 19.4002 160.41 17.8522 161.558 16.7579C162.732 15.6637 164.147 15.1165 165.801 15.1165C166.842 15.1165 167.817 15.3167 168.724 15.717C169.658 16.1174 170.379 16.6779 170.886 17.3985V14.8763C170.886 13.8354 170.566 13.0214 169.925 12.4342C169.311 11.8203 168.444 11.5134 167.323 11.5134C165.561 11.5134 163.973 12.2073 162.559 13.5952L160.757 10.3124C162.705 8.4441 165.188 7.50997 168.204 7.50997C170.472 7.50997 172.287 8.07045 173.648 9.19141C175.036 10.2857 175.73 12.0072 175.73 14.3559V27.327ZM167.643 24.5646C169.138 24.5646 170.219 23.9508 170.886 22.7231V20.2409C170.192 18.9865 169.111 18.3593 167.643 18.3593C166.736 18.3593 166.002 18.6529 165.441 19.2401C164.907 19.8005 164.64 20.5479 164.64 21.482C164.64 22.4161 164.907 23.1634 165.441 23.7239C166.002 24.2844 166.736 24.5646 167.643 24.5646ZM185.359 21.8823C185.999 23.0033 186.934 23.5638 188.161 23.5638C189.389 23.5638 190.323 23.0033 190.964 21.8823C191.631 20.7347 191.965 19.3068 191.965 17.5987C191.965 15.9439 191.631 14.556 190.964 13.4351C190.323 12.3141 189.389 11.7536 188.161 11.7536C186.934 11.7536 185.999 12.3141 185.359 13.4351C184.718 14.556 184.398 15.9439 184.398 17.5987C184.398 19.3068 184.718 20.7347 185.359 21.8823ZM188.161 27.8074C185.359 27.8074 183.197 26.7932 181.676 24.7648C180.181 22.7097 179.434 20.0408 179.434 16.7579C179.434 11.8737 180.074 8.39072 181.355 6.30893C182.663 4.20045 184.932 2.86597 188.161 2.30549C190.323 1.93183 191.404 1.37135 191.404 0.624038H196.288C196.288 3.37307 194.033 5.12124 189.522 5.86855C185.973 6.45573 183.998 7.937 183.597 10.3124C184.878 8.4441 186.72 7.50997 189.122 7.50997C191.551 7.50997 193.459 8.48414 194.847 10.4325C196.235 12.3808 196.929 14.7695 196.929 17.5987C196.929 20.4544 196.155 22.8699 194.607 24.8449C193.086 26.8199 190.937 27.8074 188.161 27.8074ZM208.462 27.8074C205.739 27.8074 203.604 26.8333 202.056 24.8849C200.508 22.9099 199.734 20.4945 199.734 17.6387C199.734 14.7829 200.508 12.3808 202.056 10.4325C203.604 8.48414 205.739 7.50997 208.462 7.50997C211.211 7.50997 213.359 8.48414 214.907 10.4325C216.455 12.3808 217.229 14.7829 217.229 17.6387C217.229 20.5212 216.455 22.9366 214.907 24.8849C213.359 26.8333 211.211 27.8074 208.462 27.8074ZM208.462 23.5638C209.716 23.5638 210.664 23.0033 211.304 21.8823C211.945 20.7614 212.265 19.3468 212.265 17.6387C212.265 15.9305 211.945 14.5293 211.304 13.4351C210.664 12.3141 209.716 11.7536 208.462 11.7536C207.234 11.7536 206.3 12.3141 205.659 13.4351C205.045 14.556 204.738 15.9572 204.738 17.6387C204.738 19.3468 205.045 20.7614 205.659 21.8823C206.3 23.0033 207.234 23.5638 208.462 23.5638ZM228.564 27.327H223.719V12.194H219.476V7.99038H232.847V12.194H228.564V27.327ZM235.617 34.8935L236.338 30.6499C236.711 30.8367 237.125 30.9301 237.579 30.9301C238.646 30.9301 239.354 30.4631 239.701 29.5289L240.341 27.6873L233.816 7.99038H238.94L242.823 21.522L246.747 7.99038H251.871L244.305 30.6099C243.744 32.318 242.957 33.4923 241.943 34.1329C240.928 34.8001 239.594 35.1471 237.939 35.1738C237.005 35.1738 236.231 35.0804 235.617 34.8935ZM41.2126 63.327H36.3685V61.4054C35.8347 62.1527 35.1007 62.7399 34.1666 63.1669C33.2591 63.5939 32.2983 63.8074 31.2841 63.8074C29.656 63.8074 28.2548 63.2336 27.0805 62.086C25.9061 60.9383 25.319 59.377 25.319 57.4019C25.319 55.4002 25.8928 53.8522 27.0404 52.7579C28.2148 51.6637 29.6293 51.1165 31.2841 51.1165C32.325 51.1165 33.2992 51.3167 34.2066 51.717C35.1408 52.1174 35.8614 52.6779 36.3685 53.3985V50.8763C36.3685 49.8354 36.0482 49.0214 35.4076 48.4342C34.7938 47.8203 33.9264 47.5134 32.8054 47.5134C31.0439 47.5134 29.4559 48.2073 28.0413 49.5952L26.2398 46.3124C28.1881 44.4441 30.6702 43.51 33.6862 43.51C35.9548 43.51 37.7697 44.0704 39.1309 45.1914C40.5187 46.2857 41.2126 48.0072 41.2126 50.3559V63.327ZM33.1257 60.5646C34.6203 60.5646 35.7012 59.9508 36.3685 58.7231V56.2409C35.6745 54.9865 34.5936 54.3593 33.1257 54.3593C32.2182 54.3593 31.4843 54.6529 30.9238 55.2401C30.39 55.8005 30.1231 56.5479 30.1231 57.482C30.1231 58.4161 30.39 59.1634 30.9238 59.7239C31.4843 60.2844 32.2182 60.5646 33.1257 60.5646ZM56.006 63.327H45.9173V43.9904H55.7258C57.6741 43.9904 59.142 44.4574 60.1296 45.3916C61.1438 46.3257 61.6509 47.5134 61.6509 48.9547C61.6509 50.0756 61.3439 51.0231 60.7301 51.7971C60.1162 52.5444 59.3155 53.0515 58.328 53.3184C59.4223 53.5586 60.3164 54.1191 61.0103 54.9999C61.7042 55.8806 62.0512 56.9082 62.0512 58.0825C62.0512 59.6305 61.5441 60.8983 60.5299 61.8858C59.5157 62.8466 58.0077 63.327 56.006 63.327ZM54.885 59.4437C56.3797 59.4437 57.127 58.7764 57.127 57.442C57.127 56.8548 56.9268 56.3744 56.5265 56.0007C56.1528 55.6004 55.6057 55.4002 54.885 55.4002H50.7215V59.4437H54.885ZM54.7249 51.5169C56.0861 51.5169 56.7667 50.9163 56.7667 49.7153C56.7667 49.1548 56.5932 48.7144 56.2462 48.3942C55.8992 48.0472 55.3921 47.8737 54.7249 47.8737H50.7215V51.5169H54.7249ZM74.0196 63.327H69.1755V48.194H64.9318V43.9904H78.3033V48.194H74.0196V63.327ZM89.2402 63.8074C86.5179 63.8074 84.3827 62.8333 82.8347 60.8849C81.2867 58.9099 80.5127 56.4945 80.5127 53.6387C80.5127 50.7829 81.2867 48.3808 82.8347 46.4325C84.3827 44.4841 86.5179 43.51 89.2402 43.51C91.9893 43.51 94.1378 44.4841 95.6858 46.4325C97.2338 48.3808 98.0078 50.7829 98.0078 53.6387C98.0078 56.5212 97.2338 58.9366 95.6858 60.8849C94.1378 62.8333 91.9893 63.8074 89.2402 63.8074ZM89.2402 59.5638C90.4947 59.5638 91.4421 59.0033 92.0827 57.8823C92.7232 56.7614 93.0435 55.3468 93.0435 53.6387C93.0435 51.9305 92.7232 50.5293 92.0827 49.4351C91.4421 48.3141 90.4947 47.7536 89.2402 47.7536C88.0125 47.7536 87.0784 48.3141 86.4378 49.4351C85.824 50.556 85.517 51.9572 85.517 53.6387C85.517 55.3468 85.824 56.7614 86.4378 57.8823C87.0784 59.0033 88.0125 59.5638 89.2402 59.5638ZM109.582 63.8074C106.94 63.8074 104.805 62.86 103.177 60.965C101.549 59.07 100.735 56.6279 100.735 53.6387C100.735 50.6761 101.549 48.2474 103.177 46.3524C104.805 44.4574 106.94 43.51 109.582 43.51C112.251 43.51 114.307 44.3774 115.748 46.1122L113.346 49.4351C112.438 48.3141 111.357 47.7536 110.103 47.7536C108.742 47.7536 107.661 48.3141 106.86 49.4351C106.086 50.5293 105.699 51.9305 105.699 53.6387C105.699 55.3735 106.086 56.8014 106.86 57.9224C107.661 59.0166 108.742 59.5638 110.103 59.5638C111.357 59.5638 112.438 59.0033 113.346 57.8823L115.748 61.2052C114.307 62.94 112.251 63.8074 109.582 63.8074ZM117.505 63.8074V59.764C118.279 59.764 118.88 59.3636 119.307 58.5629C119.76 57.7355 120.107 56.1875 120.348 53.9189L121.268 43.9904H134.68V63.327H129.836V48.194H125.632L125.112 54.3993C124.818 57.8156 124.058 60.2444 122.83 61.6856C121.629 63.1002 119.854 63.8074 117.505 63.8074ZM147.411 63.8074C144.689 63.8074 142.5 62.8733 140.845 61.005C139.217 59.1368 138.403 56.6813 138.403 53.6387C138.403 50.7562 139.191 48.3541 140.765 46.4325C142.34 44.4841 144.435 43.51 147.051 43.51C149.666 43.51 151.708 44.4708 153.176 46.3924C154.644 48.2874 155.378 50.7695 155.378 53.8389V55.2H143.247C143.354 56.5879 143.808 57.7222 144.609 58.603C145.409 59.4837 146.517 59.9241 147.931 59.9241C148.652 59.9241 149.399 59.764 150.173 59.4437C150.947 59.0967 151.601 58.6296 152.135 58.0425L154.337 60.925C152.575 62.8466 150.267 63.8074 147.411 63.8074ZM150.734 51.9172C150.68 50.7162 150.36 49.6619 149.773 48.7545C149.186 47.847 148.252 47.3933 146.971 47.3933C145.743 47.3933 144.822 47.847 144.208 48.7545C143.621 49.6619 143.301 50.7162 143.247 51.9172H150.734ZM166.808 63.8074C164.166 63.8074 162.031 62.86 160.403 60.965C158.775 59.07 157.961 56.6279 157.961 53.6387C157.961 50.6761 158.775 48.2474 160.403 46.3524C162.031 44.4574 164.166 43.51 166.808 43.51C169.477 43.51 171.532 44.3774 172.974 46.1122L170.571 49.4351C169.664 48.3141 168.583 47.7536 167.329 47.7536C165.968 47.7536 164.887 48.3141 164.086 49.4351C163.312 50.5293 162.925 51.9305 162.925 53.6387C162.925 55.3735 163.312 56.8014 164.086 57.9224C164.887 59.0166 165.968 59.5638 167.329 59.5638C168.583 59.5638 169.664 59.0033 170.571 57.8823L172.974 61.2052C171.532 62.94 169.477 63.8074 166.808 63.8074ZM191.065 63.327H186.221V61.4054C185.687 62.1527 184.953 62.7399 184.019 63.1669C183.112 63.5939 182.151 63.8074 181.137 63.8074C179.508 63.8074 178.107 63.2336 176.933 62.086C175.759 60.9383 175.171 59.377 175.171 57.4019C175.171 55.4002 175.745 53.8522 176.893 52.7579C178.067 51.6637 179.482 51.1165 181.137 51.1165C182.177 51.1165 183.152 51.3167 184.059 51.717C184.993 52.1174 185.714 52.6779 186.221 53.3985V50.8763C186.221 49.8354 185.901 49.0214 185.26 48.4342C184.646 47.8203 183.779 47.5134 182.658 47.5134C180.896 47.5134 179.308 48.2073 177.894 49.5952L176.092 46.3124C178.041 44.4441 180.523 43.51 183.539 43.51C185.807 43.51 187.622 44.0704 188.983 45.1914C190.371 46.2857 191.065 48.0072 191.065 50.3559V63.327ZM182.978 60.5646C184.473 60.5646 185.554 59.9508 186.221 58.7231V56.2409C185.527 54.9865 184.446 54.3593 182.978 54.3593C182.071 54.3593 181.337 54.6529 180.776 55.2401C180.242 55.8005 179.976 56.5479 179.976 57.482C179.976 58.4161 180.242 59.1634 180.776 59.7239C181.337 60.2844 182.071 60.5646 182.978 60.5646ZM205.458 63.8074C203.376 63.8074 201.748 62.8333 200.574 60.8849V70.6934H195.77V43.9904H200.574V46.4325C201.802 44.4841 203.43 43.51 205.458 43.51C207.647 43.51 209.381 44.4174 210.663 46.2323C211.97 48.0205 212.624 50.4893 212.624 53.6387C212.624 56.7614 211.97 59.2435 210.663 61.0851C209.381 62.9 207.647 63.8074 205.458 63.8074ZM203.897 59.5638C205.098 59.5638 206.019 59.0166 206.659 57.9224C207.326 56.8281 207.66 55.4002 207.66 53.6387C207.66 51.9039 207.326 50.4893 206.659 49.395C206.019 48.3008 205.098 47.7536 203.897 47.7536C203.256 47.7536 202.616 47.9671 201.975 48.3942C201.361 48.8212 200.894 49.355 200.574 49.9956V57.2818C200.894 57.9224 201.361 58.4695 201.975 58.9232C202.616 59.3503 203.256 59.5638 203.897 59.5638ZM224.312 63.8074C221.589 63.8074 219.401 62.8733 217.746 61.005C216.118 59.1368 215.304 56.6813 215.304 53.6387C215.304 50.7562 216.091 48.3541 217.666 46.4325C219.24 44.4841 221.336 43.51 223.951 43.51C226.567 43.51 228.609 44.4708 230.076 46.3924C231.544 48.2874 232.278 50.7695 232.278 53.8389V55.2H220.148C220.255 56.5879 220.708 57.7222 221.509 58.603C222.31 59.4837 223.417 59.9241 224.832 59.9241C225.553 59.9241 226.3 59.764 227.074 59.4437C227.848 59.0967 228.502 58.6296 229.036 58.0425L231.237 60.925C229.476 62.8466 227.167 63.8074 224.312 63.8074ZM227.634 51.9172C227.581 50.7162 227.261 49.6619 226.674 48.7545C226.086 47.847 225.152 47.3933 223.871 47.3933C222.643 47.3933 221.723 47.847 221.109 48.7545C220.522 49.6619 220.201 50.7162 220.148 51.9172H227.634ZM256.12 63.327H251.355V51.5969L247.032 63.327H244.95L240.666 51.5969V63.327H235.862V43.9904H242.027L245.991 54.7597L249.994 43.9904H256.12V63.327ZM274.464 63.327H269.66V43.9904H274.464V51.1966H280.509V43.9904H285.353V63.327H280.509V55.4002H274.464V63.327ZM304.93 63.327H300.086V61.4054C299.552 62.1527 298.818 62.7399 297.884 63.1669C296.977 63.5939 296.016 63.8074 295.002 63.8074C293.374 63.8074 291.972 63.2336 290.798 62.086C289.624 60.9383 289.037 59.377 289.037 57.4019C289.037 55.4002 289.61 53.8522 290.758 52.7579C291.932 51.6637 293.347 51.1165 295.002 51.1165C296.043 51.1165 297.017 51.3167 297.924 51.717C298.858 52.1174 299.579 52.6779 300.086 53.3985V50.8763C300.086 49.8354 299.766 49.0214 299.125 48.4342C298.511 47.8203 297.644 47.5134 296.523 47.5134C294.762 47.5134 293.174 48.2073 291.759 49.5952L289.957 46.3124C291.906 44.4441 294.388 43.51 297.404 43.51C299.672 43.51 301.487 44.0704 302.849 45.1914C304.236 46.2857 304.93 48.0072 304.93 50.3559V63.327ZM296.843 60.5646C298.338 60.5646 299.419 59.9508 300.086 58.7231V56.2409C299.392 54.9865 298.311 54.3593 296.843 54.3593C295.936 54.3593 295.202 54.6529 294.641 55.2401C294.108 55.8005 293.841 56.5479 293.841 57.482C293.841 58.4161 294.108 59.1634 294.641 59.7239C295.202 60.2844 295.936 60.5646 296.843 60.5646ZM334.134 63.327H329.33V50.516C329.33 48.6744 328.476 47.7536 326.768 47.7536C326.048 47.7536 325.38 47.9938 324.766 48.4742C324.153 48.928 323.659 49.4884 323.285 50.1557V63.327H318.441V36.624H323.285V46.5126C323.819 45.6852 324.593 44.9779 325.607 44.3907C326.648 43.8036 327.756 43.51 328.93 43.51C332.4 43.51 334.134 45.2448 334.134 48.7144V63.327ZM354.552 63.327H349.748V50.516C349.748 48.6744 348.894 47.7536 347.186 47.7536C346.465 47.7536 345.798 47.9938 345.184 48.4742C344.57 48.928 344.076 49.4884 343.703 50.1557V63.327H338.859V36.624H343.703V46.5126C344.237 45.6852 345.011 44.9779 346.025 44.3907C347.066 43.8036 348.173 43.51 349.348 43.51C352.817 43.51 354.552 45.2448 354.552 48.7144V63.327ZM364.32 62.8866C363.733 63.4738 363.013 63.7674 362.159 63.7674C361.305 63.7674 360.571 63.4605 359.957 62.8466C359.343 62.2328 359.036 61.5121 359.036 60.6848C359.036 59.8307 359.343 59.0967 359.957 58.4829C360.571 57.869 361.305 57.5621 362.159 57.5621C362.986 57.5621 363.707 57.869 364.32 58.4829C364.934 59.0967 365.241 59.8307 365.241 60.6848C365.241 61.5388 364.934 62.2728 364.32 62.8866ZM374.567 63.327H369.763V43.9904H374.567V46.6327C375.128 45.7519 375.889 45.0179 376.849 44.4308C377.837 43.8169 378.838 43.51 379.852 43.51V48.234C379.532 48.154 379.145 48.1139 378.691 48.1139C377.917 48.1139 377.13 48.3408 376.329 48.7945C375.555 49.2216 374.968 49.7687 374.567 50.4359V63.327ZM398.641 63.327H393.836V60.8849C393.276 61.7123 392.489 62.4062 391.474 62.9667C390.46 63.5272 389.353 63.8074 388.152 63.8074C384.709 63.8074 382.987 62.0726 382.987 58.603V43.9904H387.791V56.7614C387.791 58.6296 388.645 59.5638 390.353 59.5638C391.795 59.5638 392.956 58.7764 393.836 57.2018V43.9904H398.641V63.327Z" fill="white"/>
  <path d="M408.992 48.1571L413.116 48.1571L418.12 55.3633L413.116 62.4494L408.992 62.4494L413.997 55.3633L408.992 48.1571ZM415.758 48.1571L419.842 48.1571L424.846 55.3633L419.842 62.4494L415.758 62.4494L420.762 55.3633L415.758 48.1571Z" fill="white"/>
  </svg>
  