<svg width="85" height="85" viewBox="0 0 85 85" fill="none" xmlns="http://www.w3.org/2000/svg">
  <path d="M42.5 85C65.9724 85 85 65.9724 85 42.5C85 19.0276 65.9724 0 42.5 0C19.0276 0 0 19.0276 0 42.5C0 65.9724 19.0276 85 42.5 85Z" fill="#D6001C"/>
  <path d="M23.9145 22.0918V36.5246C26.1399 33.9046 28.8075 32.5858 31.9013 32.5858C33.4947 32.5858 34.9216 32.8864 36.2017 33.4821C37.4854 34.0744 38.445 34.8345 39.0931 35.7574C39.7448 36.689 40.1852 37.7091 40.4234 38.8334C40.6597 39.9525 40.7778 41.6938 40.7778 44.0557V59.4874H33.8635V45.5884C33.8635 42.8306 33.7382 41.0839 33.475 40.3414C33.2284 39.6141 32.7393 38.9908 32.0875 38.5736C31.4215 38.1298 30.5925 37.9106 29.5917 37.9106C28.4459 37.9106 27.4182 38.1935 26.5248 38.7557C25.6118 39.3214 24.9565 40.1664 24.5411 41.2961C24.1186 42.4275 23.9073 44.0981 23.9145 46.3097L23.9073 59.4874H17.002V22.0918H23.9163" fill="white"/>
  <path d="M51.1383 22.0918V36.5246C53.3655 33.9046 56.0313 32.5858 59.1233 32.5858C60.7113 32.5858 62.149 32.8864 63.4309 33.4821C64.7092 34.0744 65.6688 34.8345 66.3134 35.7574C66.9638 36.6828 67.4164 37.7295 67.6436 38.8334C67.8817 39.9525 67.9999 41.6938 67.9999 44.0557V59.4874H61.0927V45.5884C61.0927 42.8306 60.962 41.0839 60.6988 40.3414C60.4522 39.6131 59.9615 38.9895 59.3077 38.5736C58.6488 38.1298 57.8128 37.9106 56.8119 37.9106C55.6679 37.9106 54.6402 38.1935 53.7451 38.7557C52.8445 39.3214 52.1857 40.1664 51.7649 41.2961C51.3496 42.4275 51.1383 44.0981 51.1383 46.3097V59.4874H44.2329V22.0918H51.1383Z" fill="white"/>
  </svg>
  