<svg width="164" height="64" viewBox="0 0 164 64" fill="none" xmlns="http://www.w3.org/2000/svg">
  <path d="M10.6867 15.4094H8.06059L4.87355 10.82L8.06059 6.30718H10.6867L7.49967 10.82L10.6867 15.4094ZM6.37783 15.4094H3.77721L0.590176 10.82L3.77721 6.30718H6.37783L3.1908 10.82L6.37783 15.4094Z" fill="white"/>
  <path d="M19.9849 17.0156H17.0274V4.70091H20.0869V11.6359L23.8859 4.70091H27.0219V17.0156H23.9369V9.80017L19.9849 17.0156ZM42.4982 4.70091H45.5577V14.3385H46.9345V20.1517H43.8495V17.0156H30.0305V4.70091H33.09V14.3385H36.2516V4.70091H39.3366V14.3385H42.4982V4.70091ZM51.8922 17.0156H48.9346V4.70091H51.9942V11.6359L55.7931 4.70091H58.9291V17.0156H55.8441V9.80017L51.8922 17.0156ZM66.782 17.0156H63.6969V7.37802H60.9943V4.70091H69.5101V7.37802H66.782V17.0156ZM76.6539 17.3216C74.9201 17.3216 73.5263 16.7267 72.4725 15.5368C71.4356 14.347 70.9172 12.7832 70.9172 10.8455C70.9172 9.00979 71.4186 7.48001 72.4215 6.25619C73.4243 5.01537 74.7586 4.39496 76.4244 4.39496C78.0901 4.39496 79.3905 5.00687 80.3253 6.23069C81.2602 7.43752 81.7276 9.01829 81.7276 10.973V11.8399H74.0022C74.0702 12.7237 74.3592 13.4461 74.8691 14.0071C75.379 14.568 76.0844 14.8484 76.9853 14.8484C77.4442 14.8484 77.9202 14.7465 78.4131 14.5425C78.906 14.3215 79.3225 14.0241 79.6624 13.6501L81.0647 15.4858C79.9429 16.7097 78.4726 17.3216 76.6539 17.3216ZM78.77 9.74918C78.736 8.98429 78.5321 8.31289 78.1581 7.73497C77.7842 7.15706 77.1893 6.8681 76.3734 6.8681C75.5915 6.8681 75.0051 7.15706 74.6141 7.73497C74.2402 8.31289 74.0362 8.98429 74.0022 9.74918H78.77ZM95.7882 17.3216C94.4624 17.3216 93.4256 16.7012 92.6777 15.4604V21.7069H89.6181V4.70091H92.6777V6.25619C93.4596 5.01537 94.4964 4.39496 95.7882 4.39496C97.182 4.39496 98.2869 4.97287 99.1027 6.12871C99.9356 7.26754 100.352 8.83981 100.352 10.8455C100.352 12.8342 99.9356 14.415 99.1027 15.5878C98.2869 16.7437 97.182 17.3216 95.7882 17.3216ZM94.7939 14.619C95.5588 14.619 96.1452 14.2705 96.5531 13.5736C96.978 12.8767 97.1905 11.9674 97.1905 10.8455C97.1905 9.74068 96.978 8.83981 96.5531 8.14291C96.1452 7.44601 95.5588 7.09757 94.7939 7.09757C94.3859 7.09757 93.978 7.23355 93.57 7.50551C93.1791 7.77747 92.8816 8.11742 92.6777 8.52536V13.1657C92.8816 13.5736 93.1791 13.9221 93.57 14.211C93.978 14.483 94.3859 14.619 94.7939 14.619ZM112.155 17.0156H109.07V15.7918C108.73 16.2677 108.263 16.6417 107.668 16.9136C107.09 17.1856 106.478 17.3216 105.832 17.3216C104.795 17.3216 103.903 16.9561 103.155 16.2252C102.407 15.4943 102.033 14.5 102.033 13.2422C102.033 11.9674 102.398 10.9815 103.129 10.2846C103.877 9.5877 104.778 9.23925 105.832 9.23925C106.495 9.23925 107.115 9.36674 107.693 9.6217C108.288 9.87666 108.747 10.2336 109.07 10.6925V9.08628C109.07 8.42337 108.866 7.90495 108.458 7.531C108.067 7.14006 107.515 6.94459 106.801 6.94459C105.679 6.94459 104.668 7.38652 103.767 8.27039L102.619 6.1797C103.86 4.98987 105.441 4.39496 107.362 4.39496C108.807 4.39496 109.962 4.75191 110.829 5.4658C111.713 6.1627 112.155 7.25904 112.155 8.75483V17.0156ZM107.005 15.2564C107.957 15.2564 108.645 14.8654 109.07 14.0836V12.5028C108.628 11.7039 107.94 11.3045 107.005 11.3045C106.427 11.3045 105.959 11.4914 105.603 11.8654C105.263 12.2223 105.093 12.6983 105.093 13.2932C105.093 13.8881 105.263 14.364 105.603 14.721C105.959 15.0779 106.427 15.2564 107.005 15.2564ZM118.287 13.5481C118.695 14.262 119.29 14.619 120.072 14.619C120.854 14.619 121.449 14.262 121.857 13.5481C122.282 12.8172 122.494 11.9079 122.494 10.82C122.494 9.76618 122.282 8.88231 121.857 8.16841C121.449 7.45451 120.854 7.09757 120.072 7.09757C119.29 7.09757 118.695 7.45451 118.287 8.16841C117.879 8.88231 117.675 9.76618 117.675 10.82C117.675 11.9079 117.879 12.8172 118.287 13.5481ZM120.072 17.3216C118.287 17.3216 116.911 16.6757 115.942 15.3839C114.99 14.0751 114.514 12.3753 114.514 10.2846C114.514 7.17405 114.922 4.95588 115.738 3.63007C116.571 2.28726 118.015 1.43739 120.072 1.08044C121.449 0.842474 122.137 0.485525 122.137 0.00959421H125.248C125.248 1.76034 123.812 2.87368 120.939 3.34961C118.678 3.72356 117.42 4.66692 117.165 6.1797C117.981 4.98987 119.154 4.39496 120.684 4.39496C122.231 4.39496 123.446 5.01537 124.33 6.25619C125.214 7.49701 125.656 9.01829 125.656 10.82C125.656 12.6388 125.163 14.177 124.177 15.4349C123.208 16.6927 121.84 17.3216 120.072 17.3216ZM133 17.3216C131.267 17.3216 129.907 16.7012 128.921 15.4604C127.935 14.2025 127.442 12.6643 127.442 10.8455C127.442 9.02679 127.935 7.49701 128.921 6.25619C129.907 5.01537 131.267 4.39496 133 4.39496C134.751 4.39496 136.12 5.01537 137.105 6.25619C138.091 7.49701 138.584 9.02679 138.584 10.8455C138.584 12.6813 138.091 14.2195 137.105 15.4604C136.12 16.7012 134.751 17.3216 133 17.3216ZM133 14.619C133.799 14.619 134.403 14.262 134.811 13.5481C135.219 12.8342 135.423 11.9334 135.423 10.8455C135.423 9.75768 135.219 8.86531 134.811 8.16841C134.403 7.45451 133.799 7.09757 133 7.09757C132.219 7.09757 131.624 7.45451 131.216 8.16841C130.825 8.88231 130.629 9.77468 130.629 10.8455C130.629 11.9334 130.825 12.8342 131.216 13.5481C131.624 14.262 132.219 14.619 133 14.619ZM145.803 17.0156H142.718V7.37802H140.015V4.70091H148.531V7.37802H145.803V17.0156ZM150.295 21.8344L150.754 19.1318C150.992 19.2508 151.255 19.3103 151.544 19.3103C152.224 19.3103 152.674 19.0128 152.895 18.4179L153.303 17.2451L149.147 4.70091H152.411L154.884 13.3187L157.383 4.70091H160.646L155.827 19.1063C155.47 20.1942 154.969 20.9421 154.323 21.35C153.677 21.7749 152.827 21.9959 151.774 22.0129C151.179 22.0129 150.686 21.9534 150.295 21.8344ZM26.4865 40.0156H23.4014V38.7918C23.0615 39.2677 22.5941 39.6417 21.9992 39.9136C21.4212 40.1856 20.8093 40.3216 20.1634 40.3216C19.1266 40.3216 18.2342 39.9561 17.4863 39.2252C16.7384 38.4943 16.3645 37.5 16.3645 36.2422C16.3645 34.9674 16.7299 33.9815 17.4608 33.2846C18.2087 32.5877 19.1096 32.2393 20.1634 32.2393C20.8263 32.2393 21.4467 32.3667 22.0246 32.6217C22.6196 32.8767 23.0785 33.2336 23.4014 33.6925V32.0863C23.4014 31.4234 23.1975 30.9049 22.7895 30.531C22.3986 30.1401 21.8462 29.9446 21.1323 29.9446C20.0104 29.9446 18.9991 30.3865 18.0982 31.2704L16.9509 29.1797C18.1917 27.9899 19.7725 27.395 21.6932 27.395C23.138 27.395 24.2938 27.7519 25.1607 28.4658C26.0446 29.1627 26.4865 30.259 26.4865 31.7548V40.0156ZM21.3362 38.2564C22.2881 38.2564 22.9765 37.8654 23.4014 37.0836V35.5028C22.9595 34.7039 22.2711 34.3045 21.3362 34.3045C20.7583 34.3045 20.2909 34.4914 19.934 34.8654C19.594 35.2223 19.424 35.6983 19.424 36.2932C19.424 36.8881 19.594 37.364 19.934 37.721C20.2909 38.0779 20.7583 38.2564 21.3362 38.2564ZM35.9078 40.0156H29.4827V27.7009H35.7293C36.9701 27.7009 37.905 27.9984 38.5339 28.5933C39.1798 29.1882 39.5028 29.9446 39.5028 30.8625C39.5028 31.5764 39.3073 32.1798 38.9163 32.6727C38.5254 33.1486 38.0155 33.4716 37.3866 33.6416C38.0835 33.7945 38.6529 34.1515 39.0948 34.7124C39.5368 35.2733 39.7577 35.9277 39.7577 36.6756C39.7577 37.6615 39.4348 38.4688 38.7889 39.0978C38.143 39.7097 37.1826 40.0156 35.9078 40.0156ZM35.1939 37.5425C36.1457 37.5425 36.6217 37.1175 36.6217 36.2677C36.6217 35.8937 36.4942 35.5878 36.2392 35.3498C36.0013 35.0948 35.6528 34.9674 35.1939 34.9674H32.5423V37.5425H35.1939ZM35.0919 32.4942C35.9588 32.4942 36.3922 32.1118 36.3922 31.3469C36.3922 30.9899 36.2817 30.7095 36.0608 30.5055C35.8398 30.2845 35.5168 30.1741 35.0919 30.1741H32.5423V32.4942H35.0919ZM47.3799 40.0156H44.2949V30.378H41.5923V27.7009H50.108V30.378H47.3799V40.0156ZM57.0733 40.3216C55.3395 40.3216 53.9797 39.7012 52.9939 38.4604C52.008 37.2025 51.5151 35.6643 51.5151 33.8455C51.5151 32.0268 52.008 30.497 52.9939 29.2562C53.9797 28.0154 55.3395 27.395 57.0733 27.395C58.824 27.395 60.1923 28.0154 61.1782 29.2562C62.164 30.497 62.657 32.0268 62.657 33.8455C62.657 35.6813 62.164 37.2195 61.1782 38.4604C60.1923 39.7012 58.824 40.3216 57.0733 40.3216ZM57.0733 37.619C57.8722 37.619 58.4756 37.262 58.8835 36.5481C59.2915 35.8342 59.4954 34.9334 59.4954 33.8455C59.4954 32.7577 59.2915 31.8653 58.8835 31.1684C58.4756 30.4545 57.8722 30.0976 57.0733 30.0976C56.2914 30.0976 55.6965 30.4545 55.2885 31.1684C54.8976 31.8823 54.7021 32.7747 54.7021 33.8455C54.7021 34.9334 54.8976 35.8342 55.2885 36.5481C55.6965 37.262 56.2914 37.619 57.0733 37.619ZM70.0284 40.3216C68.3456 40.3216 66.9858 39.7182 65.949 38.5113C64.9121 37.3045 64.3937 35.7492 64.3937 33.8455C64.3937 31.9588 64.9121 30.412 65.949 29.2052C66.9858 27.9984 68.3456 27.395 70.0284 27.395C71.7282 27.395 73.037 27.9474 73.9548 29.0522L72.425 31.1684C71.8471 30.4545 71.1587 30.0976 70.3598 30.0976C69.493 30.0976 68.8046 30.4545 68.2946 31.1684C67.8017 31.8653 67.5553 32.7577 67.5553 33.8455C67.5553 34.9504 67.8017 35.8597 68.2946 36.5736C68.8046 37.2705 69.493 37.619 70.3598 37.619C71.1587 37.619 71.8471 37.262 72.425 36.5481L73.9548 38.6643C73.037 39.7692 71.7282 40.3216 70.0284 40.3216ZM75.0741 40.3216V37.7465C75.567 37.7465 75.9494 37.4915 76.2214 36.9816C76.5104 36.4546 76.7313 35.4688 76.8843 34.024L77.4707 27.7009H86.012V40.0156H82.9269V30.378H80.2498L79.9184 34.33C79.7314 36.5056 79.247 38.0524 78.4651 38.9703C77.7002 39.8711 76.5699 40.3216 75.0741 40.3216ZM94.1198 40.3216C92.3861 40.3216 90.9923 39.7267 89.9384 38.5368C88.9016 37.347 88.3831 35.7832 88.3831 33.8455C88.3831 32.0098 88.8846 30.48 89.8874 29.2562C90.8903 28.0154 92.2246 27.395 93.8903 27.395C95.5561 27.395 96.8564 28.0069 97.7913 29.2307C98.7261 30.4375 99.1936 32.0183 99.1936 33.973V34.8399H91.4682C91.5362 35.7237 91.8251 36.4461 92.3351 37.0071C92.845 37.568 93.5504 37.8484 94.4513 37.8484C94.9102 37.8484 95.3861 37.7465 95.879 37.5425C96.372 37.3215 96.7884 37.0241 97.1284 36.6501L98.5307 38.4858C97.4088 39.7097 95.9385 40.3216 94.1198 40.3216ZM96.236 32.7492C96.202 31.9843 95.998 31.3129 95.6241 30.735C95.2501 30.1571 94.6552 29.8681 93.8393 29.8681C93.0575 29.8681 92.471 30.1571 92.0801 30.735C91.7062 31.3129 91.5022 31.9843 91.4682 32.7492H96.236ZM106.473 40.3216C104.79 40.3216 103.431 39.7182 102.394 38.5113C101.357 37.3045 100.838 35.7492 100.838 33.8455C100.838 31.9588 101.357 30.412 102.394 29.2052C103.431 27.9984 104.79 27.395 106.473 27.395C108.173 27.395 109.482 27.9474 110.4 29.0522L108.87 31.1684C108.292 30.4545 107.603 30.0976 106.805 30.0976C105.938 30.0976 105.249 30.4545 104.739 31.1684C104.246 31.8653 104 32.7577 104 33.8455C104 34.9504 104.246 35.8597 104.739 36.5736C105.249 37.2705 105.938 37.619 106.805 37.619C107.603 37.619 108.292 37.262 108.87 36.5481L110.4 38.6643C109.482 39.7692 108.173 40.3216 106.473 40.3216ZM121.921 40.0156H118.836V38.7918C118.496 39.2677 118.029 39.6417 117.434 39.9136C116.856 40.1856 116.244 40.3216 115.598 40.3216C114.561 40.3216 113.669 39.9561 112.921 39.2252C112.173 38.4943 111.799 37.5 111.799 36.2422C111.799 34.9674 112.165 33.9815 112.896 33.2846C113.644 32.5877 114.544 32.2393 115.598 32.2393C116.261 32.2393 116.882 32.3667 117.459 32.6217C118.054 32.8767 118.513 33.2336 118.836 33.6925V32.0863C118.836 31.4234 118.632 30.9049 118.224 30.531C117.833 30.1401 117.281 29.9446 116.567 29.9446C115.445 29.9446 114.434 30.3865 113.533 31.2704L112.386 29.1797C113.627 27.9899 115.207 27.395 117.128 27.395C118.573 27.395 119.729 27.7519 120.596 28.4658C121.479 29.1627 121.921 30.259 121.921 31.7548V40.0156ZM116.771 38.2564C117.723 38.2564 118.411 37.8654 118.836 37.0836V35.5028C118.394 34.7039 117.706 34.3045 116.771 34.3045C116.193 34.3045 115.726 34.4914 115.369 34.8654C115.029 35.2223 114.859 35.6983 114.859 36.2932C114.859 36.8881 115.029 37.364 115.369 37.721C115.726 38.0779 116.193 38.2564 116.771 38.2564ZM131.088 40.3216C129.762 40.3216 128.725 39.7012 127.977 38.4604V44.7069H124.918V27.7009H127.977V29.2562C128.759 28.0154 129.796 27.395 131.088 27.395C132.481 27.395 133.586 27.9729 134.402 29.1287C135.235 30.2675 135.651 31.8398 135.651 33.8455C135.651 35.8342 135.235 37.415 134.402 38.5878C133.586 39.7437 132.481 40.3216 131.088 40.3216ZM130.093 37.619C130.858 37.619 131.445 37.2705 131.853 36.5736C132.277 35.8767 132.49 34.9674 132.49 33.8455C132.49 32.7407 132.277 31.8398 131.853 31.1429C131.445 30.446 130.858 30.0976 130.093 30.0976C129.685 30.0976 129.277 30.2335 128.869 30.5055C128.479 30.7775 128.181 31.1174 127.977 31.5254V36.1657C128.181 36.5736 128.479 36.9221 128.869 37.211C129.277 37.483 129.685 37.619 130.093 37.619ZM143.095 40.3216C141.361 40.3216 139.967 39.7267 138.913 38.5368C137.876 37.347 137.358 35.7832 137.358 33.8455C137.358 32.0098 137.859 30.48 138.862 29.2562C139.865 28.0154 141.199 27.395 142.865 27.395C144.531 27.395 145.831 28.0069 146.766 29.2307C147.701 30.4375 148.168 32.0183 148.168 33.973V34.8399H140.443C140.511 35.7237 140.8 36.4461 141.31 37.0071C141.82 37.568 142.525 37.8484 143.426 37.8484C143.885 37.8484 144.361 37.7465 144.854 37.5425C145.347 37.3215 145.763 37.0241 146.103 36.6501L147.505 38.4858C146.384 39.7097 144.913 40.3216 143.095 40.3216ZM145.211 32.7492C145.177 31.9843 144.973 31.3129 144.599 30.735C144.225 30.1571 143.63 29.8681 142.814 29.8681C142.032 29.8681 141.446 30.1571 141.055 30.735C140.681 31.3129 140.477 31.9843 140.443 32.7492H145.211ZM163.352 40.0156H160.318V32.5452L157.564 40.0156H156.238L153.51 32.5452V40.0156H150.451V27.7009H154.377L156.901 34.5594L159.451 27.7009H163.352V40.0156ZM20.0869 63.0156H17.0274V50.7009H20.0869V55.2902H23.9369V50.7009H27.0219V63.0156H23.9369V57.9674H20.0869V63.0156ZM39.4896 63.0156H36.4046V61.7918C36.0646 62.2677 35.5972 62.6417 35.0023 62.9136C34.4243 63.1856 33.8124 63.3216 33.1665 63.3216C32.1297 63.3216 31.2373 62.9561 30.4894 62.2252C29.7415 61.4943 29.3676 60.5 29.3676 59.2422C29.3676 57.9674 29.733 56.9815 30.4639 56.2846C31.2118 55.5877 32.1127 55.2393 33.1665 55.2393C33.8294 55.2393 34.4498 55.3667 35.0278 55.6217C35.6227 55.8767 36.0816 56.2336 36.4046 56.6925V55.0863C36.4046 54.4234 36.2006 53.9049 35.7926 53.531C35.4017 53.1401 34.8493 52.9446 34.1354 52.9446C33.0136 52.9446 32.0022 53.3865 31.1013 54.2704L29.954 52.1797C31.1948 50.9899 32.7756 50.395 34.6963 50.395C36.1411 50.395 37.2969 50.7519 38.1638 51.4658C39.0477 52.1627 39.4896 53.259 39.4896 54.7548V63.0156ZM34.3394 61.2564C35.2912 61.2564 35.9796 60.8654 36.4046 60.0836V58.5028C35.9626 57.7039 35.2742 57.3045 34.3394 57.3045C33.7614 57.3045 33.294 57.4914 32.9371 57.8654C32.5971 58.2223 32.4271 58.6983 32.4271 59.2932C32.4271 59.8881 32.5971 60.364 32.9371 60.721C33.294 61.0779 33.7614 61.2564 34.3394 61.2564ZM58.0886 63.0156H55.029V54.8568C55.029 53.684 54.4851 53.0976 53.3972 53.0976C52.9383 53.0976 52.5134 53.2505 52.1224 53.5565C51.7315 53.8455 51.417 54.2024 51.1791 54.6273V63.0156H48.094V46.0096H51.1791V52.3072C51.519 51.7803 52.0119 51.3298 52.6578 50.9559C53.3208 50.5819 54.0262 50.395 54.774 50.395C56.9837 50.395 58.0886 51.4998 58.0886 53.7095V63.0156ZM71.0917 63.0156H68.0321V54.8568C68.0321 53.684 67.4882 53.0976 66.4004 53.0976C65.9414 53.0976 65.5165 53.2505 65.1255 53.5565C64.7346 53.8455 64.4201 54.2024 64.1822 54.6273V63.0156H61.0971V46.0096H64.1822V52.3072C64.5221 51.7803 65.0151 51.3298 65.661 50.9559C66.3239 50.5819 67.0293 50.395 67.7772 50.395C69.9868 50.395 71.0917 51.4998 71.0917 53.7095V63.0156ZM77.3128 62.7352C76.9388 63.1091 76.4799 63.2961 75.936 63.2961C75.392 63.2961 74.9246 63.1006 74.5337 62.7097C74.1427 62.3187 73.9473 61.8598 73.9473 61.3329C73.9473 60.7889 74.1427 60.3215 74.5337 59.9306C74.9246 59.5396 75.392 59.3442 75.936 59.3442C76.4629 59.3442 76.9218 59.5396 77.3128 59.9306C77.7037 60.3215 77.8992 60.7889 77.8992 61.3329C77.8992 61.8768 77.7037 62.3442 77.3128 62.7352ZM83.8386 63.0156H80.7791V50.7009H83.8386V52.3837C84.1956 51.8228 84.68 51.3553 85.2919 50.9814C85.9208 50.5904 86.5582 50.395 87.2041 50.395V53.4035C87.0002 53.3525 86.7537 53.327 86.4647 53.327C85.9718 53.327 85.4704 53.4715 84.9605 53.7605C84.4675 54.0324 84.0936 54.3809 83.8386 54.8058V63.0156ZM99.1699 63.0156H96.1103V61.4604C95.7534 61.9873 95.2519 62.4292 94.606 62.7862C93.9601 63.1431 93.2547 63.3216 92.4898 63.3216C90.2972 63.3216 89.2008 62.2167 89.2008 60.0071V50.7009H92.2604V58.8342C92.2604 60.0241 92.8043 60.619 93.8921 60.619C94.81 60.619 95.5494 60.1175 96.1103 59.1147V50.7009H99.1699V63.0156Z" fill="white"/>
  <path d="M105.016 52.7149L107.642 52.7149L110.829 57.3042L107.642 61.8171L105.016 61.8171L108.203 57.3042L105.016 52.7149ZM109.325 52.7149L111.925 52.7149L115.112 57.3042L111.925 61.8171L109.325 61.8171L112.512 57.3042L109.325 52.7149Z" fill="white"/>
  </svg>
  