<svg width="213" height="86" viewBox="0 0 213 86" fill="none" xmlns="http://www.w3.org/2000/svg">
  <path d="M13.4896 19.7638H9.99722L5.75891 13.6606L9.99722 7.65916H13.4896L9.25128 13.6606L13.4896 19.7638ZM7.75939 19.7638H4.30092L0.0626064 13.6606L4.30092 7.65916H7.75939L3.52107 13.6606L7.75939 19.7638Z" fill="white"/>
  <path d="M25.8549 22.8999H21.9218V6.52304H25.9906V15.7456L31.0426 6.52304H35.2131V22.8999H31.1104V13.3044L25.8549 22.8999ZM55.7944 6.52304H59.8632V19.3397H61.6941V27.0704H57.5915V22.8999H39.2141V6.52304H43.2829V19.3397H47.4873V6.52304H51.59V19.3397H55.7944V6.52304ZM68.2871 22.8999H64.354V6.52304H68.4227V15.7456L73.4748 6.52304H77.6453V22.8999H73.5426V13.3044L68.2871 22.8999ZM88.0885 22.8999H83.9858V10.0832H80.3917V6.52304H91.7165V10.0832H88.0885V22.8999ZM101.217 23.3068C96.6054 23.3068 93.5878 19.8483 93.5878 14.6945C93.5878 9.9476 96.3681 6.11616 100.912 6.11616C105.421 6.11616 107.964 9.77807 107.964 14.8641V16.0169H97.6904C97.86 18.2547 99.1823 20.0178 101.658 20.0178C102.81 20.0178 104.302 19.4414 105.218 18.4242L107.083 20.8655C105.625 22.4591 103.421 23.3068 101.217 23.3068ZM104.031 13.2365C103.963 11.5412 103.217 9.4051 100.844 9.4051C98.572 9.4051 97.7583 11.5412 97.6904 13.2365H104.031ZM126.663 23.3068C125.103 23.3068 123.543 22.5269 122.526 20.8316V29.1387H118.457V6.52304H122.526V8.59134C123.543 6.96383 125.069 6.11616 126.663 6.11616C130.359 6.11616 132.732 9.33729 132.732 14.6945C132.732 20.0178 130.359 23.3068 126.663 23.3068ZM125.34 19.7127C127.443 19.7127 128.528 17.5766 128.528 14.6945C128.528 11.8464 127.443 9.71026 125.34 9.71026C124.255 9.71026 123.069 10.524 122.526 11.609V17.78C123.069 18.8311 124.255 19.7127 125.34 19.7127ZM148.428 22.8999H144.326V21.2724C143.41 22.5608 141.681 23.3068 140.02 23.3068C137.443 23.3068 134.968 21.3741 134.968 17.8817C134.968 14.2876 137.443 12.5584 140.02 12.5584C141.715 12.5584 143.444 13.2365 144.326 14.4911V12.355C144.326 10.5918 143.241 9.50682 141.308 9.50682C139.884 9.50682 138.494 10.0832 137.273 11.27L135.747 8.48962C137.477 6.8282 139.952 6.11616 142.054 6.11616C145.614 6.11616 148.428 7.70977 148.428 11.9142V22.8999ZM141.579 20.5604C142.698 20.5604 143.783 19.9839 144.326 19.0007V16.8984C143.783 15.9152 142.698 15.3048 141.579 15.3048C140.053 15.3048 139.036 16.3898 139.036 17.9495C139.036 19.5092 140.053 20.5604 141.579 20.5604ZM158.957 19.7127C161.161 19.7127 162.178 17.3731 162.178 14.6606C162.178 12.0498 161.161 9.71026 158.957 9.71026C156.787 9.71026 155.77 12.0498 155.77 14.6606C155.77 17.3731 156.787 19.7127 158.957 19.7127ZM158.957 23.3068C154.04 23.3068 151.565 19.3058 151.565 13.9486C151.565 5.60757 153.532 2.6577 158.957 1.70831C160.89 1.36925 161.703 0.996277 161.703 0.284238H165.84C165.84 3.47145 162.381 4.35302 160.11 4.726C156.855 5.2685 155.431 6.52304 155.092 8.48962C156.109 6.99773 157.736 6.11616 159.771 6.11616C164.043 6.11616 166.382 10.1171 166.382 14.6606C166.382 19.2041 163.873 23.3068 158.957 23.3068ZM176.15 23.3068C171.335 23.3068 168.758 19.3058 168.758 14.6945C168.758 10.1171 171.335 6.11616 176.15 6.11616C181.032 6.11616 183.575 10.1171 183.575 14.6945C183.575 19.3058 181.032 23.3068 176.15 23.3068ZM176.15 19.7127C178.388 19.7127 179.371 17.407 179.371 14.6945C179.371 12.0159 178.388 9.71026 176.15 9.71026C173.98 9.71026 172.997 12.0159 172.997 14.6945C172.997 17.407 173.98 19.7127 176.15 19.7127ZM193.175 22.8999H189.072V10.0832H185.478V6.52304H196.803V10.0832H193.175V22.8999ZM199.149 29.3082L199.759 25.7141C200.03 25.8498 200.505 25.9515 200.81 25.9515C201.726 25.9515 202.302 25.6124 202.607 24.7648L203.15 23.2051L197.623 6.52304H201.963L205.252 17.9835L208.575 6.52304H212.915L206.507 25.6802C205.489 28.6979 203.726 29.5117 201.115 29.5456C200.607 29.5456 199.59 29.4439 199.149 29.3082ZM25.8549 53.8999H21.9218V37.523H25.9906V46.7456L31.0426 37.523H35.2131V53.8999H31.1104V44.3044L25.8549 53.8999ZM43.2829 53.8999H39.2141V37.523H43.2829V43.6262H48.4028V37.523H52.5055V53.8999H48.4028V47.1864H43.2829V53.8999ZM59.558 53.8999H54.7772L60.1344 44.8808L54.9467 37.523H59.6937L63.559 43.2872V37.523H67.6278V43.355L71.527 37.523H76.2401L71.0863 44.8808L76.4435 53.8999H71.6627L68.272 47.4916L67.6278 48.407V53.8999H63.559V48.3392L62.9487 47.4916L59.558 53.8999ZM85.1826 54.3068C80.5713 54.3068 77.5537 50.8483 77.5537 45.6945C77.5537 40.9476 80.334 37.1162 84.8775 37.1162C89.387 37.1162 91.93 40.7781 91.93 45.8641V47.0169H81.6564C81.8259 49.2547 83.1482 51.0178 85.6234 51.0178C86.7762 51.0178 88.2681 50.4414 89.1836 49.4242L91.0485 51.8655C89.5905 53.4591 87.3866 54.3068 85.1826 54.3068ZM87.9969 44.2365C87.9291 42.5412 87.1831 40.4051 84.8097 40.4051C82.5379 40.4051 81.7242 42.5412 81.6564 44.2365H87.9969ZM99.034 53.8999H94.9652V37.523H99.034V43.6262H104.154V37.523H108.257V53.8999H104.154V47.1864H99.034V53.8999ZM119.039 54.3068C114.428 54.3068 111.41 50.8483 111.41 45.6945C111.41 40.9476 114.19 37.1162 118.734 37.1162C123.243 37.1162 125.786 40.7781 125.786 45.8641V47.0169H115.513C115.682 49.2547 117.004 51.0178 119.48 51.0178C120.632 51.0178 122.124 50.4414 123.04 49.4242L124.905 51.8655C123.447 53.4591 121.243 54.3068 119.039 54.3068ZM121.853 44.2365C121.785 42.5412 121.039 40.4051 118.666 40.4051C116.394 40.4051 115.58 42.5412 115.513 44.2365H121.853ZM137.027 54.3068C135.467 54.3068 133.907 53.5269 132.89 51.8316V60.1387H128.821V37.523H132.89V39.5913C133.907 37.9638 135.433 37.1162 137.027 37.1162C140.723 37.1162 143.096 40.3373 143.096 45.6945C143.096 51.0178 140.723 54.3068 137.027 54.3068ZM135.704 50.7127C137.807 50.7127 138.892 48.5766 138.892 45.6945C138.892 42.8464 137.807 40.7103 135.704 40.7103C134.619 40.7103 133.433 41.524 132.89 42.609V48.78C133.433 49.8311 134.619 50.7127 135.704 50.7127ZM152.757 54.3068C147.942 54.3068 145.365 50.3058 145.365 45.6945C145.365 41.1171 147.942 37.1162 152.757 37.1162C157.64 37.1162 160.183 41.1171 160.183 45.6945C160.183 50.3058 157.64 54.3068 152.757 54.3068ZM152.757 50.7127C154.995 50.7127 155.978 48.407 155.978 45.6945C155.978 43.0159 154.995 40.7103 152.757 40.7103C150.587 40.7103 149.604 43.0159 149.604 45.6945C149.604 48.407 150.587 50.7127 152.757 50.7127ZM180.497 53.8999H176.462V43.9653L172.8 53.8999H171.037L167.409 43.9653V53.8999H163.34V37.523H168.561L171.918 46.6439L175.309 37.523H180.497V53.8999ZM25.9906 84.8999H21.9218V68.523H25.9906V74.6262H31.1104V68.523H35.2131V84.8999H31.1104V78.1864H25.9906V84.8999ZM51.7934 84.8999H47.6907V83.2724C46.7753 84.5608 45.046 85.3068 43.3846 85.3068C40.8077 85.3068 38.3325 83.3741 38.3325 79.8817C38.3325 76.2876 40.8077 74.5584 43.3846 74.5584C45.0799 74.5584 46.8092 75.2365 47.6907 76.4911V74.355C47.6907 72.5918 46.6057 71.5068 44.6731 71.5068C43.249 71.5068 41.8588 72.0832 40.6382 73.27L39.1124 70.4896C40.8416 68.8282 43.3168 68.1162 45.419 68.1162C48.9792 68.1162 51.7934 69.7098 51.7934 73.9142V84.8999ZM44.9443 82.5604C46.0632 82.5604 47.1482 81.9839 47.6907 81.0007V78.8984C47.1482 77.9152 46.0632 77.3048 44.9443 77.3048C43.4185 77.3048 42.4013 78.3898 42.4013 79.9495C42.4013 81.5092 43.4185 82.5604 44.9443 82.5604ZM76.5275 84.8999H72.4587V74.0498C72.4587 72.3545 71.6449 71.7103 70.2887 71.7103C68.9663 71.7103 67.8813 72.7614 67.3388 73.7446V84.8999H63.2361V62.2842H67.3388V70.6592C68.1865 69.3707 70.0174 68.1162 72.1196 68.1162C75.1712 68.1162 76.5275 69.7776 76.5275 72.524V84.8999ZM93.8198 84.8999H89.751V74.0498C89.751 72.3545 88.9373 71.7103 87.581 71.7103C86.2586 71.7103 85.1736 72.7614 84.6311 73.7446V84.8999H80.5284V62.2842H84.6311V70.6592C85.4788 69.3707 87.3097 68.1162 89.4119 68.1162C92.4635 68.1162 93.8198 69.7776 93.8198 72.524V84.8999ZM100.262 85.2729C98.838 85.2729 97.6173 84.0861 97.6173 82.6621C97.6173 81.238 98.838 80.0174 100.262 80.0174C101.686 80.0174 102.873 81.238 102.873 82.6621C102.873 84.0861 101.686 85.2729 100.262 85.2729ZM110.771 84.8999H106.703V68.523H110.771V70.7609C111.687 69.3029 113.484 68.1162 115.247 68.1162V72.1171C114.976 72.0493 114.637 72.0154 114.264 72.0154C112.975 72.0154 111.45 72.8631 110.771 73.982V84.8999ZM131.16 84.8999H127.091V82.8316C126.21 84.1201 124.413 85.3068 122.276 85.3068C119.259 85.3068 117.902 83.6454 117.902 80.8989V68.523H121.971V79.3392C121.971 81.0685 122.785 81.7127 124.141 81.7127C125.464 81.7127 126.515 80.7294 127.091 79.7122V68.523H131.16V84.8999Z" fill="white"/>
  <path d="M138.934 71.1395L142.427 71.1395L146.665 77.2427L142.427 83.2442L138.934 83.2442L143.173 77.2427L138.934 71.1395ZM144.665 71.1395L148.123 71.1395L152.361 77.2427L148.123 83.2442L144.665 83.2442L148.903 77.2427L144.665 71.1395Z" fill="white"/>
  </svg>
  