<svg width="403" height="64" viewBox="0 0 403 64" fill="none" xmlns="http://www.w3.org/2000/svg">
  <path d="M16.4037 23.805H12.2801L7.27582 16.5988L12.2801 9.51267H16.4037L11.3994 16.5988L16.4037 23.805ZM9.63786 23.805H5.55434L0.550033 16.5988L5.55434 9.51267H9.63786L4.63355 16.5988L9.63786 23.805Z" fill="white"/>
  <path d="M31.0039 27.3271H26.3599V7.9905H31.164V18.8799L37.1291 7.9905H42.0534V27.3271H37.2092V15.9974L31.0039 27.3271ZM66.3543 7.9905H71.1584V23.1235H73.3203V32.2514H68.4761V27.3271H46.7774V7.9905H51.5816V23.1235H56.5458V7.9905H61.39V23.1235H66.3543V7.9905ZM81.1048 27.3271H76.4608V7.9905H81.2649V18.8799L87.2301 7.9905H92.1543V27.3271H87.3101V15.9974L81.1048 27.3271ZM104.485 27.3271H99.6408V12.1941H95.3971V7.9905H108.769V12.1941H104.485V27.3271ZM119.986 27.8076C117.263 27.8076 115.075 26.8734 113.42 25.0051C111.792 23.1369 110.978 20.6814 110.978 17.6388C110.978 14.7563 111.765 12.3543 113.34 10.4326C114.915 8.48426 117.01 7.51009 119.625 7.51009C122.241 7.51009 124.283 8.47092 125.751 10.3926C127.219 12.2875 127.953 14.7697 127.953 17.839V19.2002H115.822C115.929 20.588 116.383 21.7223 117.183 22.6031C117.984 23.4838 119.092 23.9242 120.506 23.9242C121.227 23.9242 121.974 23.7641 122.748 23.4438C123.522 23.0968 124.176 22.6298 124.71 22.0426L126.912 24.9251C125.15 26.8467 122.842 27.8076 119.986 27.8076ZM123.309 15.9173C123.255 14.7163 122.935 13.6621 122.348 12.7546C121.761 11.8472 120.826 11.3934 119.545 11.3934C118.318 11.3934 117.397 11.8472 116.783 12.7546C116.196 13.6621 115.876 14.7163 115.822 15.9173H123.309ZM150.031 27.8076C147.949 27.8076 146.321 26.8334 145.146 24.885V34.6935H140.342V7.9905H145.146V10.4326C146.374 8.48426 148.002 7.51009 150.031 7.51009C152.219 7.51009 153.954 8.41754 155.235 10.2324C156.543 12.0206 157.197 14.4894 157.197 17.6388C157.197 20.7615 156.543 23.2436 155.235 25.0852C153.954 26.9001 152.219 27.8076 150.031 27.8076ZM148.469 23.5639C149.67 23.5639 150.591 23.0168 151.232 21.9225C151.899 20.8282 152.233 19.4003 152.233 17.6388C152.233 15.904 151.899 14.4894 151.232 13.3952C150.591 12.3009 149.67 11.7537 148.469 11.7537C147.829 11.7537 147.188 11.9673 146.548 12.3943C145.934 12.8213 145.467 13.3551 145.146 13.9957V21.2819C145.467 21.9225 145.934 22.4696 146.548 22.9234C147.188 23.3504 147.829 23.5639 148.469 23.5639ZM175.73 27.3271H170.886V25.4055C170.352 26.1528 169.618 26.74 168.684 27.167C167.776 27.594 166.816 27.8076 165.801 27.8076C164.173 27.8076 162.772 27.2337 161.598 26.0861C160.423 24.9384 159.836 23.3771 159.836 21.402C159.836 19.4003 160.41 17.8523 161.558 16.7581C162.732 15.6638 164.147 15.1166 165.801 15.1166C166.842 15.1166 167.817 15.3168 168.724 15.7172C169.658 16.1175 170.379 16.678 170.886 17.3986V14.8764C170.886 13.8355 170.566 13.0215 169.925 12.4343C169.311 11.8205 168.444 11.5135 167.323 11.5135C165.561 11.5135 163.973 12.2075 162.559 13.5953L160.757 10.3125C162.705 8.44423 165.188 7.51009 168.204 7.51009C170.472 7.51009 172.287 8.07057 173.648 9.19154C175.036 10.2858 175.73 12.0073 175.73 14.356V27.3271ZM167.643 24.5648C169.138 24.5648 170.219 23.9509 170.886 22.7232V20.241C170.192 18.9866 169.111 18.3594 167.643 18.3594C166.736 18.3594 166.002 18.653 165.441 19.2402C164.907 19.8007 164.64 20.548 164.64 21.4821C164.64 22.4163 164.907 23.1636 165.441 23.724C166.002 24.2845 166.736 24.5648 167.643 24.5648ZM185.359 21.8825C185.999 23.0034 186.934 23.5639 188.161 23.5639C189.389 23.5639 190.323 23.0034 190.964 21.8825C191.631 20.7348 191.965 19.3069 191.965 17.5988C191.965 15.944 191.631 14.5562 190.964 13.4352C190.323 12.3142 189.389 11.7537 188.161 11.7537C186.934 11.7537 185.999 12.3142 185.359 13.4352C184.718 14.5562 184.398 15.944 184.398 17.5988C184.398 19.3069 184.718 20.7348 185.359 21.8825ZM188.161 27.8076C185.359 27.8076 183.197 26.7934 181.676 24.7649C180.181 22.7098 179.434 20.0409 179.434 16.7581C179.434 11.8738 180.074 8.39085 181.355 6.30905C182.663 4.20057 184.932 2.86609 188.161 2.30561C190.323 1.93195 191.404 1.37147 191.404 0.62416H196.288C196.288 3.37319 194.033 5.12137 189.522 5.86868C185.973 6.45585 183.998 7.93712 183.597 10.3125C184.878 8.44423 186.72 7.51009 189.122 7.51009C191.551 7.51009 193.459 8.48426 194.847 10.4326C196.235 12.3809 196.929 14.7697 196.929 17.5988C196.929 20.4546 196.155 22.87 194.607 24.845C193.086 26.82 190.937 27.8076 188.161 27.8076ZM208.462 27.8076C205.739 27.8076 203.604 26.8334 202.056 24.885C200.508 22.91 199.734 20.4946 199.734 17.6388C199.734 14.783 200.508 12.3809 202.056 10.4326C203.604 8.48426 205.739 7.51009 208.462 7.51009C211.211 7.51009 213.359 8.48426 214.907 10.4326C216.455 12.3809 217.229 14.783 217.229 17.6388C217.229 20.5213 216.455 22.9367 214.907 24.885C213.359 26.8334 211.211 27.8076 208.462 27.8076ZM208.462 23.5639C209.716 23.5639 210.664 23.0034 211.304 21.8825C211.945 20.7615 212.265 19.3469 212.265 17.6388C212.265 15.9307 211.945 14.5295 211.304 13.4352C210.664 12.3142 209.716 11.7537 208.462 11.7537C207.234 11.7537 206.3 12.3142 205.659 13.4352C205.045 14.5562 204.738 15.9574 204.738 17.6388C204.738 19.3469 205.045 20.7615 205.659 21.8825C206.3 23.0034 207.234 23.5639 208.462 23.5639ZM228.564 27.3271H223.719V12.1941H219.476V7.9905H232.847V12.1941H228.564V27.3271ZM235.617 34.8937L236.338 30.65C236.711 30.8368 237.125 30.9303 237.579 30.9303C238.646 30.9303 239.354 30.4632 239.701 29.529L240.341 27.6875L233.816 7.9905H238.94L242.823 21.5222L246.747 7.9905H251.871L244.305 30.61C243.744 32.3181 242.957 33.4925 241.943 34.133C240.928 34.8002 239.594 35.1472 237.939 35.1739C237.005 35.1739 236.231 35.0805 235.617 34.8937ZM46.6173 63.3271H41.8532V51.5971L37.5295 63.3271H35.4477L31.164 51.5971V63.3271H26.3599V43.9905H32.5252L36.4886 54.7598L40.492 43.9905H46.6173V63.3271ZM66.2045 63.3271H61.3603V61.4055C60.8265 62.1528 60.0925 62.74 59.1584 63.167C58.251 63.594 57.2901 63.8076 56.2759 63.8076C54.6479 63.8076 53.2466 63.2337 52.0723 62.0861C50.898 60.9384 50.3108 59.3771 50.3108 57.402C50.3108 55.4003 50.8846 53.8523 52.0323 52.7581C53.2066 51.6638 54.6212 51.1166 56.2759 51.1166C57.3168 51.1166 58.291 51.3168 59.1984 51.7172C60.1326 52.1175 60.8532 52.678 61.3603 53.3986V50.8764C61.3603 49.8355 61.04 49.0215 60.3995 48.4343C59.7856 47.8205 58.9182 47.5135 57.7972 47.5135C56.0357 47.5135 54.4477 48.2075 53.0331 49.5953L51.2316 46.3125C53.1799 44.4442 55.6621 43.5101 58.678 43.5101C60.9466 43.5101 62.7615 44.0706 64.1227 45.1915C65.5105 46.2858 66.2045 48.0073 66.2045 50.356V63.3271ZM58.1175 60.5648C59.6121 60.5648 60.6931 59.9509 61.3603 58.7232V56.241C60.6664 54.9866 59.5854 54.3594 58.1175 54.3594C57.2101 54.3594 56.4761 54.653 55.9156 55.2402C55.3818 55.8007 55.1149 56.548 55.1149 57.4821C55.1149 58.4163 55.3818 59.1636 55.9156 59.724C56.4761 60.2845 57.2101 60.5648 58.1175 60.5648ZM90.486 43.9905H95.2901V63.3271H70.9091V43.9905H75.7133V59.1235H80.6776V43.9905H85.5217V59.1235H90.486V43.9905ZM104.65 63.3271H100.006V43.9905H104.81V54.8799L110.775 43.9905H115.7V63.3271H110.855V51.9974L104.65 63.3271ZM125.228 63.3271H120.424V43.9905H125.228V51.1967H131.273V43.9905H136.117V63.3271H131.273V55.4003H125.228V63.3271ZM145.485 63.3271H140.841V43.9905H145.645V54.8799L151.61 43.9905H156.535V63.3271H151.691V51.9974L145.485 63.3271ZM169.106 63.8076C166.463 63.8076 164.328 62.8601 162.7 60.9651C161.072 59.0702 160.258 56.628 160.258 53.6388C160.258 50.6763 161.072 48.2475 162.7 46.3525C164.328 44.4576 166.463 43.5101 169.106 43.5101C171.775 43.5101 173.83 44.3775 175.271 46.1123L172.869 49.4352C171.961 48.3142 170.88 47.7537 169.626 47.7537C168.265 47.7537 167.184 48.3142 166.383 49.4352C165.609 50.5295 165.222 51.9307 165.222 53.6388C165.222 55.3736 165.609 56.8015 166.383 57.9225C167.184 59.0168 168.265 59.5639 169.626 59.5639C170.88 59.5639 171.961 59.0034 172.869 57.8825L175.271 61.2053C173.83 62.9401 171.775 63.8076 169.106 63.8076ZM186.116 63.3271H181.272V48.1941H177.028V43.9905H190.4V48.1941H186.116V63.3271ZM201.337 63.8076C198.614 63.8076 196.479 62.8334 194.931 60.885C193.383 58.91 192.609 56.4946 192.609 53.6388C192.609 50.783 193.383 48.3809 194.931 46.4326C196.479 44.4843 198.614 43.5101 201.337 43.5101C204.086 43.5101 206.234 44.4843 207.782 46.4326C209.33 48.3809 210.104 50.783 210.104 53.6388C210.104 56.5213 209.33 58.9367 207.782 60.885C206.234 62.8334 204.086 63.8076 201.337 63.8076ZM201.337 59.5639C202.591 59.5639 203.539 59.0034 204.179 57.8825C204.82 56.7615 205.14 55.3469 205.14 53.6388C205.14 51.9307 204.82 50.5295 204.179 49.4352C203.539 48.3142 202.591 47.7537 201.337 47.7537C200.109 47.7537 199.175 48.3142 198.534 49.4352C197.92 50.5562 197.614 51.9574 197.614 53.6388C197.614 55.3469 197.92 56.7615 198.534 57.8825C199.175 59.0034 200.109 59.5639 201.337 59.5639ZM234.09 63.3271H229.326V51.5971L225.002 63.3271H222.92L218.636 51.5971V63.3271H213.832V43.9905H219.997L223.961 54.7598L227.964 43.9905H234.09V63.3271ZM252.434 63.3271H247.63V43.9905H252.434V51.1967H258.479V43.9905H263.324V63.3271H258.479V55.4003H252.434V63.3271ZM282.9 63.3271H278.056V61.4055C277.522 62.1528 276.788 62.74 275.854 63.167C274.947 63.594 273.986 63.8076 272.972 63.8076C271.344 63.8076 269.943 63.2337 268.768 62.0861C267.594 60.9384 267.007 59.3771 267.007 57.402C267.007 55.4003 267.581 53.8523 268.728 52.7581C269.903 51.6638 271.317 51.1166 272.972 51.1166C274.013 51.1166 274.987 51.3168 275.894 51.7172C276.828 52.1175 277.549 52.678 278.056 53.3986V50.8764C278.056 49.8355 277.736 49.0215 277.095 48.4343C276.482 47.8205 275.614 47.5135 274.493 47.5135C272.732 47.5135 271.144 48.2075 269.729 49.5953L267.927 46.3125C269.876 44.4442 272.358 43.5101 275.374 43.5101C277.643 43.5101 279.457 44.0706 280.819 45.1915C282.206 46.2858 282.9 48.0073 282.9 50.356V63.3271ZM274.813 60.5648C276.308 60.5648 277.389 59.9509 278.056 58.7232V56.241C277.362 54.9866 276.281 54.3594 274.813 54.3594C273.906 54.3594 273.172 54.653 272.612 55.2402C272.078 55.8007 271.811 56.548 271.811 57.4821C271.811 58.4163 272.078 59.1636 272.612 59.724C273.172 60.2845 273.906 60.5648 274.813 60.5648ZM312.105 63.3271H307.3V50.5161C307.3 48.6745 306.446 47.7537 304.738 47.7537C304.018 47.7537 303.35 47.9939 302.737 48.4744C302.123 48.9281 301.629 49.4886 301.255 50.1558V63.3271H296.411V36.6242H301.255V46.5127C301.789 45.6853 302.563 44.978 303.577 44.3908C304.618 43.8037 305.726 43.5101 306.9 43.5101C310.37 43.5101 312.105 45.2449 312.105 48.7146V63.3271ZM332.522 63.3271H327.718V50.5161C327.718 48.6745 326.864 47.7537 325.156 47.7537C324.435 47.7537 323.768 47.9939 323.154 48.4744C322.54 48.9281 322.046 49.4886 321.673 50.1558V63.3271H316.829V36.6242H321.673V46.5127C322.207 45.6853 322.981 44.978 323.995 44.3908C325.036 43.8037 326.143 43.5101 327.318 43.5101C330.787 43.5101 332.522 45.2449 332.522 48.7146V63.3271ZM342.291 62.8868C341.703 63.4739 340.983 63.7675 340.129 63.7675C339.275 63.7675 338.541 63.4606 337.927 62.8467C337.313 62.2329 337.006 61.5123 337.006 60.6849C337.006 59.8308 337.313 59.0968 337.927 58.483C338.541 57.8691 339.275 57.5622 340.129 57.5622C340.956 57.5622 341.677 57.8691 342.291 58.483C342.904 59.0968 343.211 59.8308 343.211 60.6849C343.211 61.5389 342.904 62.2729 342.291 62.8868ZM352.537 63.3271H347.733V43.9905H352.537V46.6328C353.098 45.752 353.859 45.0181 354.819 44.4309C355.807 43.817 356.808 43.5101 357.822 43.5101V48.2342C357.502 48.1541 357.115 48.1141 356.661 48.1141C355.887 48.1141 355.1 48.3409 354.299 48.7946C353.525 49.2217 352.938 49.7688 352.537 50.4361V63.3271ZM376.611 63.3271H371.807V60.885C371.246 61.7124 370.459 62.4064 369.445 62.9668C368.43 63.5273 367.323 63.8076 366.122 63.8076C362.679 63.8076 360.957 62.0727 360.957 58.6031V43.9905H365.761V56.7615C365.761 58.6298 366.615 59.5639 368.324 59.5639C369.765 59.5639 370.926 58.7766 371.807 57.2019V43.9905H376.611V63.3271Z" fill="white"/>
  <path d="M386.992 48.1569L391.116 48.1569L396.12 55.3631L391.116 62.4492L386.992 62.4492L391.997 55.3631L386.992 48.1569ZM393.758 48.1569L397.842 48.1569L402.846 55.3631L397.842 62.4492L393.758 62.4492L398.762 55.3631L393.758 48.1569Z" fill="white"/>
  </svg>
  