<svg width="383" height="71" viewBox="0 0 383 71" fill="none" xmlns="http://www.w3.org/2000/svg">
  <path d="M16.4036 23.805H12.28L7.2757 16.5988L12.28 9.51267H16.4036L11.3993 16.5988L16.4036 23.805ZM9.63773 23.805H5.55422L0.549911 16.5988L5.55422 9.51267H9.63773L4.63343 16.5988L9.63773 23.805Z" fill="white"/>
  <path d="M31.0039 27.3271H26.3599V7.9905H31.164V18.8799L37.1291 7.9905H42.0534V27.3271H37.2092V15.9974L31.0039 27.3271ZM66.3543 7.9905H71.1584V23.1235H73.3203V32.2514H68.4761V27.3271H46.7774V7.9905H51.5816V23.1235H56.5458V7.9905H61.39V23.1235H66.3543V7.9905ZM81.1048 27.3271H76.4608V7.9905H81.2649V18.8799L87.2301 7.9905H92.1543V27.3271H87.3101V15.9974L81.1048 27.3271ZM104.485 27.3271H99.6408V12.1941H95.3971V7.9905H108.769V12.1941H104.485V27.3271ZM119.986 27.8076C114.541 27.8076 110.978 23.724 110.978 17.6388C110.978 12.034 114.261 7.51009 119.625 7.51009C124.95 7.51009 127.953 11.8338 127.953 17.839V19.2002H115.822C116.022 21.8424 117.584 23.9242 120.506 23.9242C121.867 23.9242 123.629 23.2436 124.71 22.0426L126.912 24.9251C125.19 26.8067 122.588 27.8076 119.986 27.8076ZM123.309 15.9173C123.229 13.9156 122.348 11.3934 119.545 11.3934C116.863 11.3934 115.902 13.9156 115.822 15.9173H123.309ZM150.031 27.8076C148.189 27.8076 146.348 26.8868 145.146 24.885V34.6935H140.342V7.9905H145.146V10.4326C146.348 8.51095 148.149 7.51009 150.031 7.51009C154.394 7.51009 157.197 11.3134 157.197 17.6388C157.197 23.9242 154.394 27.8076 150.031 27.8076ZM148.469 23.5639C150.951 23.5639 152.233 21.0417 152.233 17.6388C152.233 14.2759 150.951 11.7537 148.469 11.7537C147.188 11.7537 145.787 12.7146 145.146 13.9957V21.2819C145.787 22.523 147.188 23.5639 148.469 23.5639ZM175.73 27.3271H170.886V25.4055C169.805 26.9268 167.763 27.8076 165.801 27.8076C162.759 27.8076 159.836 25.5256 159.836 21.402C159.836 17.1584 162.759 15.1166 165.801 15.1166C167.803 15.1166 169.845 15.9173 170.886 17.3986V14.8764C170.886 12.7946 169.605 11.5135 167.323 11.5135C165.641 11.5135 164 12.1941 162.559 13.5953L160.757 10.3125C162.799 8.35081 165.721 7.51009 168.204 7.51009C172.407 7.51009 175.73 9.39171 175.73 14.356V27.3271ZM167.643 24.5648C168.964 24.5648 170.245 23.8842 170.886 22.7232V20.241C170.245 19.08 168.964 18.3594 167.643 18.3594C165.841 18.3594 164.64 19.6405 164.64 21.4821C164.64 23.3237 165.841 24.5648 167.643 24.5648ZM188.161 23.5639C190.764 23.5639 191.965 20.8015 191.965 17.5988C191.965 14.5161 190.764 11.7537 188.161 11.7537C185.599 11.7537 184.398 14.5161 184.398 17.5988C184.398 20.8015 185.599 23.5639 188.161 23.5639ZM188.161 27.8076C182.356 27.8076 179.434 23.0835 179.434 16.7581C179.434 6.90957 181.756 3.42657 188.161 2.30561C190.443 1.90526 191.404 1.46488 191.404 0.62416H196.288C196.288 4.3874 192.205 5.4283 189.522 5.86868C185.679 6.50923 183.998 7.9905 183.597 10.3125C184.798 8.55099 186.72 7.51009 189.122 7.51009C194.166 7.51009 196.929 12.2342 196.929 17.5988C196.929 22.9634 193.966 27.8076 188.161 27.8076ZM208.462 27.8076C202.777 27.8076 199.734 23.0835 199.734 17.6388C199.734 12.2342 202.777 7.51009 208.462 7.51009C214.227 7.51009 217.229 12.2342 217.229 17.6388C217.229 23.0835 214.227 27.8076 208.462 27.8076ZM208.462 23.5639C211.104 23.5639 212.265 20.8416 212.265 17.6388C212.265 14.4761 211.104 11.7537 208.462 11.7537C205.899 11.7537 204.738 14.4761 204.738 17.6388C204.738 20.8416 205.899 23.5639 208.462 23.5639ZM228.564 27.3271H223.719V12.1941H219.476V7.9905H232.847V12.1941H228.564V27.3271ZM235.617 34.8937L236.338 30.65C236.658 30.8101 237.219 30.9303 237.579 30.9303C238.66 30.9303 239.34 30.5299 239.701 29.529L240.341 27.6875L233.816 7.9905H238.94L242.823 21.5222L246.747 7.9905H251.871L244.305 30.61C243.104 34.173 241.022 35.1339 237.939 35.1739C237.339 35.1739 236.138 35.0538 235.617 34.8937ZM31.0039 63.3271H26.3599V43.9905H31.164V54.8799L37.1291 43.9905H42.0534V63.3271H37.2092V51.9974L31.0039 63.3271ZM51.5816 63.3271H46.7774V43.9905H51.5816V51.1967H57.6268V43.9905H62.4709V63.3271H57.6268V55.4003H51.5816V63.3271ZM70.7981 63.3271H65.1533L71.4787 52.678L65.3534 43.9905H70.9583L75.5222 50.7964V43.9905H80.3263V50.8764L84.9303 43.9905H90.4951L84.4098 52.678L90.7353 63.3271H85.0904L81.087 55.7606L80.3263 56.8416V63.3271H75.5222V56.7615L74.8016 55.7606L70.7981 63.3271ZM101.054 63.8076C95.6092 63.8076 92.0461 59.724 92.0461 53.6388C92.0461 48.034 95.3289 43.5101 100.694 43.5101C106.018 43.5101 109.021 47.8338 109.021 53.839V55.2002H96.8903C97.0904 57.8424 98.6518 59.9242 101.574 59.9242C102.935 59.9242 104.697 59.2436 105.778 58.0426L107.98 60.9251C106.258 62.8067 103.656 63.8076 101.054 63.8076ZM104.377 51.9173C104.297 49.9156 103.416 47.3934 100.613 47.3934C97.9312 47.3934 96.9703 49.9156 96.8903 51.9173H104.377ZM117.409 63.3271H112.604V43.9905H117.409V51.1967H123.454V43.9905H128.298V63.3271H123.454V55.4003H117.409V63.3271ZM141.029 63.8076C135.584 63.8076 132.021 59.724 132.021 53.6388C132.021 48.034 135.304 43.5101 140.669 43.5101C145.993 43.5101 148.996 47.8338 148.996 53.839V55.2002H136.865C137.065 57.8424 138.627 59.9242 141.549 59.9242C142.911 59.9242 144.672 59.2436 145.753 58.0426L147.955 60.9251C146.233 62.8067 143.631 63.8076 141.029 63.8076ZM144.352 51.9173C144.272 49.9156 143.391 47.3934 140.589 47.3934C137.906 47.3934 136.945 49.9156 136.865 51.9173H144.352ZM162.268 63.8076C160.426 63.8076 158.585 62.8868 157.384 60.885V70.6935H152.579V43.9905H157.384V46.4326C158.585 44.511 160.386 43.5101 162.268 43.5101C166.632 43.5101 169.434 47.3134 169.434 53.6388C169.434 59.9242 166.632 63.8076 162.268 63.8076ZM160.706 59.5639C163.189 59.5639 164.47 57.0417 164.47 53.6388C164.47 50.2759 163.189 47.7537 160.706 47.7537C159.425 47.7537 158.024 48.7146 157.384 49.9957V57.2819C158.024 58.523 159.425 59.5639 160.706 59.5639ZM180.841 63.8076C175.156 63.8076 172.113 59.0835 172.113 53.6388C172.113 48.2342 175.156 43.5101 180.841 43.5101C186.606 43.5101 189.609 48.2342 189.609 53.6388C189.609 59.0835 186.606 63.8076 180.841 63.8076ZM180.841 59.5639C183.483 59.5639 184.644 56.8416 184.644 53.6388C184.644 50.4761 183.483 47.7537 180.841 47.7537C178.279 47.7537 177.118 50.4761 177.118 53.6388C177.118 56.8416 178.279 59.5639 180.841 59.5639ZM213.594 63.3271H208.83V51.5971L204.506 63.3271H202.424L198.141 51.5971V63.3271H193.336V43.9905H199.502L203.465 54.7598L207.469 43.9905H213.594V63.3271ZM231.938 63.3271H227.134V43.9905H231.938V51.1967H237.984V43.9905H242.828V63.3271H237.984V55.4003H231.938V63.3271ZM262.405 63.3271H257.56V61.4055C256.48 62.9268 254.438 63.8076 252.476 63.8076C249.433 63.8076 246.511 61.5256 246.511 57.402C246.511 53.1584 249.433 51.1166 252.476 51.1166C254.478 51.1166 256.52 51.9173 257.56 53.3986V50.8764C257.56 48.7946 256.279 47.5135 253.997 47.5135C252.316 47.5135 250.675 48.1941 249.233 49.5953L247.432 46.3125C249.473 44.3508 252.396 43.5101 254.878 43.5101C259.082 43.5101 262.405 45.3917 262.405 50.356V63.3271ZM254.318 60.5648C255.639 60.5648 256.92 59.8842 257.56 58.7232V56.241C256.92 55.08 255.639 54.3594 254.318 54.3594C252.516 54.3594 251.315 55.6405 251.315 57.4821C251.315 59.3237 252.516 60.5648 254.318 60.5648ZM291.609 63.3271H286.805V50.5161C286.805 48.5144 285.844 47.7537 284.242 47.7537C282.681 47.7537 281.4 48.9948 280.759 50.1558V63.3271H275.915V36.6242H280.759V46.5127C281.76 44.9914 283.922 43.5101 286.404 43.5101C290.007 43.5101 291.609 45.4718 291.609 48.7146V63.3271ZM312.026 63.3271H307.222V50.5161C307.222 48.5144 306.261 47.7537 304.66 47.7537C303.099 47.7537 301.818 48.9948 301.177 50.1558V63.3271H296.333V36.6242H301.177V46.5127C302.178 44.9914 304.34 43.5101 306.822 43.5101C310.425 43.5101 312.026 45.4718 312.026 48.7146V63.3271ZM319.633 63.7675C317.951 63.7675 316.51 62.3663 316.51 60.6849C316.51 59.0034 317.951 57.5622 319.633 57.5622C321.314 57.5622 322.716 59.0034 322.716 60.6849C322.716 62.3663 321.314 63.7675 319.633 63.7675ZM332.042 63.3271H327.238V43.9905H332.042V46.6328C333.123 44.9113 335.244 43.5101 337.326 43.5101V48.2342C337.006 48.1541 336.606 48.1141 336.165 48.1141C334.644 48.1141 332.842 49.1149 332.042 50.4361V63.3271ZM356.115 63.3271H351.311V60.885C350.27 62.4064 348.148 63.8076 345.626 63.8076C342.063 63.8076 340.461 61.8459 340.461 58.6031V43.9905H345.266V56.7615C345.266 58.8033 346.226 59.5639 347.828 59.5639C349.389 59.5639 350.63 58.4029 351.311 57.2019V43.9905H356.115V63.3271Z" fill="white"/>
  <path d="M366.992 48.1569L371.116 48.1569L376.12 55.3631L371.116 62.4492L366.992 62.4492L371.996 55.3631L366.992 48.1569ZM373.758 48.1569L377.841 48.1569L382.846 55.3631L377.841 62.4492L373.758 62.4492L378.762 55.3631L373.758 48.1569Z" fill="white"/>
  </svg>
  