<svg width="220" height="87" viewBox="0 0 220 87" fill="none" xmlns="http://www.w3.org/2000/svg">
  <path
    d="M14.5297 21.6499H10.9349L6.57239 15.3678L10.9349 9.19045H14.5297L10.1671 15.3678L14.5297 21.6499ZM8.63152 21.6499H5.07168L0.709122 15.3678L5.07168 9.19045H8.63152L4.26897 15.3678L8.63152 21.6499Z"
    fill="white" />
  <path
    d="M27.2578 23.8486H23.2093V6.99173H27.3974V16.4846L32.5975 6.99173H36.8903V23.8486H32.6673V13.9718L27.2578 23.8486ZM58.0749 6.99173H62.2629V20.1841H64.1475V28.1414H59.9246V23.8486H41.0085V6.99173H45.1966V20.1841H49.5243V6.99173H53.7472V20.1841H58.0749V6.99173ZM70.9338 23.8486H66.8853V6.99173H71.0734V16.4846L76.2735 6.99173H80.5663V23.8486H76.3433V13.9718L70.9338 23.8486ZM91.3156 23.8486H87.0927V10.6563H83.3932V6.99173H95.05V10.6563H91.3156V23.8486ZM104.829 24.2674C100.082 24.2674 96.976 20.7076 96.976 15.4027C96.976 10.5167 99.8379 6.57292 104.515 6.57292C109.156 6.57292 111.774 10.3422 111.774 15.5772V16.7638H101.199C101.373 19.0673 102.735 20.8821 105.282 20.8821C106.469 20.8821 108.005 20.2888 108.947 19.2418L110.866 21.7546C109.366 23.3949 107.097 24.2674 104.829 24.2674ZM107.725 13.902C107.656 12.157 106.888 9.95826 104.445 9.95826C102.106 9.95826 101.269 12.157 101.199 13.902H107.725ZM131.021 24.2674C129.415 24.2674 127.81 23.4647 126.763 21.7197V30.2703H122.575V6.99173H126.763V9.12065C127.81 7.44543 129.38 6.57292 131.021 6.57292C134.825 6.57292 137.268 9.88846 137.268 15.4027C137.268 20.8821 134.825 24.2674 131.021 24.2674ZM129.659 20.568C131.823 20.568 132.94 18.3693 132.94 15.4027C132.94 12.4711 131.823 10.2724 129.659 10.2724C128.543 10.2724 127.321 11.11 126.763 12.2268V18.5787C127.321 19.6606 128.543 20.568 129.659 20.568ZM153.424 23.8486H149.201V22.1734C148.259 23.4996 146.479 24.2674 144.769 24.2674C142.116 24.2674 139.569 22.2781 139.569 18.6834C139.569 14.9839 142.116 13.204 144.769 13.204C146.514 13.204 148.294 13.902 149.201 15.1933V12.9946C149.201 11.1798 148.084 10.063 146.095 10.063C144.629 10.063 143.198 10.6563 141.942 11.8778L140.371 9.01595C142.151 7.30583 144.699 6.57292 146.863 6.57292C150.527 6.57292 153.424 8.21324 153.424 12.5409V23.8486ZM146.374 21.4405C147.526 21.4405 148.643 20.8472 149.201 19.8351V17.6713C148.643 16.6591 147.526 16.0309 146.374 16.0309C144.804 16.0309 143.757 17.1478 143.757 18.7532C143.757 20.3586 144.804 21.4405 146.374 21.4405ZM164.261 20.568C166.53 20.568 167.577 18.1599 167.577 15.3678C167.577 12.6805 166.53 10.2724 164.261 10.2724C162.028 10.2724 160.981 12.6805 160.981 15.3678C160.981 18.1599 162.028 20.568 164.261 20.568ZM164.261 24.2674C159.201 24.2674 156.653 20.1492 156.653 14.6349C156.653 6.04941 158.677 3.01308 164.261 2.03586C166.251 1.68686 167.088 1.30295 167.088 0.570045H171.346C171.346 3.85069 167.786 4.7581 165.448 5.142C162.097 5.70041 160.632 6.99173 160.283 9.01595C161.33 7.48033 163.005 6.57292 165.099 6.57292C169.496 6.57292 171.905 10.6912 171.905 15.3678C171.905 20.0445 169.322 24.2674 164.261 24.2674ZM181.958 24.2674C177.002 24.2674 174.35 20.1492 174.35 15.4027C174.35 10.6912 177.002 6.57292 181.958 6.57292C186.984 6.57292 189.601 10.6912 189.601 15.4027C189.601 20.1492 186.984 24.2674 181.958 24.2674ZM181.958 20.568C184.262 20.568 185.274 18.1948 185.274 15.4027C185.274 12.6456 184.262 10.2724 181.958 10.2724C179.725 10.2724 178.713 12.6456 178.713 15.4027C178.713 18.1948 179.725 20.568 181.958 20.568ZM199.482 23.8486H195.259V10.6563H191.56V6.99173H203.217V10.6563H199.482V23.8486ZM205.631 30.4448L206.26 26.7454C206.539 26.885 207.027 26.9897 207.342 26.9897C208.284 26.9897 208.877 26.6407 209.191 25.7682L209.75 24.1627L204.061 6.99173H208.528L211.914 18.7881L215.334 6.99173H219.801L213.205 26.7105C212.158 29.8166 210.343 30.6542 207.656 30.6891C207.132 30.6891 206.085 30.5844 205.631 30.4448ZM22.8254 61.4448L23.4536 57.7454C23.7328 57.885 24.2214 57.9897 24.5355 57.9897C25.4779 57.9897 26.0712 57.6407 26.3853 56.7682L26.9437 55.1627L21.2549 37.9917H25.7222L29.1075 49.7881L32.5277 37.9917H36.995L30.3988 57.7105C29.3518 60.8166 27.537 61.6542 24.8497 61.6891C24.3261 61.6891 23.2791 61.5844 22.8254 61.4448ZM38.7493 37.9917H42.9722V43.1221C42.9722 44.8671 43.775 45.5302 45.5898 45.5302C46.6717 45.5302 47.6489 45.251 48.2073 44.9369V37.9917H52.4303V54.8486H48.2073V48.2176C47.3348 48.776 45.7992 49.2297 44.124 49.2297C40.1453 49.2297 38.7493 47.5195 38.7493 44.553V37.9917ZM60.6068 54.8486H56.5583V37.9917H60.7464V47.4846L65.9465 37.9917H70.2393V54.8486H66.0163V44.9718L60.6068 54.8486ZM80.9886 54.8486H76.7657V41.6563H73.0662V37.9917H84.723V41.6563H80.9886V54.8486ZM94.5016 55.2674C89.7552 55.2674 86.649 51.7076 86.649 46.4027C86.649 41.5167 89.5109 37.5729 94.1875 37.5729C98.8293 37.5729 101.447 41.3422 101.447 46.5772V47.7638H90.872C91.0465 50.0673 92.4076 51.8821 94.9553 51.8821C96.142 51.8821 97.6776 51.2888 98.6199 50.2418L100.539 52.7546C99.0387 54.3949 96.7702 55.2674 94.5016 55.2674ZM97.3984 44.902C97.3286 43.157 96.5608 40.9583 94.1177 40.9583C91.7794 40.9583 90.9418 43.157 90.872 44.902H97.3984ZM103.28 55.2674V51.7425C104.536 51.7425 105.339 50.8351 105.758 46.647L106.56 37.9917H118.252V54.8486H114.029V41.6563H110.364L109.911 47.0658C109.387 53.1734 107.258 55.2674 103.28 55.2674ZM129.35 55.2674C124.604 55.2674 121.498 51.7076 121.498 46.4027C121.498 41.5167 124.359 37.5729 129.036 37.5729C133.678 37.5729 136.295 41.3422 136.295 46.5772V47.7638H125.721C125.895 50.0673 127.256 51.8821 129.804 51.8821C130.991 51.8821 132.526 51.2888 133.469 50.2418L135.388 52.7546C133.887 54.3949 131.619 55.2674 129.35 55.2674ZM132.247 44.902C132.177 43.157 131.409 40.9583 128.966 40.9583C126.628 40.9583 125.79 43.157 125.721 44.902H132.247ZM157.079 54.8486H152.926V44.6228L149.157 54.8486H147.342L143.608 44.6228V54.8486H139.42V37.9917H144.794L148.249 47.3799L151.739 37.9917H157.079V54.8486ZM27.3974 85.8486H23.2093V68.9917H27.3974V75.2738H32.6673V68.9917H36.8903V85.8486H32.6673V78.9383H27.3974V85.8486ZM53.9566 85.8486H49.7337V84.1734C48.7913 85.4996 47.0114 86.2674 45.3013 86.2674C42.6489 86.2674 40.1011 84.2781 40.1011 80.6834C40.1011 76.9839 42.6489 75.204 45.3013 75.204C47.0463 75.204 48.8262 75.902 49.7337 77.1933V74.9946C49.7337 73.1798 48.6168 72.063 46.6275 72.063C45.1617 72.063 43.7308 72.6563 42.4744 73.8778L40.9038 71.016C42.6838 69.3058 45.2315 68.5729 47.3953 68.5729C51.0599 68.5729 53.9566 70.2132 53.9566 74.5409V85.8486ZM46.9067 83.4405C48.0584 83.4405 49.1753 82.8472 49.7337 81.8351V79.6713C49.1753 78.6591 48.0584 78.0309 46.9067 78.0309C45.3362 78.0309 44.2892 79.1478 44.2892 80.7532C44.2892 82.3586 45.3362 83.4405 46.9067 83.4405ZM79.4157 85.8486H75.2276V74.6805C75.2276 72.9355 74.39 72.2724 72.994 72.2724C71.6329 72.2724 70.516 73.3543 69.9576 74.3664V85.8486H65.7347V62.57H69.9576V71.1905C70.8301 69.8642 72.7148 68.5729 74.8786 68.5729C78.0196 68.5729 79.4157 70.283 79.4157 73.11V85.8486ZM97.2149 85.8486H93.0268V74.6805C93.0268 72.9355 92.1892 72.2724 90.7932 72.2724C89.4321 72.2724 88.3153 73.3543 87.7569 74.3664V85.8486H83.5339V62.57H87.7569V71.1905C88.6294 69.8642 90.514 68.5729 92.6778 68.5729C95.8189 68.5729 97.2149 70.283 97.2149 73.11V85.8486ZM103.846 86.2325C102.38 86.2325 101.124 85.011 101.124 83.5452C101.124 82.0794 102.38 80.823 103.846 80.823C105.312 80.823 106.533 82.0794 106.533 83.5452C106.533 85.011 105.312 86.2325 103.846 86.2325ZM114.663 85.8486H110.475V68.9917H114.663V71.2952C115.606 69.7944 117.455 68.5729 119.27 68.5729V72.6912C118.991 72.6214 118.642 72.5865 118.258 72.5865C116.932 72.5865 115.361 73.459 114.663 74.6107V85.8486ZM135.65 85.8486H131.461V83.7197C130.554 85.0459 128.704 86.2674 126.506 86.2674C123.399 86.2674 122.003 84.5573 122.003 81.7304V68.9917H126.192V80.125C126.192 81.9049 127.029 82.568 128.425 82.568C129.786 82.568 130.868 81.5559 131.461 80.5089V68.9917H135.65V85.8486Z"
    fill="white" />
  <path
    d="M143.652 71.8179L147.247 71.8179L151.609 78.0999L147.247 84.2773L143.652 84.2773L148.015 78.0999L143.652 71.8179ZM149.55 71.8179L153.11 71.8179L157.473 78.0999L153.11 84.2773L149.55 84.2773L153.913 78.0999L149.55 71.8179Z"
    fill="white" />
</svg>
  