<svg
viewBox="0 0 71 71"
fill="none"
xmlns="http://www.w3.org/2000/svg"
>
<path
  d="M35.5889 70.8711C54.9191 70.8711 70.5889 55.2013 70.5889 35.8711C70.5889 16.5409 54.9191 0.871094 35.5889 0.871094C16.2587 0.871094 0.588867 16.5409 0.588867 35.8711C0.588867 55.2013 16.2587 70.8711 35.5889 70.8711Z"
  fill="#D6001C"
/>
<path
  d="M20.2789 19.0642V30.9501C22.1116 28.7924 24.3084 27.7063 26.8562 27.7063C28.1684 27.7063 29.3435 27.9538 30.3977 28.4445C31.4549 28.9322 32.2452 29.5582 32.7789 30.3182C33.3156 31.0855 33.6783 31.9255 33.8744 32.8514C34.069 33.773 34.1663 35.2071 34.1663 37.1521V49.8606H28.4722V38.4144C28.4722 36.1432 28.369 34.7048 28.1522 34.0933C27.9492 33.4943 27.5463 32.9811 27.0095 32.6374C26.4611 32.272 25.7784 32.0915 24.9542 32.0915C24.0106 32.0915 23.1643 32.3244 22.4286 32.7874C21.6766 33.2533 21.137 33.9492 20.7949 34.8795C20.447 35.8113 20.273 37.1871 20.2789 39.0084L20.273 49.8606H14.5862V19.0642H20.2803"
  fill="white"
/>
<path
  d="M42.7029 19.0642V30.9501C44.5371 28.7924 46.7325 27.7063 49.2788 27.7063C50.5866 27.7063 51.7705 27.9538 52.8262 28.4445C53.8789 28.9322 54.6692 29.5582 55.2 30.3182C55.7357 31.0804 56.1084 31.9423 56.2955 32.8514C56.4916 33.773 56.5889 35.2071 56.5889 37.1521V49.8606H50.9006V38.4144C50.9006 36.1432 50.793 34.7048 50.5763 34.0933C50.3732 33.4935 49.9691 32.98 49.4306 32.6374C48.8881 32.272 48.1995 32.0915 47.3753 32.0915C46.4332 32.0915 45.5869 32.3244 44.8497 32.7874C44.108 33.2533 43.5654 33.9492 43.219 34.8795C42.8769 35.8113 42.7029 37.1871 42.7029 39.0084V49.8606H37.0161V19.0642H42.7029Z"
  fill="white"
/>
</svg>