<svg width="27" height="27" viewBox="0 0 10 10" fill="none" xmlns="http://www.w3.org/2000/svg">
  <g clip-path="url(#clip0_2001_1708)">
  <path fill-rule="evenodd" clip-rule="evenodd" d="M4.873 0.843062C4.8121 0.7197 4.68646 0.641602 4.54889 0.641602C4.41132 0.641602 4.28567 0.7197 4.22478 0.843062L3.19193 2.93549L0.882177 3.2731C0.746072 3.29299 0.633056 3.38841 0.59063 3.51926C0.548205 3.6501 0.583725 3.79369 0.682261 3.88966L2.35329 5.51725L1.95892 7.8166C1.93567 7.95221 1.99142 8.08926 2.10273 8.17013C2.21405 8.25099 2.36162 8.26165 2.4834 8.19761L4.54889 7.11139L6.61437 8.19761C6.73615 8.26165 6.88372 8.25099 6.99504 8.17013C7.10636 8.08926 7.16211 7.95221 7.13885 7.8166L6.74448 5.51725L8.41551 3.88966C8.51405 3.79369 8.54957 3.6501 8.50715 3.51926C8.46472 3.38841 8.3517 3.29299 8.2156 3.2731L5.90584 2.93549L4.873 0.843062ZM4.54889 1.81964L4.54889 6.34157C4.60668 6.34157 4.66446 6.35541 4.71712 6.38311L6.30255 7.21686L5.99986 5.45207C5.97975 5.33477 6.01866 5.21509 6.10391 5.13205L7.38679 3.88252L5.61347 3.62333C5.49588 3.60614 5.39424 3.53224 5.34164 3.42567L4.54889 1.81964Z" fill="#FF9900"/>
  </g>
  <defs>
  <clipPath id="clip0_2001_1708">
  <rect width="8.67465" height="8.67465" fill="white" transform="translate(0.549072 0.617554)"/>
  </clipPath>
  </defs>
  </svg>
  