<svg width="200" height="78" viewBox="0 0 200 78" fill="none" xmlns="http://www.w3.org/2000/svg">
  <path d="M12.6437 17.9468H9.43137L5.53292 12.333L9.43137 6.81285H12.6437L8.74524 12.333L12.6437 17.9468ZM7.37299 17.9468H4.19186L0.293414 12.333L4.19186 6.81285H7.37299L3.47454 12.333L7.37299 17.9468Z" fill="white"/>
  <path d="M24.0175 20.9116H20.3997V5.84804H24.1422V14.331L28.7892 5.84804H32.6252V20.9116H28.8515V12.0855L24.0175 20.9116ZM51.5561 5.84804H55.2986V17.6369H56.9827V24.7477H53.209V20.9116H36.3054V5.84804H40.0479V17.6369H43.9151V5.84804H47.6888V17.6369H51.5561V5.84804ZM63.047 20.9116H59.4292V5.84804H63.1717V14.331L67.8187 5.84804H71.6547V20.9116H67.881V12.0855L63.047 20.9116ZM81.2605 20.9116H77.4868V9.12273H74.1809V5.84804H84.5976V9.12273H81.2605V20.9116ZM93.3359 21.2859C91.2152 21.2859 89.5102 20.5582 88.2212 19.1027C86.9529 17.6473 86.3187 15.7345 86.3187 13.3642C86.3187 11.1187 86.9321 9.24748 88.1588 7.75048C89.3855 6.23268 91.0176 5.47379 93.0552 5.47379C95.0928 5.47379 96.6834 6.22229 97.8269 7.71929C98.9705 9.1955 99.5422 11.1291 99.5422 13.5202V14.5805H90.0924C90.1756 15.6617 90.529 16.5454 91.1528 17.2315C91.7765 17.9176 92.6394 18.2607 93.7414 18.2607C94.3027 18.2607 94.8849 18.1359 95.4879 17.8864C96.0908 17.6161 96.6002 17.2523 97.0161 16.7949L98.7314 19.0404C97.3591 20.5374 95.5606 21.2859 93.3359 21.2859ZM95.9245 12.0232C95.8829 11.0875 95.6334 10.2663 95.176 9.55935C94.7186 8.85244 93.9909 8.49898 92.9929 8.49898C92.0364 8.49898 91.3191 8.85244 90.8409 9.55935C90.3835 10.2663 90.134 11.0875 90.0924 12.0232H95.9245ZM116.741 21.2859C115.12 21.2859 113.851 20.527 112.937 19.0092V26.6501H109.194V5.84804H112.937V7.75048C113.893 6.23268 115.161 5.47379 116.741 5.47379C118.446 5.47379 119.798 6.1807 120.796 7.59454C121.815 8.98758 122.324 10.9108 122.324 13.3642C122.324 15.7969 121.815 17.7305 120.796 19.1651C119.798 20.579 118.446 21.2859 116.741 21.2859ZM115.525 17.98C116.461 17.98 117.178 17.5538 117.677 16.7013C118.197 15.8488 118.457 14.7365 118.457 13.3642C118.457 12.0128 118.197 10.9108 117.677 10.0584C117.178 9.2059 116.461 8.77967 115.525 8.77967C115.026 8.77967 114.527 8.946 114.028 9.27867C113.55 9.61133 113.186 10.0272 112.937 10.5262V16.2023C113.186 16.7013 113.55 17.1275 114.028 17.481C114.527 17.8137 115.026 17.98 115.525 17.98ZM136.762 20.9116H132.988V19.4146C132.572 19.9968 132 20.4542 131.273 20.7869C130.566 21.1195 129.817 21.2859 129.027 21.2859C127.759 21.2859 126.667 20.8389 125.752 19.9448C124.838 19.0508 124.38 17.8345 124.38 16.2959C124.38 14.7365 124.827 13.5306 125.721 12.6781C126.636 11.8256 127.738 11.3994 129.027 11.3994C129.838 11.3994 130.597 11.5554 131.304 11.8672C132.032 12.1791 132.593 12.6157 132.988 13.1771V11.2123C132.988 10.4014 132.738 9.76727 132.239 9.30985C131.761 8.83165 131.086 8.59254 130.212 8.59254C128.84 8.59254 127.603 9.13312 126.501 10.2143L125.098 7.65691C126.615 6.2015 128.549 5.47379 130.898 5.47379C132.666 5.47379 134.08 5.91041 135.14 6.78366C136.221 7.63612 136.762 8.97719 136.762 10.8069V20.9116ZM130.462 18.7597C131.626 18.7597 132.468 18.2815 132.988 17.3251V15.3914C132.447 14.4142 131.605 13.9256 130.462 13.9256C129.755 13.9256 129.183 14.1543 128.746 14.6117C128.331 15.0484 128.123 15.6305 128.123 16.3582C128.123 17.0859 128.331 17.6681 128.746 18.1047C129.183 18.5414 129.755 18.7597 130.462 18.7597ZM144.263 16.6701C144.762 17.5434 145.489 17.98 146.446 17.98C147.402 17.98 148.13 17.5434 148.629 16.6701C149.149 15.7761 149.409 14.6637 149.409 13.333C149.409 12.044 149.149 10.9628 148.629 10.0895C148.13 9.21629 147.402 8.77967 146.446 8.77967C145.489 8.77967 144.762 9.21629 144.263 10.0895C143.764 10.9628 143.514 12.044 143.514 13.333C143.514 14.6637 143.764 15.7761 144.263 16.6701ZM146.446 21.2859C144.263 21.2859 142.579 20.4958 141.393 18.9156C140.229 17.3147 139.647 15.2355 139.647 12.6781C139.647 8.87323 140.146 6.15991 141.144 4.53816C142.163 2.89562 143.93 1.85603 146.446 1.41941C148.13 1.12832 148.972 0.691695 148.972 0.109528H152.777C152.777 2.25107 151.02 3.61293 147.506 4.1951C144.741 4.65251 143.202 5.80645 142.89 7.65691C143.888 6.2015 145.323 5.47379 147.194 5.47379C149.086 5.47379 150.573 6.23268 151.654 7.75048C152.735 9.26827 153.276 11.1291 153.276 13.333C153.276 15.5578 152.673 17.4394 151.467 18.978C150.282 20.5166 148.608 21.2859 146.446 21.2859ZM162.26 21.2859C160.139 21.2859 158.476 20.527 157.27 19.0092C156.064 17.4706 155.461 15.5889 155.461 13.3642C155.461 11.1395 156.064 9.26827 157.27 7.75048C158.476 6.23268 160.139 5.47379 162.26 5.47379C164.402 5.47379 166.075 6.23268 167.281 7.75048C168.487 9.26827 169.09 11.1395 169.09 13.3642C169.09 15.6097 168.487 17.4914 167.281 19.0092C166.075 20.527 164.402 21.2859 162.26 21.2859ZM162.26 17.98C163.237 17.98 163.975 17.5434 164.474 16.6701C164.973 15.7969 165.223 14.6949 165.223 13.3642C165.223 12.0336 164.973 10.942 164.474 10.0895C163.975 9.21629 163.237 8.77967 162.26 8.77967C161.304 8.77967 160.576 9.21629 160.077 10.0895C159.599 10.9628 159.36 12.0544 159.36 13.3642C159.36 14.6949 159.599 15.7969 160.077 16.6701C160.576 17.5434 161.304 17.98 162.26 17.98ZM177.92 20.9116H174.146V9.12273H170.84V5.84804H181.257V9.12273H177.92V20.9116ZM183.415 26.8061L183.976 23.5002C184.267 23.6457 184.59 23.7185 184.943 23.7185C185.775 23.7185 186.326 23.3546 186.596 22.6269L187.095 21.1923L182.011 5.84804H186.003L189.029 16.3894L192.085 5.84804H196.077L190.183 23.469C189.746 24.7997 189.133 25.7145 188.342 26.2135C187.552 26.7333 186.513 27.0036 185.224 27.0244C184.496 27.0244 183.893 26.9516 183.415 26.8061ZM31.9703 48.9116H28.1966V47.4146C27.7808 47.9968 27.209 48.4542 26.4813 48.7869C25.7744 49.1195 25.0259 49.2859 24.2358 49.2859C22.9675 49.2859 21.8759 48.8389 20.9611 47.9448C20.0462 47.0508 19.5888 45.8345 19.5888 44.2959C19.5888 42.7365 20.0358 41.5306 20.9299 40.6781C21.8447 39.8256 22.9467 39.3994 24.2358 39.3994C25.0466 39.3994 25.8055 39.5554 26.5125 39.8672C27.2402 40.1791 27.8015 40.6157 28.1966 41.1771V39.2123C28.1966 38.4014 27.9471 37.7673 27.4481 37.3099C26.9699 36.8316 26.2941 36.5925 25.4209 36.5925C24.0486 36.5925 22.8115 37.1331 21.7096 38.2143L20.3061 35.6569C21.8239 34.2015 23.7576 33.4738 26.107 33.4738C27.8743 33.4738 29.2882 33.9104 30.3485 34.7837C31.4297 35.6361 31.9703 36.9772 31.9703 38.8069V48.9116ZM25.6704 46.7597C26.8347 46.7597 27.6768 46.2815 28.1966 45.3251V43.3914C27.656 42.4142 26.8139 41.9256 25.6704 41.9256C24.9635 41.9256 24.3917 42.1543 23.9551 42.6117C23.5392 43.0484 23.3313 43.6305 23.3313 44.3582C23.3313 45.0859 23.5392 45.6681 23.9551 46.1047C24.3917 46.5414 24.9635 46.7597 25.6704 46.7597ZM43.4946 48.9116H35.6353V33.848H43.2763C44.794 33.848 45.9376 34.2119 46.7069 34.9396C47.497 35.6673 47.892 36.5925 47.892 37.7153C47.892 38.5885 47.6529 39.3266 47.1747 39.9296C46.6965 40.5118 46.0727 40.9068 45.3034 41.1147C46.1559 41.3019 46.8524 41.7385 47.393 42.4246C47.9336 43.1107 48.2039 43.9112 48.2039 44.8261C48.2039 46.032 47.8088 47.0196 47.0188 47.7889C46.2287 48.5374 45.0539 48.9116 43.4946 48.9116ZM42.6213 45.8864C43.7857 45.8864 44.3678 45.3666 44.3678 44.3271C44.3678 43.8696 44.2119 43.4954 43.9 43.2043C43.6089 42.8924 43.1827 42.7365 42.6213 42.7365H39.3778V45.8864H42.6213ZM42.4966 39.7113C43.5569 39.7113 44.0871 39.2435 44.0871 38.3079C44.0871 37.8712 43.952 37.5282 43.6817 37.2787C43.4114 37.0084 43.0164 36.8732 42.4966 36.8732H39.3778V39.7113H42.4966ZM57.5275 48.9116H53.7538V37.1227H50.4479V33.848H60.8646V37.1227H57.5275V48.9116ZM69.3846 49.2859C67.2639 49.2859 65.6005 48.527 64.3946 47.0092C63.1887 45.4706 62.5857 43.5889 62.5857 41.3642C62.5857 39.1395 63.1887 37.2683 64.3946 35.7505C65.6005 34.2327 67.2639 33.4738 69.3846 33.4738C71.5262 33.4738 73.1999 34.2327 74.4058 35.7505C75.6117 37.2683 76.2147 39.1395 76.2147 41.3642C76.2147 43.6097 75.6117 45.4914 74.4058 47.0092C73.1999 48.527 71.5262 49.2859 69.3846 49.2859ZM69.3846 45.98C70.3618 45.98 71.0999 45.5434 71.5989 44.6701C72.0979 43.7969 72.3474 42.6949 72.3474 41.3642C72.3474 40.0336 72.0979 38.942 71.5989 38.0895C71.0999 37.2163 70.3618 36.7797 69.3846 36.7797C68.4282 36.7797 67.7005 37.2163 67.2015 38.0895C66.7233 38.9628 66.4842 40.0544 66.4842 41.3642C66.4842 42.6949 66.7233 43.7969 67.2015 44.6701C67.7005 45.5434 68.4282 45.98 69.3846 45.98ZM85.2315 49.2859C83.1732 49.2859 81.5098 48.5478 80.2415 47.0716C78.9732 45.5953 78.3391 43.6929 78.3391 41.3642C78.3391 39.0564 78.9732 37.1643 80.2415 35.6881C81.5098 34.2119 83.1732 33.4738 85.2315 33.4738C87.3107 33.4738 88.9117 34.1495 90.0344 35.501L88.1632 38.0895C87.4563 37.2163 86.6142 36.7797 85.637 36.7797C84.5766 36.7797 83.7345 37.2163 83.1108 38.0895C82.5078 38.942 82.2063 40.0336 82.2063 41.3642C82.2063 42.7157 82.5078 43.8281 83.1108 44.7013C83.7345 45.5538 84.5766 45.98 85.637 45.98C86.6142 45.98 87.4563 45.5434 88.1632 44.6701L90.0344 47.2587C88.9117 48.6101 87.3107 49.2859 85.2315 49.2859ZM91.4035 49.2859V46.1359C92.0065 46.1359 92.4743 45.8241 92.8069 45.2003C93.1604 44.5558 93.4307 43.3498 93.6178 41.5825L94.3351 33.848H104.783V48.9116H101.009V37.1227H97.7346L97.3291 41.9568C97.1004 44.6181 96.5079 46.5102 95.5515 47.6329C94.6158 48.7349 93.2332 49.2859 91.4035 49.2859ZM114.701 49.2859C112.58 49.2859 110.875 48.5582 109.586 47.1027C108.318 45.6473 107.683 43.7345 107.683 41.3642C107.683 39.1187 108.297 37.2475 109.523 35.7505C110.75 34.2327 112.382 33.4738 114.42 33.4738C116.458 33.4738 118.048 34.2223 119.192 35.7193C120.335 37.1955 120.907 39.1291 120.907 41.5202V42.5805H111.457C111.54 43.6617 111.894 44.5454 112.517 45.2315C113.141 45.9176 114.004 46.2607 115.106 46.2607C115.667 46.2607 116.25 46.1359 116.853 45.8864C117.456 45.6161 117.965 45.2523 118.381 44.7949L120.096 47.0404C118.724 48.5374 116.925 49.2859 114.701 49.2859ZM117.289 40.0232C117.248 39.0875 116.998 38.2663 116.541 37.5594C116.083 36.8524 115.356 36.499 114.358 36.499C113.401 36.499 112.684 36.8524 112.206 37.5594C111.748 38.2663 111.499 39.0875 111.457 40.0232H117.289ZM129.811 49.2859C127.753 49.2859 126.09 48.5478 124.821 47.0716C123.553 45.5953 122.919 43.6929 122.919 41.3642C122.919 39.0564 123.553 37.1643 124.821 35.6881C126.09 34.2119 127.753 33.4738 129.811 33.4738C131.891 33.4738 133.492 34.1495 134.614 35.501L132.743 38.0895C132.036 37.2163 131.194 36.7797 130.217 36.7797C129.157 36.7797 128.314 37.2163 127.691 38.0895C127.088 38.942 126.786 40.0336 126.786 41.3642C126.786 42.7157 127.088 43.8281 127.691 44.7013C128.314 45.5538 129.157 45.98 130.217 45.98C131.194 45.98 132.036 45.5434 132.743 44.6701L134.614 47.2587C133.492 48.6101 131.891 49.2859 129.811 49.2859ZM148.708 48.9116H144.934V47.4146C144.518 47.9968 143.947 48.4542 143.219 48.7869C142.512 49.1195 141.764 49.2859 140.973 49.2859C139.705 49.2859 138.614 48.8389 137.699 47.9448C136.784 47.0508 136.326 45.8345 136.326 44.2959C136.326 42.7365 136.774 41.5306 137.668 40.6781C138.582 39.8256 139.684 39.3994 140.973 39.3994C141.784 39.3994 142.543 39.5554 143.25 39.8672C143.978 40.1791 144.539 40.6157 144.934 41.1771V39.2123C144.934 38.4014 144.685 37.7673 144.186 37.3099C143.708 36.8316 143.032 36.5925 142.159 36.5925C140.786 36.5925 139.549 37.1331 138.447 38.2143L137.044 35.6569C138.562 34.2015 140.495 33.4738 142.845 33.4738C144.612 33.4738 146.026 33.9104 147.086 34.7837C148.167 35.6361 148.708 36.9772 148.708 38.8069V48.9116ZM142.408 46.7597C143.572 46.7597 144.414 46.2815 144.934 45.3251V43.3914C144.394 42.4142 143.552 41.9256 142.408 41.9256C141.701 41.9256 141.129 42.1543 140.693 42.6117C140.277 43.0484 140.069 43.6305 140.069 44.3582C140.069 45.0859 140.277 45.6681 140.693 46.1047C141.129 46.5414 141.701 46.7597 142.408 46.7597ZM159.92 49.2859C158.299 49.2859 157.03 48.527 156.115 47.0092V54.6501H152.373V33.848H156.115V35.7505C157.072 34.2327 158.34 33.4738 159.92 33.4738C161.625 33.4738 162.977 34.1807 163.975 35.5945C164.994 36.9876 165.503 38.9108 165.503 41.3642C165.503 43.7969 164.994 45.7305 163.975 47.1651C162.977 48.579 161.625 49.2859 159.92 49.2859ZM158.704 45.98C159.64 45.98 160.357 45.5538 160.856 44.7013C161.376 43.8488 161.636 42.7365 161.636 41.3642C161.636 40.0128 161.376 38.9108 160.856 38.0584C160.357 37.2059 159.64 36.7797 158.704 36.7797C158.205 36.7797 157.706 36.946 157.207 37.2787C156.729 37.6113 156.365 38.0272 156.115 38.5262V44.2023C156.365 44.7013 156.729 45.1275 157.207 45.481C157.706 45.8137 158.205 45.98 158.704 45.98ZM174.607 49.2859C172.487 49.2859 170.782 48.5582 169.493 47.1027C168.224 45.6473 167.59 43.7345 167.59 41.3642C167.59 39.1187 168.204 37.2475 169.43 35.7505C170.657 34.2327 172.289 33.4738 174.327 33.4738C176.364 33.4738 177.955 34.2223 179.098 35.7193C180.242 37.1955 180.814 39.1291 180.814 41.5202V42.5805H171.364C171.447 43.6617 171.801 44.5454 172.424 45.2315C173.048 45.9176 173.911 46.2607 175.013 46.2607C175.574 46.2607 176.156 46.1359 176.759 45.8864C177.362 45.6161 177.872 45.2523 178.288 44.7949L180.003 47.0404C178.631 48.5374 176.832 49.2859 174.607 49.2859ZM177.196 40.0232C177.154 39.0875 176.905 38.2663 176.448 37.5594C175.99 36.8524 175.262 36.499 174.264 36.499C173.308 36.499 172.591 36.8524 172.112 37.5594C171.655 38.2663 171.406 39.0875 171.364 40.0232H177.196ZM199.386 48.9116H195.675V39.7737L192.307 48.9116H190.685L187.348 39.7737V48.9116H183.606V33.848H188.408L191.496 42.2375L194.615 33.848H199.386V48.9116ZM24.1422 76.9116H20.3997V61.848H24.1422V67.4618H28.8515V61.848H32.6252V76.9116H28.8515V70.7365H24.1422V76.9116ZM47.8759 76.9116H44.1022V75.4146C43.6864 75.9968 43.1146 76.4542 42.3869 76.7869C41.68 77.1195 40.9315 77.2859 40.1414 77.2859C38.8731 77.2859 37.7816 76.8389 36.8667 75.9448C35.9519 75.0508 35.4945 73.8345 35.4945 72.2959C35.4945 70.7365 35.9415 69.5306 36.8355 68.6781C37.7504 67.8256 38.8523 67.3994 40.1414 67.3994C40.9523 67.3994 41.7112 67.5554 42.4181 67.8672C43.1458 68.1791 43.7072 68.6157 44.1022 69.1771V67.2123C44.1022 66.4014 43.8527 65.7673 43.3537 65.3099C42.8755 64.8316 42.1998 64.5925 41.3265 64.5925C39.9543 64.5925 38.7172 65.1331 37.6152 66.2143L36.2118 63.6569C37.7296 62.2015 39.6632 61.4738 42.0127 61.4738C43.78 61.4738 45.1938 61.9104 46.2542 62.7837C47.3353 63.6361 47.8759 64.9772 47.8759 66.8069V76.9116ZM41.576 74.7597C42.7404 74.7597 43.5824 74.2815 44.1022 73.3251V71.3914C43.5617 70.4142 42.7196 69.9256 41.576 69.9256C40.8691 69.9256 40.2974 70.1543 39.8607 70.6117C39.4449 71.0484 39.237 71.6305 39.237 72.3582C39.237 73.0859 39.4449 73.6681 39.8607 74.1047C40.2974 74.5414 40.8691 74.7597 41.576 74.7597ZM70.6265 76.9116H66.884V66.9316C66.884 65.497 66.2187 64.7797 64.888 64.7797C64.3266 64.7797 63.8068 64.9668 63.3286 65.341C62.8504 65.6945 62.4658 66.1311 62.1747 66.6509V76.9116H58.401V56.1095H62.1747V63.8129C62.5905 63.1683 63.1935 62.6173 63.9836 62.1599C64.7944 61.7025 65.6573 61.4738 66.5721 61.4738C69.2751 61.4738 70.6265 62.8252 70.6265 65.5282V76.9116ZM86.5322 76.9116H82.7897V66.9316C82.7897 65.497 82.1243 64.7797 80.7937 64.7797C80.2323 64.7797 79.7125 64.9668 79.2343 65.341C78.7561 65.6945 78.3714 66.1311 78.0803 66.6509V76.9116H74.3066V56.1095H78.0803V63.8129C78.4962 63.1683 79.0991 62.6173 79.8892 62.1599C80.7001 61.7025 81.5629 61.4738 82.4778 61.4738C85.1807 61.4738 86.5322 62.8252 86.5322 65.5282V76.9116ZM94.1419 76.5686C93.6845 77.026 93.1231 77.2547 92.4578 77.2547C91.7925 77.2547 91.2207 77.0156 90.7425 76.5374C90.2643 76.0592 90.0252 75.4978 90.0252 74.8532C90.0252 74.1879 90.2643 73.6161 90.7425 73.1379C91.2207 72.6597 91.7925 72.4206 92.4578 72.4206C93.1023 72.4206 93.6637 72.6597 94.1419 73.1379C94.6201 73.6161 94.8592 74.1879 94.8592 74.8532C94.8592 75.5186 94.6201 76.0903 94.1419 76.5686ZM102.124 76.9116H98.382V61.848H102.124V63.9064C102.561 63.2203 103.154 62.6485 103.902 62.1911C104.671 61.7129 105.451 61.4738 106.241 61.4738V65.1539C105.992 65.0915 105.69 65.0604 105.337 65.0604C104.734 65.0604 104.12 65.2371 103.497 65.5905C102.894 65.9232 102.436 66.3494 102.124 66.8692V76.9116ZM120.878 76.9116H117.135V75.0092C116.699 75.6537 116.085 76.1943 115.295 76.6309C114.505 77.0676 113.642 77.2859 112.707 77.2859C110.025 77.2859 108.684 75.9344 108.684 73.2315V61.848H112.426V71.7969C112.426 73.2523 113.091 73.98 114.422 73.98C115.545 73.98 116.449 73.3666 117.135 72.1399V61.848H120.878V76.9116Z" fill="white"/>
  <path d="M128.029 64.0617L131.241 64.0617L135.14 69.6755L131.241 75.1957L128.029 75.1957L131.927 69.6755L128.029 64.0617ZM133.3 64.0617L136.481 64.0617L140.379 69.6755L136.481 75.1957L133.3 75.1957L137.198 69.6755L133.3 64.0617Z" fill="white"/>
  </svg>
  