<svg viewBox="0 0 103 109" fill="none" xmlns="http://www.w3.org/2000/svg">
  <g style="mix-blend-mode:plus-darker" opacity="0.4">
  <path fill-rule="evenodd" clip-rule="evenodd" d="M40.8626 85.0571C43.0331 85.7723 45.1802 86.4797 47.1632 87.2774C48.0155 87.6203 48.9571 86.947 48.9083 86.0296C48.7948 83.8952 48.8198 81.6347 48.8449 79.3495C48.937 70.9946 49.0327 62.3109 42.381 58.2618C41.0106 57.4276 39.4502 56.8437 37.7516 56.5825C30.7911 55.512 24.1447 60.2642 22.9067 67.197C22.6045 68.8888 22.6524 70.5541 22.9986 72.1207C24.6788 79.7244 32.9269 82.4422 40.8626 85.0571ZM39.5526 74.7893C42.825 72.4495 43.6347 67.9751 41.3612 64.7955C39.0878 61.6159 34.592 60.9351 31.3196 63.2749C28.0472 65.6148 27.2375 70.0891 29.5109 73.2687C31.7844 76.4483 36.2802 77.1291 39.5526 74.7893Z" fill="url(#paint0_linear_2006_1616)"/>
  <path d="M41.3612 64.7955C43.6347 67.9751 42.825 72.4495 39.5526 74.7893C36.2802 77.1291 31.7844 76.4483 29.5109 73.2687C27.2375 70.0891 28.0472 65.6148 31.3196 63.2749C34.592 60.9351 39.0878 61.6159 41.3612 64.7955Z" fill="url(#paint1_linear_2006_1616)"/>
  </g>
  <mask id="mask0_2006_1616" style="mask-type:alpha" maskUnits="userSpaceOnUse" x="29" y="22" width="48" height="66">
  <path fill-rule="evenodd" clip-rule="evenodd" d="M40.056 74.9821C42.0938 78.7353 44.1097 82.4481 45.7923 86.0785C46.5156 87.639 48.6215 87.8933 49.6954 86.5499C52.194 83.4245 55.0359 80.2984 57.9087 77.1383C68.4123 65.5845 79.3293 53.5758 75.3914 39.4794C74.5801 36.5752 73.2017 33.7796 71.2361 31.2593C63.1814 20.9316 48.3168 19.1363 38.0349 27.2493C35.5257 29.2292 33.5214 31.6162 32.042 34.2438C24.8612 46.9972 32.6052 61.2598 40.056 74.9821ZM51.0456 58.9771C58.3644 59.861 65.0147 54.6384 65.8996 47.3121C66.7844 39.9858 61.5687 33.33 54.25 32.4461C46.9312 31.5621 40.2809 36.7847 39.396 44.111C38.5112 51.4374 43.7269 58.0931 51.0456 58.9771Z" fill="url(#paint2_linear_2006_1616)"/>
  <path d="M65.8996 47.3121C65.0147 54.6384 58.3644 59.861 51.0456 58.9771C43.7269 58.0931 38.5112 51.4374 39.396 44.111C40.2809 36.7847 46.9312 31.5621 54.25 32.4461C61.5687 33.33 66.7844 39.9858 65.8996 47.3121Z" fill="url(#paint3_linear_2006_1616)"/>
  </mask>
  <g mask="url(#mask0_2006_1616)">
  <path fill-rule="evenodd" clip-rule="evenodd" d="M40.056 74.9821C42.0938 78.7353 44.1097 82.4481 45.7923 86.0785C46.5156 87.639 48.6215 87.8933 49.6954 86.5499C52.194 83.4245 55.0359 80.2984 57.9087 77.1383C68.4123 65.5845 79.3293 53.5758 75.3914 39.4794C74.5801 36.5752 73.2017 33.7796 71.2361 31.2593C63.1814 20.9316 48.3168 19.1363 38.0349 27.2493C35.5257 29.2292 33.5214 31.6162 32.042 34.2438C24.8612 46.9972 32.6052 61.2598 40.056 74.9821ZM51.0456 58.9771C58.3644 59.861 65.0147 54.6384 65.8996 47.3121C66.7844 39.9858 61.5687 33.33 54.25 32.4461C46.9312 31.5621 40.2809 36.7847 39.396 44.111C38.5112 51.4374 43.7269 58.0931 51.0456 58.9771Z" fill="url(#paint4_linear_2006_1616)"/>
  <path d="M65.8996 47.3121C65.0147 54.6384 58.3644 59.861 51.0456 58.9771C43.7269 58.0931 38.5112 51.4374 39.396 44.111C40.2809 36.7847 46.9312 31.5621 54.25 32.4461C61.5687 33.33 66.7844 39.9858 65.8996 47.3121Z" fill="url(#paint5_linear_2006_1616)"/>
  <g style="mix-blend-mode:plus-darker" opacity="0.2" filter="url(#filter0_f_2006_1616)">
  <ellipse cx="13.8367" cy="98.4761" rx="46.8793" ry="31.8278" transform="rotate(49.0149 13.8367 98.4761)" fill="black"/>
  </g>
  <g style="mix-blend-mode:plus-darker" opacity="0.3" filter="url(#filter1_f_2006_1616)">
  <path d="M48.7509 167.156C42.3466 169.165 30.5392 149.712 22.3783 123.706C14.2173 97.7004 12.7933 74.9892 19.1976 72.9794C22.6286 71.9027 27.6104 76.9862 32.7515 85.9371L62.5665 80.6173C62.5665 80.6173 64.6556 85.3169 53.579 89.299C46.4206 91.8725 41.8042 96.9115 41.4093 104.508C41.1532 109.432 42.4718 118.347 43.7777 122.508C51.9387 148.514 55.1552 165.146 48.7509 167.156Z" fill="black"/>
  </g>
  <g style="mix-blend-mode:plus-lighter" opacity="0.3" filter="url(#filter2_f_2006_1616)">
  <path d="M95.0695 -20.435C123.701 -6.05654 139.701 19.9562 130.807 37.6662C117.962 111.119 94.006 41.5833 65.3749 27.2048C36.7438 12.8264 -6.36903 54.5168 27.1245 -14.4028C36.0184 -32.1128 66.4384 -34.8135 95.0695 -20.435Z" fill="white" fill-opacity="0.8"/>
  </g>
  </g>
  <defs>
  <filter id="filter0_f_2006_1616" x="-67.2252" y="15.3436" width="162.124" height="166.265" filterUnits="userSpaceOnUse" color-interpolation-filters="sRGB">
  <feFlood flood-opacity="0" result="BackgroundImageFix"/>
  <feBlend mode="normal" in="SourceGraphic" in2="BackgroundImageFix" result="shape"/>
  <feGaussianBlur stdDeviation="21.0198" result="effect1_foregroundBlur_2006_1616"/>
  </filter>
  <filter id="filter1_f_2006_1616" x="-5.8299" y="51.8168" width="89.5729" height="136.501" filterUnits="userSpaceOnUse" color-interpolation-filters="sRGB">
  <feFlood flood-opacity="0" result="BackgroundImageFix"/>
  <feBlend mode="normal" in="SourceGraphic" in2="BackgroundImageFix" result="shape"/>
  <feGaussianBlur stdDeviation="10.5099" result="effect1_foregroundBlur_2006_1616"/>
  </filter>
  <filter id="filter2_f_2006_1616" x="-21.8509" y="-66.459" width="191.9" height="174.039" filterUnits="userSpaceOnUse" color-interpolation-filters="sRGB">
  <feFlood flood-opacity="0" result="BackgroundImageFix"/>
  <feBlend mode="normal" in="SourceGraphic" in2="BackgroundImageFix" result="shape"/>
  <feGaussianBlur stdDeviation="18.3924" result="effect1_foregroundBlur_2006_1616"/>
  </filter>
  <linearGradient id="paint0_linear_2006_1616" x1="28.2961" y1="58.8078" x2="55.5679" y2="74.5391" gradientUnits="userSpaceOnUse">
  <stop stop-opacity="0"/>
  <stop offset="1"/>
  </linearGradient>
  <linearGradient id="paint1_linear_2006_1616" x1="28.2961" y1="58.8078" x2="55.5679" y2="74.5391" gradientUnits="userSpaceOnUse">
  <stop stop-opacity="0"/>
  <stop offset="1"/>
  </linearGradient>
  <linearGradient id="paint2_linear_2006_1616" x1="55.4707" y1="22.339" x2="47.6124" y2="87.4032" gradientUnits="userSpaceOnUse">
  <stop stop-color="#FF753A"/>
  <stop offset="1" stop-color="#FF002E"/>
  </linearGradient>
  <linearGradient id="paint3_linear_2006_1616" x1="55.4707" y1="22.339" x2="47.6124" y2="87.4032" gradientUnits="userSpaceOnUse">
  <stop stop-color="white"/>
  <stop offset="1" stop-color="#E8E8E8"/>
  </linearGradient>
  <linearGradient id="paint4_linear_2006_1616" x1="55.4707" y1="22.339" x2="47.6124" y2="87.4032" gradientUnits="userSpaceOnUse">
  <stop stop-color="#FF753A"/>
  <stop offset="1" stop-color="#FF002E"/>
  </linearGradient>
  <linearGradient id="paint5_linear_2006_1616" x1="55.4707" y1="22.339" x2="47.6124" y2="87.4032" gradientUnits="userSpaceOnUse">
  <stop stop-color="white"/>
  <stop offset="1" stop-color="#E8E8E8"/>
  </linearGradient>
  </defs>
  </svg>
  