<svg width="132" height="54" viewBox="0 0 132 54" fill="none" xmlns="http://www.w3.org/2000/svg">
  <path d="M8.83837 12.5098H6.68935L4.08132 8.7542L6.68935 5.06123H8.83837L6.23034 8.7542L8.83837 12.5098ZM5.31231 12.5098H3.18415L0.576123 8.7542L3.18415 5.06123H5.31231L2.70428 8.7542L5.31231 12.5098Z" fill="white"/>
  <path d="M16.4473 14.8242H14.0271V4.74678H16.5308V10.4219L19.6395 4.74678H22.2058V14.8242H19.6813V8.91963L16.4473 14.8242ZM34.8705 4.74678H37.3742V12.6335H38.5008V17.3905H35.9763V14.8242H24.6678V4.74678H27.1715V12.6335H29.7587V4.74678H32.2833V12.6335H34.8705V4.74678ZM42.5578 14.8242H40.1375V4.74678H42.6412V10.4219L45.75 4.74678H48.3163V14.8242H45.7917V8.91963L42.5578 14.8242ZM54.7425 14.8242H52.2179V6.93753H50.0063V4.74678H56.975V6.93753H54.7425V14.8242ZM62.8209 15.0746C59.9834 15.0746 58.1264 12.9464 58.1264 9.77507C58.1264 6.85407 59.8373 4.49641 62.6331 4.49641C65.4081 4.49641 66.9729 6.74975 66.9729 9.87939V10.5888H60.651C60.7553 11.9658 61.569 13.0508 63.0921 13.0508C63.8015 13.0508 64.7195 12.6961 65.2829 12.0701L66.4304 13.5724C65.5332 14.553 64.1771 15.0746 62.8209 15.0746ZM64.5526 8.87791C64.5109 7.83469 64.0519 6.52024 62.5914 6.52024C61.1935 6.52024 60.6927 7.83469 60.651 8.87791H64.5526ZM78.479 15.0746C77.5193 15.0746 76.5595 14.5947 75.9336 13.5515V18.6632H73.4299V4.74678H75.9336V6.0195C76.5595 5.01802 77.4984 4.49641 78.479 4.49641C80.7532 4.49641 82.2137 6.47852 82.2137 9.77507C82.2137 13.0508 80.7532 15.0746 78.479 15.0746ZM77.6653 12.863C78.9589 12.863 79.6266 11.5485 79.6266 9.77507C79.6266 8.02247 78.9589 6.70802 77.6653 6.70802C76.9977 6.70802 76.2674 7.20877 75.9336 7.87642V11.6737C76.2674 12.3205 76.9977 12.863 77.6653 12.863ZM91.8724 14.8242H89.3478V13.8227C88.7845 14.6156 87.7204 15.0746 86.6981 15.0746C85.1124 15.0746 83.5893 13.8853 83.5893 11.7363C83.5893 9.5247 85.1124 8.46062 86.6981 8.46062C87.7413 8.46062 88.8054 8.87791 89.3478 9.64988V8.33544C89.3478 7.25049 88.6802 6.58284 87.4909 6.58284C86.6146 6.58284 85.7592 6.93753 85.0081 7.66778L84.0692 5.95691C85.1333 4.93456 86.6563 4.49641 87.9499 4.49641C90.1407 4.49641 91.8724 5.47703 91.8724 8.0642V14.8242ZM87.6578 13.3846C88.3463 13.3846 89.014 13.0299 89.3478 12.4248V11.1312C89.014 10.5262 88.3463 10.1506 87.6578 10.1506C86.7189 10.1506 86.093 10.8183 86.093 11.778C86.093 12.7378 86.7189 13.3846 87.6578 13.3846ZM98.3511 12.863C99.7073 12.863 100.333 11.4233 100.333 9.7542C100.333 8.14766 99.7073 6.70802 98.3511 6.70802C97.0158 6.70802 96.3898 8.14766 96.3898 9.7542C96.3898 11.4233 97.0158 12.863 98.3511 12.863ZM98.3511 15.0746C95.3258 15.0746 93.8027 12.6126 93.8027 9.31606C93.8027 4.18345 95.0128 2.36826 98.3511 1.78406C99.5404 1.57542 100.041 1.34591 100.041 0.90776H102.587C102.587 2.869 100.458 3.41147 99.0605 3.64098C97.0575 3.97481 96.1812 4.74678 95.9726 5.95691C96.5985 5.03888 97.6 4.49641 98.8518 4.49641C101.481 4.49641 102.92 6.95839 102.92 9.7542C102.92 12.55 101.376 15.0746 98.3511 15.0746ZM108.931 15.0746C105.968 15.0746 104.382 12.6126 104.382 9.77507C104.382 6.95839 105.968 4.49641 108.931 4.49641C111.935 4.49641 113.5 6.95839 113.5 9.77507C113.5 12.6126 111.935 15.0746 108.931 15.0746ZM108.931 12.863C110.308 12.863 110.913 11.4442 110.913 9.77507C110.913 8.12679 110.308 6.70802 108.931 6.70802C107.595 6.70802 106.99 8.12679 106.99 9.77507C106.99 11.4442 107.595 12.863 108.931 12.863ZM119.407 14.8242H116.882V6.93753H114.671V4.74678H121.64V6.93753H119.407V14.8242ZM123.083 18.7676L123.459 16.556C123.626 16.6394 123.918 16.702 124.105 16.702C124.669 16.702 125.023 16.4934 125.211 15.9718L125.545 15.012L122.144 4.74678H124.815L126.839 11.7989L128.883 4.74678H131.554L127.611 16.5351C126.985 18.392 125.9 18.8927 124.293 18.9136C123.98 18.9136 123.354 18.851 123.083 18.7676ZM13.7976 37.7676L14.1731 35.556C14.34 35.6394 14.6321 35.702 14.8199 35.702C15.3832 35.702 15.7379 35.4934 15.9257 34.9718L16.2595 34.012L12.8587 23.7468H15.5293L17.5531 30.7989L19.5978 23.7468H22.2684L18.3251 35.5351C17.6992 37.392 16.6142 37.8927 15.0077 37.9136C14.6947 37.9136 14.0688 37.851 13.7976 37.7676ZM23.3172 23.7468H25.8418V26.8138C25.8418 27.857 26.3216 28.2535 27.4066 28.2535C28.0534 28.2535 28.6376 28.0865 28.9714 27.8988V23.7468H31.496V33.8242H28.9714V29.86C28.4498 30.1938 27.5318 30.4651 26.5303 30.4651C24.1518 30.4651 23.3172 29.4427 23.3172 27.6693V23.7468ZM36.3841 33.8242H33.9638V23.7468H36.4675V29.4219L39.5763 23.7468H42.1426V33.8242H39.618V27.9196L36.3841 33.8242ZM48.5688 33.8242H46.0442V25.9375H43.8326V23.7468H50.8013V25.9375H48.5688V33.8242ZM56.6472 34.0746C53.8096 34.0746 51.9527 31.9464 51.9527 28.7751C51.9527 25.8541 53.6636 23.4964 56.4594 23.4964C59.2344 23.4964 60.7992 25.7498 60.7992 28.8794V29.5888H54.4773C54.5816 30.9658 55.3953 32.0508 56.9184 32.0508C57.6278 32.0508 58.5458 31.6961 59.1092 31.0701L60.2567 32.5724C59.3595 33.553 58.0034 34.0746 56.6472 34.0746ZM58.3789 27.8779C58.3372 26.8347 57.8782 25.5202 56.4177 25.5202C55.0198 25.5202 54.519 26.8347 54.4773 27.8779H58.3789ZM61.8949 34.0746V31.9673C62.646 31.9673 63.1259 31.4248 63.3762 28.9211L63.8561 23.7468H70.8456V33.8242H68.3211V25.9375H66.1303L65.8591 29.1715C65.5461 32.8227 64.2734 34.0746 61.8949 34.0746ZM77.4805 34.0746C74.6429 34.0746 72.786 31.9464 72.786 28.7751C72.786 25.8541 74.4969 23.4964 77.2927 23.4964C80.0676 23.4964 81.6325 25.7498 81.6325 28.8794V29.5888H75.3106C75.4149 30.9658 76.2286 32.0508 77.7517 32.0508C78.4611 32.0508 79.3791 31.6961 79.9425 31.0701L81.09 32.5724C80.1928 33.553 78.8366 34.0746 77.4805 34.0746ZM79.2122 27.8779C79.1705 26.8347 78.7115 25.5202 77.251 25.5202C75.8531 25.5202 75.3523 26.8347 75.3106 27.8779H79.2122ZM94.0574 33.8242H91.5746V27.711L89.3213 33.8242H88.2363L86.0038 27.711V33.8242H83.5001V23.7468H86.7132L88.7788 29.3593L90.8652 23.7468H94.0574V33.8242ZM16.5308 52.8242H14.0271V42.7468H16.5308V46.5023H19.6813V42.7468H22.2058V52.8242H19.6813V48.6931H16.5308V52.8242ZM32.4085 52.8242H29.8839V51.8227C29.3206 52.6156 28.2565 53.0746 27.2341 53.0746C25.6485 53.0746 24.1254 51.8853 24.1254 49.7363C24.1254 47.5247 25.6485 46.4606 27.2341 46.4606C28.2773 46.4606 29.3414 46.8779 29.8839 47.6499V46.3354C29.8839 45.2505 29.2162 44.5828 28.027 44.5828C27.1507 44.5828 26.2952 44.9375 25.5441 45.6678L24.6052 43.9569C25.6693 42.9346 27.1924 42.4964 28.486 42.4964C30.6767 42.4964 32.4085 43.477 32.4085 46.0642V52.8242ZM28.1939 51.3846C28.8824 51.3846 29.5501 51.0299 29.8839 50.4248V49.1312C29.5501 48.5262 28.8824 48.1506 28.1939 48.1506C27.255 48.1506 26.6291 48.8183 26.6291 49.778C26.6291 50.7378 27.255 51.3846 28.1939 51.3846ZM47.6285 52.8242H45.1247V46.1477C45.1247 45.1044 44.624 44.708 43.7894 44.708C42.9757 44.708 42.3081 45.3548 41.9742 45.9599V52.8242H39.4497V38.9078H41.9742V44.0612C42.4958 43.2684 43.6225 42.4964 44.9161 42.4964C46.7939 42.4964 47.6285 43.5188 47.6285 45.2088V52.8242ZM58.2692 52.8242H55.7655V46.1477C55.7655 45.1044 55.2648 44.708 54.4302 44.708C53.6165 44.708 52.9488 45.3548 52.615 45.9599V52.8242H50.0904V38.9078H52.615V44.0612C53.1366 43.2684 54.2633 42.4964 55.5569 42.4964C57.4347 42.4964 58.2692 43.5188 58.2692 45.2088V52.8242ZM62.2334 53.0537C61.3571 53.0537 60.606 52.3235 60.606 51.4472C60.606 50.5709 61.3571 49.8198 62.2334 49.8198C63.1097 49.8198 63.84 50.5709 63.84 51.4472C63.84 52.3235 63.1097 53.0537 62.2334 53.0537ZM68.7004 52.8242H66.1967V42.7468H68.7004V44.1238C69.2637 43.2267 70.3695 42.4964 71.4545 42.4964V44.9584C71.2875 44.9167 71.0789 44.8958 70.8494 44.8958C70.0565 44.8958 69.1177 45.4174 68.7004 46.1059V52.8242ZM81.2463 52.8242H78.7426V51.5515C78.2001 52.3443 77.0943 53.0746 75.7799 53.0746C73.923 53.0746 73.0884 52.0522 73.0884 50.3622V42.7468H75.5921V49.4025C75.5921 50.4666 76.0928 50.863 76.9274 50.863C77.7411 50.863 78.3879 50.2579 78.7426 49.632V42.7468H81.2463V52.8242Z" fill="white"/>
  <path d="M86.0303 44.1343L88.1793 44.1343L90.7873 47.8898L88.1793 51.5828L86.0303 51.5828L88.6383 47.8898L86.0303 44.1343ZM89.5563 44.1343L91.6845 44.1343L94.2925 47.8898L91.6845 51.5828L89.5563 51.5828L92.1644 47.8898L89.5563 44.1343Z" fill="white"/>
  </svg>
  