<svg width="679" height="708" viewBox="0 0 679 708" fill="none" xmlns="http://www.w3.org/2000/svg">
  <path d="M268.533 130.241C288.613 113.651 308.834 98.4402 328.98 84.7536C351.408 69.5073 374.694 55.6447 397.969 43.7495C425.2 29.8873 453.577 18.2528 481.475 10.515C515.878 0.96768 551.091 -2.93532 582.762 3.09106C624.523 10.9962 655.859 35.2015 670.147 77.7252C688.822 133.408 676.714 214.85 626.707 312.765C568.744 426.257 473.261 536.898 360.612 616.204C258.63 687.977 165.706 717.42 97.3773 704.952C45.5503 695.498 17.5186 662.984 6.56681 621.613C-1.86443 589.965 -0.270687 552.974 7.75967 515.588C14.2086 485.507 24.8917 454.412 38.5449 423.946C50.066 398.169 64.0235 372.048 79.9608 346.147C94.0632 323.209 109.033 301.546 124.237 281.379C138.402 262.602 153.397 244.331 168.667 227.068C183.539 210.263 199.314 193.698 215.539 177.88C231.99 161.808 249.768 145.792 268.533 130.241Z" fill="#D6001C"/>
  </svg>
  