<svg width="164" height="28" viewBox="0 0 164 28" fill="none" xmlns="http://www.w3.org/2000/svg">
  <path d="M6.11714 8.46351H4.53112L2.60634 5.69183L4.53112 2.96634H6.11714L4.19236 5.69183L6.11714 8.46351ZM3.51484 8.46351H1.94422L0.0194417 5.69183L1.94422 2.96634H3.51484L1.59006 5.69183L3.51484 8.46351Z" fill="white"/>
  <path d="M11.7327 10.4336H9.94656V2.99625H11.7943V7.18457L14.0887 2.99625H15.9827V10.4336H14.1195V6.0759L11.7327 10.4336ZM25.3294 2.99625H27.1772V8.81678H28.0087V12.3276H26.1455V10.4336H17.7996V2.99625H19.6474V8.81678H21.5568V2.99625H23.42V8.81678H25.3294V2.99625ZM31.0028 10.4336H29.2166V2.99625H31.0644V7.18457L33.3587 2.99625H35.2527V10.4336H33.3895V6.0759L31.0028 10.4336ZM39.9953 10.4336H38.1322V4.61307H36.4999V2.99625H41.6429V4.61307H39.9953V10.4336ZM45.9573 10.6184C44.9103 10.6184 44.0685 10.2591 43.432 9.5405C42.8058 8.82191 42.4927 7.87749 42.4927 6.70722C42.4927 5.59855 42.7956 4.67466 43.4012 3.93554C44.0069 3.18616 44.8127 2.81147 45.8188 2.81147C46.8248 2.81147 47.6101 3.18103 48.1747 3.92015C48.7393 4.649 49.0216 5.60369 49.0216 6.78422V7.30776H44.3559C44.397 7.84156 44.5715 8.27784 44.8795 8.6166C45.1874 8.95536 45.6134 9.12475 46.1575 9.12475C46.4347 9.12475 46.7221 9.06315 47.0198 8.93997C47.3175 8.80652 47.569 8.62687 47.7743 8.40103L48.6212 9.5097C47.9437 10.2488 47.0557 10.6184 45.9573 10.6184ZM47.2354 6.0451C47.2149 5.58315 47.0917 5.17767 46.8658 4.82864C46.64 4.47962 46.2807 4.3051 45.788 4.3051C45.3157 4.3051 44.9616 4.47962 44.7255 4.82864C44.4996 5.17767 44.3765 5.58315 44.3559 6.0451H47.2354ZM57.5133 10.6184C56.7126 10.6184 56.0864 10.2437 55.6348 9.4943V13.2669H53.787V2.99625H55.6348V3.93554C56.107 3.18616 56.7332 2.81147 57.5133 2.81147C58.3551 2.81147 59.0224 3.1605 59.5151 3.85855C60.0181 4.54634 60.2696 5.4959 60.2696 6.70722C60.2696 7.90829 60.0181 8.86298 59.5151 9.57129C59.0224 10.2693 58.3551 10.6184 57.5133 10.6184ZM56.9128 8.98616C57.3748 8.98616 57.7289 8.77572 57.9753 8.35483C58.2319 7.93395 58.3602 7.38475 58.3602 6.70722C58.3602 6.03997 58.2319 5.4959 57.9753 5.07501C57.7289 4.65413 57.3748 4.44369 56.9128 4.44369C56.6664 4.44369 56.4201 4.52581 56.1737 4.69006C55.9376 4.85431 55.7579 5.05962 55.6348 5.30599V8.10846C55.7579 8.35483 55.9376 8.56528 56.1737 8.73979C56.4201 8.90404 56.6664 8.98616 56.9128 8.98616ZM67.3979 10.4336H65.5347V9.69448C65.3294 9.98191 65.0471 10.2078 64.6878 10.372C64.3388 10.5362 63.9692 10.6184 63.5792 10.6184C62.953 10.6184 62.414 10.3977 61.9623 9.95625C61.5107 9.51483 61.2848 8.9143 61.2848 8.15466C61.2848 7.38475 61.5055 6.78935 61.9469 6.36846C62.3986 5.94758 62.9427 5.73714 63.5792 5.73714C63.9795 5.73714 64.3542 5.81413 64.7032 5.96811C65.0625 6.12209 65.3397 6.33767 65.5347 6.61484V5.64475C65.5347 5.24439 65.4115 4.9313 65.1652 4.70546C64.9291 4.46935 64.5954 4.3513 64.1643 4.3513C63.4868 4.3513 62.876 4.6182 62.3319 5.152L61.639 3.88935C62.3884 3.17077 63.343 2.81147 64.503 2.81147C65.3756 2.81147 66.0737 3.02705 66.5972 3.4582C67.131 3.87908 67.3979 4.54121 67.3979 5.44457V10.4336ZM64.2875 9.37112C64.8623 9.37112 65.2781 9.13501 65.5347 8.6628V7.70811C65.2678 7.22563 64.8521 6.98439 64.2875 6.98439C63.9384 6.98439 63.6561 7.09731 63.4406 7.32315C63.2353 7.53873 63.1326 7.82616 63.1326 8.18545C63.1326 8.54475 63.2353 8.83218 63.4406 9.04775C63.6561 9.26333 63.9384 9.37112 64.2875 9.37112ZM71.1014 8.33944C71.3478 8.77059 71.7071 8.98616 72.1793 8.98616C72.6515 8.98616 73.0108 8.77059 73.2572 8.33944C73.5138 7.89802 73.6421 7.34882 73.6421 6.69183C73.6421 6.05537 73.5138 5.52156 73.2572 5.09041C73.0108 4.65926 72.6515 4.44369 72.1793 4.44369C71.7071 4.44369 71.3478 4.65926 71.1014 5.09041C70.8551 5.52156 70.7319 6.05537 70.7319 6.69183C70.7319 7.34882 70.8551 7.89802 71.1014 8.33944ZM72.1793 10.6184C71.1014 10.6184 70.2699 10.2283 69.6848 9.44811C69.1099 8.65767 68.8225 7.63112 68.8225 6.36846C68.8225 4.48988 69.0689 3.15024 69.5616 2.34953C70.0646 1.53856 70.9372 1.02528 72.1793 0.809707C73.0108 0.665989 73.4266 0.450414 73.4266 0.162981H75.3051C75.3051 1.22033 74.4377 1.89271 72.7028 2.18015C71.3375 2.40599 70.5779 2.97572 70.4239 3.88935C70.9166 3.17077 71.625 2.81147 72.5489 2.81147C73.483 2.81147 74.217 3.18616 74.7508 3.93554C75.2846 4.68493 75.5515 5.60369 75.5515 6.69183C75.5515 7.79023 75.2538 8.71926 74.6584 9.4789C74.0733 10.2385 73.2469 10.6184 72.1793 10.6184ZM79.9873 10.6184C78.9402 10.6184 78.119 10.2437 77.5236 9.4943C76.9282 8.73466 76.6305 7.80563 76.6305 6.70722C76.6305 5.60882 76.9282 4.68493 77.5236 3.93554C78.119 3.18616 78.9402 2.81147 79.9873 2.81147C81.0446 2.81147 81.871 3.18616 82.4664 3.93554C83.0618 4.68493 83.3595 5.60882 83.3595 6.70722C83.3595 7.8159 83.0618 8.74492 82.4664 9.4943C81.871 10.2437 81.0446 10.6184 79.9873 10.6184ZM79.9873 8.98616C80.4698 8.98616 80.8342 8.77059 81.0806 8.33944C81.3269 7.90829 81.4501 7.36422 81.4501 6.70722C81.4501 6.05023 81.3269 5.5113 81.0806 5.09041C80.8342 4.65926 80.4698 4.44369 79.9873 4.44369C79.5151 4.44369 79.1558 4.65926 78.9094 5.09041C78.6733 5.52156 78.5552 6.0605 78.5552 6.70722C78.5552 7.36422 78.6733 7.90829 78.9094 8.33944C79.1558 8.77059 79.5151 8.98616 79.9873 8.98616ZM87.719 10.4336H85.8558V4.61307H84.2236V2.99625H89.3666V4.61307H87.719V10.4336ZM90.432 13.3439L90.7091 11.7116C90.8528 11.7835 91.012 11.8194 91.1865 11.8194C91.5971 11.8194 91.8691 11.6398 92.0026 11.2805L92.2489 10.5722L89.739 2.99625H91.71L93.2036 8.20085L94.7127 2.99625H96.6836L93.7734 11.6962C93.5578 12.3532 93.255 12.8049 92.8649 13.0513C92.4748 13.3079 91.9615 13.4414 91.3251 13.4516C90.9658 13.4516 90.6681 13.4157 90.432 13.3439ZM15.6593 24.4336H13.7961V23.6945C13.5908 23.9819 13.3085 24.2078 12.9492 24.372C12.6002 24.5362 12.2306 24.6184 11.8405 24.6184C11.2143 24.6184 10.6754 24.3977 10.2237 23.9562C9.77204 23.5148 9.5462 22.9143 9.5462 22.1547C9.5462 21.3847 9.76691 20.7893 10.2083 20.3685C10.66 19.9476 11.2041 19.7371 11.8405 19.7371C12.2409 19.7371 12.6156 19.8141 12.9646 19.9681C13.3239 20.1221 13.6011 20.3377 13.7961 20.6148V19.6447C13.7961 19.2444 13.6729 18.9313 13.4266 18.7055C13.1904 18.4694 12.8568 18.3513 12.4257 18.3513C11.7481 18.3513 11.1374 18.6182 10.5933 19.152L9.90036 17.8894C10.6497 17.1708 11.6044 16.8115 12.7644 16.8115C13.637 16.8115 14.335 17.027 14.8586 17.4582C15.3924 17.8791 15.6593 18.5412 15.6593 19.4446V24.4336ZM12.5489 23.3711C13.1237 23.3711 13.5395 23.135 13.7961 22.6628V21.7081C13.5292 21.2256 13.1135 20.9844 12.5489 20.9844C12.1998 20.9844 11.9175 21.0973 11.702 21.3232C11.4966 21.5387 11.394 21.8262 11.394 22.1855C11.394 22.5447 11.4966 22.8322 11.702 23.0478C11.9175 23.2633 12.1998 23.3711 12.5489 23.3711ZM21.3492 24.4336H17.4688V16.9963H21.2414C21.9908 16.9963 22.5554 17.1759 22.9352 17.5352C23.3253 17.8945 23.5203 18.3513 23.5203 18.9056C23.5203 19.3368 23.4023 19.7012 23.1662 19.9989C22.9301 20.2863 22.6221 20.4814 22.2423 20.584C22.6632 20.6764 23.0071 20.892 23.274 21.2308C23.5409 21.5695 23.6743 21.9647 23.6743 22.4164C23.6743 23.0118 23.4793 23.4994 23.0892 23.8793C22.6991 24.2488 22.1191 24.4336 21.3492 24.4336ZM20.918 22.94C21.4929 22.94 21.7803 22.6833 21.7803 22.1701C21.7803 21.9442 21.7033 21.7594 21.5494 21.6157C21.4056 21.4617 21.1952 21.3847 20.918 21.3847H19.3166V22.94H20.918ZM20.8564 19.8911C21.38 19.8911 21.6417 19.6601 21.6417 19.1982C21.6417 18.9826 21.575 18.8132 21.4416 18.6901C21.3081 18.5566 21.1131 18.4899 20.8564 18.4899H19.3166V19.8911H20.8564ZM28.2777 24.4336H26.4145V18.6131H24.7823V16.9963H29.9253V18.6131H28.2777V24.4336ZM34.1319 24.6184C33.0848 24.6184 32.2635 24.2437 31.6681 23.4943C31.0728 22.7347 30.7751 21.8056 30.7751 20.7072C30.7751 19.6088 31.0728 18.6849 31.6681 17.9355C32.2635 17.1862 33.0848 16.8115 34.1319 16.8115C35.1892 16.8115 36.0156 17.1862 36.611 17.9355C37.2064 18.6849 37.5041 19.6088 37.5041 20.7072C37.5041 21.8159 37.2064 22.7449 36.611 23.4943C36.0156 24.2437 35.1892 24.6184 34.1319 24.6184ZM34.1319 22.9862C34.6143 22.9862 34.9788 22.7706 35.2251 22.3394C35.4715 21.9083 35.5947 21.3642 35.5947 20.7072C35.5947 20.0502 35.4715 19.5113 35.2251 19.0904C34.9788 18.6593 34.6143 18.4437 34.1319 18.4437C33.6597 18.4437 33.3004 18.6593 33.054 19.0904C32.8179 19.5216 32.6998 20.0605 32.6998 20.7072C32.6998 21.3642 32.8179 21.9083 33.054 22.3394C33.3004 22.7706 33.6597 22.9862 34.1319 22.9862ZM41.956 24.6184C40.9397 24.6184 40.1184 24.2539 39.4922 23.5251C38.8661 22.7962 38.553 21.857 38.553 20.7072C38.553 19.5678 38.8661 18.6336 39.4922 17.9047C40.1184 17.1759 40.9397 16.8115 41.956 16.8115C42.9825 16.8115 43.773 17.1451 44.3273 17.8124L43.4034 19.0904C43.0544 18.6593 42.6386 18.4437 42.1561 18.4437C41.6326 18.4437 41.2168 18.6593 40.9089 19.0904C40.6112 19.5113 40.4623 20.0502 40.4623 20.7072C40.4623 21.3745 40.6112 21.9237 40.9089 22.3548C41.2168 22.7757 41.6326 22.9862 42.1561 22.9862C42.6386 22.9862 43.0544 22.7706 43.4034 22.3394L44.3273 23.6175C43.773 24.2847 42.9825 24.6184 41.956 24.6184ZM45.0032 24.6184V23.0632C45.3009 23.0632 45.5319 22.9092 45.6962 22.6012C45.8707 22.283 46.0041 21.6876 46.0965 20.815L46.4507 16.9963H51.6091V24.4336H49.7459V18.6131H48.1291L47.9289 20.9998C47.816 22.3138 47.5234 23.2479 47.0512 23.8023C46.5893 24.3463 45.9066 24.6184 45.0032 24.6184ZM56.5057 24.6184C55.4586 24.6184 54.6169 24.2591 53.9804 23.5405C53.3542 22.8219 53.0411 21.8775 53.0411 20.7072C53.0411 19.5986 53.344 18.6747 53.9496 17.9355C54.5553 17.1862 55.3611 16.8115 56.3671 16.8115C57.3732 16.8115 58.1585 17.181 58.7231 17.9201C59.2877 18.649 59.57 19.6037 59.57 20.7842V21.3078H54.9043C54.9454 21.8416 55.1199 22.2778 55.4278 22.6166C55.7358 22.9554 56.1618 23.1247 56.7059 23.1247C56.9831 23.1247 57.2705 23.0632 57.5682 22.94C57.8659 22.8065 58.1174 22.6269 58.3227 22.401L59.1696 23.5097C58.4921 24.2488 57.6041 24.6184 56.5057 24.6184ZM57.7838 20.0451C57.7632 19.5832 57.6401 19.1777 57.4142 18.8286C57.1884 18.4796 56.8291 18.3051 56.3363 18.3051C55.8641 18.3051 55.51 18.4796 55.2739 18.8286C55.048 19.1777 54.9248 19.5832 54.9043 20.0451H57.7838ZM63.9664 24.6184C62.9501 24.6184 62.1289 24.2539 61.5027 23.5251C60.8765 22.7962 60.5634 21.857 60.5634 20.7072C60.5634 19.5678 60.8765 18.6336 61.5027 17.9047C62.1289 17.1759 62.9501 16.8115 63.9664 16.8115C64.9929 16.8115 65.7834 17.1451 66.3377 17.8124L65.4138 19.0904C65.0648 18.6593 64.649 18.4437 64.1666 18.4437C63.643 18.4437 63.2273 18.6593 62.9193 19.0904C62.6216 19.5113 62.4728 20.0502 62.4728 20.7072C62.4728 21.3745 62.6216 21.9237 62.9193 22.3548C63.2273 22.7757 63.643 22.9862 64.1666 22.9862C64.649 22.9862 65.0648 22.7706 65.4138 22.3394L66.3377 23.6175C65.7834 24.2847 64.9929 24.6184 63.9664 24.6184ZM73.2962 24.4336H71.433V23.6945C71.2277 23.9819 70.9454 24.2078 70.5861 24.372C70.237 24.5362 69.8675 24.6184 69.4774 24.6184C68.8512 24.6184 68.3123 24.3977 67.8606 23.9562C67.4089 23.5148 67.1831 22.9143 67.1831 22.1547C67.1831 21.3847 67.4038 20.7893 67.8452 20.3685C68.2969 19.9476 68.8409 19.7371 69.4774 19.7371C69.8777 19.7371 70.2524 19.8141 70.6015 19.9681C70.9608 20.1221 71.2379 20.3377 71.433 20.6148V19.6447C71.433 19.2444 71.3098 18.9313 71.0634 18.7055C70.8273 18.4694 70.4937 18.3513 70.0625 18.3513C69.385 18.3513 68.7742 18.6182 68.2301 19.152L67.5372 17.8894C68.2866 17.1708 69.2413 16.8115 70.4013 16.8115C71.2739 16.8115 71.9719 17.027 72.4954 17.4582C73.0292 17.8791 73.2962 18.5412 73.2962 19.4446V24.4336ZM70.1857 23.3711C70.7606 23.3711 71.1763 23.135 71.433 22.6628V21.7081C71.1661 21.2256 70.7503 20.9844 70.1857 20.9844C69.8367 20.9844 69.5544 21.0973 69.3388 21.3232C69.1335 21.5387 69.0308 21.8262 69.0308 22.1855C69.0308 22.5447 69.1335 22.8322 69.3388 23.0478C69.5544 23.2633 69.8367 23.3711 70.1857 23.3711ZM78.8321 24.6184C78.0313 24.6184 77.4051 24.2437 76.9535 23.4943V27.2669H75.1057V16.9963H76.9535V17.9355C77.4257 17.1862 78.0519 16.8115 78.8321 16.8115C79.6738 16.8115 80.3411 17.1605 80.8338 17.8586C81.3368 18.5463 81.5883 19.4959 81.5883 20.7072C81.5883 21.9083 81.3368 22.863 80.8338 23.5713C80.3411 24.2693 79.6738 24.6184 78.8321 24.6184ZM78.2315 22.9862C78.6935 22.9862 79.0476 22.7757 79.294 22.3548C79.5506 21.9339 79.679 21.3847 79.679 20.7072C79.679 20.04 79.5506 19.4959 79.294 19.075C79.0476 18.6541 78.6935 18.4437 78.2315 18.4437C77.9851 18.4437 77.7388 18.5258 77.4924 18.6901C77.2563 18.8543 77.0767 19.0596 76.9535 19.306V22.1085C77.0767 22.3548 77.2563 22.5653 77.4924 22.7398C77.7388 22.904 77.9851 22.9862 78.2315 22.9862ZM86.0835 24.6184C85.0365 24.6184 84.1947 24.2591 83.5582 23.5405C82.932 22.8219 82.6189 21.8775 82.6189 20.7072C82.6189 19.5986 82.9218 18.6747 83.5274 17.9355C84.1331 17.1862 84.9389 16.8115 85.9449 16.8115C86.951 16.8115 87.7363 17.181 88.3009 17.9201C88.8655 18.649 89.1478 19.6037 89.1478 20.7842V21.3078H84.4821C84.5232 21.8416 84.6977 22.2778 85.0057 22.6166C85.3136 22.9554 85.7396 23.1247 86.2837 23.1247C86.5609 23.1247 86.8483 23.0632 87.146 22.94C87.4437 22.8065 87.6952 22.6269 87.9005 22.401L88.7474 23.5097C88.0699 24.2488 87.1819 24.6184 86.0835 24.6184ZM87.3616 20.0451C87.3411 19.5832 87.2179 19.1777 86.992 18.8286C86.7662 18.4796 86.4069 18.3051 85.9142 18.3051C85.4419 18.3051 85.0878 18.4796 84.8517 18.8286C84.6258 19.1777 84.5027 19.5832 84.4821 20.0451H87.3616ZM98.3177 24.4336H96.4853V19.9219L94.8223 24.4336H94.0216L92.3739 19.9219V24.4336H90.5262V16.9963H92.8975L94.4219 21.1384L95.9617 16.9963H98.3177V24.4336ZM105.373 24.4336H103.526V16.9963H105.373V19.7679H107.699V16.9963H109.562V24.4336H107.699V21.3847H105.373V24.4336ZM117.091 24.4336H115.228V23.6945C115.023 23.9819 114.741 24.2078 114.381 24.372C114.032 24.5362 113.663 24.6184 113.273 24.6184C112.647 24.6184 112.108 24.3977 111.656 23.9562C111.204 23.5148 110.978 22.9143 110.978 22.1547C110.978 21.3847 111.199 20.7893 111.64 20.3685C112.092 19.9476 112.636 19.7371 113.273 19.7371C113.673 19.7371 114.048 19.8141 114.397 19.9681C114.756 20.1221 115.033 20.3377 115.228 20.6148V19.6447C115.228 19.2444 115.105 18.9313 114.859 18.7055C114.623 18.4694 114.289 18.3513 113.858 18.3513C113.18 18.3513 112.57 18.6182 112.025 19.152L111.333 17.8894C112.082 17.1708 113.037 16.8115 114.197 16.8115C115.069 16.8115 115.767 17.027 116.291 17.4582C116.825 17.8791 117.091 18.5412 117.091 19.4446V24.4336ZM113.981 23.3711C114.556 23.3711 114.972 23.135 115.228 22.6628V21.7081C114.961 21.2256 114.546 20.9844 113.981 20.9844C113.632 20.9844 113.35 21.0973 113.134 21.3232C112.929 21.5387 112.826 21.8262 112.826 22.1855C112.826 22.5447 112.929 22.8322 113.134 23.0478C113.35 23.2633 113.632 23.3711 113.981 23.3711ZM128.324 24.4336H126.476V19.5062C126.476 18.7978 126.148 18.4437 125.491 18.4437C125.214 18.4437 124.957 18.5361 124.721 18.7209C124.485 18.8954 124.295 19.1109 124.151 19.3676V24.4336H122.288V14.163H124.151V17.9663C124.356 17.6481 124.654 17.3761 125.044 17.1502C125.445 16.9244 125.871 16.8115 126.322 16.8115C127.657 16.8115 128.324 17.4787 128.324 18.8132V24.4336ZM136.177 24.4336H134.329V19.5062C134.329 18.7978 134.001 18.4437 133.344 18.4437C133.067 18.4437 132.81 18.5361 132.574 18.7209C132.338 18.8954 132.148 19.1109 132.004 19.3676V24.4336H130.141V14.163H132.004V17.9663C132.21 17.6481 132.507 17.3761 132.897 17.1502C133.298 16.9244 133.724 16.8115 134.175 16.8115C135.51 16.8115 136.177 17.4787 136.177 18.8132V24.4336ZM139.934 24.2642C139.709 24.4901 139.431 24.603 139.103 24.603C138.774 24.603 138.492 24.4849 138.256 24.2488C138.02 24.0127 137.902 23.7355 137.902 23.4173C137.902 23.0888 138.02 22.8065 138.256 22.5704C138.492 22.3343 138.774 22.2163 139.103 22.2163C139.421 22.2163 139.698 22.3343 139.934 22.5704C140.17 22.8065 140.289 23.0888 140.289 23.4173C140.289 23.7458 140.17 24.0281 139.934 24.2642ZM143.876 24.4336H142.028V16.9963H143.876V18.0125C144.091 17.6738 144.384 17.3915 144.753 17.1656C145.133 16.9295 145.518 16.8115 145.908 16.8115V18.6285C145.785 18.5977 145.636 18.5823 145.462 18.5823C145.164 18.5823 144.861 18.6695 144.553 18.844C144.255 19.0083 144.03 19.2187 143.876 19.4754V24.4336ZM153.135 24.4336H151.287V23.4943C151.071 23.8125 150.769 24.0794 150.378 24.295C149.988 24.5106 149.562 24.6184 149.1 24.6184C147.776 24.6184 147.114 23.9511 147.114 22.6166V16.9963H148.962V21.9083C148.962 22.6269 149.29 22.9862 149.947 22.9862C150.502 22.9862 150.948 22.6833 151.287 22.0777V16.9963H153.135V24.4336Z" fill="white"/>
  <path d="M157.113 18.1383L158.699 18.1383L160.624 20.91L158.699 23.6355L157.113 23.6355L159.038 20.91L157.113 18.1383ZM159.715 18.1383L161.286 18.1383L163.211 20.91L161.286 23.6355L159.715 23.6355L161.64 20.91L159.715 18.1383Z" fill="white"/>
  </svg>
  