<svg width="183" height="73" viewBox="0 0 183 73" fill="none" xmlns="http://www.w3.org/2000/svg">
  <path d="M12.354 18.173H9.367L5.742 12.953L9.367 7.82H12.354L8.729 12.953L12.354 18.173ZM7.453 18.173H4.495L0.87 12.953L4.495 7.82H7.453L3.828 12.953L7.453 18.173Z" fill="white"/>
  <path d="M22.93 20H19.566V5.993H23.046V13.881L27.367 5.993H30.934V20H27.425V11.793L22.93 20ZM48.537 5.993H52.017V16.955H53.583V23.567H50.074V20H34.356V5.993H37.836V16.955H41.432V5.993H44.941V16.955H48.537V5.993ZM59.2219 20H55.8579V5.993H59.3379V13.881L63.6589 5.993H67.2259V20H63.7169V11.793L59.2219 20ZM76.1579 20H72.6489V9.038H69.5749V5.993H79.2609V9.038H76.1579V20ZM87.3864 20.348C83.4424 20.348 80.8614 17.39 80.8614 12.982C80.8614 8.922 83.2394 5.645 87.1254 5.645C90.9824 5.645 93.1574 8.777 93.1574 13.127V14.113H84.3704C84.5154 16.027 85.6464 17.535 87.7634 17.535C88.7494 17.535 90.0254 17.042 90.8084 16.172L92.4034 18.26C91.1564 19.623 89.2714 20.348 87.3864 20.348ZM89.7934 11.735C89.7354 10.285 89.0974 8.458 87.0674 8.458C85.1244 8.458 84.4284 10.285 84.3704 11.735H89.7934ZM109.15 20.348C107.816 20.348 106.482 19.681 105.612 18.231V25.336H102.132V5.993H105.612V7.762C106.482 6.37 107.787 5.645 109.15 5.645C112.311 5.645 114.341 8.4 114.341 12.982C114.341 17.535 112.311 20.348 109.15 20.348ZM108.019 17.274C109.817 17.274 110.745 15.447 110.745 12.982C110.745 10.546 109.817 8.719 108.019 8.719C107.091 8.719 106.076 9.415 105.612 10.343V15.621C106.076 16.52 107.091 17.274 108.019 17.274ZM127.766 20H124.257V18.608C123.474 19.71 121.995 20.348 120.574 20.348C118.37 20.348 116.253 18.695 116.253 15.708C116.253 12.634 118.37 11.155 120.574 11.155C122.024 11.155 123.503 11.735 124.257 12.808V10.981C124.257 9.473 123.329 8.545 121.676 8.545C120.458 8.545 119.269 9.038 118.225 10.053L116.92 7.675C118.399 6.254 120.516 5.645 122.314 5.645C125.359 5.645 127.766 7.008 127.766 10.604V20ZM121.908 17.999C122.865 17.999 123.793 17.506 124.257 16.665V14.867C123.793 14.026 122.865 13.504 121.908 13.504C120.603 13.504 119.733 14.432 119.733 15.766C119.733 17.1 120.603 17.999 121.908 17.999ZM136.771 17.274C138.656 17.274 139.526 15.273 139.526 12.953C139.526 10.72 138.656 8.719 136.771 8.719C134.915 8.719 134.045 10.72 134.045 12.953C134.045 15.273 134.915 17.274 136.771 17.274ZM136.771 20.348C132.566 20.348 130.449 16.926 130.449 12.344C130.449 5.21 132.131 2.687 136.771 1.875C138.424 1.585 139.12 1.266 139.12 0.656998H142.658C142.658 3.383 139.7 4.137 137.757 4.456C134.973 4.92 133.755 5.993 133.465 7.675C134.335 6.399 135.727 5.645 137.467 5.645C141.121 5.645 143.122 9.067 143.122 12.953C143.122 16.839 140.976 20.348 136.771 20.348ZM151.476 20.348C147.358 20.348 145.154 16.926 145.154 12.982C145.154 9.067 147.358 5.645 151.476 5.645C155.652 5.645 157.827 9.067 157.827 12.982C157.827 16.926 155.652 20.348 151.476 20.348ZM151.476 17.274C153.39 17.274 154.231 15.302 154.231 12.982C154.231 10.691 153.39 8.719 151.476 8.719C149.62 8.719 148.779 10.691 148.779 12.982C148.779 15.302 149.62 17.274 151.476 17.274ZM166.038 20H162.529V9.038H159.455V5.993H169.141V9.038H166.038V20ZM171.147 25.481L171.669 22.407C171.901 22.523 172.307 22.61 172.568 22.61C173.351 22.61 173.844 22.32 174.105 21.595L174.569 20.261L169.842 5.993H173.554L176.367 15.795L179.209 5.993H182.921L177.44 22.378C176.57 24.959 175.062 25.655 172.829 25.684C172.394 25.684 171.524 25.597 171.147 25.481ZM22.93 46H19.566V31.993H23.046V39.881L27.367 31.993H30.934V46H27.425V37.793L22.93 46ZM37.836 46H34.356V31.993H37.836V37.213H42.215V31.993H45.724V46H42.215V40.258H37.836V46ZM51.756 46H47.667L52.249 38.286L47.812 31.993H51.872L55.178 36.923V31.993H58.658V36.981L61.993 31.993H66.024L61.616 38.286L66.198 46H62.109L59.209 40.519L58.658 41.302V46H55.178V41.244L54.656 40.519L51.756 46ZM73.6725 46.348C69.7285 46.348 67.1475 43.39 67.1475 38.982C67.1475 34.922 69.5255 31.645 73.4115 31.645C77.2685 31.645 79.4435 34.777 79.4435 39.127V40.113H70.6565C70.8015 42.027 71.9325 43.535 74.0495 43.535C75.0355 43.535 76.3115 43.042 77.0945 42.172L78.6895 44.26C77.4425 45.623 75.5575 46.348 73.6725 46.348ZM76.0795 37.735C76.0215 36.285 75.3835 34.458 73.3535 34.458C71.4105 34.458 70.7145 36.285 70.6565 37.735H76.0795ZM85.5195 46H82.0395V31.993H85.5195V37.213H89.8985V31.993H93.4075V46H89.8985V40.258H85.5195V46ZM102.629 46.348C98.6855 46.348 96.1045 43.39 96.1045 38.982C96.1045 34.922 98.4825 31.645 102.368 31.645C106.225 31.645 108.4 34.777 108.4 39.127V40.113H99.6135C99.7585 42.027 100.889 43.535 103.006 43.535C103.992 43.535 105.268 43.042 106.051 42.172L107.646 44.26C106.399 45.623 104.514 46.348 102.629 46.348ZM105.036 37.735C104.978 36.285 104.34 34.458 102.31 34.458C100.367 34.458 99.6715 36.285 99.6135 37.735H105.036ZM118.014 46.348C116.68 46.348 115.346 45.681 114.476 44.231V51.336H110.996V31.993H114.476V33.762C115.346 32.37 116.651 31.645 118.014 31.645C121.175 31.645 123.205 34.4 123.205 38.982C123.205 43.535 121.175 46.348 118.014 46.348ZM116.883 43.274C118.681 43.274 119.609 41.447 119.609 38.982C119.609 36.546 118.681 34.719 116.883 34.719C115.955 34.719 114.94 35.415 114.476 36.343V41.621C114.94 42.52 115.955 43.274 116.883 43.274ZM131.468 46.348C127.35 46.348 125.146 42.926 125.146 38.982C125.146 35.067 127.35 31.645 131.468 31.645C135.644 31.645 137.819 35.067 137.819 38.982C137.819 42.926 135.644 46.348 131.468 46.348ZM131.468 43.274C133.382 43.274 134.223 41.302 134.223 38.982C134.223 36.691 133.382 34.719 131.468 34.719C129.612 34.719 128.771 36.691 128.771 38.982C128.771 41.302 129.612 43.274 131.468 43.274ZM155.194 46H151.743V37.503L148.611 46H147.103L144 37.503V46H140.52V31.993H144.986L147.857 39.794L150.757 31.993H155.194V46ZM23.046 72H19.566V57.993H23.046V63.213H27.425V57.993H30.934V72H27.425V66.258H23.046V72ZM45.115 72H41.606V70.608C40.823 71.71 39.344 72.348 37.923 72.348C35.719 72.348 33.602 70.695 33.602 67.708C33.602 64.634 35.719 63.155 37.923 63.155C39.373 63.155 40.852 63.735 41.606 64.808V62.981C41.606 61.473 40.678 60.545 39.025 60.545C37.807 60.545 36.618 61.038 35.574 62.053L34.269 59.675C35.748 58.254 37.865 57.645 39.663 57.645C42.708 57.645 45.115 59.008 45.115 62.604V72ZM39.257 69.999C40.214 69.999 41.142 69.506 41.606 68.665V66.867C41.142 66.026 40.214 65.504 39.257 65.504C37.952 65.504 37.082 66.432 37.082 67.766C37.082 69.1 37.952 69.999 39.257 69.999ZM66.2698 72H62.7898V62.72C62.7898 61.27 62.0938 60.719 60.9338 60.719C59.8028 60.719 58.8748 61.618 58.4108 62.459V72H54.9018V52.657H58.4108V59.82C59.1358 58.718 60.7018 57.645 62.4998 57.645C65.1098 57.645 66.2698 59.066 66.2698 61.415V72ZM81.0598 72H77.5798V62.72C77.5798 61.27 76.8838 60.719 75.7238 60.719C74.5928 60.719 73.6648 61.618 73.2008 62.459V72H69.6918V52.657H73.2008V59.82C73.9258 58.718 75.4918 57.645 77.2898 57.645C79.8998 57.645 81.0598 59.066 81.0598 61.415V72ZM86.5698 72.319C85.3518 72.319 84.3078 71.304 84.3078 70.086C84.3078 68.868 85.3518 67.824 86.5698 67.824C87.7878 67.824 88.8028 68.868 88.8028 70.086C88.8028 71.304 87.7878 72.319 86.5698 72.319ZM95.5585 72H92.0785V57.993H95.5585V59.907C96.3415 58.66 97.8785 57.645 99.3865 57.645V61.067C99.1545 61.009 98.8645 60.98 98.5455 60.98C97.4435 60.98 96.1385 61.705 95.5585 62.662V72ZM112.997 72H109.517V70.231C108.763 71.333 107.226 72.348 105.399 72.348C102.818 72.348 101.658 70.927 101.658 68.578V57.993H105.138V67.244C105.138 68.723 105.834 69.274 106.994 69.274C108.125 69.274 109.024 68.433 109.517 67.563V57.993H112.997V72Z" fill="white"/>
  <path d="M119.646 59.827L122.633 59.827L126.258 65.047L122.633 70.18L119.646 70.18L123.271 65.047L119.646 59.827ZM124.547 59.827L127.505 59.827L131.13 65.047L127.505 70.18L124.547 70.18L128.172 65.047L124.547 59.827Z" fill="white"/>
  </svg>
  