<svg width="347" height="148" viewBox="0 0 347 148" fill="none" xmlns="http://www.w3.org/2000/svg">
  <g filter="url(#filter0_d_2002_1336)">
  <rect x="17.7644" y="11.0199" width="311.218" height="112.732" rx="24.4806" fill="white" shape-rendering="crispEdges"/>
  <path d="M52.9727 34.1522L57.8184 43.9691L68.6546 45.5529L60.8137 53.19L62.6641 63.9791L52.9727 58.8825L43.2814 63.9791L45.1318 53.19L37.2909 45.5529L48.1271 43.9691L52.9727 34.1522Z" fill="#FF9900" stroke="#FF9900" stroke-width="3.13637" stroke-linecap="round" stroke-linejoin="round"/>
  <path d="M95.3136 34.1521L100.159 43.9689L110.995 45.5528L103.154 53.1899L105.005 63.979L95.3136 58.8824L85.6222 63.979L87.4726 53.1899L79.6317 45.5528L90.4679 43.9689L95.3136 34.1521Z" fill="#FF9900" stroke="#FF9900" stroke-width="3.13637" stroke-linecap="round" stroke-linejoin="round"/>
  <path d="M137.655 34.1521L142.5 43.9689L153.336 45.5528L145.495 53.1899L147.346 63.979L137.655 58.8824L127.963 63.979L129.814 53.1899L121.973 45.5528L132.809 43.9689L137.655 34.1521Z" fill="#FF9900" stroke="#FF9900" stroke-width="3.13637" stroke-linecap="round" stroke-linejoin="round"/>
  <path d="M179.996 34.1521L184.841 43.9689L195.677 45.5528L187.837 53.1899L189.687 63.979L179.996 58.8824L170.304 63.979L172.155 53.1899L164.314 45.5528L175.15 43.9689L179.996 34.1521Z" fill="#FF9900" stroke="#FF9900" stroke-width="3.13637" stroke-linecap="round" stroke-linejoin="round"/>
  <path fill-rule="evenodd" clip-rule="evenodd" d="M223.743 33.4579C223.479 32.9227 222.933 32.5839 222.337 32.5839C221.74 32.5839 221.195 32.9227 220.93 33.4579L216.449 42.5363L206.428 44.0011C205.837 44.0874 205.347 44.5014 205.163 45.0691C204.979 45.6368 205.133 46.2597 205.56 46.6761L212.811 53.7377L211.1 63.7138C210.999 64.3022 211.24 64.8968 211.723 65.2477C212.206 65.5985 212.847 65.6448 213.375 65.3669L222.337 60.6542L231.298 65.3669C231.826 65.6448 232.467 65.5985 232.95 65.2477C233.433 64.8968 233.674 64.3022 233.574 63.7138L231.862 53.7377L239.113 46.6761C239.54 46.2597 239.694 45.6368 239.51 45.0691C239.326 44.5014 238.836 44.0874 238.245 44.0011L228.224 42.5363L223.743 33.4579ZM222.337 37.695V57.3142C222.587 57.3142 222.838 57.3742 223.066 57.4944L229.945 61.1118L228.632 53.4549C228.545 52.946 228.713 52.4267 229.083 52.0664L234.649 46.6452L226.955 45.5206C226.445 45.446 226.004 45.1254 225.776 44.663L222.337 37.695Z" fill="#FF9900"/>
  <path d="M252.32 58.5734V54.6307L263.935 36.2803H267.223V41.8937H265.218L257.399 54.2832V54.4971H273.611V58.5734H252.32ZM265.378 63.6522V57.3706L265.432 55.6064V36.2803H270.109V63.6522H265.378ZM280.143 63.9463C279.333 63.9463 278.638 63.6611 278.058 63.0909C277.479 62.5206 277.194 61.8256 277.203 61.0059C277.194 60.204 277.479 59.5179 278.058 58.9477C278.638 58.3774 279.333 58.0923 280.143 58.0923C280.927 58.0923 281.609 58.3774 282.188 58.9477C282.776 59.5179 283.075 60.204 283.084 61.0059C283.075 61.5494 282.932 62.0439 282.656 62.4895C282.389 62.935 282.032 63.2914 281.587 63.5587C281.15 63.8171 280.669 63.9463 280.143 63.9463ZM288.146 63.6522L299.787 40.6106V40.4235H286.275V36.2803H304.919V40.517L293.291 63.6522H288.146Z" fill="black"/>
  <path d="M139.332 96.1749C138.62 96.1868 137.977 96.056 137.402 95.7824C136.827 95.5089 136.364 95.1284 136.012 94.6408C135.66 94.1532 135.463 93.5943 135.42 92.964L136.876 92.9397C136.942 93.5008 137.204 93.9616 137.663 94.322C138.126 94.6783 138.675 94.8511 139.31 94.8405C139.819 94.832 140.27 94.7052 140.663 94.46C141.059 94.2147 141.367 93.8819 141.586 93.4617C141.81 93.0373 141.917 92.5602 141.908 92.0305C141.899 91.4887 141.772 91.0075 141.526 90.5869C141.284 90.1622 140.955 89.8299 140.539 89.5902C140.122 89.3504 139.649 89.2329 139.119 89.2377C138.739 89.24 138.35 89.3052 137.952 89.4332C137.553 89.5571 137.226 89.7143 136.97 89.9046L135.56 89.7583L136.21 83.6318L142.664 83.524L142.686 84.8584L137.494 84.9451L137.119 88.6159L137.192 88.6147C137.443 88.4082 137.76 88.2351 138.142 88.0952C138.523 87.9554 138.923 87.882 139.339 87.875C140.099 87.8623 140.78 88.033 141.38 88.387C141.985 88.7368 142.462 89.2223 142.812 89.8434C143.166 90.4644 143.35 91.1773 143.363 91.982C143.377 92.7745 143.211 93.4851 142.865 94.1138C142.524 94.7383 142.047 95.2357 141.434 95.6059C140.821 95.9721 140.121 96.1617 139.332 96.1749ZM150.039 95.9961C149.238 96.0095 148.522 95.8839 147.891 95.6194C147.264 95.3548 146.762 94.981 146.386 94.4979C146.014 94.0106 145.806 93.4418 145.763 92.7913L147.291 92.7657C147.33 93.1655 147.474 93.509 147.721 93.796C147.969 94.0791 148.29 94.2962 148.685 94.4473C149.079 94.5985 149.515 94.6701 149.993 94.6621C150.526 94.6532 150.998 94.5523 151.407 94.3594C151.817 94.1665 152.136 93.9023 152.365 93.5668C152.594 93.2313 152.705 92.8452 152.697 92.4085C152.69 91.9516 152.57 91.5511 152.337 91.2072C152.105 90.8591 151.769 90.5897 151.329 90.3989C150.889 90.208 150.353 90.1179 149.723 90.1284L148.728 90.145L148.706 88.8106L149.7 88.794C150.194 88.7858 150.625 88.6896 150.994 88.5055C151.367 88.3213 151.656 88.0657 151.861 87.7387C152.07 87.4116 152.171 87.0297 152.163 86.593C152.156 86.1725 152.057 85.8081 151.866 85.4998C151.675 85.1916 151.408 84.9534 151.065 84.7852C150.727 84.6169 150.329 84.5366 149.872 84.5442C149.443 84.5514 149.04 84.637 148.663 84.801C148.289 84.9609 147.986 85.1905 147.752 85.4897C147.519 85.7848 147.395 86.1387 147.382 86.5515L145.926 86.5758C145.939 85.9244 146.126 85.351 146.486 84.8556C146.846 84.3561 147.32 83.9639 147.91 83.679C148.504 83.3941 149.159 83.2456 149.874 83.2337C150.643 83.2208 151.304 83.3655 151.86 83.6677C152.415 83.9658 152.844 84.3651 153.148 84.8656C153.451 85.3662 153.608 85.9096 153.618 86.4959C153.629 87.1955 153.455 87.795 153.096 88.2944C152.74 88.7938 152.25 89.1438 151.627 89.3443L151.628 89.4413C152.415 89.5576 153.033 89.881 153.483 90.4114C153.933 90.9378 154.164 91.5953 154.177 92.3838C154.188 93.0591 154.015 93.6687 153.656 94.2126C153.301 94.7525 152.81 95.1813 152.185 95.4991C151.559 95.817 150.844 95.9826 150.039 95.9961ZM165.33 95.7649C164.489 95.779 163.748 95.5912 163.106 95.2014C162.469 94.8117 161.966 94.2599 161.598 93.546C161.235 92.8322 161.045 91.994 161.029 91.0317C161.012 90.0612 161.174 89.2111 161.514 88.4814C161.858 87.7517 162.342 87.1814 162.966 86.7705C163.594 86.3596 164.328 86.1471 165.17 86.1331C166.011 86.119 166.75 86.3069 167.387 86.6967C168.029 87.0864 168.532 87.6402 168.895 88.3581C169.263 89.076 169.455 89.9202 169.472 90.8906C169.488 91.853 169.324 92.6971 168.98 93.4228C168.64 94.1484 168.156 94.7167 167.528 95.1276C166.904 95.5384 166.171 95.7509 165.33 95.7649ZM165.309 94.4791C165.948 94.4684 166.471 94.2959 166.878 93.9614C167.285 93.627 167.583 93.1913 167.772 92.6542C167.961 92.1171 168.051 91.5373 168.04 90.9145C168.03 90.2918 167.921 89.7132 167.714 89.1787C167.507 88.6442 167.194 88.2147 166.776 87.89C166.358 87.5653 165.83 87.4083 165.191 87.419C164.552 87.4296 164.029 87.6042 163.622 87.9427C163.215 88.2811 162.917 88.7209 162.728 89.262C162.539 89.8031 162.45 90.385 162.46 91.0077C162.47 91.6305 162.579 92.207 162.786 92.7375C162.993 93.2679 163.306 93.6935 163.724 94.0141C164.142 94.3348 164.67 94.4897 165.309 94.4791ZM170.383 87.5021L170.36 86.1677L177.93 86.0413L177.952 87.3757L174.895 87.4267L175.029 95.4088L173.597 95.4327L173.464 87.4506L170.383 87.5021ZM179.552 92.955L181.08 92.9294C181.12 93.3494 181.315 93.6657 181.666 93.8782C182.022 94.0907 182.481 94.1923 183.043 94.1829C183.617 94.1733 184.106 94.0478 184.511 93.8065C184.915 93.5611 185.113 93.1735 185.104 92.6438C185.099 92.3324 185.017 92.0628 184.86 91.8349C184.702 91.6029 184.483 91.4246 184.202 91.2998C183.921 91.1751 183.59 91.1159 183.21 91.1223L181.609 91.149L181.587 89.8631L183.188 89.8364C183.759 89.8269 184.177 89.6905 184.444 89.4271C184.714 89.1638 184.846 88.838 184.84 88.4498C184.833 88.0333 184.68 87.7022 184.38 87.4564C184.081 87.2066 183.66 87.0862 183.118 87.0952C182.573 87.1044 182.12 87.2353 181.76 87.488C181.4 87.7367 181.213 88.0533 181.199 88.4378L179.695 88.4629C179.703 87.9612 179.849 87.5159 180.134 87.1269C180.419 86.7338 180.81 86.424 181.308 86.1972C181.805 85.9665 182.378 85.8457 183.025 85.8349C183.68 85.8239 184.25 85.9297 184.735 86.1521C185.224 86.3705 185.603 86.6735 185.872 87.0614C186.146 87.4451 186.286 87.8836 186.295 88.377C186.303 88.9026 186.163 89.3297 185.873 89.6581C185.583 89.9865 185.217 90.2232 184.775 90.3681L184.776 90.4651C185.129 90.4835 185.436 90.5916 185.698 90.7895C185.964 90.9832 186.173 91.2406 186.324 91.5617C186.475 91.8787 186.553 92.2313 186.56 92.6195C186.569 93.1856 186.426 93.6814 186.13 94.107C185.833 94.5286 185.422 94.859 184.896 95.0984C184.37 95.3337 183.768 95.457 183.088 95.4683C182.429 95.4793 181.837 95.382 181.312 95.1765C180.787 94.9668 180.367 94.6725 180.053 94.2935C179.744 93.9104 179.576 93.4642 179.552 92.955ZM189.752 89.2171L192.421 89.1726C193.512 89.1543 194.352 89.4174 194.939 89.9617C195.527 90.506 195.828 91.2027 195.842 92.0519C195.851 92.6099 195.73 93.1195 195.479 93.5808C195.228 94.038 194.854 94.4062 194.357 94.6855C193.86 94.9608 193.248 95.1045 192.52 95.1167L188.614 95.1819L188.458 85.8654L189.89 85.8415L190.023 93.8236L192.498 93.7823C193.064 93.7728 193.526 93.6154 193.885 93.3101C194.244 93.0048 194.42 92.6176 194.412 92.1486C194.404 91.6553 194.215 91.256 193.846 90.9507C193.477 90.6454 193.009 90.4975 192.443 90.507L189.774 90.5515L189.752 89.2171ZM197.372 95.0356L197.217 85.7192L198.648 85.6952L198.804 95.0117L197.372 95.0356ZM201.424 94.9679L201.268 85.6515L205.077 85.5879C206.08 85.5711 206.881 85.7842 207.478 86.2273C208.076 86.6703 208.382 87.2638 208.394 88.0078C208.403 88.5739 208.243 89.0155 207.913 89.3324C207.582 89.6454 207.155 89.8608 206.631 89.9788C206.976 90.0215 207.311 90.1373 207.638 90.326C207.969 90.5146 208.244 90.7769 208.464 91.113C208.684 91.4451 208.798 91.8557 208.806 92.345C208.814 92.8221 208.7 93.2508 208.464 93.6309C208.227 94.011 207.885 94.314 207.435 94.5399C206.986 94.7658 206.446 94.8841 205.815 94.8946L201.424 94.9679ZM202.761 93.6351L205.793 93.5845C206.287 93.5762 206.671 93.4525 206.946 93.2133C207.221 92.9741 207.355 92.6524 207.348 92.248C207.34 91.7668 207.195 91.3911 206.911 91.1208C206.627 90.8464 206.239 90.7134 205.746 90.7216L202.713 90.7722L202.761 93.6351ZM202.692 89.5349L205.143 89.494C205.527 89.4876 205.855 89.4295 206.129 89.3198C206.402 89.206 206.609 89.0488 206.752 88.8483C206.898 88.6436 206.969 88.4038 206.964 88.1288C206.958 87.7366 206.789 87.432 206.457 87.2151C206.126 86.9941 205.673 86.8884 205.099 86.898L202.649 86.9389L202.692 89.5349ZM213.76 94.9803C213.17 94.9902 212.632 94.8879 212.147 94.6736C211.662 94.4552 211.275 94.136 210.984 93.7162C210.694 93.2923 210.544 92.7771 210.534 92.1705C210.525 91.6368 210.623 91.2023 210.828 90.8673C211.032 90.5281 211.309 90.2606 211.658 90.0647C212.006 89.8687 212.392 89.7207 212.815 89.6206C213.242 89.5164 213.671 89.4324 214.103 89.3686C214.668 89.2863 215.126 89.2241 215.477 89.1818C215.832 89.1354 216.09 89.0644 216.25 88.9687C216.414 88.8729 216.495 88.7098 216.491 88.4793L216.49 88.4308C216.48 87.8323 216.308 87.3701 215.975 87.0439C215.646 86.7178 215.152 86.5602 214.493 86.5712C213.81 86.5826 213.277 86.7412 212.893 87.0469C212.51 87.3526 212.243 87.6766 212.091 88.0189L210.724 87.5564C210.957 86.9862 211.273 86.54 211.672 86.2179C212.075 85.8916 212.516 85.6618 212.995 85.5284C213.478 85.3909 213.955 85.3182 214.424 85.3104C214.723 85.3054 215.067 85.3361 215.457 85.4024C215.85 85.4646 216.23 85.6018 216.598 85.8141C216.97 86.0263 217.28 86.3507 217.53 86.7874C217.78 87.2241 217.911 87.8125 217.924 88.5524L218.026 94.6906L216.595 94.7145L216.574 93.4529L216.501 93.4542C216.407 93.658 216.249 93.877 216.027 94.1113C215.804 94.3455 215.506 94.5467 215.133 94.7147C214.759 94.8827 214.302 94.9713 213.76 94.9803ZM213.957 93.6908C214.523 93.6813 214.998 93.5622 215.383 93.3333C215.771 93.1043 216.062 92.8123 216.254 92.4572C216.45 92.102 216.545 91.7304 216.539 91.3422L216.517 90.032C216.457 90.1058 216.325 90.1748 216.12 90.2389C215.919 90.2989 215.685 90.3533 215.419 90.4023C215.157 90.4471 214.9 90.4878 214.65 90.5243C214.404 90.5567 214.204 90.5844 214.051 90.6071C213.68 90.6619 213.333 90.7465 213.012 90.8611C212.694 90.9716 212.438 91.1356 212.243 91.3532C212.053 91.5668 211.96 91.8555 211.967 92.2194C211.975 92.7168 212.165 93.0897 212.537 93.3383C212.914 93.5828 213.387 93.7003 213.957 93.6908Z" fill="#0070FF"/>
  </g>
  <defs>
  <filter id="filter0_d_2002_1336" x="0.424017" y="0.30966" width="345.898" height="147.412" filterUnits="userSpaceOnUse" color-interpolation-filters="sRGB">
  <feFlood flood-opacity="0" result="BackgroundImageFix"/>
  <feColorMatrix in="SourceAlpha" type="matrix" values="0 0 0 0 0 0 0 0 0 0 0 0 0 0 0 0 0 0 127 0" result="hardAlpha"/>
  <feOffset dy="6.63015"/>
  <feGaussianBlur stdDeviation="8.67019"/>
  <feComposite in2="hardAlpha" operator="out"/>
  <feColorMatrix type="matrix" values="0 0 0 0 0.439216 0 0 0 0 0.564706 0 0 0 0 0.690196 0 0 0 0.26 0"/>
  <feBlend mode="normal" in2="BackgroundImageFix" result="effect1_dropShadow_2002_1336"/>
  <feBlend mode="normal" in="SourceGraphic" in2="effect1_dropShadow_2002_1336" result="shape"/>
  </filter>
  </defs>
  </svg>
  