<svg width="114" height="47" viewBox="0 0 114 47" fill="none" xmlns="http://www.w3.org/2000/svg">
  <path d="M12.865 12.564H10.7592V3.79582H12.9376V8.73358L15.6425 3.79582H17.8753V12.564H15.6788V7.42652L12.865 12.564ZM28.8945 3.79582H31.0729V10.6578H32.0532V14.7968H29.8566V12.564H20.0174V3.79582H22.1959V10.6578H24.4469V3.79582H26.6435V10.6578H28.8945V3.79582ZM35.5831 12.564H33.4773V3.79582H35.6557V8.73358L38.3606 3.79582H40.5934V12.564H38.3969V7.42652L35.5831 12.564ZM46.1847 12.564H43.9882V5.70194H42.0639V3.79582H48.1271V5.70194H46.1847V12.564ZM53.2135 12.7818C51.9791 12.7818 50.9867 12.3582 50.2364 11.5111C49.4981 10.6639 49.129 9.55048 49.129 8.17082C49.129 6.86376 49.486 5.77455 50.2001 4.90319C50.9141 4.01972 51.8641 3.57798 53.0502 3.57798C54.2362 3.57798 55.162 4.01367 55.8276 4.88503C56.4933 5.7443 56.8261 6.86982 56.8261 8.26158V8.8788H51.3256C51.374 9.50813 51.5797 10.0225 51.9428 10.4219C52.3059 10.8212 52.8081 11.0209 53.4495 11.0209C53.7763 11.0209 54.1152 10.9483 54.4661 10.8031C54.8171 10.6457 55.1136 10.434 55.3556 10.1677L56.3541 11.4748C55.5553 12.3461 54.5085 12.7818 53.2135 12.7818ZM54.7203 7.39022C54.6961 6.84561 54.5508 6.36757 54.2846 5.95609C54.0183 5.54461 53.5948 5.33887 53.0138 5.33887C52.4571 5.33887 52.0396 5.54461 51.7613 5.95609C51.495 6.36757 51.3498 6.84561 51.3256 7.39022H54.7203ZM66.8373 12.7818C65.8933 12.7818 65.1551 12.3401 64.6226 11.4566V15.9042H62.4442V3.79582H64.6226V4.90319C65.1793 4.01972 65.9175 3.57798 66.8373 3.57798C67.8297 3.57798 68.6164 3.98946 69.1973 4.81242C69.7903 5.62328 70.0868 6.74274 70.0868 8.17082C70.0868 9.58679 69.7903 10.7123 69.1973 11.5474C68.6164 12.3703 67.8297 12.7818 66.8373 12.7818ZM66.1293 10.8575C66.6739 10.8575 67.0915 10.6094 67.3819 10.1132C67.6845 9.61705 67.8358 8.96957 67.8358 8.17082C67.8358 7.38417 67.6845 6.74274 67.3819 6.24655C67.0915 5.75035 66.6739 5.50225 66.1293 5.50225C65.8389 5.50225 65.5484 5.59907 65.258 5.79271C64.9796 5.98635 64.7678 6.22839 64.6226 6.51885V9.82279C64.7678 10.1132 64.9796 10.3613 65.258 10.5671C65.5484 10.7607 65.8389 10.8575 66.1293 10.8575ZM78.4906 12.564H76.294V11.6926C76.052 12.0315 75.7191 12.2977 75.2956 12.4914C74.8841 12.685 74.4484 12.7818 73.9885 12.7818C73.2503 12.7818 72.6149 12.5216 72.0824 12.0012C71.5499 11.4808 71.2836 10.7728 71.2836 9.87725C71.2836 8.96957 71.5438 8.26764 72.0642 7.77144C72.5967 7.27524 73.2382 7.02715 73.9885 7.02715C74.4605 7.02715 74.9022 7.11791 75.3137 7.29945C75.7373 7.48098 76.0641 7.73513 76.294 8.0619V6.91823C76.294 6.44623 76.1488 6.07711 75.8583 5.81086C75.58 5.53251 75.1866 5.39333 74.6783 5.39333C73.8796 5.39333 73.1595 5.70799 72.5181 6.33731L71.7012 4.84873C72.5846 4.00156 73.7102 3.57798 75.0777 3.57798C76.1064 3.57798 76.9294 3.83213 77.5466 4.34043C78.1759 4.83662 78.4906 5.61722 78.4906 6.68223V12.564ZM74.8236 11.3114C75.5013 11.3114 75.9915 11.033 76.294 10.4763V9.3508C75.9793 8.78199 75.4892 8.49758 74.8236 8.49758C74.4121 8.49758 74.0793 8.63071 73.8251 8.89696C73.5831 9.15111 73.4621 9.48997 73.4621 9.91355C73.4621 10.3371 73.5831 10.676 73.8251 10.9301C74.0793 11.1843 74.4121 11.3114 74.8236 11.3114ZM82.8568 10.0951C83.1472 10.6034 83.5708 10.8575 84.1275 10.8575C84.6842 10.8575 85.1078 10.6034 85.3983 10.0951C85.7008 9.57469 85.8521 8.92721 85.8521 8.15266C85.8521 7.40232 85.7008 6.773 85.3983 6.2647C85.1078 5.7564 84.6842 5.50225 84.1275 5.50225C83.5708 5.50225 83.1472 5.7564 82.8568 6.2647C82.5663 6.773 82.4211 7.40232 82.4211 8.15266C82.4211 8.92721 82.5663 9.57469 82.8568 10.0951ZM84.1275 12.7818C82.8568 12.7818 81.8765 12.3219 81.1867 11.4021C80.5089 10.4703 80.1701 9.26003 80.1701 7.77144C80.1701 5.55671 80.4605 3.97736 81.0414 3.03338C81.6344 2.07729 82.6631 1.47218 84.1275 1.21803C85.1078 1.04859 85.598 0.794444 85.598 0.455578H87.8127C87.8127 1.70212 86.79 2.49482 84.7447 2.83369C83.1351 3.09994 82.2396 3.77162 82.058 4.84873C82.6389 4.00156 83.474 3.57798 84.5632 3.57798C85.6645 3.57798 86.5298 4.01972 87.1592 4.90319C87.7885 5.78666 88.1031 6.86982 88.1031 8.15266C88.1031 9.44761 87.7522 10.5429 87.0502 11.4384C86.3604 12.334 85.3862 12.7818 84.1275 12.7818ZM93.3326 12.7818C92.0982 12.7818 91.13 12.3401 90.4281 11.4566C89.7261 10.561 89.3752 9.46577 89.3752 8.17082C89.3752 6.87587 89.7261 5.78666 90.4281 4.90319C91.13 4.01972 92.0982 3.57798 93.3326 3.57798C94.5792 3.57798 95.5534 4.01972 96.2553 4.90319C96.9573 5.78666 97.3082 6.87587 97.3082 8.17082C97.3082 9.47787 96.9573 10.5731 96.2553 11.4566C95.5534 12.3401 94.5792 12.7818 93.3326 12.7818ZM93.3326 10.8575C93.9014 10.8575 94.3311 10.6034 94.6215 10.0951C94.912 9.58679 95.0572 8.94537 95.0572 8.17082C95.0572 7.39627 94.912 6.7609 94.6215 6.2647C94.3311 5.7564 93.9014 5.50225 93.3326 5.50225C92.7759 5.50225 92.3523 5.7564 92.0619 6.2647C91.7835 6.773 91.6444 7.40837 91.6444 8.17082C91.6444 8.94537 91.7835 9.58679 92.0619 10.0951C92.3523 10.6034 92.7759 10.8575 93.3326 10.8575ZM102.448 12.564H100.251V5.70194H98.327V3.79582H104.39V5.70194H102.448V12.564ZM105.646 15.995L105.973 14.0707C106.142 14.1554 106.33 14.1978 106.536 14.1978C107.02 14.1978 107.341 13.986 107.498 13.5624L107.788 12.7273L104.829 3.79582H107.153L108.914 9.93171L110.693 3.79582H113.017L109.586 14.0526C109.331 14.8271 108.974 15.3596 108.514 15.6501C108.055 15.9526 107.449 16.1099 106.699 16.1221C106.276 16.1221 105.925 16.0797 105.646 15.995ZM10.5595 32.995L10.8862 31.0707C11.0557 31.1554 11.2433 31.1978 11.449 31.1978C11.9331 31.1978 12.2538 30.986 12.4111 30.5624L12.7016 29.7273L9.74256 20.7958H12.0662L13.8271 26.9317L15.6061 20.7958H17.9298L14.4988 31.0526C14.2446 31.8271 13.8876 32.3596 13.4277 32.6501C12.9678 32.9526 12.3627 33.1099 11.6124 33.1221C11.1888 33.1221 10.8378 33.0797 10.5595 32.995ZM21.293 27.0951C21.5835 27.6034 22.007 27.8575 22.5638 27.8575C23.1205 27.8575 23.544 27.6034 23.8345 27.0951C24.1371 26.5747 24.2883 25.9272 24.2883 25.1527C24.2883 24.4023 24.1371 23.773 23.8345 23.2647C23.544 22.7564 23.1205 22.5023 22.5638 22.5023C22.007 22.5023 21.5835 22.7564 21.293 23.2647C21.0026 23.773 20.8573 24.4023 20.8573 25.1527C20.8573 25.9272 21.0026 26.5747 21.293 27.0951ZM22.5638 29.7818C21.293 29.7818 20.3127 29.3219 19.6229 28.4021C18.9452 27.4703 18.6063 26.26 18.6063 24.7714C18.6063 22.5567 18.8967 20.9774 19.4777 20.0334C20.0707 19.0773 21.0994 18.4722 22.5638 18.218C23.544 18.0486 24.0342 17.7944 24.0342 17.4556H26.2489C26.2489 18.7021 25.2263 19.4948 23.181 19.8337C21.5714 20.0999 20.6758 20.7716 20.4943 21.8487C21.0752 21.0016 21.9102 20.578 22.9994 20.578C24.1008 20.578 24.9661 21.0197 25.5954 21.9032C26.2247 22.7867 26.5394 23.8698 26.5394 25.1527C26.5394 26.4476 26.1884 27.5429 25.4865 28.4384C24.7966 29.334 23.8224 29.7818 22.5638 29.7818ZM31.7689 29.7818C30.5344 29.7818 29.5662 29.3401 28.8643 28.4566C28.1624 27.561 27.8114 26.4658 27.8114 25.1708C27.8114 23.8759 28.1624 22.7867 28.8643 21.9032C29.5662 21.0197 30.5344 20.578 31.7689 20.578C33.0154 20.578 33.9896 21.0197 34.6916 21.9032C35.3935 22.7867 35.7445 23.8759 35.7445 25.1708C35.7445 26.4779 35.3935 27.5731 34.6916 28.4566C33.9896 29.3401 33.0154 29.7818 31.7689 29.7818ZM31.7689 27.8575C32.3377 27.8575 32.7673 27.6034 33.0578 27.0951C33.3482 26.5868 33.4934 25.9454 33.4934 25.1708C33.4934 24.3963 33.3482 23.7609 33.0578 23.2647C32.7673 22.7564 32.3377 22.5023 31.7689 22.5023C31.2122 22.5023 30.7886 22.7564 30.4981 23.2647C30.2198 23.773 30.0806 24.4084 30.0806 25.1708C30.0806 25.9454 30.2198 26.5868 30.4981 27.0951C30.7886 27.6034 31.2122 27.8575 31.7689 27.8575ZM41.828 29.7818C40.884 29.7818 40.1458 29.3401 39.6133 28.4566V32.9042H37.4349V20.7958H39.6133V21.9032C40.17 21.0197 40.9082 20.578 41.828 20.578C42.8204 20.578 43.6071 20.9895 44.188 21.8124C44.781 22.6233 45.0775 23.7427 45.0775 25.1708C45.0775 26.5868 44.781 27.7123 44.188 28.5474C43.6071 29.3703 42.8204 29.7818 41.828 29.7818ZM41.12 27.8575C41.6646 27.8575 42.0822 27.6094 42.3726 27.1132C42.6752 26.617 42.8265 25.9696 42.8265 25.1708C42.8265 24.3842 42.6752 23.7427 42.3726 23.2465C42.0822 22.7504 41.6646 22.5023 41.12 22.5023C40.8296 22.5023 40.5391 22.5991 40.2487 22.7927C39.9703 22.9863 39.7585 23.2284 39.6133 23.5188V26.8228C39.7585 27.1132 39.9703 27.3613 40.2487 27.5671C40.5391 27.7607 40.8296 27.8575 41.12 27.8575ZM55.6234 20.7958H57.8018V27.6578H58.7821V31.7968H56.5855V29.564H46.7463V20.7958H48.9248V27.6578H51.1758V20.7958H53.3724V27.6578H55.6234V20.7958ZM62.312 29.564H60.2062V20.7958H62.3846V25.7336L65.0895 20.7958H67.3223V29.564H65.1258V24.4265L62.312 29.564ZM75.3099 31.7968V29.564H69.4645V20.7958H71.6429V27.6578H74.3841V20.7958H76.5806V27.6578H77.4883V31.7968H75.3099ZM82.5307 29.7818C81.2963 29.7818 80.3039 29.3582 79.5536 28.5111C78.8153 27.6639 78.4462 26.5505 78.4462 25.1708C78.4462 23.8638 78.8032 22.7746 79.5172 21.9032C80.2313 21.0197 81.1813 20.578 82.3673 20.578C83.5534 20.578 84.4792 21.0137 85.1448 21.885C85.8105 22.7443 86.1433 23.8698 86.1433 25.2616V25.8788H80.6428C80.6912 26.5081 80.8969 27.0225 81.26 27.4219C81.6231 27.8212 82.1253 28.0209 82.7667 28.0209C83.0935 28.0209 83.4324 27.9483 83.7833 27.8031C84.1343 27.6457 84.4308 27.434 84.6728 27.1677L85.6713 28.4748C84.8725 29.3461 83.8257 29.7818 82.5307 29.7818ZM84.0375 24.3902C84.0133 23.8456 83.868 23.3676 83.6018 22.9561C83.3355 22.5446 82.912 22.3389 82.331 22.3389C81.7743 22.3389 81.3568 22.5446 81.0784 22.9561C80.8122 23.3676 80.667 23.8456 80.6428 24.3902H84.0375ZM89.8741 29.564H87.7683V20.7958H89.9467V25.7336L92.6516 20.7958H94.8845V29.564H92.6879V24.4265L89.8741 29.564ZM94.0494 18.4359C93.3596 19.3435 92.4519 19.7974 91.3264 19.7974C90.2009 19.7974 89.2932 19.3435 88.6034 18.4359L89.6018 17.6371C90.0254 18.2422 90.6002 18.5448 91.3264 18.5448C92.0646 18.5448 92.6395 18.2422 93.051 17.6371L94.0494 18.4359ZM12.9376 46.564H10.7592V37.7958H12.9376V41.0635H15.6788V37.7958H17.8753V46.564H15.6788V42.9696H12.9376V46.564ZM26.7524 46.564H24.5558V45.6926C24.3138 46.0315 23.981 46.2977 23.5574 46.4914C23.1459 46.685 22.7102 46.7818 22.2503 46.7818C21.5121 46.7818 20.8767 46.5216 20.3442 46.0012C19.8117 45.4808 19.5455 44.7728 19.5455 43.8772C19.5455 42.9696 19.8057 42.2676 20.3261 41.7714C20.8586 41.2752 21.5 41.0271 22.2503 41.0271C22.7223 41.0271 23.1641 41.1179 23.5755 41.2994C23.9991 41.481 24.3259 41.7351 24.5558 42.0619V40.9182C24.5558 40.4462 24.4106 40.0771 24.1201 39.8109C23.8418 39.5325 23.4485 39.3933 22.9402 39.3933C22.1414 39.3933 21.4213 39.708 20.7799 40.3373L19.963 38.8487C20.8465 38.0016 21.972 37.578 23.3395 37.578C24.3682 37.578 25.1912 37.8321 25.8084 38.3404C26.4377 38.8366 26.7524 39.6172 26.7524 40.6822V46.564ZM23.0854 45.3114C23.7631 45.3114 24.2533 45.033 24.5558 44.4763V43.3508C24.2412 42.782 23.751 42.4976 23.0854 42.4976C22.6739 42.4976 22.3411 42.6307 22.0869 42.897C21.8449 43.1511 21.7239 43.49 21.7239 43.9136C21.7239 44.3371 21.8449 44.676 22.0869 44.9301C22.3411 45.1843 22.6739 45.3114 23.0854 45.3114ZM39.9949 46.564H37.8165V40.7548C37.8165 39.9198 37.4293 39.5023 36.6547 39.5023C36.3279 39.5023 36.0254 39.6112 35.747 39.829C35.4687 40.0348 35.2448 40.2889 35.0753 40.5915V46.564H32.8788V34.4556H35.0753V38.9395C35.3174 38.5643 35.6684 38.2436 36.1283 37.9774C36.6002 37.7111 37.1025 37.578 37.635 37.578C39.2083 37.578 39.9949 38.3646 39.9949 39.9379V46.564ZM49.2532 46.564H47.0748V40.7548C47.0748 39.9198 46.6875 39.5023 45.913 39.5023C45.5862 39.5023 45.2837 39.6112 45.0053 39.829C44.727 40.0348 44.5031 40.2889 44.3336 40.5915V46.564H42.1371V34.4556H44.3336V38.9395C44.5757 38.5643 44.9266 38.2436 45.3865 37.9774C45.8585 37.7111 46.3608 37.578 46.8933 37.578C48.4666 37.578 49.2532 38.3646 49.2532 39.9379V46.564ZM53.6827 46.3643C53.4164 46.6305 53.0897 46.7637 52.7024 46.7637C52.3151 46.7637 51.9823 46.6245 51.704 46.3461C51.4256 46.0678 51.2864 45.741 51.2864 45.3658C51.2864 44.9786 51.4256 44.6457 51.704 44.3674C51.9823 44.089 52.3151 43.9499 52.7024 43.9499C53.0776 43.9499 53.4043 44.089 53.6827 44.3674C53.961 44.6457 54.1002 44.9786 54.1002 45.3658C54.1002 45.7531 53.961 46.0859 53.6827 46.3643ZM58.3291 46.564H56.1507V37.7958H58.3291V38.994C58.5833 38.5946 58.9282 38.2618 59.3639 37.9955C59.8117 37.7172 60.2655 37.578 60.7254 37.578V39.7201C60.5802 39.6838 60.4047 39.6656 60.1989 39.6656C59.848 39.6656 59.491 39.7685 59.1279 39.9742C58.7769 40.1679 58.5107 40.416 58.3291 40.7185V46.564ZM69.2451 46.564H67.0666V45.4566C66.8125 45.8318 66.4555 46.1464 65.9956 46.4006C65.5357 46.6547 65.0334 46.7818 64.4888 46.7818C62.9276 46.7818 62.147 45.9952 62.147 44.4219V37.7958H64.3255V43.5868C64.3255 44.434 64.7127 44.8575 65.4873 44.8575C66.1408 44.8575 66.6673 44.5005 67.0666 43.7865V37.7958H69.2451V46.564ZM77.7958 42.1527L75.5266 45.4203H73.6749L75.9441 42.1527L73.6749 38.9395H75.5266L77.7958 42.1527ZM80.8637 42.1527L78.5945 45.4203H76.7247L78.9939 42.1527L76.7247 38.9395H78.5945L80.8637 42.1527Z" fill="white"/>
  <path d="M7.60363 11.267H5.73382L3.46463 7.99934L5.73382 4.78617H7.60363L5.33444 7.99934L7.60363 11.267ZM4.53569 11.267H2.68403L0.414844 7.99934L2.68403 4.78617H4.53569L2.2665 7.99934L4.53569 11.267Z" fill="white"/>
  </svg>
  