<svg width="409" height="77" viewBox="0 0 409 77" fill="none" xmlns="http://www.w3.org/2000/svg">
  <path d="M17.948 25.4084H13.5249L8.157 17.6786L13.5249 10.0777H17.948L12.5801 17.6786L17.948 25.4084ZM10.6906 25.4084H6.31045L0.942585 17.6786L6.31045 10.0777H10.6906L5.32276 17.6786L10.6906 25.4084Z" fill="white"/>
  <path d="M33.6088 29.1138H28.6274V8.37233H33.7805V20.0528L40.179 8.37233H45.461V29.1138H40.2649V16.9609L33.6088 29.1138ZM71.5274 8.37233H76.6805V24.6048H78.9995V34.3958H73.8034V29.1138H50.5283V8.37233H55.6814V24.6048H61.0064V8.37233H66.2025V24.6048H71.5274V8.37233ZM87.3495 29.1138H82.3681V8.37233H87.5213V20.0528L93.9198 8.37233H99.2018V29.1138H94.0057V16.9609L87.3495 29.1138ZM112.428 29.1138H107.232V12.8813H102.68V8.37233H117.023V12.8813H112.428V29.1138ZM129.055 29.6291C126.135 29.6291 123.787 28.6271 122.013 26.6231C120.266 24.6191 119.393 21.9852 119.393 18.7216C119.393 15.6297 120.238 13.0531 121.927 10.9918C123.616 8.90196 125.863 7.85701 128.669 7.85701C131.474 7.85701 133.664 8.88764 135.239 10.9489C136.814 12.9815 137.601 15.644 137.601 18.9363V20.3964H124.589C124.704 21.885 125.19 23.1018 126.049 24.0465C126.908 24.9912 128.096 25.4636 129.613 25.4636C130.386 25.4636 131.188 25.2918 132.018 24.9483C132.848 24.5761 133.55 24.0751 134.122 23.4453L136.484 26.5372C134.595 28.5985 132.118 29.6291 129.055 29.6291ZM132.619 16.875C132.562 15.5867 132.219 14.4559 131.589 13.4825C130.959 12.5092 129.957 12.0225 128.583 12.0225C127.266 12.0225 126.278 12.5092 125.62 13.4825C124.99 14.4559 124.646 15.5867 124.589 16.875H132.619ZM161.283 29.6291C159.05 29.6291 157.303 28.5841 156.044 26.4943V37.0153H150.891V8.37233H156.044V10.9918C157.361 8.90196 159.107 7.85701 161.283 7.85701C163.63 7.85701 165.491 8.83039 166.865 10.7771C168.268 12.6953 168.97 15.3434 168.97 18.7216C168.97 22.0711 168.268 24.7336 166.865 26.709C165.491 28.6557 163.63 29.6291 161.283 29.6291ZM159.608 25.0771C160.896 25.0771 161.884 24.4902 162.571 23.3165C163.287 22.1427 163.645 20.6111 163.645 18.7216C163.645 16.8607 163.287 15.3434 162.571 14.1696C161.884 12.9959 160.896 12.409 159.608 12.409C158.921 12.409 158.234 12.638 157.547 13.0961C156.888 13.5541 156.387 14.1267 156.044 14.8138V22.6294C156.387 23.3165 156.888 23.9034 157.547 24.39C158.234 24.8481 158.921 25.0771 159.608 25.0771ZM188.849 29.1138H183.653V27.0525C183.081 27.8541 182.293 28.4839 181.291 28.942C180.318 29.4001 179.287 29.6291 178.199 29.6291C176.453 29.6291 174.95 29.0136 173.69 27.7825C172.431 26.5515 171.801 24.8767 171.801 22.7582C171.801 20.6111 172.416 18.9506 173.647 17.7768C174.907 16.6031 176.424 16.0162 178.199 16.0162C179.316 16.0162 180.361 16.2309 181.334 16.6603C182.336 17.0897 183.109 17.6909 183.653 18.4639V15.7585C183.653 14.642 183.31 13.7688 182.622 13.139C181.964 12.4805 181.034 12.1513 179.831 12.1513C177.942 12.1513 176.238 12.8957 174.721 14.3843L172.789 10.863C174.878 8.85902 177.541 7.85701 180.776 7.85701C183.209 7.85701 185.156 8.45821 186.616 9.66062C188.105 10.8344 188.849 12.6809 188.849 15.2003V29.1138ZM180.175 26.1507C181.778 26.1507 182.937 25.4922 183.653 24.1753V21.5129C182.909 20.1673 181.749 19.4946 180.175 19.4946C179.201 19.4946 178.414 19.8095 177.813 20.4393C177.24 21.0405 176.954 21.8421 176.954 22.8441C176.954 23.8461 177.24 24.6477 177.813 25.2489C178.414 25.8501 179.201 26.1507 180.175 26.1507ZM199.178 23.2735C199.865 24.4759 200.867 25.0771 202.184 25.0771C203.501 25.0771 204.503 24.4759 205.19 23.2735C205.905 22.0425 206.263 20.5109 206.263 18.6786C206.263 16.9037 205.905 15.415 205.19 14.2126C204.503 13.0102 203.501 12.409 202.184 12.409C200.867 12.409 199.865 13.0102 199.178 14.2126C198.491 15.415 198.147 16.9037 198.147 18.6786C198.147 20.5109 198.491 22.0425 199.178 23.2735ZM202.184 29.6291C199.178 29.6291 196.859 28.5412 195.227 26.3654C193.624 24.161 192.822 21.2982 192.822 17.7768C192.822 12.5378 193.509 8.80176 194.883 6.56872C196.286 4.30706 198.72 2.87563 202.184 2.27443C204.503 1.87363 205.662 1.27243 205.662 0.470826H210.901C210.901 3.41958 208.482 5.29475 203.644 6.09635C199.836 6.72618 197.718 8.31507 197.288 10.863C198.662 8.85902 200.638 7.85701 203.214 7.85701C205.819 7.85701 207.866 8.90196 209.355 10.9918C210.844 13.0817 211.588 15.644 211.588 18.6786C211.588 21.7419 210.758 24.3328 209.097 26.4513C207.466 28.5698 205.161 29.6291 202.184 29.6291ZM223.959 29.6291C221.039 29.6291 218.748 28.5841 217.088 26.4943C215.427 24.3757 214.597 21.7848 214.597 18.7216C214.597 15.6583 215.427 13.0817 217.088 10.9918C218.748 8.90196 221.039 7.85701 223.959 7.85701C226.907 7.85701 229.212 8.90196 230.873 10.9918C232.533 13.0817 233.363 15.6583 233.363 18.7216C233.363 21.8135 232.533 24.4044 230.873 26.4943C229.212 28.5841 226.907 29.6291 223.959 29.6291ZM223.959 25.0771C225.304 25.0771 226.321 24.4759 227.008 23.2735C227.695 22.0711 228.038 20.5538 228.038 18.7216C228.038 16.8893 227.695 15.3863 227.008 14.2126C226.321 13.0102 225.304 12.409 223.959 12.409C222.642 12.409 221.64 13.0102 220.953 14.2126C220.294 15.415 219.965 16.918 219.965 18.7216C219.965 20.5538 220.294 22.0711 220.953 23.2735C221.64 24.4759 222.642 25.0771 223.959 25.0771ZM245.521 29.1138H240.325V12.8813H235.773V8.37233H250.116V12.8813H245.521V29.1138ZM253.087 37.23L253.86 32.678C254.261 32.8784 254.705 32.9786 255.191 32.9786C256.336 32.9786 257.095 32.4776 257.467 31.4756L258.154 29.5003L251.155 8.37233H256.651L260.817 22.887L265.025 8.37233H270.522L262.406 32.6351C261.805 34.4673 260.96 35.727 259.872 36.4141C258.784 37.1298 257.353 37.502 255.578 37.5306C254.576 37.5306 253.746 37.4304 253.087 37.23ZM28.155 76.23L28.928 71.678C29.3288 71.8784 29.7725 71.9786 30.2592 71.9786C31.4044 71.9786 32.163 71.4776 32.5352 70.4756L33.2223 68.5003L26.2226 47.3723H31.7193L35.8847 61.887L40.0932 47.3723H45.5899L37.4736 71.6351C36.8724 73.4673 36.0279 74.727 34.94 75.4141C33.8521 76.1298 32.4207 76.502 30.6457 76.5306C29.6437 76.5306 28.8135 76.4304 28.155 76.23ZM53.5457 62.2735C54.2328 63.4759 55.2348 64.0771 56.5517 64.0771C57.8686 64.0771 58.8706 63.4759 59.5577 62.2735C60.2734 61.0425 60.6313 59.5109 60.6313 57.6786C60.6313 55.9037 60.2734 54.415 59.5577 53.2126C58.8706 52.0102 57.8686 51.409 56.5517 51.409C55.2348 51.409 54.2328 52.0102 53.5457 53.2126C52.8586 54.415 52.5151 55.9037 52.5151 57.6786C52.5151 59.5109 52.8586 61.0425 53.5457 62.2735ZM56.5517 68.6291C53.5457 68.6291 51.2268 67.5412 49.595 65.3654C47.9918 63.161 47.1901 60.2982 47.1901 56.7768C47.1901 51.5378 47.8772 47.8018 49.2514 45.5687C50.6542 43.3071 53.0876 41.8756 56.5517 41.2744C58.8706 40.8736 60.0301 40.2724 60.0301 39.4708H65.2691C65.2691 42.4196 62.85 44.2948 58.0118 45.0964C54.2042 45.7262 52.0856 47.3151 51.6562 49.863C53.0304 47.859 55.0058 46.857 57.5823 46.857C60.1875 46.857 62.2345 47.902 63.7232 49.9918C65.2119 52.0817 65.9562 54.644 65.9562 57.6786C65.9562 60.7419 65.126 63.3328 63.4655 65.4513C61.8337 67.5698 59.5291 68.6291 56.5517 68.6291ZM78.3268 68.6291C75.4067 68.6291 73.1164 67.5841 71.4559 65.4943C69.7955 63.3757 68.9652 60.7848 68.9652 57.7216C68.9652 54.6583 69.7955 52.0817 71.4559 49.9918C73.1164 47.902 75.4067 46.857 78.3268 46.857C81.2755 46.857 83.5802 47.902 85.2406 49.9918C86.9011 52.0817 87.7313 54.6583 87.7313 57.7216C87.7313 60.8135 86.9011 63.4044 85.2406 65.4943C83.5802 67.5841 81.2755 68.6291 78.3268 68.6291ZM78.3268 64.0771C79.6723 64.0771 80.6887 63.4759 81.3758 62.2735C82.0628 61.0711 82.4064 59.5538 82.4064 57.7216C82.4064 55.8893 82.0628 54.3863 81.3758 53.2126C80.6887 52.0102 79.6723 51.409 78.3268 51.409C77.0099 51.409 76.0079 52.0102 75.3208 53.2126C74.6623 54.415 74.3331 55.918 74.3331 57.7216C74.3331 59.5538 74.6623 61.0711 75.3208 62.2735C76.0079 63.4759 77.0099 64.0771 78.3268 64.0771ZM102.122 68.6291C99.8892 68.6291 98.1428 67.5841 96.8832 65.4943V76.0153H91.73V47.3723H96.8832V49.9918C98.2001 47.902 99.9464 46.857 102.122 46.857C104.47 46.857 106.331 47.8304 107.705 49.7771C109.108 51.6953 109.809 54.3434 109.809 57.7216C109.809 61.0711 109.108 63.7336 107.705 65.709C106.331 67.6557 104.47 68.6291 102.122 68.6291ZM100.447 64.0771C101.736 64.0771 102.723 63.4902 103.411 62.3165C104.126 61.1427 104.484 59.6111 104.484 57.7216C104.484 55.8607 104.126 54.3434 103.411 53.1696C102.723 51.9959 101.736 51.409 100.447 51.409C99.7604 51.409 99.0733 51.638 98.3862 52.0961C97.7277 52.5541 97.2267 53.1267 96.8832 53.8138V61.6294C97.2267 62.3165 97.7277 62.9034 98.3862 63.39C99.0733 63.8481 99.7604 64.0771 100.447 64.0771ZM134.756 47.3723H139.909V63.6048H142.228V73.3958H137.032V68.1138H113.757V47.3723H118.91V63.6048H124.235V47.3723H129.431V63.6048H134.756V47.3723ZM150.578 68.1138H145.597V47.3723H150.75V59.0528L157.148 47.3723H162.43V68.1138H157.234V55.9609L150.578 68.1138ZM181.325 73.3958V68.1138H167.497V47.3723H172.651V63.6048H179.135V47.3723H184.331V63.6048H186.478V73.3958H181.325ZM198.406 68.6291C195.486 68.6291 193.139 67.6271 191.364 65.6231C189.617 63.6191 188.744 60.9852 188.744 57.7216C188.744 54.6297 189.589 52.0531 191.278 49.9918C192.967 47.902 195.214 46.857 198.02 46.857C200.825 46.857 203.016 47.8876 204.59 49.9489C206.165 51.9815 206.952 54.644 206.952 57.9363V59.3964H193.94C194.055 60.885 194.541 62.1018 195.4 63.0465C196.259 63.9912 197.447 64.4636 198.965 64.4636C199.738 64.4636 200.539 64.2918 201.369 63.9483C202.2 63.5761 202.901 63.0751 203.474 62.4453L205.835 65.5372C203.946 67.5985 201.47 68.6291 198.406 68.6291ZM201.971 55.875C201.913 54.5867 201.57 53.4559 200.94 52.4825C200.31 51.5092 199.308 51.0225 197.934 51.0225C196.617 51.0225 195.629 51.5092 194.971 52.4825C194.341 53.4559 193.998 54.5867 193.94 55.875H201.971ZM215.777 68.1138H210.796V47.3723H215.949V59.0528L222.348 47.3723H227.63V68.1138H222.434V55.9609L215.777 68.1138ZM225.654 41.7897C224.022 43.9369 221.875 45.0105 219.213 45.0105C216.55 45.0105 214.403 43.9369 212.771 41.7897L215.133 39.9003C216.135 41.3317 217.495 42.0474 219.213 42.0474C220.959 42.0474 222.319 41.3317 223.292 39.9003L225.654 41.7897ZM247.296 68.1138H242.143V47.3723H247.296V55.1021H253.78V47.3723H258.976V68.1138H253.78V59.6111H247.296V68.1138ZM279.975 68.1138H274.779V66.0525C274.207 66.8541 273.419 67.4839 272.417 67.942C271.444 68.4001 270.413 68.6291 269.326 68.6291C267.579 68.6291 266.076 68.0136 264.817 66.7825C263.557 65.5515 262.927 63.8767 262.927 61.7582C262.927 59.6111 263.543 57.9506 264.774 56.7768C266.033 55.6031 267.551 55.0162 269.326 55.0162C270.442 55.0162 271.487 55.2309 272.46 55.6603C273.462 56.0897 274.235 56.6909 274.779 57.4639V54.7585C274.779 53.642 274.436 52.7688 273.749 52.139C273.09 51.4805 272.16 51.1513 270.957 51.1513C269.068 51.1513 267.365 51.8957 265.847 53.3843L263.915 49.863C266.005 47.859 268.667 46.857 271.902 46.857C274.336 46.857 276.282 47.4582 277.742 48.6606C279.231 49.8344 279.975 51.6809 279.975 54.2003V68.1138ZM271.301 65.1507C272.904 65.1507 274.064 64.4922 274.779 63.1753V60.5129C274.035 59.1673 272.876 58.4946 271.301 58.4946C270.328 58.4946 269.54 58.8095 268.939 59.4393C268.367 60.0405 268.08 60.8421 268.08 61.8441C268.08 62.8461 268.367 63.6477 268.939 64.2489C269.54 64.8501 270.328 65.1507 271.301 65.1507ZM311.301 68.1138H306.148V54.372C306.148 52.3967 305.232 51.409 303.4 51.409C302.627 51.409 301.911 51.6666 301.253 52.1819C300.594 52.6686 300.065 53.2698 299.664 53.9855V68.1138H294.468V39.4708H299.664V50.0777C300.236 49.1902 301.067 48.4316 302.154 47.8018C303.271 47.1719 304.459 46.857 305.719 46.857C309.44 46.857 311.301 48.7179 311.301 52.4396V68.1138ZM333.202 68.1138H328.049V54.372C328.049 52.3967 327.133 51.409 325.301 51.409C324.528 51.409 323.812 51.6666 323.154 52.1819C322.495 52.6686 321.965 53.2698 321.565 53.9855V68.1138H316.369V39.4708H321.565V50.0777C322.137 49.1902 322.967 48.4316 324.055 47.8018C325.172 47.1719 326.36 46.857 327.62 46.857C331.341 46.857 333.202 48.7179 333.202 52.4396V68.1138ZM343.68 67.6414C343.05 68.2712 342.277 68.5861 341.361 68.5861C340.445 68.5861 339.658 68.2569 339 67.5985C338.341 66.94 338.012 66.167 338.012 65.2795C338.012 64.3634 338.341 63.5761 339 62.9177C339.658 62.2592 340.445 61.93 341.361 61.93C342.249 61.93 343.022 62.2592 343.68 62.9177C344.339 63.5761 344.668 64.3634 344.668 65.2795C344.668 66.1957 344.339 66.9829 343.68 67.6414ZM354.672 68.1138H349.519V47.3723H354.672V50.2066C355.273 49.2618 356.089 48.4745 357.119 47.8447C358.179 47.1862 359.252 46.857 360.34 46.857V51.9243C359.997 51.8384 359.581 51.7955 359.095 51.7955C358.265 51.7955 357.42 52.0388 356.561 52.5255C355.731 52.9835 355.101 53.5704 354.672 54.2861V68.1138ZM380.494 68.1138H375.341V65.4943C374.739 66.3817 373.895 67.1261 372.807 67.7273C371.719 68.3285 370.531 68.6291 369.243 68.6291C365.55 68.6291 363.703 66.7682 363.703 63.0465V47.3723H368.856V61.0711C368.856 63.0751 369.772 64.0771 371.605 64.0771C373.151 64.0771 374.396 63.2326 375.341 61.5435V47.3723H380.494V68.1138Z" fill="white"/>
  <path d="M391.669 49.7435L396.092 49.7435L401.46 57.4732L396.092 65.0741L391.669 65.0741L397.037 57.4732L391.669 49.7435ZM398.926 49.7435L403.307 49.7435L408.674 57.4732L403.307 65.0741L398.926 65.0741L404.294 57.4732L398.926 49.7435Z" fill="white"/>
  </svg>
  