<svg width="447" height="457" viewBox="0 0 447 457" fill="none" xmlns="http://www.w3.org/2000/svg">
  <path d="M161.005 94.7115C174.018 83.4932 187.208 73.1146 200.435 63.6765C215.159 53.1635 230.56 43.4567 246.068 34.959C264.214 25.0506 283.287 16.4522 302.253 10.2721C325.64 2.64765 349.918 -1.55081 372.306 0.531627C401.825 3.25223 425.033 16.5194 437.44 41.9117C453.661 75.1635 449.953 125.814 420.827 188.522C387.065 261.206 327.03 334.057 253.233 388.537C186.424 437.843 123.465 460.683 75.1944 456.518C38.5813 453.361 17.191 434.82 7.17319 409.965C-0.527327 390.955 -1.56119 368.149 1.86126 344.772C4.60635 325.963 10.2391 306.314 17.9753 286.9C24.4994 270.476 32.699 253.716 42.289 236.989C50.7738 222.177 59.936 208.104 69.3478 194.937C78.1178 182.678 87.4939 170.687 97.1195 159.301C106.496 148.217 116.513 137.234 126.888 126.687C137.405 115.973 148.848 105.224 161.005 94.7115Z" fill="#D6001C"/>
  </svg>
  