<svg width="381" height="72" viewBox="0 0 381 72" fill="none" xmlns="http://www.w3.org/2000/svg">
  <path d="M16.4037 23.805H12.2801L7.27582 16.5988L12.2801 9.51267H16.4037L11.3994 16.5988L16.4037 23.805ZM9.63786 23.805H5.55434L0.550033 16.5988L5.55434 9.51267H9.63786L4.63355 16.5988L9.63786 23.805Z" fill="white"/>
  <path d="M31.0039 27.3271H26.3599V7.9905H31.164V18.8799L37.1291 7.9905H42.0534V27.3271H37.2092V15.9974L31.0039 27.3271ZM66.3543 7.9905H71.1584V23.1235H73.3203V32.2514H68.4761V27.3271H46.7774V7.9905H51.5816V23.1235H56.5458V7.9905H61.39V23.1235H66.3543V7.9905ZM81.1048 27.3271H76.4608V7.9905H81.2649V18.8799L87.2301 7.9905H92.1543V27.3271H87.3101V15.9974L81.1048 27.3271ZM104.485 27.3271H99.6408V12.1941H95.3971V7.9905H108.769V12.1941H104.485V27.3271ZM119.986 27.8076C117.263 27.8076 115.075 26.8734 113.42 25.0051C111.792 23.1369 110.978 20.6814 110.978 17.6388C110.978 14.7563 111.765 12.3543 113.34 10.4326C114.915 8.48426 117.01 7.51009 119.625 7.51009C122.241 7.51009 124.283 8.47092 125.751 10.3926C127.219 12.2875 127.953 14.7697 127.953 17.839V19.2002H115.822C115.929 20.588 116.383 21.7223 117.183 22.6031C117.984 23.4838 119.092 23.9242 120.506 23.9242C121.227 23.9242 121.974 23.7641 122.748 23.4438C123.522 23.0968 124.176 22.6298 124.71 22.0426L126.912 24.9251C125.15 26.8467 122.842 27.8076 119.986 27.8076ZM123.309 15.9173C123.255 14.7163 122.935 13.6621 122.348 12.7546C121.761 11.8472 120.826 11.3934 119.545 11.3934C118.318 11.3934 117.397 11.8472 116.783 12.7546C116.196 13.6621 115.876 14.7163 115.822 15.9173H123.309ZM150.031 27.8076C147.949 27.8076 146.321 26.8334 145.146 24.885V34.6935H140.342V7.9905H145.146V10.4326C146.374 8.48426 148.002 7.51009 150.031 7.51009C152.219 7.51009 153.954 8.41754 155.235 10.2324C156.543 12.0206 157.197 14.4894 157.197 17.6388C157.197 20.7615 156.543 23.2436 155.235 25.0852C153.954 26.9001 152.219 27.8076 150.031 27.8076ZM148.469 23.5639C149.67 23.5639 150.591 23.0168 151.232 21.9225C151.899 20.8282 152.233 19.4003 152.233 17.6388C152.233 15.904 151.899 14.4894 151.232 13.3952C150.591 12.3009 149.67 11.7537 148.469 11.7537C147.829 11.7537 147.188 11.9673 146.548 12.3943C145.934 12.8213 145.467 13.3551 145.146 13.9957V21.2819C145.467 21.9225 145.934 22.4696 146.548 22.9234C147.188 23.3504 147.829 23.5639 148.469 23.5639ZM175.73 27.3271H170.886V25.4055C170.352 26.1528 169.618 26.74 168.684 27.167C167.776 27.594 166.816 27.8076 165.801 27.8076C164.173 27.8076 162.772 27.2337 161.598 26.0861C160.423 24.9384 159.836 23.3771 159.836 21.402C159.836 19.4003 160.41 17.8523 161.558 16.7581C162.732 15.6638 164.147 15.1166 165.801 15.1166C166.842 15.1166 167.817 15.3168 168.724 15.7172C169.658 16.1175 170.379 16.678 170.886 17.3986V14.8764C170.886 13.8355 170.566 13.0215 169.925 12.4343C169.311 11.8205 168.444 11.5135 167.323 11.5135C165.561 11.5135 163.973 12.2075 162.559 13.5953L160.757 10.3125C162.705 8.44423 165.188 7.51009 168.204 7.51009C170.472 7.51009 172.287 8.07057 173.648 9.19154C175.036 10.2858 175.73 12.0073 175.73 14.356V27.3271ZM167.643 24.5648C169.138 24.5648 170.219 23.9509 170.886 22.7232V20.241C170.192 18.9866 169.111 18.3594 167.643 18.3594C166.736 18.3594 166.002 18.653 165.441 19.2402C164.907 19.8007 164.64 20.548 164.64 21.4821C164.64 22.4163 164.907 23.1636 165.441 23.724C166.002 24.2845 166.736 24.5648 167.643 24.5648ZM185.359 21.8825C185.999 23.0034 186.934 23.5639 188.161 23.5639C189.389 23.5639 190.323 23.0034 190.964 21.8825C191.631 20.7348 191.965 19.3069 191.965 17.5988C191.965 15.944 191.631 14.5562 190.964 13.4352C190.323 12.3142 189.389 11.7537 188.161 11.7537C186.934 11.7537 185.999 12.3142 185.359 13.4352C184.718 14.5562 184.398 15.944 184.398 17.5988C184.398 19.3069 184.718 20.7348 185.359 21.8825ZM188.161 27.8076C185.359 27.8076 183.197 26.7934 181.676 24.7649C180.181 22.7098 179.434 20.0409 179.434 16.7581C179.434 11.8738 180.074 8.39085 181.355 6.30905C182.663 4.20057 184.932 2.86609 188.161 2.30561C190.323 1.93195 191.404 1.37147 191.404 0.62416H196.288C196.288 3.37319 194.033 5.12137 189.522 5.86868C185.973 6.45585 183.998 7.93712 183.597 10.3125C184.878 8.44423 186.72 7.51009 189.122 7.51009C191.551 7.51009 193.459 8.48426 194.847 10.4326C196.235 12.3809 196.929 14.7697 196.929 17.5988C196.929 20.4546 196.155 22.87 194.607 24.845C193.086 26.82 190.937 27.8076 188.161 27.8076ZM208.462 27.8076C205.739 27.8076 203.604 26.8334 202.056 24.885C200.508 22.91 199.734 20.4946 199.734 17.6388C199.734 14.783 200.508 12.3809 202.056 10.4326C203.604 8.48426 205.739 7.51009 208.462 7.51009C211.211 7.51009 213.359 8.48426 214.907 10.4326C216.455 12.3809 217.229 14.783 217.229 17.6388C217.229 20.5213 216.455 22.9367 214.907 24.885C213.359 26.8334 211.211 27.8076 208.462 27.8076ZM208.462 23.5639C209.716 23.5639 210.664 23.0034 211.304 21.8825C211.945 20.7615 212.265 19.3469 212.265 17.6388C212.265 15.9307 211.945 14.5295 211.304 13.4352C210.664 12.3142 209.716 11.7537 208.462 11.7537C207.234 11.7537 206.3 12.3142 205.659 13.4352C205.045 14.5562 204.738 15.9574 204.738 17.6388C204.738 19.3469 205.045 20.7615 205.659 21.8825C206.3 23.0034 207.234 23.5639 208.462 23.5639ZM228.564 27.3271H223.719V12.1941H219.476V7.9905H232.847V12.1941H228.564V27.3271ZM235.617 34.8937L236.338 30.65C236.711 30.8368 237.125 30.9303 237.579 30.9303C238.646 30.9303 239.354 30.4632 239.701 29.529L240.341 27.6875L233.816 7.9905H238.94L242.823 21.5222L246.747 7.9905H251.871L244.305 30.61C243.744 32.3181 242.957 33.4925 241.943 34.133C240.928 34.8002 239.594 35.1472 237.939 35.1739C237.005 35.1739 236.231 35.0805 235.617 34.8937ZM25.9195 70.8937L26.6401 66.65C27.0138 66.8368 27.4274 66.9303 27.8812 66.9303C28.9488 66.9303 29.656 66.4632 30.003 65.529L30.6435 63.6875L24.1179 43.9905H29.2423L33.1257 57.5222L37.0491 43.9905H42.1735L34.607 66.61C34.0465 68.3181 33.2591 69.4925 32.2449 70.133C31.2307 70.8002 29.8962 71.1472 28.2415 71.1739C27.3073 71.1739 26.5333 71.0805 25.9195 70.8937ZM49.5905 57.8825C50.231 59.0034 51.1652 59.5639 52.3929 59.5639C53.6206 59.5639 54.5548 59.0034 55.1953 57.8825C55.8625 56.7348 56.1962 55.3069 56.1962 53.5988C56.1962 51.944 55.8625 50.5562 55.1953 49.4352C54.5548 48.3142 53.6206 47.7537 52.3929 47.7537C51.1652 47.7537 50.231 48.3142 49.5905 49.4352C48.9499 50.5562 48.6297 51.944 48.6297 53.5988C48.6297 55.3069 48.9499 56.7348 49.5905 57.8825ZM52.3929 63.8076C49.5905 63.8076 47.4286 62.7934 45.9073 60.7649C44.4127 58.7098 43.6654 56.0409 43.6654 52.7581C43.6654 47.8738 44.3059 44.3908 45.587 42.3091C46.8948 40.2006 49.1634 38.8661 52.3929 38.3056C54.5548 37.932 55.6357 37.3715 55.6357 36.6242H60.5199C60.5199 39.3732 58.2646 41.1214 53.7541 41.8687C50.2043 42.4558 48.2293 43.9371 47.829 46.3125C49.1101 44.4442 50.9517 43.5101 53.3537 43.5101C55.7825 43.5101 57.6908 44.4843 59.0786 46.4326C60.4665 48.3809 61.1604 50.7697 61.1604 53.5988C61.1604 56.4546 60.3864 58.87 58.8384 60.845C57.3171 62.82 55.1686 63.8076 52.3929 63.8076ZM72.6932 63.8076C69.9708 63.8076 67.8357 62.8334 66.2877 60.885C64.7397 58.91 63.9657 56.4946 63.9657 53.6388C63.9657 50.783 64.7397 48.3809 66.2877 46.4326C67.8357 44.4843 69.9708 43.5101 72.6932 43.5101C75.4422 43.5101 77.5907 44.4843 79.1387 46.4326C80.6867 48.3809 81.4607 50.783 81.4607 53.6388C81.4607 56.5213 80.6867 58.9367 79.1387 60.885C77.5907 62.8334 75.4422 63.8076 72.6932 63.8076ZM72.6932 59.5639C73.9476 59.5639 74.8951 59.0034 75.5356 57.8825C76.1762 56.7615 76.4965 55.3469 76.4965 53.6388C76.4965 51.9307 76.1762 50.5295 75.5356 49.4352C74.8951 48.3142 73.9476 47.7537 72.6932 47.7537C71.4655 47.7537 70.5313 48.3142 69.8908 49.4352C69.2769 50.5562 68.97 51.9574 68.97 53.6388C68.97 55.3469 69.2769 56.7615 69.8908 57.8825C70.5313 59.0034 71.4655 59.5639 72.6932 59.5639ZM94.877 63.8076C92.7952 63.8076 91.1671 62.8334 89.9928 60.885V70.6935H85.1886V43.9905H89.9928V46.4326C91.2205 44.4843 92.8486 43.5101 94.877 43.5101C97.0655 43.5101 98.8003 44.4175 100.081 46.2324C101.389 48.0206 102.043 50.4894 102.043 53.6388C102.043 56.7615 101.389 59.2436 100.081 61.0852C98.8003 62.9001 97.0655 63.8076 94.877 63.8076ZM93.3156 59.5639C94.5167 59.5639 95.4374 59.0168 96.078 57.9225C96.7452 56.8282 97.0789 55.4003 97.0789 53.6388C97.0789 51.904 96.7452 50.4894 96.078 49.3952C95.4374 48.3009 94.5167 47.7537 93.3156 47.7537C92.6751 47.7537 92.0345 47.9673 91.394 48.3943C90.7801 48.8213 90.313 49.3551 89.9928 49.9957V57.2819C90.313 57.9225 90.7801 58.4696 91.394 58.9234C92.0345 59.3504 92.6751 59.5639 93.3156 59.5639ZM125.3 43.9905H130.104V59.1235H132.266V68.2514H127.422V63.3271H105.723V43.9905H110.528V59.1235H115.492V43.9905H120.336V59.1235H125.3V43.9905ZM140.051 63.3271H135.407V43.9905H140.211V54.8799L146.176 43.9905H151.1V63.3271H146.256V51.9974L140.051 63.3271ZM168.716 68.2514V63.3271H155.824V43.9905H160.629V59.1235H166.674V43.9905H171.518V59.1235H173.52V68.2514H168.716ZM184.64 63.8076C181.918 63.8076 179.729 62.8734 178.074 61.0051C176.446 59.1369 175.632 56.6814 175.632 53.6388C175.632 50.7563 176.419 48.3543 177.994 46.4326C179.569 44.4843 181.664 43.5101 184.28 43.5101C186.895 43.5101 188.937 44.4709 190.405 46.3926C191.873 48.2875 192.607 50.7697 192.607 53.839V55.2002H180.476C180.583 56.588 181.037 57.7223 181.837 58.6031C182.638 59.4838 183.746 59.9242 185.16 59.9242C185.881 59.9242 186.628 59.7641 187.402 59.4438C188.176 59.0968 188.83 58.6298 189.364 58.0426L191.566 60.9251C189.804 62.8467 187.496 63.8076 184.64 63.8076ZM187.963 51.9173C187.909 50.7163 187.589 49.6621 187.002 48.7546C186.415 47.8472 185.481 47.3934 184.199 47.3934C182.972 47.3934 182.051 47.8472 181.437 48.7546C180.85 49.6621 180.53 50.7163 180.476 51.9173H187.963ZM200.834 63.3271H196.19V43.9905H200.995V54.8799L206.96 43.9905H211.884V63.3271H207.04V51.9974L200.834 63.3271ZM210.042 38.786C208.521 40.7877 206.519 41.7886 204.037 41.7886C201.555 41.7886 199.553 40.7877 198.032 38.786L200.234 37.0245C201.168 38.359 202.436 39.0262 204.037 39.0262C205.665 39.0262 206.933 38.359 207.84 37.0245L210.042 38.786ZM230.218 63.3271H225.414V43.9905H230.218V51.1967H236.263V43.9905H241.108V63.3271H236.263V55.4003H230.218V63.3271ZM260.684 63.3271H255.84V61.4055C255.306 62.1528 254.572 62.74 253.638 63.167C252.731 63.594 251.77 63.8076 250.756 63.8076C249.128 63.8076 247.727 63.2337 246.552 62.0861C245.378 60.9384 244.791 59.3771 244.791 57.402C244.791 55.4003 245.365 53.8523 246.512 52.7581C247.687 51.6638 249.101 51.1166 250.756 51.1166C251.797 51.1166 252.771 51.3168 253.678 51.7172C254.612 52.1175 255.333 52.678 255.84 53.3986V50.8764C255.84 49.8355 255.52 49.0215 254.879 48.4343C254.266 47.8205 253.398 47.5135 252.277 47.5135C250.516 47.5135 248.928 48.2075 247.513 49.5953L245.711 46.3125C247.66 44.4442 250.142 43.5101 253.158 43.5101C255.427 43.5101 257.241 44.0706 258.603 45.1915C259.99 46.2858 260.684 48.0073 260.684 50.356V63.3271ZM252.597 60.5648C254.092 60.5648 255.173 59.9509 255.84 58.7232V56.241C255.146 54.9866 254.065 54.3594 252.597 54.3594C251.69 54.3594 250.956 54.653 250.396 55.2402C249.862 55.8007 249.595 56.548 249.595 57.4821C249.595 58.4163 249.862 59.1636 250.396 59.724C250.956 60.2845 251.69 60.5648 252.597 60.5648ZM289.889 63.3271H285.084V50.5161C285.084 48.6745 284.23 47.7537 282.522 47.7537C281.802 47.7537 281.134 47.9939 280.521 48.4744C279.907 48.9281 279.413 49.4886 279.039 50.1558V63.3271H274.195V36.6242H279.039V46.5127C279.573 45.6853 280.347 44.978 281.361 44.3908C282.402 43.8037 283.51 43.5101 284.684 43.5101C288.154 43.5101 289.889 45.2449 289.889 48.7146V63.3271ZM310.306 63.3271H305.502V50.5161C305.502 48.6745 304.648 47.7537 302.94 47.7537C302.219 47.7537 301.552 47.9939 300.938 48.4744C300.324 48.9281 299.83 49.4886 299.457 50.1558V63.3271H294.613V36.6242H299.457V46.5127C299.991 45.6853 300.765 44.978 301.779 44.3908C302.82 43.8037 303.927 43.5101 305.102 43.5101C308.571 43.5101 310.306 45.2449 310.306 48.7146V63.3271ZM320.075 62.8868C319.487 63.4739 318.767 63.7675 317.913 63.7675C317.059 63.7675 316.325 63.4606 315.711 62.8467C315.097 62.2329 314.79 61.5123 314.79 60.6849C314.79 59.8308 315.097 59.0968 315.711 58.483C316.325 57.8691 317.059 57.5622 317.913 57.5622C318.74 57.5622 319.461 57.8691 320.075 58.483C320.688 59.0968 320.995 59.8308 320.995 60.6849C320.995 61.5389 320.688 62.2729 320.075 62.8868ZM330.322 63.3271H325.517V43.9905H330.322V46.6328C330.882 45.752 331.643 45.0181 332.603 44.4309C333.591 43.817 334.592 43.5101 335.606 43.5101V48.2342C335.286 48.1541 334.899 48.1141 334.445 48.1141C333.671 48.1141 332.884 48.3409 332.083 48.7946C331.309 49.2217 330.722 49.7688 330.322 50.4361V63.3271ZM354.395 63.3271H349.591V60.885C349.03 61.7124 348.243 62.4064 347.229 62.9668C346.214 63.5273 345.107 63.8076 343.906 63.8076C340.463 63.8076 338.741 62.0727 338.741 58.6031V43.9905H343.545V56.7615C343.545 58.6298 344.399 59.5639 346.108 59.5639C347.549 59.5639 348.71 58.7766 349.591 57.2019V43.9905H354.395V63.3271Z" fill="white"/>
  <path d="M364.992 48.1569L369.116 48.1569L374.12 55.3631L369.116 62.4492L364.992 62.4492L369.997 55.3631L364.992 48.1569ZM371.758 48.1569L375.842 48.1569L380.846 55.3631L375.842 62.4492L371.758 62.4492L376.762 55.3631L371.758 48.1569Z" fill="white"/>
  </svg>
  