<svg
  viewBox="0 0 364 155"
  fill="none"
  xmlns="http://www.w3.org/2000/svg"
>
  <path
    d="M363.765 9.99959e-06L33.9784 9.34038e-07C22.0848 6.07094e-07 16.138 4.43622e-07 11.5953 2.31464C7.59942 4.35065 4.35065 7.59942 2.31464 11.5953C6.9519e-07 16.138 6.9519e-07 22.0848 6.9519e-07 33.9784V120.622C6.9519e-07 132.515 6.95189e-07 138.462 2.31464 143.005C4.35065 147.001 7.59942 150.249 11.5953 152.285C16.138 154.6 22.0848 154.6 33.9784 154.6H329.786C341.68 154.6 347.627 154.6 352.169 152.285C356.165 150.249 359.414 147.001 361.45 143.005C363.765 138.462 363.765 132.515 363.765 120.622L363.765 9.99959e-06Z"
    fill="#D6001C"
  />
</svg>