<svg width="36" height="36" viewBox="0 0 36 36" fill="none" xmlns="http://www.w3.org/2000/svg">
  <path
    d="M18 36C27.9412 36 36 27.9412 36 18C36 8.05875 27.9412 0 18 0C8.05875 0 0 8.05875 0 18C0 27.9412 8.05875 36 18 36Z"
    fill="#D6001C" />
  <path
    d="M10.1282 9.35547V15.4682C11.0708 14.3586 12.2006 13.8 13.5109 13.8C14.1857 13.8 14.7901 13.9273 15.3322 14.1796C15.8759 14.4304 16.2823 14.7524 16.5568 15.1432C16.8328 15.5378 17.0194 15.9698 17.1202 16.446C17.2203 16.92 17.2704 17.6575 17.2704 18.6578V25.1936H14.3419V19.307C14.3419 18.139 14.2888 17.3992 14.1774 17.0847C14.0729 16.7767 13.8658 16.5127 13.5897 16.336C13.3076 16.148 12.9566 16.0552 12.5327 16.0552C12.0474 16.0552 11.6122 16.175 11.2338 16.4131C10.8471 16.6527 10.5695 17.0106 10.3936 17.489C10.2147 17.9682 10.1252 18.6758 10.1282 19.6125L10.1252 25.1936H7.20056V9.35547H10.129"
    fill="white" />
  <path
    d="M21.6583 9.35547V15.4682C22.6016 14.3586 23.7306 13.8 25.0402 13.8C25.7127 13.8 26.3216 13.9273 26.8645 14.1796C27.406 14.4304 27.8124 14.7524 28.0854 15.1432C28.3608 15.5352 28.5525 15.9785 28.6488 16.446C28.7496 16.92 28.7996 17.6575 28.7996 18.6578V25.1936H25.8743V19.307C25.8743 18.139 25.8189 17.3992 25.7074 17.0847C25.603 16.7762 25.3952 16.5121 25.1183 16.336C24.8392 16.148 24.4851 16.0552 24.0612 16.0552C23.5767 16.0552 23.1415 16.175 22.7623 16.4131C22.3809 16.6527 22.1019 17.0106 21.9237 17.489C21.7478 17.9682 21.6583 18.6758 21.6583 19.6125V25.1936H18.7336V9.35547H21.6583Z"
    fill="white" />
</svg>
  