<svg width="114" height="45" viewBox="0 0 114 45" fill="none" xmlns="http://www.w3.org/2000/svg">
  <path d="M7.83285 9.95923H5.97961L3.73052 6.72055L5.97961 3.53585H7.83285L5.58377 6.72055L7.83285 9.95923ZM4.79209 9.95923H2.95683L0.707749 6.72055L2.95683 3.53585H4.79209L2.543 6.72055L4.79209 9.95923Z" fill="white"/>
  <path d="M14.3947 12.0928H12.3075V3.40231H14.4667V8.29632L17.1476 3.40231H19.3607V12.0928H17.1836V7.00084L14.3947 12.0928ZM30.2822 3.40231H32.4414V10.2035H33.413V14.3059H31.2358V12.0928H21.4838V3.40231H23.6429V10.2035H25.874V3.40231H28.0511V10.2035H30.2822V3.40231ZM36.9116 12.0928H34.8244V3.40231H36.9835V8.29632L39.6644 3.40231H41.8775V12.0928H39.7004V7.00084L36.9116 12.0928ZM47.4193 12.0928H45.2422V5.29154H43.3349V3.40231H49.3445V5.29154H47.4193V12.0928ZM54.3858 12.3087C51.9388 12.3087 50.3375 10.4734 50.3375 7.73854C50.3375 5.21957 51.8129 3.1864 54.2239 3.1864C56.6169 3.1864 57.9664 5.12961 57.9664 7.82851V8.44026H52.5146C52.6045 9.62778 53.3063 10.5634 54.6197 10.5634C55.2315 10.5634 56.0232 10.2575 56.509 9.71774L57.4986 11.0132C56.7249 11.8589 55.5553 12.3087 54.3858 12.3087ZM55.8792 6.96486C55.8432 6.06522 55.4474 4.93169 54.1879 4.93169C52.9824 4.93169 52.5506 6.06522 52.5146 6.96486H55.8792ZM67.8889 12.3087C67.0612 12.3087 66.2336 11.8949 65.6938 10.9952V15.4034H63.5347V3.40231H65.6938V4.49986C66.2336 3.63621 67.0432 3.1864 67.8889 3.1864C69.8501 3.1864 71.1096 4.8957 71.1096 7.73854C71.1096 10.5634 69.8501 12.3087 67.8889 12.3087ZM67.1872 10.4015C68.3027 10.4015 68.8785 9.26792 68.8785 7.73854C68.8785 6.22716 68.3027 5.09362 67.1872 5.09362C66.6114 5.09362 65.9817 5.52544 65.6938 6.10121V9.37588C65.9817 9.93365 66.6114 10.4015 67.1872 10.4015ZM79.4389 12.0928H77.2618V11.2291C76.776 11.9128 75.8584 12.3087 74.9768 12.3087C73.6093 12.3087 72.2958 11.2831 72.2958 9.42986C72.2958 7.52263 73.6093 6.60501 74.9768 6.60501C75.8764 6.60501 76.794 6.96486 77.2618 7.63059V6.49705C77.2618 5.56143 76.6861 4.98566 75.6605 4.98566C74.9048 4.98566 74.1671 5.29154 73.5193 5.92128L72.7097 4.44588C73.6273 3.56424 74.9408 3.1864 76.0563 3.1864C77.9455 3.1864 79.4389 4.03205 79.4389 6.26314V12.0928ZM75.8044 10.8513C76.3982 10.8513 76.9739 10.5454 77.2618 10.0236V8.90807C76.9739 8.38628 76.3982 8.06241 75.8044 8.06241C74.9947 8.06241 74.455 8.63818 74.455 9.46584C74.455 10.2935 74.9947 10.8513 75.8044 10.8513ZM85.0259 10.4015C86.1955 10.4015 86.7353 9.15997 86.7353 7.72055C86.7353 6.33511 86.1955 5.09362 85.0259 5.09362C83.8744 5.09362 83.3346 6.33511 83.3346 7.72055C83.3346 9.15997 83.8744 10.4015 85.0259 10.4015ZM85.0259 12.3087C82.417 12.3087 81.1035 10.1855 81.1035 7.34271C81.1035 2.9165 82.1471 1.35114 85.0259 0.847347C86.0515 0.66742 86.4834 0.469501 86.4834 0.0916539H88.6785C88.6785 1.78297 86.8432 2.25078 85.6377 2.4487C83.9104 2.73658 83.1547 3.40231 82.9748 4.44588C83.5146 3.65421 84.3782 3.1864 85.4578 3.1864C87.7249 3.1864 88.9663 5.30953 88.9663 7.72055C88.9663 10.1316 87.6349 12.3087 85.0259 12.3087ZM94.1495 12.3087C91.5945 12.3087 90.2271 10.1855 90.2271 7.73854C90.2271 5.30953 91.5945 3.1864 94.1495 3.1864C96.7405 3.1864 98.0899 5.30953 98.0899 7.73854C98.0899 10.1855 96.7405 12.3087 94.1495 12.3087ZM94.1495 10.4015C95.337 10.4015 95.8588 9.17796 95.8588 7.73854C95.8588 6.31712 95.337 5.09362 94.1495 5.09362C92.998 5.09362 92.4762 6.31712 92.4762 7.73854C92.4762 9.17796 92.998 10.4015 94.1495 10.4015ZM103.184 12.0928H101.007V5.29154H99.0996V3.40231H105.109V5.29154H103.184V12.0928ZM106.354 15.4934L106.678 13.5862C106.822 13.6581 107.074 13.7121 107.236 13.7121C107.721 13.7121 108.027 13.5322 108.189 13.0824L108.477 12.2547L105.544 3.40231H107.847L109.593 9.48383L111.356 3.40231H113.659L110.258 13.5682C109.719 15.1695 108.783 15.6013 107.398 15.6193C107.128 15.6193 106.588 15.5654 106.354 15.4934ZM14.3947 28.0928H12.3075V19.4023H14.4667V24.2963L17.1476 19.4023H19.3607V28.0928H17.1836V23.0008L14.3947 28.0928ZM23.6429 28.0928H21.4838V19.4023H23.6429V22.641H26.3598V19.4023H28.5369V28.0928H26.3598V24.5302H23.6429V28.0928ZM32.2794 28.0928H29.7425L32.5853 23.3067L29.8324 19.4023H32.3514L34.4026 22.4611V19.4023H36.5617V22.497L38.6308 19.4023H41.1318L38.3969 23.3067L41.2398 28.0928H38.7028L36.9035 24.6922L36.5617 25.178V28.0928H34.4026V25.142L34.0787 24.6922L32.2794 28.0928ZM45.8772 28.3087C43.4302 28.3087 41.8289 26.4734 41.8289 23.7385C41.8289 21.2196 43.3043 19.1864 45.7153 19.1864C48.1083 19.1864 49.4578 21.1296 49.4578 23.8285V24.4403H44.006C44.096 25.6278 44.7977 26.5634 46.1112 26.5634C46.7229 26.5634 47.5146 26.2575 48.0004 25.7177L48.99 27.0132C48.2163 27.8589 47.0468 28.3087 45.8772 28.3087ZM47.3706 22.9649C47.3347 22.0652 46.9388 20.9317 45.6793 20.9317C44.4738 20.9317 44.042 22.0652 44.006 22.9649H47.3706ZM53.2275 28.0928H51.0684V19.4023H53.2275V22.641H55.9444V19.4023H58.1215V28.0928H55.9444V24.5302H53.2275V28.0928ZM63.8432 28.3087C61.3962 28.3087 59.7949 26.4734 59.7949 23.7385C59.7949 21.2196 61.2703 19.1864 63.6813 19.1864C66.0743 19.1864 67.4238 21.1296 67.4238 23.8285V24.4403H61.972C62.0619 25.6278 62.7637 26.5634 64.0771 26.5634C64.6889 26.5634 65.4806 26.2575 65.9664 25.7177L66.956 27.0132C66.1823 27.8589 65.0127 28.3087 63.8432 28.3087ZM65.3366 22.9649C65.3006 22.0652 64.9048 20.9317 63.6453 20.9317C62.4398 20.9317 62.008 22.0652 61.972 22.9649H65.3366ZM73.3886 28.3087C72.561 28.3087 71.7333 27.8949 71.1935 26.9952V31.4034H69.0344V19.4023H71.1935V20.4999C71.7333 19.6362 72.543 19.1864 73.3886 19.1864C75.3498 19.1864 76.6093 20.8957 76.6093 23.7385C76.6093 26.5634 75.3498 28.3087 73.3886 28.3087ZM72.6869 26.4015C73.8025 26.4015 74.3782 25.2679 74.3782 23.7385C74.3782 22.2272 73.8025 21.0936 72.6869 21.0936C72.1111 21.0936 71.4814 21.5254 71.1935 22.1012V25.3759C71.4814 25.9337 72.1111 26.4015 72.6869 26.4015ZM81.736 28.3087C79.181 28.3087 77.8136 26.1855 77.8136 23.7385C77.8136 21.3095 79.181 19.1864 81.736 19.1864C84.3269 19.1864 85.6764 21.3095 85.6764 23.7385C85.6764 26.1855 84.3269 28.3087 81.736 28.3087ZM81.736 26.4015C82.9235 26.4015 83.4453 25.178 83.4453 23.7385C83.4453 22.3171 82.9235 21.0936 81.736 21.0936C80.5844 21.0936 80.0626 22.3171 80.0626 23.7385C80.0626 25.178 80.5844 26.4015 81.736 26.4015ZM96.4561 28.0928H94.315V22.8209L92.3717 28.0928H91.4361L89.5109 22.8209V28.0928H87.3518V19.4023H90.1227L91.9039 24.2423L93.7032 19.4023H96.4561V28.0928ZM14.4667 44.0928H12.3075V35.4023H14.4667V38.641H17.1836V35.4023H19.3607V44.0928H17.1836V40.5302H14.4667V44.0928ZM28.1591 44.0928H25.982V43.2291C25.4962 43.9128 24.5786 44.3087 23.6969 44.3087C22.3295 44.3087 21.016 43.2831 21.016 41.4299C21.016 39.5226 22.3295 38.605 23.6969 38.605C24.5965 38.605 25.5142 38.9649 25.982 39.6306V38.497C25.982 37.5614 25.4062 36.9857 24.3806 36.9857C23.6249 36.9857 22.8872 37.2915 22.2395 37.9213L21.4298 36.4459C22.3475 35.5642 23.6609 35.1864 24.7765 35.1864C26.6657 35.1864 28.1591 36.0321 28.1591 38.2631V44.0928ZM24.5246 42.8513C25.1183 42.8513 25.6941 42.5454 25.982 42.0236V40.9081C25.6941 40.3863 25.1183 40.0624 24.5246 40.0624C23.7149 40.0624 23.1751 40.6382 23.1751 41.4658C23.1751 42.2935 23.7149 42.8513 24.5246 42.8513ZM41.2843 44.0928H39.1252V38.3351C39.1252 37.4355 38.6934 37.0936 37.9737 37.0936C37.272 37.0936 36.6962 37.6514 36.4083 38.1732V44.0928H34.2312V32.0917H36.4083V36.5358C36.8581 35.8521 37.8297 35.1864 38.9453 35.1864C40.5646 35.1864 41.2843 36.068 41.2843 37.5254V44.0928ZM50.4606 44.0928H48.3015V38.3351C48.3015 37.4355 47.8697 37.0936 47.1499 37.0936C46.4482 37.0936 45.8725 37.6514 45.5846 38.1732V44.0928H43.4075V32.0917H45.5846V36.5358C46.0344 35.8521 47.006 35.1864 48.1216 35.1864C49.7409 35.1864 50.4606 36.068 50.4606 37.5254V44.0928ZM53.8792 44.2907C53.1235 44.2907 52.4758 43.6609 52.4758 42.9053C52.4758 42.1496 53.1235 41.5018 53.8792 41.5018C54.6349 41.5018 55.2646 42.1496 55.2646 42.9053C55.2646 43.6609 54.6349 44.2907 53.8792 44.2907ZM59.4561 44.0928H57.297V35.4023H59.4561V36.5898C59.9419 35.8161 60.8955 35.1864 61.8311 35.1864V37.3095C61.6872 37.2735 61.5073 37.2556 61.3093 37.2556C60.6256 37.2556 59.816 37.7054 59.4561 38.2991V44.0928ZM70.2753 44.0928H68.1162V42.9952C67.6484 43.6789 66.6948 44.3087 65.5612 44.3087C63.9599 44.3087 63.2402 43.427 63.2402 41.9696V35.4023H65.3993V41.142C65.3993 42.0596 65.8311 42.4015 66.5508 42.4015C67.2526 42.4015 67.8103 41.8797 68.1162 41.3399V35.4023H70.2753V44.0928Z" fill="white"/>
  <path d="M74.4008 37.1023L76.254 37.1023L78.5031 40.341L76.254 43.5257L74.4008 43.5257L76.6499 40.341L74.4008 37.1023ZM77.4416 37.1023L79.2768 37.1023L81.5259 40.341L79.2768 43.5257L77.4416 43.5257L79.6906 40.341L77.4416 37.1023Z" fill="white"/>
  </svg>
  