<svg width="129" height="51" viewBox="0 0 129 51" fill="none" xmlns="http://www.w3.org/2000/svg">
  <path d="M8.36552 12.5685H6.26304L3.71147 8.89426L6.26304 5.28124H8.36552L5.81396 8.89426L8.36552 12.5685ZM4.91581 12.5685H2.83374L0.282175 8.89426L2.83374 5.28124H4.91581L2.36425 8.89426L4.91581 12.5685Z" fill="white"/>
  <path d="M15.8097 13.8545H13.4419V3.99526H15.8914V9.54746L18.9328 3.99526H21.4436V13.8545H18.9737V8.07776L15.8097 13.8545ZM33.834 3.99526H36.2835V11.7112H37.3857V16.3652H34.9158V13.8545H23.8522V3.99526H26.3017V11.7112H28.8329V3.99526H31.3028V11.7112H33.834V3.99526ZM41.3548 13.8545H38.987V3.99526H41.4365V9.54746L44.478 3.99526H46.9887V13.8545H44.5188V8.07776L41.3548 13.8545ZM53.2757 13.8545H50.8058V6.13857H48.6421V3.99526H55.4599V6.13857H53.2757V13.8545ZM61.1792 14.0994C59.7912 14.0994 58.6753 13.6232 57.8316 12.6706C57.0015 11.718 56.5864 10.466 56.5864 8.91467C56.5864 7.44497 56.9878 6.22022 57.7907 5.24042C58.5936 4.24701 59.6619 3.75031 60.9955 3.75031C62.3291 3.75031 63.3702 4.24021 64.1186 5.22001C64.8671 6.1862 65.2413 7.45177 65.2413 9.01673V9.71076H59.0563C59.1107 10.4184 59.3421 10.9967 59.7503 11.4458C60.1586 11.8949 60.7233 12.1194 61.4446 12.1194C61.812 12.1194 62.193 12.0378 62.5877 11.8745C62.9823 11.6976 63.3157 11.4594 63.5879 11.16L64.7106 12.6297C63.8124 13.6095 62.6353 14.0994 61.1792 14.0994ZM62.8734 8.03693C62.8462 7.42456 62.6829 6.88703 62.3835 6.42434C62.0842 5.96166 61.6079 5.73032 60.9547 5.73032C60.3287 5.73032 59.8592 5.96166 59.5462 6.42434C59.2468 6.88703 59.0835 7.42456 59.0563 8.03693H62.8734ZM76.4983 14.0994C75.4369 14.0994 74.6068 13.6027 74.008 12.6093V17.6104H71.5585V3.99526H74.008V5.24042C74.634 4.24701 75.4641 3.75031 76.4983 3.75031C77.6142 3.75031 78.4987 4.21299 79.1519 5.13836C79.8187 6.05011 80.1521 7.30888 80.1521 8.91467C80.1521 10.5068 79.8187 11.7724 79.1519 12.7114C78.4987 13.6368 77.6142 14.0994 76.4983 14.0994ZM75.7022 11.9357C76.3146 11.9357 76.7841 11.6567 77.1107 11.0988C77.4509 10.5409 77.621 9.81282 77.621 8.91467C77.621 8.03013 77.4509 7.30888 77.1107 6.75094C76.7841 6.193 76.3146 5.91403 75.7022 5.91403C75.3756 5.91403 75.049 6.0229 74.7224 6.24063C74.4094 6.45836 74.1713 6.73053 74.008 7.05713V10.7722C74.1713 11.0988 74.4094 11.3778 74.7224 11.6091C75.049 11.8269 75.3756 11.9357 75.7022 11.9357ZM89.6017 13.8545H87.1318V12.8747C86.8596 13.2557 86.4854 13.5551 86.0091 13.7728C85.5464 13.9906 85.0565 14.0994 84.5394 14.0994C83.7093 14.0994 82.9949 13.8069 82.3961 13.2217C81.7973 12.6365 81.4979 11.8405 81.4979 10.8334C81.4979 9.81282 81.7905 9.02353 82.3757 8.46559C82.9744 7.90765 83.6957 7.62868 84.5394 7.62868C85.0701 7.62868 85.5668 7.73074 86.0295 7.93487C86.5058 8.13899 86.8732 8.42477 87.1318 8.79219V7.50621C87.1318 6.97548 86.9685 6.56043 86.6419 6.26104C86.3289 5.94805 85.8866 5.79156 85.3151 5.79156C84.4169 5.79156 83.6072 6.14537 82.886 6.85301L81.9674 5.17918C82.9608 4.2266 84.2264 3.75031 85.7641 3.75031C86.9209 3.75031 87.8462 4.03608 88.5402 4.60763C89.2479 5.16557 89.6017 6.04331 89.6017 7.24084V13.8545ZM85.4784 12.446C86.2404 12.446 86.7916 12.133 87.1318 11.5071V10.2415C86.778 9.60189 86.2268 9.28209 85.4784 9.28209C85.0157 9.28209 84.6415 9.43178 84.3557 9.73117C84.0835 10.0169 83.9474 10.398 83.9474 10.8743C83.9474 11.3506 84.0835 11.7316 84.3557 12.0174C84.6415 12.3031 85.0157 12.446 85.4784 12.446ZM94.5112 11.0784C94.8378 11.6499 95.3141 11.9357 95.9401 11.9357C96.5661 11.9357 97.0424 11.6499 97.369 11.0784C97.7092 10.4932 97.8793 9.76519 97.8793 8.89426C97.8793 8.05054 97.7092 7.34291 97.369 6.77136C97.0424 6.19981 96.5661 5.91403 95.9401 5.91403C95.3141 5.91403 94.8378 6.19981 94.5112 6.77136C94.1846 7.34291 94.0213 8.05054 94.0213 8.89426C94.0213 9.76519 94.1846 10.4932 94.5112 11.0784ZM95.9401 14.0994C94.5112 14.0994 93.4089 13.5823 92.6333 12.5481C91.8712 11.5003 91.4902 10.1394 91.4902 8.46559C91.4902 5.97527 91.8168 4.19938 92.47 3.13793C93.1368 2.06287 94.2935 1.38246 95.9401 1.09668C97.0424 0.906164 97.5935 0.620389 97.5935 0.239356H100.084C100.084 1.64101 98.9339 2.53236 96.6341 2.91339C94.8242 3.21278 93.8172 3.96804 93.6131 5.17918C94.2663 4.2266 95.2052 3.75031 96.43 3.75031C97.6684 3.75031 98.6413 4.24701 99.349 5.24042C100.057 6.23383 100.41 7.45177 100.41 8.89426C100.41 10.3503 100.016 11.5819 99.2265 12.5889C98.4508 13.5959 97.3554 14.0994 95.9401 14.0994ZM106.291 14.0994C104.903 14.0994 103.814 13.6027 103.025 12.6093C102.235 11.6023 101.841 10.3708 101.841 8.91467C101.841 7.45858 102.235 6.23383 103.025 5.24042C103.814 4.24701 104.903 3.75031 106.291 3.75031C107.692 3.75031 108.788 4.24701 109.577 5.24042C110.366 6.23383 110.761 7.45858 110.761 8.91467C110.761 10.3844 110.366 11.6159 109.577 12.6093C108.788 13.6027 107.692 14.0994 106.291 14.0994ZM106.291 11.9357C106.93 11.9357 107.413 11.6499 107.74 11.0784C108.067 10.5068 108.23 9.7856 108.23 8.91467C108.23 8.04373 108.067 7.3293 107.74 6.77136C107.413 6.19981 106.93 5.91403 106.291 5.91403C105.665 5.91403 105.188 6.19981 104.862 6.77136C104.549 7.34291 104.392 8.05734 104.392 8.91467C104.392 9.7856 104.549 10.5068 104.862 11.0784C105.188 11.6499 105.665 11.9357 106.291 11.9357ZM116.54 13.8545H114.07V6.13857H111.906V3.99526H118.724V6.13857H116.54V13.8545ZM120.137 17.7125L120.504 15.5487C120.694 15.644 120.905 15.6916 121.137 15.6916C121.681 15.6916 122.042 15.4535 122.219 14.9772L122.545 14.0382L119.218 3.99526H121.831L123.811 10.8947L125.811 3.99526H128.424L124.566 15.5283C124.28 16.3993 123.879 16.998 123.362 17.3246C122.845 17.6648 122.164 17.8417 121.32 17.8553C120.844 17.8553 120.45 17.8077 120.137 17.7125ZM13.2173 35.7125L13.5848 33.5487C13.7753 33.644 13.9862 33.6916 14.2175 33.6916C14.7619 33.6916 15.1225 33.4535 15.2994 32.9772L15.626 32.0382L12.2988 21.9953H14.9116L16.8916 28.8947L18.892 21.9953H21.5048L17.6468 33.5283C17.3611 34.3993 16.9596 34.998 16.4425 35.3246C15.9254 35.6648 15.245 35.8417 14.4013 35.8553C13.925 35.8553 13.5303 35.8077 13.2173 35.7125ZM25.2865 29.0784C25.6131 29.6499 26.0894 29.9357 26.7154 29.9357C27.3414 29.9357 27.8177 29.6499 28.1443 29.0784C28.4845 28.4932 28.6546 27.7652 28.6546 26.8943C28.6546 26.0505 28.4845 25.3429 28.1443 24.7714C27.8177 24.1998 27.3414 23.914 26.7154 23.914C26.0894 23.914 25.6131 24.1998 25.2865 24.7714C24.9599 25.3429 24.7966 26.0505 24.7966 26.8943C24.7966 27.7652 24.9599 28.4932 25.2865 29.0784ZM26.7154 32.0994C25.2865 32.0994 24.1843 31.5823 23.4086 30.5481C22.6465 29.5003 22.2655 28.1394 22.2655 26.4656C22.2655 23.9753 22.5921 22.1994 23.2453 21.1379C23.9121 20.0629 25.0688 19.3825 26.7154 19.0967C27.8177 18.9062 28.3688 18.6204 28.3688 18.2394H30.8592C30.8592 19.641 29.7093 20.5324 27.4094 20.9134C25.5995 21.2128 24.5925 21.968 24.3884 23.1792C25.0416 22.2266 25.9806 21.7503 27.2053 21.7503C28.4437 21.7503 29.4167 22.247 30.1243 23.2404C30.8319 24.2338 31.1858 25.4518 31.1858 26.8943C31.1858 28.3503 30.7911 29.5819 30.0018 30.5889C29.2262 31.5959 28.1307 32.0994 26.7154 32.0994ZM37.066 32.0994C35.6779 32.0994 34.5893 31.6027 33.8 30.6093C33.0107 29.6023 32.6161 28.3708 32.6161 26.9147C32.6161 25.4586 33.0107 24.2338 33.8 23.2404C34.5893 22.247 35.6779 21.7503 37.066 21.7503C38.4677 21.7503 39.5631 22.247 40.3524 23.2404C41.1417 24.2338 41.5363 25.4586 41.5363 26.9147C41.5363 28.3844 41.1417 29.6159 40.3524 30.6093C39.5631 31.6027 38.4677 32.0994 37.066 32.0994ZM37.066 29.9357C37.7056 29.9357 38.1887 29.6499 38.5153 29.0784C38.8419 28.5068 39.0052 27.7856 39.0052 26.9147C39.0052 26.0437 38.8419 25.3293 38.5153 24.7714C38.1887 24.1998 37.7056 23.914 37.066 23.914C36.44 23.914 35.9637 24.1998 35.6371 24.7714C35.3241 25.3429 35.1676 26.0573 35.1676 26.9147C35.1676 27.7856 35.3241 28.5068 35.6371 29.0784C35.9637 29.6499 36.44 29.9357 37.066 29.9357ZM48.3769 32.0994C47.3155 32.0994 46.4853 31.6027 45.8866 30.6093V35.6104H43.4371V21.9953H45.8866V23.2404C46.5126 22.247 47.3427 21.7503 48.3769 21.7503C49.4928 21.7503 50.3773 22.213 51.0305 23.1384C51.6973 24.0501 52.0307 25.3089 52.0307 26.9147C52.0307 28.5068 51.6973 29.7724 51.0305 30.7114C50.3773 31.6368 49.4928 32.0994 48.3769 32.0994ZM47.5808 29.9357C48.1932 29.9357 48.6627 29.6567 48.9893 29.0988C49.3295 28.5409 49.4996 27.8128 49.4996 26.9147C49.4996 26.0301 49.3295 25.3089 48.9893 24.7509C48.6627 24.193 48.1932 23.914 47.5808 23.914C47.2542 23.914 46.9276 24.0229 46.601 24.2406C46.288 24.4584 46.0499 24.7305 45.8866 25.0571V28.7722C46.0499 29.0988 46.288 29.3778 46.601 29.6091C46.9276 29.8269 47.2542 29.9357 47.5808 29.9357ZM63.889 21.9953H66.3385V29.7112H67.4407V34.3652H64.9708V31.8545H53.9073V21.9953H56.3568V29.7112H58.8879V21.9953H61.3578V29.7112H63.889V21.9953ZM71.4099 31.8545H69.042V21.9953H71.4915V27.5475L74.533 21.9953H77.0437V31.8545H74.5738V26.0778L71.4099 31.8545ZM86.0252 34.3652V31.8545H79.4524V21.9953H81.9019V29.7112H84.9842V21.9953H87.4541V29.7112H88.4747V34.3652H86.0252ZM94.1446 32.0994C92.7565 32.0994 91.6407 31.6232 90.7969 30.6706C89.9668 29.718 89.5518 28.466 89.5518 26.9147C89.5518 25.445 89.9532 24.2202 90.7561 23.2404C91.559 22.247 92.6273 21.7503 93.9609 21.7503C95.2945 21.7503 96.3355 22.2402 97.084 23.22C97.8324 24.1862 98.2067 25.4518 98.2067 27.0167V27.7108H92.0217C92.0761 28.4184 92.3075 28.9967 92.7157 29.4458C93.124 29.8949 93.6887 30.1194 94.41 30.1194C94.7774 30.1194 95.1584 30.0378 95.5531 29.8745C95.9477 29.6976 96.2811 29.4594 96.5533 29.16L97.676 30.6297C96.7778 31.6095 95.6007 32.0994 94.1446 32.0994ZM95.8388 26.0369C95.8116 25.4246 95.6483 24.887 95.3489 24.4243C95.0495 23.9617 94.5733 23.7303 93.9201 23.7303C93.2941 23.7303 92.8246 23.9617 92.5116 24.4243C92.2122 24.887 92.0489 25.4246 92.0217 26.0369H95.8388ZM102.402 31.8545H100.034V21.9953H102.483V27.5475L105.525 21.9953H108.036V31.8545H105.566V26.0778L102.402 31.8545ZM107.097 19.3416C106.321 20.3623 105.3 20.8726 104.035 20.8726C102.769 20.8726 101.749 20.3623 100.973 19.3416L102.096 18.4435C102.572 19.1239 103.218 19.4641 104.035 19.4641C104.865 19.4641 105.511 19.1239 105.974 18.4435L107.097 19.3416ZM15.8914 49.8545H13.4419V39.9953H15.8914V43.6695H18.9737V39.9953H21.4436V49.8545H18.9737V45.8128H15.8914V49.8545ZM31.4253 49.8545H28.9554V48.8747C28.6832 49.2557 28.309 49.5551 27.8327 49.7728C27.37 49.9906 26.8801 50.0994 26.363 50.0994C25.5329 50.0994 24.8184 49.8069 24.2197 49.2217C23.6209 48.6365 23.3215 47.8405 23.3215 46.8334C23.3215 45.8128 23.6141 45.0235 24.1993 44.4656C24.798 43.9077 25.5193 43.6287 26.363 43.6287C26.8937 43.6287 27.3904 43.7307 27.8531 43.9349C28.3294 44.139 28.6968 44.4248 28.9554 44.7922V43.5062C28.9554 42.9755 28.7921 42.5604 28.4655 42.261C28.1525 41.9481 27.7102 41.7916 27.1387 41.7916C26.2405 41.7916 25.4308 42.1454 24.7096 42.853L23.791 41.1792C24.7844 40.2266 26.05 39.7503 27.5877 39.7503C28.7444 39.7503 29.6698 40.0361 30.3638 40.6076C31.0715 41.1656 31.4253 42.0433 31.4253 43.2408V49.8545ZM27.302 48.446C28.064 48.446 28.6152 48.133 28.9554 47.5071V46.2415C28.6016 45.6019 28.0504 45.2821 27.302 45.2821C26.8393 45.2821 26.465 45.4318 26.1793 45.7312C25.9071 46.0169 25.771 46.398 25.771 46.8743C25.771 47.3506 25.9071 47.7316 26.1793 48.0174C26.465 48.3031 26.8393 48.446 27.302 48.446ZM46.3157 49.8545H43.8662V43.3225C43.8662 42.3835 43.4308 41.914 42.5598 41.914C42.1924 41.914 41.8522 42.0365 41.5392 42.2815C41.2262 42.5128 40.9745 42.7986 40.7839 43.1388V49.8545H38.314V36.2394H40.7839V41.2812C41.0561 40.8594 41.4507 40.4988 41.9679 40.1994C42.4986 39.9 43.0633 39.7503 43.6621 39.7503C45.4312 39.7503 46.3157 40.6348 46.3157 42.4039V49.8545ZM56.7261 49.8545H54.2766V43.3225C54.2766 42.3835 53.8411 41.914 52.9702 41.914C52.6028 41.914 52.2626 42.0365 51.9496 42.2815C51.6366 42.5128 51.3848 42.7986 51.1943 43.1388V49.8545H48.7244V36.2394H51.1943V41.2812C51.4665 40.8594 51.8611 40.4988 52.3782 40.1994C52.909 39.9 53.4737 39.7503 54.0725 39.7503C55.8416 39.7503 56.7261 40.6348 56.7261 42.4039V49.8545ZM61.7067 49.63C61.4074 49.9293 61.0399 50.079 60.6045 50.079C60.169 50.079 59.7948 49.9225 59.4818 49.6095C59.1688 49.2966 59.0123 48.9291 59.0123 48.5073C59.0123 48.0718 59.1688 47.6976 59.4818 47.3846C59.7948 47.0716 60.169 46.9151 60.6045 46.9151C61.0263 46.9151 61.3938 47.0716 61.7067 47.3846C62.0197 47.6976 62.1762 48.0718 62.1762 48.5073C62.1762 48.9427 62.0197 49.317 61.7067 49.63ZM66.9314 49.8545H64.4819V39.9953H66.9314V41.3425C67.2172 40.8934 67.605 40.5192 68.0949 40.2198C68.5984 39.9068 69.1087 39.7503 69.6258 39.7503V42.159C69.4625 42.1182 69.2652 42.0977 69.0339 42.0977C68.6392 42.0977 68.2378 42.2134 67.8295 42.4448C67.4349 42.6625 67.1355 42.9415 66.9314 43.2817V49.8545ZM79.2057 49.8545H76.7562V48.6093C76.4704 49.0312 76.069 49.385 75.5518 49.6708C75.0347 49.9566 74.47 50.0994 73.8576 50.0994C72.1021 50.0994 71.2244 49.2149 71.2244 47.4458V39.9953H73.6739V46.5068C73.6739 47.4594 74.1094 47.9357 74.9803 47.9357C75.7151 47.9357 76.3071 47.5343 76.7562 46.7314V39.9953H79.2057V49.8545Z" fill="white"/>
  <path d="M83.8862 42.8583L85.9887 42.8583L88.5402 46.5325L85.9887 50.1455L83.8862 50.1455L86.4377 46.5325L83.8862 42.8583ZM87.3359 42.8583L89.418 42.8583L91.9695 46.5325L89.418 50.1455L87.3359 50.1455L89.8875 46.5325L87.3359 42.8583Z" fill="white"/>
  </svg>
  