<svg viewBox="0 0 44 44" fill="none" xmlns="http://www.w3.org/2000/svg">
  <path fill-rule="evenodd" clip-rule="evenodd" d="M44 22C44 34.1504 34.1504 44 22 44C9.84958 44 0 34.1504 0 22C0 9.84958 9.84958 0 22 0C34.1504 0 44 9.84958 44 22ZM12.379 11.4354V18.9065C13.531 17.5503 14.9119 16.8676 16.5134 16.8676C17.3382 16.8676 18.0768 17.0231 18.7395 17.3315C19.404 17.6381 19.9007 18.0316 20.2362 18.5093C20.5736 18.9916 20.8015 19.5196 20.9248 20.1016C21.0471 20.6809 21.1083 21.5823 21.1083 22.8049V30.7931H17.5291V23.5983C17.5291 22.1707 17.4642 21.2666 17.328 20.8822C17.2004 20.5057 16.9471 20.1831 16.6098 19.9671C16.265 19.7374 15.8359 19.6239 15.3178 19.6239C14.7247 19.6239 14.1927 19.7704 13.7303 20.0614C13.2576 20.3542 12.9184 20.7916 12.7034 21.3764C12.4847 21.9621 12.3753 22.8269 12.379 23.9717L12.3753 30.7931H8.80078V11.4354H12.379ZM26.4728 11.4354V18.9065C27.6257 17.5503 29.0057 16.8676 30.6062 16.8676C31.4282 16.8676 32.1724 17.0231 32.836 17.3315C33.4977 17.6381 33.9945 18.0316 34.3281 18.5093C34.6648 18.9884 34.8991 19.5302 35.0167 20.1016C35.14 20.6809 35.2011 21.5823 35.2011 22.8049V30.7931H31.6256V23.5983C31.6256 22.1707 31.558 21.2666 31.4217 20.8822C31.2941 20.5052 31.0401 20.1824 30.7016 19.9671C30.3606 19.7374 29.9278 19.6239 29.4097 19.6239C28.8175 19.6239 28.2856 19.7704 27.8222 20.0614C27.356 20.3542 27.0149 20.7916 26.7972 21.3764C26.5821 21.9621 26.4728 22.8269 26.4728 23.9717V30.7931H22.8982V11.4354H26.4728Z" fill="white"/>
  </svg>
  