<svg width="454" height="65" viewBox="0 0 454 65" fill="none" xmlns="http://www.w3.org/2000/svg">
  <path d="M14.6958 21.6969H10.8861L6.26263 15.0391L10.8861 8.4923H14.6958L10.0724 15.0391L14.6958 21.6969ZM8.4449 21.6969H4.67217L0.0487151 15.0391L4.67217 8.4923H8.4449L3.82145 15.0391L8.4449 21.6969Z" fill="white"/>
  <path d="M28.1849 25.0271H23.8943V7.16209H28.3328V17.2227L33.844 7.16209H38.3934V25.0271H33.9179V14.5596L28.1849 25.0271ZM60.8449 7.16209H65.2834V21.1434H67.2808V29.5766H62.8053V25.0271H42.758V7.16209H47.1965V21.1434H51.783V7.16209H56.2585V21.1434H60.8449V7.16209ZM74.4728 25.0271H70.1823V7.16209H74.6208V17.2227L80.1319 7.16209H84.6814V25.0271H80.2059V14.5596L74.4728 25.0271ZM96.0736 25.0271H91.5981V11.0458H87.6774V7.16209H100.031V11.0458H96.0736V25.0271ZM110.395 25.471C107.88 25.471 105.858 24.6079 104.329 22.8818C102.825 21.1557 102.073 18.8872 102.073 16.0761C102.073 13.413 102.8 11.1937 104.255 9.41833C105.71 7.61827 107.645 6.71823 110.062 6.71823C112.478 6.71823 114.365 7.60594 115.721 9.38134C117.077 11.1321 117.755 13.4253 117.755 16.261V17.5186H106.548C106.647 18.8009 107.066 19.8488 107.806 20.6626C108.545 21.4763 109.569 21.8832 110.876 21.8832C111.541 21.8832 112.232 21.7352 112.947 21.4393C113.662 21.1187 114.266 20.6872 114.759 20.1447L116.794 22.8078C115.166 24.5832 113.033 25.471 110.395 25.471ZM113.465 14.4856C113.415 13.376 113.119 12.402 112.577 11.5636C112.035 10.7252 111.171 10.306 109.988 10.306C108.854 10.306 108.003 10.7252 107.436 11.5636C106.893 12.402 106.597 13.376 106.548 14.4856H113.465ZM138.153 25.471C136.23 25.471 134.726 24.5709 133.641 22.7709V31.8328H129.202V7.16209H133.641V9.41833C134.775 7.61827 136.279 6.71823 138.153 6.71823C140.175 6.71823 141.778 7.55662 142.961 9.23339C144.17 10.8855 144.774 13.1664 144.774 16.0761C144.774 18.9611 144.17 21.2544 142.961 22.9558C141.778 24.6326 140.175 25.471 138.153 25.471ZM136.711 21.5503C137.82 21.5503 138.671 21.0448 139.263 20.0338C139.879 19.0228 140.187 17.7036 140.187 16.0761C140.187 14.4733 139.879 13.1664 139.263 12.1554C138.671 11.1444 137.82 10.6389 136.711 10.6389C136.119 10.6389 135.527 10.8362 134.935 11.2307C134.368 11.6253 133.936 12.1184 133.641 12.7102V19.442C133.936 20.0338 134.368 20.5393 134.935 20.9585C135.527 21.353 136.119 21.5503 136.711 21.5503ZM161.897 25.0271H157.421V23.2517C156.928 23.9421 156.25 24.4846 155.387 24.8791C154.548 25.2737 153.661 25.471 152.724 25.471C151.219 25.471 149.925 24.9408 148.84 23.8805C147.755 22.8202 147.212 21.3777 147.212 19.5529C147.212 17.7036 147.743 16.2734 148.803 15.2624C149.888 14.2514 151.195 13.7459 152.724 13.7459C153.685 13.7459 154.585 13.9308 155.424 14.3007C156.287 14.6706 156.952 15.1884 157.421 15.8542V13.524C157.421 12.5623 157.125 11.8102 156.533 11.2677C155.966 10.7006 155.165 10.417 154.129 10.417C152.502 10.417 151.034 11.0581 149.728 12.3403L148.063 9.30737C149.863 7.58128 152.156 6.71823 154.943 6.71823C157.039 6.71823 158.716 7.23606 159.973 8.27171C161.255 9.28271 161.897 10.8732 161.897 13.0431V25.0271ZM154.425 22.475C155.806 22.475 156.805 21.9078 157.421 20.7735V18.4803C156.78 17.3213 155.781 16.7419 154.425 16.7419C153.587 16.7419 152.909 17.0131 152.391 17.5556C151.898 18.0734 151.651 18.7639 151.651 19.6269C151.651 20.49 151.898 21.1804 152.391 21.6982C152.909 22.216 153.587 22.475 154.425 22.475ZM170.793 19.9968C171.384 21.0324 172.247 21.5503 173.382 21.5503C174.516 21.5503 175.379 21.0324 175.971 19.9968C176.587 18.9365 176.896 17.6172 176.896 16.0391C176.896 14.5103 176.587 13.2281 175.971 12.1924C175.379 11.1567 174.516 10.6389 173.382 10.6389C172.247 10.6389 171.384 11.1567 170.793 12.1924C170.201 13.2281 169.905 14.5103 169.905 16.0391C169.905 17.6172 170.201 18.9365 170.793 19.9968ZM173.382 25.471C170.793 25.471 168.795 24.5339 167.39 22.6599C166.009 20.7612 165.318 18.2954 165.318 15.2624C165.318 10.7499 165.91 7.53196 167.094 5.60861C168.302 3.66059 170.398 2.42767 173.382 1.90985C175.379 1.56463 176.378 1.0468 176.378 0.356364H180.89C180.89 2.89618 178.807 4.51131 174.639 5.20174C171.36 5.74423 169.535 7.11277 169.165 9.30737C170.349 7.58128 172.05 6.71823 174.269 6.71823C176.513 6.71823 178.276 7.61827 179.559 9.41833C180.841 11.2184 181.482 13.4253 181.482 16.0391C181.482 18.6776 180.767 20.9091 179.337 22.7339C177.931 24.5586 175.946 25.471 173.382 25.471ZM192.137 25.471C189.622 25.471 187.649 24.5709 186.219 22.7709C184.789 20.9461 184.074 18.7145 184.074 16.0761C184.074 13.4376 184.789 11.2184 186.219 9.41833C187.649 7.61827 189.622 6.71823 192.137 6.71823C194.677 6.71823 196.662 7.61827 198.092 9.41833C199.522 11.2184 200.237 13.4376 200.237 16.0761C200.237 18.7392 199.522 20.9708 198.092 22.7709C196.662 24.5709 194.677 25.471 192.137 25.471ZM192.137 21.5503C193.296 21.5503 194.171 21.0324 194.763 19.9968C195.355 18.9611 195.651 17.6542 195.651 16.0761C195.651 14.498 195.355 13.2034 194.763 12.1924C194.171 11.1567 193.296 10.6389 192.137 10.6389C191.003 10.6389 190.14 11.1567 189.548 12.1924C188.981 13.2281 188.697 14.5226 188.697 16.0761C188.697 17.6542 188.981 18.9611 189.548 19.9968C190.14 21.0324 191.003 21.5503 192.137 21.5503ZM210.709 25.0271H206.234V11.0458H202.313V7.16209H214.667V11.0458H210.709V25.0271ZM217.226 32.0178L217.892 28.0971C218.237 28.2697 218.619 28.356 219.038 28.356C220.025 28.356 220.678 27.9245 220.999 27.0614L221.59 25.36L215.561 7.16209H220.296L223.884 19.6639L227.508 7.16209H232.243L225.252 28.0601C224.734 29.6382 224.007 30.7232 223.07 31.315C222.133 31.9315 220.9 32.252 219.371 32.2767C218.508 32.2767 217.793 32.1904 217.226 32.0178ZM37.6167 58.0271H33.1412V56.2517C32.648 56.9421 31.9699 57.4846 31.1069 57.8791C30.2685 58.2737 29.3808 58.471 28.4438 58.471C26.9396 58.471 25.6451 57.9408 24.5601 56.8805C23.4751 55.8202 22.9326 54.3777 22.9326 52.5529C22.9326 50.7036 23.4628 49.2734 24.5231 48.2624C25.6081 47.2514 26.915 46.7459 28.4438 46.7459C29.4055 46.7459 30.3055 46.9308 31.1439 47.3007C32.0069 47.6706 32.6727 48.1884 33.1412 48.8542V46.524C33.1412 45.5623 32.8453 44.8102 32.2535 44.2677C31.6864 43.7006 30.885 43.417 29.8493 43.417C28.2219 43.417 26.7547 44.0581 25.4478 45.3403L23.7833 42.3074C25.5834 40.5813 27.8766 39.7182 30.663 39.7182C32.759 39.7182 34.4358 40.2361 35.6934 41.2717C36.9756 42.2827 37.6167 43.8732 37.6167 46.0431V58.0271ZM30.1452 55.475C31.5261 55.475 32.5247 54.9078 33.1412 53.7735V51.4803C32.5001 50.3213 31.5014 49.7419 30.1452 49.7419C29.3068 49.7419 28.6287 50.0131 28.1109 50.5556C27.6177 51.0734 27.3711 51.7639 27.3711 52.6269C27.3711 53.49 27.6177 54.1804 28.1109 54.6982C28.6287 55.216 29.3068 55.475 30.1452 55.475ZM40.5948 62.5766V54.4763C41.3592 54.353 41.9387 53.9708 42.3332 53.3297C42.7277 52.6639 43.0236 51.3323 43.2209 49.335L44.0716 40.1621H56.4625V54.1434H58.3119V62.5766H53.8733V58.0271H45.0333V62.5766H40.5948ZM48.1033 44.0458L47.6594 49.483C47.4868 51.5543 46.8827 53.1077 45.847 54.1434H51.987V44.0458H48.1033ZM79.9039 58.0271H75.5024V47.1897L71.5078 58.0271H69.5844L65.6267 47.1897V58.0271H61.1882V40.1621H66.8843L70.5461 50.1118L74.2448 40.1621H79.9039V58.0271ZM88.5686 58.0271H84.278V40.1621H88.7165V50.2227L94.2277 40.1621H98.7772V58.0271H94.3017V47.5596L88.5686 58.0271ZM107.58 58.0271H103.142V40.1621H107.58V46.8199H113.165V40.1621H117.641V58.0271H113.165V50.7036H107.58V58.0271ZM126.296 58.0271H122.005V40.1621H126.444V50.2227L131.955 40.1621H136.505V58.0271H132.029V47.5596L126.296 58.0271ZM148.119 58.471C145.677 58.471 143.705 57.5956 142.201 55.8448C140.696 54.0941 139.944 51.8378 139.944 49.0761C139.944 46.339 140.696 44.0951 142.201 42.3444C143.705 40.5936 145.677 39.7182 148.119 39.7182C150.584 39.7182 152.483 40.5196 153.815 42.1224L151.595 45.1924C150.757 44.1567 149.758 43.6389 148.599 43.6389C147.342 43.6389 146.343 44.1567 145.603 45.1924C144.888 46.2034 144.531 47.498 144.531 49.0761C144.531 50.6789 144.888 51.9981 145.603 53.0338C146.343 54.0448 147.342 54.5503 148.599 54.5503C149.758 54.5503 150.757 54.0324 151.595 52.9968L153.815 56.0668C152.483 57.6696 150.584 58.471 148.119 58.471ZM163.835 58.0271H159.359V44.0458H155.438V40.1621H167.792V44.0458H163.835V58.0271ZM179.709 58.471C177.786 58.471 176.282 57.5709 175.197 55.7709V64.8328H170.758V40.1621H175.197V42.4183C176.331 40.6183 177.835 39.7182 179.709 39.7182C181.731 39.7182 183.334 40.5566 184.518 42.2334C185.726 43.8855 186.33 46.1664 186.33 49.0761C186.33 51.9611 185.726 54.2544 184.518 55.9558C183.334 57.6326 181.731 58.471 179.709 58.471ZM178.267 54.5503C179.376 54.5503 180.227 54.0448 180.819 53.0338C181.435 52.0228 181.744 50.7036 181.744 49.0761C181.744 47.4733 181.435 46.1664 180.819 45.1554C180.227 44.1444 179.376 43.6389 178.267 43.6389C177.675 43.6389 177.083 43.8362 176.491 44.2307C175.924 44.6253 175.493 45.1184 175.197 45.7102V52.442C175.493 53.0338 175.924 53.5393 176.491 53.9585C177.083 54.353 177.675 54.5503 178.267 54.5503ZM203.453 58.0271H198.977V56.2517C198.484 56.9421 197.806 57.4846 196.943 57.8791C196.104 58.2737 195.217 58.471 194.28 58.471C192.776 58.471 191.481 57.9408 190.396 56.8805C189.311 55.8202 188.769 54.3777 188.769 52.5529C188.769 50.7036 189.299 49.2734 190.359 48.2624C191.444 47.2514 192.751 46.7459 194.28 46.7459C195.241 46.7459 196.141 46.9308 196.98 47.3007C197.843 47.6706 198.509 48.1884 198.977 48.8542V46.524C198.977 45.5623 198.681 44.8102 198.089 44.2677C197.522 43.7006 196.721 43.417 195.685 43.417C194.058 43.417 192.591 44.0581 191.284 45.3403L189.619 42.3074C191.419 40.5813 193.713 39.7182 196.499 39.7182C198.595 39.7182 200.272 40.2361 201.529 41.2717C202.812 42.2827 203.453 43.8732 203.453 46.0431V58.0271ZM195.981 55.475C197.362 55.475 198.361 54.9078 198.977 53.7735V51.4803C198.336 50.3213 197.337 49.7419 195.981 49.7419C195.143 49.7419 194.465 50.0131 193.947 50.5556C193.454 51.0734 193.207 51.7639 193.207 52.6269C193.207 53.49 193.454 54.1804 193.947 54.6982C194.465 55.216 195.143 55.475 195.981 55.475ZM214.827 58.0271H210.351V44.0458H206.431V40.1621H218.785V44.0458H214.827V58.0271ZM228.889 58.471C226.374 58.471 224.401 57.5709 222.971 55.7709C221.541 53.9461 220.826 51.7145 220.826 49.0761C220.826 46.4376 221.541 44.2184 222.971 42.4183C224.401 40.6183 226.374 39.7182 228.889 39.7182C231.429 39.7182 233.414 40.6183 234.844 42.4183C236.274 44.2184 236.989 46.4376 236.989 49.0761C236.989 51.7392 236.274 53.9708 234.844 55.7709C233.414 57.5709 231.429 58.471 228.889 58.471ZM228.889 54.5503C230.048 54.5503 230.923 54.0324 231.515 52.9968C232.107 51.9611 232.403 50.6542 232.403 49.0761C232.403 47.498 232.107 46.2034 231.515 45.1924C230.923 44.1567 230.048 43.6389 228.889 43.6389C227.755 43.6389 226.892 44.1567 226.3 45.1924C225.733 46.2281 225.449 47.5226 225.449 49.0761C225.449 50.6542 225.733 51.9611 226.3 52.9968C226.892 54.0324 227.755 54.5503 228.889 54.5503ZM249.385 58.471C247.461 58.471 245.957 57.5709 244.872 55.7709V64.8328H240.434V40.1621H244.872V42.4183C246.006 40.6183 247.511 39.7182 249.385 39.7182C251.407 39.7182 253.009 40.5566 254.193 42.2334C255.401 43.8855 256.005 46.1664 256.005 49.0761C256.005 51.9611 255.401 54.2544 254.193 55.9558C253.009 57.6326 251.407 58.471 249.385 58.471ZM247.942 54.5503C249.052 54.5503 249.902 54.0448 250.494 53.0338C251.111 52.0228 251.419 50.7036 251.419 49.0761C251.419 47.4733 251.111 46.1664 250.494 45.1554C249.902 44.1444 249.052 43.6389 247.942 43.6389C247.35 43.6389 246.759 43.8362 246.167 44.2307C245.6 44.6253 245.168 45.1184 244.872 45.7102V52.442C245.168 53.0338 245.6 53.5393 246.167 53.9585C246.759 54.353 247.35 54.5503 247.942 54.5503ZM266.544 58.471C264.029 58.471 262.056 57.5709 260.626 55.7709C259.196 53.9461 258.481 51.7145 258.481 49.0761C258.481 46.4376 259.196 44.2184 260.626 42.4183C262.056 40.6183 264.029 39.7182 266.544 39.7182C269.084 39.7182 271.069 40.6183 272.499 42.4183C273.929 44.2184 274.645 46.4376 274.645 49.0761C274.645 51.7392 273.929 53.9708 272.499 55.7709C271.069 57.5709 269.084 58.471 266.544 58.471ZM266.544 54.5503C267.703 54.5503 268.579 54.0324 269.17 52.9968C269.762 51.9611 270.058 50.6542 270.058 49.0761C270.058 47.498 269.762 46.2034 269.17 45.1924C268.579 44.1567 267.703 43.6389 266.544 43.6389C265.41 43.6389 264.547 44.1567 263.955 45.1924C263.388 46.2281 263.104 47.5226 263.104 49.0761C263.104 50.6542 263.388 51.9611 263.955 52.9968C264.547 54.0324 265.41 54.5503 266.544 54.5503ZM296.804 58.0271H292.403V47.1897L288.408 58.0271H286.485L282.527 47.1897V58.0271H278.089V40.1621H283.785L287.447 50.1118L291.145 40.1621H296.804V58.0271ZM313.753 58.0271H309.314V40.1621H313.753V46.8199H319.338V40.1621H323.814V58.0271H319.338V50.7036H313.753V58.0271ZM341.9 58.0271H337.425V56.2517C336.932 56.9421 336.254 57.4846 335.391 57.8791C334.552 58.2737 333.665 58.471 332.728 58.471C331.223 58.471 329.929 57.9408 328.844 56.8805C327.759 55.8202 327.216 54.3777 327.216 52.5529C327.216 50.7036 327.747 49.2734 328.807 48.2624C329.892 47.2514 331.199 46.7459 332.728 46.7459C333.689 46.7459 334.589 46.9308 335.428 47.3007C336.291 47.6706 336.956 48.1884 337.425 48.8542V46.524C337.425 45.5623 337.129 44.8102 336.537 44.2677C335.97 43.7006 335.169 43.417 334.133 43.417C332.506 43.417 331.038 44.0581 329.732 45.3403L328.067 42.3074C329.867 40.5813 332.16 39.7182 334.947 39.7182C337.043 39.7182 338.72 40.2361 339.977 41.2717C341.259 42.2827 341.9 43.8732 341.9 46.0431V58.0271ZM334.429 55.475C335.81 55.475 336.808 54.9078 337.425 53.7735V51.4803C336.784 50.3213 335.785 49.7419 334.429 49.7419C333.591 49.7419 332.912 50.0131 332.395 50.5556C331.901 51.0734 331.655 51.7639 331.655 52.6269C331.655 53.49 331.901 54.1804 332.395 54.6982C332.912 55.216 333.591 55.475 334.429 55.475ZM368.882 58.0271H364.444V46.1911C364.444 44.4896 363.654 43.6389 362.076 43.6389C361.411 43.6389 360.794 43.8608 360.227 44.3047C359.66 44.7239 359.204 45.2417 358.858 45.8582V58.0271H354.383V33.3564H358.858V42.4923C359.352 41.7279 360.067 41.0744 361.004 40.532C361.965 39.9895 362.989 39.7182 364.074 39.7182C367.279 39.7182 368.882 41.321 368.882 44.5266V58.0271ZM387.746 58.0271H383.307V46.1911C383.307 44.4896 382.518 43.6389 380.94 43.6389C380.274 43.6389 379.658 43.8608 379.091 44.3047C378.523 44.7239 378.067 45.2417 377.722 45.8582V58.0271H373.247V33.3564H377.722V42.4923C378.215 41.7279 378.93 41.0744 379.867 40.532C380.829 39.9895 381.852 39.7182 382.937 39.7182C386.143 39.7182 387.746 41.321 387.746 44.5266V58.0271ZM396.771 57.6202C396.228 58.1627 395.562 58.434 394.773 58.434C393.984 58.434 393.306 58.1504 392.739 57.5832C392.172 57.0161 391.888 56.3503 391.888 55.5859C391.888 54.7968 392.172 54.1187 392.739 53.5516C393.306 52.9845 393.984 52.7009 394.773 52.7009C395.538 52.7009 396.204 52.9845 396.771 53.5516C397.338 54.1187 397.621 54.7968 397.621 55.5859C397.621 56.375 397.338 57.0531 396.771 57.6202ZM406.238 58.0271H401.799V40.1621H406.238V42.6033C406.756 41.7895 407.458 41.1114 408.346 40.5689C409.258 40.0018 410.183 39.7182 411.12 39.7182V44.0828C410.824 44.0088 410.467 43.9718 410.048 43.9718C409.332 43.9718 408.605 44.1814 407.865 44.6006C407.15 44.9951 406.608 45.5006 406.238 46.1171V58.0271ZM428.479 58.0271H424.04V55.7709C423.523 56.5353 422.795 57.1764 421.858 57.6942C420.921 58.212 419.898 58.471 418.788 58.471C415.607 58.471 414.017 56.8682 414.017 53.6626V40.1621H418.455V51.9611C418.455 53.6872 419.244 54.5503 420.822 54.5503C422.154 54.5503 423.227 53.8228 424.04 52.368V40.1621H428.479V58.0271Z" fill="white"/>
  <path d="M438.513 46.3324L442.323 46.3324L446.946 52.9902L442.323 59.537L438.513 59.537L443.136 52.9902L438.513 46.3324ZM444.764 46.3324L448.536 46.3324L453.16 52.9902L448.536 59.537L444.764 59.537L449.387 52.9902L444.764 46.3324Z" fill="white"/>
  </svg>
  