<svg width="273" height="248" viewBox="0 0 273 248" fill="none" xmlns="http://www.w3.org/2000/svg">
  <path d="M98.3321 51.397C106.279 45.3092 114.335 39.6771 122.413 34.5553C131.406 28.8502 140.812 23.5826 150.283 18.9712C161.365 13.5942 173.014 8.9281 184.597 5.57433C198.881 1.4368 213.708 -0.841577 227.382 0.288498C245.41 1.76489 259.584 8.96456 267.161 22.7442C277.068 40.7889 274.804 68.2753 257.015 102.305C236.396 141.748 199.73 181.283 154.659 210.847C113.856 237.604 75.405 249.999 45.9241 247.738C23.5631 246.025 10.4992 235.964 4.38094 222.476C-0.322059 212.159 -0.953481 199.783 1.13674 187.097C2.81328 176.89 6.25343 166.227 10.9782 155.692C14.9627 146.779 19.9705 137.684 25.8275 128.607C31.0095 120.569 36.6052 112.931 42.3533 105.786C47.7095 99.1336 53.4359 92.6266 59.3146 86.4476C65.041 80.4327 71.1592 74.4724 77.4952 68.7492C83.9183 62.9347 90.9075 57.1021 98.3321 51.397Z" fill="#D6001C"/>
  </svg>
  