<svg viewBox="0 0 349 378" fill="none" xmlns="http://www.w3.org/2000/svg">
  <path
    d="M125.392 78.288C135.526 69.015 145.799 60.4361 156.1 52.6346C167.567 43.9447 179.561 35.9211 191.639 28.8969C205.771 20.7067 220.625 13.5993 235.396 8.49083C253.61 2.18853 272.518 -1.28189 289.954 0.43944C312.943 2.68828 331.018 13.6548 340.68 34.6439C353.313 62.1297 350.426 103.997 327.742 155.831C301.449 215.911 254.693 276.13 197.219 321.162C145.188 361.919 96.1554 380.798 58.5618 377.355C30.0473 374.746 13.3884 359.42 5.58652 338.875C-0.410685 323.161 -1.21587 304.31 1.44956 284.987C3.58745 269.439 7.9743 253.197 13.9993 237.15C19.0802 223.574 25.4661 209.72 32.9349 195.894C39.5429 183.65 46.6785 172.017 54.0084 161.134C60.8386 151 68.1407 141.089 75.6372 131.677C82.9394 122.515 90.7413 113.436 98.8208 104.719C107.011 95.8623 115.924 86.978 125.392 78.288Z"
    fill="#D6001C" />
</svg>
  