<svg width="308" height="122" viewBox="0 0 308 122" fill="none" xmlns="http://www.w3.org/2000/svg">
  <path d="M20.14 28.5088H15.1076L9.00022 19.7142L15.1076 11.0662H20.14L14.0327 19.7142L20.14 28.5088ZM11.8829 28.5088H6.89929L0.791937 19.7142L6.89929 11.0662H11.8829L5.77554 19.7142L11.8829 28.5088Z" fill="white"/>
  <path d="M37.9583 32.5869H32.2907V8.9881H38.1538V22.2777L45.4337 8.9881H51.4434V32.5869H45.5315V18.7599L37.9583 32.5869ZM81.1007 8.9881H86.9638V27.4567H89.6021V38.5966H83.6902V32.5869H57.2087V8.9881H63.0718V27.4567H69.1303V8.9881H75.0422V27.4567H81.1007V8.9881ZM99.1025 32.5869H93.4349V8.9881H99.2979V22.2777L106.578 8.9881H112.588V32.5869H106.676V18.7599L99.1025 32.5869ZM127.636 32.5869H121.724V14.1183H116.545V8.9881H132.864V14.1183H127.636V32.5869ZM146.554 33.1732C143.231 33.1732 140.56 32.0332 138.541 29.7531C136.554 27.473 135.56 24.4763 135.56 20.7631C135.56 17.2452 136.521 14.3137 138.443 11.9685C140.365 9.59069 142.922 8.40179 146.114 8.40179C149.306 8.40179 151.798 9.5744 153.589 11.9196C155.381 14.2323 156.276 17.2615 156.276 21.0074V22.6686H141.472C141.603 24.3623 142.156 25.7467 143.133 26.8216C144.111 27.8965 145.462 28.4339 147.189 28.4339C148.068 28.4339 148.98 28.2385 149.925 27.8476C150.869 27.4242 151.667 26.8541 152.319 26.1375L155.006 29.6554C152.856 32.0006 150.039 33.1732 146.554 33.1732ZM150.609 18.6621C150.544 17.1964 150.153 15.9098 149.436 14.8023C148.72 13.6948 147.58 13.1411 146.016 13.1411C144.518 13.1411 143.394 13.6948 142.645 14.8023C141.928 15.9098 141.537 17.1964 141.472 18.6621H150.609ZM183.221 33.1732C180.68 33.1732 178.693 31.9843 177.26 29.6065V41.5769H171.397V8.9881H177.26V11.9685C178.759 9.59069 180.745 8.40179 183.221 8.40179C185.892 8.40179 188.009 9.50926 189.573 11.7242C191.169 13.9066 191.967 16.9195 191.967 20.7631C191.967 24.5741 191.169 27.6033 189.573 29.8508C188.009 32.0658 185.892 33.1732 183.221 33.1732ZM181.315 27.9942C182.781 27.9942 183.905 27.3264 184.687 25.991C185.501 24.6555 185.908 22.9129 185.908 20.7631C185.908 18.6459 185.501 16.9195 184.687 15.584C183.905 14.2486 182.781 13.5808 181.315 13.5808C180.534 13.5808 179.752 13.8414 178.97 14.3626C178.221 14.8837 177.651 15.5352 177.26 16.3169V25.2092C177.651 25.991 178.221 26.6587 178.97 27.2124C179.752 27.7336 180.534 27.9942 181.315 27.9942ZM214.585 32.5869H208.673V30.2417C208.022 31.1537 207.126 31.8703 205.986 32.3915C204.878 32.9126 203.706 33.1732 202.468 33.1732C200.481 33.1732 198.771 32.4729 197.338 31.0723C195.905 29.6717 195.188 27.7662 195.188 25.3558C195.188 22.9129 195.888 21.0237 197.289 19.6882C198.722 18.3527 200.448 17.685 202.468 17.685C203.738 17.685 204.927 17.9293 206.035 18.4179C207.175 18.9064 208.054 19.5905 208.673 20.4699V17.3918C208.673 16.1215 208.282 15.128 207.5 14.4114C206.751 13.6623 205.693 13.2877 204.325 13.2877C202.175 13.2877 200.237 14.1346 198.51 15.8283L196.312 11.8219C198.69 9.54183 201.719 8.40179 205.399 8.40179C208.168 8.40179 210.383 9.08582 212.044 10.4539C213.738 11.7893 214.585 13.8903 214.585 16.7567V32.5869ZM204.715 29.2157C206.539 29.2157 207.859 28.4665 208.673 26.9681V23.9389C207.826 22.408 206.507 21.6425 204.715 21.6425C203.608 21.6425 202.712 22.0008 202.028 22.7174C201.377 23.4015 201.051 24.3135 201.051 25.4535C201.051 26.5936 201.377 27.5056 202.028 28.1896C202.712 28.8736 203.608 29.2157 204.715 29.2157ZM226.336 25.9421C227.118 27.3102 228.258 27.9942 229.756 27.9942C231.255 27.9942 232.395 27.3102 233.176 25.9421C233.991 24.5415 234.398 22.7989 234.398 20.7142C234.398 18.6947 233.991 17.0009 233.176 15.6329C232.395 14.2649 231.255 13.5808 229.756 13.5808C228.258 13.5808 227.118 14.2649 226.336 15.6329C225.554 17.0009 225.164 18.6947 225.164 20.7142C225.164 22.7989 225.554 24.5415 226.336 25.9421ZM229.756 33.1732C226.336 33.1732 223.698 31.9355 221.841 29.4599C220.017 26.9519 219.105 23.6946 219.105 19.6882C219.105 13.7274 219.887 9.47669 221.45 6.93603C223.046 4.3628 225.815 2.73417 229.756 2.05015C232.395 1.59413 233.714 0.910103 233.714 -0.00192792H239.675C239.675 3.35305 236.922 5.48655 231.418 6.39858C227.085 7.11518 224.675 8.92295 224.186 11.8219C225.75 9.54183 227.997 8.40179 230.929 8.40179C233.893 8.40179 236.222 9.59069 237.916 11.9685C239.61 14.3463 240.456 17.2615 240.456 20.7142C240.456 24.1995 239.512 27.1473 237.623 29.5577C235.766 31.968 233.144 33.1732 229.756 33.1732ZM254.531 33.1732C251.209 33.1732 248.603 31.9843 246.714 29.6065C244.825 27.1962 243.88 24.2483 243.88 20.7631C243.88 17.2778 244.825 14.3463 246.714 11.9685C248.603 9.59069 251.209 8.40179 254.531 8.40179C257.886 8.40179 260.508 9.59069 262.397 11.9685C264.287 14.3463 265.231 17.2778 265.231 20.7631C265.231 24.2809 264.287 27.2287 262.397 29.6065C260.508 31.9843 257.886 33.1732 254.531 33.1732ZM254.531 27.9942C256.062 27.9942 257.218 27.3102 258 25.9421C258.782 24.5741 259.173 22.8477 259.173 20.7631C259.173 18.6784 258.782 16.9684 258 15.6329C257.218 14.2649 256.062 13.5808 254.531 13.5808C253.033 13.5808 251.893 14.2649 251.111 15.6329C250.362 17.0009 249.987 18.711 249.987 20.7631C249.987 22.8477 250.362 24.5741 251.111 25.9421C251.893 27.3102 253.033 27.9942 254.531 27.9942ZM279.064 32.5869H273.152V14.1183H267.973V8.9881H284.292V14.1183H279.064V32.5869ZM287.672 41.8212L288.552 36.6422C289.008 36.8702 289.513 36.9842 290.066 36.9842C291.369 36.9842 292.233 36.4142 292.656 35.2741L293.438 33.0266L285.474 8.9881H291.728L296.467 25.5024L301.255 8.9881H307.509L298.275 36.5933C297.591 38.678 296.63 40.1112 295.392 40.8929C294.154 41.7072 292.526 42.1307 290.506 42.1632C289.366 42.1632 288.422 42.0492 287.672 41.8212ZM57.0133 76.5869H51.1991V62.2713L45.9223 76.5869H43.3817L38.1538 62.2713V76.5869H32.2907V52.9881H39.815L44.652 66.1311L49.5379 52.9881H57.0133V76.5869ZM80.9179 76.5869H75.0059V74.2417C74.3545 75.1537 73.4587 75.8703 72.3187 76.3915C71.2112 76.9126 70.0386 77.1732 68.8009 77.1732C66.8139 77.1732 65.1039 76.4729 63.6707 75.0723C62.2375 73.6717 61.5209 71.7662 61.5209 69.3558C61.5209 66.9129 62.2212 65.0237 63.6218 63.6882C65.055 62.3527 66.7814 61.685 68.8009 61.685C70.0712 61.685 71.2601 61.9293 72.3676 62.4179C73.5076 62.9064 74.3871 63.5905 75.0059 64.4699V61.3918C75.0059 60.1215 74.6151 59.128 73.8333 58.4114C73.0842 57.6623 72.0255 57.2877 70.6575 57.2877C68.5077 57.2877 66.5696 58.1346 64.8433 59.8283L62.6446 55.8219C65.0224 53.5418 68.0517 52.4018 71.7324 52.4018C74.5011 52.4018 76.716 53.0858 78.3772 54.4539C80.071 55.7893 80.9179 57.8903 80.9179 60.7567V76.5869ZM71.0484 73.2157C72.8724 73.2157 74.1916 72.4665 75.0059 70.9681V67.9389C74.159 66.408 72.8399 65.6425 71.0484 65.6425C69.9409 65.6425 69.0452 66.0008 68.3611 66.7174C67.7097 67.4015 67.384 68.3135 67.384 69.4535C67.384 70.5936 67.7097 71.5056 68.3611 72.1896C69.0452 72.8736 69.9409 73.2157 71.0484 73.2157ZM110.551 52.9881H116.415V76.5869H86.6595V52.9881H92.5226V71.4567H98.5811V52.9881H104.493V71.4567H110.551V52.9881ZM127.838 76.5869H122.17V52.9881H128.033V66.2777L135.313 52.9881H141.323V76.5869H135.411V62.7599L127.838 76.5869ZM152.951 76.5869H147.088V52.9881H152.951V61.7827H160.329V52.9881H166.241V76.5869H160.329V66.9129H152.951V76.5869ZM177.674 76.5869H172.006V52.9881H177.869V66.2777L185.149 52.9881H191.159V76.5869H185.247V62.7599L177.674 76.5869ZM206.5 77.1732C203.276 77.1732 200.67 76.0169 198.683 73.7042C196.696 71.3916 195.703 68.4112 195.703 64.7631C195.703 61.1475 196.696 58.1834 198.683 55.8708C200.67 53.5581 203.276 52.4018 206.5 52.4018C209.758 52.4018 212.266 53.4604 214.025 55.5776L211.093 59.6329C209.986 58.2649 208.666 57.5808 207.135 57.5808C205.474 57.5808 204.155 58.2649 203.178 59.6329C202.233 60.9684 201.761 62.6784 201.761 64.7631C201.761 66.8803 202.233 68.6229 203.178 69.991C204.155 71.3264 205.474 71.9942 207.135 71.9942C208.666 71.9942 209.986 71.3102 211.093 69.9421L214.025 73.9974C212.266 76.1146 209.758 77.1732 206.5 77.1732ZM227.26 76.5869H221.348V58.1183H216.169V52.9881H232.488V58.1183H227.26V76.5869ZM245.836 77.1732C242.513 77.1732 239.908 75.9843 238.018 73.6065C236.129 71.1962 235.185 68.2483 235.185 64.7631C235.185 61.2778 236.129 58.3463 238.018 55.9685C239.908 53.5907 242.513 52.4018 245.836 52.4018C249.191 52.4018 251.813 53.5907 253.702 55.9685C255.591 58.3463 256.536 61.2778 256.536 64.7631C256.536 68.2809 255.591 71.2287 253.702 73.6065C251.813 75.9843 249.191 77.1732 245.836 77.1732ZM245.836 71.9942C247.367 71.9942 248.523 71.3102 249.305 69.9421C250.087 68.5741 250.477 66.8477 250.477 64.7631C250.477 62.6784 250.087 60.9684 249.305 59.6329C248.523 58.2649 247.367 57.5808 245.836 57.5808C244.338 57.5808 243.197 58.2649 242.416 59.6329C241.667 61.0009 241.292 62.711 241.292 64.7631C241.292 66.8477 241.667 68.5741 242.416 69.9421C243.197 71.3102 244.338 71.9942 245.836 71.9942ZM285.808 76.5869H279.994V62.2713L274.717 76.5869H272.177L266.949 62.2713V76.5869H261.086V52.9881H268.61L273.447 66.1311L278.333 52.9881H285.808V76.5869ZM38.1538 120.587H32.2907V96.9881H38.1538V105.783H45.5315V96.9881H51.4434V120.587H45.5315V110.913H38.1538V120.587ZM75.3353 120.587H69.4234V118.242C68.772 119.154 67.8762 119.87 66.7362 120.391C65.6287 120.913 64.4561 121.173 63.2184 121.173C61.2314 121.173 59.5214 120.473 58.0882 119.072C56.655 117.672 55.9384 115.766 55.9384 113.356C55.9384 110.913 56.6387 109.024 58.0393 107.688C59.4725 106.353 61.1989 105.685 63.2184 105.685C64.4887 105.685 65.6776 105.929 66.7851 106.418C67.9251 106.906 68.8046 107.59 69.4234 108.47V105.392C69.4234 104.121 69.0326 103.128 68.2508 102.411C67.5017 101.662 66.443 101.288 65.075 101.288C62.9252 101.288 60.9871 102.135 59.2608 103.828L57.0621 99.8219C59.4399 97.5418 62.4692 96.4018 66.1499 96.4018C68.9186 96.4018 71.1335 97.0858 72.7947 98.4539C74.4885 99.7893 75.3353 101.89 75.3353 104.757V120.587ZM65.4659 117.216C67.2899 117.216 68.6091 116.466 69.4234 114.968V111.939C68.5765 110.408 67.2574 109.643 65.4659 109.643C64.3584 109.643 63.4627 110.001 62.7786 110.717C62.1272 111.401 61.8015 112.313 61.8015 113.454C61.8015 114.594 62.1272 115.506 62.7786 116.19C63.4627 116.874 64.3584 117.216 65.4659 117.216ZM110.977 120.587H105.114V104.952C105.114 102.705 104.071 101.581 101.987 101.581C101.107 101.581 100.293 101.874 99.5438 102.46C98.7946 103.014 98.192 103.698 97.736 104.512V120.587H91.8241V87.9981H97.736V100.066C98.3874 99.0565 99.332 98.1933 100.57 97.4767C101.84 96.7601 103.192 96.4018 104.625 96.4018C108.86 96.4018 110.977 98.519 110.977 102.753V120.587ZM135.895 120.587H130.032V104.952C130.032 102.705 128.989 101.581 126.905 101.581C126.025 101.581 125.211 101.874 124.462 102.46C123.713 103.014 123.11 103.698 122.654 104.512V120.587H116.742V87.9981H122.654V100.066C123.305 99.0565 124.25 98.1933 125.488 97.4767C126.758 96.7601 128.11 96.4018 129.543 96.4018C133.778 96.4018 135.895 98.519 135.895 102.753V120.587ZM147.816 120.049C147.1 120.766 146.22 121.124 145.178 121.124C144.136 121.124 143.24 120.75 142.491 120.001C141.741 119.251 141.367 118.372 141.367 117.362C141.367 116.32 141.741 115.424 142.491 114.675C143.24 113.926 144.136 113.551 145.178 113.551C146.188 113.551 147.067 113.926 147.816 114.675C148.565 115.424 148.94 116.32 148.94 117.362C148.94 118.405 148.565 119.3 147.816 120.049ZM160.322 120.587H154.459V96.9881H160.322V100.213C161.006 99.1379 161.934 98.2421 163.107 97.5255C164.312 96.7764 165.533 96.4018 166.771 96.4018V102.167C166.38 102.069 165.908 102.021 165.354 102.021C164.41 102.021 163.449 102.297 162.472 102.851C161.527 103.372 160.81 104.04 160.322 104.854V120.587ZM189.701 120.587H183.838V117.607C183.154 118.616 182.193 119.463 180.956 120.147C179.718 120.831 178.366 121.173 176.9 121.173C172.698 121.173 170.597 119.056 170.597 114.822V96.9881H176.461V112.574C176.461 114.854 177.503 115.994 179.587 115.994C181.346 115.994 182.763 115.033 183.838 113.112V96.9881H189.701V120.587Z" fill="white"/>
  <path d="M200.904 100.818L205.937 100.818L212.044 109.612L205.937 118.26L200.904 118.26L207.012 109.612L200.904 100.818ZM209.161 100.818L214.145 100.818L220.252 109.612L214.145 118.26L209.161 118.26L215.269 109.612L209.161 100.818Z" fill="white"/>
  </svg>
  