<svg width="165" height="191" viewBox="0 0 165 191" fill="none" xmlns="http://www.w3.org/2000/svg">
  <path d="M59.3636 39.5144C64.1614 34.8341 69.0249 30.504 73.9015 26.5664C79.3302 22.1803 85.0087 18.1305 90.7266 14.5852C97.4171 10.4513 104.449 6.86399 111.442 4.28559C120.065 1.10462 129.017 -0.647011 137.271 0.221799C148.155 1.35686 156.712 6.89202 161.287 17.4859C167.267 31.3588 165.9 52.4905 155.161 78.6529C142.713 108.977 120.578 139.372 93.3686 162.101C68.7357 182.672 45.5224 192.201 27.7246 190.463C14.2252 189.146 6.33842 181.411 2.6448 171.041C-0.194429 163.11 -0.575621 153.595 0.686257 143.842C1.69839 135.994 3.77523 127.797 6.6276 119.697C9.03306 112.845 12.0563 105.852 15.5922 98.8738C18.7206 92.694 22.0988 86.8226 25.5689 81.3294C28.8025 76.2147 32.2595 71.212 35.8085 66.4616C39.2656 61.8373 42.9592 57.255 46.7843 52.8549C50.6619 48.3847 54.8813 43.9005 59.3636 39.5144Z" fill="#D6001C"/>
  </svg>
  