<svg
  viewBox="0 0 46 45"
  fill="none"
  xmlns="http://www.w3.org/2000/svg"
>
  <path
    fill-rule="evenodd"
    clip-rule="evenodd"
    d="M45.5916 22.5C45.5916 34.9266 35.5181 45 23.0916 45C10.665 45 0.591553 34.9266 0.591553 22.5C0.591553 10.0734 10.665 0 23.0916 0C35.5181 0 45.5916 10.0734 45.5916 22.5ZM13.2534 11.6953V19.3362C14.4316 17.9492 15.8439 17.251 17.4817 17.251C18.3253 17.251 19.0807 17.4101 19.7584 17.7255C20.438 18.039 20.9461 18.4415 21.2892 18.93C21.6342 19.4233 21.8674 19.9633 21.9934 20.5585C22.1185 21.151 22.1811 22.0729 22.1811 23.3233V31.493H18.5206V24.1347C18.5206 22.6747 18.4542 21.75 18.3149 21.3569C18.1843 20.9718 17.9254 20.6419 17.5803 20.421C17.2277 20.186 16.7889 20.07 16.259 20.07C15.6524 20.07 15.1084 20.2197 14.6354 20.5174C14.152 20.8169 13.8051 21.2642 13.5852 21.8623C13.3615 22.4613 13.2497 23.3457 13.2534 24.5166L13.2497 31.493H9.59385V11.6953H13.2534ZM27.6707 11.6953V19.3362C28.8498 17.9492 30.2611 17.251 31.8981 17.251C32.7388 17.251 33.4999 17.4101 34.1785 17.7255C34.8553 18.039 35.3633 18.4415 35.7046 18.93C36.0489 19.42 36.2885 19.9741 36.4088 20.5585C36.5349 21.151 36.5974 22.0729 36.5974 23.3233V31.493H32.9407V24.1347C32.9407 22.6747 32.8715 21.75 32.7321 21.3569C32.6016 20.9713 32.3418 20.6412 31.9957 20.421C31.6469 20.186 31.2042 20.07 30.6744 20.07C30.0687 20.07 29.5247 20.2197 29.0508 20.5174C28.574 20.8169 28.2252 21.2642 28.0025 21.8623C27.7826 22.4613 27.6707 23.3457 27.6707 24.5166V31.493H24.0149V11.6953H27.6707Z"
    fill="white"
  />
</svg>