<svg width="189" height="218" viewBox="0 0 189 218" fill="none" xmlns="http://www.w3.org/2000/svg">
  <path d="M68.0761 45.1797C73.578 39.8283 79.1553 34.8774 84.7476 30.3752C90.9731 25.3603 97.4849 20.7299 104.042 16.6763C111.715 11.9498 119.779 7.84809 127.798 4.90002C137.687 1.26299 147.952 -0.739773 157.418 0.253599C169.899 1.55139 179.712 7.88014 184.958 19.9929C191.816 35.8548 190.249 60.0162 177.933 89.9295C163.659 124.601 138.274 159.353 107.072 185.341C78.8236 208.862 52.2034 219.757 31.7936 217.77C16.3129 216.264 7.26868 207.42 3.03296 195.563C-0.222964 186.495 -0.660102 175.616 0.786976 164.464C1.94765 155.492 4.3293 146.119 7.6003 136.858C10.3588 129.023 13.8257 121.028 17.8806 113.049C21.4681 105.984 25.3421 99.2704 29.3215 92.9897C33.0297 87.1416 36.9941 81.4217 41.064 75.9902C45.0284 70.7029 49.2641 65.4637 53.6505 60.4327C58.0973 55.3217 62.9359 50.1946 68.0761 45.1797Z" fill="#D6001C"/>
  </svg>
  