<svg width="305" height="316" viewBox="0 0 305 316" fill="none" xmlns="http://www.w3.org/2000/svg">
  <path d="M121.53 57.7828C130.568 50.4329 139.664 43.7 148.721 37.6487C158.804 30.9078 169.266 24.7887 179.717 19.5494C191.943 13.4441 204.675 8.33904 217.179 4.97511C232.597 0.824373 248.359 -0.799233 262.503 2.00561C281.152 5.68562 295.083 16.6194 301.325 35.6868C309.484 60.6545 303.787 97.0358 281.084 140.653C254.768 191.209 211.682 240.361 161.027 275.438C115.17 307.184 73.5094 320.03 42.9941 314.218C19.8483 309.81 7.42428 295.172 2.66957 276.632C-0.991544 262.449 -0.150684 245.91 3.57018 229.218C6.55849 215.787 11.4439 201.918 17.6556 188.34C22.8974 176.851 29.23 165.218 36.4473 153.689C42.8338 143.479 49.6036 133.843 56.473 124.877C62.8735 116.528 69.6428 108.409 76.5315 100.741C83.2411 93.2766 90.3535 85.9227 97.6645 78.9049C105.078 71.7741 113.084 64.6728 121.53 57.7828Z" fill="#D6001C"/>
  </svg>
  