<svg width="217" height="67" viewBox="0 0 217 67" fill="none" xmlns="http://www.w3.org/2000/svg">
  <path d="M11.2162 16.6663H8.4396L5.0699 11.8139L8.4396 7.04244H11.2162L7.84653 11.8139L11.2162 16.6663ZM6.6604 16.6663H3.91072L0.541027 11.8139L3.91072 7.04244H6.6604L3.2907 11.8139L6.6604 16.6663Z" fill="white"/>
  <path d="M21.0474 18.3646H17.9203V5.34412H21.1552V12.6766L25.1719 5.34412H28.4877V18.3646H25.2258V10.7356L21.0474 18.3646ZM44.8509 5.34412H48.0858V15.5341H49.5415V21.6804H46.2797V18.3646H31.6687V5.34412H34.9036V15.5341H38.2463V5.34412H41.5082V15.5341H44.8509V5.34412ZM54.7833 18.3646H51.6562V5.34412H54.8911V12.6766L58.9078 5.34412H62.2236V18.3646H58.9617V10.7356L54.7833 18.3646ZM70.5265 18.3646H67.2647V8.17466H64.4072V5.34412H73.411V8.17466H70.5265V18.3646ZM80.9642 18.6881C79.131 18.6881 77.6574 18.0591 76.5431 16.8011C75.4468 15.5431 74.8987 13.8897 74.8987 11.8409C74.8987 9.89995 75.4289 8.28249 76.4892 6.98853C77.5495 5.67659 78.9603 5.02063 80.7215 5.02063C82.4828 5.02063 83.8576 5.66761 84.8461 6.96157C85.8345 8.23756 86.3287 9.90893 86.3287 11.9757V12.8922H78.1606C78.2325 13.8268 78.538 14.5906 79.0771 15.1836C79.6163 15.7767 80.3621 16.0732 81.3146 16.0732C81.7998 16.0732 82.3031 15.9654 82.8242 15.7497C83.3454 15.5161 83.7857 15.2016 84.1452 14.8062L85.6278 16.7472C84.4417 18.0411 82.8871 18.6881 80.9642 18.6881ZM83.2016 10.6817C83.1657 9.87299 82.95 9.16311 82.5547 8.55207C82.1593 7.94103 81.5303 7.63551 80.6676 7.63551C79.8409 7.63551 79.2209 7.94103 78.8076 8.55207C78.4122 9.16311 78.1965 9.87299 78.1606 10.6817H83.2016ZM101.195 18.6881C99.7934 18.6881 98.6971 18.0321 97.9064 16.7202V23.3248H94.6715V5.34412H97.9064V6.98853C98.7331 5.67659 99.8293 5.02063 101.195 5.02063C102.669 5.02063 103.837 5.63166 104.7 6.85374C105.58 8.05785 106.021 9.72023 106.021 11.8409C106.021 13.9436 105.58 15.615 104.7 16.855C103.837 18.0771 102.669 18.6881 101.195 18.6881ZM100.144 15.8306C100.953 15.8306 101.573 15.4622 102.004 14.7254C102.453 13.9885 102.678 13.027 102.678 11.8409C102.678 10.6727 102.453 9.72023 102.004 8.98339C101.573 8.24655 100.953 7.87813 100.144 7.87813C99.7125 7.87813 99.2812 8.0219 98.8499 8.30945C98.4365 8.597 98.122 8.95643 97.9064 9.38775V14.294C98.122 14.7254 98.4365 15.0938 98.8499 15.3993C99.2812 15.6868 99.7125 15.8306 100.144 15.8306ZM118.5 18.3646H115.238V17.0707C114.879 17.5739 114.385 17.9692 113.756 18.2568C113.144 18.5443 112.497 18.6881 111.815 18.6881C110.718 18.6881 109.775 18.3017 108.984 17.5289C108.193 16.7562 107.798 15.7048 107.798 14.3749C107.798 13.027 108.184 11.9847 108.957 11.2478C109.748 10.511 110.7 10.1426 111.815 10.1426C112.515 10.1426 113.171 10.2774 113.782 10.5469C114.411 10.8165 114.897 11.1939 115.238 11.6791V9.98082C115.238 9.27992 115.023 8.73179 114.591 8.33641C114.178 7.92306 113.594 7.71638 112.839 7.71638C111.653 7.71638 110.584 8.18365 109.631 9.11818L108.418 6.90766C109.73 5.64964 111.401 5.02063 113.432 5.02063C114.96 5.02063 116.182 5.39803 117.098 6.15284C118.033 6.88968 118.5 8.04886 118.5 9.63037V18.3646ZM113.055 16.5046C114.061 16.5046 114.789 16.0912 115.238 15.2645V13.5931C114.771 12.7485 114.043 12.3261 113.055 12.3261C112.444 12.3261 111.949 12.5238 111.572 12.9192C111.213 13.2966 111.033 13.7998 111.033 14.4288C111.033 15.0578 111.213 15.561 111.572 15.9384C111.949 16.3158 112.444 16.5046 113.055 16.5046ZM124.984 14.6984C125.415 15.4532 126.044 15.8306 126.871 15.8306C127.697 15.8306 128.327 15.4532 128.758 14.6984C129.207 13.9256 129.432 12.9641 129.432 11.8139C129.432 10.6997 129.207 9.76516 128.758 9.01035C128.327 8.25554 127.697 7.87813 126.871 7.87813C126.044 7.87813 125.415 8.25554 124.984 9.01035C124.552 9.76516 124.337 10.6997 124.337 11.8139C124.337 12.9641 124.552 13.9256 124.984 14.6984ZM126.871 18.6881C124.984 18.6881 123.528 18.0052 122.504 16.6393C121.497 15.2555 120.994 13.4583 120.994 11.2478C120.994 7.959 121.425 5.61369 122.288 4.2119C123.169 2.79213 124.696 1.89355 126.871 1.51614C128.327 1.26454 129.054 0.887132 129.054 0.383924H132.343C132.343 2.23501 130.825 3.41216 127.787 3.91537C125.397 4.31074 124.067 5.30817 123.798 6.90766C124.66 5.64964 125.9 5.02063 127.518 5.02063C129.153 5.02063 130.438 5.67659 131.373 6.98853C132.307 8.30046 132.775 9.90893 132.775 11.8139C132.775 13.7369 132.253 15.3633 131.211 16.6933C130.187 18.0232 128.74 18.6881 126.871 18.6881ZM140.54 18.6881C138.707 18.6881 137.269 18.0321 136.227 16.7202C135.185 15.3903 134.663 13.7639 134.663 11.8409C134.663 9.91792 135.185 8.30046 136.227 6.98853C137.269 5.67659 138.707 5.02063 140.54 5.02063C142.391 5.02063 143.838 5.67659 144.88 6.98853C145.923 8.30046 146.444 9.91792 146.444 11.8409C146.444 13.7818 145.923 15.4083 144.88 16.7202C143.838 18.0321 142.391 18.6881 140.54 18.6881ZM140.54 15.8306C141.385 15.8306 142.023 15.4532 142.454 14.6984C142.885 13.9436 143.101 12.9911 143.101 11.8409C143.101 10.6907 142.885 9.74719 142.454 9.01035C142.023 8.25554 141.385 7.87813 140.54 7.87813C139.713 7.87813 139.084 8.25554 138.653 9.01035C138.24 9.76516 138.033 10.7087 138.033 11.8409C138.033 12.9911 138.24 13.9436 138.653 14.6984C139.084 15.4532 139.713 15.8306 140.54 15.8306ZM154.076 18.3646H150.814V8.17466H147.957V5.34412H156.961V8.17466H154.076V18.3646ZM158.826 23.4596L159.311 20.6021C159.562 20.7279 159.841 20.7908 160.147 20.7908C160.865 20.7908 161.342 20.4763 161.575 19.8473L162.007 18.6072L157.613 5.34412H161.063L163.678 14.4558L166.32 5.34412H169.77L164.675 20.5751C164.298 21.7253 163.768 22.5161 163.085 22.9474C162.402 23.3967 161.503 23.6303 160.389 23.6483C159.76 23.6483 159.239 23.5854 158.826 23.4596ZM27.9216 42.3646H24.6597V41.0707C24.3003 41.5739 23.806 41.9692 23.177 42.2568C22.566 42.5443 21.919 42.6881 21.2361 42.6881C20.1398 42.6881 19.1963 42.3017 18.4055 41.5289C17.6148 40.7562 17.2194 39.7048 17.2194 38.3749C17.2194 37.027 17.6058 35.9847 18.3786 35.2478C19.1693 34.511 20.1218 34.1426 21.2361 34.1426C21.937 34.1426 22.593 34.2774 23.204 34.5469C23.833 34.8165 24.3182 35.1939 24.6597 35.6791V33.9808C24.6597 33.2799 24.444 32.7318 24.0127 32.3364C23.5994 31.9231 23.0153 31.7164 22.2605 31.7164C21.0743 31.7164 20.005 32.1836 19.0525 33.1182L17.8394 30.9077C19.1514 29.6496 20.8227 29.0206 22.8535 29.0206C24.3811 29.0206 25.6032 29.398 26.5198 30.1528C27.4543 30.8897 27.9216 32.0489 27.9216 33.6304V42.3646ZM22.4761 40.5046C23.4826 40.5046 24.2104 40.0912 24.6597 39.2645V37.5931C24.1924 36.7485 23.4646 36.3261 22.4761 36.3261C21.8651 36.3261 21.3709 36.5238 20.9935 36.9192C20.634 37.2966 20.4543 37.7998 20.4543 38.4288C20.4543 39.0578 20.634 39.561 20.9935 39.9384C21.3709 40.3158 21.8651 40.5046 22.4761 40.5046ZM30.0921 45.6804V39.7767C30.6492 39.6868 31.0715 39.4083 31.3591 38.941C31.6466 38.4558 31.8623 37.4853 32.0061 36.0296L32.6261 29.3441H41.6569V39.5341H43.0047V45.6804H39.7698V42.3646H33.327V45.6804H30.0921ZM35.5645 32.1747L35.241 36.1374C35.1152 37.647 34.6749 38.7793 33.92 39.5341H38.395V32.1747H35.5645ZM58.7417 42.3646H55.5337V34.4661L52.6223 42.3646H51.2205L48.336 34.4661V42.3646H45.1011V29.3441H49.2526L51.9214 36.5957L54.6171 29.3441H58.7417V42.3646ZM65.0567 42.3646H61.9296V29.3441H65.1645V36.6766L69.1812 29.3441H72.497V42.3646H69.2351V34.7356L65.0567 42.3646ZM78.9129 42.3646H75.678V29.3441H78.9129V34.1965H82.9835V29.3441H86.2453V42.3646H82.9835V37.027H78.9129V42.3646ZM92.5534 42.3646H89.4263V29.3441H92.6612V36.6766L96.6779 29.3441H99.9937V42.3646H96.7318V34.7356L92.5534 42.3646ZM108.458 42.6881C106.679 42.6881 105.241 42.0501 104.145 40.7741C103.049 39.4981 102.501 37.8537 102.501 35.8409C102.501 33.846 103.049 32.2106 104.145 30.9346C105.241 29.6586 106.679 29.0206 108.458 29.0206C110.256 29.0206 111.639 29.6047 112.61 30.7729L110.992 33.0103C110.381 32.2555 109.653 31.8781 108.809 31.8781C107.892 31.8781 107.164 32.2555 106.625 33.0103C106.104 33.7472 105.843 34.6907 105.843 35.8409C105.843 37.0091 106.104 37.9705 106.625 38.7254C107.164 39.4622 107.892 39.8306 108.809 39.8306C109.653 39.8306 110.381 39.4532 110.992 38.6984L112.61 40.9359C111.639 42.104 110.256 42.6881 108.458 42.6881ZM119.913 42.3646H116.651V32.1747H113.793V29.3441H122.797V32.1747H119.913V42.3646ZM131.482 42.6881C130.081 42.6881 128.984 42.0321 128.194 40.7202V47.3248H124.959V29.3441H128.194V30.9885C129.02 29.6766 130.117 29.0206 131.482 29.0206C132.956 29.0206 134.124 29.6317 134.987 30.8537C135.868 32.0578 136.308 33.7202 136.308 35.8409C136.308 37.9436 135.868 39.615 134.987 40.855C134.124 42.0771 132.956 42.6881 131.482 42.6881ZM130.431 39.8306C131.24 39.8306 131.86 39.4622 132.291 38.7254C132.74 37.9885 132.965 37.027 132.965 35.8409C132.965 34.6727 132.74 33.7202 132.291 32.9834C131.86 32.2465 131.24 31.8781 130.431 31.8781C130 31.8781 129.568 32.0219 129.137 32.3095C128.724 32.597 128.409 32.9564 128.194 33.3878V38.294C128.409 38.7254 128.724 39.0938 129.137 39.3993C129.568 39.6868 130 39.8306 130.431 39.8306ZM148.787 42.3646H145.525V41.0707C145.166 41.5739 144.672 41.9692 144.043 42.2568C143.432 42.5443 142.785 42.6881 142.102 42.6881C141.006 42.6881 140.062 42.3017 139.271 41.5289C138.481 40.7562 138.085 39.7048 138.085 38.3749C138.085 37.027 138.472 35.9847 139.244 35.2478C140.035 34.511 140.988 34.1426 142.102 34.1426C142.803 34.1426 143.459 34.2774 144.07 34.5469C144.699 34.8165 145.184 35.1939 145.525 35.6791V33.9808C145.525 33.2799 145.31 32.7318 144.878 32.3364C144.465 31.9231 143.881 31.7164 143.126 31.7164C141.94 31.7164 140.871 32.1836 139.918 33.1182L138.705 30.9077C140.017 29.6496 141.688 29.0206 143.719 29.0206C145.247 29.0206 146.469 29.398 147.386 30.1528C148.32 30.8897 148.787 32.0489 148.787 33.6304V42.3646ZM143.342 40.5046C144.348 40.5046 145.076 40.0912 145.525 39.2645V37.5931C145.058 36.7485 144.33 36.3261 143.342 36.3261C142.731 36.3261 142.237 36.5238 141.859 36.9192C141.5 37.2966 141.32 37.7998 141.32 38.4288C141.32 39.0578 141.5 39.561 141.859 39.9384C142.237 40.3158 142.731 40.5046 143.342 40.5046ZM157.077 42.3646H153.815V32.1747H150.958V29.3441H159.962V32.1747H157.077V42.3646ZM167.326 42.6881C165.493 42.6881 164.055 42.0321 163.013 40.7202C161.971 39.3903 161.449 37.7639 161.449 35.8409C161.449 33.9179 161.971 32.3005 163.013 30.9885C164.055 29.6766 165.493 29.0206 167.326 29.0206C169.177 29.0206 170.624 29.6766 171.666 30.9885C172.709 32.3005 173.23 33.9179 173.23 35.8409C173.23 37.7818 172.709 39.4083 171.666 40.7202C170.624 42.0321 169.177 42.6881 167.326 42.6881ZM167.326 39.8306C168.171 39.8306 168.809 39.4532 169.24 38.6984C169.671 37.9436 169.887 36.9911 169.887 35.8409C169.887 34.6907 169.671 33.7472 169.24 33.0103C168.809 32.2555 168.171 31.8781 167.326 31.8781C166.499 31.8781 165.87 32.2555 165.439 33.0103C165.026 33.7652 164.819 34.7087 164.819 35.8409C164.819 36.9911 165.026 37.9436 165.439 38.6984C165.87 39.4532 166.499 39.8306 167.326 39.8306ZM182.264 42.6881C180.862 42.6881 179.766 42.0321 178.975 40.7202V47.3248H175.74V29.3441H178.975V30.9885C179.802 29.6766 180.898 29.0206 182.264 29.0206C183.737 29.0206 184.906 29.6317 185.768 30.8537C186.649 32.0578 187.089 33.7202 187.089 35.8409C187.089 37.9436 186.649 39.615 185.768 40.855C184.906 42.0771 183.737 42.6881 182.264 42.6881ZM181.212 39.8306C182.021 39.8306 182.641 39.4622 183.072 38.7254C183.522 37.9885 183.746 37.027 183.746 35.8409C183.746 34.6727 183.522 33.7202 183.072 32.9834C182.641 32.2465 182.021 31.8781 181.212 31.8781C180.781 31.8781 180.35 32.0219 179.918 32.3095C179.505 32.597 179.191 32.9564 178.975 33.3878V38.294C179.191 38.7254 179.505 39.0938 179.918 39.3993C180.35 39.6868 180.781 39.8306 181.212 39.8306ZM194.77 42.6881C192.937 42.6881 191.499 42.0321 190.457 40.7202C189.415 39.3903 188.893 37.7639 188.893 35.8409C188.893 33.9179 189.415 32.3005 190.457 30.9885C191.499 29.6766 192.937 29.0206 194.77 29.0206C196.621 29.0206 198.068 29.6766 199.11 30.9885C200.153 32.3005 200.674 33.9179 200.674 35.8409C200.674 37.7818 200.153 39.4083 199.11 40.7202C198.068 42.0321 196.621 42.6881 194.77 42.6881ZM194.77 39.8306C195.615 39.8306 196.253 39.4532 196.684 38.6984C197.115 37.9436 197.331 36.9911 197.331 35.8409C197.331 34.6907 197.115 33.7472 196.684 33.0103C196.253 32.2555 195.615 31.8781 194.77 31.8781C193.943 31.8781 193.314 32.2555 192.883 33.0103C192.47 33.7652 192.263 34.7087 192.263 35.8409C192.263 36.9911 192.47 37.9436 192.883 38.6984C193.314 39.4532 193.943 39.8306 194.77 39.8306ZM216.825 42.3646H213.617V34.4661L210.705 42.3646H209.303L206.419 34.4661V42.3646H203.184V29.3441H207.336L210.004 36.5957L212.7 29.3441H216.825V42.3646ZM21.1552 66.3646H17.9203V53.3441H21.1552V58.1965H25.2258V53.3441H28.4877V66.3646H25.2258V61.027H21.1552V66.3646ZM41.6699 66.3646H38.4081V65.0707C38.0486 65.5739 37.5544 65.9692 36.9254 66.2568C36.3144 66.5443 35.6674 66.6881 34.9845 66.6881C33.8882 66.6881 32.9447 66.3017 32.1539 65.5289C31.3631 64.7562 30.9678 63.7048 30.9678 62.3749C30.9678 61.027 31.3542 59.9847 32.1269 59.2478C32.9177 58.511 33.8702 58.1426 34.9845 58.1426C35.6853 58.1426 36.3413 58.2774 36.9524 58.5469C37.5814 58.8165 38.0666 59.1939 38.4081 59.6791V57.9808C38.4081 57.2799 38.1924 56.7318 37.7611 56.3364C37.3477 55.9231 36.7636 55.7164 36.0088 55.7164C34.8227 55.7164 33.7534 56.1836 32.8009 57.1182L31.5878 54.9077C32.8997 53.6496 34.5711 53.0206 36.6019 53.0206C38.1295 53.0206 39.3516 53.398 40.2681 54.1528C41.2027 54.8897 41.6699 56.0489 41.6699 57.6304V66.3646ZM36.2245 64.5046C37.2309 64.5046 37.9588 64.0912 38.4081 63.2645V61.5931C37.9408 60.7485 37.2129 60.3261 36.2245 60.3261C35.6135 60.3261 35.1192 60.5238 34.7418 60.9192C34.3824 61.2966 34.2027 61.7998 34.2027 62.4288C34.2027 63.0578 34.3824 63.561 34.7418 63.9384C35.1192 64.3158 35.6135 64.5046 36.2245 64.5046ZM61.3348 66.3646H58.0999V57.7382C58.0999 56.4982 57.5248 55.8781 56.3747 55.8781C55.8894 55.8781 55.4401 56.0399 55.0268 56.3634C54.6134 56.6689 54.2809 57.0463 54.0293 57.4956V66.3646H50.7675V48.3839H54.0293V55.0424C54.3888 54.4853 54.91 54.0091 55.5929 53.6137C56.2938 53.2183 57.0396 53.0206 57.8304 53.0206C60.1667 53.0206 61.3348 54.1888 61.3348 56.5251V66.3646ZM75.0832 66.3646H71.8483V57.7382C71.8483 56.4982 71.2732 55.8781 70.123 55.8781C69.6378 55.8781 69.1885 56.0399 68.7751 56.3634C68.3618 56.6689 68.0293 57.0463 67.7777 57.4956V66.3646H64.5158V48.3839H67.7777V55.0424C68.1371 54.4853 68.6583 54.0091 69.3412 53.6137C70.0421 53.2183 70.788 53.0206 71.5787 53.0206C73.915 53.0206 75.0832 54.1888 75.0832 56.5251V66.3646ZM81.6608 66.0681C81.2655 66.4635 80.7802 66.6612 80.2051 66.6612C79.63 66.6612 79.1358 66.4545 78.7225 66.0411C78.3091 65.6278 78.1025 65.1425 78.1025 64.5854C78.1025 64.0103 78.3091 63.5161 78.7225 63.1028C79.1358 62.6894 79.63 62.4827 80.2051 62.4827C80.7623 62.4827 81.2475 62.6894 81.6608 63.1028C82.0742 63.5161 82.2809 64.0103 82.2809 64.5854C82.2809 65.1605 82.0742 65.6547 81.6608 66.0681ZM88.5607 66.3646H85.3258V53.3441H88.5607V55.1233C88.9381 54.5303 89.4503 54.036 90.0973 53.6407C90.7623 53.2273 91.4362 53.0206 92.1191 53.0206V56.2016C91.9035 56.1477 91.6429 56.1207 91.3374 56.1207C90.8162 56.1207 90.286 56.2735 89.7469 56.579C89.2257 56.8666 88.8303 57.235 88.5607 57.6843V66.3646ZM104.771 66.3646H101.536V64.7202C101.158 65.2773 100.628 65.7446 99.9452 66.122C99.2623 66.4994 98.5165 66.6881 97.7078 66.6881C95.3894 66.6881 94.2302 65.52 94.2302 63.1836V53.3441H97.4651V61.9436C97.4651 63.2016 98.0402 63.8306 99.1904 63.8306C100.161 63.8306 100.943 63.3004 101.536 62.2401V53.3441H104.771V66.3646Z" fill="white"/>
  <path d="M110.952 57.2174L113.728 57.2174L117.098 62.0697L113.728 66.8412L110.952 66.8412L114.321 62.0697L110.952 57.2174ZM115.508 57.2174L118.257 57.2174L121.627 62.0697L118.257 66.8412L115.508 66.8412L118.877 62.0697L115.508 57.2174Z" fill="white"/>
  </svg>
  