<svg width="114" height="45" viewBox="0 0 114 45" fill="none" xmlns="http://www.w3.org/2000/svg">
  <path d="M7.83285 9.95923H5.97961L3.73052 6.72055L5.97961 3.53585H7.83285L5.58377 6.72055L7.83285 9.95923ZM4.79209 9.95923H2.95683L0.707749 6.72055L2.95683 3.53585H4.79209L2.543 6.72055L4.79209 9.95923Z" fill="white"/>
  <path d="M14.3947 12.0928H12.3075V3.40231H14.4667V8.29632L17.1476 3.40231H19.3607V12.0928H17.1836V7.00084L14.3947 12.0928ZM30.2822 3.40231H32.4414V10.2035H33.413V14.3059H31.2358V12.0928H21.4838V3.40231H23.6429V10.2035H25.874V3.40231H28.0511V10.2035H30.2822V3.40231ZM36.9116 12.0928H34.8244V3.40231H36.9835V8.29632L39.6644 3.40231H41.8775V12.0928H39.7004V7.00084L36.9116 12.0928ZM47.4193 12.0928H45.2422V5.29154H43.3349V3.40231H49.3445V5.29154H47.4193V12.0928ZM54.3858 12.3087C51.9388 12.3087 50.3375 10.4734 50.3375 7.73854C50.3375 5.21957 51.8129 3.1864 54.2239 3.1864C56.6169 3.1864 57.9664 5.12961 57.9664 7.82851V8.44026H52.5146C52.6045 9.62778 53.3063 10.5634 54.6197 10.5634C55.2315 10.5634 56.0232 10.2575 56.509 9.71774L57.4986 11.0132C56.7249 11.8589 55.5553 12.3087 54.3858 12.3087ZM55.8792 6.96486C55.8432 6.06522 55.4474 4.93169 54.1879 4.93169C52.9824 4.93169 52.5506 6.06522 52.5146 6.96486H55.8792ZM67.8889 12.3087C67.0612 12.3087 66.2336 11.8949 65.6938 10.9952V15.4034H63.5347V3.40231H65.6938V4.49986C66.2336 3.63621 67.0432 3.1864 67.8889 3.1864C69.8501 3.1864 71.1096 4.8957 71.1096 7.73854C71.1096 10.5634 69.8501 12.3087 67.8889 12.3087ZM67.1872 10.4015C68.3027 10.4015 68.8785 9.26792 68.8785 7.73854C68.8785 6.22716 68.3027 5.09362 67.1872 5.09362C66.6114 5.09362 65.9817 5.52544 65.6938 6.10121V9.37588C65.9817 9.93365 66.6114 10.4015 67.1872 10.4015ZM79.4389 12.0928H77.2618V11.2291C76.776 11.9128 75.8584 12.3087 74.9768 12.3087C73.6093 12.3087 72.2958 11.2831 72.2958 9.42986C72.2958 7.52263 73.6093 6.60501 74.9768 6.60501C75.8764 6.60501 76.794 6.96486 77.2618 7.63059V6.49705C77.2618 5.56143 76.6861 4.98566 75.6605 4.98566C74.9048 4.98566 74.1671 5.29154 73.5193 5.92128L72.7097 4.44588C73.6273 3.56424 74.9408 3.1864 76.0563 3.1864C77.9455 3.1864 79.4389 4.03205 79.4389 6.26314V12.0928ZM75.8044 10.8513C76.3982 10.8513 76.9739 10.5454 77.2618 10.0236V8.90807C76.9739 8.38628 76.3982 8.06241 75.8044 8.06241C74.9947 8.06241 74.455 8.63818 74.455 9.46584C74.455 10.2935 74.9947 10.8513 75.8044 10.8513ZM85.0259 10.4015C86.1955 10.4015 86.7353 9.15997 86.7353 7.72055C86.7353 6.33511 86.1955 5.09362 85.0259 5.09362C83.8744 5.09362 83.3346 6.33511 83.3346 7.72055C83.3346 9.15997 83.8744 10.4015 85.0259 10.4015ZM85.0259 12.3087C82.417 12.3087 81.1035 10.1855 81.1035 7.34271C81.1035 2.9165 82.1471 1.35114 85.0259 0.847347C86.0515 0.66742 86.4834 0.469501 86.4834 0.0916539H88.6785C88.6785 1.78297 86.8432 2.25078 85.6377 2.4487C83.9104 2.73658 83.1547 3.40231 82.9748 4.44588C83.5146 3.65421 84.3782 3.1864 85.4578 3.1864C87.7249 3.1864 88.9663 5.30953 88.9663 7.72055C88.9663 10.1316 87.6349 12.3087 85.0259 12.3087ZM94.1495 12.3087C91.5945 12.3087 90.2271 10.1855 90.2271 7.73854C90.2271 5.30953 91.5945 3.1864 94.1495 3.1864C96.7405 3.1864 98.0899 5.30953 98.0899 7.73854C98.0899 10.1855 96.7405 12.3087 94.1495 12.3087ZM94.1495 10.4015C95.337 10.4015 95.8588 9.17796 95.8588 7.73854C95.8588 6.31712 95.337 5.09362 94.1495 5.09362C92.998 5.09362 92.4762 6.31712 92.4762 7.73854C92.4762 9.17796 92.998 10.4015 94.1495 10.4015ZM103.184 12.0928H101.007V5.29154H99.0996V3.40231H105.109V5.29154H103.184V12.0928ZM106.354 15.4934L106.678 13.5862C106.822 13.6581 107.074 13.7121 107.236 13.7121C107.721 13.7121 108.027 13.5322 108.189 13.0824L108.477 12.2547L105.544 3.40231H107.847L109.593 9.48383L111.356 3.40231H113.659L110.258 13.5682C109.719 15.1695 108.783 15.6013 107.398 15.6193C107.128 15.6193 106.588 15.5654 106.354 15.4934ZM12.1096 31.4934L12.4335 29.5862C12.5774 29.6581 12.8293 29.7121 12.9913 29.7121C13.4771 29.7121 13.7829 29.5322 13.9449 29.0824L14.2328 28.2547L11.3 19.4023H13.603L15.3483 25.4838L17.1116 19.4023H19.4147L16.014 29.5682C15.4743 31.1695 14.5386 31.6013 13.1532 31.6193C12.8833 31.6193 12.3435 31.5654 12.1096 31.4934ZM20.3191 19.4023H22.4962V22.0472C22.4962 22.9469 22.91 23.2887 23.8456 23.2887C24.4034 23.2887 24.9072 23.1448 25.1951 22.9829V19.4023H27.3722V28.0928H25.1951V24.6742C24.7453 24.962 23.9536 25.196 23.0899 25.196C21.0388 25.196 20.3191 24.3143 20.3191 22.7849V19.4023ZM31.5875 28.0928H29.5004V19.4023H31.6595V24.2963L34.3404 19.4023H36.5535V28.0928H34.3764V23.0008L31.5875 28.0928ZM42.0953 28.0928H39.9182V21.2915H38.0109V19.4023H44.0205V21.2915H42.0953V28.0928ZM49.0618 28.3087C46.6148 28.3087 45.0135 26.4734 45.0135 23.7385C45.0135 21.2196 46.4889 19.1864 48.8999 19.1864C51.2929 19.1864 52.6424 21.1296 52.6424 23.8285V24.4403H47.1906C47.2805 25.6278 47.9822 26.5634 49.2957 26.5634C49.9075 26.5634 50.6991 26.2575 51.1849 25.7177L52.1745 27.0132C51.4009 27.8589 50.2313 28.3087 49.0618 28.3087ZM50.5552 22.9649C50.5192 22.0652 50.1234 20.9317 48.8639 20.9317C47.6584 20.9317 47.2266 22.0652 47.1906 22.9649H50.5552ZM53.5873 28.3087V26.4914C54.235 26.4914 54.6488 26.0236 54.8647 23.8645L55.2786 19.4023H61.3061V28.0928H59.129V21.2915H57.2398L57.0059 24.0804C56.736 27.2291 55.6384 28.3087 53.5873 28.3087ZM67.0278 28.3087C64.5808 28.3087 62.9794 26.4734 62.9794 23.7385C62.9794 21.2196 64.4548 19.1864 66.8659 19.1864C69.2589 19.1864 70.6083 21.1296 70.6083 23.8285V24.4403H65.1565C65.2465 25.6278 65.9482 26.5634 67.2617 26.5634C67.8734 26.5634 68.6651 26.2575 69.1509 25.7177L70.1405 27.0132C69.3668 27.8589 68.1973 28.3087 67.0278 28.3087ZM68.5212 22.9649C68.4852 22.0652 68.0894 20.9317 66.8299 20.9317C65.6244 20.9317 65.1925 22.0652 65.1565 22.9649H68.5212ZM81.3233 28.0928H79.1821V22.8209L77.2389 28.0928H76.3033L74.3781 22.8209V28.0928H72.219V19.4023H74.9898L76.7711 24.2423L78.5704 19.4023H81.3233V28.0928ZM14.4667 44.0928H12.3075V35.4023H14.4667V38.641H17.1836V35.4023H19.3607V44.0928H17.1836V40.5302H14.4667V44.0928ZM28.1591 44.0928H25.982V43.2291C25.4962 43.9128 24.5786 44.3087 23.6969 44.3087C22.3295 44.3087 21.016 43.2831 21.016 41.4299C21.016 39.5226 22.3295 38.605 23.6969 38.605C24.5965 38.605 25.5142 38.9649 25.982 39.6306V38.497C25.982 37.5614 25.4062 36.9857 24.3806 36.9857C23.6249 36.9857 22.8872 37.2915 22.2395 37.9213L21.4298 36.4459C22.3475 35.5642 23.6609 35.1864 24.7765 35.1864C26.6657 35.1864 28.1591 36.0321 28.1591 38.2631V44.0928ZM24.5246 42.8513C25.1183 42.8513 25.6941 42.5454 25.982 42.0236V40.9081C25.6941 40.3863 25.1183 40.0624 24.5246 40.0624C23.7149 40.0624 23.1751 40.6382 23.1751 41.4658C23.1751 42.2935 23.7149 42.8513 24.5246 42.8513ZM41.2843 44.0928H39.1252V38.3351C39.1252 37.4355 38.6934 37.0936 37.9737 37.0936C37.272 37.0936 36.6962 37.6514 36.4083 38.1732V44.0928H34.2312V32.0917H36.4083V36.5358C36.8581 35.8521 37.8297 35.1864 38.9453 35.1864C40.5646 35.1864 41.2843 36.068 41.2843 37.5254V44.0928ZM50.4606 44.0928H48.3015V38.3351C48.3015 37.4355 47.8697 37.0936 47.1499 37.0936C46.4482 37.0936 45.8725 37.6514 45.5846 38.1732V44.0928H43.4075V32.0917H45.5846V36.5358C46.0344 35.8521 47.006 35.1864 48.1216 35.1864C49.7409 35.1864 50.4606 36.068 50.4606 37.5254V44.0928ZM53.8792 44.2907C53.1235 44.2907 52.4758 43.6609 52.4758 42.9053C52.4758 42.1496 53.1235 41.5018 53.8792 41.5018C54.6349 41.5018 55.2646 42.1496 55.2646 42.9053C55.2646 43.6609 54.6349 44.2907 53.8792 44.2907ZM59.4561 44.0928H57.297V35.4023H59.4561V36.5898C59.9419 35.8161 60.8955 35.1864 61.8311 35.1864V37.3095C61.6872 37.2735 61.5073 37.2556 61.3093 37.2556C60.6256 37.2556 59.816 37.7054 59.4561 38.2991V44.0928ZM70.2753 44.0928H68.1162V42.9952C67.6484 43.6789 66.6948 44.3087 65.5612 44.3087C63.9599 44.3087 63.2402 43.427 63.2402 41.9696V35.4023H65.3993V41.142C65.3993 42.0596 65.8311 42.4015 66.5508 42.4015C67.2526 42.4015 67.8103 41.8797 68.1162 41.3399V35.4023H70.2753V44.0928Z" fill="white"/>
  <path d="M74.4005 37.1023L76.2538 37.1023L78.5029 40.341L76.2538 43.5257L74.4005 43.5257L76.6496 40.341L74.4005 37.1023ZM77.4413 37.1023L79.2766 37.1023L81.5256 40.341L79.2766 43.5257L77.4413 43.5257L79.6904 40.341L77.4413 37.1023Z" fill="white"/>
  </svg>
  