<svg width="242" height="66" viewBox="0 0 242 66" fill="none" xmlns="http://www.w3.org/2000/svg">
  <path d="M19.6469 17.6638H16.7323V5.52794H19.7474V12.3622L23.4912 5.52794H26.5817V17.6638H23.5415V10.5531L19.6469 17.6638ZM41.8332 5.52794H44.8483V15.0256H46.2052V20.7543H43.1649V17.6638H29.5466V5.52794H32.5617V15.0256H35.6773V5.52794H38.7176V15.0256H41.8332V5.52794ZM51.0908 17.6638H48.1762V5.52794H51.1913V12.3622L54.9351 5.52794H58.0256V17.6638H54.9853V10.5531L51.0908 17.6638ZM65.7644 17.6638H62.7242V8.16617H60.0608V5.52794H68.4529V8.16617H65.7644V17.6638ZM75.4929 17.9653C73.7843 17.9653 72.4108 17.3791 71.3722 16.2065C70.3504 15.034 69.8395 13.4929 69.8395 11.5833C69.8395 9.77424 70.3337 8.26667 71.322 7.06062C72.3103 5.83782 73.6252 5.22642 75.2668 5.22642C76.9083 5.22642 78.1898 5.82945 79.1111 7.0355C80.0323 8.2248 80.493 9.78261 80.493 11.7089V12.5632H72.8798C72.9468 13.4343 73.2316 14.1462 73.7341 14.6989C74.2366 15.2517 74.9318 15.5281 75.8195 15.5281C76.2718 15.5281 76.7408 15.4276 77.2266 15.2266C77.7124 15.0088 78.1228 14.7157 78.4578 14.3472L79.8397 16.1563C78.7342 17.3623 77.2852 17.9653 75.4929 17.9653ZM77.5784 10.5029C77.5449 9.74911 77.3439 9.08746 76.9753 8.51794C76.6068 7.94841 76.0205 7.66365 75.2165 7.66365C74.446 7.66365 73.8681 7.94841 73.4828 8.51794C73.1143 9.08746 72.9133 9.74911 72.8798 10.5029H77.5784ZM94.3494 17.9653C93.0429 17.9653 92.0211 17.3539 91.284 16.1311V22.287H88.2689V5.52794H91.284V7.06062C92.0546 5.83782 93.0764 5.22642 94.3494 5.22642C95.723 5.22642 96.8118 5.79595 97.6158 6.93499C98.4366 8.05729 98.847 9.60673 98.847 11.5833C98.847 13.5431 98.4366 15.101 97.6158 16.2568C96.8118 17.3958 95.723 17.9653 94.3494 17.9653ZM93.3695 15.302C94.1233 15.302 94.7012 14.9586 95.1032 14.2718C95.522 13.585 95.7313 12.6889 95.7313 11.5833C95.7313 10.4945 95.522 9.60673 95.1032 8.91995C94.7012 8.23317 94.1233 7.88978 93.3695 7.88978C92.9675 7.88978 92.5655 8.02379 92.1634 8.2918C91.7782 8.55981 91.485 8.89483 91.284 9.29684V13.8698C91.485 14.2718 91.7782 14.6152 92.1634 14.9C92.5655 15.168 92.9675 15.302 93.3695 15.302ZM110.479 17.6638H107.438V16.4578C107.103 16.9268 106.643 17.2953 106.056 17.5633C105.487 17.8313 104.884 17.9653 104.247 17.9653C103.226 17.9653 102.346 17.6052 101.609 16.8849C100.872 16.1646 100.504 15.1847 100.504 13.9452C100.504 12.6889 100.864 11.7173 101.584 11.0305C102.321 10.3438 103.209 10.0004 104.247 10.0004C104.901 10.0004 105.512 10.126 106.082 10.3773C106.668 10.6285 107.12 10.9803 107.438 11.4326V9.84962C107.438 9.19634 107.237 8.68544 106.835 8.31693C106.45 7.93166 105.906 7.73903 105.202 7.73903C104.097 7.73903 103.1 8.17455 102.212 9.04558L101.081 6.98525C102.304 5.8127 103.862 5.22642 105.755 5.22642C107.179 5.22642 108.318 5.57819 109.172 6.28172C110.043 6.9685 110.479 8.04892 110.479 9.52298V17.6638ZM105.403 15.9301C106.341 15.9301 107.02 15.5449 107.438 14.7743V13.2165C107.003 12.4292 106.324 12.0356 105.403 12.0356C104.834 12.0356 104.373 12.2198 104.021 12.5884C103.686 12.9401 103.519 13.4091 103.519 13.9954C103.519 14.5817 103.686 15.0507 104.021 15.4025C104.373 15.7542 104.834 15.9301 105.403 15.9301ZM116.522 14.2467C116.924 14.9502 117.51 15.302 118.281 15.302C119.051 15.302 119.637 14.9502 120.039 14.2467C120.458 13.5264 120.668 12.6302 120.668 11.5582C120.668 10.5196 120.458 9.64861 120.039 8.94508C119.637 8.24155 119.051 7.88978 118.281 7.88978C117.51 7.88978 116.924 8.24155 116.522 8.94508C116.12 9.64861 115.919 10.5196 115.919 11.5582C115.919 12.6302 116.12 13.5264 116.522 14.2467ZM118.281 17.9653C116.522 17.9653 115.165 17.3288 114.21 16.0558C113.272 14.7659 112.803 13.0909 112.803 11.0305C112.803 7.96516 113.205 5.7792 114.009 4.47264C114.83 3.14934 116.254 2.3118 118.281 1.96004C119.637 1.72553 120.316 1.37376 120.316 0.904741H123.381C123.381 2.63006 121.966 3.72724 119.135 4.19625C116.907 4.56477 115.667 5.49443 115.416 6.98525C116.22 5.8127 117.376 5.22642 118.884 5.22642C120.408 5.22642 121.606 5.83782 122.477 7.06062C123.348 8.28343 123.783 9.78261 123.783 11.5582C123.783 13.3505 123.297 14.8665 122.326 16.106C121.371 17.3456 120.023 17.9653 118.281 17.9653ZM131.021 17.9653C129.313 17.9653 127.973 17.3539 127.001 16.1311C126.03 14.8916 125.544 13.3756 125.544 11.5833C125.544 9.79099 126.03 8.28343 127.001 7.06062C127.973 5.83782 129.313 5.22642 131.021 5.22642C132.747 5.22642 134.095 5.83782 135.067 7.06062C136.038 8.28343 136.524 9.79099 136.524 11.5833C136.524 13.3924 136.038 14.9083 135.067 16.1311C134.095 17.3539 132.747 17.9653 131.021 17.9653ZM131.021 15.302C131.809 15.302 132.403 14.9502 132.805 14.2467C133.207 13.5431 133.408 12.6554 133.408 11.5833C133.408 10.5113 133.207 9.63186 132.805 8.94508C132.403 8.24155 131.809 7.88978 131.021 7.88978C130.251 7.88978 129.664 8.24155 129.262 8.94508C128.877 9.64861 128.685 10.528 128.685 11.5833C128.685 12.6554 128.877 13.5431 129.262 14.2467C129.664 14.9502 130.251 15.302 131.021 15.302ZM143.638 17.6638H140.597V8.16617H137.934V5.52794H146.326V8.16617H143.638V17.6638ZM148.064 22.4126L148.517 19.7493C148.751 19.8665 149.011 19.9252 149.296 19.9252C149.966 19.9252 150.409 19.632 150.627 19.0458L151.029 17.89L146.934 5.52794H150.15L152.587 14.0205L155.049 5.52794H158.266L153.517 19.7242C153.165 20.7962 152.671 21.5332 152.034 21.9352C151.398 22.354 150.56 22.5718 149.522 22.5885C148.935 22.5885 148.45 22.5299 148.064 22.4126ZM19.6972 41.9653C17.9886 41.9653 16.6988 41.4209 15.8278 40.3321L17.2599 38.4477C17.863 39.1847 18.5665 39.5532 19.3705 39.5532C20.0741 39.5532 20.6603 39.302 21.1294 38.7994C21.5984 38.2802 21.9083 37.585 22.059 36.714H17.8881V34.3773H22.059C21.9083 33.523 21.5984 32.8529 21.1294 32.3672C20.6603 31.8814 20.0741 31.6385 19.3705 31.6385C18.5497 31.6385 17.8462 32.007 17.2599 32.7441L15.8278 30.8596C16.6988 29.7708 17.9886 29.2264 19.6972 29.2264C21.3387 29.2264 22.6704 29.8211 23.6922 31.0104C24.714 32.1997 25.2249 33.724 25.2249 35.5833C25.2249 37.4594 24.714 38.9921 23.6922 40.1814C22.6704 41.3707 21.3387 41.9653 19.6972 41.9653ZM26.6294 41.9653V39.4276C27.1152 39.4276 27.4921 39.1763 27.7601 38.6738C28.0448 38.1545 28.2626 37.183 28.4134 35.7592L28.9913 29.5279H37.4085V41.6638H34.3682V32.1662H31.73L31.4034 36.0607C31.2191 38.2048 30.7417 39.7291 29.9712 40.6337C29.2174 41.5214 28.1035 41.9653 26.6294 41.9653ZM45.3986 41.9653C43.69 41.9653 42.3164 41.3791 41.2779 40.2065C40.2561 39.034 39.7452 37.4929 39.7452 35.5833C39.7452 33.7742 40.2394 32.2667 41.2276 31.0606C42.2159 29.8378 43.5309 29.2264 45.1724 29.2264C46.814 29.2264 48.0954 29.8294 49.0167 31.0355C49.938 32.2248 50.3987 33.7826 50.3987 35.7089V36.5632H42.7855C42.8525 37.4343 43.1372 38.1462 43.6397 38.6989C44.1423 39.2517 44.8374 39.5281 45.7252 39.5281C46.1775 39.5281 46.6465 39.4276 47.1323 39.2266C47.618 39.0088 48.0284 38.7157 48.3634 38.3472L49.7454 40.1563C48.6398 41.3623 47.1909 41.9653 45.3986 41.9653ZM47.484 34.5029C47.4505 33.7491 47.2495 33.0875 46.881 32.5179C46.5125 31.9484 45.9262 31.6636 45.1222 31.6636C44.3516 31.6636 43.7737 31.9484 43.3885 32.5179C43.02 33.0875 42.819 33.7491 42.7855 34.5029H47.484ZM62.9998 41.6638H59.457L56.9444 36.915L55.663 38.6989V41.6638H52.6478V29.5279H55.663V35.0305L59.3565 29.5279H62.8741L59.0298 34.9803L62.9998 41.6638ZM69.4509 41.6638H66.4106V32.1662H63.7473V29.5279H72.1394V32.1662H69.4509V41.6638ZM80.2347 41.9653C78.9281 41.9653 77.9063 41.3539 77.1693 40.1311V46.287H74.1542V29.5279H77.1693V31.0606C77.9398 29.8378 78.9616 29.2264 80.2347 29.2264C81.6082 29.2264 82.697 29.7959 83.501 30.935C84.3218 32.0573 84.7322 33.6067 84.7322 35.5833C84.7322 37.5431 84.3218 39.101 83.501 40.2568C82.697 41.3958 81.6082 41.9653 80.2347 41.9653ZM79.2547 39.302C80.0085 39.302 80.5864 38.9586 80.9884 38.2718C81.4072 37.585 81.6166 36.6889 81.6166 35.5833C81.6166 34.4945 81.4072 33.6067 80.9884 32.92C80.5864 32.2332 80.0085 31.8898 79.2547 31.8898C78.8527 31.8898 78.4507 32.0238 78.0487 32.2918C77.6634 32.5598 77.3703 32.8948 77.1693 33.2968V37.8698C77.3703 38.2718 77.6634 38.6152 78.0487 38.9C78.4507 39.168 78.8527 39.302 79.2547 39.302ZM91.8914 41.9653C90.1828 41.9653 88.8428 41.3539 87.8712 40.1311C86.8997 38.8916 86.4139 37.3756 86.4139 35.5833C86.4139 33.791 86.8997 32.2834 87.8712 31.0606C88.8428 29.8378 90.1828 29.2264 91.8914 29.2264C93.6167 29.2264 94.9651 29.8378 95.9367 31.0606C96.9082 32.2834 97.394 33.791 97.394 35.5833C97.394 37.3924 96.9082 38.9083 95.9367 40.1311C94.9651 41.3539 93.6167 41.9653 91.8914 41.9653ZM91.8914 39.302C92.6787 39.302 93.2733 38.9502 93.6753 38.2467C94.0774 37.5431 94.2784 36.6554 94.2784 35.5833C94.2784 34.5113 94.0774 33.6319 93.6753 32.9451C93.2733 32.2415 92.6787 31.8898 91.8914 31.8898C91.1209 31.8898 90.5346 32.2415 90.1326 32.9451C89.7473 33.6486 89.5547 34.528 89.5547 35.5833C89.5547 36.6554 89.7473 37.5431 90.1326 38.2467C90.5346 38.9502 91.1209 39.302 91.8914 39.302ZM112.447 41.6638H109.457V34.3019L106.744 41.6638H105.437L102.749 34.3019V41.6638H99.7337V29.5279H103.603L106.091 36.2868L108.603 29.5279H112.447V41.6638ZM120.268 41.9653C118.56 41.9653 117.219 41.3539 116.248 40.1311C115.276 38.8916 114.791 37.3756 114.791 35.5833C114.791 33.791 115.276 32.2834 116.248 31.0606C117.219 29.8378 118.56 29.2264 120.268 29.2264C121.993 29.2264 123.342 29.8378 124.313 31.0606C125.285 32.2834 125.771 33.791 125.771 35.5833C125.771 37.3924 125.285 38.9083 124.313 40.1311C123.342 41.3539 121.993 41.9653 120.268 41.9653ZM120.268 39.302C121.055 39.302 121.65 38.9502 122.052 38.2467C122.454 37.5431 122.655 36.6554 122.655 35.5833C122.655 34.5113 122.454 33.6319 122.052 32.9451C121.65 32.2415 121.055 31.8898 120.268 31.8898C119.498 31.8898 118.911 32.2415 118.509 32.9451C118.124 33.6486 117.931 34.528 117.931 35.5833C117.931 36.6554 118.124 37.5431 118.509 38.2467C118.911 38.9502 119.498 39.302 120.268 39.302ZM131.126 41.6638H128.11V29.5279H131.126V34.0506H134.92V29.5279H137.96V41.6638H134.92V36.6889H131.126V41.6638ZM145.699 41.6638H142.658V32.1662H139.995V29.5279H148.387V32.1662H145.699V41.6638ZM159.724 41.6638H156.683V40.4578C156.348 40.9268 155.888 41.2953 155.301 41.5633C154.732 41.8313 154.129 41.9653 153.492 41.9653C152.471 41.9653 151.591 41.6052 150.854 40.8849C150.117 40.1646 149.749 39.1847 149.749 37.9452C149.749 36.6889 150.109 35.7173 150.829 35.0305C151.566 34.3438 152.454 34.0004 153.492 34.0004C154.146 34.0004 154.757 34.126 155.327 34.3773C155.913 34.6285 156.365 34.9803 156.683 35.4326V33.8496C156.683 33.1963 156.482 32.6854 156.08 32.3169C155.695 31.9317 155.151 31.739 154.447 31.739C153.342 31.739 152.345 32.1745 151.457 33.0456L150.327 30.9852C151.549 29.8127 153.107 29.2264 155 29.2264C156.424 29.2264 157.563 29.5782 158.417 30.2817C159.288 30.9685 159.724 32.0489 159.724 33.523V41.6638ZM154.648 39.9301C155.586 39.9301 156.265 39.5449 156.683 38.7743V37.2165C156.248 36.4292 155.57 36.0356 154.648 36.0356C154.079 36.0356 153.618 36.2198 153.266 36.5884C152.931 36.9401 152.764 37.4091 152.764 37.9954C152.764 38.5817 152.931 39.0507 153.266 39.4025C153.618 39.7542 154.079 39.9301 154.648 39.9301ZM164.938 41.6638H161.395L165.365 34.9803L161.521 29.5279H165.038L167.903 33.7994V29.5279H170.918V33.8496L173.807 29.5279H177.3L173.481 34.9803L177.45 41.6638H173.908L171.395 36.915L170.918 37.5934V41.6638H167.903V37.5431L167.45 36.915L164.938 41.6638ZM182.137 41.6638H179.122V29.5279H182.137V34.0506H185.931V29.5279H188.972V41.6638H185.931V36.6889H182.137V41.6638ZM194.851 41.6638H191.936V29.5279H194.952V36.3622L198.695 29.5279H201.786V41.6638H198.746V34.5531L194.851 41.6638ZM215.103 41.6638H211.56L209.047 36.915L207.766 38.6989V41.6638H204.751V29.5279H207.766V35.0305L211.459 29.5279H214.977L211.133 34.9803L215.103 41.6638ZM221.408 41.9653C219.7 41.9653 218.36 41.3539 217.388 40.1311C216.417 38.8916 215.931 37.3756 215.931 35.5833C215.931 33.791 216.417 32.2834 217.388 31.0606C218.36 29.8378 219.7 29.2264 221.408 29.2264C223.134 29.2264 224.482 29.8378 225.454 31.0606C226.425 32.2834 226.911 33.791 226.911 35.5833C226.911 37.3924 226.425 38.9083 225.454 40.1311C224.482 41.3539 223.134 41.9653 221.408 41.9653ZM221.408 39.302C222.196 39.302 222.79 38.9502 223.192 38.2467C223.594 37.5431 223.795 36.6554 223.795 35.5833C223.795 34.5113 223.594 33.6319 223.192 32.9451C222.79 32.2415 222.196 31.8898 221.408 31.8898C220.638 31.8898 220.052 32.2415 219.65 32.9451C219.264 33.6486 219.072 34.528 219.072 35.5833C219.072 36.6554 219.264 37.5431 219.65 38.2467C220.052 38.9502 220.638 39.302 221.408 39.302ZM241.964 41.6638H238.974V34.3019L236.261 41.6638H234.954L232.266 34.3019V41.6638H229.251V29.5279H233.12L235.607 36.2868L238.12 29.5279H241.964V41.6638ZM19.7474 65.6638H16.7323V53.5279H19.7474V58.0506H23.5415V53.5279H26.5817V65.6638H23.5415V60.6889H19.7474V65.6638ZM38.8683 65.6638H35.8281V64.4578C35.4931 64.9268 35.0324 65.2953 34.4462 65.5633C33.8766 65.8313 33.2736 65.9653 32.6371 65.9653C31.6153 65.9653 30.7359 65.6052 29.9989 64.8849C29.2618 64.1646 28.8933 63.1847 28.8933 61.9452C28.8933 60.6889 29.2534 59.7173 29.9737 59.0305C30.7108 58.3438 31.5985 58.0004 32.6371 58.0004C33.2904 58.0004 33.9018 58.126 34.4713 58.3773C35.0576 58.6285 35.5098 58.9803 35.8281 59.4326V57.8496C35.8281 57.1963 35.6271 56.6854 35.2251 56.3169C34.8398 55.9317 34.2954 55.739 33.5919 55.739C32.4863 55.739 31.4897 56.1745 30.6019 57.0456L29.4712 54.9852C30.694 53.8127 32.2518 53.2264 34.1446 53.2264C35.5685 53.2264 36.7075 53.5782 37.5618 54.2817C38.4328 54.9685 38.8683 56.0489 38.8683 57.523V65.6638ZM33.7929 63.9301C34.7309 63.9301 35.4093 63.5449 35.8281 62.7743V61.2165C35.3926 60.4292 34.7142 60.0356 33.7929 60.0356C33.2234 60.0356 32.7627 60.2198 32.411 60.5884C32.0759 60.9401 31.9084 61.4091 31.9084 61.9954C31.9084 62.5817 32.0759 63.0507 32.411 63.4025C32.7627 63.7542 33.2234 63.9301 33.7929 63.9301ZM57.1972 65.6638H54.1821V57.6235C54.1821 56.4677 53.6461 55.8898 52.574 55.8898C52.1217 55.8898 51.703 56.0405 51.3177 56.3421C50.9324 56.6268 50.6226 56.9786 50.3881 57.3973V65.6638H47.3478V48.9047H50.3881V55.1109C50.7231 54.5916 51.2088 54.1477 51.8454 53.7792C52.4986 53.4107 53.1938 53.2264 53.9308 53.2264C56.1084 53.2264 57.1972 54.3152 57.1972 56.4928V65.6638ZM70.0115 65.6638H66.9964V57.6235C66.9964 56.4677 66.4603 55.8898 65.3883 55.8898C64.936 55.8898 64.5173 56.0405 64.132 56.3421C63.7467 56.6268 63.4368 56.9786 63.2023 57.3973V65.6638H60.1621V48.9047H63.2023V55.1109C63.5374 54.5916 64.0231 54.1477 64.6596 53.7792C65.3129 53.4107 66.0081 53.2264 66.7451 53.2264C68.9227 53.2264 70.0115 54.3152 70.0115 56.4928V65.6638ZM76.1423 65.3874C75.7737 65.7559 75.3215 65.9402 74.7854 65.9402C74.2494 65.9402 73.7888 65.7476 73.4035 65.3623C73.0182 64.977 72.8256 64.5248 72.8256 64.0055C72.8256 63.4695 73.0182 63.0088 73.4035 62.6236C73.7888 62.2383 74.2494 62.0457 74.7854 62.0457C75.3047 62.0457 75.757 62.2383 76.1423 62.6236C76.5275 63.0088 76.7202 63.4695 76.7202 64.0055C76.7202 64.5415 76.5275 65.0022 76.1423 65.3874ZM82.5733 65.6638H79.5582V53.5279H82.5733V55.1863C82.9251 54.6335 83.4025 54.1728 84.0055 53.8043C84.6253 53.4191 85.2535 53.2264 85.89 53.2264V56.1913C85.689 56.141 85.4461 56.1159 85.1613 56.1159C84.6756 56.1159 84.1814 56.2583 83.6789 56.5431C83.1931 56.8111 82.8246 57.1545 82.5733 57.5732V65.6638ZM97.682 65.6638H94.6668V64.1311C94.3151 64.6504 93.8209 65.0859 93.1844 65.4377C92.5479 65.7894 91.8527 65.9653 91.0989 65.9653C88.9381 65.9653 87.8577 64.8765 87.8577 62.6989V53.5279H90.8728V61.5431C90.8728 62.7157 91.4088 63.302 92.4809 63.302C93.3854 63.302 94.1141 62.8078 94.6668 61.8195V53.5279H97.682V65.6638Z" fill="white"/>
  <path d="M10.3678 15.7673H7.77978L4.63902 11.2446L7.77978 6.79728H10.3678L7.227 11.2446L10.3678 15.7673ZM6.12146 15.7673H3.5586L0.417844 11.2446L3.5586 6.79728H6.12146L2.9807 11.2446L6.12146 15.7673Z" fill="white"/>
  <path d="M109.525 59.8775L106.384 64.4002H103.821L106.962 59.8775L103.821 55.4302H106.384L109.525 59.8775ZM113.771 59.8775L110.63 64.4002H108.042L111.183 59.8775L108.042 55.4302H110.63L113.771 59.8775Z" fill="white"/>
  </svg>
  