<svg width="285" height="111" viewBox="0 0 285 111" fill="none" xmlns="http://www.w3.org/2000/svg">
  <path d="M18.5199 26.656H13.9421L8.38649 18.656L13.9421 10.7892H18.5199L12.9643 18.656L18.5199 26.656ZM11.0087 26.656H6.47537L0.919769 18.656L6.47537 10.7892H11.0087L5.45314 18.656L11.0087 26.656Z" fill="white"/>
  <path d="M34.7285 30.4561H29.5729V8.98922H34.9062V21.0782L41.5285 8.98922H46.9952V30.4561H41.6174V17.8782L34.7285 30.4561ZM73.9732 8.98922H79.3066V25.7894H81.7066V35.9228H76.3288V30.4561H52.2397V8.98922H57.5731V25.7894H63.0842V8.98922H68.4621V25.7894H73.9732V8.98922ZM90.3487 30.4561H85.1931V8.98922H90.5265V21.0782L97.1487 8.98922H102.615V30.4561H97.2376V17.8782L90.3487 30.4561ZM116.304 30.4561H110.927V13.6559H106.215V8.98922H121.06V13.6559H116.304V30.4561ZM133.513 30.9894C130.491 30.9894 128.061 29.9523 126.224 27.8783C124.417 25.8042 123.513 23.0782 123.513 19.7004C123.513 16.5004 124.387 13.8337 126.135 11.7004C127.883 9.53737 130.209 8.45588 133.113 8.45588C136.017 8.45588 138.283 9.52256 139.913 11.6559C141.543 13.7596 142.357 16.5152 142.357 19.9226V21.4338H128.891C129.009 22.9745 129.513 24.2338 130.402 25.2116C131.291 26.1894 132.52 26.6782 134.091 26.6782C134.891 26.6782 135.72 26.5005 136.58 26.1449C137.439 25.7597 138.165 25.2412 138.757 24.5893L141.202 27.7894C139.246 29.9227 136.683 30.9894 133.513 30.9894ZM137.202 17.7893C137.143 16.4559 136.787 15.2856 136.135 14.2782C135.483 13.2707 134.446 12.767 133.024 12.767C131.661 12.767 130.639 13.2707 129.957 14.2782C129.305 15.2856 128.95 16.4559 128.891 17.7893H137.202ZM166.868 30.9894C164.557 30.9894 162.749 29.9079 161.445 27.7449V38.6339H156.112V8.98922H161.445V11.7004C162.808 9.53737 164.616 8.45588 166.868 8.45588C169.297 8.45588 171.223 9.4633 172.646 11.4781C174.097 13.4633 174.823 16.2041 174.823 19.7004C174.823 23.1671 174.097 25.9227 172.646 27.9671C171.223 29.982 169.297 30.9894 166.868 30.9894ZM165.134 26.2782C166.468 26.2782 167.49 25.6708 168.201 24.456C168.942 23.2412 169.312 21.656 169.312 19.7004C169.312 17.7745 168.942 16.2041 168.201 14.9893C167.49 13.7744 166.468 13.167 165.134 13.167C164.423 13.167 163.712 13.4041 163.001 13.8781C162.319 14.3522 161.801 14.9448 161.445 15.6559V23.7449C161.801 24.456 162.319 25.0634 163.001 25.5671C163.712 26.0412 164.423 26.2782 165.134 26.2782ZM195.398 30.4561H190.02V28.3227C189.428 29.1523 188.613 29.8042 187.576 30.2783C186.568 30.7524 185.502 30.9894 184.376 30.9894C182.568 30.9894 181.013 30.3524 179.709 29.0783C178.405 27.8042 177.754 26.0708 177.754 23.8782C177.754 21.656 178.391 19.9375 179.665 18.7226C180.968 17.5078 182.539 16.9004 184.376 16.9004C185.531 16.9004 186.613 17.1226 187.62 17.5671C188.657 18.0115 189.457 18.6337 190.02 19.4337V16.6337C190.02 15.4782 189.665 14.5745 188.954 13.9226C188.272 13.2411 187.309 12.9004 186.065 12.9004C184.109 12.9004 182.346 13.6707 180.776 15.2115L178.776 11.567C180.939 9.49293 183.694 8.45588 187.042 8.45588C189.561 8.45588 191.576 9.07811 193.087 10.3226C194.628 11.5374 195.398 13.4485 195.398 16.0559V30.4561ZM186.42 27.3894C188.08 27.3894 189.28 26.7079 190.02 25.3449V22.5893C189.25 21.1967 188.05 20.5004 186.42 20.5004C185.413 20.5004 184.598 20.8264 183.976 21.4782C183.383 22.1004 183.087 22.9301 183.087 23.9671C183.087 25.0042 183.383 25.8338 183.976 26.456C184.598 27.0783 185.413 27.3894 186.42 27.3894ZM206.088 24.4116C206.799 25.656 207.836 26.2782 209.199 26.2782C210.562 26.2782 211.599 25.656 212.31 24.4116C213.051 23.1375 213.421 21.5523 213.421 19.656C213.421 17.8189 213.051 16.2782 212.31 15.0337C211.599 13.7893 210.562 13.167 209.199 13.167C207.836 13.167 206.799 13.7893 206.088 15.0337C205.377 16.2782 205.021 17.8189 205.021 19.656C205.021 21.5523 205.377 23.1375 206.088 24.4116ZM209.199 30.9894C206.088 30.9894 203.688 29.8635 201.999 27.6116C200.34 25.3301 199.51 22.3671 199.51 18.7226C199.51 13.3004 200.221 9.43367 201.643 7.12254C203.095 4.78178 205.614 3.30029 209.199 2.67806C211.599 2.26324 212.799 1.64102 212.799 0.81138H218.221C218.221 3.86326 215.717 5.80401 210.71 6.63365C206.769 7.28551 204.577 8.92996 204.132 11.567C205.554 9.49293 207.599 8.45588 210.266 8.45588C212.962 8.45588 215.08 9.53737 216.621 11.7004C218.162 13.8633 218.932 16.5152 218.932 19.656C218.932 22.8264 218.073 25.5079 216.355 27.7005C214.666 29.8931 212.28 30.9894 209.199 30.9894ZM231.736 30.9894C228.713 30.9894 226.343 29.9079 224.624 27.7449C222.906 25.5523 222.047 22.8708 222.047 19.7004C222.047 16.53 222.906 13.8633 224.624 11.7004C226.343 9.53737 228.713 8.45588 231.736 8.45588C234.787 8.45588 237.173 9.53737 238.891 11.7004C240.61 13.8633 241.469 16.53 241.469 19.7004C241.469 22.9004 240.61 25.5819 238.891 27.7449C237.173 29.9079 234.787 30.9894 231.736 30.9894ZM231.736 26.2782C233.128 26.2782 234.18 25.656 234.891 24.4116C235.602 23.1671 235.958 21.5967 235.958 19.7004C235.958 17.8041 235.602 16.2485 234.891 15.0337C234.18 13.7893 233.128 13.167 231.736 13.167C230.373 13.167 229.336 13.7893 228.624 15.0337C227.943 16.2782 227.602 17.8337 227.602 19.7004C227.602 21.5967 227.943 23.1671 228.624 24.4116C229.336 25.656 230.373 26.2782 231.736 26.2782ZM254.052 30.4561H248.674V13.6559H243.963V8.98922H258.808V13.6559H254.052V30.4561ZM261.883 38.8561L262.683 34.145C263.097 34.3524 263.557 34.4561 264.06 34.4561C265.246 34.4561 266.031 33.9376 266.416 32.9005L267.127 30.8561L259.883 8.98922H265.572L269.883 24.0116L274.238 8.98922H279.927L271.527 34.1005C270.905 35.9968 270.031 37.3006 268.905 38.0117C267.779 38.7524 266.297 39.1376 264.46 39.1672C263.423 39.1672 262.564 39.0635 261.883 38.8561ZM46.0619 70.4561H40.6841V68.3227C40.0915 69.1523 39.2766 69.8042 38.2396 70.2783C37.2322 70.7524 36.1655 70.9894 35.0396 70.9894C33.2322 70.9894 31.6766 70.3524 30.3729 69.0783C29.0692 67.8042 28.4173 66.0708 28.4173 63.8782C28.4173 61.656 29.0543 59.9375 30.3284 58.7226C31.6321 57.5078 33.2025 56.9004 35.0396 56.9004C36.1951 56.9004 37.2766 57.1226 38.284 57.5671C39.3211 58.0115 40.1211 58.6337 40.6841 59.4337V56.6337C40.6841 55.4782 40.3285 54.5745 39.6174 53.9226C38.9359 53.2411 37.9729 52.9004 36.7285 52.9004C34.7729 52.9004 33.0099 53.6707 31.4396 55.2115L29.4395 51.567C31.6025 49.4929 34.3581 48.4559 37.7063 48.4559C40.2248 48.4559 42.2396 49.0781 43.7508 50.3226C45.2915 51.5374 46.0619 53.4485 46.0619 56.0559V70.4561ZM37.084 67.3894C38.7433 67.3894 39.9433 66.7079 40.6841 65.3449V62.5893C39.9137 61.1967 38.7137 60.5004 37.084 60.5004C36.0766 60.5004 35.2618 60.8264 34.6396 61.4782C34.047 62.1004 33.7507 62.9301 33.7507 63.9671C33.7507 65.0042 34.047 65.8338 34.6396 66.456C35.2618 67.0783 36.0766 67.3894 37.084 67.3894ZM62.4849 70.4561H51.2848V48.9892H62.1738C64.3368 48.9892 65.9664 49.5077 67.0627 50.5448C68.1887 51.5818 68.7516 52.9004 68.7516 54.5004C68.7516 55.7448 68.4109 56.7967 67.7294 57.656C67.0479 58.4856 66.159 59.0486 65.0627 59.3449C66.2776 59.6115 67.2702 60.2338 68.0405 61.2115C68.8109 62.1893 69.1961 63.3301 69.1961 64.6338C69.1961 66.3523 68.6331 67.7597 67.5072 68.856C66.3813 69.9227 64.7072 70.4561 62.4849 70.4561ZM61.2405 66.1449C62.8997 66.1449 63.7294 65.4042 63.7294 63.9227C63.7294 63.2708 63.5072 62.7375 63.0627 62.3227C62.6479 61.8782 62.0405 61.656 61.2405 61.656H56.6182V66.1449H61.2405ZM61.0627 57.3448C62.5738 57.3448 63.3294 56.6782 63.3294 55.3448C63.3294 54.7226 63.1368 54.2337 62.7516 53.8781C62.3664 53.493 61.8034 53.3004 61.0627 53.3004H56.6182V57.3448H61.0627ZM82.483 70.4561H77.1052V53.6559H72.394V48.9892H87.2386V53.6559H82.483V70.4561ZM99.3804 70.9894C96.3581 70.9894 93.9877 69.9079 92.2692 67.7449C90.5507 65.5523 89.6914 62.8708 89.6914 59.7004C89.6914 56.53 90.5507 53.8633 92.2692 51.7004C93.9877 49.5374 96.3581 48.4559 99.3804 48.4559C102.432 48.4559 104.817 49.5374 106.536 51.7004C108.254 53.8633 109.114 56.53 109.114 59.7004C109.114 62.9004 108.254 65.5819 106.536 67.7449C104.817 69.9079 102.432 70.9894 99.3804 70.9894ZM99.3804 66.2782C100.773 66.2782 101.825 65.656 102.536 64.4116C103.247 63.1671 103.603 61.5967 103.603 59.7004C103.603 57.8041 103.247 56.2485 102.536 55.0337C101.825 53.7893 100.773 53.167 99.3804 53.167C98.0174 53.167 96.9803 53.7893 96.2692 55.0337C95.5877 56.2782 95.247 57.8337 95.247 59.7004C95.247 61.5967 95.5877 63.1671 96.2692 64.4116C96.9803 65.656 98.0174 66.2782 99.3804 66.2782ZM121.964 70.9894C119.03 70.9894 116.66 69.9375 114.852 67.8338C113.045 65.7301 112.141 63.019 112.141 59.7004C112.141 56.4115 113.045 53.7152 114.852 51.6115C116.66 49.5077 119.03 48.4559 121.964 48.4559C124.926 48.4559 127.208 49.4189 128.808 51.3448L126.141 55.0337C125.134 53.7893 123.934 53.167 122.541 53.167C121.03 53.167 119.83 53.7893 118.941 55.0337C118.082 56.2485 117.652 57.8041 117.652 59.7004C117.652 61.6264 118.082 63.2116 118.941 64.456C119.83 65.6708 121.03 66.2782 122.541 66.2782C123.934 66.2782 125.134 65.656 126.141 64.4116L128.808 68.1005C127.208 70.0264 124.926 70.9894 121.964 70.9894ZM130.759 70.9894V66.5005C131.618 66.5005 132.285 66.056 132.759 65.1671C133.263 64.2486 133.648 62.5301 133.915 60.0115L134.937 48.9892H149.826V70.4561H144.448V53.6559H139.781L139.204 60.5449C138.878 64.3375 138.033 67.0338 136.67 68.6338C135.337 70.2042 133.366 70.9894 130.759 70.9894ZM163.959 70.9894C160.937 70.9894 158.507 69.9523 156.67 67.8783C154.863 65.8042 153.959 63.0782 153.959 59.7004C153.959 56.5004 154.833 53.8337 156.581 51.7004C158.33 49.5374 160.656 48.4559 163.559 48.4559C166.463 48.4559 168.73 49.5226 170.359 51.6559C171.989 53.7596 172.804 56.5152 172.804 59.9226V61.4338H159.337C159.456 62.9745 159.959 64.2338 160.848 65.2116C161.737 66.1894 162.967 66.6782 164.537 66.6782C165.337 66.6782 166.167 66.5005 167.026 66.1449C167.885 65.7597 168.611 65.2412 169.204 64.5893L171.648 67.7894C169.693 69.9227 167.13 70.9894 163.959 70.9894ZM167.648 57.7893C167.589 56.4559 167.233 55.2856 166.582 54.2782C165.93 53.2707 164.893 52.767 163.47 52.767C162.107 52.767 161.085 53.2707 160.404 54.2782C159.752 55.2856 159.396 56.4559 159.337 57.7893H167.648ZM185.494 70.9894C182.56 70.9894 180.19 69.9375 178.382 67.8338C176.575 65.7301 175.671 63.019 175.671 59.7004C175.671 56.4115 176.575 53.7152 178.382 51.6115C180.19 49.5077 182.56 48.4559 185.494 48.4559C188.456 48.4559 190.738 49.4189 192.338 51.3448L189.671 55.0337C188.664 53.7893 187.464 53.167 186.071 53.167C184.56 53.167 183.36 53.7893 182.471 55.0337C181.612 56.2485 181.182 57.8041 181.182 59.7004C181.182 61.6264 181.612 63.2116 182.471 64.456C183.36 65.6708 184.56 66.2782 186.071 66.2782C187.464 66.2782 188.664 65.656 189.671 64.4116L192.338 68.1005C190.738 70.0264 188.456 70.9894 185.494 70.9894ZM212.423 70.4561H207.045V68.3227C206.452 69.1523 205.637 69.8042 204.6 70.2783C203.593 70.7524 202.526 70.9894 201.4 70.9894C199.593 70.9894 198.037 70.3524 196.734 69.0783C195.43 67.8042 194.778 66.0708 194.778 63.8782C194.778 61.656 195.415 59.9375 196.689 58.7226C197.993 57.5078 199.563 56.9004 201.4 56.9004C202.556 56.9004 203.637 57.1226 204.645 57.5671C205.682 58.0115 206.482 58.6337 207.045 59.4337V56.6337C207.045 55.4782 206.689 54.5745 205.978 53.9226C205.297 53.2411 204.334 52.9004 203.089 52.9004C201.134 52.9004 199.371 53.6707 197.8 55.2115L195.8 51.567C197.963 49.4929 200.719 48.4559 204.067 48.4559C206.585 48.4559 208.6 49.0781 210.111 50.3226C211.652 51.5374 212.423 53.4485 212.423 56.0559V70.4561ZM203.445 67.3894C205.104 67.3894 206.304 66.7079 207.045 65.3449V62.5893C206.274 61.1967 205.074 60.5004 203.445 60.5004C202.437 60.5004 201.622 60.8264 201 61.4782C200.408 62.1004 200.111 62.9301 200.111 63.9671C200.111 65.0042 200.408 65.8338 201 66.456C201.622 67.0783 202.437 67.3894 203.445 67.3894ZM228.401 70.9894C226.09 70.9894 224.283 69.9079 222.979 67.7449V78.6339H217.646V48.9892H222.979V51.7004C224.342 49.5374 226.149 48.4559 228.401 48.4559C230.831 48.4559 232.757 49.4633 234.179 51.4781C235.631 53.4633 236.357 56.2041 236.357 59.7004C236.357 63.1671 235.631 65.9227 234.179 67.9671C232.757 69.982 230.831 70.9894 228.401 70.9894ZM226.668 66.2782C228.001 66.2782 229.023 65.6708 229.734 64.456C230.475 63.2412 230.846 61.656 230.846 59.7004C230.846 57.7745 230.475 56.2041 229.734 54.9893C229.023 53.7744 228.001 53.167 226.668 53.167C225.957 53.167 225.246 53.4041 224.534 53.8781C223.853 54.3522 223.334 54.9448 222.979 55.6559V63.7449C223.334 64.456 223.853 65.0634 224.534 65.5671C225.246 66.0412 225.957 66.2782 226.668 66.2782ZM249.332 70.9894C246.309 70.9894 243.88 69.9523 242.043 67.8783C240.235 65.8042 239.331 63.0782 239.331 59.7004C239.331 56.5004 240.206 53.8337 241.954 51.7004C243.702 49.5374 246.028 48.4559 248.931 48.4559C251.835 48.4559 254.102 49.5226 255.732 51.6559C257.361 53.7596 258.176 56.5152 258.176 59.9226V61.4338H244.709C244.828 62.9745 245.331 64.2338 246.22 65.2116C247.109 66.1894 248.339 66.6782 249.909 66.6782C250.709 66.6782 251.539 66.5005 252.398 66.1449C253.257 65.7597 253.983 65.2412 254.576 64.5893L257.02 67.7894C255.065 69.9227 252.502 70.9894 249.332 70.9894ZM253.02 57.7893C252.961 56.4559 252.606 55.2856 251.954 54.2782C251.302 53.2707 250.265 52.767 248.843 52.767C247.48 52.767 246.457 53.2707 245.776 54.2782C245.124 55.2856 244.769 56.4559 244.709 57.7893H253.02ZM284.644 70.4561H279.355V57.4337L274.555 70.4561H272.243L267.488 57.4337V70.4561H262.155V48.9892H268.999L273.399 60.9449L277.844 48.9892H284.644V70.4561ZM34.9062 110.456H29.5729V88.9892H34.9062V96.9893H41.6174V88.9892H46.9952V110.456H41.6174V101.656H34.9062V110.456ZM68.7287 110.456H63.3509V108.323C62.7583 109.152 61.9435 109.804 60.9064 110.278C59.899 110.752 58.8324 110.989 57.7064 110.989C55.899 110.989 54.3434 110.352 53.0397 109.078C51.736 107.804 51.0841 106.071 51.0841 103.878C51.0841 101.656 51.7212 99.9375 52.9953 98.7226C54.299 97.5078 55.8694 96.9004 57.7064 96.9004C58.862 96.9004 59.9435 97.1226 60.9509 97.5671C61.9879 98.0115 62.7879 98.6337 63.3509 99.4337V96.6337C63.3509 95.4782 62.9954 94.5745 62.2842 93.9226C61.6027 93.2411 60.6398 92.9004 59.3953 92.9004C57.4398 92.9004 55.6768 93.6707 54.1064 95.2115L52.1064 91.567C54.2694 89.4929 57.0249 88.4559 60.3731 88.4559C62.8916 88.4559 64.9065 89.0781 66.4176 90.3226C67.9584 91.5374 68.7287 93.4485 68.7287 96.0559V110.456ZM59.7509 107.389C61.4102 107.389 62.6102 106.708 63.3509 105.345V102.589C62.5805 101.197 61.3805 100.5 59.7509 100.5C58.7435 100.5 57.9286 100.826 57.3064 101.478C56.7138 102.1 56.4175 102.93 56.4175 103.967C56.4175 105.004 56.7138 105.834 57.3064 106.456C57.9286 107.078 58.7435 107.389 59.7509 107.389ZM101.15 110.456H95.8168V96.2337C95.8168 94.1893 94.8686 93.167 92.9723 93.167C92.1723 93.167 91.4316 93.4337 90.7501 93.967C90.0686 94.4707 89.5204 95.093 89.1056 95.8337V110.456H83.7278V80.8114H89.1056V91.7892C89.6982 90.8707 90.5575 90.0855 91.6834 89.4337C92.839 88.7818 94.0686 88.4559 95.3723 88.4559C99.2242 88.4559 101.15 90.3818 101.15 94.2337V110.456ZM123.817 110.456H118.484V96.2337C118.484 94.1893 117.535 93.167 115.639 93.167C114.839 93.167 114.098 93.4337 113.417 93.967C112.735 94.4707 112.187 95.093 111.772 95.8337V110.456H106.395V80.8114H111.772V91.7892C112.365 90.8707 113.224 90.0855 114.35 89.4337C115.506 88.7818 116.735 88.4559 118.039 88.4559C121.891 88.4559 123.817 90.3818 123.817 94.2337V110.456ZM134.662 109.967C134.01 110.619 133.21 110.945 132.262 110.945C131.313 110.945 130.499 110.604 129.817 109.923C129.136 109.241 128.795 108.441 128.795 107.523C128.795 106.575 129.136 105.76 129.817 105.078C130.499 104.397 131.313 104.056 132.262 104.056C133.18 104.056 133.98 104.397 134.662 105.078C135.343 105.76 135.684 106.575 135.684 107.523C135.684 108.471 135.343 109.286 134.662 109.967ZM146.037 110.456H140.704V88.9892H146.037V91.9226C146.66 90.9448 147.504 90.13 148.571 89.4781C149.667 88.7966 150.778 88.4559 151.904 88.4559V93.7004C151.548 93.6115 151.119 93.567 150.615 93.567C149.756 93.567 148.882 93.8189 147.993 94.3226C147.134 94.7967 146.482 95.4041 146.037 96.1448V110.456ZM172.763 110.456H167.429V107.745C166.807 108.663 165.933 109.434 164.807 110.056C163.681 110.678 162.451 110.989 161.118 110.989C157.296 110.989 155.385 109.063 155.385 105.212V88.9892H160.718V103.167C160.718 105.241 161.666 106.278 163.562 106.278C165.162 106.278 166.451 105.404 167.429 103.656V88.9892H172.763V110.456Z" fill="white"/>
  <path d="M182.953 91.9275L187.531 91.9275L193.087 99.9275L187.531 107.794L182.953 107.794L188.509 99.9275L182.953 91.9275ZM190.465 91.9275L194.998 91.9275L200.553 99.9275L194.998 107.794L190.465 107.794L196.02 99.9275L190.465 91.9275Z" fill="white"/>
  </svg>
  