<svg width="131" height="51" viewBox="0 0 131 51" fill="none" xmlns="http://www.w3.org/2000/svg">
  <path d="M8.36552 12.5683H6.26304L3.71147 8.89401L6.26304 5.281H8.36552L5.81396 8.89401L8.36552 12.5683ZM4.91581 12.5683H2.83374L0.282175 8.89401L2.83374 5.281H4.91581L2.36425 8.89401L4.91581 12.5683Z" fill="white"/>
  <path d="M15.8097 13.8542H13.4419V3.99501H15.8914V9.54721L18.9328 3.99501H21.4436V13.8542H18.9737V8.07751L15.8097 13.8542ZM33.834 3.99501H36.2835V11.7109H37.3857V16.365H34.9158V13.8542H23.8522V3.99501H26.3017V11.7109H28.8329V3.99501H31.3028V11.7109H33.834V3.99501ZM41.3548 13.8542H38.987V3.99501H41.4365V9.54721L44.478 3.99501H46.9887V13.8542H44.5188V8.07751L41.3548 13.8542ZM53.2757 13.8542H50.8058V6.13832H48.6421V3.99501H55.4599V6.13832H53.2757V13.8542ZM61.1792 14.0992C59.7912 14.0992 58.6753 13.6229 57.8316 12.6703C57.0015 11.7177 56.5864 10.4658 56.5864 8.91442C56.5864 7.44472 56.9878 6.21997 57.7907 5.24017C58.5936 4.24677 59.6619 3.75006 60.9955 3.75006C62.3291 3.75006 63.3702 4.23996 64.1186 5.21976C64.8671 6.18595 65.2413 7.45153 65.2413 9.01649V9.71051H59.0563C59.1107 10.4181 59.3421 10.9965 59.7503 11.4456C60.1586 11.8946 60.7233 12.1192 61.4446 12.1192C61.812 12.1192 62.193 12.0375 62.5877 11.8742C62.9823 11.6973 63.3157 11.4592 63.5879 11.1598L64.7106 12.6295C63.8124 13.6093 62.6353 14.0992 61.1792 14.0992ZM62.8734 8.03669C62.8462 7.42431 62.6829 6.88678 62.3835 6.4241C62.0842 5.96142 61.6079 5.73007 60.9547 5.73007C60.3287 5.73007 59.8592 5.96142 59.5462 6.4241C59.2468 6.88678 59.0835 7.42431 59.0563 8.03669H62.8734ZM76.4983 14.0992C75.4369 14.0992 74.6068 13.6025 74.008 12.6091V17.6101H71.5585V3.99501H74.008V5.24017C74.634 4.24677 75.4641 3.75006 76.4983 3.75006C77.6142 3.75006 78.4987 4.21274 79.1519 5.13811C79.8187 6.04987 80.1521 7.30864 80.1521 8.91442C80.1521 10.5066 79.8187 11.7722 79.1519 12.7111C78.4987 13.6365 77.6142 14.0992 76.4983 14.0992ZM75.7022 11.9355C76.3146 11.9355 76.7841 11.6565 77.1107 11.0986C77.4509 10.5406 77.621 9.81257 77.621 8.91442C77.621 8.02988 77.4509 7.30864 77.1107 6.7507C76.7841 6.19276 76.3146 5.91379 75.7022 5.91379C75.3756 5.91379 75.049 6.02265 74.7224 6.24039C74.4094 6.45812 74.1713 6.73029 74.008 7.05689V10.772C74.1713 11.0986 74.4094 11.3775 74.7224 11.6089C75.049 11.8266 75.3756 11.9355 75.7022 11.9355ZM89.6017 13.8542H87.1318V12.8744C86.8596 13.2555 86.4854 13.5549 86.0091 13.7726C85.5464 13.9903 85.0565 14.0992 84.5394 14.0992C83.7093 14.0992 82.9949 13.8066 82.3961 13.2215C81.7973 12.6363 81.4979 11.8402 81.4979 10.8332C81.4979 9.81257 81.7905 9.02329 82.3757 8.46535C82.9744 7.90741 83.6957 7.62844 84.5394 7.62844C85.0701 7.62844 85.5668 7.7305 86.0295 7.93462C86.5058 8.13875 86.8732 8.42452 87.1318 8.79195V7.50596C87.1318 6.97524 86.9685 6.56018 86.6419 6.2608C86.3289 5.94781 85.8866 5.79131 85.3151 5.79131C84.4169 5.79131 83.6072 6.14513 82.886 6.85276L81.9674 5.17894C82.9608 4.22635 84.2264 3.75006 85.7641 3.75006C86.9209 3.75006 87.8462 4.03584 88.5402 4.60739C89.2479 5.16533 89.6017 6.04307 89.6017 7.2406V13.8542ZM85.4784 12.4458C86.2404 12.4458 86.7916 12.1328 87.1318 11.5068V10.2412C86.778 9.60164 86.2268 9.28185 85.4784 9.28185C85.0157 9.28185 84.6415 9.43154 84.3557 9.73092C84.0835 10.0167 83.9474 10.3977 83.9474 10.874C83.9474 11.3503 84.0835 11.7313 84.3557 12.0171C84.6415 12.3029 85.0157 12.4458 85.4784 12.4458ZM94.5112 11.0781C94.8378 11.6497 95.3141 11.9355 95.9401 11.9355C96.5661 11.9355 97.0424 11.6497 97.369 11.0781C97.7092 10.493 97.8793 9.76494 97.8793 8.89401C97.8793 8.05029 97.7092 7.34266 97.369 6.77111C97.0424 6.19956 96.5661 5.91379 95.9401 5.91379C95.3141 5.91379 94.8378 6.19956 94.5112 6.77111C94.1846 7.34266 94.0213 8.05029 94.0213 8.89401C94.0213 9.76494 94.1846 10.493 94.5112 11.0781ZM95.9401 14.0992C94.5112 14.0992 93.4089 13.5821 92.6333 12.5478C91.8712 11.5 91.4902 10.1392 91.4902 8.46535C91.4902 5.97502 91.8168 4.19914 92.47 3.13769C93.1368 2.06263 94.2935 1.38221 95.9401 1.09644C97.0424 0.90592 97.5935 0.620145 97.5935 0.239112H100.084C100.084 1.64077 98.9339 2.53212 96.6341 2.91315C94.8242 3.21253 93.8172 3.9678 93.6131 5.17894C94.2663 4.22635 95.2052 3.75006 96.43 3.75006C97.6684 3.75006 98.6413 4.24677 99.349 5.24017C100.057 6.23358 100.41 7.45153 100.41 8.89401C100.41 10.3501 100.016 11.5817 99.2265 12.5887C98.4508 13.5957 97.3554 14.0992 95.9401 14.0992ZM106.291 14.0992C104.903 14.0992 103.814 13.6025 103.025 12.6091C102.235 11.6021 101.841 10.3705 101.841 8.91442C101.841 7.45833 102.235 6.23358 103.025 5.24017C103.814 4.24677 104.903 3.75006 106.291 3.75006C107.692 3.75006 108.788 4.24677 109.577 5.24017C110.366 6.23358 110.761 7.45833 110.761 8.91442C110.761 10.3841 110.366 11.6157 109.577 12.6091C108.788 13.6025 107.692 14.0992 106.291 14.0992ZM106.291 11.9355C106.93 11.9355 107.413 11.6497 107.74 11.0781C108.067 10.5066 108.23 9.78536 108.23 8.91442C108.23 8.04349 108.067 7.32905 107.74 6.77111C107.413 6.19956 106.93 5.91379 106.291 5.91379C105.665 5.91379 105.188 6.19956 104.862 6.77111C104.549 7.34266 104.392 8.0571 104.392 8.91442C104.392 9.78536 104.549 10.5066 104.862 11.0781C105.188 11.6497 105.665 11.9355 106.291 11.9355ZM116.54 13.8542H114.07V6.13832H111.906V3.99501H118.724V6.13832H116.54V13.8542ZM120.137 17.7122L120.504 15.5485C120.694 15.6437 120.905 15.6914 121.137 15.6914C121.681 15.6914 122.042 15.4532 122.219 14.9769L122.545 14.038L119.218 3.99501H121.831L123.811 10.8944L125.811 3.99501H128.424L124.566 15.5281C124.28 16.399 123.879 16.9978 123.362 17.3244C122.845 17.6646 122.164 17.8415 121.32 17.8551C120.844 17.8551 120.45 17.8075 120.137 17.7122ZM21.0149 31.8542H18.545V30.8744C18.2728 31.2555 17.8986 31.5549 17.4223 31.7726C16.9596 31.9903 16.4697 32.0992 15.9526 32.0992C15.1225 32.0992 14.4081 31.8066 13.8093 31.2215C13.2105 30.6363 12.9111 29.8402 12.9111 28.8332C12.9111 27.8126 13.2037 27.0233 13.7889 26.4653C14.3877 25.9074 15.1089 25.6284 15.9526 25.6284C16.4833 25.6284 16.98 25.7305 17.4427 25.9346C17.919 26.1387 18.2864 26.4245 18.545 26.7919V25.506C18.545 24.9752 18.3817 24.5602 18.0551 24.2608C17.7421 23.9478 17.2998 23.7913 16.7283 23.7913C15.8301 23.7913 15.0204 24.1451 14.2992 24.8528L13.3806 23.1789C14.374 22.2264 15.6396 21.7501 17.1774 21.7501C18.3341 21.7501 19.2594 22.0358 19.9535 22.6074C20.6611 23.1653 21.0149 24.0431 21.0149 25.2406V31.8542ZM16.8916 30.4458C17.6537 30.4458 18.2048 30.1328 18.545 29.5068V28.2412C18.1912 27.6016 17.64 27.2818 16.8916 27.2818C16.4289 27.2818 16.0547 27.4315 15.7689 27.7309C15.4967 28.0167 15.3606 28.3977 15.3606 28.874C15.3606 29.3503 15.4967 29.7313 15.7689 30.0171C16.0547 30.3029 16.4289 30.4458 16.8916 30.4458ZM28.5576 31.8542H23.4137V21.995H28.4148C29.4082 21.995 30.1566 22.2332 30.6601 22.7094C31.1773 23.1857 31.4358 23.7913 31.4358 24.5262C31.4358 25.0977 31.2793 25.5808 30.9663 25.9754C30.6533 26.3565 30.2451 26.615 29.7416 26.7511C30.2995 26.8736 30.7554 27.1594 31.1092 27.6084C31.463 28.0575 31.6399 28.5814 31.6399 29.1802C31.6399 29.9695 31.3814 30.6159 30.8643 31.1194C30.3471 31.6093 29.5783 31.8542 28.5576 31.8542ZM27.9861 29.8742C28.7482 29.8742 29.1292 29.534 29.1292 28.8536C29.1292 28.5542 29.0271 28.3093 28.823 28.1188C28.6325 27.9146 28.3535 27.8126 27.9861 27.8126H25.8632V29.8742H27.9861ZM27.9044 25.8326C28.5985 25.8326 28.9455 25.5264 28.9455 24.914C28.9455 24.6282 28.857 24.4037 28.6801 24.2404C28.5032 24.0635 28.2447 23.975 27.9044 23.975H25.8632V25.8326H27.9044ZM37.7423 31.8542H35.2724V24.1383H33.1087V21.995H39.9265V24.1383H37.7423V31.8542ZM45.5029 32.0992C44.1148 32.0992 43.0262 31.6025 42.2369 30.6091C41.4476 29.6021 41.053 28.3705 41.053 26.9144C41.053 25.4583 41.4476 24.2336 42.2369 23.2402C43.0262 22.2468 44.1148 21.7501 45.5029 21.7501C46.9045 21.7501 48 22.2468 48.7893 23.2402C49.5786 24.2336 49.9732 25.4583 49.9732 26.9144C49.9732 28.3841 49.5786 29.6157 48.7893 30.6091C48 31.6025 46.9045 32.0992 45.5029 32.0992ZM45.5029 29.9355C46.1425 29.9355 46.6256 29.6497 46.9522 29.0781C47.2788 28.5066 47.4421 27.7854 47.4421 26.9144C47.4421 26.0435 47.2788 25.3291 46.9522 24.7711C46.6256 24.1996 46.1425 23.9138 45.5029 23.9138C44.8769 23.9138 44.4006 24.1996 44.074 24.7711C43.761 25.3427 43.6045 26.0571 43.6045 26.9144C43.6045 27.7854 43.761 28.5066 44.074 29.0781C44.4006 29.6497 44.8769 29.9355 45.5029 29.9355ZM55.8748 32.0992C54.5276 32.0992 53.4389 31.6161 52.6088 30.6499C51.7787 29.6837 51.3637 28.4386 51.3637 26.9144C51.3637 25.4039 51.7787 24.1655 52.6088 23.1993C53.4389 22.2332 54.5276 21.7501 55.8748 21.7501C57.2357 21.7501 58.2835 22.1923 59.0184 23.0769L57.7936 24.7711C57.3309 24.1996 56.7798 23.9138 56.1402 23.9138C55.4462 23.9138 54.895 24.1996 54.4868 24.7711C54.0921 25.3291 53.8948 26.0435 53.8948 26.9144C53.8948 27.799 54.0921 28.527 54.4868 29.0986C54.895 29.6565 55.4462 29.9355 56.1402 29.9355C56.7798 29.9355 57.3309 29.6497 57.7936 29.0781L59.0184 30.7724C58.2835 31.6569 57.2357 32.0992 55.8748 32.0992ZM59.9144 32.0992V30.0375C60.3091 30.0375 60.6153 29.8334 60.833 29.4252C61.0643 29.0033 61.2412 28.214 61.3637 27.0573L61.8332 21.995H68.6714V31.8542H66.2015V24.1383H64.0582L63.7928 27.3023C63.6431 29.0441 63.2553 30.2825 62.6293 31.0173C62.0169 31.7386 61.112 32.0992 59.9144 32.0992ZM75.1626 32.0992C73.7745 32.0992 72.6586 31.6229 71.8149 30.6703C70.9848 29.7177 70.5698 28.4658 70.5698 26.9144C70.5698 25.4447 70.9712 24.22 71.7741 23.2402C72.577 22.2468 73.6452 21.7501 74.9789 21.7501C76.3125 21.7501 77.3535 22.24 78.102 23.2198C78.8504 24.186 79.2247 25.4515 79.2247 27.0165V27.7105H73.0397C73.0941 28.4181 73.3254 28.9965 73.7337 29.4456C74.1419 29.8946 74.7067 30.1192 75.4279 30.1192C75.7954 30.1192 76.1764 30.0375 76.571 29.8742C76.9657 29.6973 77.2991 29.4592 77.5712 29.1598L78.6939 30.6295C77.7958 31.6093 76.6187 32.0992 75.1626 32.0992ZM76.8568 26.0367C76.8296 25.4243 76.6663 24.8868 76.3669 24.4241C76.0675 23.9614 75.5912 23.7301 74.938 23.7301C74.312 23.7301 73.8426 23.9614 73.5296 24.4241C73.2302 24.8868 73.0669 25.4243 73.0397 26.0367H76.8568ZM85.0527 32.0992C83.7055 32.0992 82.6168 31.6161 81.7867 30.6499C80.9566 29.6837 80.5416 28.4386 80.5416 26.9144C80.5416 25.4039 80.9566 24.1655 81.7867 23.1993C82.6168 22.2332 83.7055 21.7501 85.0527 21.7501C86.4136 21.7501 87.4614 22.1923 88.1963 23.0769L86.9715 24.7711C86.5088 24.1996 85.9577 23.9138 85.3181 23.9138C84.6241 23.9138 84.0729 24.1996 83.6647 24.7711C83.27 25.3291 83.0727 26.0435 83.0727 26.9144C83.0727 27.799 83.27 28.527 83.6647 29.0986C84.0729 29.6565 84.6241 29.9355 85.3181 29.9355C85.9577 29.9355 86.5088 29.6497 86.9715 29.0781L88.1963 30.7724C87.4614 31.6569 86.4136 32.0992 85.0527 32.0992ZM97.4206 31.8542H94.9507V30.8744C94.6786 31.2555 94.3043 31.5549 93.828 31.7726C93.3654 31.9903 92.8755 32.0992 92.3583 32.0992C91.5282 32.0992 90.8138 31.8066 90.215 31.2215C89.6163 30.6363 89.3169 29.8402 89.3169 28.8332C89.3169 27.8126 89.6095 27.0233 90.1946 26.4653C90.7934 25.9074 91.5146 25.6284 92.3583 25.6284C92.8891 25.6284 93.3858 25.7305 93.8485 25.9346C94.3247 26.1387 94.6922 26.4245 94.9507 26.7919V25.506C94.9507 24.9752 94.7874 24.5602 94.4608 24.2608C94.1478 23.9478 93.7056 23.7913 93.134 23.7913C92.2359 23.7913 91.4262 24.1451 90.7049 24.8528L89.7864 23.1789C90.7798 22.2264 92.0454 21.7501 93.5831 21.7501C94.7398 21.7501 95.6652 22.0358 96.3592 22.6074C97.0668 23.1653 97.4206 24.0431 97.4206 25.2406V31.8542ZM93.2973 30.4458C94.0594 30.4458 94.6105 30.1328 94.9507 29.5068V28.2412C94.5969 27.6016 94.0458 27.2818 93.2973 27.2818C92.8346 27.2818 92.4604 27.4315 92.1746 27.7309C91.9025 28.0167 91.7664 28.3977 91.7664 28.874C91.7664 29.3503 91.9025 29.7313 92.1746 30.0171C92.4604 30.3029 92.8346 30.4458 93.2973 30.4458ZM104.759 32.0992C103.698 32.0992 102.868 31.6025 102.269 30.6091V35.6101H99.8194V21.995H102.269V23.2402C102.895 22.2468 103.725 21.7501 104.759 21.7501C105.875 21.7501 106.76 22.2127 107.413 23.1381C108.08 24.0499 108.413 25.3086 108.413 26.9144C108.413 28.5066 108.08 29.7722 107.413 30.7111C106.76 31.6365 105.875 32.0992 104.759 32.0992ZM103.963 29.9355C104.576 29.9355 105.045 29.6565 105.372 29.0986C105.712 28.5406 105.882 27.8126 105.882 26.9144C105.882 26.0299 105.712 25.3086 105.372 24.7507C105.045 24.1928 104.576 23.9138 103.963 23.9138C103.637 23.9138 103.31 24.0227 102.983 24.2404C102.67 24.4581 102.432 24.7303 102.269 25.0569V28.772C102.432 29.0986 102.67 29.3775 102.983 29.6089C103.31 29.8266 103.637 29.9355 103.963 29.9355ZM114.372 32.0992C112.984 32.0992 111.868 31.6229 111.024 30.6703C110.194 29.7177 109.779 28.4658 109.779 26.9144C109.779 25.4447 110.181 24.22 110.984 23.2402C111.787 22.2468 112.855 21.7501 114.188 21.7501C115.522 21.7501 116.563 22.24 117.311 23.2198C118.06 24.186 118.434 25.4515 118.434 27.0165V27.7105H112.249C112.304 28.4181 112.535 28.9965 112.943 29.4456C113.351 29.8946 113.916 30.1192 114.637 30.1192C115.005 30.1192 115.386 30.0375 115.781 29.8742C116.175 29.6973 116.509 29.4592 116.781 29.1598L117.903 30.6295C117.005 31.6093 115.828 32.0992 114.372 32.0992ZM116.066 26.0367C116.039 25.4243 115.876 24.8868 115.576 24.4241C115.277 23.9614 114.801 23.7301 114.148 23.7301C113.522 23.7301 113.052 23.9614 112.739 24.4241C112.44 24.8868 112.276 25.4243 112.249 26.0367H116.066ZM130.59 31.8542H128.161V25.8734L125.957 31.8542H124.895L122.711 25.8734V31.8542H120.261V21.995H123.405L125.426 27.486L127.467 21.995H130.59V31.8542ZM15.8914 49.8542H13.4419V39.995H15.8914V43.6693H18.9737V39.995H21.4436V49.8542H18.9737V45.8126H15.8914V49.8542ZM31.4253 49.8542H28.9554V48.8744C28.6832 49.2555 28.309 49.5549 27.8327 49.7726C27.37 49.9903 26.8801 50.0992 26.363 50.0992C25.5329 50.0992 24.8184 49.8066 24.2197 49.2215C23.6209 48.6363 23.3215 47.8402 23.3215 46.8332C23.3215 45.8126 23.6141 45.0233 24.1993 44.4653C24.798 43.9074 25.5193 43.6284 26.363 43.6284C26.8937 43.6284 27.3904 43.7305 27.8531 43.9346C28.3294 44.1387 28.6968 44.4245 28.9554 44.7919V43.506C28.9554 42.9752 28.7921 42.5602 28.4655 42.2608C28.1525 41.9478 27.7102 41.7913 27.1387 41.7913C26.2405 41.7913 25.4308 42.1451 24.7096 42.8528L23.791 41.1789C24.7844 40.2264 26.05 39.7501 27.5877 39.7501C28.7444 39.7501 29.6698 40.0358 30.3638 40.6074C31.0715 41.1653 31.4253 42.0431 31.4253 43.2406V49.8542ZM27.302 48.4458C28.064 48.4458 28.6152 48.1328 28.9554 47.5068V46.2412C28.6016 45.6016 28.0504 45.2818 27.302 45.2818C26.8393 45.2818 26.465 45.4315 26.1793 45.7309C25.9071 46.0167 25.771 46.3977 25.771 46.874C25.771 47.3503 25.9071 47.7313 26.1793 48.0171C26.465 48.3029 26.8393 48.4458 27.302 48.4458ZM46.3157 49.8542H43.8662V43.3222C43.8662 42.3833 43.4308 41.9138 42.5598 41.9138C42.1924 41.9138 41.8522 42.0363 41.5392 42.2812C41.2262 42.5126 40.9745 42.7983 40.7839 43.1385V49.8542H38.314V36.2391H40.7839V41.281C41.0561 40.8591 41.4507 40.4985 41.9679 40.1991C42.4986 39.8998 43.0633 39.7501 43.6621 39.7501C45.4312 39.7501 46.3157 40.6346 46.3157 42.4037V49.8542ZM56.7261 49.8542H54.2766V43.3222C54.2766 42.3833 53.8411 41.9138 52.9702 41.9138C52.6028 41.9138 52.2626 42.0363 51.9496 42.2812C51.6366 42.5126 51.3848 42.7983 51.1943 43.1385V49.8542H48.7244V36.2391H51.1943V41.281C51.4665 40.8591 51.8611 40.4985 52.3782 40.1991C52.909 39.8998 53.4737 39.7501 54.0725 39.7501C55.8416 39.7501 56.7261 40.6346 56.7261 42.4037V49.8542ZM61.7067 49.6297C61.4074 49.9291 61.0399 50.0788 60.6045 50.0788C60.169 50.0788 59.7948 49.9223 59.4818 49.6093C59.1688 49.2963 59.0123 48.9289 59.0123 48.507C59.0123 48.0716 59.1688 47.6973 59.4818 47.3843C59.7948 47.0713 60.169 46.9148 60.6045 46.9148C61.0263 46.9148 61.3938 47.0713 61.7067 47.3843C62.0197 47.6973 62.1762 48.0716 62.1762 48.507C62.1762 48.9425 62.0197 49.3167 61.7067 49.6297ZM66.9314 49.8542H64.4819V39.995H66.9314V41.3422C67.2172 40.8932 67.605 40.5189 68.0949 40.2195C68.5984 39.9066 69.1087 39.7501 69.6258 39.7501V42.1587C69.4625 42.1179 69.2652 42.0975 69.0339 42.0975C68.6392 42.0975 68.2378 42.2132 67.8295 42.4445C67.4349 42.6622 67.1355 42.9412 66.9314 43.2814V49.8542ZM79.2057 49.8542H76.7562V48.6091C76.4704 49.0309 76.069 49.3848 75.5518 49.6705C75.0347 49.9563 74.47 50.0992 73.8576 50.0992C72.1021 50.0992 71.2244 49.2147 71.2244 47.4456V39.995H73.6739V46.5066C73.6739 47.4592 74.1094 47.9355 74.9803 47.9355C75.7151 47.9355 76.3071 47.534 76.7562 46.7311V39.995H79.2057V49.8542Z" fill="white"/>
  <path d="M83.8862 42.8584L85.9887 42.8584L88.5402 46.5326L85.9887 50.1456L83.8862 50.1456L86.4377 46.5326L83.8862 42.8584ZM87.3359 42.8584L89.418 42.8584L91.9695 46.5326L89.418 50.1456L87.3359 50.1456L89.8875 46.5326L87.3359 42.8584Z" fill="white"/>
  </svg>
  