<svg viewBox="0 0 53 52" fill="none" xmlns="http://www.w3.org/2000/svg">
  <path
    d="M26.9355 52C41.2951 52 52.9355 40.3596 52.9355 26C52.9355 11.6404 41.2951 0 26.9355 0C12.576 0 0.935547 11.6404 0.935547 26C0.935547 40.3596 12.576 52 26.9355 52Z"
    fill="#D6001C" />
  <path
    d="M15.5648 13.5144V22.3439C16.9262 20.7411 18.5582 19.9343 20.4508 19.9343C21.4256 19.9343 22.2985 20.1181 23.0817 20.4826C23.867 20.8449 24.454 21.31 24.8505 21.8745C25.2492 22.4445 25.5187 23.0685 25.6643 23.7564C25.8089 24.441 25.8812 25.5062 25.8812 26.9511V36.3917H21.6512V27.8888C21.6512 26.2017 21.5746 25.1331 21.4136 24.6789C21.2627 24.2339 20.9635 23.8526 20.5647 23.5974C20.1573 23.3259 19.6502 23.1918 19.0379 23.1918C18.3369 23.1918 17.7082 23.3648 17.1617 23.7088C16.6031 24.0548 16.2022 24.5718 15.9481 25.2629C15.6897 25.9551 15.5604 26.9771 15.5648 28.3301L15.5604 36.3917H11.3359V13.5144H15.5659"
    fill="white" />
  <path
    d="M32.2211 13.5144V22.3439C33.5836 20.7411 35.2144 19.9343 37.106 19.9343C38.0775 19.9343 38.957 20.1181 39.7412 20.4826C40.5233 20.8449 41.1103 21.31 41.5046 21.8745C41.9025 22.4407 42.1794 23.081 42.3184 23.7564C42.4641 24.441 42.5364 25.5062 42.5364 26.9511V36.3917H38.3108V27.8888C38.3108 26.2017 38.2308 25.1331 38.0698 24.6789C37.919 24.2333 37.6188 23.8518 37.2188 23.5974C36.8157 23.3259 36.3042 23.1918 35.692 23.1918C34.9921 23.1918 34.3634 23.3648 33.8158 23.7088C33.2649 24.0548 32.8618 24.5718 32.6044 25.2629C32.3503 25.9551 32.2211 26.9771 32.2211 28.3301V36.3917H27.9966V13.5144H32.2211Z"
    fill="white" />
</svg>
  