<svg width="291" height="122" viewBox="0 0 291 122" fill="none" xmlns="http://www.w3.org/2000/svg">
  <path d="M32.6421 31.4414H27.2296V8.90492H32.8287V21.5963L39.7809 8.90492H45.5201V31.4414H39.8743V18.2368L32.6421 31.4414ZM73.8423 8.90492H79.4414V26.5422H81.961V37.1805H76.3153V31.4414H51.0259V8.90492H56.625V26.5422H62.4108V8.90492H68.0565V26.5422H73.8423V8.90492ZM91.0337 31.4414H85.6212V8.90492H91.2204V21.5963L98.1726 8.90492H103.912V31.4414H98.2659V18.2368L91.0337 31.4414ZM118.283 31.4414H112.637V13.8042H107.691V8.90492H123.275V13.8042H118.283V31.4414ZM136.349 32.0013C133.176 32.0013 130.625 30.9126 128.697 28.7352C126.799 26.5577 125.85 23.6959 125.85 20.1498C125.85 16.7904 126.768 13.9908 128.603 11.7511C130.439 9.48038 132.88 8.345 135.929 8.345C138.977 8.345 141.357 9.46483 143.068 11.7045C144.779 13.913 145.634 16.8059 145.634 20.3831V21.9695H131.496C131.621 23.5871 132.149 24.9091 133.083 25.9356C134.016 26.9621 135.307 27.4754 136.955 27.4754C137.795 27.4754 138.666 27.2887 139.568 26.9154C140.47 26.5111 141.232 25.9667 141.855 25.2824L144.421 28.6418C142.368 30.8815 139.677 32.0013 136.349 32.0013ZM140.221 18.1435C140.159 16.7437 139.786 15.515 139.102 14.4574C138.417 13.3998 137.329 12.871 135.836 12.871C134.405 12.871 133.331 13.3998 132.616 14.4574C131.932 15.515 131.558 16.7437 131.496 18.1435H140.221ZM171.366 32.0013C168.939 32.0013 167.042 30.8659 165.673 28.5952V40.0267H160.074V8.90492H165.673V11.7511C167.104 9.48038 169.001 8.345 171.366 8.345C173.916 8.345 175.938 9.40262 177.431 11.5178C178.955 13.602 179.718 16.4793 179.718 20.1498C179.718 23.7893 178.955 26.6821 177.431 28.8285C175.938 30.9437 173.916 32.0013 171.366 32.0013ZM169.546 27.0554C170.946 27.0554 172.019 26.4177 172.765 25.1424C173.543 23.867 173.932 22.2028 173.932 20.1498C173.932 18.1279 173.543 16.4793 172.765 15.2039C172.019 13.9286 170.946 13.2909 169.546 13.2909C168.799 13.2909 168.053 13.5398 167.306 14.0375C166.591 14.5352 166.046 15.1573 165.673 15.9038V24.3958C166.046 25.1424 166.591 25.7801 167.306 26.3089C168.053 26.8066 168.799 27.0554 169.546 27.0554ZM201.318 31.4414H195.672V29.2018C195.05 30.0727 194.194 30.7571 193.106 31.2548C192.048 31.7525 190.928 32.0013 189.746 32.0013C187.849 32.0013 186.216 31.3325 184.847 29.995C183.478 28.6574 182.794 26.8377 182.794 24.5358C182.794 22.2028 183.463 20.3987 184.8 19.1233C186.169 17.848 187.817 17.2103 189.746 17.2103C190.959 17.2103 192.095 17.4436 193.152 17.9102C194.241 18.3768 195.081 19.03 195.672 19.8699V16.9303C195.672 15.7172 195.299 14.7684 194.552 14.0841C193.837 13.3687 192.826 13.0109 191.519 13.0109C189.466 13.0109 187.615 13.8197 185.967 15.4372L183.867 11.6112C186.138 9.43372 189.031 8.345 192.546 8.345C195.19 8.345 197.305 8.99824 198.891 10.3047C200.509 11.5801 201.318 13.5864 201.318 16.3238V31.4414ZM191.892 28.2219C193.634 28.2219 194.894 27.5065 195.672 26.0756V23.1827C194.863 21.7207 193.603 20.9897 191.892 20.9897C190.835 20.9897 189.979 21.3319 189.326 22.0162C188.704 22.6694 188.393 23.5404 188.393 24.6291C188.393 25.7179 188.704 26.5888 189.326 27.2421C189.979 27.8953 190.835 28.2219 191.892 28.2219ZM212.54 25.0957C213.286 26.4022 214.375 27.0554 215.806 27.0554C217.237 27.0554 218.326 26.4022 219.072 25.0957C219.85 23.7582 220.239 22.094 220.239 20.1032C220.239 18.1746 219.85 16.5571 219.072 15.2506C218.326 13.9441 217.237 13.2909 215.806 13.2909C214.375 13.2909 213.286 13.9441 212.54 15.2506C211.793 16.5571 211.42 18.1746 211.42 20.1032C211.42 22.094 211.793 23.7582 212.54 25.0957ZM215.806 32.0013C212.54 32.0013 210.02 30.8193 208.247 28.4552C206.505 26.06 205.634 22.9494 205.634 19.1233C205.634 13.4309 206.381 9.37151 207.874 6.94522C209.398 4.48783 212.042 2.93252 215.806 2.27929C218.326 1.8438 219.585 1.19056 219.585 0.319588H225.278C225.278 3.52353 222.649 5.561 217.392 6.43197C213.255 7.11631 210.953 8.84271 210.487 11.6112C211.98 9.43372 214.126 8.345 216.926 8.345C219.757 8.345 221.981 9.48038 223.598 11.7511C225.216 14.0219 226.024 16.8059 226.024 20.1032C226.024 23.4315 225.122 26.2467 223.318 28.5485C221.545 30.8504 219.041 32.0013 215.806 32.0013ZM239.466 32.0013C236.293 32.0013 233.804 30.8659 232 28.5952C230.196 26.2933 229.294 23.4782 229.294 20.1498C229.294 16.8215 230.196 14.0219 232 11.7511C233.804 9.48038 236.293 8.345 239.466 8.345C242.67 8.345 245.174 9.48038 246.978 11.7511C248.782 14.0219 249.684 16.8215 249.684 20.1498C249.684 23.5093 248.782 26.3244 246.978 28.5952C245.174 30.8659 242.67 32.0013 239.466 32.0013ZM239.466 27.0554C240.928 27.0554 242.032 26.4022 242.778 25.0957C243.525 23.7893 243.898 22.1406 243.898 20.1498C243.898 18.159 243.525 16.526 242.778 15.2506C242.032 13.9441 240.928 13.2909 239.466 13.2909C238.035 13.2909 236.946 13.9441 236.199 15.2506C235.484 16.5571 235.126 18.1901 235.126 20.1498C235.126 22.1406 235.484 23.7893 236.199 25.0957C236.946 26.4022 238.035 27.0554 239.466 27.0554ZM262.894 31.4414H257.248V13.8042H252.302V8.90492H267.887V13.8042H262.894V31.4414ZM271.115 40.26L271.955 35.3141C272.39 35.5319 272.872 35.6408 273.401 35.6408C274.645 35.6408 275.47 35.0964 275.874 34.0077L276.621 31.8613L269.015 8.90492H274.988L279.514 24.6758L284.086 8.90492H290.059L281.24 35.2675C280.587 37.2583 279.669 38.627 278.487 39.3735C277.305 40.1512 275.75 40.5555 273.821 40.5866C272.732 40.5866 271.83 40.4778 271.115 40.26ZM36.3748 77.0013C33.2953 77.0013 30.8068 75.897 28.9093 73.6885C27.0118 71.48 26.0631 68.6337 26.0631 65.1498C26.0631 61.697 27.0118 58.8664 28.9093 56.6578C30.8068 54.4493 33.2953 53.345 36.3748 53.345C39.4854 53.345 41.8806 54.356 43.5604 56.3779L40.7608 60.2506C39.7032 58.9441 38.4434 58.2909 36.9814 58.2909C35.395 58.2909 34.1352 58.9441 33.202 60.2506C32.2999 61.526 31.8488 63.159 31.8488 65.1498C31.8488 67.1717 32.2999 68.8359 33.202 70.1424C34.1352 71.4177 35.395 72.0554 36.9814 72.0554C38.4434 72.0554 39.7032 71.4022 40.7608 70.0957L43.5604 73.9685C41.8806 75.9904 39.4854 77.0013 36.3748 77.0013ZM59.0932 76.4414H47.335V53.9049H58.7666C61.0373 53.9049 62.7482 54.4493 63.8991 55.538C65.0812 56.6267 65.6722 58.0109 65.6722 59.6907C65.6722 60.9971 65.3145 62.1014 64.599 63.0035C63.8836 63.8745 62.9504 64.4655 61.7994 64.7766C63.0748 65.0565 64.1169 65.7097 64.9256 66.7363C65.7344 67.7628 66.1388 68.9603 66.1388 70.329C66.1388 72.1332 65.5477 73.6107 64.3657 74.7617C63.1837 75.8815 61.4262 76.4414 59.0932 76.4414ZM57.7867 71.9154C59.5287 71.9154 60.3997 71.1378 60.3997 69.5825C60.3997 68.8981 60.1664 68.3382 59.6998 67.9027C59.2643 67.4361 58.6266 67.2028 57.7867 67.2028H52.9342V71.9154H57.7867ZM57.6001 62.6769C59.1865 62.6769 59.9797 61.977 59.9797 60.5772C59.9797 59.924 59.7775 59.4107 59.3732 59.0375C58.9688 58.6331 58.3778 58.4309 57.6001 58.4309H52.9342V62.6769H57.6001ZM88.5331 76.4414H82.8873V74.2018C82.2652 75.0727 81.4098 75.7571 80.321 76.2548C79.2634 76.7525 78.1436 77.0013 76.9616 77.0013C75.0641 77.0013 73.431 76.3325 72.0623 74.995C70.6936 73.6574 70.0093 71.8377 70.0093 69.5358C70.0093 67.2028 70.6781 65.3987 72.0157 64.1233C73.3843 62.848 75.033 62.2103 76.9616 62.2103C78.1747 62.2103 79.3101 62.4436 80.3677 62.9102C81.4564 63.3768 82.2963 64.03 82.8873 64.8699V61.9303C82.8873 60.7172 82.514 59.7684 81.7675 59.0841C81.052 58.3687 80.0411 58.0109 78.7346 58.0109C76.6816 58.0109 74.8308 58.8197 73.1821 60.4372L71.0825 56.6112C73.3532 54.4337 76.2461 53.345 79.7611 53.345C82.4052 53.345 84.5204 53.9982 86.1068 55.3047C87.7243 56.5801 88.5331 58.5864 88.5331 61.3238V76.4414ZM79.1079 73.2219C80.8498 73.2219 82.1096 72.5065 82.8873 71.0756V68.1827C82.0785 66.7207 80.8187 65.9897 79.1079 65.9897C78.0503 65.9897 77.1949 66.3319 76.5416 67.0162C75.9195 67.6694 75.6084 68.5404 75.6084 69.6291C75.6084 70.7179 75.9195 71.5888 76.5416 72.2421C77.1949 72.8953 78.0503 73.2219 79.1079 73.2219ZM105.308 77.0013C102.882 77.0013 100.984 75.8659 99.6154 73.5952V85.0267H94.0163V53.9049H99.6154V56.7511C101.046 54.4804 102.944 53.345 105.308 53.345C107.859 53.345 109.88 54.4026 111.374 56.5178C112.898 58.602 113.66 61.4793 113.66 65.1498C113.66 68.7893 112.898 71.6821 111.374 73.8285C109.88 75.9437 107.859 77.0013 105.308 77.0013ZM103.488 72.0554C104.888 72.0554 105.961 71.4177 106.708 70.1424C107.485 68.867 107.874 67.2028 107.874 65.1498C107.874 63.1279 107.485 61.4793 106.708 60.2039C105.961 58.9286 104.888 58.2909 103.488 58.2909C102.742 58.2909 101.995 58.5398 101.249 59.0375C100.533 59.5352 99.9887 60.1573 99.6154 60.9038V69.3958C99.9887 70.1424 100.533 70.7801 101.249 71.3089C101.995 71.8066 102.742 72.0554 103.488 72.0554ZM140.766 53.9049H146.365V71.5422H148.884V82.1805H143.239V76.4414H117.949V53.9049H123.548V71.5422H129.334V53.9049H134.98V71.5422H140.766V53.9049ZM157.957 76.4414H152.545V53.9049H158.144V66.5963L165.096 53.9049H170.835V76.4414H165.189V63.2368L157.957 76.4414ZM195.565 76.4414H188.986L184.32 67.6228L181.94 70.9356V76.4414H176.341V53.9049H181.94V64.1233L188.799 53.9049H195.331L188.192 64.03L195.565 76.4414ZM207.274 77.0013C204.101 77.0013 201.613 75.8659 199.809 73.5952C198.005 71.2933 197.103 68.4782 197.103 65.1498C197.103 61.8215 198.005 59.0219 199.809 56.7511C201.613 54.4804 204.101 53.345 207.274 53.345C210.478 53.345 212.982 54.4804 214.786 56.7511C216.591 59.0219 217.493 61.8215 217.493 65.1498C217.493 68.5093 216.591 71.3244 214.786 73.5952C212.982 75.8659 210.478 77.0013 207.274 77.0013ZM207.274 72.0554C208.736 72.0554 209.841 71.4022 210.587 70.0957C211.334 68.7893 211.707 67.1406 211.707 65.1498C211.707 63.159 211.334 61.526 210.587 60.2506C209.841 58.9441 208.736 58.2909 207.274 58.2909C205.843 58.2909 204.755 58.9441 204.008 60.2506C203.293 61.5571 202.935 63.1901 202.935 65.1498C202.935 67.1406 203.293 68.7893 204.008 70.0957C204.755 71.4022 205.843 72.0554 207.274 72.0554ZM245.447 76.4414H239.895V62.7702L234.855 76.4414H232.429L227.437 62.7702V76.4414H221.838V53.9049H229.023L233.642 66.4563L238.308 53.9049H245.447V76.4414ZM32.8287 121.441H27.2296V98.9049H32.8287V107.304H39.8743V98.9049H45.5201V121.441H39.8743V112.203H32.8287V121.441ZM68.3365 121.441H62.6907V119.202C62.0686 120.073 61.2132 120.757 60.1244 121.255C59.0668 121.752 57.947 122.001 56.765 122.001C54.8675 122.001 53.2344 121.333 51.8657 119.995C50.4971 118.657 49.8127 116.838 49.8127 114.536C49.8127 112.203 50.4815 110.399 51.8191 109.123C53.1877 107.848 54.8364 107.21 56.765 107.21C57.9781 107.21 59.1135 107.444 60.1711 107.91C61.2598 108.377 62.0997 109.03 62.6907 109.87V106.93C62.6907 105.717 62.3174 104.768 61.5709 104.084C60.8554 103.369 59.8445 103.011 58.538 103.011C56.485 103.011 54.6342 103.82 52.9856 105.437L50.8859 101.611C53.1566 99.4337 56.0495 98.345 59.5645 98.345C62.2086 98.345 64.3238 98.9982 65.9102 100.305C67.5277 101.58 68.3365 103.586 68.3365 106.324V121.441ZM58.9113 118.222C60.6532 118.222 61.9131 117.506 62.6907 116.076V113.183C61.8819 111.721 60.6221 110.99 58.9113 110.99C57.8537 110.99 56.9983 111.332 56.345 112.016C55.7229 112.669 55.4118 113.54 55.4118 114.629C55.4118 115.718 55.7229 116.589 56.345 117.242C56.9983 117.895 57.8537 118.222 58.9113 118.222ZM102.373 121.441H96.7743V106.51C96.7743 104.364 95.7789 103.291 93.7881 103.291C92.9482 103.291 92.1706 103.571 91.4551 104.131C90.7397 104.66 90.1642 105.313 89.7287 106.09V121.441H84.0829V90.3196H89.7287V101.844C90.3509 100.88 91.2529 100.056 92.435 99.3715C93.6481 98.6872 94.939 98.345 96.3077 98.345C100.352 98.345 102.373 100.367 102.373 104.411V121.441ZM126.17 121.441H120.571V106.51C120.571 104.364 119.575 103.291 117.584 103.291C116.745 103.291 115.967 103.571 115.251 104.131C114.536 104.66 113.961 105.313 113.525 106.09V121.441H107.879V90.3196H113.525V101.844C114.147 100.88 115.049 100.056 116.231 99.3715C117.444 98.6872 118.735 98.345 120.104 98.345C124.148 98.345 126.17 100.367 126.17 104.411V121.441ZM137.555 120.928C136.87 121.612 136.03 121.955 135.035 121.955C134.04 121.955 133.184 121.597 132.469 120.881C131.753 120.166 131.396 119.326 131.396 118.362C131.396 117.366 131.753 116.511 132.469 115.796C133.184 115.08 134.04 114.722 135.035 114.722C135.999 114.722 136.839 115.08 137.555 115.796C138.27 116.511 138.628 117.366 138.628 118.362C138.628 119.357 138.27 120.213 137.555 120.928ZM149.497 121.441H143.898V98.9049H149.497V101.984C150.15 100.958 151.037 100.103 152.157 99.4182C153.308 98.7027 154.474 98.345 155.656 98.345V103.851C155.283 103.757 154.832 103.711 154.303 103.711C153.401 103.711 152.483 103.975 151.55 104.504C150.648 105.002 149.964 105.639 149.497 106.417V121.441ZM177.554 121.441H171.955V118.595C171.302 119.559 170.384 120.368 169.202 121.021C168.02 121.675 166.729 122.001 165.329 122.001C161.317 122.001 159.31 119.979 159.31 115.936V98.9049H164.909V113.789C164.909 115.967 165.905 117.055 167.896 117.055C169.575 117.055 170.928 116.138 171.955 114.303V98.9049H177.554V121.441ZM199.532 110.103L193.699 118.502H188.94L194.773 110.103L188.94 101.844H193.699L199.532 110.103ZM207.417 110.103L201.585 118.502H196.779L202.611 110.103L196.779 101.844H201.585L207.417 110.103Z" fill="white"/>
  <path d="M19.1191 28.678H14.3132L8.48075 20.2793L14.3132 12.0206H19.1191L13.2867 20.2793L19.1191 28.678ZM11.2337 28.678H6.47439L0.641969 20.2793L6.47439 12.0206H11.2337L5.40123 20.2793L11.2337 28.678Z" fill="white"/>
  </svg>
  