<svg viewBox="0 0 350 211" fill="none" xmlns="http://www.w3.org/2000/svg">
  <path d="M350 0L42.2556 0.00019445C27.6201 0.000203698 20.3024 0.000208321 14.7123 2.84847C9.79523 5.35386 5.79749 9.3516 3.2921 14.2687C0.443842 19.8587 0.443842 27.1765 0.443842 41.812V168.933C0.443842 183.569 0.443842 190.886 3.2921 196.476C5.79749 201.394 9.79524 205.391 14.7124 207.897C20.3024 210.745 27.6201 210.745 42.2556 210.745H308.189C322.824 210.745 330.142 210.745 335.732 207.897C340.649 205.391 344.647 201.394 347.152 196.476C350 190.886 350 183.569 350 168.933L350 0Z" fill="#D6001C"/>
  </svg>
  