<svg width="323" height="319" viewBox="0 0 323 319" fill="none" xmlns="http://www.w3.org/2000/svg">
  <path d="M127.33 58.4448C136.897 51.0262 146.533 44.2302 156.134 38.1219C166.823 31.3174 177.922 25.1401 189.02 19.8506C202.002 13.6866 215.535 8.53177 228.843 5.13363C245.254 0.940666 262.058 -0.70272 277.183 2.12241C297.125 5.82902 312.109 16.8558 318.976 36.0912C327.952 61.279 322.262 97.987 298.499 142.001C270.956 193.018 225.501 242.622 171.817 278.03C123.216 310.075 78.8929 323.049 46.2638 317.195C21.5147 312.756 8.09849 297.991 2.82537 279.287C-1.23391 264.979 -0.513814 248.292 3.27826 231.45C6.32349 217.898 11.3887 203.903 17.8724 190.202C23.3434 178.609 29.9771 166.87 37.556 155.236C44.2624 144.933 51.3841 135.208 58.6191 126.159C65.3604 117.734 72.4977 109.54 79.7674 101.801C86.8481 94.2683 94.3597 86.8463 102.087 79.7634C109.922 72.5665 118.391 65.3991 127.33 58.4448Z" fill="#D6001C"/>
  </svg>
  