<svg width="132" height="54" viewBox="0 0 132 54" fill="none" xmlns="http://www.w3.org/2000/svg">
  <path d="M8.83837 12.5098H6.68935L4.08132 8.7542L6.68935 5.06123H8.83837L6.23034 8.7542L8.83837 12.5098ZM5.31231 12.5098H3.18415L0.576123 8.7542L3.18415 5.06123H5.31231L2.70428 8.7542L5.31231 12.5098Z" fill="white"/>
  <path d="M16.4473 14.8242H14.0271V4.74678H16.5308V10.4219L19.6395 4.74678H22.2058V14.8242H19.6813V8.91963L16.4473 14.8242ZM34.8705 4.74678H37.3742V12.6335H38.5008V17.3905H35.9763V14.8242H24.6678V4.74678H27.1715V12.6335H29.7587V4.74678H32.2833V12.6335H34.8705V4.74678ZM42.5578 14.8242H40.1375V4.74678H42.6412V10.4219L45.75 4.74678H48.3163V14.8242H45.7917V8.91963L42.5578 14.8242ZM54.7425 14.8242H52.2179V6.93753H50.0063V4.74678H56.975V6.93753H54.7425V14.8242ZM62.8209 15.0746C59.9834 15.0746 58.1264 12.9464 58.1264 9.77507C58.1264 6.85407 59.8373 4.49641 62.6331 4.49641C65.4081 4.49641 66.9729 6.74975 66.9729 9.87939V10.5888H60.651C60.7553 11.9658 61.569 13.0508 63.0921 13.0508C63.8015 13.0508 64.7195 12.6961 65.2829 12.0701L66.4304 13.5724C65.5332 14.553 64.1771 15.0746 62.8209 15.0746ZM64.5526 8.87791C64.5109 7.83469 64.0519 6.52024 62.5914 6.52024C61.1935 6.52024 60.6927 7.83469 60.651 8.87791H64.5526ZM78.479 15.0746C77.5193 15.0746 76.5595 14.5947 75.9336 13.5515V18.6632H73.4299V4.74678H75.9336V6.0195C76.5595 5.01802 77.4984 4.49641 78.479 4.49641C80.7532 4.49641 82.2137 6.47852 82.2137 9.77507C82.2137 13.0508 80.7532 15.0746 78.479 15.0746ZM77.6653 12.863C78.9589 12.863 79.6266 11.5485 79.6266 9.77507C79.6266 8.02247 78.9589 6.70802 77.6653 6.70802C76.9977 6.70802 76.2674 7.20877 75.9336 7.87642V11.6737C76.2674 12.3205 76.9977 12.863 77.6653 12.863ZM91.8724 14.8242H89.3478V13.8227C88.7845 14.6156 87.7204 15.0746 86.6981 15.0746C85.1124 15.0746 83.5893 13.8853 83.5893 11.7363C83.5893 9.5247 85.1124 8.46062 86.6981 8.46062C87.7413 8.46062 88.8054 8.87791 89.3478 9.64988V8.33544C89.3478 7.25049 88.6802 6.58284 87.4909 6.58284C86.6146 6.58284 85.7592 6.93753 85.0081 7.66778L84.0692 5.95691C85.1333 4.93456 86.6563 4.49641 87.9499 4.49641C90.1407 4.49641 91.8724 5.47703 91.8724 8.0642V14.8242ZM87.6578 13.3846C88.3463 13.3846 89.014 13.0299 89.3478 12.4248V11.1312C89.014 10.5262 88.3463 10.1506 87.6578 10.1506C86.7189 10.1506 86.093 10.8183 86.093 11.778C86.093 12.7378 86.7189 13.3846 87.6578 13.3846ZM98.3511 12.863C99.7073 12.863 100.333 11.4233 100.333 9.7542C100.333 8.14766 99.7073 6.70802 98.3511 6.70802C97.0158 6.70802 96.3898 8.14766 96.3898 9.7542C96.3898 11.4233 97.0158 12.863 98.3511 12.863ZM98.3511 15.0746C95.3258 15.0746 93.8027 12.6126 93.8027 9.31606C93.8027 4.18345 95.0128 2.36826 98.3511 1.78406C99.5404 1.57542 100.041 1.34591 100.041 0.90776H102.587C102.587 2.869 100.458 3.41147 99.0605 3.64098C97.0575 3.97481 96.1812 4.74678 95.9726 5.95691C96.5985 5.03888 97.6 4.49641 98.8518 4.49641C101.481 4.49641 102.92 6.95839 102.92 9.7542C102.92 12.55 101.376 15.0746 98.3511 15.0746ZM108.931 15.0746C105.968 15.0746 104.382 12.6126 104.382 9.77507C104.382 6.95839 105.968 4.49641 108.931 4.49641C111.935 4.49641 113.5 6.95839 113.5 9.77507C113.5 12.6126 111.935 15.0746 108.931 15.0746ZM108.931 12.863C110.308 12.863 110.913 11.4442 110.913 9.77507C110.913 8.12679 110.308 6.70802 108.931 6.70802C107.595 6.70802 106.99 8.12679 106.99 9.77507C106.99 11.4442 107.595 12.863 108.931 12.863ZM119.407 14.8242H116.882V6.93753H114.671V4.74678H121.64V6.93753H119.407V14.8242ZM123.083 18.7676L123.459 16.556C123.626 16.6394 123.918 16.702 124.105 16.702C124.669 16.702 125.023 16.4934 125.211 15.9718L125.545 15.012L122.144 4.74678H124.815L126.839 11.7989L128.883 4.74678H131.554L127.611 16.5351C126.985 18.392 125.9 18.8927 124.293 18.9136C123.98 18.9136 123.354 18.851 123.083 18.7676ZM16.4473 33.8242H14.0271V23.7468H16.5308V29.4219L19.6395 23.7468H22.2058V33.8242H19.6813V27.9196L16.4473 33.8242ZM27.1715 33.8242H24.6678V23.7468H27.1715V27.5023H30.322V23.7468H32.8466V33.8242H30.322V29.6931H27.1715V33.8242ZM37.1864 33.8242H34.2445L37.5411 28.2743L34.3488 23.7468H37.2698L39.6484 27.2937V23.7468H42.1521V27.3354L44.5515 23.7468H47.4516L44.2802 28.2743L47.5768 33.8242H44.6349L42.5485 29.8809L42.1521 30.4442V33.8242H39.6484V30.4025L39.2728 29.8809L37.1864 33.8242ZM52.9544 34.0746C50.1168 34.0746 48.2599 31.9464 48.2599 28.7751C48.2599 25.8541 49.9708 23.4964 52.7666 23.4964C55.5415 23.4964 57.1064 25.7498 57.1064 28.8794V29.5888H50.7845C50.8888 30.9658 51.7025 32.0508 53.2256 32.0508C53.935 32.0508 54.853 31.6961 55.4164 31.0701L56.5639 32.5724C55.6667 33.553 54.3106 34.0746 52.9544 34.0746ZM54.6861 27.8779C54.6444 26.8347 54.1854 25.5202 52.7249 25.5202C51.327 25.5202 50.8262 26.8347 50.7845 27.8779H54.6861ZM61.4778 33.8242H58.974V23.7468H61.4778V27.5023H64.6283V23.7468H67.1528V33.8242H64.6283V29.6931H61.4778V33.8242ZM73.7877 34.0746C70.9501 34.0746 69.0932 31.9464 69.0932 28.7751C69.0932 25.8541 70.8041 23.4964 73.5999 23.4964C76.3748 23.4964 77.9396 25.7498 77.9396 28.8794V29.5888H71.6178C71.7221 30.9658 72.5358 32.0508 74.0589 32.0508C74.7683 32.0508 75.6863 31.6961 76.2496 31.0701L77.3972 32.5724C76.5 33.553 75.1438 34.0746 73.7877 34.0746ZM75.5194 27.8779C75.4777 26.8347 75.0187 25.5202 73.5582 25.5202C72.1602 25.5202 71.6595 26.8347 71.6178 27.8779H75.5194ZM84.8565 34.0746C83.8967 34.0746 82.937 33.5947 82.311 32.5515V37.6632H79.8073V23.7468H82.311V25.0195C82.937 24.018 83.8759 23.4964 84.8565 23.4964C87.1307 23.4964 88.5912 25.4785 88.5912 28.7751C88.5912 32.0508 87.1307 34.0746 84.8565 34.0746ZM84.0428 31.863C85.3364 31.863 86.004 30.5485 86.004 28.7751C86.004 27.0225 85.3364 25.708 84.0428 25.708C83.3751 25.708 82.6449 26.2088 82.311 26.8764V30.6737C82.6449 31.3205 83.3751 31.863 84.0428 31.863ZM94.536 34.0746C91.5733 34.0746 89.9876 31.6126 89.9876 28.7751C89.9876 25.9584 91.5733 23.4964 94.536 23.4964C97.5405 23.4964 99.1053 25.9584 99.1053 28.7751C99.1053 31.6126 97.5405 34.0746 94.536 34.0746ZM94.536 31.863C95.9131 31.863 96.5181 30.4442 96.5181 28.7751C96.5181 27.1268 95.9131 25.708 94.536 25.708C93.2007 25.708 92.5956 27.1268 92.5956 28.7751C92.5956 30.4442 93.2007 31.863 94.536 31.863ZM111.605 33.8242H109.123V27.711L106.869 33.8242H105.784L103.552 27.711V33.8242H101.048V23.7468H104.261L106.327 29.3593L108.413 23.7468H111.605V33.8242ZM16.5308 52.8242H14.0271V42.7468H16.5308V46.5023H19.6813V42.7468H22.2058V52.8242H19.6813V48.6931H16.5308V52.8242ZM32.4085 52.8242H29.8839V51.8227C29.3206 52.6156 28.2565 53.0746 27.2341 53.0746C25.6485 53.0746 24.1254 51.8853 24.1254 49.7363C24.1254 47.5247 25.6485 46.4606 27.2341 46.4606C28.2773 46.4606 29.3414 46.8779 29.8839 47.6499V46.3354C29.8839 45.2505 29.2162 44.5828 28.027 44.5828C27.1507 44.5828 26.2952 44.9375 25.5441 45.6678L24.6052 43.9569C25.6693 42.9346 27.1924 42.4964 28.486 42.4964C30.6767 42.4964 32.4085 43.477 32.4085 46.0642V52.8242ZM28.1939 51.3846C28.8824 51.3846 29.5501 51.0299 29.8839 50.4248V49.1312C29.5501 48.5262 28.8824 48.1506 28.1939 48.1506C27.255 48.1506 26.6291 48.8183 26.6291 49.778C26.6291 50.7378 27.255 51.3846 28.1939 51.3846ZM47.6285 52.8242H45.1247V46.1477C45.1247 45.1044 44.624 44.708 43.7894 44.708C42.9757 44.708 42.3081 45.3548 41.9742 45.9599V52.8242H39.4497V38.9078H41.9742V44.0612C42.4958 43.2684 43.6225 42.4964 44.9161 42.4964C46.7939 42.4964 47.6285 43.5188 47.6285 45.2088V52.8242ZM58.2692 52.8242H55.7655V46.1477C55.7655 45.1044 55.2648 44.708 54.4302 44.708C53.6165 44.708 52.9488 45.3548 52.615 45.9599V52.8242H50.0904V38.9078H52.615V44.0612C53.1366 43.2684 54.2633 42.4964 55.5569 42.4964C57.4347 42.4964 58.2692 43.5188 58.2692 45.2088V52.8242ZM62.2334 53.0537C61.3571 53.0537 60.606 52.3235 60.606 51.4472C60.606 50.5709 61.3571 49.8198 62.2334 49.8198C63.1097 49.8198 63.84 50.5709 63.84 51.4472C63.84 52.3235 63.1097 53.0537 62.2334 53.0537ZM68.7004 52.8242H66.1967V42.7468H68.7004V44.1238C69.2637 43.2267 70.3695 42.4964 71.4545 42.4964V44.9584C71.2875 44.9167 71.0789 44.8958 70.8494 44.8958C70.0565 44.8958 69.1177 45.4174 68.7004 46.1059V52.8242ZM81.2463 52.8242H78.7426V51.5515C78.2001 52.3443 77.0943 53.0746 75.7799 53.0746C73.923 53.0746 73.0884 52.0522 73.0884 50.3622V42.7468H75.5921V49.4025C75.5921 50.4666 76.0928 50.863 76.9274 50.863C77.7411 50.863 78.3879 50.2579 78.7426 49.632V42.7468H81.2463V52.8242Z" fill="white"/>
  <path d="M86.0303 44.1343L88.1793 44.1343L90.7873 47.8898L88.1793 51.5828L86.0303 51.5828L88.6383 47.8898L86.0303 44.1343ZM89.5563 44.1343L91.6845 44.1343L94.2925 47.8898L91.6845 51.5828L89.5563 51.5828L92.1644 47.8898L89.5563 44.1343Z" fill="white"/>
  </svg>
  