<svg width="186" height="59" viewBox="0 0 186 59" fill="none" xmlns="http://www.w3.org/2000/svg">
  <path d="M9.15206 13.6858H6.77536L3.89103 9.53237L6.77536 5.44815H9.15206L6.26772 9.53237L9.15206 13.6858ZM5.25243 13.6858H2.89881L0.014476 9.53237L2.89881 5.44815H5.25243L2.36809 9.53237L5.25243 13.6858Z" fill="white"/>
  <path d="M17.5671 16.1395H14.8905V4.99445H17.6594V11.2708L21.0976 4.99445H23.9358V16.1395H21.1437V9.60939L17.5671 16.1395ZM37.9421 4.99445H40.7111V13.7167H41.9571V18.9777H39.1651V16.1395H26.6586V4.99445H29.4275V13.7167H32.2888V4.99445H35.0808V13.7167H37.9421V4.99445ZM46.4439 16.1395H43.7672V4.99445H46.5362V11.2708L49.9743 4.99445H52.8125V16.1395H50.0204V9.60939L46.4439 16.1395ZM59.9195 16.1395H57.1274V7.41729H54.6815V4.99445H62.3885V7.41729H59.9195V16.1395ZM68.8537 16.4164C67.2846 16.4164 66.0232 15.878 65.0695 14.8012C64.1311 13.7244 63.6619 12.3091 63.6619 10.5554C63.6619 8.89407 64.1157 7.50959 65.0233 6.402C65.9309 5.27904 67.1385 4.71755 68.646 4.71755C70.1536 4.71755 71.3304 5.27134 72.1765 6.37893C73.0225 7.47113 73.4456 8.90176 73.4456 10.6708V11.4554H66.4539C66.5155 12.2553 66.777 12.9091 67.2385 13.4167C67.7 13.9244 68.3384 14.1782 69.1537 14.1782C69.569 14.1782 69.9998 14.0859 70.4459 13.9013C70.892 13.7013 71.2689 13.4321 71.5765 13.0937L72.8456 14.755C71.8303 15.8626 70.4997 16.4164 68.8537 16.4164ZM70.7689 9.56324C70.7381 8.871 70.5535 8.26336 70.2151 7.74034C69.8767 7.21731 69.3383 6.9558 68.5999 6.9558C67.8923 6.9558 67.3615 7.21731 67.0077 7.74034C66.6693 8.26336 66.4847 8.871 66.4539 9.56324H70.7689ZM86.1707 16.4164C84.9708 16.4164 84.0325 15.8549 83.3556 14.732V20.3853H80.5867V4.99445H83.3556V6.402C84.0632 5.27904 85.0016 4.71755 86.1707 4.71755C87.4321 4.71755 88.4321 5.24058 89.1704 6.28663C89.9242 7.3173 90.3011 8.74024 90.3011 10.5554C90.3011 12.3553 89.9242 13.7859 89.1704 14.8473C88.4321 15.8934 87.4321 16.4164 86.1707 16.4164ZM85.2708 13.9705C85.9631 13.9705 86.4938 13.6552 86.863 13.0244C87.2476 12.3937 87.4398 11.5707 87.4398 10.5554C87.4398 9.55555 87.2476 8.74024 86.863 8.10953C86.4938 7.47882 85.9631 7.16347 85.2708 7.16347C84.9016 7.16347 84.5324 7.28653 84.1632 7.53266C83.8094 7.77879 83.5402 8.08646 83.3556 8.45565V12.6552C83.5402 13.0244 83.8094 13.3398 84.1632 13.6013C84.5324 13.8474 84.9016 13.9705 85.2708 13.9705ZM100.983 16.1395H98.191V15.0319C97.8834 15.4627 97.4603 15.8011 96.9219 16.0472C96.3989 16.2934 95.8451 16.4164 95.2605 16.4164C94.3222 16.4164 93.5146 16.0857 92.8377 15.4242C92.1608 14.7627 91.8224 13.8628 91.8224 12.7245C91.8224 11.5707 92.1531 10.6785 92.8146 10.0478C93.4915 9.4171 94.3068 9.10174 95.2605 9.10174C95.8605 9.10174 96.422 9.21712 96.945 9.44786C97.4834 9.67861 97.8987 10.0017 98.191 10.417V8.9633C98.191 8.36335 98.0064 7.89417 97.6372 7.55574C97.2834 7.20193 96.7835 7.02502 96.1374 7.02502C95.1221 7.02502 94.2068 7.42498 93.3915 8.22491L92.3531 6.33278C93.4761 5.25596 94.9067 4.71755 96.645 4.71755C97.9526 4.71755 98.9986 5.0406 99.7832 5.68669C100.583 6.3174 100.983 7.30961 100.983 8.66332V16.1395ZM96.322 14.5474C97.1834 14.5474 97.8064 14.1936 98.191 13.4859V12.0553C97.7911 11.3323 97.168 10.9708 96.322 10.9708C95.7989 10.9708 95.3759 11.14 95.0529 11.4784C94.7452 11.8015 94.5914 12.2322 94.5914 12.7706C94.5914 13.309 94.7452 13.7398 95.0529 14.0628C95.3759 14.3858 95.7989 14.5474 96.322 14.5474ZM106.533 13.0014C106.902 13.6475 107.44 13.9705 108.148 13.9705C108.856 13.9705 109.394 13.6475 109.763 13.0014C110.148 12.3399 110.34 11.5169 110.34 10.5324C110.34 9.57862 110.148 8.7787 109.763 8.13261C109.394 7.48652 108.856 7.16347 108.148 7.16347C107.44 7.16347 106.902 7.48652 106.533 8.13261C106.164 8.7787 105.979 9.57862 105.979 10.5324C105.979 11.5169 106.164 12.3399 106.533 13.0014ZM108.148 16.4164C106.533 16.4164 105.287 15.8319 104.41 14.6627C103.549 13.4782 103.118 11.9399 103.118 10.0478C103.118 7.23269 103.487 5.22519 104.225 4.02531C104.979 2.81004 106.287 2.04089 108.148 1.71784C109.394 1.50248 110.017 1.17943 110.017 0.748703H112.832C112.832 2.33317 111.532 3.34076 108.933 3.77149C106.887 4.10992 105.748 4.96368 105.518 6.33278C106.256 5.25596 107.317 4.71755 108.702 4.71755C110.102 4.71755 111.202 5.27904 112.002 6.402C112.802 7.52497 113.201 8.90176 113.201 10.5324C113.201 12.1784 112.755 13.5705 111.863 14.7089C110.986 15.8472 109.748 16.4164 108.148 16.4164ZM119.849 16.4164C118.28 16.4164 117.049 15.8549 116.157 14.732C115.264 13.5936 114.818 12.2014 114.818 10.5554C114.818 8.90945 115.264 7.52497 116.157 6.402C117.049 5.27904 118.28 4.71755 119.849 4.71755C121.433 4.71755 122.671 5.27904 123.564 6.402C124.456 7.52497 124.902 8.90945 124.902 10.5554C124.902 12.2168 124.456 13.609 123.564 14.732C122.671 15.8549 121.433 16.4164 119.849 16.4164ZM119.849 13.9705C120.572 13.9705 121.118 13.6475 121.487 13.0014C121.856 12.3553 122.041 11.54 122.041 10.5554C122.041 9.57093 121.856 8.76331 121.487 8.13261C121.118 7.48652 120.572 7.16347 119.849 7.16347C119.141 7.16347 118.603 7.48652 118.233 8.13261C117.88 8.7787 117.703 9.58631 117.703 10.5554C117.703 11.54 117.88 12.3553 118.233 13.0014C118.603 13.6475 119.141 13.9705 119.849 13.9705ZM131.435 16.1395H128.643V7.41729H126.197V4.99445H133.904V7.41729H131.435V16.1395ZM135.5 20.5006L135.916 18.0547C136.131 18.1624 136.369 18.2162 136.631 18.2162C137.246 18.2162 137.654 17.947 137.854 17.4086L138.223 16.3472L134.462 4.99445H137.415L139.654 12.7937L141.915 4.99445H144.869L140.507 18.0317C140.184 19.0162 139.731 19.693 139.146 20.0622C138.562 20.4468 137.792 20.6468 136.839 20.6622C136.3 20.6622 135.854 20.6083 135.5 20.5006ZM23.4512 37.1395H20.6591V36.0319C20.3515 36.4627 19.9284 36.8011 19.39 37.0472C18.867 37.2934 18.3132 37.4164 17.7287 37.4164C16.7903 37.4164 15.9827 37.0857 15.3058 36.4242C14.629 35.7627 14.2905 34.8628 14.2905 33.7245C14.2905 32.5707 14.6213 31.6785 15.2827 31.0478C15.9596 30.4171 16.7749 30.1017 17.7287 30.1017C18.3286 30.1017 18.8901 30.2171 19.4131 30.4479C19.9515 30.6786 20.3669 31.0017 20.6591 31.417V29.9633C20.6591 29.3634 20.4745 28.8942 20.1054 28.5557C19.7515 28.2019 19.2516 28.025 18.6055 28.025C17.5902 28.025 16.6749 28.425 15.8596 29.2249L14.8212 27.3328C15.9442 26.256 17.3748 25.7176 19.1131 25.7176C20.4207 25.7176 21.4668 26.0406 22.2513 26.6867C23.0512 27.3174 23.4512 28.3096 23.4512 29.6633V37.1395ZM18.7901 35.5474C19.6516 35.5474 20.2746 35.1936 20.6591 34.4859V33.0553C20.2592 32.3323 19.6362 31.9708 18.7901 31.9708C18.2671 31.9708 17.844 32.14 17.521 32.4784C17.2133 32.8015 17.0595 33.2322 17.0595 33.7706C17.0595 34.309 17.2133 34.7398 17.521 35.0628C17.844 35.3858 18.2671 35.5474 18.7901 35.5474ZM25.3091 39.9777V34.9244C25.7859 34.8474 26.1474 34.609 26.3936 34.209C26.6397 33.7937 26.8243 32.963 26.9474 31.717L27.4781 25.9944H35.2081V34.7167H36.3618V39.9777H33.5929V37.1395H28.078V39.9777H25.3091ZM29.9932 28.4173L29.7163 31.8093C29.6086 33.1015 29.2318 34.0706 28.5857 34.7167H32.4161V28.4173H29.9932ZM49.8321 37.1395H47.0862V30.3786L44.5941 37.1395H43.3942L40.9252 30.3786V37.1395H38.1563V25.9944H41.7098L43.9942 32.2015L46.3016 25.9944H49.8321V37.1395ZM55.2375 37.1395H52.5608V25.9944H55.3298V32.2708L58.7679 25.9944H61.6061V37.1395H58.8141V30.6094L55.2375 37.1395ZM67.0979 37.1395H64.3289V25.9944H67.0979V30.1479H70.5822V25.9944H73.3742V37.1395H70.5822V32.5707H67.0979V37.1395ZM78.7737 37.1395H76.097V25.9944H78.866V32.2708L82.3041 25.9944H85.1423V37.1395H82.3502V30.6094L78.7737 37.1395ZM92.3877 37.4164C90.8648 37.4164 89.6342 36.8703 88.6958 35.7781C87.7574 34.6859 87.2882 33.2784 87.2882 31.5554C87.2882 29.8479 87.7574 28.4481 88.6958 27.3559C89.6342 26.2637 90.8648 25.7176 92.3877 25.7176C93.9261 25.7176 95.1106 26.2175 95.9412 27.2174L94.5568 29.1326C94.0337 28.4865 93.4107 28.1635 92.6877 28.1635C91.9032 28.1635 91.2802 28.4865 90.8187 29.1326C90.3725 29.7633 90.1495 30.5709 90.1495 31.5554C90.1495 32.5554 90.3725 33.3784 90.8187 34.0244C91.2802 34.6552 91.9032 34.9705 92.6877 34.9705C93.4107 34.9705 94.0337 34.6475 94.5568 34.0014L95.9412 35.9166C95.1106 36.9165 93.9261 37.4164 92.3877 37.4164ZM102.192 37.1395H99.4001V28.4173H96.9542V25.9944H104.661V28.4173H102.192V37.1395ZM112.096 37.4164C110.896 37.4164 109.957 36.8549 109.28 35.732V41.3853H106.511V25.9944H109.28V27.402C109.988 26.279 110.926 25.7176 112.096 25.7176C113.357 25.7176 114.357 26.2406 115.095 27.2866C115.849 28.3173 116.226 29.7402 116.226 31.5554C116.226 33.3553 115.849 34.7859 115.095 35.8473C114.357 36.8934 113.357 37.4164 112.096 37.4164ZM111.196 34.9705C111.888 34.9705 112.419 34.6552 112.788 34.0244C113.172 33.3937 113.365 32.5707 113.365 31.5554C113.365 30.5555 113.172 29.7402 112.788 29.1095C112.419 28.4788 111.888 28.1635 111.196 28.1635C110.826 28.1635 110.457 28.2865 110.088 28.5327C109.734 28.7788 109.465 29.0865 109.28 29.4557V33.6552C109.465 34.0244 109.734 34.3398 110.088 34.6013C110.457 34.8474 110.826 34.9705 111.196 34.9705ZM126.908 37.1395H124.116V36.0319C123.808 36.4627 123.385 36.8011 122.847 37.0472C122.324 37.2934 121.77 37.4164 121.185 37.4164C120.247 37.4164 119.439 37.0857 118.762 36.4242C118.086 35.7627 117.747 34.8628 117.747 33.7245C117.747 32.5707 118.078 31.6785 118.739 31.0478C119.416 30.4171 120.232 30.1017 121.185 30.1017C121.785 30.1017 122.347 30.2171 122.87 30.4479C123.408 30.6786 123.824 31.0017 124.116 31.417V29.9633C124.116 29.3634 123.931 28.8942 123.562 28.5557C123.208 28.2019 122.708 28.025 122.062 28.025C121.047 28.025 120.132 28.425 119.316 29.2249L118.278 27.3328C119.401 26.256 120.832 25.7176 122.57 25.7176C123.877 25.7176 124.923 26.0406 125.708 26.6867C126.508 27.3174 126.908 28.3096 126.908 29.6633V37.1395ZM122.247 35.5474C123.108 35.5474 123.731 35.1936 124.116 34.4859V33.0553C123.716 32.3323 123.093 31.9708 122.247 31.9708C121.724 31.9708 121.301 32.14 120.978 32.4784C120.67 32.8015 120.516 33.2322 120.516 33.7706C120.516 34.309 120.67 34.7398 120.978 35.0628C121.301 35.3858 121.724 35.5474 122.247 35.5474ZM134.004 37.1395H131.212V28.4173H128.766V25.9944H136.473V28.4173H134.004V37.1395ZM142.776 37.4164C141.207 37.4164 139.977 36.8549 139.084 35.732C138.192 34.5936 137.746 33.2014 137.746 31.5554C137.746 29.9095 138.192 28.525 139.084 27.402C139.977 26.279 141.207 25.7176 142.776 25.7176C144.361 25.7176 145.599 26.279 146.491 27.402C147.384 28.525 147.83 29.9095 147.83 31.5554C147.83 33.2168 147.384 34.609 146.491 35.732C145.599 36.8549 144.361 37.4164 142.776 37.4164ZM142.776 34.9705C143.499 34.9705 144.045 34.6475 144.415 34.0014C144.784 33.3553 144.968 32.54 144.968 31.5554C144.968 30.5709 144.784 29.7633 144.415 29.1326C144.045 28.4865 143.499 28.1635 142.776 28.1635C142.069 28.1635 141.53 28.4865 141.161 29.1326C140.807 29.7787 140.63 30.5863 140.63 31.5554C140.63 32.54 140.807 33.3553 141.161 34.0014C141.53 34.6475 142.069 34.9705 142.776 34.9705ZM155.562 37.4164C154.363 37.4164 153.424 36.8549 152.747 35.732V41.3853H149.978V25.9944H152.747V27.402C153.455 26.279 154.393 25.7176 155.562 25.7176C156.824 25.7176 157.824 26.2406 158.562 27.2866C159.316 28.3173 159.693 29.7402 159.693 31.5554C159.693 33.3553 159.316 34.7859 158.562 35.8473C157.824 36.8934 156.824 37.4164 155.562 37.4164ZM154.663 34.9705C155.355 34.9705 155.886 34.6552 156.255 34.0244C156.639 33.3937 156.832 32.5707 156.832 31.5554C156.832 30.5555 156.639 29.7402 156.255 29.1095C155.886 28.4788 155.355 28.1635 154.663 28.1635C154.293 28.1635 153.924 28.2865 153.555 28.5327C153.201 28.7788 152.932 29.0865 152.747 29.4557V33.6552C152.932 34.0244 153.201 34.3398 153.555 34.6013C153.924 34.8474 154.293 34.9705 154.663 34.9705ZM166.268 37.4164C164.698 37.4164 163.468 36.8549 162.576 35.732C161.683 34.5936 161.237 33.2014 161.237 31.5554C161.237 29.9095 161.683 28.525 162.576 27.402C163.468 26.279 164.698 25.7176 166.268 25.7176C167.852 25.7176 169.09 26.279 169.983 27.402C170.875 28.525 171.321 29.9095 171.321 31.5554C171.321 33.2168 170.875 34.609 169.983 35.732C169.09 36.8549 167.852 37.4164 166.268 37.4164ZM166.268 34.9705C166.991 34.9705 167.537 34.6475 167.906 34.0014C168.275 33.3553 168.46 32.54 168.46 31.5554C168.46 30.5709 168.275 29.7633 167.906 29.1326C167.537 28.4865 166.991 28.1635 166.268 28.1635C165.56 28.1635 165.021 28.4865 164.652 29.1326C164.298 29.7787 164.122 30.5863 164.122 31.5554C164.122 32.54 164.298 33.3553 164.652 34.0014C165.021 34.6475 165.56 34.9705 166.268 34.9705ZM185.145 37.1395H182.399V30.3786L179.907 37.1395H178.707L176.238 30.3786V37.1395H173.47V25.9944H177.023L179.307 32.2015L181.615 25.9944H185.145V37.1395ZM17.6594 58.1395H14.8905V46.9944H17.6594V51.1479H21.1437V46.9944H23.9358V58.1395H21.1437V53.5707H17.6594V58.1395ZM35.2193 58.1395H32.4272V57.0319C32.1196 57.4627 31.6965 57.8011 31.1581 58.0472C30.6351 58.2934 30.0813 58.4164 29.4968 58.4164C28.5584 58.4164 27.7508 58.0857 27.0739 57.4242C26.3971 56.7627 26.0586 55.8628 26.0586 54.7245C26.0586 53.5707 26.3894 52.6785 27.0508 52.0478C27.7277 51.4171 28.543 51.1017 29.4968 51.1017C30.0967 51.1017 30.6582 51.2171 31.1812 51.4479C31.7196 51.6786 32.135 52.0017 32.4272 52.417V50.9633C32.4272 50.3634 32.2426 49.8942 31.8734 49.5557C31.5196 49.2019 31.0197 49.025 30.3736 49.025C29.3583 49.025 28.443 49.425 27.6277 50.2249L26.5893 48.3328C27.7123 47.256 29.1429 46.7176 30.8812 46.7176C32.1888 46.7176 33.2349 47.0406 34.0194 47.6867C34.8193 48.3174 35.2193 49.3096 35.2193 50.6633V58.1395ZM30.5582 56.5474C31.4196 56.5474 32.0427 56.1936 32.4272 55.4859V54.0553C32.0273 53.3323 31.4043 52.9708 30.5582 52.9708C30.0352 52.9708 29.6121 53.14 29.2891 53.4784C28.9814 53.8015 28.8276 54.2322 28.8276 54.7706C28.8276 55.309 28.9814 55.7398 29.2891 56.0628C29.6121 56.3858 30.0352 56.5474 30.5582 56.5474ZM52.0517 58.1395H49.2828V50.7556C49.2828 49.6942 48.7905 49.1635 47.806 49.1635C47.3906 49.1635 47.0061 49.3019 46.6523 49.5788C46.2984 49.8403 46.0139 50.1634 45.7985 50.548V58.1395H43.0064V42.7487H45.7985V48.4482C46.1062 47.9713 46.5523 47.5636 47.1368 47.2252C47.7368 46.8868 48.3752 46.7176 49.052 46.7176C51.0518 46.7176 52.0517 47.7175 52.0517 49.7173V58.1395ZM63.8198 58.1395H61.0509V50.7556C61.0509 49.6942 60.5586 49.1635 59.5741 49.1635C59.1587 49.1635 58.7742 49.3019 58.4203 49.5788C58.0665 49.8403 57.7819 50.1634 57.5666 50.548V58.1395H54.7745V42.7487H57.5666V48.4482C57.8742 47.9713 58.3204 47.5636 58.9049 47.2252C59.5049 46.8868 60.1433 46.7176 60.8201 46.7176C62.8199 46.7176 63.8198 47.7175 63.8198 49.7173V58.1395ZM69.45 57.8857C69.1116 58.2241 68.6963 58.3933 68.204 58.3933C67.7118 58.3933 67.2887 58.2164 66.9349 57.8626C66.5811 57.5088 66.4042 57.0935 66.4042 56.6166C66.4042 56.1243 66.5811 55.7013 66.9349 55.3475C67.2887 54.9937 67.7118 54.8168 68.204 54.8168C68.6809 54.8168 69.0962 54.9937 69.45 55.3475C69.8039 55.7013 69.9808 56.1243 69.9808 56.6166C69.9808 57.1089 69.8039 57.5319 69.45 57.8857ZM75.3561 58.1395H72.5871V46.9944H75.3561V48.5174C75.6791 48.0097 76.1176 47.5867 76.6713 47.2483C77.2405 46.8945 77.8174 46.7176 78.402 46.7176V49.4404C78.2174 49.3942 77.9943 49.3711 77.7328 49.3711C77.2867 49.3711 76.8329 49.5019 76.3714 49.7634C75.9253 50.0095 75.5868 50.3249 75.3561 50.7095V58.1395ZM89.2312 58.1395H86.4622V56.732C86.1392 57.2088 85.6854 57.6088 85.1008 57.9319C84.5163 58.2549 83.8779 58.4164 83.1856 58.4164C81.2012 58.4164 80.209 57.4165 80.209 55.4167V46.9944H82.9779V54.3553C82.9779 55.4321 83.4702 55.9705 84.4547 55.9705C85.2854 55.9705 85.9546 55.5167 86.4622 54.6091V46.9944H89.2312V58.1395Z" fill="white"/>
  <path d="M94.522 47.8389L96.8987 47.8389L99.7831 51.9923L96.8987 56.0766L94.522 56.0766L97.4064 51.9923L94.522 47.8389ZM98.4217 47.8389L100.775 47.8389L103.66 51.9923L100.775 56.0766L98.4217 56.0766L101.306 51.9923L98.4217 47.8389Z" fill="white"/>
  </svg>
  