<svg width="543" height="589" viewBox="0 0 543 589" fill="none" xmlns="http://www.w3.org/2000/svg">
  <path d="M195.386 121.989C211.177 107.54 227.185 94.172 243.236 82.0156C261.103 68.4749 279.793 55.9724 298.613 45.0274C320.634 32.2653 343.78 21.1905 366.796 13.2305C395.176 3.41019 424.639 -1.99745 451.808 0.684739C487.63 4.18889 515.795 21.277 530.85 53.9824C550.535 96.8109 546.036 162.049 510.69 242.817C469.719 336.434 396.864 430.267 307.309 500.437C226.233 563.944 149.83 593.362 91.2514 587.997C46.82 583.931 20.8619 560.051 8.70495 528.037C-0.639933 503.552 -1.89457 474.177 2.25871 444.068C5.58999 419.841 12.4256 394.534 21.8137 369.529C29.7309 348.374 39.6815 326.787 51.3193 305.243C61.616 286.165 72.7347 268.038 84.1562 251.08C94.799 235.29 106.177 219.845 117.858 205.18C129.237 190.904 141.394 176.757 153.983 163.173C166.746 149.373 180.633 135.53 195.386 121.989Z" fill="#D6001C"/>
  </svg>
  