<svg width="152" height="53" viewBox="0 0 152 53" fill="none" xmlns="http://www.w3.org/2000/svg">
  <path d="M152 0L13.0032 5.06441e-05C8.45163 5.23024e-05 6.17586 5.31316e-05 4.43741 0.885841C2.90822 1.665 1.66495 2.90827 0.885792 4.43746C5.28985e-06 6.17591 5.28985e-06 8.45168 5.28985e-06 13.0032V39.8401C5.28985e-06 44.3917 5.28985e-06 46.6674 0.885793 48.4059C1.66495 49.9351 2.90822 51.1783 4.43741 51.9575C6.17587 52.8433 8.45163 52.8433 13.0032 52.8433H138.997C143.548 52.8433 145.824 52.8433 147.563 51.9575C149.092 51.1783 150.335 49.9351 151.114 48.4059C152 46.6674 152 44.3916 152 39.8401L152 0Z" fill="#D6001C"/>
  </svg>
  