<svg width="138" height="27" viewBox="0 0 138 27" fill="none" xmlns="http://www.w3.org/2000/svg">
  <path d="M9.97757 10.0461H8.29432V3.03745H10.0356V6.98438L12.1977 3.03745H13.9825V10.0461H12.2267V5.9396L9.97757 10.0461ZM22.7906 3.03745H24.5318V8.52251H25.3154V11.831H23.5596V10.0461H15.6948V3.03745H17.4361V8.52251H19.2354V3.03745H20.9912V8.52251H22.7906V3.03745ZM28.137 10.0461H26.4537V3.03745H28.195V6.98438L30.3571 3.03745H32.1419V10.0461H30.3861V5.9396L28.137 10.0461ZM36.6112 10.0461H34.8554V4.56108H33.3173V3.03745H38.1639V4.56108H36.6112V10.0461ZM42.2296 10.2203C41.2429 10.2203 40.4496 9.88169 39.8499 9.20452C39.2598 8.52735 38.9647 7.63736 38.9647 6.53454C38.9647 5.48977 39.2501 4.61913 39.8208 3.92261C40.3916 3.21642 41.151 2.86333 42.099 2.86333C43.0471 2.86333 43.7871 3.21158 44.3192 3.9081C44.8512 4.59494 45.1173 5.49461 45.1173 6.6071V7.10046H40.7205C40.7592 7.6035 40.9236 8.01464 41.2139 8.33388C41.5041 8.65311 41.9055 8.81273 42.4183 8.81273C42.6794 8.81273 42.9503 8.75469 43.2309 8.6386C43.5114 8.51284 43.7484 8.34355 43.9419 8.13072L44.74 9.1755C44.1015 9.87201 43.2647 10.2203 42.2296 10.2203ZM43.434 5.91058C43.4147 5.47526 43.2986 5.09314 43.0858 4.76423C42.8729 4.43532 42.5343 4.27087 42.07 4.27087C41.625 4.27087 41.2913 4.43532 41.0688 4.76423C40.8559 5.09314 40.7398 5.47526 40.7205 5.91058H43.434ZM53.1196 10.2203C52.365 10.2203 51.7749 9.86718 51.3493 9.16099V12.7161H49.608V3.03745H51.3493V3.92261C51.7943 3.21642 52.3844 2.86333 53.1196 2.86333C53.9128 2.86333 54.5416 3.19224 55.006 3.85006C55.48 4.4982 55.717 5.39303 55.717 6.53454C55.717 7.66638 55.48 8.56605 55.006 9.23354C54.5416 9.89136 53.9128 10.2203 53.1196 10.2203ZM52.5537 8.68213C52.989 8.68213 53.3227 8.48382 53.5549 8.08719C53.7968 7.69057 53.9177 7.17302 53.9177 6.53454C53.9177 5.90574 53.7968 5.39303 53.5549 4.9964C53.3227 4.59978 52.989 4.40146 52.5537 4.40146C52.3215 4.40146 52.0893 4.47885 51.8572 4.63364C51.6347 4.78842 51.4654 4.98189 51.3493 5.21407V7.85502C51.4654 8.08719 51.6347 8.28551 51.8572 8.44996C52.0893 8.60474 52.3215 8.68213 52.5537 8.68213ZM62.4345 10.0461H60.6787V9.34963C60.4852 9.62049 60.2192 9.83332 59.8806 9.9881C59.5517 10.1429 59.2034 10.2203 58.8358 10.2203C58.2457 10.2203 57.7378 10.0123 57.3122 9.59631C56.8865 9.18034 56.6737 8.61442 56.6737 7.89855C56.6737 7.17302 56.8817 6.61193 57.2977 6.21531C57.7233 5.81868 58.236 5.62037 58.8358 5.62037C59.2131 5.62037 59.5662 5.69292 59.8951 5.83803C60.2337 5.98314 60.4949 6.18629 60.6787 6.44748V5.5333C60.6787 5.15602 60.5626 4.86097 60.3304 4.64815C60.1079 4.42565 59.7935 4.3144 59.3872 4.3144C58.7487 4.3144 58.1731 4.56592 57.6604 5.06896L57.0074 3.87908C57.7136 3.20191 58.6133 2.86333 59.7064 2.86333C60.5287 2.86333 61.1865 3.06648 61.6799 3.47278C62.1829 3.8694 62.4345 4.49337 62.4345 5.34466V10.0461ZM59.5033 9.0449C60.045 9.0449 60.4368 8.8224 60.6787 8.37741V7.47774C60.4271 7.02307 60.0354 6.79574 59.5033 6.79574C59.1744 6.79574 58.9083 6.90215 58.7052 7.11497C58.5117 7.31812 58.415 7.58899 58.415 7.92757C58.415 8.26616 58.5117 8.53703 58.7052 8.74018C58.9083 8.94333 59.1744 9.0449 59.5033 9.0449ZM65.9245 8.07268C66.1567 8.47898 66.4953 8.68213 66.9403 8.68213C67.3853 8.68213 67.7239 8.47898 67.956 8.07268C68.1979 7.65671 68.3188 7.13916 68.3188 6.52003C68.3188 5.92026 68.1979 5.41722 67.956 5.01092C67.7239 4.60461 67.3853 4.40146 66.9403 4.40146C66.4953 4.40146 66.1567 4.60461 65.9245 5.01092C65.6924 5.41722 65.5763 5.92026 65.5763 6.52003C65.5763 7.13916 65.6924 7.65671 65.9245 8.07268ZM66.9403 10.2203C65.9245 10.2203 65.1409 9.85267 64.5895 9.11746C64.0478 8.37257 63.7769 7.40519 63.7769 6.21531C63.7769 4.445 64.0091 3.18256 64.4734 2.428C64.9475 1.66377 65.7697 1.18008 66.9403 0.97693C67.7239 0.841496 68.1156 0.638345 68.1156 0.367478H69.886C69.886 1.36388 69.0685 1.99752 67.4336 2.26839C66.147 2.48121 65.4312 3.01811 65.286 3.87908C65.7504 3.20191 66.4179 2.86333 67.2885 2.86333C68.1689 2.86333 68.8605 3.21642 69.3636 3.92261C69.8666 4.6288 70.1181 5.49461 70.1181 6.52003C70.1181 7.55513 69.8376 8.43061 69.2765 9.14648C68.7251 9.86234 67.9464 10.2203 66.9403 10.2203ZM74.2982 10.2203C73.3115 10.2203 72.5376 9.86718 71.9765 9.16099C71.4154 8.44512 71.1349 7.56964 71.1349 6.53454C71.1349 5.49944 71.4154 4.6288 71.9765 3.92261C72.5376 3.21642 73.3115 2.86333 74.2982 2.86333C75.2946 2.86333 76.0734 3.21642 76.6345 3.92261C77.1955 4.6288 77.4761 5.49944 77.4761 6.53454C77.4761 7.57932 77.1955 8.4548 76.6345 9.16099C76.0734 9.86718 75.2946 10.2203 74.2982 10.2203ZM74.2982 8.68213C74.7529 8.68213 75.0963 8.47898 75.3285 8.07268C75.5607 7.66638 75.6768 7.15367 75.6768 6.53454C75.6768 5.91542 75.5607 5.40754 75.3285 5.01092C75.0963 4.60461 74.7529 4.40146 74.2982 4.40146C73.8532 4.40146 73.5147 4.60461 73.2825 5.01092C73.06 5.41722 72.9487 5.92509 72.9487 6.53454C72.9487 7.15367 73.06 7.66638 73.2825 8.07268C73.5147 8.47898 73.8532 8.68213 74.2982 8.68213ZM81.5843 10.0461H79.8285V4.56108H78.2904V3.03745H83.137V4.56108H81.5843V10.0461ZM84.1409 12.7887L84.4021 11.2505C84.5376 11.3183 84.6875 11.3521 84.852 11.3521C85.2389 11.3521 85.4953 11.1828 85.621 10.8442L85.8532 10.1767L83.488 3.03745H85.3453L86.7529 7.94209L88.1749 3.03745H90.0323L87.2898 11.236C87.0866 11.8551 86.8012 12.2808 86.4336 12.513C86.066 12.7548 85.5823 12.8806 84.9826 12.8902C84.644 12.8902 84.3634 12.8564 84.1409 12.7887ZM11.1384 24.2203C10.1807 24.2203 9.40681 23.8769 8.81671 23.19C8.22661 22.5032 7.93155 21.618 7.93155 20.5345C7.93155 19.4607 8.22661 18.5804 8.81671 17.8936C9.40681 17.2067 10.1807 16.8633 11.1384 16.8633C12.1058 16.8633 12.8507 17.1777 13.3731 17.8065L12.5024 19.0109C12.1735 18.6046 11.7817 18.4015 11.3271 18.4015C10.8337 18.4015 10.4419 18.6046 10.1517 19.0109C9.87116 19.4075 9.73089 19.9154 9.73089 20.5345C9.73089 21.1633 9.87116 21.6809 10.1517 22.0872C10.4419 22.4838 10.8337 22.6821 11.3271 22.6821C11.7817 22.6821 12.1735 22.479 12.5024 22.0727L13.3731 23.2771C12.8507 23.9059 12.1058 24.2203 11.1384 24.2203ZM18.2037 24.0461H14.547V17.0375H18.1021C18.8083 17.0375 19.3404 17.2067 19.6983 17.5453C20.0659 17.8839 20.2497 18.3144 20.2497 18.8368C20.2497 19.2431 20.1384 19.5865 19.916 19.867C19.6935 20.1379 19.4032 20.3217 19.0453 20.4185C19.4419 20.5055 19.766 20.7087 20.0175 21.0279C20.269 21.3471 20.3948 21.7196 20.3948 22.1452C20.3948 22.7063 20.211 23.1658 19.8434 23.5238C19.4758 23.872 18.9292 24.0461 18.2037 24.0461ZM17.7974 22.6386C18.3391 22.6386 18.61 22.3968 18.61 21.9131C18.61 21.7002 18.5374 21.5261 18.3923 21.3907C18.2569 21.2456 18.0586 21.173 17.7974 21.173H16.2883V22.6386H17.7974ZM17.7393 19.7655C18.2327 19.7655 18.4794 19.5478 18.4794 19.1125C18.4794 18.9093 18.4165 18.7497 18.2907 18.6336C18.165 18.5079 17.9812 18.445 17.7393 18.445H16.2883V19.7655H17.7393ZM27.3593 24.0461H25.6035V23.3496C25.41 23.6205 25.144 23.8333 24.8054 23.9881C24.4765 24.1429 24.1282 24.2203 23.7606 24.2203C23.1705 24.2203 22.6626 24.0123 22.237 23.5963C21.8113 23.1803 21.5985 22.6144 21.5985 21.8986C21.5985 21.173 21.8065 20.6119 22.2225 20.2153C22.6481 19.8187 23.1608 19.6204 23.7606 19.6204C24.1379 19.6204 24.491 19.6929 24.8199 19.838C25.1585 19.9831 25.4197 20.1863 25.6035 20.4475V19.5333C25.6035 19.156 25.4874 18.861 25.2552 18.6481C25.0327 18.4256 24.7183 18.3144 24.312 18.3144C23.6736 18.3144 23.098 18.5659 22.5852 19.069L21.9323 17.8791C22.6385 17.2019 23.5381 16.8633 24.6313 16.8633C25.4535 16.8633 26.1114 17.0665 26.6047 17.4728C27.1078 17.8694 27.3593 18.4934 27.3593 19.3447V24.0461ZM24.4281 23.0449C24.9698 23.0449 25.3616 22.8224 25.6035 22.3774V21.4777C25.352 21.0231 24.9602 20.7957 24.4281 20.7957C24.0992 20.7957 23.8332 20.9021 23.63 21.115C23.4365 21.3181 23.3398 21.589 23.3398 21.9276C23.3398 22.2662 23.4365 22.537 23.63 22.7402C23.8332 22.9433 24.0992 23.0449 24.4281 23.0449ZM32.5761 24.2203C31.8216 24.2203 31.2315 23.8672 30.8058 23.161V26.7161H29.0645V17.0375H30.8058V17.9226C31.2508 17.2164 31.8409 16.8633 32.5761 16.8633C33.3694 16.8633 33.9982 17.1922 34.4625 17.8501C34.9365 18.4982 35.1735 19.393 35.1735 20.5345C35.1735 21.6664 34.9365 22.566 34.4625 23.2335C33.9982 23.8914 33.3694 24.2203 32.5761 24.2203ZM32.0102 22.6821C32.4455 22.6821 32.7793 22.4838 33.0114 22.0872C33.2533 21.6906 33.3742 21.173 33.3742 20.5345C33.3742 19.9057 33.2533 19.393 33.0114 18.9964C32.7793 18.5998 32.4455 18.4015 32.0102 18.4015C31.778 18.4015 31.5459 18.4789 31.3137 18.6336C31.0912 18.7884 30.9219 18.9819 30.8058 19.2141V21.855C30.9219 22.0872 31.0912 22.2855 31.3137 22.45C31.5459 22.6047 31.778 22.6821 32.0102 22.6821ZM43.6033 17.0375H45.3445V22.5225H46.1281V25.831H44.3723V24.0461H36.5075V17.0375H38.2488V22.5225H40.0481V17.0375H41.8039V22.5225H43.6033V17.0375ZM48.9497 24.0461H47.2664V17.0375H49.0077V20.9844L51.1698 17.0375H52.9546V24.0461H51.1988V19.9396L48.9497 24.0461ZM60.6453 24.0461H58.5993L57.1482 21.3036L56.4082 22.3339V24.0461H54.6669V17.0375H56.4082V20.2153L58.5413 17.0375H60.5728L58.3526 20.1863L60.6453 24.0461ZM64.287 24.2203C63.3002 24.2203 62.5263 23.8672 61.9652 23.161C61.4042 22.4451 61.1236 21.5696 61.1236 20.5345C61.1236 19.4994 61.4042 18.6288 61.9652 17.9226C62.5263 17.2164 63.3002 16.8633 64.287 16.8633C65.2834 16.8633 66.0621 17.2164 66.6232 17.9226C67.1843 18.6288 67.4648 19.4994 67.4648 20.5345C67.4648 21.5793 67.1843 22.4548 66.6232 23.161C66.0621 23.8672 65.2834 24.2203 64.287 24.2203ZM64.287 22.6821C64.7416 22.6821 65.0851 22.479 65.3172 22.0727C65.5494 21.6664 65.6655 21.1537 65.6655 20.5345C65.6655 19.9154 65.5494 19.4075 65.3172 19.0109C65.0851 18.6046 64.7416 18.4015 64.287 18.4015C63.842 18.4015 63.5034 18.6046 63.2712 19.0109C63.0487 19.4172 62.9375 19.9251 62.9375 20.5345C62.9375 21.1537 63.0487 21.6664 63.2712 22.0727C63.5034 22.479 63.842 22.6821 64.287 22.6821ZM76.1584 24.0461H74.4317V19.7945L72.8645 24.0461H72.11L70.5573 19.7945V24.0461H68.816V17.0375H71.0507L72.4872 20.9408L73.9383 17.0375H76.1584V24.0461ZM82.8075 24.0461H81.0662V17.0375H82.8075V19.6494H84.9987V17.0375H86.7545V24.0461H84.9987V21.173H82.8075V24.0461ZM93.8502 24.0461H92.0944V23.3496C91.9009 23.6205 91.6349 23.8333 91.2963 23.9881C90.9674 24.1429 90.6192 24.2203 90.2516 24.2203C89.6614 24.2203 89.1536 24.0123 88.7279 23.5963C88.3023 23.1803 88.0895 22.6144 88.0895 21.8986C88.0895 21.173 88.2974 20.6119 88.7134 20.2153C89.1391 19.8187 89.6518 19.6204 90.2516 19.6204C90.6288 19.6204 90.9819 19.6929 91.3108 19.838C91.6494 19.9831 91.9106 20.1863 92.0944 20.4475V19.5333C92.0944 19.156 91.9783 18.861 91.7462 18.6481C91.5237 18.4256 91.2093 18.3144 90.803 18.3144C90.1645 18.3144 89.5889 18.5659 89.0762 19.069L88.4232 17.8791C89.1294 17.2019 90.0291 16.8633 91.1222 16.8633C91.9445 16.8633 92.6023 17.0665 93.0957 17.4728C93.5987 17.8694 93.8502 18.4934 93.8502 19.3447V24.0461ZM90.919 23.0449C91.4608 23.0449 91.8526 22.8224 92.0944 22.3774V21.4777C91.8429 21.0231 91.4511 20.7957 90.919 20.7957C90.5901 20.7957 90.3241 20.9021 90.121 21.115C89.9275 21.3181 89.8307 21.589 89.8307 21.9276C89.8307 22.2662 89.9275 22.537 90.121 22.7402C90.3241 22.9433 90.5901 23.0449 90.919 23.0449ZM104.435 24.0461H102.694V19.4027C102.694 18.7352 102.385 18.4015 101.765 18.4015C101.504 18.4015 101.262 18.4885 101.04 18.6627C100.817 18.8271 100.638 19.0303 100.503 19.2721V24.0461H98.7472V14.3675H100.503V17.9516C100.697 17.6517 100.977 17.3954 101.345 17.1826C101.722 16.9697 102.123 16.8633 102.549 16.8633C103.807 16.8633 104.435 17.4921 104.435 18.7497V24.0461ZM111.836 24.0461H110.095V19.4027C110.095 18.7352 109.785 18.4015 109.166 18.4015C108.905 18.4015 108.663 18.4885 108.44 18.6627C108.218 18.8271 108.039 19.0303 107.904 19.2721V24.0461H106.148V14.3675H107.904V17.9516C108.097 17.6517 108.378 17.3954 108.745 17.1826C109.122 16.9697 109.524 16.8633 109.95 16.8633C111.207 16.8633 111.836 17.4921 111.836 18.7497V24.0461ZM115.377 23.8865C115.164 24.0993 114.903 24.2058 114.593 24.2058C114.283 24.2058 114.017 24.0945 113.795 23.872C113.572 23.6495 113.461 23.3883 113.461 23.0884C113.461 22.7789 113.572 22.5128 113.795 22.2903C114.017 22.0678 114.283 21.9566 114.593 21.9566C114.893 21.9566 115.154 22.0678 115.377 22.2903C115.599 22.5128 115.71 22.7789 115.71 23.0884C115.71 23.398 115.599 23.664 115.377 23.8865ZM119.091 24.0461H117.349V17.0375H119.091V17.9952C119.294 17.6759 119.569 17.4099 119.918 17.1971C120.276 16.9746 120.638 16.8633 121.006 16.8633V18.5756C120.89 18.5466 120.75 18.5321 120.585 18.5321C120.305 18.5321 120.019 18.6143 119.729 18.7787C119.449 18.9335 119.236 19.1318 119.091 19.3737V24.0461ZM127.816 24.0461H126.075V23.161C125.872 23.4609 125.586 23.7124 125.219 23.9155C124.851 24.1187 124.45 24.2203 124.014 24.2203C122.766 24.2203 122.142 23.5915 122.142 22.3339V17.0375H123.884V21.6664C123.884 22.3435 124.193 22.6821 124.812 22.6821C125.335 22.6821 125.756 22.3968 126.075 21.826V17.0375H127.816V24.0461ZM134.651 20.52L132.837 23.132H131.357L133.171 20.52L131.357 17.9516H132.837L134.651 20.52ZM137.103 20.52L135.289 23.132H133.795L135.609 20.52L133.795 17.9516H135.289L137.103 20.52Z" fill="white"/>
  <path d="M5.83245 8.80897H4.33785L2.52401 6.19703L4.33785 3.62863H5.83245L4.01861 6.19703L5.83245 8.80897ZM3.38014 8.80897H1.90004L0.0862011 6.19703L1.90004 3.62863H3.38014L1.5663 6.19703L3.38014 8.80897Z" fill="white"/>
  </svg>
  