<svg width="157" height="25" viewBox="0 0 157 25" fill="none" xmlns="http://www.w3.org/2000/svg">
  <path d="M6.27447 8.4979H4.68003L2.74503 5.71151L4.68003 2.97155H6.27447L4.33947 5.71151L6.27447 8.4979ZM3.65835 8.4979H2.07939L0.144393 5.71151L2.07939 2.97155H3.65835L1.72335 5.71151L3.65835 8.4979Z" fill="white"/>
  <path d="M11.9199 10.4731H10.1242V2.99631H11.9818V7.20687L14.2883 2.99631H16.1923V10.4731H14.3193V6.09231L11.9199 10.4731ZM25.5887 2.99631H27.4463V8.84775H28.2822V12.3772H26.4091V10.4731H18.019V2.99631H19.8766V8.84775H21.7961V2.99631H23.6692V8.84775H25.5887V2.99631ZM31.2922 10.4731H29.4966V2.99631H31.3542V7.20687L33.6607 2.99631H35.5647V10.4731H33.6916V6.09231L31.2922 10.4731ZM40.3326 10.4731H38.4595V4.62171H36.8186V2.99631H41.9889V4.62171H40.3326V10.4731ZM46.3262 10.6589C45.2736 10.6589 44.4273 10.2977 43.7875 9.5753C43.158 8.85291 42.8432 7.90347 42.8432 6.72699C42.8432 5.61243 43.1477 4.68363 43.7565 3.94059C44.3654 3.18723 45.1755 2.81055 46.1869 2.81055C47.1983 2.81055 47.9877 3.18207 48.5553 3.92511C49.1229 4.65783 49.4067 5.61759 49.4067 6.80439V7.33071H44.7163C44.7576 7.86735 44.933 8.30595 45.2426 8.64651C45.5522 8.98706 45.9805 9.15734 46.5275 9.15734C46.8061 9.15734 47.0951 9.09542 47.3943 8.97158C47.6936 8.83742 47.9465 8.65683 48.1529 8.42979L49.0043 9.54434C48.3231 10.2874 47.4305 10.6589 46.3262 10.6589ZM47.6111 6.06135C47.5904 5.59695 47.4666 5.18931 47.2395 4.83843C47.0125 4.48755 46.6513 4.31211 46.1559 4.31211C45.6812 4.31211 45.3252 4.48755 45.0878 4.83843C44.8608 5.18931 44.7369 5.59695 44.7163 6.06135H47.6111ZM57.9436 10.6589C57.1386 10.6589 56.5091 10.2822 56.055 9.52886V13.3215H54.1974V2.99631H56.055V3.94059C56.5297 3.18723 57.1593 2.81055 57.9436 2.81055C58.7898 2.81055 59.4606 3.16143 59.956 3.86319C60.4617 4.55463 60.7145 5.50923 60.7145 6.72699C60.7145 7.93443 60.4617 8.89419 59.956 9.60626C59.4606 10.308 58.7898 10.6589 57.9436 10.6589ZM57.3399 9.01802C57.8043 9.01802 58.1603 8.80647 58.408 8.38335C58.666 7.96023 58.795 7.40811 58.795 6.72699C58.795 6.05619 58.666 5.50923 58.408 5.08611C58.1603 4.66299 57.8043 4.45143 57.3399 4.45143C57.0922 4.45143 56.8445 4.53399 56.5968 4.69911C56.3595 4.86423 56.1789 5.07063 56.055 5.31831V8.13567C56.1789 8.38335 56.3595 8.59491 56.5968 8.77035C56.8445 8.93546 57.0922 9.01802 57.3399 9.01802ZM67.8807 10.4731H66.0076V9.7301C65.8012 10.0191 65.5174 10.2461 65.1562 10.4112C64.8053 10.5763 64.4338 10.6589 64.0416 10.6589C63.4121 10.6589 62.8703 10.437 62.4162 9.99326C61.9621 9.5495 61.7351 8.94579 61.7351 8.18211C61.7351 7.40811 61.957 6.80955 62.4007 6.38643C62.8548 5.96331 63.4018 5.75175 64.0416 5.75175C64.4441 5.75175 64.8208 5.82915 65.1717 5.98395C65.5329 6.13875 65.8115 6.35547 66.0076 6.63411V5.65887C66.0076 5.25639 65.8837 4.94163 65.6361 4.71459C65.3987 4.47723 65.0633 4.35855 64.6299 4.35855C63.9487 4.35855 63.3347 4.62687 62.7877 5.16351L62.0911 3.89415C62.8445 3.17175 63.8043 2.81055 64.9704 2.81055C65.8476 2.81055 66.5494 3.02727 67.0757 3.46071C67.6123 3.88383 67.8807 4.54947 67.8807 5.45763V10.4731ZM64.7537 9.40502C65.3316 9.40502 65.7496 9.16766 66.0076 8.69295V7.73319C65.7393 7.24815 65.3213 7.00563 64.7537 7.00563C64.4028 7.00563 64.119 7.11915 63.9023 7.34619C63.6959 7.56291 63.5927 7.85187 63.5927 8.21307C63.5927 8.57427 63.6959 8.86322 63.9023 9.07994C64.119 9.29666 64.4028 9.40502 64.7537 9.40502ZM71.6038 8.36787C71.8515 8.80131 72.2127 9.01802 72.6874 9.01802C73.1622 9.01802 73.5234 8.80131 73.771 8.36787C74.029 7.92411 74.158 7.37199 74.158 6.71151C74.158 6.07167 74.029 5.53503 73.771 5.10159C73.5234 4.66815 73.1622 4.45143 72.6874 4.45143C72.2127 4.45143 71.8515 4.66815 71.6038 5.10159C71.3562 5.53503 71.2323 6.07167 71.2323 6.71151C71.2323 7.37199 71.3562 7.92411 71.6038 8.36787ZM72.6874 10.6589C71.6038 10.6589 70.7679 10.2667 70.1797 9.48242C69.6018 8.68779 69.3128 7.65579 69.3128 6.38643C69.3128 4.49787 69.5605 3.15111 70.0558 2.34615C70.5615 1.53087 71.4387 1.01487 72.6874 0.798148C73.5234 0.653667 73.9413 0.436947 73.9413 0.147987H75.8299C75.8299 1.21095 74.9578 1.88691 73.2138 2.17587C71.8412 2.40291 71.0775 2.97567 70.9227 3.89415C71.4181 3.17175 72.1302 2.81055 73.059 2.81055C73.9981 2.81055 74.736 3.18723 75.2726 3.94059C75.8092 4.69395 76.0776 5.61759 76.0776 6.71151C76.0776 7.81575 75.7783 8.74971 75.1797 9.51338C74.5915 10.2771 73.7607 10.6589 72.6874 10.6589ZM80.5369 10.6589C79.4842 10.6589 78.6586 10.2822 78.0601 9.52886C77.4615 8.76519 77.1622 7.83123 77.1622 6.72699C77.1622 5.62275 77.4615 4.69395 78.0601 3.94059C78.6586 3.18723 79.4842 2.81055 80.5369 2.81055C81.5998 2.81055 82.4306 3.18723 83.0292 3.94059C83.6277 4.69395 83.927 5.62275 83.927 6.72699C83.927 7.84155 83.6277 8.77551 83.0292 9.52886C82.4306 10.2822 81.5998 10.6589 80.5369 10.6589ZM80.5369 9.01802C81.0219 9.01802 81.3883 8.80131 81.636 8.36787C81.8836 7.93443 82.0075 7.38747 82.0075 6.72699C82.0075 6.06651 81.8836 5.52471 81.636 5.10159C81.3883 4.66815 81.0219 4.45143 80.5369 4.45143C80.0622 4.45143 79.701 4.66815 79.4533 5.10159C79.2159 5.53503 79.0972 6.07683 79.0972 6.72699C79.0972 7.38747 79.2159 7.93443 79.4533 8.36787C79.701 8.80131 80.0622 9.01802 80.5369 9.01802ZM88.3097 10.4731H86.4366V4.62171H84.7957V2.99631H89.966V4.62171H88.3097V10.4731ZM91.037 13.3989L91.3157 11.758C91.4602 11.8302 91.6201 11.8663 91.7956 11.8663C92.2084 11.8663 92.4818 11.6857 92.616 11.3245L92.8637 10.6125L90.3404 2.99631H92.3219L93.8234 8.22855L95.3405 2.99631H97.3219L94.3962 11.7425C94.1795 12.403 93.875 12.8571 93.4829 13.1047C93.0907 13.3627 92.5747 13.4969 91.9349 13.5072C91.5737 13.5072 91.2744 13.4711 91.037 13.3989ZM17.9571 24.4731H16.1149V19.9375L14.4431 24.4731H13.6381L11.9818 19.9375V24.4731H10.1242V16.9963H12.5081L14.0406 21.1604L15.5886 16.9963H17.9571V24.4731ZM25.5308 24.4731H23.6577V23.7301C23.4513 24.0191 23.1675 24.2461 22.8063 24.4112C22.4554 24.5763 22.0839 24.6589 21.6917 24.6589C21.0622 24.6589 20.5204 24.437 20.0663 23.9933C19.6123 23.5495 19.3852 22.9458 19.3852 22.1821C19.3852 21.4081 19.6071 20.8095 20.0509 20.3864C20.5049 19.9633 21.0519 19.7517 21.6917 19.7517C22.0942 19.7517 22.4709 19.8291 22.8218 19.9839C23.183 20.1387 23.4616 20.3555 23.6577 20.6341V19.6589C23.6577 19.2564 23.5339 18.9416 23.2862 18.7146C23.0488 18.4772 22.7134 18.3585 22.28 18.3585C21.5989 18.3585 20.9848 18.6269 20.4379 19.1635L19.7413 17.8941C20.4946 17.1717 21.4544 16.8105 22.6205 16.8105C23.4977 16.8105 24.1995 17.0273 24.7258 17.4607C25.2625 17.8838 25.5308 18.5495 25.5308 19.4576V24.4731ZM22.4038 23.405C22.9817 23.405 23.3997 23.1677 23.6577 22.6929V21.7332C23.3894 21.2481 22.9714 21.0056 22.4038 21.0056C22.0529 21.0056 21.7691 21.1191 21.5524 21.3462C21.346 21.5629 21.2428 21.8519 21.2428 22.2131C21.2428 22.5743 21.346 22.8632 21.5524 23.0799C21.7691 23.2967 22.0529 23.405 22.4038 23.405ZM34.9196 16.9963H36.7772V24.4731H27.3499V16.9963H29.2075V22.8477H31.127V16.9963H33.0001V22.8477H34.9196V16.9963ZM40.3964 24.4731H38.6007V16.9963H40.4583V21.2069L42.7648 16.9963H44.6689V24.4731H42.7958V20.0923L40.3964 24.4731ZM48.3531 24.4731H46.4955V16.9963H48.3531V19.7827H50.6906V16.9963H52.5637V24.4731H50.6906V21.4081H48.3531V24.4731ZM56.186 24.4731H54.3903V16.9963H56.2479V21.2069L58.5544 16.9963H60.4585V24.4731H58.5854V20.0923L56.186 24.4731ZM65.3192 24.6589C64.2975 24.6589 63.4719 24.2925 62.8424 23.5598C62.2129 22.8271 61.8981 21.8828 61.8981 20.727C61.8981 19.5815 62.2129 18.6423 62.8424 17.9096C63.4719 17.1769 64.2975 16.8105 65.3192 16.8105C66.3512 16.8105 67.1458 17.1459 67.7031 17.8167L66.7743 19.1016C66.4234 18.6681 66.0055 18.4514 65.5204 18.4514C64.9941 18.4514 64.5762 18.6681 64.2666 19.1016C63.9673 19.5247 63.8176 20.0665 63.8176 20.727C63.8176 21.3978 63.9673 21.9499 64.2666 22.3833C64.5762 22.8065 64.9941 23.018 65.5204 23.018C66.0055 23.018 66.4234 22.8013 66.7743 22.3679L67.7031 23.6527C67.1458 24.3235 66.3512 24.6589 65.3192 24.6589ZM71.8966 24.4731H70.0235V18.6217H68.3827V16.9963H73.553V18.6217H71.8966V24.4731ZM77.7819 24.6589C76.7293 24.6589 75.9037 24.2822 75.3051 23.5289C74.7066 22.7652 74.4073 21.8312 74.4073 20.727C74.4073 19.6227 74.7066 18.6939 75.3051 17.9406C75.9037 17.1872 76.7293 16.8105 77.7819 16.8105C78.8449 16.8105 79.6756 17.1872 80.2742 17.9406C80.8728 18.6939 81.172 19.6227 81.172 20.727C81.172 21.8415 80.8728 22.7755 80.2742 23.5289C79.6756 24.2822 78.8449 24.6589 77.7819 24.6589ZM77.7819 23.018C78.267 23.018 78.6333 22.8013 78.881 22.3679C79.1287 21.9344 79.2525 21.3875 79.2525 20.727C79.2525 20.0665 79.1287 19.5247 78.881 19.1016C78.6333 18.6681 78.267 18.4514 77.7819 18.4514C77.3072 18.4514 76.946 18.6681 76.6983 19.1016C76.461 19.535 76.3423 20.0768 76.3423 20.727C76.3423 21.3875 76.461 21.9344 76.6983 22.3679C76.946 22.8013 77.3072 23.018 77.7819 23.018ZM90.4464 24.4731H88.6043V19.9375L86.9324 24.4731H86.1275L84.4711 19.9375V24.4731H82.6135V16.9963H84.9974L86.5299 21.1604L88.0779 16.9963H90.4464V24.4731ZM97.5396 24.4731H95.682V16.9963H97.5396V19.7827H99.8771V16.9963H101.75V24.4731H99.8771V21.4081H97.5396V24.4731ZM109.32 24.4731H107.447V23.7301C107.24 24.0191 106.957 24.2461 106.595 24.4112C106.245 24.5763 105.873 24.6589 105.481 24.6589C104.851 24.6589 104.31 24.437 103.855 23.9933C103.401 23.5495 103.174 22.9458 103.174 22.1821C103.174 21.4081 103.396 20.8095 103.84 20.3864C104.294 19.9633 104.841 19.7517 105.481 19.7517C105.883 19.7517 106.26 19.8291 106.611 19.9839C106.972 20.1387 107.251 20.3555 107.447 20.6341V19.6589C107.447 19.2564 107.323 18.9416 107.075 18.7146C106.838 18.4772 106.503 18.3585 106.069 18.3585C105.388 18.3585 104.774 18.6269 104.227 19.1635L103.53 17.8941C104.284 17.1717 105.243 16.8105 106.41 16.8105C107.287 16.8105 107.989 17.0273 108.515 17.4607C109.052 17.8838 109.32 18.5495 109.32 19.4576V24.4731ZM106.193 23.405C106.771 23.405 107.189 23.1677 107.447 22.6929V21.7332C107.178 21.2481 106.761 21.0056 106.193 21.0056C105.842 21.0056 105.558 21.1191 105.342 21.3462C105.135 21.5629 105.032 21.8519 105.032 22.2131C105.032 22.5743 105.135 22.8632 105.342 23.0799C105.558 23.2967 105.842 23.405 106.193 23.405ZM120.612 24.4731H118.755V19.5195C118.755 18.8075 118.424 18.4514 117.764 18.4514C117.485 18.4514 117.227 18.5443 116.99 18.7301C116.752 18.9055 116.562 19.1222 116.417 19.3802V24.4731H114.544V14.148H116.417V17.9715C116.623 17.6516 116.923 17.3781 117.315 17.1511C117.717 16.9241 118.146 16.8105 118.6 16.8105C119.941 16.8105 120.612 17.4813 120.612 18.8229V24.4731ZM128.507 24.4731H126.649V19.5195C126.649 18.8075 126.319 18.4514 125.659 18.4514C125.38 18.4514 125.122 18.5443 124.885 18.7301C124.647 18.9055 124.456 19.1222 124.312 19.3802V24.4731H122.439V14.148H124.312V17.9715C124.518 17.6516 124.818 17.3781 125.21 17.1511C125.612 16.9241 126.04 16.8105 126.495 16.8105C127.836 16.8105 128.507 17.4813 128.507 18.8229V24.4731ZM132.284 24.3029C132.057 24.5299 131.778 24.6434 131.448 24.6434C131.118 24.6434 130.834 24.5247 130.597 24.2874C130.359 24.05 130.241 23.7714 130.241 23.4515C130.241 23.1212 130.359 22.8374 130.597 22.6001C130.834 22.3627 131.118 22.244 131.448 22.244C131.768 22.244 132.047 22.3627 132.284 22.6001C132.521 22.8374 132.64 23.1212 132.64 23.4515C132.64 23.7817 132.521 24.0655 132.284 24.3029ZM136.246 24.4731H134.389V16.9963H136.246V18.018C136.463 17.6774 136.757 17.3936 137.129 17.1666C137.51 16.9292 137.897 16.8105 138.29 16.8105V18.6372C138.166 18.6062 138.016 18.5907 137.841 18.5907C137.541 18.5907 137.237 18.6785 136.927 18.8539C136.628 19.019 136.401 19.2306 136.246 19.4886V24.4731ZM145.555 24.4731H143.697V23.5289C143.48 23.8488 143.176 24.1171 142.784 24.3338C142.391 24.5505 141.963 24.6589 141.499 24.6589C140.168 24.6589 139.502 23.9881 139.502 22.6465V16.9963H141.359V21.9344C141.359 22.6568 141.69 23.018 142.35 23.018C142.907 23.018 143.356 22.7136 143.697 22.1047V16.9963H145.555V24.4731Z" fill="white"/>
  <path d="M150.302 18.341L151.897 18.341L153.832 21.1274L151.897 23.8673L150.302 23.8673L152.237 21.1274L150.302 18.341ZM152.918 18.341L154.497 18.341L156.432 21.1274L154.497 23.8673L152.918 23.8673L154.853 21.1274L152.918 18.341Z" fill="white"/>
  </svg>
  