<svg width="203" height="81" viewBox="0 0 203 81" fill="none" xmlns="http://www.w3.org/2000/svg">
  <path d="M13.5721 19.3143H10.2684L6.2591 13.5408L10.2684 7.86363H13.5721L9.56278 13.5408L13.5721 19.3143ZM8.1515 19.3143H4.87989L0.870563 13.5408L4.87989 7.86363H8.1515L4.14217 13.5408L8.1515 19.3143Z" fill="white"/>
  <path d="M25.2695 22.335H21.5488V6.84293H25.3978V15.5672L30.1769 6.84293H34.122V22.335H30.241V13.2578L25.2695 22.335ZM53.5913 6.84293H57.4403V18.9671H59.1723V26.2801H55.2913V22.335H37.9069V6.84293H41.7558V18.9671H45.7331V6.84293H49.6141V18.9671H53.5913V6.84293ZM65.4091 22.335H61.6884V6.84293H65.5374V15.5672L70.3165 6.84293H74.2617V22.335H70.3806V13.2578L65.4091 22.335ZM84.1406 22.335H80.2596V10.2108H76.8597V6.84293H87.5726V10.2108H84.1406V22.335ZM96.5595 22.7199C94.3785 22.7199 92.625 21.9714 91.2993 20.4746C89.9949 18.9778 89.3427 17.0106 89.3427 14.5729C89.3427 12.2635 89.9735 10.3391 91.2351 8.79948C92.4967 7.23851 94.1753 6.45803 96.2709 6.45803C98.3664 6.45803 100.002 7.22782 101.178 8.7674C102.354 10.2856 102.942 12.2742 102.942 14.7333V15.8238H93.2238C93.3093 16.9357 93.6728 17.8445 94.3143 18.5502C94.9558 19.2558 95.8432 19.6086 96.9765 19.6086C97.5538 19.6086 98.1526 19.4803 98.7727 19.2237C99.3928 18.9457 99.9167 18.5715 100.344 18.1011L102.108 20.4105C100.697 21.9501 98.8475 22.7199 96.5595 22.7199ZM99.2217 13.1937C99.179 12.2315 98.9224 11.3868 98.4519 10.6598C97.9815 9.93278 97.2331 9.56927 96.2067 9.56927C95.2231 9.56927 94.4854 9.93278 93.9936 10.6598C93.5231 11.3868 93.2665 12.2315 93.2238 13.1937H99.2217ZM120.631 22.7199C118.963 22.7199 117.659 21.9394 116.718 20.3784V28.2367H112.869V6.84293H116.718V8.79948C117.701 7.23851 119.006 6.45803 120.631 6.45803C122.384 6.45803 123.774 7.18505 124.8 8.6391C125.848 10.0718 126.372 12.0497 126.372 14.5729C126.372 17.0747 125.848 19.0634 124.8 20.5388C123.774 21.9928 122.384 22.7199 120.631 22.7199ZM119.38 19.3199C120.342 19.3199 121.08 18.8816 121.593 18.0049C122.128 17.1282 122.395 15.9842 122.395 14.5729C122.395 13.183 122.128 12.0497 121.593 11.173C121.08 10.2963 120.342 9.85794 119.38 9.85794C118.867 9.85794 118.353 10.029 117.84 10.3711C117.348 10.7133 116.974 11.1409 116.718 11.6541V17.4917C116.974 18.0049 117.348 18.4432 117.84 18.8068C118.353 19.1489 118.867 19.3199 119.38 19.3199ZM141.22 22.335H137.339V20.7954C136.912 21.3941 136.324 21.8645 135.575 22.2067C134.848 22.5488 134.078 22.7199 133.266 22.7199C131.962 22.7199 130.839 22.2601 129.898 21.3406C128.957 20.4212 128.487 19.1703 128.487 17.5879C128.487 15.9842 128.947 14.744 129.866 13.8673C130.807 12.9906 131.94 12.5522 133.266 12.5522C134.1 12.5522 134.88 12.7126 135.607 13.0333C136.356 13.3541 136.933 13.8031 137.339 14.3805V12.3598C137.339 11.5258 137.083 10.8736 136.57 10.4032C136.078 9.9114 135.383 9.66549 134.485 9.66549C133.073 9.66549 131.801 10.2215 130.668 11.3334L129.225 8.70325C130.785 7.20644 132.774 6.45803 135.19 6.45803C137.008 6.45803 138.462 6.90707 139.553 7.80516C140.664 8.68187 141.22 10.0611 141.22 11.9428V22.335ZM134.741 20.1218C135.939 20.1218 136.805 19.63 137.339 18.6464V16.6578C136.783 15.6528 135.917 15.1502 134.741 15.1502C134.014 15.1502 133.426 15.3855 132.977 15.8559C132.55 16.3049 132.336 16.9037 132.336 17.6521C132.336 18.4005 132.55 18.9992 132.977 19.4482C133.426 19.8973 134.014 20.1218 134.741 20.1218ZM148.935 17.9728C149.448 18.8709 150.196 19.3199 151.18 19.3199C152.164 19.3199 152.912 18.8709 153.425 17.9728C153.96 17.0533 154.227 15.9093 154.227 14.5408C154.227 13.2151 153.96 12.1032 153.425 11.2051C152.912 10.307 152.164 9.85794 151.18 9.85794C150.196 9.85794 149.448 10.307 148.935 11.2051C148.422 12.1032 148.165 13.2151 148.165 14.5408C148.165 15.9093 148.422 17.0533 148.935 17.9728ZM151.18 22.7199C148.935 22.7199 147.203 21.9073 145.984 20.2822C144.787 18.6357 144.188 16.4974 144.188 13.8673C144.188 9.95416 144.701 7.16367 145.727 5.49579C146.775 3.80653 148.593 2.73737 151.18 2.28833C152.912 1.98897 153.778 1.53992 153.778 0.941196H157.691C157.691 3.14365 155.884 4.54424 152.271 5.14297C149.427 5.6134 147.844 6.80016 147.524 8.70325C148.55 7.20644 150.025 6.45803 151.95 6.45803C153.896 6.45803 155.425 7.23851 156.537 8.79948C157.648 10.3604 158.204 12.2742 158.204 14.5408C158.204 16.8288 157.584 18.764 156.344 20.3463C155.125 21.9287 153.404 22.7199 151.18 22.7199ZM167.444 22.7199C165.263 22.7199 163.552 21.9394 162.312 20.3784C161.072 18.7961 160.452 16.8609 160.452 14.5729C160.452 12.2849 161.072 10.3604 162.312 8.79948C163.552 7.23851 165.263 6.45803 167.444 6.45803C169.647 6.45803 171.368 7.23851 172.608 8.79948C173.848 10.3604 174.469 12.2849 174.469 14.5729C174.469 16.8823 173.848 18.8174 172.608 20.3784C171.368 21.9394 169.647 22.7199 167.444 22.7199ZM167.444 19.3199C168.449 19.3199 169.208 18.8709 169.721 17.9728C170.235 17.0747 170.491 15.9414 170.491 14.5729C170.491 13.2044 170.235 12.0818 169.721 11.2051C169.208 10.307 168.449 9.85794 167.444 9.85794C166.461 9.85794 165.712 10.307 165.199 11.2051C164.707 12.1032 164.461 13.2258 164.461 14.5729C164.461 15.9414 164.707 17.0747 165.199 17.9728C165.712 18.8709 166.461 19.3199 167.444 19.3199ZM183.549 22.335H179.668V10.2108H176.268V6.84293H186.981V10.2108H183.549V22.335ZM189.201 28.3971L189.778 24.9972C190.077 25.1468 190.409 25.2217 190.772 25.2217C191.628 25.2217 192.194 24.8475 192.472 24.0991L192.985 22.6236L187.757 6.84293H191.863L194.974 17.6841L198.117 6.84293H202.223L196.161 24.9651C195.712 26.3336 195.081 27.2745 194.268 27.7876C193.456 28.3222 192.387 28.6002 191.061 28.6216C190.312 28.6216 189.692 28.5467 189.201 28.3971ZM21.196 57.3971L21.7733 53.9972C22.0727 54.1468 22.4041 54.2217 22.7676 54.2217C23.623 54.2217 24.1896 53.8475 24.4676 53.0991L24.9808 51.6236L19.7526 35.8429H23.8582L26.9694 46.6841L30.1127 35.8429H34.2183L28.1562 53.9651C27.7071 55.3336 27.0763 56.2745 26.2638 56.7876C25.4512 57.3222 24.3821 57.6002 23.0563 57.6216C22.3079 57.6216 21.6878 57.5467 21.196 57.3971ZM40.1606 46.9728C40.6738 47.8709 41.4222 48.3199 42.4058 48.3199C43.3894 48.3199 44.1378 47.8709 44.651 46.9728C45.1856 46.0533 45.4529 44.9093 45.4529 43.5408C45.4529 42.2151 45.1856 41.1032 44.651 40.2051C44.1378 39.307 43.3894 38.8579 42.4058 38.8579C41.4222 38.8579 40.6738 39.307 40.1606 40.2051C39.6474 41.1032 39.3908 42.2151 39.3908 43.5408C39.3908 44.9093 39.6474 46.0533 40.1606 46.9728ZM42.4058 51.7199C40.1606 51.7199 38.4286 50.9073 37.2097 49.2822C36.0123 47.6357 35.4136 45.4974 35.4136 42.8673C35.4136 38.9542 35.9267 36.1637 36.9531 34.4958C38.0009 32.8065 39.8185 31.7374 42.4058 31.2883C44.1378 30.989 45.0039 30.5399 45.0039 29.9412H48.917C48.917 32.1437 47.1101 33.5442 43.4964 34.143C40.6524 34.6134 39.0701 35.8002 38.7493 37.7033C39.7757 36.2064 41.2511 35.458 43.1756 35.458C45.1215 35.458 46.6504 36.2385 47.7623 37.7995C48.8742 39.3604 49.4302 41.2742 49.4302 43.5408C49.4302 45.8288 48.81 47.764 47.5698 49.3463C46.351 50.9287 44.6297 51.7199 42.4058 51.7199ZM58.6699 51.7199C56.4888 51.7199 54.7782 50.9394 53.538 49.3784C52.2977 47.7961 51.6776 45.8609 51.6776 43.5729C51.6776 41.2849 52.2977 39.3604 53.538 37.7995C54.7782 36.2385 56.4888 35.458 58.6699 35.458C60.8724 35.458 62.5937 36.2385 63.8339 37.7995C65.0741 39.3604 65.6942 41.2849 65.6942 43.5729C65.6942 45.8823 65.0741 47.8174 63.8339 49.3784C62.5937 50.9394 60.8724 51.7199 58.6699 51.7199ZM58.6699 48.3199C59.6749 48.3199 60.434 47.8709 60.9472 46.9728C61.4604 46.0747 61.717 44.9414 61.717 43.5729C61.717 42.2044 61.4604 41.0818 60.9472 40.2051C60.434 39.307 59.6749 38.8579 58.6699 38.8579C57.6863 38.8579 56.9379 39.307 56.4247 40.2051C55.9329 41.1032 55.687 42.2258 55.687 43.5729C55.687 44.9414 55.9329 46.0747 56.4247 46.9728C56.9379 47.8709 57.6863 48.3199 58.6699 48.3199ZM76.443 51.7199C74.7751 51.7199 73.4707 50.9394 72.5299 49.3784V57.2367H68.6809V35.8429H72.5299V37.7995C73.5135 36.2385 74.8179 35.458 76.443 35.458C78.1964 35.458 79.5863 36.1851 80.6127 37.6391C81.6605 39.0718 82.1843 41.0497 82.1843 43.5729C82.1843 46.0747 81.6605 48.0634 80.6127 49.5388C79.5863 50.9928 78.1964 51.7199 76.443 51.7199ZM75.1921 48.3199C76.1543 48.3199 76.892 47.8816 77.4052 47.0049C77.9398 46.1282 78.2071 44.9842 78.2071 43.5729C78.2071 42.183 77.9398 41.0497 77.4052 40.173C76.892 39.2963 76.1543 38.8579 75.1921 38.8579C74.6789 38.8579 74.1657 39.029 73.6525 39.3711C73.1607 39.7133 72.7865 40.1409 72.5299 40.6541V46.4917C72.7865 47.0049 73.1607 47.4432 73.6525 47.8068C74.1657 48.1489 74.6789 48.3199 75.1921 48.3199ZM100.817 35.8429H104.666V47.9671H106.398V55.2801H102.517V51.335H85.133V35.8429H88.9819V47.9671H92.9592V35.8429H96.8402V47.9671H100.817V35.8429ZM112.635 51.335H108.915V35.8429H112.763V44.5672L117.543 35.8429H121.488V51.335H117.607V42.2578L112.635 51.335ZM135.601 55.2801V51.335H125.273V35.8429H129.122V47.9671H133.965V35.8429H137.846V47.9671H139.45V55.2801H135.601ZM148.359 51.7199C146.178 51.7199 144.424 50.9714 143.099 49.4746C141.794 47.9778 141.142 46.0106 141.142 43.5729C141.142 41.2635 141.773 39.3391 143.034 37.7995C144.296 36.2385 145.975 35.458 148.07 35.458C150.166 35.458 151.801 36.2278 152.978 37.7674C154.154 39.2856 154.742 41.2742 154.742 43.7333V44.8238H145.023C145.109 45.9357 145.472 46.8445 146.114 47.5502C146.755 48.2558 147.642 48.6086 148.776 48.6086C149.353 48.6086 149.952 48.4803 150.572 48.2237C151.192 47.9457 151.716 47.5715 152.144 47.1011L153.908 49.4105C152.496 50.9501 150.647 51.7199 148.359 51.7199ZM151.021 42.1937C150.978 41.2315 150.722 40.3868 150.251 39.6598C149.781 38.9328 149.032 38.5693 148.006 38.5693C147.022 38.5693 146.285 38.9328 145.793 39.6598C145.322 40.3868 145.066 41.2315 145.023 42.1937H151.021ZM161.333 51.335H157.613V35.8429H161.462V44.5672L166.241 35.8429H170.186V51.335H166.305V42.2578L161.333 51.335ZM168.711 31.6732C167.492 33.277 165.888 34.0788 163.899 34.0788C161.911 34.0788 160.307 33.277 159.088 31.6732L160.852 30.2619C161.601 31.3311 162.616 31.8657 163.899 31.8657C165.204 31.8657 166.219 31.3311 166.947 30.2619L168.711 31.6732ZM25.3978 80.335H21.5488V64.8429H25.3978V70.6164H30.241V64.8429H34.122V80.335H30.241V73.9842H25.3978V80.335ZM49.8065 80.335H45.9255V78.7954C45.4978 79.3941 44.9098 79.8645 44.1614 80.2067C43.4344 80.5488 42.6646 80.7199 41.852 80.7199C40.5477 80.7199 39.425 80.2601 38.4842 79.3406C37.5433 78.4212 37.0729 77.1703 37.0729 75.5879C37.0729 73.9842 37.5326 72.744 38.4521 71.8673C39.393 70.9906 40.5263 70.5522 41.852 70.5522C42.686 70.5522 43.4664 70.7126 44.1935 71.0333C44.9419 71.3541 45.5192 71.8031 45.9255 72.3805V70.3598C45.9255 69.5258 45.6689 68.8736 45.1557 68.4032C44.6639 67.9114 43.969 67.6655 43.0709 67.6655C41.6596 67.6655 40.3873 68.2215 39.254 69.3334L37.8106 66.7033C39.3716 65.2064 41.3602 64.458 43.7765 64.458C45.5941 64.458 47.0481 64.9071 48.1387 65.8052C49.2506 66.6819 49.8065 68.0611 49.8065 69.9428V80.335ZM43.3275 78.1218C44.5249 78.1218 45.3909 77.63 45.9255 76.6464V74.6578C45.3695 73.6528 44.5035 73.1502 43.3275 73.1502C42.6004 73.1502 42.0124 73.3855 41.5634 73.8559C41.1357 74.3049 40.9219 74.9037 40.9219 75.6521C40.9219 76.4005 41.1357 76.9992 41.5634 77.4482C42.0124 77.8973 42.6004 78.1218 43.3275 78.1218ZM73.2042 80.335H69.3553V70.0711C69.3553 68.5957 68.671 67.8579 67.3025 67.8579C66.7251 67.8579 66.1906 68.0504 65.6987 68.4353C65.2069 68.7988 64.8113 69.2478 64.512 69.7824V80.335H60.631V58.9412H64.512V66.8636C64.9396 66.2007 65.5598 65.6341 66.3723 65.1637C67.2063 64.6932 68.0937 64.458 69.0345 64.458C71.8143 64.458 73.2042 65.8479 73.2042 68.6277V80.335ZM89.5623 80.335H85.7133V70.0711C85.7133 68.5957 85.029 67.8579 83.6605 67.8579C83.0832 67.8579 82.5486 68.0504 82.0568 68.4353C81.565 68.7988 81.1694 69.2478 80.87 69.7824V80.335H76.989V58.9412H80.87V66.8636C81.2977 66.2007 81.9178 65.6341 82.7304 65.1637C83.5643 64.6932 84.4517 64.458 85.3926 64.458C88.1724 64.458 89.5623 65.8479 89.5623 68.6277V80.335ZM97.3885 79.9821C96.918 80.4526 96.3407 80.6878 95.6564 80.6878C94.9722 80.6878 94.3841 80.4419 93.8923 79.9501C93.4005 79.4583 93.1546 78.8809 93.1546 78.218C93.1546 77.5338 93.4005 76.9457 93.8923 76.4539C94.3841 75.9621 94.9722 75.7162 95.6564 75.7162C96.3193 75.7162 96.8966 75.9621 97.3885 76.4539C97.8803 76.9457 98.1262 77.5338 98.1262 78.218C98.1262 78.9023 97.8803 79.4903 97.3885 79.9821ZM105.598 80.335H101.749V64.8429H105.598V66.9598C106.047 66.2542 106.657 65.6662 107.426 65.1957C108.217 64.7039 109.019 64.458 109.832 64.458V68.2428C109.575 68.1787 109.265 68.1466 108.902 68.1466C108.282 68.1466 107.651 68.3284 107.009 68.6919C106.389 69.034 105.919 69.4724 105.598 70.0069V80.335ZM124.885 80.335H121.036V78.3784C120.587 79.0413 119.956 79.5972 119.144 80.0463C118.331 80.4953 117.444 80.7199 116.481 80.7199C113.723 80.7199 112.344 79.33 112.344 76.5502V64.8429H116.193V75.0747C116.193 76.5715 116.877 77.3199 118.245 77.3199C119.4 77.3199 120.33 76.6891 121.036 75.4275V64.8429H124.885V80.335Z" fill="white"/>
  <path d="M132.239 68.0495L135.543 68.0495L139.552 73.8229L135.543 79.5001L132.239 79.5001L136.249 73.8229L132.239 68.0495ZM137.66 68.0495L140.932 68.0495L144.941 73.8229L140.932 79.5001L137.66 79.5001L141.669 73.8229L137.66 68.0495Z" fill="white"/>
  </svg>
  