<svg width="441" height="118" viewBox="0 0 441 118" fill="none" xmlns="http://www.w3.org/2000/svg">
  <path d="M35.9052 30.5714H30.6057V8.50521H36.088V20.9317L42.8952 8.50521H48.5145V30.5714H42.9865V17.6424L35.9052 30.5714ZM76.2457 8.50521H81.728V25.7744H84.195V36.1908H78.6671V30.5714H53.9054V8.50521H59.3877V25.7744H65.0527V8.50521H70.5807V25.7744H76.2457V8.50521ZM93.0784 30.5714H87.7789V8.50521H93.2612V20.9317L100.068 8.50521H105.688V30.5714H100.16V17.6424L93.0784 30.5714ZM119.759 30.5714H114.231V13.3022H109.388V8.50521H124.647V13.3022H119.759V30.5714ZM137.448 31.1196C134.341 31.1196 131.844 30.0536 129.955 27.9216C128.097 25.7896 127.169 22.9876 127.169 19.5155C127.169 16.2261 128.067 13.485 129.864 11.292C131.661 9.06866 134.052 7.95698 137.037 7.95698C140.021 7.95698 142.351 9.05344 144.027 11.2464C145.702 13.4088 146.539 16.2413 146.539 19.7439V21.2972H132.697C132.818 22.881 133.336 24.1754 134.25 25.1805C135.164 26.1856 136.428 26.6881 138.042 26.6881C138.864 26.6881 139.717 26.5054 140.6 26.1399C141.483 25.744 142.23 25.211 142.839 24.5409L145.351 27.8303C143.341 30.0232 140.707 31.1196 137.448 31.1196ZM141.24 17.551C141.179 16.1804 140.813 14.9774 140.143 13.9418C139.473 12.9063 138.407 12.3885 136.945 12.3885C135.544 12.3885 134.493 12.9063 133.793 13.9418C133.123 14.9774 132.757 16.1804 132.697 17.551H141.24ZM171.734 31.1196C169.358 31.1196 167.5 30.008 166.16 27.7846V38.9776H160.678V8.50521H166.16V11.292C167.561 9.06866 169.419 7.95698 171.734 7.95698C174.231 7.95698 176.211 8.99252 177.673 11.0636C179.165 13.1042 179.912 15.9215 179.912 19.5155C179.912 23.079 179.165 25.9115 177.673 28.013C176.211 30.0841 174.231 31.1196 171.734 31.1196ZM169.952 26.277C171.323 26.277 172.373 25.6526 173.104 24.4038C173.866 23.1551 174.247 21.5256 174.247 19.5155C174.247 17.5358 173.866 15.9215 173.104 14.6728C172.373 13.424 171.323 12.7997 169.952 12.7997C169.221 12.7997 168.49 13.0433 167.759 13.5306C167.059 14.018 166.526 14.6271 166.16 15.3581V23.6729C166.526 24.4038 167.059 25.0282 167.759 25.546C168.49 26.0333 169.221 26.277 169.952 26.277ZM201.061 30.5714H195.533V28.3785C194.924 29.2313 194.086 29.9014 193.02 30.3887C191.985 30.876 190.888 31.1196 189.731 31.1196C187.873 31.1196 186.274 30.4648 184.934 29.1552C183.594 27.8455 182.924 26.0638 182.924 23.8099C182.924 21.5256 183.578 19.7591 184.888 18.5104C186.228 17.2616 187.842 16.6373 189.731 16.6373C190.919 16.6373 192.03 16.8657 193.066 17.3226C194.132 17.7794 194.954 18.419 195.533 19.2414V16.3632C195.533 15.1753 195.167 14.2464 194.436 13.5763C193.736 12.8758 192.746 12.5256 191.467 12.5256C189.457 12.5256 187.645 13.3174 186.03 14.9012L183.974 11.155C186.198 9.02298 189.03 7.95698 192.472 7.95698C195.061 7.95698 197.132 8.59658 198.685 9.87578C200.269 11.1245 201.061 13.089 201.061 15.7692V30.5714ZM191.832 27.4191C193.538 27.4191 194.772 26.7186 195.533 25.3176V22.485C194.741 21.0536 193.508 20.3378 191.832 20.3378C190.797 20.3378 189.959 20.6728 189.32 21.3429C188.711 21.9825 188.406 22.8353 188.406 23.9013C188.406 24.9673 188.711 25.8201 189.32 26.4597C189.959 27.0993 190.797 27.4191 191.832 27.4191ZM212.049 24.3582C212.78 25.6374 213.846 26.277 215.247 26.277C216.648 26.277 217.714 25.6374 218.445 24.3582C219.206 23.0485 219.587 21.419 219.587 19.4698C219.587 17.5814 219.206 15.9977 218.445 14.7185C217.714 13.4393 216.648 12.7997 215.247 12.7997C213.846 12.7997 212.78 13.4393 212.049 14.7185C211.318 15.9977 210.953 17.5814 210.953 19.4698C210.953 21.419 211.318 23.0485 212.049 24.3582ZM215.247 31.1196C212.049 31.1196 209.582 29.9623 207.846 27.6475C206.14 25.3023 205.288 22.2566 205.288 18.5104C205.288 12.9367 206.019 8.96206 207.48 6.58641C208.973 4.18029 211.562 2.65744 215.247 2.01784C217.714 1.59144 218.948 0.951834 218.948 0.0990343H224.521C224.521 3.23612 221.948 5.23107 216.8 6.08387C212.75 6.75392 210.496 8.44429 210.039 11.155C211.501 9.02298 213.602 7.95698 216.343 7.95698C219.115 7.95698 221.293 9.06866 222.877 11.292C224.46 13.5154 225.252 16.2413 225.252 19.4698C225.252 22.7287 224.369 25.4851 222.602 27.7389C220.866 29.9927 218.415 31.1196 215.247 31.1196ZM238.413 31.1196C235.306 31.1196 232.87 30.008 231.103 27.7846C229.337 25.5308 228.453 22.7744 228.453 19.5155C228.453 16.2566 229.337 13.5154 231.103 11.292C232.87 9.06866 235.306 7.95698 238.413 7.95698C241.55 7.95698 244.002 9.06866 245.768 11.292C247.535 13.5154 248.418 16.2566 248.418 19.5155C248.418 22.8048 247.535 25.5612 245.768 27.7846C244.002 30.008 241.55 31.1196 238.413 31.1196ZM238.413 26.277C239.844 26.277 240.926 25.6374 241.657 24.3582C242.388 23.079 242.753 21.4647 242.753 19.5155C242.753 17.5662 242.388 15.9672 241.657 14.7185C240.926 13.4393 239.844 12.7997 238.413 12.7997C237.012 12.7997 235.946 13.4393 235.215 14.7185C234.514 15.9977 234.164 17.5967 234.164 19.5155C234.164 21.4647 234.514 23.079 235.215 24.3582C235.946 25.6374 237.012 26.277 238.413 26.277ZM261.352 30.5714H255.825V13.3022H250.982V8.50521H266.241V13.3022H261.352V30.5714ZM269.402 39.206L270.224 34.3633C270.65 34.5765 271.123 34.6831 271.64 34.6831C272.859 34.6831 273.666 34.1501 274.062 33.0841L274.793 30.9826L267.346 8.50521H273.194L277.625 23.947L282.102 8.50521H287.95L279.316 34.3176C278.676 36.2669 277.777 37.607 276.62 38.338C275.463 39.0994 273.94 39.4954 272.052 39.5258C270.986 39.5258 270.102 39.4192 269.402 39.206ZM35.9966 74.1196C32.89 74.1196 30.5448 73.1298 28.961 71.1501L31.5651 67.7236C32.6616 69.0638 33.9408 69.7338 35.4027 69.7338C36.6819 69.7338 37.7479 69.277 38.6007 68.3632C39.4535 67.4191 40.017 66.1551 40.2911 64.5713H32.7072V60.3226H40.2911C40.017 58.7692 39.4535 57.551 38.6007 56.6677C37.7479 55.7844 36.6819 55.3428 35.4027 55.3428C33.9103 55.3428 32.6311 56.0129 31.5651 57.353L28.961 53.9266C30.5448 51.9468 32.89 50.957 35.9966 50.957C38.9814 50.957 41.4028 52.0382 43.2606 54.2007C45.1185 56.3631 46.0475 59.1347 46.0475 62.5155C46.0475 65.9267 45.1185 68.7135 43.2606 70.876C41.4028 73.0384 38.9814 74.1196 35.9966 74.1196ZM48.6012 74.1196V69.5054C49.4845 69.5054 50.1698 69.0485 50.6571 68.1348C51.1749 67.1906 51.5708 65.4241 51.8449 62.8353L52.8957 51.5052H68.2004V73.5714H62.6724V56.3022H57.8754L57.2815 63.3835C56.9465 67.282 56.0785 70.0536 54.6774 71.6983C53.3069 73.3125 51.2815 74.1196 48.6012 74.1196ZM82.7285 74.1196C79.6218 74.1196 77.1244 73.0536 75.236 70.9216C73.3781 68.7896 72.4492 65.9876 72.4492 62.5155C72.4492 59.2261 73.3477 56.485 75.1446 54.292C76.9416 52.0687 79.3325 50.957 82.3173 50.957C85.3021 50.957 87.6321 52.0534 89.3072 54.2464C90.9824 56.4088 91.8199 59.2413 91.8199 62.7439V64.2972H77.9772C78.099 65.881 78.6168 67.1754 79.5305 68.1805C80.4442 69.1856 81.7082 69.6881 83.3224 69.6881C84.1447 69.6881 84.9975 69.5054 85.8808 69.1399C86.764 68.744 87.5102 68.211 88.1194 67.5409L90.6321 70.8303C88.6219 73.0232 85.9874 74.1196 82.7285 74.1196ZM86.5204 60.551C86.4595 59.1804 86.094 57.9774 85.4239 56.9418C84.7539 55.9063 83.6879 55.3885 82.2259 55.3885C80.8249 55.3885 79.7741 55.9063 79.0736 56.9418C78.4036 57.9774 78.0381 59.1804 77.9772 60.551H86.5204ZM114.732 73.5714H108.29L103.722 64.9368L101.392 68.1805V73.5714H95.9095V51.5052H101.392V61.5104L108.108 51.5052H114.504L107.514 61.419L114.732 73.5714ZM126.462 73.5714H120.934V56.3022H116.091V51.5052H131.35V56.3022H126.462V73.5714ZM146.07 74.1196C143.694 74.1196 141.836 73.008 140.496 70.7846V81.9776H135.014V51.5052H140.496V54.292C141.897 52.0687 143.755 50.957 146.07 50.957C148.567 50.957 150.547 51.9925 152.009 54.0636C153.501 56.1042 154.247 58.9215 154.247 62.5155C154.247 66.079 153.501 68.9115 152.009 71.013C150.547 73.0841 148.567 74.1196 146.07 74.1196ZM144.288 69.277C145.658 69.277 146.709 68.6526 147.44 67.4038C148.202 66.1551 148.582 64.5256 148.582 62.5155C148.582 60.5358 148.202 58.9215 147.44 57.6728C146.709 56.424 145.658 55.7997 144.288 55.7997C143.557 55.7997 142.826 56.0433 142.095 56.5306C141.394 57.018 140.861 57.6271 140.496 58.3581V66.6729C140.861 67.4038 141.394 68.0282 142.095 68.546C142.826 69.0333 143.557 69.277 144.288 69.277ZM167.265 74.1196C164.158 74.1196 161.721 73.008 159.955 70.7846C158.188 68.5308 157.305 65.7744 157.305 62.5155C157.305 59.2566 158.188 56.5154 159.955 54.292C161.721 52.0687 164.158 50.957 167.265 50.957C170.402 50.957 172.853 52.0687 174.62 54.292C176.386 56.5154 177.27 59.2566 177.27 62.5155C177.27 65.8048 176.386 68.5612 174.62 70.7846C172.853 73.008 170.402 74.1196 167.265 74.1196ZM167.265 69.277C168.696 69.277 169.777 68.6374 170.508 67.3582C171.239 66.079 171.605 64.4647 171.605 62.5155C171.605 60.5662 171.239 58.9672 170.508 57.7185C169.777 56.4393 168.696 55.7997 167.265 55.7997C165.864 55.7997 164.798 56.4393 164.067 57.7185C163.366 58.9977 163.016 60.5967 163.016 62.5155C163.016 64.4647 163.366 66.079 164.067 67.3582C164.798 68.6374 165.864 69.277 167.265 69.277ZM204.641 73.5714H199.204V60.1855L194.27 73.5714H191.894L187.006 60.1855V73.5714H181.524V51.5052H188.559L193.082 63.7947L197.651 51.5052H204.641V73.5714ZM218.861 74.1196C215.754 74.1196 213.318 73.008 211.551 70.7846C209.785 68.5308 208.901 65.7744 208.901 62.5155C208.901 59.2566 209.785 56.5154 211.551 54.292C213.318 52.0687 215.754 50.957 218.861 50.957C221.998 50.957 224.45 52.0687 226.216 54.292C227.983 56.5154 228.866 59.2566 228.866 62.5155C228.866 65.8048 227.983 68.5612 226.216 70.7846C224.45 73.008 221.998 74.1196 218.861 74.1196ZM218.861 69.277C220.292 69.277 221.374 68.6374 222.105 67.3582C222.835 66.079 223.201 64.4647 223.201 62.5155C223.201 60.5662 222.835 58.9672 222.105 57.7185C221.374 56.4393 220.292 55.7997 218.861 55.7997C217.46 55.7997 216.394 56.4393 215.663 57.7185C214.962 58.9977 214.612 60.5967 214.612 62.5155C214.612 64.4647 214.962 66.079 215.663 67.3582C216.394 68.6374 217.46 69.277 218.861 69.277ZM238.602 73.5714H233.12V51.5052H238.602V59.7286H245.501V51.5052H251.029V73.5714H245.501V64.5256H238.602V73.5714ZM265.1 73.5714H259.572V56.3022H254.729V51.5052H269.989V56.3022H265.1V73.5714ZM290.601 73.5714H285.073V71.3785C284.464 72.2313 283.627 72.9014 282.561 73.3887C281.525 73.876 280.429 74.1196 279.271 74.1196C277.413 74.1196 275.814 73.4648 274.474 72.1552C273.134 70.8455 272.464 69.0638 272.464 66.8099C272.464 64.5256 273.119 62.7591 274.429 61.5104C275.769 60.2616 277.383 59.6373 279.271 59.6373C280.459 59.6373 281.571 59.8657 282.606 60.3226C283.672 60.7794 284.495 61.419 285.073 62.2414V59.3632C285.073 58.1753 284.708 57.2464 283.977 56.5763C283.276 55.8758 282.287 55.5256 281.007 55.5256C278.997 55.5256 277.185 56.3174 275.571 57.9012L273.515 54.155C275.738 52.023 278.571 50.957 282.012 50.957C284.601 50.957 286.672 51.5966 288.226 52.8758C289.809 54.1245 290.601 56.089 290.601 58.7692V73.5714ZM281.373 70.4191C283.078 70.4191 284.312 69.7186 285.073 68.3176V65.485C284.281 64.0536 283.048 63.3378 281.373 63.3378C280.337 63.3378 279.5 63.6728 278.86 64.3429C278.251 64.9825 277.946 65.8353 277.946 66.9013C277.946 67.9673 278.251 68.8201 278.86 69.4597C279.5 70.0993 280.337 70.4191 281.373 70.4191ZM300.082 73.5714H293.64L300.858 61.419L293.869 51.5052H300.265L305.473 59.2718V51.5052H310.955V59.3632L316.209 51.5052H322.559L315.615 61.419L322.833 73.5714H316.392L311.823 64.9368L310.955 66.1703V73.5714H305.473V66.079L304.65 64.9368L300.082 73.5714ZM331.355 73.5714H325.873V51.5052H331.355V59.7286H338.254V51.5052H343.782V73.5714H338.254V64.5256H331.355V73.5714ZM354.472 73.5714H349.173V51.5052H354.655V63.9317L361.462 51.5052H367.081V73.5714H361.553V60.6424L354.472 73.5714ZM391.295 73.5714H384.853L380.285 64.9368L377.955 68.1805V73.5714H372.472V51.5052H377.955V61.5104L384.67 51.5052H391.066L384.076 61.419L391.295 73.5714ZM402.76 74.1196C399.654 74.1196 397.217 73.008 395.45 70.7846C393.684 68.5308 392.801 65.7744 392.801 62.5155C392.801 59.2566 393.684 56.5154 395.45 54.292C397.217 52.0687 399.654 50.957 402.76 50.957C405.897 50.957 408.349 52.0687 410.116 54.292C411.882 56.5154 412.765 59.2566 412.765 62.5155C412.765 65.8048 411.882 68.5612 410.116 70.7846C408.349 73.008 405.897 74.1196 402.76 74.1196ZM402.76 69.277C404.192 69.277 405.273 68.6374 406.004 67.3582C406.735 66.079 407.1 64.4647 407.1 62.5155C407.1 60.5662 406.735 58.9672 406.004 57.7185C405.273 56.4393 404.192 55.7997 402.76 55.7997C401.359 55.7997 400.293 56.4393 399.562 57.7185C398.862 58.9977 398.511 60.5967 398.511 62.5155C398.511 64.4647 398.862 66.079 399.562 67.3582C400.293 68.6374 401.359 69.277 402.76 69.277ZM440.136 73.5714H434.7V60.1855L429.766 73.5714H427.39L422.502 60.1855V73.5714H417.019V51.5052H424.055L428.578 63.7947L433.146 51.5052H440.136V73.5714ZM36.088 116.571H30.6057V94.5052H36.088V102.729H42.9865V94.5052H48.5145V116.571H42.9865V107.526H36.088V116.571ZM70.8548 116.571H65.3268V114.378C64.7177 115.231 63.8801 115.901 62.8141 116.389C61.7786 116.876 60.6821 117.12 59.5248 117.12C57.6669 117.12 56.0679 116.465 54.7278 115.155C53.3876 113.845 52.7176 112.064 52.7176 109.81C52.7176 107.526 53.3724 105.759 54.6821 104.51C56.0222 103.262 57.6364 102.637 59.5248 102.637C60.7126 102.637 61.8243 102.866 62.8598 103.323C63.9258 103.779 64.7482 104.419 65.3268 105.241V102.363C65.3268 101.175 64.9614 100.246 64.2304 99.5763C63.5299 98.8758 62.54 98.5256 61.2608 98.5256C59.2506 98.5256 57.4384 99.3174 55.8242 100.901L53.7684 97.155C55.9917 95.023 58.8242 93.957 62.2659 93.957C64.8548 93.957 66.9258 94.5966 68.4792 95.8758C70.0629 97.1245 70.8548 99.089 70.8548 101.769V116.571ZM61.6263 113.419C63.3319 113.419 64.5654 112.719 65.3268 111.318V108.485C64.535 107.054 63.3014 106.338 61.6263 106.338C60.5908 106.338 59.7532 106.673 59.1136 107.343C58.5044 107.982 58.1999 108.835 58.1999 109.901C58.1999 110.967 58.5044 111.82 59.1136 112.46C59.7532 113.099 60.5908 113.419 61.6263 113.419ZM104.181 116.571H98.6992V101.952C98.6992 99.8504 97.7246 98.7997 95.7753 98.7997C94.953 98.7997 94.1915 99.0738 93.491 99.622C92.7905 100.14 92.2271 100.779 91.8007 101.541V116.571H86.2727V86.099H91.8007V97.3834C92.4098 96.4392 93.2931 95.6321 94.4504 94.9621C95.6383 94.292 96.9022 93.957 98.2423 93.957C102.202 93.957 104.181 95.9367 104.181 99.8961V116.571ZM127.481 116.571H121.999V101.952C121.999 99.8504 121.024 98.7997 119.075 98.7997C118.253 98.7997 117.491 99.0738 116.791 99.622C116.09 100.14 115.527 100.779 115.1 101.541V116.571H109.572V86.099H115.1V97.3834C115.71 96.4392 116.593 95.6321 117.75 94.9621C118.938 94.292 120.202 93.957 121.542 93.957C125.501 93.957 127.481 95.9367 127.481 99.8961V116.571ZM138.629 116.069C137.958 116.739 137.136 117.074 136.161 117.074C135.187 117.074 134.349 116.724 133.649 116.023C132.948 115.323 132.598 114.5 132.598 113.556C132.598 112.582 132.948 111.744 133.649 111.043C134.349 110.343 135.187 109.993 136.161 109.993C137.106 109.993 137.928 110.343 138.629 111.043C139.329 111.744 139.679 112.582 139.679 113.556C139.679 114.531 139.329 115.368 138.629 116.069ZM150.322 116.571H144.84V94.5052H150.322V97.5205C150.962 96.5154 151.83 95.6778 152.926 95.0078C154.053 94.3072 155.195 93.957 156.352 93.957V99.3479C155.987 99.2565 155.545 99.2108 155.028 99.2108C154.144 99.2108 153.246 99.4697 152.332 99.9875C151.449 100.475 150.779 101.099 150.322 101.861V116.571ZM177.793 116.571H172.311V113.785C171.671 114.729 170.773 115.521 169.616 116.16C168.458 116.8 167.194 117.12 165.824 117.12C161.895 117.12 159.93 115.14 159.93 111.18V94.5052H165.412V109.079C165.412 111.211 166.387 112.277 168.336 112.277C169.981 112.277 171.306 111.378 172.311 109.581V94.5052H177.793V116.571Z" fill="white"/>
  <path d="M19.0334 28.7597H14.3278L8.61706 20.5362L14.3278 12.4499H19.0334L13.3227 20.5362L19.0334 28.7597ZM11.3125 28.7597H6.65258L0.941861 20.5362L6.65258 12.4499H11.3125L5.6018 20.5362L11.3125 28.7597Z" fill="white"/>
  <path d="M199.327 107.327L193.616 115.55H188.957L194.667 107.327L188.957 99.2406H193.616L199.327 107.327ZM207.048 107.327L201.337 115.55H196.632L202.342 107.327L196.632 99.2406H201.337L207.048 107.327Z" fill="white"/>
  </svg>
  