<svg width="132" height="28" viewBox="0 0 132 28" fill="none" xmlns="http://www.w3.org/2000/svg">
  <path d="M6.27465 8.4979H4.68021L2.74521 5.71151L4.68021 2.97155H6.27465L4.33965 5.71151L6.27465 8.4979ZM3.65853 8.4979H2.07957L0.144576 5.71151L2.07957 2.97155H3.65853L1.72354 5.71151L3.65853 8.4979Z" fill="white"/>
  <path d="M11.9197 10.4731H10.124V2.99631H11.9816V7.20687L14.2881 2.99631H16.1922V10.4731H14.3191V6.09231L11.9197 10.4731ZM25.5885 2.99631H27.4461V8.84775H28.282V12.3772H26.409V10.4731H18.0188V2.99631H19.8764V8.84775H21.7959V2.99631H23.669V8.84775H25.5885V2.99631ZM31.2921 10.4731H29.4964V2.99631H31.354V7.20687L33.6605 2.99631H35.5645V10.4731H33.6915V6.09231L31.2921 10.4731ZM40.3324 10.4731H38.4593V4.62171H36.8184V2.99631H41.9887V4.62171H40.3324V10.4731ZM46.326 10.6589C44.2208 10.6589 42.843 9.07994 42.843 6.72699C42.843 4.55979 44.1124 2.81055 46.1867 2.81055C48.2455 2.81055 49.4065 4.48239 49.4065 6.80439V7.33071H44.7161C44.7935 8.35239 45.3972 9.15734 46.5273 9.15734C47.0536 9.15734 47.7347 8.89418 48.1527 8.42979L49.0041 9.54434C48.3384 10.2719 47.3322 10.6589 46.326 10.6589ZM47.6109 6.06135C47.5799 5.28735 47.2394 4.31211 46.1558 4.31211C45.1186 4.31211 44.7471 5.28735 44.7161 6.06135H47.6109ZM57.9434 10.6589C57.2313 10.6589 56.5192 10.3029 56.0548 9.52886V13.3215H54.1972V2.99631H56.0548V3.94059C56.5192 3.19755 57.2158 2.81055 57.9434 2.81055C59.6307 2.81055 60.7143 4.28115 60.7143 6.72699C60.7143 9.15734 59.6307 10.6589 57.9434 10.6589ZM57.3397 9.01802C58.2994 9.01802 58.7948 8.04279 58.7948 6.72699C58.7948 5.42667 58.2994 4.45143 57.3397 4.45143C56.8443 4.45143 56.3025 4.82295 56.0548 5.31831V8.13567C56.3025 8.61555 56.8443 9.01802 57.3397 9.01802ZM67.8805 10.4731H66.0074V9.7301C65.5894 10.3183 64.8 10.6589 64.0414 10.6589C62.865 10.6589 61.7349 9.77654 61.7349 8.18211C61.7349 6.54123 62.865 5.75175 64.0414 5.75175C64.8154 5.75175 65.6049 6.06135 66.0074 6.63411V5.65887C66.0074 4.85391 65.512 4.35855 64.6297 4.35855C63.9795 4.35855 63.3448 4.62171 62.7876 5.16351L62.091 3.89415C62.8804 3.13563 64.0105 2.81055 64.9702 2.81055C66.5956 2.81055 67.8805 3.53811 67.8805 5.45763V10.4731ZM64.7535 9.40502C65.2644 9.40502 65.7597 9.14186 66.0074 8.69295V7.73319C65.7597 7.28427 65.2644 7.00563 64.7535 7.00563C64.0569 7.00563 63.5925 7.50099 63.5925 8.21307C63.5925 8.92515 64.0569 9.40502 64.7535 9.40502ZM72.6873 9.01802C73.6935 9.01802 74.1579 7.94991 74.1579 6.71151C74.1579 5.51955 73.6935 4.45143 72.6873 4.45143C71.6965 4.45143 71.2321 5.51955 71.2321 6.71151C71.2321 7.94991 71.6965 9.01802 72.6873 9.01802ZM72.6873 10.6589C70.4427 10.6589 69.3126 8.83226 69.3126 6.38643C69.3126 2.57835 70.2105 1.23159 72.6873 0.798148C73.5696 0.643347 73.9411 0.473067 73.9411 0.147987H75.8297C75.8297 1.60311 74.2507 2.00559 73.2136 2.17587C71.7275 2.42355 71.0773 2.99631 70.9225 3.89415C71.3869 3.21303 72.13 2.81055 73.0588 2.81055C75.0093 2.81055 76.0774 4.63719 76.0774 6.71151C76.0774 8.78583 74.9319 10.6589 72.6873 10.6589ZM80.5367 10.6589C78.3385 10.6589 77.1621 8.83226 77.1621 6.72699C77.1621 4.63719 78.3385 2.81055 80.5367 2.81055C82.7658 2.81055 83.9268 4.63719 83.9268 6.72699C83.9268 8.83226 82.7658 10.6589 80.5367 10.6589ZM80.5367 9.01802C81.5584 9.01802 82.0073 7.96539 82.0073 6.72699C82.0073 5.50407 81.5584 4.45143 80.5367 4.45143C79.546 4.45143 79.0971 5.50407 79.0971 6.72699C79.0971 7.96539 79.546 9.01802 80.5367 9.01802ZM88.3095 10.4731H86.4364V4.62171H84.7955V2.99631H89.9658V4.62171H88.3095V10.4731ZM91.0368 13.3989L91.3155 11.758C91.4393 11.8199 91.656 11.8663 91.7954 11.8663C92.2133 11.8663 92.4765 11.7115 92.6158 11.3245L92.8635 10.6125L90.3402 2.99631H92.3217L93.8232 8.22855L95.3403 2.99631H97.3217L94.396 11.7425C93.9316 13.1202 93.1266 13.4917 91.9347 13.5072C91.7025 13.5072 91.2381 13.4608 91.0368 13.3989ZM9.95373 27.3989L10.2324 25.758C10.3562 25.8199 10.5729 25.8663 10.7122 25.8663C11.1302 25.8663 11.3934 25.7115 11.5327 25.3245L11.7804 24.6125L9.25713 16.9963H11.2386L12.7401 22.2285L14.2572 16.9963H16.2386L13.3129 25.7425C12.8485 27.1202 12.0435 27.4917 10.8516 27.5072C10.6194 27.5072 10.155 27.4608 9.95373 27.3989ZM17.0167 16.9963H18.8898V19.2719C18.8898 20.0459 19.2458 20.34 20.0508 20.34C20.5307 20.34 20.9641 20.2161 21.2118 20.0768V16.9963H23.0849V24.4731H21.2118V21.5319C20.8248 21.7796 20.1437 21.9809 19.4006 21.9809C17.6359 21.9809 17.0167 21.2223 17.0167 19.9065V16.9963ZM26.7115 24.4731H24.9159V16.9963H26.7735V21.2069L29.08 16.9963H30.984V24.4731H29.1109V20.0923L26.7115 24.4731ZM35.7519 24.4731H33.8788V18.6217H32.2379V16.9963H37.4082V18.6217H35.7519V24.4731ZM41.7455 24.6589C39.6402 24.6589 38.2625 23.0799 38.2625 20.727C38.2625 18.5598 39.5319 16.8105 41.6062 16.8105C43.665 16.8105 44.826 18.4824 44.826 20.8044V21.3307H40.1356C40.213 22.3524 40.8167 23.1573 41.9468 23.1573C42.4731 23.1573 43.1542 22.8942 43.5722 22.4298L44.4236 23.5443C43.7579 24.2719 42.7517 24.6589 41.7455 24.6589ZM43.0304 20.0613C42.9994 19.2873 42.6588 18.3121 41.5752 18.3121C40.5381 18.3121 40.1666 19.2873 40.1356 20.0613H43.0304ZM45.639 24.6589V23.0954C46.1963 23.0954 46.5523 22.6929 46.7381 20.8353L47.0941 16.9963H52.2799V24.4731H50.4068V18.6217H48.7814L48.5802 21.0211C48.348 23.7301 47.4037 24.6589 45.639 24.6589ZM57.2025 24.6589C55.0973 24.6589 53.7195 23.0799 53.7195 20.727C53.7195 18.5598 54.9889 16.8105 57.0632 16.8105C59.1221 16.8105 60.2831 18.4824 60.2831 20.8044V21.3307H55.5926C55.67 22.3524 56.2737 23.1573 57.4038 23.1573C57.9301 23.1573 58.6112 22.8942 59.0292 22.4298L59.8806 23.5443C59.2149 24.2719 58.2087 24.6589 57.2025 24.6589ZM58.4874 20.0613C58.4564 19.2873 58.1159 18.3121 57.0323 18.3121C55.9951 18.3121 55.6236 19.2873 55.5926 20.0613H58.4874ZM69.5016 24.4731H67.6595V19.9375L65.9877 24.4731H65.1827L63.5264 19.9375V24.4731H61.6688V16.9963H64.0527L65.5852 21.1604L67.1332 16.9963H69.5016V24.4731ZM73.1899 24.4731H71.3323V16.9963H73.1899V19.7827H75.5273V16.9963H77.4004V24.4731H75.5273V21.4081H73.1899V24.4731ZM84.9701 24.4731H83.0971V23.7301C82.6791 24.3183 81.8896 24.6589 81.1311 24.6589C79.9546 24.6589 78.8246 23.7765 78.8246 22.1821C78.8246 20.5412 79.9546 19.7517 81.1311 19.7517C81.9051 19.7517 82.6946 20.0613 83.0971 20.6341V19.6589C83.0971 18.8539 82.6017 18.3585 81.7193 18.3585C81.0692 18.3585 80.4345 18.6217 79.8772 19.1635L79.1806 17.8941C79.9701 17.1356 81.1001 16.8105 82.0599 16.8105C83.6853 16.8105 84.9701 17.5381 84.9701 19.4576V24.4731ZM81.8432 23.405C82.354 23.405 82.8494 23.1419 83.0971 22.6929V21.7332C82.8494 21.2843 82.354 21.0056 81.8432 21.0056C81.1466 21.0056 80.6822 21.501 80.6822 22.2131C80.6822 22.9251 81.1466 23.405 81.8432 23.405ZM96.2624 24.4731H94.4048V19.5195C94.4048 18.7455 94.0333 18.4514 93.4141 18.4514C92.8104 18.4514 92.315 18.9313 92.0674 19.3802V24.4731H90.1943V14.148H92.0674V17.9715C92.4544 17.3833 93.2903 16.8105 94.25 16.8105C95.6432 16.8105 96.2624 17.5691 96.2624 18.8229V24.4731ZM104.157 24.4731H102.3V19.5195C102.3 18.7455 101.928 18.4514 101.309 18.4514C100.705 18.4514 100.21 18.9313 99.9622 19.3802V24.4731H98.0891V14.148H99.9622V17.9715C100.349 17.3833 101.185 16.8105 102.145 16.8105C103.538 16.8105 104.157 17.5691 104.157 18.8229V24.4731ZM107.098 24.6434C106.448 24.6434 105.891 24.1016 105.891 23.4515C105.891 22.8013 106.448 22.244 107.098 22.244C107.749 22.244 108.29 22.8013 108.29 23.4515C108.29 24.1016 107.749 24.6434 107.098 24.6434ZM111.897 24.4731H110.039V16.9963H111.897V18.018C112.314 17.3523 113.135 16.8105 113.94 16.8105V18.6372C113.816 18.6062 113.661 18.5907 113.491 18.5907C112.903 18.5907 112.206 18.9777 111.897 19.4886V24.4731ZM121.205 24.4731H119.347V23.5289C118.945 24.1171 118.124 24.6589 117.149 24.6589C115.771 24.6589 115.152 23.9004 115.152 22.6465V16.9963H117.01V21.9344C117.01 22.7239 117.381 23.018 118 23.018C118.604 23.018 119.084 22.5691 119.347 22.1047V16.9963H121.205V24.4731Z" fill="white"/>
  <path d="M125.302 18.3407L126.897 18.3407L128.832 21.1271L126.897 23.8671L125.302 23.8671L127.237 21.1271L125.302 18.3407ZM127.919 18.3407L129.498 18.3407L131.433 21.1271L129.498 23.8671L127.919 23.8671L129.854 21.1271L127.919 18.3407Z" fill="white"/>
  </svg>
  