<svg width="353" height="188" viewBox="0 0 353 188" fill="none" xmlns="http://www.w3.org/2000/svg">
  <g filter="url(#filter0_d_58_11410)">
    <rect x="14" y="55.3522" width="311.218" height="112.732" rx="24.4806"
      transform="rotate(-8.75161 14 55.3522)" fill="white" shape-rendering="crispEdges" />
    <g clip-path="url(#clip0_58_11410)">
      <path
        d="M52.3179 72.8581L58.6008 81.8234L69.5518 81.7401L62.9641 90.4812L66.4346 100.863L56.0806 97.3005L47.2775 103.812L47.4649 92.8673L38.5532 86.5121L49.0222 83.298L52.3179 72.8581Z"
        fill="#FF9900" stroke="#FF9900" stroke-width="3.13637" stroke-linecap="round"
        stroke-linejoin="round" />
    </g>
    <g clip-path="url(#clip1_58_11410)">
      <path
        d="M94.166 66.4159L100.449 75.3811L111.4 75.2978L104.812 84.039L108.283 94.4209L97.9288 90.8582L89.1257 97.37L89.313 86.425L80.4014 80.0699L90.8704 76.8557L94.166 66.4159Z"
        fill="#FF9900" stroke="#FF9900" stroke-width="3.13637" stroke-linecap="round"
        stroke-linejoin="round" />
    </g>
    <g clip-path="url(#clip2_58_11410)">
      <path
        d="M136.014 59.9736L142.297 68.9389L153.248 68.8556L146.66 77.5967L150.131 87.9787L139.777 84.416L130.974 90.9278L131.161 79.9827L122.249 73.6276L132.718 70.4134L136.014 59.9736Z"
        fill="#FF9900" stroke="#FF9900" stroke-width="3.13637" stroke-linecap="round"
        stroke-linejoin="round" />
    </g>
    <g clip-path="url(#clip3_58_11410)">
      <path
        d="M177.862 53.5315L184.145 62.4967L195.096 62.4134L188.508 71.1546L191.979 81.5365L181.625 77.9738L172.822 84.4856L173.009 73.5406L164.097 67.1855L174.566 63.9713L177.862 53.5315Z"
        fill="#FF9900" stroke="#FF9900" stroke-width="3.13637" stroke-linecap="round"
        stroke-linejoin="round" />
    </g>
    <g clip-path="url(#clip4_58_11410)">
      <path fill-rule="evenodd" clip-rule="evenodd"
        d="M220.994 46.1893C220.652 45.7005 220.062 45.4485 219.472 45.5393C218.882 45.6301 218.394 46.048 218.215 46.6172L215.167 56.2717L205.485 59.2441C204.915 59.4193 204.493 59.9031 204.398 60.4922C204.302 61.0812 204.549 61.6735 205.035 62.02L213.275 67.8962L213.102 78.0166C213.092 78.6135 213.421 79.1644 213.952 79.4376C214.483 79.7109 215.123 79.6592 215.602 79.3042L223.743 73.2828L233.317 76.5772C233.881 76.7714 234.507 76.6283 234.931 76.2081C235.355 75.7878 235.504 75.1633 235.314 74.5971L232.105 64.9975L238.196 56.915C238.556 56.4384 238.613 55.7993 238.345 55.2662C238.077 54.7331 237.529 54.3985 236.932 54.4031L226.805 54.4801L220.994 46.1893ZM220.249 50.5909L223.234 69.9817C223.482 69.9435 223.739 69.9648 223.983 70.0487L231.332 72.5774L228.869 65.2095C228.705 64.7198 228.793 64.1809 229.104 63.7685L233.78 57.5635L226.005 57.6227C225.489 57.6266 225.005 57.3768 224.709 56.9545L220.249 50.5909Z"
        fill="#FF9900" />
    </g>
    <path
      d="M253.06 66.6641L252.46 62.7673L261.148 42.8633L264.397 42.3631L265.251 47.9111L263.27 48.2162L257.427 61.6511L257.46 61.8624L273.483 59.3958L274.103 63.4247L253.06 66.6641ZM266.739 69.697L265.783 63.4885L265.568 61.7367L262.627 42.6356L267.25 41.9239L271.415 68.9771L266.739 69.697ZM281.377 67.7411C280.576 67.8644 279.845 67.6884 279.186 67.2129C278.527 66.7374 278.139 66.0939 278.023 65.2823C277.893 64.4911 278.07 63.7696 278.556 63.1179C279.041 62.4662 279.685 62.0786 280.486 61.9553C281.261 61.836 281.978 62.0141 282.637 62.4895C283.305 62.9637 283.705 63.5964 283.836 64.3876C283.91 64.9261 283.844 65.4366 283.639 65.9189C283.442 66.3999 283.144 66.8064 282.745 67.1384C282.352 67.4602 281.897 67.6611 281.377 67.7411ZM289.241 66.2329L297.241 41.6883L297.213 41.5034L283.858 43.5593L283.227 39.4643L301.655 36.6275L302.299 40.815L294.327 65.45L289.241 66.2329Z"
      fill="black" />
    <path
      d="M147.109 121.019C146.407 121.139 145.752 121.108 145.142 120.925C144.532 120.742 144.016 120.436 143.594 120.008C143.172 119.579 142.892 119.057 142.754 118.441L144.189 118.195C144.339 118.74 144.669 119.155 145.177 119.442C145.689 119.723 146.258 119.811 146.884 119.704C147.386 119.618 147.812 119.424 148.163 119.122C148.517 118.819 148.771 118.443 148.924 117.994C149.08 117.541 149.114 117.053 149.024 116.531C148.933 115.997 148.734 115.54 148.427 115.162C148.124 114.779 147.748 114.501 147.299 114.327C146.851 114.154 146.366 114.11 145.843 114.195C145.467 114.255 145.093 114.379 144.719 114.566C144.344 114.749 144.044 114.954 143.821 115.181L142.405 115.251L142.115 109.097L148.477 108.008L148.702 109.324L143.584 110.2L143.771 113.885L143.843 113.872C144.06 113.63 144.347 113.411 144.703 113.215C145.059 113.018 145.442 112.885 145.853 112.815C146.602 112.686 147.301 112.752 147.948 113.01C148.599 113.264 149.144 113.671 149.585 114.232C150.029 114.792 150.32 115.468 150.455 116.261C150.589 117.043 150.533 117.77 150.287 118.444C150.045 119.113 149.649 119.678 149.1 120.137C148.55 120.592 147.886 120.886 147.109 121.019ZM157.664 119.213C156.875 119.348 156.148 119.333 155.484 119.168C154.823 119.002 154.271 118.708 153.825 118.288C153.383 117.863 153.092 117.333 152.95 116.696L154.457 116.438C154.556 116.828 154.75 117.145 155.038 117.391C155.326 117.633 155.676 117.799 156.089 117.889C156.503 117.978 156.945 117.982 157.415 117.902C157.941 117.812 158.392 117.64 158.767 117.387C159.142 117.134 159.418 116.825 159.593 116.458C159.768 116.092 159.819 115.693 159.745 115.263C159.668 114.812 159.489 114.435 159.207 114.13C158.924 113.822 158.551 113.607 158.087 113.485C157.623 113.363 157.08 113.356 156.458 113.462L155.478 113.63L155.253 112.314L156.233 112.146C156.72 112.063 157.131 111.903 157.468 111.664C157.809 111.426 158.055 111.129 158.208 110.775C158.365 110.42 158.406 110.027 158.333 109.596C158.262 109.182 158.108 108.837 157.872 108.561C157.637 108.286 157.337 108.091 156.972 107.977C156.612 107.862 156.207 107.843 155.756 107.92C155.334 107.992 154.949 108.138 154.6 108.358C154.256 108.573 153.991 108.846 153.805 109.177C153.619 109.504 153.551 109.873 153.6 110.283L152.165 110.528C152.08 109.883 152.177 109.287 152.457 108.743C152.736 108.195 153.146 107.735 153.686 107.363C154.229 106.991 154.854 106.745 155.559 106.624C156.317 106.495 156.993 106.537 157.587 106.751C158.181 106.961 158.666 107.291 159.043 107.739C159.419 108.188 159.657 108.701 159.755 109.279C159.873 109.969 159.793 110.588 159.513 111.136C159.238 111.684 158.807 112.104 158.221 112.397L158.237 112.493C159.033 112.488 159.693 112.714 160.218 113.17C160.742 113.621 161.071 114.236 161.204 115.013C161.318 115.679 161.239 116.308 160.967 116.9C160.698 117.488 160.279 117.986 159.709 118.396C159.139 118.805 158.457 119.077 157.664 119.213ZM172.742 116.658C171.913 116.8 171.152 116.727 170.458 116.44C169.769 116.151 169.188 115.682 168.716 115.033C168.248 114.383 167.932 113.583 167.77 112.634C167.606 111.678 167.637 110.813 167.862 110.04C168.09 109.267 168.482 108.629 169.036 108.128C169.595 107.627 170.288 107.305 171.117 107.163C171.947 107.021 172.706 107.094 173.395 107.382C174.089 107.67 174.67 108.141 175.139 108.795C175.611 109.449 175.93 110.254 176.093 111.21C176.256 112.159 176.222 113.018 175.993 113.788C175.767 114.557 175.376 115.192 174.817 115.694C174.263 116.195 173.571 116.516 172.742 116.658ZM172.525 115.39C173.155 115.283 173.646 115.033 173.997 114.64C174.348 114.248 174.577 113.772 174.682 113.212C174.787 112.652 174.787 112.066 174.682 111.452C174.577 110.838 174.382 110.283 174.096 109.786C173.81 109.289 173.435 108.912 172.973 108.655C172.51 108.398 171.964 108.323 171.334 108.43C170.705 108.538 170.214 108.79 169.864 109.187C169.513 109.583 169.285 110.063 169.181 110.627C169.076 111.19 169.076 111.779 169.181 112.393C169.286 113.007 169.481 113.56 169.767 114.053C170.052 114.546 170.426 114.919 170.888 115.172C171.349 115.425 171.895 115.498 172.525 115.39ZM176.478 107.723L176.253 106.407L183.716 105.131L183.941 106.446L180.927 106.962L182.273 114.83L180.862 115.072L179.516 107.203L176.478 107.723ZM186.37 111.717L187.877 111.459C187.98 111.868 188.221 112.151 188.601 112.308C188.984 112.464 189.453 112.494 190.007 112.4C190.573 112.303 191.038 112.104 191.401 111.804C191.763 111.5 191.9 111.087 191.81 110.565C191.758 110.258 191.637 110.004 191.446 109.802C191.255 109.597 191.011 109.454 190.714 109.374C190.417 109.293 190.082 109.285 189.707 109.349L188.128 109.619L187.912 108.352L189.49 108.081C190.052 107.985 190.445 107.787 190.668 107.486C190.896 107.185 190.977 106.842 190.911 106.46C190.841 106.049 190.639 105.745 190.306 105.548C189.972 105.346 189.538 105.291 189.004 105.383C188.466 105.475 188.038 105.673 187.721 105.978C187.403 106.278 187.266 106.62 187.311 107.002L185.828 107.255C185.76 106.758 185.837 106.296 186.059 105.868C186.28 105.436 186.62 105.071 187.077 104.771C187.534 104.467 188.081 104.261 188.719 104.151C189.365 104.041 189.945 104.059 190.458 104.205C190.974 104.346 191.395 104.588 191.72 104.93C192.049 105.268 192.255 105.68 192.338 106.166C192.427 106.685 192.353 107.128 192.116 107.497C191.88 107.865 191.554 108.155 191.139 108.366L191.155 108.461C191.506 108.426 191.826 108.486 192.115 108.642C192.408 108.793 192.653 109.015 192.851 109.31C193.049 109.6 193.18 109.937 193.246 110.319C193.341 110.877 193.275 111.389 193.047 111.855C192.818 112.317 192.462 112.706 191.979 113.022C191.495 113.335 190.918 113.548 190.248 113.663C189.598 113.774 188.998 113.768 188.448 113.645C187.897 113.518 187.437 113.291 187.07 112.964C186.705 112.632 186.472 112.217 186.37 111.717ZM195.883 106.471L198.514 106.021C199.59 105.837 200.46 105.969 201.123 106.417C201.787 106.866 202.19 107.509 202.333 108.346C202.427 108.896 202.386 109.418 202.207 109.912C202.029 110.402 201.715 110.823 201.266 111.175C200.817 111.522 200.234 111.758 199.516 111.88L195.666 112.539L194.094 103.355L195.505 103.114L196.852 110.982L199.291 110.565C199.849 110.47 200.282 110.244 200.591 109.887C200.899 109.531 201.014 109.121 200.935 108.659C200.851 108.173 200.604 107.807 200.193 107.561C199.782 107.316 199.297 107.241 198.739 107.336L196.108 107.786L195.883 106.471ZM204.3 111.062L202.728 101.878L204.14 101.636L205.711 110.821L204.3 111.062ZM208.294 110.379L206.723 101.194L210.478 100.552C211.466 100.383 212.29 100.472 212.948 100.819C213.607 101.165 213.998 101.706 214.124 102.439C214.219 102.997 214.128 103.458 213.85 103.822C213.571 104.181 213.181 104.459 212.681 104.655C213.028 104.645 213.378 104.709 213.729 104.845C214.085 104.981 214.397 105.199 214.666 105.498C214.934 105.792 215.109 106.181 215.191 106.663C215.272 107.133 215.224 107.574 215.048 107.986C214.873 108.398 214.58 108.749 214.17 109.041C213.761 109.333 213.245 109.532 212.623 109.638L208.294 110.379ZM209.412 108.858L212.402 108.347C212.888 108.263 213.249 108.083 213.485 107.804C213.72 107.526 213.804 107.188 213.736 106.789C213.655 106.315 213.453 105.965 213.132 105.741C212.81 105.513 212.406 105.441 211.919 105.524L208.93 106.036L209.412 108.858ZM208.721 104.816L211.137 104.403C211.515 104.338 211.831 104.23 212.085 104.08C212.337 103.926 212.519 103.74 212.629 103.52C212.742 103.295 212.776 103.047 212.729 102.776C212.663 102.39 212.45 102.114 212.089 101.95C211.728 101.782 211.265 101.747 210.699 101.844L208.283 102.257L208.721 104.816ZM220.488 108.514C219.906 108.614 219.359 108.594 218.848 108.456C218.335 108.314 217.903 108.058 217.553 107.687C217.201 107.312 216.975 106.826 216.872 106.228C216.782 105.702 216.813 105.257 216.964 104.895C217.115 104.529 217.348 104.222 217.662 103.975C217.977 103.729 218.336 103.524 218.739 103.361C219.145 103.193 219.557 103.044 219.974 102.915C220.519 102.748 220.963 102.617 221.303 102.522C221.647 102.422 221.891 102.312 222.035 102.193C222.183 102.074 222.237 101.9 222.198 101.673L222.19 101.625C222.089 101.035 221.849 100.605 221.47 100.333C221.096 100.061 220.583 99.9801 219.934 100.091C219.26 100.206 218.757 100.444 218.425 100.805C218.093 101.165 217.877 101.526 217.779 101.888L216.358 101.638C216.502 101.039 216.746 100.55 217.092 100.171C217.44 99.7875 217.841 99.4932 218.295 99.2885C218.751 99.0791 219.211 98.9348 219.673 98.8557C219.968 98.8052 220.313 98.7831 220.708 98.7894C221.106 98.791 221.503 98.8688 221.899 99.0227C222.298 99.1759 222.655 99.4492 222.968 99.8428C223.282 100.236 223.501 100.798 223.626 101.527L224.661 107.579L223.25 107.82L223.037 106.576L222.965 106.589C222.904 106.804 222.781 107.045 222.596 107.31C222.412 107.576 222.148 107.82 221.805 108.043C221.461 108.265 221.022 108.423 220.488 108.514ZM220.487 107.21C221.045 107.114 221.496 106.924 221.842 106.639C222.191 106.354 222.433 106.021 222.569 105.641C222.709 105.26 222.747 104.878 222.681 104.495L222.46 103.204C222.413 103.286 222.292 103.374 222.099 103.469C221.909 103.559 221.687 103.648 221.431 103.737C221.179 103.821 220.932 103.9 220.69 103.974C220.452 104.044 220.259 104.102 220.111 104.147C219.752 104.258 219.422 104.394 219.122 104.557C218.825 104.714 218.597 104.915 218.437 105.16C218.282 105.4 218.234 105.699 218.296 106.058C218.38 106.548 218.624 106.888 219.03 107.077C219.439 107.262 219.925 107.306 220.487 107.21Z"
      fill="#0070FF" />
  </g>
  <defs>
    <filter id="filter0_d_58_11410" x="-3.34039" y="-2.71024" width="359.427" height="193.452"
      filterUnits="userSpaceOnUse" color-interpolation-filters="sRGB">
      <feFlood flood-opacity="0" result="BackgroundImageFix" />
      <feColorMatrix in="SourceAlpha" type="matrix"
        values="0 0 0 0 0 0 0 0 0 0 0 0 0 0 0 0 0 0 127 0" result="hardAlpha" />
      <feOffset dy="6.63015" />
      <feGaussianBlur stdDeviation="8.67019" />
      <feComposite in2="hardAlpha" operator="out" />
      <feColorMatrix type="matrix"
        values="0 0 0 0 0.439216 0 0 0 0 0.564706 0 0 0 0 0.690196 0 0 0 0.26 0" />
      <feBlend mode="normal" in2="BackgroundImageFix" result="effect1_dropShadow_58_11410" />
      <feBlend mode="normal" in="SourceGraphic" in2="effect1_dropShadow_58_11410" result="shape" />
    </filter>
    <clipPath id="clip0_58_11410">
      <rect width="37.6365" height="37.6365" fill="white"
        transform="translate(33.0344 72.4695) rotate(-8.75161)" />
    </clipPath>
    <clipPath id="clip1_58_11410">
      <rect width="37.6365" height="37.6365" fill="white"
        transform="translate(74.8826 66.0272) rotate(-8.75161)" />
    </clipPath>
    <clipPath id="clip2_58_11410">
      <rect width="37.6365" height="37.6365" fill="white"
        transform="translate(116.73 59.585) rotate(-8.75161)" />
    </clipPath>
    <clipPath id="clip3_58_11410">
      <rect width="37.6365" height="37.6365" fill="white"
        transform="translate(158.579 53.1428) rotate(-8.75161)" />
    </clipPath>
    <clipPath id="clip4_58_11410">
      <rect width="37.6365" height="37.6365" fill="white"
        transform="translate(200.427 46.7006) rotate(-8.75161)" />
    </clipPath>
  </defs>
</svg>
  