<svg width="208" height="41" viewBox="0 0 208 41" fill="none" xmlns="http://www.w3.org/2000/svg">
  <path d="M15.5783 15.109H13.0423V4.54987H15.6657V10.4962L18.9231 4.54987H21.6121V15.109H18.9668V8.92218L15.5783 15.109ZM34.8821 4.54987H37.5054V12.8135H38.686V17.798H36.0407V15.109H24.1917V4.54987H26.8151V12.8135H29.526V4.54987H32.1712V12.8135H34.8821V4.54987ZM42.9369 15.109H40.4009V4.54987H43.0243V10.4962L46.2817 4.54987H48.9706V15.109H46.3254V8.92218L42.9369 15.109ZM55.704 15.109H53.0588V6.84533H50.7414V4.54987H58.0432V6.84533H55.704V15.109ZM64.1685 15.3713C62.682 15.3713 61.4869 14.8612 60.5832 13.841C59.6942 12.8208 59.2497 11.48 59.2497 9.81851C59.2497 8.24447 59.6796 6.93278 60.5395 5.88342C61.3994 4.81949 62.5435 4.28753 63.9718 4.28753C65.4001 4.28753 66.515 4.81221 67.3166 5.86156C68.1182 6.89634 68.519 8.25176 68.519 9.92781V10.6711H61.8949C61.9532 11.429 62.201 12.0484 62.6382 12.5293C63.0755 13.0103 63.6803 13.2508 64.4527 13.2508C64.8462 13.2508 65.2543 13.1633 65.677 12.9884C66.0996 12.799 66.4567 12.5439 66.7482 12.2233L67.9506 13.7973C66.9887 14.8467 65.728 15.3713 64.1685 15.3713ZM65.9831 8.87846C65.9539 8.22261 65.779 7.64692 65.4584 7.15139C65.1377 6.65587 64.6276 6.4081 63.9281 6.4081C63.2576 6.4081 62.7548 6.65587 62.4196 7.15139C62.099 7.64692 61.9241 8.22261 61.8949 8.87846H65.9831ZM80.5751 15.3713C79.4383 15.3713 78.5493 14.8394 77.908 13.7755V19.1315H75.2846V4.54987H77.908V5.88342C78.5785 4.81949 79.4675 4.28753 80.5751 4.28753C81.7702 4.28753 82.7176 4.78306 83.4171 5.77412C84.1313 6.7506 84.4884 8.09873 84.4884 9.81851C84.4884 11.5237 84.1313 12.8791 83.4171 13.8848C82.7176 14.8758 81.7702 15.3713 80.5751 15.3713ZM79.7225 13.054C80.3784 13.054 80.8812 12.7552 81.231 12.1577C81.5953 11.5601 81.7775 10.7804 81.7775 9.81851C81.7775 8.87117 81.5953 8.09873 81.231 7.50118C80.8812 6.90363 80.3784 6.60486 79.7225 6.60486C79.3728 6.60486 79.023 6.72145 78.6732 6.95464C78.338 7.18783 78.0829 7.47932 77.908 7.8291V11.8079C78.0829 12.1577 78.338 12.4565 78.6732 12.7042C79.023 12.9374 79.3728 13.054 79.7225 13.054ZM94.6087 15.109H91.9635V14.0597C91.672 14.4677 91.2712 14.7884 90.7611 15.0216C90.2656 15.2548 89.7409 15.3713 89.1871 15.3713C88.298 15.3713 87.5329 15.058 86.8916 14.4313C86.2503 13.8046 85.9297 12.952 85.9297 11.8735C85.9297 10.7804 86.243 9.9351 86.8697 9.33755C87.511 8.74 88.2835 8.44123 89.1871 8.44123C89.7555 8.44123 90.2874 8.55054 90.783 8.76915C91.2931 8.98777 91.6866 9.29383 91.9635 9.68734V8.31006C91.9635 7.74166 91.7886 7.29714 91.4388 6.9765C91.1036 6.64129 90.6299 6.47369 90.0178 6.47369C89.0559 6.47369 88.1887 6.85262 87.4163 7.61049L86.4325 5.81784C87.4964 4.79763 88.8519 4.28753 90.4988 4.28753C91.7376 4.28753 92.7286 4.59359 93.4719 5.20571C94.2298 5.80326 94.6087 6.74331 94.6087 8.02586V15.109ZM90.1927 13.6006C91.0089 13.6006 91.5991 13.2653 91.9635 12.5949V11.2395C91.5846 10.5545 90.9943 10.212 90.1927 10.212C89.6972 10.212 89.2964 10.3723 88.9903 10.693C88.6988 10.999 88.5531 11.4071 88.5531 11.9172C88.5531 12.4273 88.6988 12.8354 88.9903 13.1415C89.2964 13.4475 89.6972 13.6006 90.1927 13.6006ZM99.8668 12.1358C100.217 12.748 100.727 13.054 101.397 13.054C102.068 13.054 102.578 12.748 102.927 12.1358C103.292 11.5091 103.474 10.7294 103.474 9.79665C103.474 8.89303 103.292 8.13517 102.927 7.52304C102.578 6.91092 102.068 6.60486 101.397 6.60486C100.727 6.60486 100.217 6.91092 99.8668 7.52304C99.517 8.13517 99.3421 8.89303 99.3421 9.79665C99.3421 10.7294 99.517 11.5091 99.8668 12.1358ZM101.397 15.3713C99.8668 15.3713 98.6863 14.8175 97.8555 13.7099C97.0394 12.5876 96.6313 11.1302 96.6313 9.33755C96.6313 6.67044 96.9811 4.76848 97.6806 3.63168C98.3948 2.4803 99.6336 1.75159 101.397 1.44552C102.578 1.24148 103.168 0.935419 103.168 0.527336H105.835C105.835 2.0285 104.603 2.98312 102.14 3.3912C100.202 3.71184 99.1235 4.52072 98.9049 5.81784C99.6044 4.79763 100.61 4.28753 101.922 4.28753C103.248 4.28753 104.29 4.81949 105.048 5.88342C105.806 6.94735 106.185 8.25176 106.185 9.79665C106.185 11.3561 105.762 12.6751 104.917 13.7536C104.086 14.8321 102.913 15.3713 101.397 15.3713ZM112.482 15.3713C110.996 15.3713 109.83 14.8394 108.985 13.7755C108.139 12.6969 107.717 11.378 107.717 9.81851C107.717 8.25905 108.139 6.94735 108.985 5.88342C109.83 4.81949 110.996 4.28753 112.482 4.28753C113.984 4.28753 115.157 4.81949 116.002 5.88342C116.847 6.94735 117.27 8.25905 117.27 9.81851C117.27 11.3925 116.847 12.7115 116.002 13.7755C115.157 14.8394 113.984 15.3713 112.482 15.3713ZM112.482 13.054C113.167 13.054 113.685 12.748 114.035 12.1358C114.384 11.5237 114.559 10.7513 114.559 9.81851C114.559 8.88575 114.384 8.12059 114.035 7.52304C113.685 6.91092 113.167 6.60486 112.482 6.60486C111.812 6.60486 111.302 6.91092 110.952 7.52304C110.617 8.13517 110.449 8.90032 110.449 9.81851C110.449 10.7513 110.617 11.5237 110.952 12.1358C111.302 12.748 111.812 13.054 112.482 13.054ZM123.46 15.109H120.814V6.84533H118.497V4.54987H125.799V6.84533H123.46V15.109ZM127.311 19.2408L127.705 16.9235C127.909 17.0255 128.135 17.0766 128.382 17.0766C128.965 17.0766 129.352 16.8215 129.541 16.3114L129.891 15.3058L126.327 4.54987H129.126L131.246 11.9391L133.389 4.54987H136.187L132.055 16.9017C131.749 17.8344 131.319 18.4757 130.765 18.8255C130.212 19.1898 129.483 19.3793 128.579 19.3939C128.069 19.3939 127.646 19.3429 127.311 19.2408ZM17.3272 36.3713C15.8843 36.3713 14.7184 35.854 13.8294 34.8192C12.9403 33.7844 12.4958 32.4508 12.4958 30.8185C12.4958 29.2008 12.9403 27.8745 13.8294 26.8397C14.7184 25.8049 15.8843 25.2875 17.3272 25.2875C18.7846 25.2875 19.9069 25.7612 20.6939 26.7085L19.3822 28.523C18.8867 27.9109 18.2964 27.6049 17.6114 27.6049C16.8681 27.6049 16.2779 27.9109 15.8406 28.523C15.418 29.1206 15.2066 29.8857 15.2066 30.8185C15.2066 31.7658 15.418 32.5456 15.8406 33.1577C16.2779 33.7552 16.8681 34.054 17.6114 34.054C18.2964 34.054 18.8867 33.748 19.3822 33.1358L20.6939 34.9503C19.9069 35.8977 18.7846 36.3713 17.3272 36.3713ZM27.9716 36.109H22.4625V25.5499H27.8185C28.8825 25.5499 29.6841 25.8049 30.2233 26.315C30.7771 26.8251 31.0541 27.4737 31.0541 28.2607C31.0541 28.8728 30.8865 29.3902 30.5512 29.8129C30.216 30.221 29.7788 30.4979 29.2395 30.6436C29.8371 30.7748 30.3253 31.0808 30.7043 31.5618C31.0832 32.0428 31.2727 32.6039 31.2727 33.2451C31.2727 34.0905 30.9958 34.7827 30.4419 35.322C29.8881 35.8467 29.0647 36.109 27.9716 36.109ZM27.3595 33.9884C28.1756 33.9884 28.5837 33.6241 28.5837 32.8954C28.5837 32.5747 28.4744 32.3124 28.2558 32.1083C28.0517 31.8897 27.753 31.7804 27.3595 31.7804H25.0858V33.9884H27.3595ZM27.272 29.6598C28.0153 29.6598 28.3869 29.3319 28.3869 28.6761C28.3869 28.37 28.2922 28.1295 28.1027 27.9546C27.9133 27.7652 27.6364 27.6704 27.272 27.6704H25.0858V29.6598H27.272ZM41.7652 36.109H39.12V35.0597C38.8285 35.4677 38.4277 35.7884 37.9176 36.0216C37.422 36.2548 36.8974 36.3713 36.3435 36.3713C35.4545 36.3713 34.6893 36.058 34.0481 35.4313C33.4068 34.8046 33.0862 33.952 33.0862 32.8735C33.0862 31.7804 33.3995 30.9351 34.0262 30.3376C34.6675 29.74 35.4399 29.4412 36.3435 29.4412C36.9119 29.4412 37.4439 29.5505 37.9394 29.7692C38.4495 29.9878 38.843 30.2938 39.12 30.6873V29.3101C39.12 28.7417 38.9451 28.2971 38.5953 27.9765C38.2601 27.6413 37.7864 27.4737 37.1743 27.4737C36.2124 27.4737 35.3452 27.8526 34.5727 28.6105L33.589 26.8178C34.6529 25.7976 36.0083 25.2875 37.6552 25.2875C38.8941 25.2875 39.8851 25.5936 40.6284 26.2057C41.3863 26.8033 41.7652 27.7433 41.7652 29.0259V36.109ZM37.3492 34.6006C38.1653 34.6006 38.7556 34.2653 39.12 33.5949V32.2395C38.741 31.5545 38.1508 31.212 37.3492 31.212C36.8536 31.212 36.4528 31.3723 36.1468 31.693C35.8553 31.999 35.7096 32.4071 35.7096 32.9172C35.7096 33.4273 35.8553 33.8354 36.1468 34.1415C36.4528 34.4475 36.8536 34.6006 37.3492 34.6006ZM49.6248 36.3713C48.488 36.3713 47.5989 35.8394 46.9577 34.7755V40.1315H44.3343V25.5499H46.9577V26.8834C47.6281 25.8195 48.5171 25.2875 49.6248 25.2875C50.8199 25.2875 51.7672 25.7831 52.4668 26.7741C53.1809 27.7506 53.538 29.0987 53.538 30.8185C53.538 32.5237 53.1809 33.8791 52.4668 34.8848C51.7672 35.8758 50.8199 36.3713 49.6248 36.3713ZM48.7722 34.054C49.428 34.054 49.9308 33.7552 50.2806 33.1577C50.645 32.5601 50.8272 31.7804 50.8272 30.8185C50.8272 29.8712 50.645 29.0987 50.2806 28.5012C49.9308 27.9036 49.428 27.6049 48.7722 27.6049C48.4224 27.6049 48.0726 27.7215 47.7228 27.9546C47.3876 28.1878 47.1326 28.4793 46.9577 28.8291V32.8079C47.1326 33.1577 47.3876 33.4565 47.7228 33.7042C48.0726 33.9374 48.4224 34.054 48.7722 34.054ZM66.238 25.5499H68.8614V33.8135H70.042V38.798H67.3967V36.109H55.5477V25.5499H58.1711V33.8135H60.882V25.5499H63.5272V33.8135H66.238V25.5499ZM74.2928 36.109H71.7569V25.5499H74.3803V31.4962L77.6377 25.5499H80.3266V36.109H77.6814V29.9222L74.2928 36.109ZM91.9133 36.109H88.8308L86.6446 31.9772L85.5297 33.5293V36.109H82.9063V25.5499H85.5297V30.3376L88.7433 25.5499H91.804L88.4591 30.2938L91.9133 36.109ZM97.3997 36.3713C95.9131 36.3713 94.7471 35.8394 93.9018 34.7755C93.0565 33.6969 92.6338 32.378 92.6338 30.8185C92.6338 29.259 93.0565 27.9474 93.9018 26.8834C94.7471 25.8195 95.9131 25.2875 97.3997 25.2875C98.9008 25.2875 100.074 25.8195 100.919 26.8834C101.765 27.9474 102.187 29.259 102.187 30.8185C102.187 32.3925 101.765 33.7115 100.919 34.7755C100.074 35.8394 98.9008 36.3713 97.3997 36.3713ZM97.3997 34.054C98.0847 34.054 98.6021 33.748 98.9518 33.1358C99.3016 32.5237 99.4765 31.7513 99.4765 30.8185C99.4765 29.8857 99.3016 29.1206 98.9518 28.523C98.6021 27.9109 98.0847 27.6049 97.3997 27.6049C96.7293 27.6049 96.2191 27.9109 95.8694 28.523C95.5342 29.1352 95.3665 29.9003 95.3665 30.8185C95.3665 31.7513 95.5342 32.5237 95.8694 33.1358C96.2191 33.748 96.7293 34.054 97.3997 34.054ZM115.285 36.109H112.683V29.7036L110.322 36.109H109.186L106.846 29.7036V36.109H104.223V25.5499H107.59L109.754 31.4306L111.94 25.5499H115.285V36.109ZM125.302 36.109H122.679V25.5499H125.302V29.485H128.603V25.5499H131.249V36.109H128.603V31.7804H125.302V36.109ZM141.939 36.109H139.294V35.0597C139.002 35.4677 138.602 35.7884 138.091 36.0216C137.596 36.2548 137.071 36.3713 136.517 36.3713C135.628 36.3713 134.863 36.058 134.222 35.4313C133.581 34.8046 133.26 33.952 133.26 32.8735C133.26 31.7804 133.573 30.9351 134.2 30.3376C134.841 29.74 135.614 29.4412 136.517 29.4412C137.086 29.4412 137.618 29.5505 138.113 29.7692C138.623 29.9878 139.017 30.2938 139.294 30.6873V29.3101C139.294 28.7417 139.119 28.2971 138.769 27.9765C138.434 27.6413 137.96 27.4737 137.348 27.4737C136.386 27.4737 135.519 27.8526 134.747 28.6105L133.763 26.8178C134.827 25.7976 136.182 25.2875 137.829 25.2875C139.068 25.2875 140.059 25.5936 140.802 26.2057C141.56 26.8033 141.939 27.7433 141.939 29.0259V36.109ZM137.523 34.6006C138.339 34.6006 138.929 34.2653 139.294 33.5949V32.2395C138.915 31.5545 138.325 31.212 137.523 31.212C137.027 31.212 136.627 31.3723 136.321 31.693C136.029 31.999 135.883 32.4071 135.883 32.9172C135.883 33.4273 136.029 33.8354 136.321 34.1415C136.627 34.4475 137.027 34.6006 137.523 34.6006ZM157.887 36.109H155.263V29.1133C155.263 28.1077 154.797 27.6049 153.864 27.6049C153.471 27.6049 153.106 27.736 152.771 27.9984C152.436 28.2461 152.166 28.5522 151.962 28.9165V36.109H149.317V21.5273H151.962V26.9271C152.254 26.4753 152.676 26.0891 153.23 25.7685C153.798 25.4478 154.403 25.2875 155.045 25.2875C156.939 25.2875 157.887 26.2349 157.887 28.1295V36.109ZM169.036 36.109H166.413V29.1133C166.413 28.1077 165.946 27.6049 165.013 27.6049C164.62 27.6049 164.256 27.736 163.92 27.9984C163.585 28.2461 163.316 28.5522 163.111 28.9165V36.109H160.466V21.5273H163.111V26.9271C163.403 26.4753 163.826 26.0891 164.379 25.7685C164.948 25.4478 165.553 25.2875 166.194 25.2875C168.089 25.2875 169.036 26.2349 169.036 28.1295V36.109ZM174.37 35.8685C174.05 36.1892 173.656 36.3495 173.19 36.3495C172.723 36.3495 172.322 36.1819 171.987 35.8467C171.652 35.5115 171.484 35.118 171.484 34.6661C171.484 34.1998 171.652 33.799 171.987 33.4638C172.322 33.1285 172.723 32.9609 173.19 32.9609C173.641 32.9609 174.035 33.1285 174.37 33.4638C174.705 33.799 174.873 34.1998 174.873 34.6661C174.873 35.1325 174.705 35.5333 174.37 35.8685ZM179.966 36.109H177.342V25.5499H179.966V26.9927C180.272 26.5118 180.687 26.111 181.212 25.7903C181.751 25.4551 182.298 25.2875 182.851 25.2875V27.8672C182.677 27.8235 182.465 27.8016 182.217 27.8016C181.795 27.8016 181.365 27.9255 180.928 28.1733C180.505 28.4064 180.184 28.7052 179.966 29.0696V36.109ZM193.111 36.109H190.488V34.7755C190.182 35.2273 189.752 35.6062 189.198 35.9123C188.644 36.2183 188.039 36.3713 187.384 36.3713C185.504 36.3713 184.563 35.424 184.563 33.5293V25.5499H187.187V32.5237C187.187 33.5439 187.653 34.054 188.586 34.054C189.373 34.054 190.007 33.6241 190.488 32.7642V25.5499H193.111V36.109ZM203.409 30.7966L200.676 34.7317H198.446L201.179 30.7966L198.446 26.9271H200.676L203.409 30.7966ZM207.103 30.7966L204.371 34.7317H202.119L204.852 30.7966L202.119 26.9271H204.371L207.103 30.7966Z" fill="white"/>
  <path d="M9.33256 13.7516H7.08082L4.34812 9.81654L7.08082 5.94704H9.33256L6.59987 9.81654L9.33256 13.7516ZM5.63796 13.7516H3.40808L0.675379 9.81654L3.40808 5.94704H5.63796L2.90526 9.81654L5.63796 13.7516Z" fill="white"/>
  </svg>
  