<svg width="229" height="80" viewBox="0 0 229 80" fill="none" xmlns="http://www.w3.org/2000/svg">
  <path d="M229 0.00012207L19.5903 0.00019837C12.733 0.000200868 9.30441 0.000202117 6.68529 1.33471C4.38145 2.50858 2.50837 4.38166 1.3345 6.6855C-8.17809e-06 9.30462 -8.17809e-06 12.7332 -8.17809e-06 19.5905V60.0224C-8.17809e-06 66.8797 -8.17809e-06 70.3083 1.3345 72.9274C2.50837 75.2312 4.38145 77.1043 6.68529 78.2782C9.30441 79.6127 12.733 79.6127 19.5903 79.6127H209.41C216.267 79.6127 219.696 79.6127 222.315 78.2782C224.619 77.1043 226.492 75.2312 227.665 72.9274C229 70.3083 229 66.8796 229 60.0224L229 0.00012207Z" fill="#D6001C"/>
  </svg>
  