<svg width="132" height="54" viewBox="0 0 132 54" fill="none" xmlns="http://www.w3.org/2000/svg">
  <path d="M8.83837 12.5098H6.68935L4.08132 8.7542L6.68935 5.06123H8.83837L6.23034 8.7542L8.83837 12.5098ZM5.31231 12.5098H3.18415L0.576123 8.7542L3.18415 5.06123H5.31231L2.70428 8.7542L5.31231 12.5098Z" fill="white"/>
  <path d="M16.4474 14.8242H14.0272V4.74678H16.5309V10.4219L19.6397 4.74678H22.206V14.8242H19.6814V8.91963L16.4474 14.8242ZM34.8706 4.74678H37.3743V12.6335H38.501V17.3905H35.9764V14.8242H24.668V4.74678H27.1717V12.6335H29.7588V4.74678H32.2834V12.6335H34.8706V4.74678ZM42.5579 14.8242H40.1377V4.74678H42.6414V10.4219L45.7501 4.74678H48.3164V14.8242H45.7919V8.91963L42.5579 14.8242ZM54.7426 14.8242H52.2181V6.93753H50.0064V4.74678H56.9751V6.93753H54.7426V14.8242ZM62.821 15.0746C61.4022 15.0746 60.2617 14.5878 59.3993 13.6141C58.5508 12.6404 58.1266 11.3608 58.1266 9.77507C58.1266 8.27284 58.5369 7.02099 59.3575 6.0195C60.1782 5.00411 61.2701 4.49641 62.6332 4.49641C63.9964 4.49641 65.0604 4.99715 65.8255 5.99864C66.5905 6.98621 66.973 8.2798 66.973 9.87939V10.5888H60.6511C60.7068 11.3121 60.9432 11.9032 61.3605 12.3622C61.7778 12.8213 62.355 13.0508 63.0922 13.0508C63.4678 13.0508 63.8573 12.9673 64.2606 12.8004C64.664 12.6196 65.0048 12.3761 65.283 12.0701L66.4305 13.5724C65.5125 14.5738 64.3093 15.0746 62.821 15.0746ZM64.5527 8.87791C64.5249 8.25198 64.358 7.70255 64.052 7.22963C63.746 6.75671 63.2592 6.52024 62.5915 6.52024C61.9517 6.52024 61.4718 6.75671 61.1519 7.22963C60.8459 7.70255 60.6789 8.25198 60.6511 8.87791H64.5527ZM78.4791 15.0746C77.3942 15.0746 76.5457 14.5669 75.9337 13.5515V18.6632H73.43V4.74678H75.9337V6.0195C76.5735 5.00411 77.422 4.49641 78.4791 4.49641C79.6197 4.49641 80.5238 4.96934 81.1915 5.91518C81.8731 6.84712 82.2138 8.13375 82.2138 9.77507C82.2138 11.4025 81.8731 12.6961 81.1915 13.6558C80.5238 14.6017 79.6197 15.0746 78.4791 15.0746ZM77.6654 12.863C78.2914 12.863 78.7712 12.5778 79.1051 12.0075C79.4528 11.4373 79.6267 10.6931 79.6267 9.77507C79.6267 8.87095 79.4528 8.13375 79.1051 7.56346C78.7712 6.99317 78.2914 6.70802 77.6654 6.70802C77.3316 6.70802 76.9978 6.8193 76.664 7.04185C76.344 7.2644 76.1006 7.54259 75.9337 7.87642V11.6737C76.1006 12.0075 76.344 12.2927 76.664 12.5292C76.9978 12.7517 77.3316 12.863 77.6654 12.863ZM91.8725 14.8242H89.348V13.8227C89.0698 14.2122 88.6873 14.5182 88.2004 14.7408C87.7275 14.9633 87.2268 15.0746 86.6982 15.0746C85.8497 15.0746 85.1195 14.7755 84.5074 14.1774C83.8954 13.5793 83.5894 12.7656 83.5894 11.7363C83.5894 10.6931 83.8885 9.88635 84.4866 9.31606C85.0986 8.74577 85.8358 8.46062 86.6982 8.46062C87.2407 8.46062 87.7484 8.56494 88.2213 8.77358C88.7081 8.98223 89.0837 9.27433 89.348 9.64988V8.33544C89.348 7.79296 89.181 7.36872 88.8472 7.06272C88.5273 6.7428 88.0752 6.58284 87.491 6.58284C86.573 6.58284 85.7454 6.94449 85.0082 7.66778L84.0693 5.95691C85.0847 4.98325 86.3783 4.49641 87.95 4.49641C89.1324 4.49641 90.0782 4.78851 90.7876 5.37271C91.5109 5.943 91.8725 6.84016 91.8725 8.0642V14.8242ZM87.6579 13.3846C88.4369 13.3846 89.0002 13.0647 89.348 12.4248V11.1312C88.9863 10.4775 88.423 10.1506 87.6579 10.1506C87.185 10.1506 86.8025 10.3036 86.5104 10.6096C86.2322 10.9017 86.0931 11.2912 86.0931 11.778C86.0931 12.2649 86.2322 12.6543 86.5104 12.9464C86.8025 13.2385 87.185 13.3846 87.6579 13.3846ZM96.8907 11.9867C97.2245 12.5709 97.7114 12.863 98.3512 12.863C98.991 12.863 99.4779 12.5709 99.8117 11.9867C100.159 11.3886 100.333 10.6444 100.333 9.7542C100.333 8.89182 100.159 8.16852 99.8117 7.58432C99.4779 7.00012 98.991 6.70802 98.3512 6.70802C97.7114 6.70802 97.2245 7.00012 96.8907 7.58432C96.5569 8.16852 96.39 8.89182 96.39 9.7542C96.39 10.6444 96.5569 11.3886 96.8907 11.9867ZM98.3512 15.0746C96.8907 15.0746 95.764 14.546 94.9712 13.4889C94.1923 12.4179 93.8028 11.0269 93.8028 9.31606C93.8028 6.77062 94.1366 4.95543 94.8043 3.87048C95.4859 2.77163 96.6682 2.07616 98.3512 1.78406C99.4779 1.58933 100.041 1.29723 100.041 0.90776H102.587C102.587 2.34044 101.411 3.25151 99.0606 3.64098C97.2106 3.94699 96.1813 4.71897 95.9727 5.95691C96.6403 4.98325 97.6001 4.49641 98.852 4.49641C100.118 4.49641 101.112 5.00411 101.836 6.0195C102.559 7.0349 102.92 8.2798 102.92 9.7542C102.92 11.2425 102.517 12.5013 101.71 13.5306C100.918 14.5599 99.7978 15.0746 98.3512 15.0746ZM108.931 15.0746C107.512 15.0746 106.399 14.5669 105.593 13.5515C104.786 12.5222 104.382 11.2634 104.382 9.77507C104.382 8.28675 104.786 7.0349 105.593 6.0195C106.399 5.00411 107.512 4.49641 108.931 4.49641C110.364 4.49641 111.483 5.00411 112.29 6.0195C113.097 7.0349 113.5 8.28675 113.5 9.77507C113.5 11.2773 113.097 12.5361 112.29 13.5515C111.483 14.5669 110.364 15.0746 108.931 15.0746ZM108.931 12.863C109.585 12.863 110.078 12.5709 110.412 11.9867C110.746 11.4025 110.913 10.6653 110.913 9.77507C110.913 8.88486 110.746 8.15461 110.412 7.58432C110.078 7.00012 109.585 6.70802 108.931 6.70802C108.291 6.70802 107.804 7.00012 107.47 7.58432C107.15 8.16852 106.99 8.89877 106.99 9.77507C106.99 10.6653 107.15 11.4025 107.47 11.9867C107.804 12.5709 108.291 12.863 108.931 12.863ZM119.407 14.8242H116.883V6.93753H114.671V4.74678H121.64V6.93753H119.407V14.8242ZM123.083 18.7676L123.459 16.556C123.653 16.6533 123.869 16.702 124.106 16.702C124.662 16.702 125.03 16.4586 125.211 15.9718L125.545 15.012L122.144 4.74678H124.815L126.839 11.7989L128.883 4.74678H131.554L127.611 16.5351C127.319 17.4253 126.908 18.0373 126.38 18.3711C125.851 18.7189 125.156 18.8997 124.293 18.9136C123.806 18.9136 123.403 18.8649 123.083 18.7676ZM24.5845 33.8242H22.1016V27.711L19.8483 33.8242H18.7634L16.5309 27.711V33.8242H14.0272V23.7468H17.2403L19.3058 29.3593L21.3923 23.7468H24.5845V33.8242ZM34.7925 33.8242H32.2679V32.8227C31.9897 33.2122 31.6072 33.5182 31.1204 33.7408C30.6475 33.9633 30.1467 34.0746 29.6182 34.0746C28.7697 34.0746 28.0394 33.7755 27.4274 33.1774C26.8154 32.5793 26.5094 31.7656 26.5094 30.7363C26.5094 29.6931 26.8084 28.8863 27.4065 28.3161C28.0186 27.7458 28.7558 27.4606 29.6182 27.4606C30.1606 27.4606 30.6683 27.5649 31.1413 27.7736C31.6281 27.9822 32.0036 28.2743 32.2679 28.6499V27.3354C32.2679 26.793 32.101 26.3687 31.7672 26.0627C31.4473 25.7428 30.9952 25.5828 30.411 25.5828C29.493 25.5828 28.6654 25.9445 27.9282 26.6678L26.9893 24.9569C28.0047 23.9832 29.2982 23.4964 30.87 23.4964C32.0523 23.4964 32.9982 23.7885 33.7076 24.3727C34.4308 24.943 34.7925 25.8402 34.7925 27.0642V33.8242ZM30.5779 32.3846C31.3568 32.3846 31.9202 32.0647 32.2679 31.4248V30.1312C31.9063 29.4775 31.3429 29.1506 30.5779 29.1506C30.105 29.1506 29.7225 29.3036 29.4304 29.6096C29.1522 29.9017 29.0131 30.2912 29.0131 30.778C29.0131 31.2649 29.1522 31.6543 29.4304 31.9464C29.7225 32.2385 30.105 32.3846 30.5779 32.3846ZM47.447 23.7468H49.9507V33.8242H37.2444V23.7468H39.7481V31.6335H42.3352V23.7468H44.8598V31.6335H47.447V23.7468ZM54.8287 33.8242H52.4084V23.7468H54.9122V29.4219L58.0209 23.7468H60.5872V33.8242H58.0627V27.9196L54.8287 33.8242ZM65.5529 33.8242H63.0492V23.7468H65.5529V27.5023H68.7034V23.7468H71.228V33.8242H68.7034V29.6931H65.5529V33.8242ZM76.1102 33.8242H73.69V23.7468H76.1937V29.4219L79.3025 23.7468H81.8688V33.8242H79.3442V27.9196L76.1102 33.8242ZM88.4201 34.0746C87.0431 34.0746 85.9303 33.5808 85.0819 32.5932C84.2334 31.6057 83.8091 30.3329 83.8091 28.7751C83.8091 27.2311 84.2334 25.9653 85.0819 24.9778C85.9303 23.9902 87.0431 23.4964 88.4201 23.4964C89.8111 23.4964 90.8821 23.9485 91.6332 24.8526L90.3814 26.5843C89.9085 26.0001 89.3451 25.708 88.6914 25.708C87.982 25.708 87.4187 26.0001 87.0014 26.5843C86.598 27.1546 86.3963 27.8849 86.3963 28.7751C86.3963 29.6792 86.598 30.4233 87.0014 31.0075C87.4187 31.5778 87.982 31.863 88.6914 31.863C89.3451 31.863 89.9085 31.5709 90.3814 30.9867L91.6332 32.7184C90.8821 33.6225 89.8111 34.0746 88.4201 34.0746ZM97.2853 33.8242H94.7608V25.9375H92.5492V23.7468H99.5178V25.9375H97.2853V33.8242ZM105.218 34.0746C103.799 34.0746 102.686 33.5669 101.879 32.5515C101.073 31.5222 100.669 30.2634 100.669 28.7751C100.669 27.2868 101.073 26.0349 101.879 25.0195C102.686 24.0041 103.799 23.4964 105.218 23.4964C106.65 23.4964 107.77 24.0041 108.577 25.0195C109.384 26.0349 109.787 27.2868 109.787 28.7751C109.787 30.2773 109.384 31.5361 108.577 32.5515C107.77 33.5669 106.65 34.0746 105.218 34.0746ZM105.218 31.863C105.871 31.863 106.365 31.5709 106.699 30.9867C107.033 30.4025 107.2 29.6653 107.2 28.7751C107.2 27.8849 107.033 27.1546 106.699 26.5843C106.365 26.0001 105.871 25.708 105.218 25.708C104.578 25.708 104.091 26.0001 103.757 26.5843C103.437 27.1685 103.277 27.8988 103.277 28.7751C103.277 29.6653 103.437 30.4025 103.757 30.9867C104.091 31.5709 104.578 31.863 105.218 31.863ZM122.287 33.8242H119.804V27.711L117.551 33.8242H116.466L114.233 27.711V33.8242H111.73V23.7468H114.943L117.008 29.3593L119.095 23.7468H122.287V33.8242ZM16.5309 52.8242H14.0272V42.7468H16.5309V46.5023H19.6814V42.7468H22.206V52.8242H19.6814V48.6931H16.5309V52.8242ZM32.4086 52.8242H29.884V51.8227C29.6058 52.2122 29.2233 52.5182 28.7365 52.7408C28.2636 52.9633 27.7628 53.0746 27.2343 53.0746C26.3858 53.0746 25.6555 52.7755 25.0435 52.1774C24.4315 51.5793 24.1255 50.7656 24.1255 49.7363C24.1255 48.6931 24.4245 47.8863 25.0226 47.3161C25.6347 46.7458 26.3719 46.4606 27.2343 46.4606C27.7767 46.4606 28.2844 46.5649 28.7573 46.7736C29.2442 46.9822 29.6197 47.2743 29.884 47.6499V46.3354C29.884 45.793 29.7171 45.3687 29.3833 45.0627C29.0634 44.7428 28.6113 44.5828 28.0271 44.5828C27.1091 44.5828 26.2815 44.9445 25.5443 45.6678L24.6054 43.9569C25.6208 42.9832 26.9143 42.4964 28.4861 42.4964C29.6684 42.4964 30.6143 42.7885 31.3236 43.3727C32.0469 43.943 32.4086 44.8402 32.4086 46.0642V52.8242ZM28.194 51.3846C28.9729 51.3846 29.5363 51.0647 29.884 50.4248V49.1312C29.5224 48.4775 28.959 48.1506 28.194 48.1506C27.7211 48.1506 27.3386 48.3036 27.0465 48.6096C26.7683 48.9017 26.6292 49.2912 26.6292 49.778C26.6292 50.2649 26.7683 50.6543 27.0465 50.9464C27.3386 51.2385 27.7211 51.3846 28.194 51.3846ZM47.6286 52.8242H45.1249V46.1477C45.1249 45.1879 44.6798 44.708 43.7896 44.708C43.414 44.708 43.0663 44.8332 42.7463 45.0836C42.4264 45.32 42.1691 45.6121 41.9744 45.9599V52.8242H39.4498V38.9078H41.9744V44.0612C42.2526 43.63 42.6559 43.2614 43.1845 42.9554C43.727 42.6494 44.3042 42.4964 44.9162 42.4964C46.7245 42.4964 47.6286 43.4005 47.6286 45.2088V52.8242ZM58.2693 52.8242H55.7656V46.1477C55.7656 45.1879 55.3205 44.708 54.4303 44.708C54.0548 44.708 53.707 44.8332 53.3871 45.0836C53.0672 45.32 52.8099 45.6121 52.6151 45.9599V52.8242H50.0906V38.9078H52.6151V44.0612C52.8933 43.63 53.2967 43.2614 53.8253 42.9554C54.3677 42.6494 54.945 42.4964 55.557 42.4964C57.3652 42.4964 58.2693 43.4005 58.2693 45.2088V52.8242ZM63.3602 52.5947C63.0542 52.9007 62.6787 53.0537 62.2336 53.0537C61.7884 53.0537 61.4059 52.8938 61.086 52.5738C60.7661 52.2539 60.6061 51.8784 60.6061 51.4472C60.6061 51.0021 60.7661 50.6196 61.086 50.2996C61.4059 49.9797 61.7884 49.8198 62.2336 49.8198C62.6647 49.8198 63.0403 49.9797 63.3602 50.2996C63.6801 50.6196 63.8401 51.0021 63.8401 51.4472C63.8401 51.8923 63.6801 52.2748 63.3602 52.5947ZM68.7005 52.8242H66.1968V42.7468H68.7005V44.1238C68.9926 43.6648 69.389 43.2823 69.8898 42.9763C70.4044 42.6564 70.926 42.4964 71.4546 42.4964V44.9584C71.2877 44.9167 71.086 44.8958 70.8495 44.8958C70.4461 44.8958 70.0358 45.014 69.6185 45.2505C69.2151 45.473 68.9091 45.7582 68.7005 46.1059V52.8242ZM81.2464 52.8242H78.7427V51.5515C78.4506 51.9827 78.0403 52.3443 77.5117 52.6364C76.9832 52.9285 76.4059 53.0746 75.78 53.0746C73.9857 53.0746 73.0885 52.1705 73.0885 50.3622V42.7468H75.5922V49.4025C75.5922 50.3761 76.0373 50.863 76.9275 50.863C77.6786 50.863 78.2837 50.4526 78.7427 49.632V42.7468H81.2464V52.8242Z" fill="white"/>
  <path d="M86.0304 44.1343L88.1794 44.1343L90.7875 47.8898L88.1794 51.5828L86.0304 51.5828L88.6384 47.8898L86.0304 44.1343ZM89.5565 44.1343L91.6846 44.1343L94.2927 47.8898L91.6846 51.5828L89.5565 51.5828L92.1645 47.8898L89.5565 44.1343Z" fill="white"/>
  </svg>
  