<svg width="166" height="67" viewBox="0 0 166 67" fill="none" xmlns="http://www.w3.org/2000/svg">
  <path d="M10.5171 15.5049H7.80928L4.52307 10.7727L7.80928 6.11947H10.5171L7.23091 10.7727L10.5171 15.5049ZM6.07416 15.5049H3.39262L0.106409 10.7727L3.39262 6.11947H6.07416L2.78795 10.7727L6.07416 15.5049Z" fill="white"/>
  <path d="M20.1047 18.1611H17.0551V5.46322H20.2098V12.614L24.127 5.46322H27.3606V18.1611H24.1796V10.7212L20.1047 18.1611ZM43.3185 5.46322H46.4732V15.4007H47.8929V21.3948H44.7118V18.1611H30.4628V5.46322H33.6176V15.4007H36.8775V5.46322H40.0585V15.4007H43.3185V5.46322ZM53.0048 18.1611H49.9552V5.46322H53.1099V12.614L57.0271 5.46322H60.2607V18.1611H57.0797V10.7212L53.0048 18.1611ZM68.3579 18.1611H65.1769V8.22364H62.3902V5.46322H71.1709V8.22364H68.3579V18.1611ZM78.537 18.4766C76.7493 18.4766 75.3121 17.8632 74.2255 16.6363C73.1563 15.4095 72.6218 13.797 72.6218 11.799C72.6218 9.90618 73.1388 8.3288 74.1729 7.06689C75.2069 5.78746 76.5828 5.14775 78.3004 5.14775C80.0179 5.14775 81.3587 5.7787 82.3227 7.0406C83.2866 8.28498 83.7686 9.91494 83.7686 11.9305V12.8243H75.8028C75.8729 13.7357 76.1709 14.4806 76.6967 15.059C77.2225 15.6373 77.9498 15.9265 78.8787 15.9265C79.3519 15.9265 79.8427 15.8214 80.3509 15.611C80.8592 15.3832 81.2886 15.0765 81.6391 14.6909L83.0851 16.5838C81.9283 17.8457 80.4123 18.4766 78.537 18.4766ZM80.719 10.6686C80.6839 9.87989 80.4736 9.18759 80.088 8.59169C79.7025 7.99579 79.089 7.69784 78.2478 7.69784C77.4416 7.69784 76.8369 7.99579 76.4338 8.59169C76.0482 9.18759 75.8379 9.87989 75.8028 10.6686H80.719ZM98.2667 18.4766C96.8997 18.4766 95.8306 17.8369 95.0594 16.5575V22.9984H91.9046V5.46322H95.0594V7.06689C95.8656 5.78746 96.9347 5.14775 98.2667 5.14775C99.7039 5.14775 100.843 5.74365 101.684 6.93544C102.543 8.10972 102.973 9.73091 102.973 11.799C102.973 13.8496 102.543 15.4796 101.684 16.6889C100.843 17.8807 99.7039 18.4766 98.2667 18.4766ZM97.2414 15.6899C98.0301 15.6899 98.6348 15.3306 99.0554 14.612C99.4936 13.8934 99.7127 12.9558 99.7127 11.799C99.7127 10.6598 99.4936 9.73091 99.0554 9.01233C98.6348 8.29374 98.0301 7.93445 97.2414 7.93445C96.8208 7.93445 96.4002 8.07466 95.9795 8.35509C95.5764 8.63551 95.2697 8.98604 95.0594 9.40667V14.1914C95.2697 14.612 95.5764 14.9713 95.9795 15.2693C96.4002 15.5497 96.8208 15.6899 97.2414 15.6899ZM115.143 18.1611H111.962V16.8992C111.611 17.39 111.129 17.7756 110.516 18.056C109.92 18.3364 109.289 18.4766 108.623 18.4766C107.554 18.4766 106.634 18.0998 105.863 17.3462C105.091 16.5925 104.706 15.5672 104.706 14.2703C104.706 12.9558 105.083 11.9392 105.836 11.2207C106.607 10.5021 107.536 10.1428 108.623 10.1428C109.307 10.1428 109.946 10.2742 110.542 10.5371C111.156 10.8 111.629 11.1681 111.962 11.6413V9.98505C111.962 9.30151 111.751 8.76696 111.331 8.38138C110.928 7.97827 110.358 7.77671 109.622 7.77671C108.465 7.77671 107.422 8.2324 106.494 9.14378L105.311 6.98802C106.59 5.76117 108.22 5.14775 110.2 5.14775C111.69 5.14775 112.882 5.5158 113.776 6.25191C114.687 6.9705 115.143 8.10095 115.143 9.64328V18.1611ZM109.832 16.3471C110.814 16.3471 111.524 15.944 111.962 15.1378V13.5079C111.506 12.6841 110.796 12.2722 109.832 12.2722C109.236 12.2722 108.754 12.465 108.386 12.8506C108.036 13.2187 107.861 13.7094 107.861 14.3228C107.861 14.9363 108.036 15.427 108.386 15.7951C108.754 16.1631 109.236 16.3471 109.832 16.3471ZM121.466 14.5857C121.887 15.3218 122.5 15.6899 123.306 15.6899C124.112 15.6899 124.726 15.3218 125.146 14.5857C125.585 13.8321 125.804 12.8944 125.804 11.7727C125.804 10.6861 125.585 9.77473 125.146 9.03862C124.726 8.30251 124.112 7.93445 123.306 7.93445C122.5 7.93445 121.887 8.30251 121.466 9.03862C121.045 9.77473 120.835 10.6861 120.835 11.7727C120.835 12.8944 121.045 13.8321 121.466 14.5857ZM123.306 18.4766C121.466 18.4766 120.046 17.8106 119.047 16.4786C118.066 15.1291 117.575 13.3764 117.575 11.2207C117.575 8.01332 117.996 5.72612 118.837 4.35906C119.696 2.97447 121.186 2.09815 123.306 1.73009C124.726 1.48472 125.436 1.11666 125.436 0.625923H128.643C128.643 2.43115 127.162 3.57913 124.2 4.06987C121.869 4.45545 120.572 5.42817 120.309 6.98802C121.15 5.76117 122.36 5.14775 123.937 5.14775C125.532 5.14775 126.785 5.78746 127.697 7.06689C128.608 8.34632 129.064 9.91494 129.064 11.7727C129.064 13.6481 128.555 15.2342 127.539 16.5312C126.54 17.8281 125.129 18.4766 123.306 18.4766ZM136.637 18.4766C134.849 18.4766 133.447 17.8369 132.431 16.5575C131.414 15.2605 130.906 13.6744 130.906 11.799C130.906 9.9237 131.414 8.34632 132.431 7.06689C133.447 5.78746 134.849 5.14775 136.637 5.14775C138.442 5.14775 139.853 5.78746 140.87 7.06689C141.886 8.34632 142.394 9.9237 142.394 11.799C142.394 13.6919 141.886 15.278 140.87 16.5575C139.853 17.8369 138.442 18.4766 136.637 18.4766ZM136.637 15.6899C137.461 15.6899 138.083 15.3218 138.503 14.5857C138.924 13.8496 139.134 12.9207 139.134 11.799C139.134 10.6773 138.924 9.7572 138.503 9.03862C138.083 8.30251 137.461 7.93445 136.637 7.93445C135.831 7.93445 135.217 8.30251 134.797 9.03862C134.394 9.77473 134.192 10.6949 134.192 11.799C134.192 12.9207 134.394 13.8496 134.797 14.5857C135.217 15.3218 135.831 15.6899 136.637 15.6899ZM149.837 18.1611H146.656V8.22364H143.87V5.46322H152.65V8.22364H149.837V18.1611ZM154.469 23.1299L154.943 20.3432C155.188 20.4659 155.46 20.5272 155.758 20.5272C156.459 20.5272 156.923 20.2205 157.151 19.6071L157.572 18.3977L153.286 5.46322H156.651L159.201 14.3491L161.778 5.46322H165.143L160.174 20.3169C159.806 21.4386 159.289 22.2097 158.623 22.6304C157.957 23.0685 157.081 23.2964 155.994 23.3139C155.381 23.3139 154.872 23.2526 154.469 23.1299ZM16.7659 47.1299L17.2391 44.3432C17.4845 44.4659 17.7561 44.5272 18.0541 44.5272C18.7551 44.5272 19.2196 44.2205 19.4474 43.6071L19.8681 42.3977L15.5829 29.4632H18.9479L21.498 38.3491L24.0744 29.4632H27.4395L22.4708 44.3169C22.1027 45.4386 21.5857 46.2097 20.9197 46.6304C20.2537 47.0685 19.3773 47.2964 18.2907 47.3139C17.6773 47.3139 17.169 47.2526 16.7659 47.1299ZM32.3101 38.5857C32.7307 39.3218 33.3441 39.6899 34.1503 39.6899C34.9566 39.6899 35.57 39.3218 35.9906 38.5857C36.4288 37.8321 36.6479 36.8944 36.6479 35.7727C36.6479 34.6861 36.4288 33.7747 35.9906 33.0386C35.57 32.3025 34.9566 31.9345 34.1503 31.9345C33.3441 31.9345 32.7307 32.3025 32.3101 33.0386C31.8894 33.7747 31.6791 34.6861 31.6791 35.7727C31.6791 36.8944 31.8894 37.8321 32.3101 38.5857ZM34.1503 42.4766C32.3101 42.4766 30.8904 41.8106 29.8914 40.4786C28.9099 39.1291 28.4192 37.3764 28.4192 35.2207C28.4192 32.0133 28.8398 29.7261 29.6811 28.3591C30.5399 26.9745 32.0296 26.0981 34.1503 25.7301C35.57 25.4847 36.2798 25.1167 36.2798 24.6259H39.4871C39.4871 26.4311 38.0062 27.5791 35.0442 28.0699C32.7132 28.4555 31.4162 29.4282 31.1533 30.988C31.9946 29.7612 33.2039 29.1477 34.7813 29.1477C36.3762 29.1477 37.6293 29.7875 38.5407 31.0669C39.4521 32.3463 39.9078 33.9149 39.9078 35.7727C39.9078 37.6481 39.3995 39.2342 38.383 40.5312C37.384 41.8281 35.9731 42.4766 34.1503 42.4766ZM47.4811 42.4766C45.6934 42.4766 44.2912 41.8369 43.2747 40.5575C42.2582 39.2605 41.7499 37.6744 41.7499 35.799C41.7499 33.9237 42.2582 32.3463 43.2747 31.0669C44.2912 29.7875 45.6934 29.1477 47.4811 29.1477C49.2863 29.1477 50.6972 29.7875 51.7137 31.0669C52.7302 32.3463 53.2385 33.9237 53.2385 35.799C53.2385 37.6919 52.7302 39.278 51.7137 40.5575C50.6972 41.8369 49.2863 42.4766 47.4811 42.4766ZM47.4811 39.6899C48.3048 39.6899 48.927 39.3218 49.3476 38.5857C49.7683 37.8496 49.9786 36.9207 49.9786 35.799C49.9786 34.6773 49.7683 33.7572 49.3476 33.0386C48.927 32.3025 48.3048 31.9345 47.4811 31.9345C46.6748 31.9345 46.0614 32.3025 45.6408 33.0386C45.2377 33.7747 45.0361 34.6949 45.0361 35.799C45.0361 36.9207 45.2377 37.8496 45.6408 38.5857C46.0614 39.3218 46.6748 39.6899 47.4811 39.6899ZM62.0486 42.4766C60.6816 42.4766 59.6124 41.8369 58.8413 40.5575V46.9984H55.6865V29.4632H58.8413V31.0669C59.6475 29.7875 60.7166 29.1477 62.0486 29.1477C63.4858 29.1477 64.625 29.7436 65.4663 30.9354C66.3251 32.1097 66.7545 33.7309 66.7545 35.799C66.7545 37.8496 66.3251 39.4796 65.4663 40.6889C64.625 41.8807 63.4858 42.4766 62.0486 42.4766ZM61.0233 39.6899C61.812 39.6899 62.4167 39.3306 62.8373 38.612C63.2755 37.8934 63.4945 36.9558 63.4945 35.799C63.4945 34.6598 63.2755 33.7309 62.8373 33.0123C62.4167 32.2937 61.812 31.9345 61.0233 31.9345C60.6027 31.9345 60.182 32.0747 59.7614 32.3551C59.3583 32.6355 59.0516 32.986 58.8413 33.4067V38.1914C59.0516 38.612 59.3583 38.9713 59.7614 39.2693C60.182 39.5497 60.6027 39.6899 61.0233 39.6899ZM82.0269 29.4632H85.1817V39.4007H86.6013V45.3948H83.4203V42.1611H69.1713V29.4632H72.326V39.4007H75.5859V29.4632H78.767V39.4007H82.0269V29.4632ZM91.7132 42.1611H88.6636V29.4632H91.8184V36.614L95.7355 29.4632H98.9692V42.1611H95.7881V34.7212L91.7132 42.1611ZM110.537 45.3948V42.1611H102.071V29.4632H105.226V39.4007H109.196V29.4632H112.377V39.4007H113.691V45.3948H110.537ZM120.994 42.4766C119.206 42.4766 117.769 41.8632 116.682 40.6363C115.613 39.4095 115.079 37.797 115.079 35.799C115.079 33.9062 115.596 32.3288 116.63 31.0669C117.664 29.7875 119.04 29.1477 120.757 29.1477C122.475 29.1477 123.816 29.7787 124.779 31.0406C125.743 32.285 126.225 33.9149 126.225 35.9305V36.8243H118.26C118.33 37.7357 118.628 38.4806 119.153 39.059C119.679 39.6373 120.407 39.9265 121.336 39.9265C121.809 39.9265 122.299 39.8214 122.808 39.611C123.316 39.3832 123.745 39.0765 124.096 38.6909L125.542 40.5838C124.385 41.8457 122.869 42.4766 120.994 42.4766ZM123.176 34.6686C123.141 33.8799 122.93 33.1876 122.545 32.5917C122.159 31.9958 121.546 31.6978 120.705 31.6978C119.898 31.6978 119.294 31.9958 118.891 32.5917C118.505 33.1876 118.295 33.8799 118.26 34.6686H123.176ZM131.628 42.1611H128.579V29.4632H131.733V36.614L135.651 29.4632H138.884V42.1611H135.703V34.7212L131.628 42.1611ZM137.675 26.0456C136.676 27.36 135.361 28.0173 133.731 28.0173C132.102 28.0173 130.787 27.36 129.788 26.0456L131.234 24.8888C131.847 25.7651 132.68 26.2033 133.731 26.2033C134.801 26.2033 135.633 25.7651 136.229 24.8888L137.675 26.0456ZM20.2098 66.1611H17.0551V53.4632H20.2098V58.1954H24.1796V53.4632H27.3606V66.1611H24.1796V60.9558H20.2098V66.1611ZM40.2163 66.1611H37.0352V64.8992C36.6847 65.39 36.2027 65.7756 35.5893 66.056C34.9934 66.3364 34.3624 66.4766 33.6964 66.4766C32.6273 66.4766 31.7072 66.0998 30.936 65.3462C30.1649 64.5925 29.7793 63.5672 29.7793 62.2703C29.7793 60.9558 30.1561 59.9392 30.9097 59.2207C31.6809 58.5021 32.6098 58.1428 33.6964 58.1428C34.38 58.1428 35.0197 58.2742 35.6156 58.5371C36.229 58.8 36.7022 59.1681 37.0352 59.6413V57.985C37.0352 57.3015 36.8249 56.767 36.4043 56.3814C36.0012 55.9783 35.4316 55.7767 34.6954 55.7767C33.5387 55.7767 32.4959 56.2324 31.567 57.1438L30.3839 54.988C31.6634 53.7612 33.2933 53.1477 35.2738 53.1477C36.7636 53.1477 37.9554 53.5158 38.8492 54.2519C39.7606 54.9705 40.2163 56.101 40.2163 57.6433V66.1611ZM34.9058 64.3471C35.8872 64.3471 36.5971 63.944 37.0352 63.1378V61.5079C36.5795 60.6841 35.8697 60.2722 34.9058 60.2722C34.3099 60.2722 33.8279 60.465 33.4598 60.8506C33.1093 61.2187 32.934 61.7094 32.934 62.3228C32.934 62.9363 33.1093 63.427 33.4598 63.7951C33.8279 64.1631 34.3099 64.3471 34.9058 64.3471ZM59.394 66.1611H56.2392V57.7484C56.2392 56.5391 55.6784 55.9345 54.5567 55.9345C54.0835 55.9345 53.6453 56.0922 53.2422 56.4077C52.8391 56.7056 52.5148 57.0737 52.2695 57.5118V66.1611H49.0884V48.6259H52.2695V55.1195C52.62 54.5762 53.1283 54.1117 53.7943 53.7261C54.4778 53.3405 55.2052 53.1477 55.9763 53.1477C58.2548 53.1477 59.394 54.287 59.394 56.5654V66.1611ZM72.8017 66.1611H69.6469V57.7484C69.6469 56.5391 69.0861 55.9345 67.9644 55.9345C67.4912 55.9345 67.053 56.0922 66.6499 56.4077C66.2468 56.7056 65.9226 57.0737 65.6772 57.5118V66.1611H62.4962V48.6259H65.6772V55.1195C66.0277 54.5762 66.536 54.1117 67.202 53.7261C67.8855 53.3405 68.6129 53.1477 69.384 53.1477C71.6625 53.1477 72.8017 54.287 72.8017 56.5654V66.1611ZM79.2164 65.8719C78.8308 66.2575 78.3576 66.4503 77.7967 66.4503C77.2359 66.4503 76.7539 66.2488 76.3508 65.8457C75.9477 65.4425 75.7461 64.9693 75.7461 64.426C75.7461 63.8652 75.9477 63.3832 76.3508 62.9801C76.7539 62.577 77.2359 62.3754 77.7967 62.3754C78.3401 62.3754 78.8133 62.577 79.2164 62.9801C79.6195 63.3832 79.821 63.8652 79.821 64.426C79.821 64.9869 79.6195 65.4688 79.2164 65.8719ZM85.9453 66.1611H82.7905V53.4632H85.9453V55.1983C86.3134 54.62 86.8129 54.138 87.4438 53.7524C88.0923 53.3493 88.7495 53.1477 89.4155 53.1477V56.2499C89.2052 56.1973 88.9511 56.1711 88.6531 56.1711C88.1449 56.1711 87.6278 56.32 87.1021 56.618C86.5938 56.8984 86.2082 57.2577 85.9453 57.6959V66.1611ZM101.754 66.1611H98.5988V64.5575C98.2308 65.1008 97.7138 65.5565 97.0478 65.9245C96.3817 66.2926 95.6544 66.4766 94.8657 66.4766C92.6048 66.4766 91.4743 65.3374 91.4743 63.059V53.4632H94.6291V61.8496C94.6291 63.0765 95.19 63.6899 96.3116 63.6899C97.2581 63.6899 98.0205 63.1729 98.5988 62.1388V53.4632H101.754V66.1611Z" fill="white"/>
  <path d="M107.782 55.1538L110.489 55.1538L113.776 59.8859L110.489 64.5392L107.782 64.5392L111.068 59.8859L107.782 55.1538ZM112.225 55.1538L114.906 55.1538L118.192 59.8859L114.906 64.5392L112.225 64.5392L115.511 59.8859L112.225 55.1538Z" fill="white"/>
  </svg>
  