<svg width="183" height="73" viewBox="0 0 183 73" fill="none" xmlns="http://www.w3.org/2000/svg">
  <path d="M12.354 18.173H9.367L5.742 12.953L9.367 7.82H12.354L8.729 12.953L12.354 18.173ZM7.453 18.173H4.495L0.87 12.953L4.495 7.82H7.453L3.828 12.953L7.453 18.173Z" fill="white"/>
  <path d="M22.93 20H19.566V5.993H23.046V13.881L27.367 5.993H30.934V20H27.425V11.793L22.93 20ZM48.537 5.993H52.017V16.955H53.583V23.567H50.074V20H34.356V5.993H37.836V16.955H41.432V5.993H44.941V16.955H48.537V5.993ZM59.2219 20H55.8579V5.993H59.3379V13.881L63.6589 5.993H67.2259V20H63.7169V11.793L59.2219 20ZM76.1579 20H72.6489V9.038H69.5749V5.993H79.2609V9.038H76.1579V20ZM87.3864 20.348C85.4144 20.348 83.829 19.6713 82.6304 18.318C81.451 16.9647 80.8614 15.186 80.8614 12.982C80.8614 10.894 81.4317 9.154 82.5724 7.762C83.713 6.35067 85.2307 5.645 87.1254 5.645C89.02 5.645 90.499 6.341 91.5624 7.733C92.6257 9.10567 93.1574 10.9037 93.1574 13.127V14.113H84.3704C84.4477 15.1183 84.7764 15.94 85.3564 16.578C85.9364 17.216 86.7387 17.535 87.7634 17.535C88.2854 17.535 88.8267 17.419 89.3874 17.187C89.948 16.9357 90.4217 16.5973 90.8084 16.172L92.4034 18.26C91.1274 19.652 89.455 20.348 87.3864 20.348ZM89.7934 11.735C89.7547 10.865 89.5227 10.1013 89.0974 9.444C88.672 8.78667 87.9954 8.458 87.0674 8.458C86.178 8.458 85.511 8.78667 85.0664 9.444C84.641 10.1013 84.409 10.865 84.3704 11.735H89.7934ZM109.15 20.348C107.642 20.348 106.463 19.6423 105.612 18.231V25.336H102.132V5.993H105.612V7.762C106.502 6.35067 107.681 5.645 109.15 5.645C110.736 5.645 111.992 6.30233 112.92 7.617C113.868 8.91233 114.341 10.7007 114.341 12.982C114.341 15.244 113.868 17.042 112.92 18.376C111.992 19.6907 110.736 20.348 109.15 20.348ZM108.019 17.274C108.889 17.274 109.556 16.8777 110.02 16.085C110.504 15.2923 110.745 14.258 110.745 12.982C110.745 11.7253 110.504 10.7007 110.02 9.908C109.556 9.11533 108.889 8.719 108.019 8.719C107.555 8.719 107.091 8.87367 106.627 9.183C106.183 9.49233 105.844 9.879 105.612 10.343V15.621C105.844 16.085 106.183 16.4813 106.627 16.81C107.091 17.1193 107.555 17.274 108.019 17.274ZM127.766 20H124.257V18.608C123.87 19.1493 123.339 19.5747 122.662 19.884C122.005 20.1933 121.309 20.348 120.574 20.348C119.395 20.348 118.38 19.9323 117.529 19.101C116.678 18.2697 116.253 17.1387 116.253 15.708C116.253 14.258 116.669 13.1367 117.5 12.344C118.351 11.5513 119.375 11.155 120.574 11.155C121.328 11.155 122.034 11.3 122.691 11.59C123.368 11.88 123.89 12.286 124.257 12.808V10.981C124.257 10.227 124.025 9.63733 123.561 9.212C123.116 8.76733 122.488 8.545 121.676 8.545C120.4 8.545 119.25 9.04767 118.225 10.053L116.92 7.675C118.331 6.32167 120.129 5.645 122.314 5.645C123.957 5.645 125.272 6.051 126.258 6.863C127.263 7.65567 127.766 8.90267 127.766 10.604V20ZM121.908 17.999C122.991 17.999 123.774 17.5543 124.257 16.665V14.867C123.754 13.9583 122.971 13.504 121.908 13.504C121.251 13.504 120.719 13.7167 120.313 14.142C119.926 14.548 119.733 15.0893 119.733 15.766C119.733 16.4427 119.926 16.984 120.313 17.39C120.719 17.796 121.251 17.999 121.908 17.999ZM134.741 16.056C135.205 16.868 135.882 17.274 136.771 17.274C137.66 17.274 138.337 16.868 138.801 16.056C139.284 15.2247 139.526 14.1903 139.526 12.953C139.526 11.7543 139.284 10.749 138.801 9.937C138.337 9.125 137.66 8.719 136.771 8.719C135.882 8.719 135.205 9.125 134.741 9.937C134.277 10.749 134.045 11.7543 134.045 12.953C134.045 14.1903 134.277 15.2247 134.741 16.056ZM136.771 20.348C134.741 20.348 133.175 19.6133 132.073 18.144C130.99 16.6553 130.449 14.722 130.449 12.344C130.449 8.806 130.913 6.283 131.841 4.775C132.788 3.24767 134.432 2.281 136.771 1.875C138.337 1.60433 139.12 1.19833 139.12 0.656998H142.658C142.658 2.64833 141.024 3.91467 137.757 4.456C135.186 4.88133 133.755 5.95433 133.465 7.675C134.393 6.32167 135.727 5.645 137.467 5.645C139.226 5.645 140.609 6.35067 141.614 7.762C142.619 9.17333 143.122 10.9037 143.122 12.953C143.122 15.0217 142.561 16.7713 141.44 18.202C140.338 19.6327 138.782 20.348 136.771 20.348ZM151.476 20.348C149.504 20.348 147.957 19.6423 146.836 18.231C145.715 16.8003 145.154 15.0507 145.154 12.982C145.154 10.9133 145.715 9.17333 146.836 7.762C147.957 6.35067 149.504 5.645 151.476 5.645C153.467 5.645 155.024 6.35067 156.145 7.762C157.266 9.17333 157.827 10.9133 157.827 12.982C157.827 15.07 157.266 16.8197 156.145 18.231C155.024 19.6423 153.467 20.348 151.476 20.348ZM151.476 17.274C152.385 17.274 153.071 16.868 153.535 16.056C153.999 15.244 154.231 14.2193 154.231 12.982C154.231 11.7447 153.999 10.7297 153.535 9.937C153.071 9.125 152.385 8.719 151.476 8.719C150.587 8.719 149.91 9.125 149.446 9.937C149.001 10.749 148.779 11.764 148.779 12.982C148.779 14.2193 149.001 15.244 149.446 16.056C149.91 16.868 150.587 17.274 151.476 17.274ZM166.038 20H162.529V9.038H159.455V5.993H169.141V9.038H166.038V20ZM171.147 25.481L171.669 22.407C171.94 22.5423 172.239 22.61 172.568 22.61C173.341 22.61 173.854 22.2717 174.105 21.595L174.569 20.261L169.842 5.993H173.554L176.367 15.795L179.209 5.993H182.921L177.44 22.378C177.034 23.6153 176.464 24.466 175.729 24.93C174.994 25.4133 174.028 25.6647 172.829 25.684C172.152 25.684 171.592 25.6163 171.147 25.481ZM34.24 46H30.789V37.503L27.657 46H26.149L23.046 37.503V46H19.566V31.993H24.032L26.903 39.794L29.803 31.993H34.24V46ZM48.4285 46H44.9195V44.608C44.5328 45.1493 44.0011 45.5747 43.3245 45.884C42.6671 46.1933 41.9711 46.348 41.2365 46.348C40.0571 46.348 39.0421 45.9323 38.1915 45.101C37.3408 44.2697 36.9155 43.1387 36.9155 41.708C36.9155 40.258 37.3311 39.1367 38.1625 38.344C39.0131 37.5513 40.0378 37.155 41.2365 37.155C41.9905 37.155 42.6961 37.3 43.3535 37.59C44.0301 37.88 44.5521 38.286 44.9195 38.808V36.981C44.9195 36.227 44.6875 35.6373 44.2235 35.212C43.7788 34.7673 43.1505 34.545 42.3385 34.545C41.0625 34.545 39.9121 35.0477 38.8875 36.053L37.5825 33.675C38.9938 32.3217 40.7918 31.645 42.9765 31.645C44.6198 31.645 45.9345 32.051 46.9205 32.863C47.9258 33.6557 48.4285 34.9027 48.4285 36.604V46ZM42.5705 43.999C43.6531 43.999 44.4361 43.5543 44.9195 42.665V40.867C44.4168 39.9583 43.6338 39.504 42.5705 39.504C41.9131 39.504 41.3815 39.7167 40.9755 40.142C40.5888 40.548 40.3955 41.0893 40.3955 41.766C40.3955 42.4427 40.5888 42.984 40.9755 43.39C41.3815 43.796 41.9131 43.999 42.5705 43.999ZM66.0174 31.993H69.4974V46H51.8364V31.993H55.3164V42.955H58.9124V31.993H62.4214V42.955H66.0174V31.993ZM76.2775 46H72.9135V31.993H76.3935V39.881L80.7145 31.993H84.2815V46H80.7725V37.793L76.2775 46ZM91.1835 46H87.7035V31.993H91.1835V37.213H95.5625V31.993H99.0715V46H95.5625V40.258H91.1835V46ZM105.858 46H102.494V31.993H105.974V39.881L110.295 31.993H113.862V46H110.353V37.793L105.858 46ZM122.968 46.348C121.054 46.348 119.507 45.6617 118.328 44.289C117.148 42.9163 116.559 41.1473 116.559 38.982C116.559 36.836 117.148 35.0767 118.328 33.704C119.507 32.3313 121.054 31.645 122.968 31.645C124.901 31.645 126.39 32.2733 127.434 33.53L125.694 35.937C125.036 35.125 124.253 34.719 123.345 34.719C122.359 34.719 121.576 35.125 120.996 35.937C120.435 36.7297 120.155 37.7447 120.155 38.982C120.155 40.2387 120.435 41.273 120.996 42.085C121.576 42.8777 122.359 43.274 123.345 43.274C124.253 43.274 125.036 42.868 125.694 42.056L127.434 44.463C126.39 45.7197 124.901 46.348 122.968 46.348ZM135.29 46H131.781V35.038H128.707V31.993H138.393V35.038H135.29V46ZM146.315 46.348C144.343 46.348 142.796 45.6423 141.675 44.231C140.554 42.8003 139.993 41.0507 139.993 38.982C139.993 36.9133 140.554 35.1733 141.675 33.762C142.796 32.3507 144.343 31.645 146.315 31.645C148.306 31.645 149.863 32.3507 150.984 33.762C152.105 35.1733 152.666 36.9133 152.666 38.982C152.666 41.07 152.105 42.8197 150.984 44.231C149.863 45.6423 148.306 46.348 146.315 46.348ZM146.315 43.274C147.224 43.274 147.91 42.868 148.374 42.056C148.838 41.244 149.07 40.2193 149.07 38.982C149.07 37.7447 148.838 36.7297 148.374 35.937C147.91 35.125 147.224 34.719 146.315 34.719C145.426 34.719 144.749 35.125 144.285 35.937C143.84 36.749 143.618 37.764 143.618 38.982C143.618 40.2193 143.84 41.244 144.285 42.056C144.749 42.868 145.426 43.274 146.315 43.274ZM170.04 46H166.589V37.503L163.457 46H161.949L158.846 37.503V46H155.366V31.993H159.832L162.703 39.794L165.603 31.993H170.04V46ZM23.046 72H19.566V57.993H23.046V63.213H27.425V57.993H30.934V72H27.425V66.258H23.046V72ZM45.115 72H41.606V70.608C41.2193 71.1493 40.6877 71.5747 40.011 71.884C39.3537 72.1933 38.6577 72.348 37.923 72.348C36.7437 72.348 35.7287 71.9323 34.878 71.101C34.0273 70.2697 33.602 69.1387 33.602 67.708C33.602 66.258 34.0177 65.1367 34.849 64.344C35.6997 63.5513 36.7243 63.155 37.923 63.155C38.677 63.155 39.3827 63.3 40.04 63.59C40.7167 63.88 41.2387 64.286 41.606 64.808V62.981C41.606 62.227 41.374 61.6373 40.91 61.212C40.4653 60.7673 39.837 60.545 39.025 60.545C37.749 60.545 36.5987 61.0477 35.574 62.053L34.269 59.675C35.6803 58.3217 37.4783 57.645 39.663 57.645C41.3063 57.645 42.621 58.051 43.607 58.863C44.6123 59.6557 45.115 60.9027 45.115 62.604V72ZM39.257 69.999C40.3397 69.999 41.1227 69.5543 41.606 68.665V66.867C41.1033 65.9583 40.3203 65.504 39.257 65.504C38.5997 65.504 38.068 65.7167 37.662 66.142C37.2753 66.548 37.082 67.0893 37.082 67.766C37.082 68.4427 37.2753 68.984 37.662 69.39C38.068 69.796 38.5997 69.999 39.257 69.999ZM66.2698 72H62.7898V62.72C62.7898 61.386 62.1712 60.719 60.9338 60.719C60.4118 60.719 59.9285 60.893 59.4838 61.241C59.0392 61.5697 58.6815 61.9757 58.4108 62.459V72H54.9018V52.657H58.4108V59.82C58.7975 59.2207 59.3582 58.7083 60.0928 58.283C60.8468 57.8577 61.6492 57.645 62.4998 57.645C65.0132 57.645 66.2698 58.9017 66.2698 61.415V72ZM81.0598 72H77.5798V62.72C77.5798 61.386 76.9612 60.719 75.7238 60.719C75.2018 60.719 74.7185 60.893 74.2738 61.241C73.8292 61.5697 73.4715 61.9757 73.2008 62.459V72H69.6918V52.657H73.2008V59.82C73.5875 59.2207 74.1482 58.7083 74.8828 58.283C75.6368 57.8577 76.4392 57.645 77.2898 57.645C79.8032 57.645 81.0598 58.9017 81.0598 61.415V72ZM88.1358 71.681C87.7105 72.1063 87.1885 72.319 86.5698 72.319C85.9512 72.319 85.4195 72.0967 84.9748 71.652C84.5302 71.2073 84.3078 70.6853 84.3078 70.086C84.3078 69.4673 84.5302 68.9357 84.9748 68.491C85.4195 68.0463 85.9512 67.824 86.5698 67.824C87.1692 67.824 87.6912 68.0463 88.1358 68.491C88.5805 68.9357 88.8028 69.4673 88.8028 70.086C88.8028 70.7047 88.5805 71.2363 88.1358 71.681ZM95.5585 72H92.0785V57.993H95.5585V59.907C95.9645 59.269 96.5155 58.7373 97.2115 58.312C97.9268 57.8673 98.6518 57.645 99.3865 57.645V61.067C99.1545 61.009 98.8741 60.98 98.5455 60.98C97.9848 60.98 97.4145 61.1443 96.8345 61.473C96.2738 61.7823 95.8485 62.1787 95.5585 62.662V72ZM112.997 72H109.517V70.231C109.111 70.8303 108.54 71.333 107.806 71.739C107.071 72.145 106.269 72.348 105.399 72.348C102.905 72.348 101.658 71.0913 101.658 68.578V57.993H105.138V67.244C105.138 68.5973 105.756 69.274 106.994 69.274C108.038 69.274 108.879 68.7037 109.517 67.563V57.993H112.997V72Z" fill="white"/>
  <path d="M119.646 59.827L122.633 59.827L126.258 65.047L122.633 70.18L119.646 70.18L123.271 65.047L119.646 59.827ZM124.547 59.827L127.505 59.827L131.13 65.047L127.505 70.18L124.547 70.18L128.172 65.047L124.547 59.827Z" fill="white"/>
  </svg>
  