<svg width="114" height="45" viewBox="0 0 114 45" fill="none" xmlns="http://www.w3.org/2000/svg">
  <path d="M7.83273 9.95923H5.97948L3.7304 6.72055L5.97948 3.53585H7.83273L5.58364 6.72055L7.83273 9.95923ZM4.79197 9.95923H2.95671L0.707627 6.72055L2.95671 3.53585H4.79197L2.54288 6.72055L4.79197 9.95923Z" fill="white"/>
  <path d="M14.3945 12.0928H12.3074V3.40231H14.4665V8.29632L17.1474 3.40231H19.3605V12.0928H17.1834V7.00084L14.3945 12.0928ZM30.282 3.40231H32.4412V10.2035H33.4128V14.3059H31.2357V12.0928H21.4836V3.40231H23.6427V10.2035H25.8738V3.40231H28.051V10.2035H30.282V3.40231ZM36.9114 12.0928H34.8242V3.40231H36.9833V8.29632L39.6642 3.40231H41.8773V12.0928H39.7002V7.00084L36.9114 12.0928ZM47.4191 12.0928H45.242V5.29154H43.3348V3.40231H49.3443V5.29154H47.4191V12.0928ZM54.3856 12.3087C53.1621 12.3087 52.1785 11.8889 51.4348 11.0492C50.7031 10.2095 50.3373 9.10599 50.3373 7.73854C50.3373 6.44307 50.6911 5.36351 51.3989 4.49986C52.1066 3.62422 53.0482 3.1864 54.2237 3.1864C55.3992 3.1864 56.3169 3.61822 56.9766 4.48187C57.6363 5.33352 57.9662 6.44907 57.9662 7.82851V8.44026H52.5144C52.5624 9.06401 52.7663 9.5738 53.1261 9.96964C53.486 10.3655 53.9838 10.5634 54.6195 10.5634C54.9434 10.5634 55.2793 10.4914 55.6271 10.3475C55.975 10.1915 56.2689 9.98163 56.5088 9.71774L57.4984 11.0132C56.7067 11.8769 55.6691 12.3087 54.3856 12.3087ZM55.879 6.96486C55.855 6.42508 55.7111 5.95127 55.4472 5.54344C55.1833 5.1356 54.7635 4.93169 54.1877 4.93169C53.6359 4.93169 53.2221 5.1356 52.9462 5.54344C52.6823 5.95127 52.5384 6.42508 52.5144 6.96486H55.879ZM67.8887 12.3087C66.9531 12.3087 66.2214 11.8709 65.6936 10.9952V15.4034H63.5345V3.40231H65.6936V4.49986C66.2454 3.62422 66.9771 3.1864 67.8887 3.1864C68.8723 3.1864 69.652 3.59423 70.2278 4.4099C70.8155 5.21357 71.1094 6.32312 71.1094 7.73854C71.1094 9.14197 70.8155 10.2575 70.2278 11.0852C69.652 11.9009 68.8723 12.3087 67.8887 12.3087ZM67.187 10.4015C67.7268 10.4015 68.1406 10.1556 68.4285 9.66376C68.7284 9.17196 68.8783 8.53022 68.8783 7.73854C68.8783 6.95886 68.7284 6.32312 68.4285 5.83132C68.1406 5.33952 67.7268 5.09362 67.187 5.09362C66.8991 5.09362 66.6112 5.18958 66.3234 5.3815C66.0475 5.57342 65.8376 5.81333 65.6936 6.10121V9.37588C65.8376 9.66376 66.0475 9.90966 66.3234 10.1136C66.6112 10.3055 66.8991 10.4015 67.187 10.4015ZM79.4388 12.0928H77.2616V11.2291C77.0217 11.565 76.6919 11.8289 76.272 12.0208C75.8642 12.2127 75.4324 12.3087 74.9766 12.3087C74.2449 12.3087 73.6151 12.0508 73.0873 11.535C72.5596 11.0192 72.2957 10.3175 72.2957 9.42986C72.2957 8.53022 72.5536 7.83451 73.0693 7.34271C73.5971 6.85091 74.2329 6.60501 74.9766 6.60501C75.4444 6.60501 75.8822 6.69497 76.29 6.8749C76.7099 7.05482 77.0337 7.30672 77.2616 7.63059V6.49705C77.2616 6.02924 77.1177 5.66339 76.8298 5.3995C76.5539 5.12361 76.1641 4.98566 75.6603 4.98566C74.8686 4.98566 74.1549 5.29754 73.5192 5.92128L72.7095 4.44588C73.5851 3.60622 74.7007 3.1864 76.0561 3.1864C77.0757 3.1864 77.8914 3.43829 78.5031 3.94209C79.1269 4.43389 79.4388 5.20757 79.4388 6.26314V12.0928ZM75.8042 10.8513C76.476 10.8513 76.9618 10.5754 77.2616 10.0236V8.90807C76.9498 8.3443 76.464 8.06241 75.8042 8.06241C75.3964 8.06241 75.0665 8.19436 74.8146 8.45825C74.5747 8.71015 74.4548 9.04601 74.4548 9.46584C74.4548 9.88567 74.5747 10.2215 74.8146 10.4734C75.0665 10.7253 75.3964 10.8513 75.8042 10.8513ZM83.7663 9.64577C84.0542 10.1496 84.474 10.4015 85.0258 10.4015C85.5775 10.4015 85.9974 10.1496 86.2853 9.64577C86.5851 9.12998 86.7351 8.48824 86.7351 7.72055C86.7351 6.97685 86.5851 6.35311 86.2853 5.84931C85.9974 5.34552 85.5775 5.09362 85.0258 5.09362C84.474 5.09362 84.0542 5.34552 83.7663 5.84931C83.4784 6.35311 83.3345 6.97685 83.3345 7.72055C83.3345 8.48824 83.4784 9.12998 83.7663 9.64577ZM85.0258 12.3087C83.7663 12.3087 82.7947 11.8529 82.111 10.9412C81.4392 10.0176 81.1034 8.81811 81.1034 7.34271C81.1034 5.1476 81.3912 3.58223 81.967 2.64662C82.5548 1.699 83.5744 1.09924 85.0258 0.847347C85.9974 0.679415 86.4832 0.427517 86.4832 0.0916539H88.6783C88.6783 1.32715 87.6647 2.11283 85.6375 2.4487C84.0422 2.71259 83.1545 3.37832 82.9746 4.44588C83.5504 3.60622 84.378 3.1864 85.4576 3.1864C86.5491 3.1864 87.4068 3.62422 88.0305 4.49986C88.6543 5.37551 88.9662 6.44907 88.9662 7.72055C88.9662 9.00403 88.6183 10.0896 87.9226 10.9772C87.2389 11.8649 86.2733 12.3087 85.0258 12.3087ZM94.1493 12.3087C92.9258 12.3087 91.9662 11.8709 91.2705 10.9952C90.5748 10.1076 90.2269 9.02202 90.2269 7.73854C90.2269 6.45507 90.5748 5.37551 91.2705 4.49986C91.9662 3.62422 92.9258 3.1864 94.1493 3.1864C95.3848 3.1864 96.3504 3.62422 97.0461 4.49986C97.7419 5.37551 98.0897 6.45507 98.0897 7.73854C98.0897 9.03402 97.7419 10.1196 97.0461 10.9952C96.3504 11.8709 95.3848 12.3087 94.1493 12.3087ZM94.1493 10.4015C94.7131 10.4015 95.1389 10.1496 95.4268 9.64577C95.7147 9.14197 95.8586 8.50623 95.8586 7.73854C95.8586 6.97086 95.7147 6.34111 95.4268 5.84931C95.1389 5.34552 94.7131 5.09362 94.1493 5.09362C93.5975 5.09362 93.1777 5.34552 92.8898 5.84931C92.6139 6.35311 92.476 6.98285 92.476 7.73854C92.476 8.50623 92.6139 9.14197 92.8898 9.64577C93.1777 10.1496 93.5975 10.4015 94.1493 10.4015ZM103.184 12.0928H101.007V5.29154H99.0994V3.40231H105.109V5.29154H103.184V12.0928ZM106.354 15.4934L106.678 13.5862C106.846 13.6701 107.032 13.7121 107.235 13.7121C107.715 13.7121 108.033 13.5022 108.189 13.0824L108.477 12.2547L105.544 3.40231H107.847L109.593 9.48383L111.356 3.40231H113.659L110.258 13.5682C110.006 14.3359 109.652 14.8636 109.197 15.1515C108.741 15.4514 108.141 15.6073 107.397 15.6193C106.978 15.6193 106.63 15.5774 106.354 15.4934ZM21.4117 28.0928H19.2705V22.8209L17.3273 28.0928H16.3917L14.4665 22.8209V28.0928H12.3074V19.4023H15.0782L16.8595 24.2423L18.6588 19.4023H21.4117V28.0928ZM30.2147 28.0928H28.0376V27.2291C27.7977 27.565 27.4678 27.8289 27.048 28.0208C26.6402 28.2127 26.2083 28.3087 25.7525 28.3087C25.0208 28.3087 24.3911 28.0508 23.8633 27.535C23.3355 27.0192 23.0716 26.3175 23.0716 25.4299C23.0716 24.5302 23.3295 23.8345 23.8453 23.3427C24.3731 22.8509 25.0088 22.605 25.7525 22.605C26.2203 22.605 26.6582 22.695 27.066 22.8749C27.4858 23.0548 27.8097 23.3067 28.0376 23.6306V22.497C28.0376 22.0292 27.8937 21.6634 27.6058 21.3995C27.3299 21.1236 26.94 20.9857 26.4363 20.9857C25.6446 20.9857 24.9309 21.2975 24.2951 21.9213L23.4855 20.4459C24.3611 19.6062 25.4766 19.1864 26.8321 19.1864C27.8517 19.1864 28.6673 19.4383 29.2791 19.9421C29.9028 20.4339 30.2147 21.2076 30.2147 22.2631V28.0928ZM26.5802 26.8513C27.2519 26.8513 27.7377 26.5754 28.0376 26.0236V24.9081C27.7257 24.3443 27.2399 24.0624 26.5802 24.0624C26.1724 24.0624 25.8425 24.1944 25.5906 24.4583C25.3507 24.7101 25.2307 25.046 25.2307 25.4658C25.2307 25.8857 25.3507 26.2215 25.5906 26.4734C25.8425 26.7253 26.1724 26.8513 26.5802 26.8513ZM41.1276 19.4023H43.2867V28.0928H32.3291V19.4023H34.4883V26.2035H36.7194V19.4023H38.8965V26.2035H41.1276V19.4023ZM47.4933 28.0928H45.4062V19.4023H47.5653V24.2963L50.2462 19.4023H52.4593V28.0928H50.2822V23.0008L47.4933 28.0928ZM56.7416 28.0928H54.5824V19.4023H56.7416V22.641H59.4584V19.4023H61.6356V28.0928H59.4584V24.5302H56.7416V28.0928ZM65.8458 28.0928H63.7587V19.4023H65.9178V24.2963L68.5987 19.4023H70.8118V28.0928H68.6347V23.0008L65.8458 28.0928ZM76.4615 28.3087C75.274 28.3087 74.3144 27.8829 73.5827 27.0312C72.851 26.1796 72.4851 25.082 72.4851 23.7385C72.4851 22.4071 72.851 21.3155 73.5827 20.4639C74.3144 19.6122 75.274 19.1864 76.4615 19.1864C77.661 19.1864 78.5847 19.5762 79.2324 20.3559L78.1528 21.8493C77.745 21.3455 77.2592 21.0936 76.6954 21.0936C76.0837 21.0936 75.5979 21.3455 75.238 21.8493C74.8902 22.3411 74.7162 22.9709 74.7162 23.7385C74.7162 24.5182 74.8902 25.16 75.238 25.6638C75.5979 26.1556 76.0837 26.4015 76.6954 26.4015C77.2592 26.4015 77.745 26.1496 78.1528 25.6458L79.2324 27.1392C78.5847 27.9188 77.661 28.3087 76.4615 28.3087ZM84.1066 28.0928H81.9295V21.2915H80.0223V19.4023H86.0318V21.2915H84.1066V28.0928ZM90.9472 28.3087C89.7237 28.3087 88.7641 27.8709 88.0684 26.9952C87.3726 26.1076 87.0248 25.022 87.0248 23.7385C87.0248 22.4551 87.3726 21.3755 88.0684 20.4999C88.7641 19.6242 89.7237 19.1864 90.9472 19.1864C92.1827 19.1864 93.1483 19.6242 93.844 20.4999C94.5397 21.3755 94.8876 22.4551 94.8876 23.7385C94.8876 25.034 94.5397 26.1196 93.844 26.9952C93.1483 27.8709 92.1827 28.3087 90.9472 28.3087ZM90.9472 26.4015C91.511 26.4015 91.9368 26.1496 92.2247 25.6458C92.5125 25.142 92.6565 24.5062 92.6565 23.7385C92.6565 22.9709 92.5125 22.3411 92.2247 21.8493C91.9368 21.3455 91.511 21.0936 90.9472 21.0936C90.3954 21.0936 89.9756 21.3455 89.6877 21.8493C89.4118 22.3531 89.2739 22.9829 89.2739 23.7385C89.2739 24.5062 89.4118 25.142 89.6877 25.6458C89.9756 26.1496 90.3954 26.4015 90.9472 26.4015ZM105.667 28.0928H103.526V22.8209L101.583 28.0928H100.647L98.7221 22.8209V28.0928H96.563V19.4023H99.3339L101.115 24.2423L102.914 19.4023H105.667V28.0928ZM14.4665 44.0928H12.3074V35.4023H14.4665V38.641H17.1834V35.4023H19.3605V44.0928H17.1834V40.5302H14.4665V44.0928ZM28.1589 44.0928H25.9818V43.2291C25.7419 43.565 25.412 43.8289 24.9922 44.0208C24.5844 44.2127 24.1525 44.3087 23.6967 44.3087C22.965 44.3087 22.3353 44.0508 21.8075 43.535C21.2797 43.0192 21.0158 42.3175 21.0158 41.4299C21.0158 40.5302 21.2737 39.8345 21.7895 39.3427C22.3173 38.8509 22.953 38.605 23.6967 38.605C24.1645 38.605 24.6024 38.695 25.0102 38.8749C25.43 39.0548 25.7539 39.3067 25.9818 39.6306V38.497C25.9818 38.0292 25.8379 37.6634 25.55 37.3995C25.2741 37.1236 24.8842 36.9857 24.3804 36.9857C23.5888 36.9857 22.8751 37.2975 22.2393 37.9213L21.4296 36.4459C22.3053 35.6062 23.4208 35.1864 24.7763 35.1864C25.7959 35.1864 26.6115 35.4383 27.2233 35.9421C27.847 36.4339 28.1589 37.2076 28.1589 38.2631V44.0928ZM24.5244 42.8513C25.1961 42.8513 25.6819 42.5754 25.9818 42.0236V40.9081C25.6699 40.3443 25.1841 40.0624 24.5244 40.0624C24.1166 40.0624 23.7867 40.1944 23.5348 40.4583C23.2949 40.7101 23.1749 41.046 23.1749 41.4658C23.1749 41.8857 23.2949 42.2215 23.5348 42.4734C23.7867 42.7253 24.1166 42.8513 24.5244 42.8513ZM41.2842 44.0928H39.125V38.3351C39.125 37.5075 38.7412 37.0936 37.9735 37.0936C37.6496 37.0936 37.3498 37.2016 37.0739 37.4175C36.798 37.6214 36.5761 37.8733 36.4081 38.1732V44.0928H34.231V32.0917H36.4081V36.5358C36.648 36.164 36.9959 35.8461 37.4517 35.5822C37.9195 35.3183 38.4173 35.1864 38.9451 35.1864C40.5045 35.1864 41.2842 35.9661 41.2842 37.5254V44.0928ZM50.4604 44.0928H48.3013V38.3351C48.3013 37.5075 47.9175 37.0936 47.1498 37.0936C46.8259 37.0936 46.526 37.2016 46.2501 37.4175C45.9742 37.6214 45.7523 37.8733 45.5844 38.1732V44.0928H43.4073V32.0917H45.5844V36.5358C45.8243 36.164 46.1722 35.8461 46.628 35.5822C47.0958 35.3183 47.5936 35.1864 48.1214 35.1864C49.6807 35.1864 50.4604 35.9661 50.4604 37.5254V44.0928ZM54.8506 43.8949C54.5867 44.1587 54.2629 44.2907 53.879 44.2907C53.4952 44.2907 53.1653 44.1527 52.8894 43.8769C52.6135 43.601 52.4756 43.2771 52.4756 42.9053C52.4756 42.5214 52.6135 42.1915 52.8894 41.9157C53.1653 41.6398 53.4952 41.5018 53.879 41.5018C54.2509 41.5018 54.5747 41.6398 54.8506 41.9157C55.1265 42.1915 55.2645 42.5214 55.2645 42.9053C55.2645 43.2891 55.1265 43.619 54.8506 43.8949ZM59.4559 44.0928H57.2968V35.4023H59.4559V36.5898C59.7078 36.194 60.0497 35.8641 60.4815 35.6002C60.9253 35.3243 61.3751 35.1864 61.8309 35.1864V37.3095C61.687 37.2735 61.5131 37.2556 61.3092 37.2556C60.9613 37.2556 60.6074 37.3575 60.2476 37.5614C59.8997 37.7534 59.6358 37.9993 59.4559 38.2991V44.0928ZM70.2751 44.0928H68.116V42.9952C67.8641 43.3671 67.5103 43.6789 67.0545 43.9308C66.5986 44.1827 66.1008 44.3087 65.5611 44.3087C64.0137 44.3087 63.24 43.529 63.24 41.9696V35.4023H65.3991V41.142C65.3991 41.9816 65.783 42.4015 66.5507 42.4015C67.1984 42.4015 67.7202 42.0476 68.116 41.3399V35.4023H70.2751V44.0928Z" fill="white"/>
  <path d="M74.4007 37.1023L76.254 37.1023L78.5031 40.341L76.254 43.5257L74.4007 43.5257L76.6498 40.341L74.4007 37.1023ZM77.4415 37.1023L79.2767 37.1023L81.5258 40.341L79.2767 43.5257L77.4415 43.5257L79.6906 40.341L77.4415 37.1023Z" fill="white"/>
  </svg>
  