<svg width="242" height="207" viewBox="0 0 242 207" fill="none" xmlns="http://www.w3.org/2000/svg">
  <path d="M242 -0.000244141L33.108 -5.72449e-05C21.5191 -4.68763e-05 15.7247 -4.1692e-05 11.2983 2.25531C7.40475 4.23917 4.2392 7.40473 2.25534 11.2983C-1.10831e-05 15.7246 -1.10831e-05 21.5191 -1.10831e-05 33.108V173.485C-1.10831e-05 185.074 -1.10831e-05 190.868 2.25534 195.294C4.2392 199.188 7.40476 202.353 11.2983 204.337C15.7247 206.593 21.5191 206.593 33.108 206.593H208.892C220.481 206.593 226.275 206.593 230.702 204.337C234.595 202.353 237.761 199.188 239.745 195.294C242 190.868 242 185.073 242 173.485L242 -0.000244141Z" fill="#D6001C"/>
  </svg>
  