<svg width="194" height="124" viewBox="0 0 194 124" fill="none" xmlns="http://www.w3.org/2000/svg">
  <path d="M25.2277 18.3943H20.9419V0.549095H25.3755V10.5986L30.8805 0.549095H35.4249V18.3943H30.9544V7.93841L25.2277 18.3943ZM57.8515 0.549095H62.2851V14.5149H64.2802V22.9387H59.8097V18.3943H39.7846V0.549095H44.2182V14.5149H48.7996V0.549095H53.2701V14.5149H57.8515V0.549095ZM71.4643 18.3943H67.1785V0.549095H71.6121V10.5986L77.1171 0.549095H81.6616V18.3943H77.191V7.93841L71.4643 18.3943ZM93.0411 18.3943H88.5706V4.42848H84.6542V0.549095H96.9944V4.42848H93.0411V18.3943ZM107.346 18.8376C104.834 18.8376 102.814 17.9756 101.287 16.2514C99.7846 14.5272 99.0334 12.2612 99.0334 9.45322C99.0334 6.79306 99.76 4.57627 101.213 2.80283C102.666 1.00477 104.6 0.105735 107.014 0.105735C109.428 0.105735 111.312 0.992453 112.667 2.76589C114.021 4.51469 114.699 6.80538 114.699 9.63795V10.8941H103.504C103.602 12.1749 104.021 13.2218 104.76 14.0346C105.499 14.8474 106.521 15.2538 107.827 15.2538C108.492 15.2538 109.181 15.106 109.896 14.8105C110.61 14.4903 111.213 14.0592 111.706 13.5173L113.738 16.1775C112.112 17.9509 109.982 18.8376 107.346 18.8376ZM110.413 7.86451C110.364 6.75612 110.068 5.78319 109.526 4.94574C108.984 4.10828 108.122 3.68955 106.94 3.68955C105.807 3.68955 104.957 4.10828 104.391 4.94574C103.849 5.78319 103.553 6.75612 103.504 7.86451H110.413ZM29.883 53.8376C27.9617 53.8376 26.4592 52.9386 25.3755 51.1405V60.1925H20.9419V35.5491H25.3755V37.8028C26.5085 36.0048 28.011 35.1057 29.883 35.1057C31.9027 35.1057 33.5037 35.9432 34.686 37.6181C35.8929 39.2684 36.4964 41.5468 36.4964 44.4532C36.4964 47.335 35.8929 49.6257 34.686 51.3253C33.5037 53.0002 31.9027 53.8376 29.883 53.8376ZM28.442 49.9213C29.5504 49.9213 30.4002 49.4164 30.9914 48.4065C31.6071 47.3966 31.915 46.0789 31.915 44.4532C31.915 42.8522 31.6071 41.5468 30.9914 40.5369C30.4002 39.527 29.5504 39.0221 28.442 39.0221C27.8509 39.0221 27.2598 39.2191 26.6686 39.6132C26.1021 40.0073 25.6711 40.4999 25.3755 41.0911V47.8154C25.6711 48.4065 26.1021 48.9114 26.6686 49.3302C27.2598 49.7243 27.8509 49.9213 28.442 49.9213ZM53.6001 53.3943H49.1295V51.6209C48.6369 52.3105 47.9596 52.8524 47.0975 53.2465C46.26 53.6406 45.3733 53.8376 44.4373 53.8376C42.9348 53.8376 41.6417 53.3081 40.5579 52.2489C39.4742 51.1898 38.9323 49.7489 38.9323 47.9262C38.9323 46.0789 39.4618 44.6503 40.521 43.6404C41.6047 42.6305 42.9102 42.1256 44.4373 42.1256C45.3979 42.1256 46.297 42.3103 47.1344 42.6798C47.9965 43.0492 48.6615 43.5665 49.1295 44.2315V41.9039C49.1295 40.9433 48.834 40.192 48.2428 39.6502C47.6763 39.0836 46.8758 38.8004 45.8413 38.8004C44.2156 38.8004 42.7501 39.4408 41.4446 40.7216L39.782 37.692C41.5801 35.9678 43.8708 35.1057 46.6541 35.1057C48.7477 35.1057 50.4227 35.623 51.6788 36.6575C52.9597 37.6674 53.6001 39.2561 53.6001 41.4236V53.3943ZM46.1369 50.845C47.5162 50.845 48.5137 50.2785 49.1295 49.1454V46.8547C48.4891 45.6971 47.4916 45.1183 46.1369 45.1183C45.2994 45.1183 44.622 45.3892 44.1048 45.9311C43.6122 46.4483 43.3659 47.138 43.3659 48.0001C43.3659 48.8622 43.6122 49.5518 44.1048 50.0691C44.622 50.5863 45.2994 50.845 46.1369 50.845ZM62.4863 48.3696C63.0774 49.4041 63.9395 49.9213 65.0725 49.9213C66.2056 49.9213 67.0677 49.4041 67.6588 48.3696C68.2746 47.3104 68.5825 45.9927 68.5825 44.4163C68.5825 42.8891 68.2746 41.6083 67.6588 40.5738C67.0677 39.5393 66.2056 39.0221 65.0725 39.0221C63.9395 39.0221 63.0774 39.5393 62.4863 40.5738C61.8951 41.6083 61.5996 42.8891 61.5996 44.4163C61.5996 45.9927 61.8951 47.3104 62.4863 48.3696ZM65.0725 53.8376C62.4863 53.8376 60.4912 52.9017 59.0872 51.0297C57.7079 49.1331 57.0182 46.67 57.0182 43.6404C57.0182 39.1329 57.6093 35.9186 58.7916 33.9973C59.9986 32.0515 62.0922 30.8199 65.0725 30.3027C67.0677 29.9578 68.0652 29.4406 68.0652 28.7509H72.5727C72.5727 31.2879 70.4914 32.9013 66.3287 33.5909C63.0528 34.1328 61.2301 35.4998 60.8606 37.692C62.0429 35.9678 63.7425 35.1057 65.9593 35.1057C68.2007 35.1057 69.9618 36.0048 71.2426 37.8028C72.5234 39.6009 73.1638 41.8054 73.1638 44.4163C73.1638 47.0518 72.4495 49.2809 71.0209 51.1036C69.617 52.9263 67.6342 53.8376 65.0725 53.8376ZM83.8071 53.8376C81.2947 53.8376 79.3242 52.9386 77.8956 51.1405C76.467 49.3178 75.7527 47.0887 75.7527 44.4532C75.7527 41.8177 76.467 39.6009 77.8956 37.8028C79.3242 36.0048 81.2947 35.1057 83.8071 35.1057C86.3441 35.1057 88.3269 36.0048 89.7555 37.8028C91.1841 39.6009 91.8984 41.8177 91.8984 44.4532C91.8984 47.1134 91.1841 49.3425 89.7555 51.1405C88.3269 52.9386 86.3441 53.8376 83.8071 53.8376ZM83.8071 49.9213C84.9647 49.9213 85.8391 49.4041 86.4303 48.3696C87.0214 47.335 87.317 46.0296 87.317 44.4532C87.317 42.8768 87.0214 41.5837 86.4303 40.5738C85.8391 39.5393 84.9647 39.0221 83.8071 39.0221C82.674 39.0221 81.8119 39.5393 81.2208 40.5738C80.6543 41.6083 80.371 42.9015 80.371 44.4532C80.371 46.0296 80.6543 47.335 81.2208 48.3696C81.8119 49.4041 82.674 49.9213 83.8071 49.9213ZM102.359 53.3943H97.888V39.4285H93.9717V35.5491H106.312V39.4285H102.359V53.3943ZM108.868 60.3772L109.533 56.4609C109.878 56.6333 110.26 56.7195 110.678 56.7195C111.664 56.7195 112.316 56.2884 112.637 55.4263L113.228 53.7268L107.205 35.5491H111.935L115.518 48.037L119.139 35.5491H123.868L116.885 56.4239C116.368 58.0003 115.642 59.0841 114.706 59.6752C113.77 60.291 112.538 60.6112 111.011 60.6358C110.149 60.6358 109.435 60.5496 108.868 60.3772ZM28.1834 88.8376C25.7449 88.8376 23.7745 87.9632 22.272 86.2144C20.7695 84.4656 20.0182 82.2119 20.0182 79.4532C20.0182 76.7192 20.7695 74.4777 22.272 72.7289C23.7745 70.9801 25.7449 70.1057 28.1834 70.1057C30.6465 70.1057 32.5431 70.9062 33.8732 72.5073L31.6564 75.5738C30.8189 74.5393 29.8214 74.0221 28.6637 74.0221C27.4075 74.0221 26.41 74.5393 25.6711 75.5738C24.9568 76.5837 24.5996 77.8768 24.5996 79.4532C24.5996 81.0542 24.9568 82.372 25.6711 83.4065C26.41 84.4164 27.4075 84.9213 28.6637 84.9213C29.8214 84.9213 30.8189 84.4041 31.6564 83.3696L33.8732 86.4361C32.5431 88.0371 30.6465 88.8376 28.1834 88.8376ZM46.1726 88.3943H36.8621V70.5491H45.914C47.7121 70.5491 49.0668 70.9801 49.9781 71.8422C50.9141 72.7043 51.3821 73.8004 51.3821 75.1305C51.3821 76.165 51.0989 77.0394 50.5323 77.7537C49.9658 78.4433 49.2269 78.9113 48.3155 79.1576C49.3254 79.3793 50.1506 79.8966 50.791 80.7094C51.4314 81.5222 51.7516 82.4705 51.7516 83.5543C51.7516 84.9829 51.2836 86.1529 50.3476 87.0642C49.4116 87.9509 48.02 88.3943 46.1726 88.3943ZM45.1381 84.8105C46.5175 84.8105 47.2072 84.1947 47.2072 82.9631C47.2072 82.4213 47.0224 81.9779 46.653 81.6331C46.3081 81.2636 45.8032 81.0789 45.1381 81.0789H41.2957V84.8105H45.1381ZM44.9904 77.495C46.2465 77.495 46.8746 76.9409 46.8746 75.8325C46.8746 75.3152 46.7145 74.9088 46.3943 74.6132C46.0741 74.293 45.6061 74.1329 44.9904 74.1329H41.2957V77.495H44.9904ZM69.4842 88.3943H65.0137V86.6209C64.521 87.3105 63.8437 87.8524 62.9816 88.2465C62.1441 88.6406 61.2574 88.8376 60.3214 88.8376C58.819 88.8376 57.5258 88.3081 56.4421 87.2489C55.3583 86.1898 54.8164 84.7489 54.8164 82.9262C54.8164 81.0789 55.346 79.6503 56.4051 78.6404C57.4889 77.6305 58.7943 77.1256 60.3214 77.1256C61.2821 77.1256 62.1811 77.3103 63.0185 77.6798C63.8806 78.0492 64.5457 78.5665 65.0137 79.2315V76.9039C65.0137 75.9433 64.7181 75.192 64.1269 74.6502C63.5604 74.0836 62.7599 73.8004 61.7254 73.8004C60.0998 73.8004 58.6342 74.4408 57.3288 75.7216L55.6662 72.692C57.4642 70.9678 59.7549 70.1057 62.5382 70.1057C64.6319 70.1057 66.3068 70.623 67.563 71.6575C68.8438 72.6674 69.4842 74.2561 69.4842 76.4236V88.3943ZM62.021 85.845C63.4003 85.845 64.3979 85.2785 65.0137 84.1454V81.8547C64.3733 80.6971 63.3757 80.1183 62.021 80.1183C61.1835 80.1183 60.5062 80.3892 59.9889 80.9311C59.4963 81.4483 59.25 82.138 59.25 83.0001C59.25 83.8622 59.4963 84.5518 59.9889 85.0691C60.5062 85.5863 61.1835 85.845 62.021 85.845ZM82.7671 88.8376C80.8458 88.8376 79.3434 87.9386 78.2596 86.1405V95.1925H73.826V70.5491H78.2596V72.8028C79.3926 71.0048 80.8951 70.1057 82.7671 70.1057C84.7868 70.1057 86.3878 70.9432 87.5701 72.6181C88.777 74.2684 89.3805 76.5468 89.3805 79.4532C89.3805 82.335 88.777 84.6257 87.5701 86.3253C86.3878 88.0002 84.7868 88.8376 82.7671 88.8376ZM81.3262 84.9213C82.4345 84.9213 83.2843 84.4164 83.8755 83.4065C84.4912 82.3966 84.7991 81.0789 84.7991 79.4532C84.7991 77.8522 84.4912 76.5468 83.8755 75.5369C83.2843 74.527 82.4345 74.0221 81.3262 74.0221C80.735 74.0221 80.1439 74.2191 79.5527 74.6132C78.9862 75.0073 78.5552 75.4999 78.2596 76.0911V82.8154C78.5552 83.4065 78.9862 83.9114 79.5527 84.3302C80.1439 84.7243 80.735 84.9213 81.3262 84.9213ZM110.844 70.5491H115.277V84.5149H117.273V92.9387H112.802V88.3943H92.777V70.5491H97.2106V84.5149H101.792V70.5491H106.262V84.5149H110.844V70.5491ZM124.457 88.3943H120.171V70.5491H124.604V80.5986L130.109 70.5491H134.654V88.3943H130.183V77.9384L124.457 88.3943ZM154.236 88.3943H149.026L145.331 81.4114L143.447 84.0346V88.3943H139.014V70.5491H143.447V78.6404L148.878 70.5491H154.051L148.398 78.5665L154.236 88.3943ZM163.508 88.8376C160.995 88.8376 159.025 87.9386 157.596 86.1405C156.168 84.3178 155.453 82.0887 155.453 79.4532C155.453 76.8177 156.168 74.6009 157.596 72.8028C159.025 71.0048 160.995 70.1057 163.508 70.1057C166.045 70.1057 168.028 71.0048 169.456 72.8028C170.885 74.6009 171.599 76.8177 171.599 79.4532C171.599 82.1134 170.885 84.3425 169.456 86.1405C168.028 87.9386 166.045 88.8376 163.508 88.8376ZM163.508 84.9213C164.665 84.9213 165.54 84.4041 166.131 83.3696C166.722 82.335 167.018 81.0296 167.018 79.4532C167.018 77.8768 166.722 76.5837 166.131 75.5738C165.54 74.5393 164.665 74.0221 163.508 74.0221C162.375 74.0221 161.513 74.5393 160.921 75.5738C160.355 76.6083 160.072 77.9015 160.072 79.4532C160.072 81.0296 160.355 82.335 160.921 83.3696C161.513 84.4041 162.375 84.9213 163.508 84.9213ZM193.734 88.3943H189.338V77.5689L185.347 88.3943H183.426L179.473 77.5689V88.3943H175.039V70.5491H180.729L184.387 80.4877L188.082 70.5491H193.734V88.3943ZM25.7449 123.394H21.3114V105.549H25.7449V112.199H31.3239V105.549H35.7944V123.394H31.3239V116.079H25.7449V123.394ZM53.8613 123.394H49.3908V121.621C48.8981 122.311 48.2208 122.852 47.3587 123.247C46.5212 123.641 45.6345 123.838 44.6985 123.838C43.196 123.838 41.9029 123.308 40.8191 122.249C39.7354 121.19 39.1935 119.749 39.1935 117.926C39.1935 116.079 39.7231 114.65 40.7822 113.64C41.866 112.631 43.1714 112.126 44.6985 112.126C45.6591 112.126 46.5582 112.31 47.3956 112.68C48.2577 113.049 48.9228 113.566 49.3908 114.232V111.904C49.3908 110.943 49.0952 110.192 48.504 109.65C47.9375 109.084 47.137 108.8 46.1025 108.8C44.4769 108.8 43.0113 109.441 41.7059 110.722L40.0433 107.692C41.8413 105.968 44.132 105.106 46.9153 105.106C49.009 105.106 50.6839 105.623 51.9401 106.657C53.2209 107.667 53.8613 109.256 53.8613 111.424V123.394ZM46.3981 120.845C47.7774 120.845 48.775 120.278 49.3908 119.145V116.855C48.7503 115.697 47.7528 115.118 46.3981 115.118C45.5606 115.118 44.8833 115.389 44.366 115.931C43.8734 116.448 43.6271 117.138 43.6271 118C43.6271 118.862 43.8734 119.552 44.366 120.069C44.8833 120.586 45.5606 120.845 46.3981 120.845ZM80.8129 123.394H76.3794V111.571C76.3794 109.872 75.5912 109.022 74.0148 109.022C73.3497 109.022 72.734 109.244 72.1674 109.687C71.6009 110.106 71.1453 110.623 70.8004 111.239V123.394H66.3299V98.7509H70.8004V107.877C71.293 107.113 72.0073 106.46 72.9433 105.919C73.9039 105.377 74.9261 105.106 76.0099 105.106C79.2119 105.106 80.8129 106.707 80.8129 109.909V123.394ZM99.6557 123.394H95.2221V111.571C95.2221 109.872 94.4339 109.022 92.8575 109.022C92.1925 109.022 91.5767 109.244 91.0102 109.687C90.4437 110.106 89.988 110.623 89.6432 111.239V123.394H85.1726V98.7509H89.6432V107.877C90.1358 107.113 90.8501 106.46 91.7861 105.919C92.7467 105.377 93.7689 105.106 94.8526 105.106C98.0547 105.106 99.6557 106.707 99.6557 109.909V123.394ZM108.671 122.988C108.129 123.53 107.464 123.801 106.676 123.801C105.887 123.801 105.21 123.517 104.643 122.951C104.077 122.384 103.794 121.719 103.794 120.956C103.794 120.168 104.077 119.49 104.643 118.924C105.21 118.357 105.887 118.074 106.676 118.074C107.439 118.074 108.104 118.357 108.671 118.924C109.237 119.49 109.52 120.168 109.52 120.956C109.52 121.744 109.237 122.421 108.671 122.988ZM118.127 123.394H113.694V105.549H118.127V107.988C118.644 107.175 119.346 106.497 120.233 105.956C121.145 105.389 122.068 105.106 123.004 105.106V109.465C122.709 109.392 122.351 109.355 121.933 109.355C121.218 109.355 120.492 109.564 119.753 109.983C119.039 110.377 118.497 110.882 118.127 111.497V123.394ZM140.344 123.394H135.91V121.141C135.393 121.904 134.666 122.545 133.73 123.062C132.794 123.579 131.772 123.838 130.664 123.838C127.486 123.838 125.898 122.237 125.898 119.035V105.549H130.331V117.335C130.331 119.059 131.119 119.921 132.696 119.921C134.026 119.921 135.097 119.195 135.91 117.741V105.549H140.344V123.394ZM157.746 114.416L153.128 121.067H149.359L153.978 114.416L149.359 107.877H153.128L157.746 114.416ZM163.99 114.416L159.372 121.067H155.567L160.185 114.416L155.567 107.877H159.372L163.99 114.416Z" fill="white"/>
  <path d="M14.6733 15.7898H10.8678L6.2495 9.13942L10.8678 2.59987H14.6733L10.055 9.13942L14.6733 15.7898ZM8.42935 15.7898H4.6608L0.0424791 9.13942L4.6608 2.59987H8.42935L3.81103 9.13942L8.42935 15.7898Z" fill="white"/>
  </svg>
  