<svg width="156" height="42" viewBox="0 0 156 42" fill="none" xmlns="http://www.w3.org/2000/svg">
  <path d="M12.9529 11.178H11.0896V3.41956H13.0171V7.78869L15.4105 3.41956H17.3863V11.178H15.4426V6.63216L12.9529 11.178ZM27.1365 3.41956H29.064V9.49137H29.9314V13.1537H27.9878V11.178H19.2817V3.41956H21.2092V9.49137H23.2011V3.41956H25.1447V9.49137H27.1365V3.41956ZM33.0548 11.178H31.1915V3.41956H33.1191V7.78869L35.5124 3.41956H37.4882V11.178H35.5446V6.63216L33.0548 11.178ZM42.4356 11.178H40.492V5.10617H38.7893V3.41956H44.1543V5.10617H42.4356V11.178ZM48.655 11.3707C47.5627 11.3707 46.6846 10.9959 46.0206 10.2463C45.3674 9.49672 45.0408 8.51152 45.0408 7.29074C45.0408 6.1342 45.3567 5.17042 45.9885 4.3994C46.6203 3.61767 47.461 3.2268 48.5104 3.2268C49.5599 3.2268 50.3791 3.61232 50.968 4.38334C51.557 5.14365 51.8515 6.13956 51.8515 7.37105V7.91719H46.9844C47.0273 8.47404 47.2093 8.92916 47.5306 9.28255C47.8518 9.63593 48.2962 9.81263 48.8638 9.81263C49.1529 9.81263 49.4528 9.74837 49.7633 9.61987C50.0739 9.48066 50.3362 9.29326 50.5504 9.05767L51.4339 10.2142C50.7271 10.9852 49.8008 11.3707 48.655 11.3707ZM49.9882 6.60003C49.9668 6.11814 49.8383 5.69515 49.6027 5.33105C49.3671 4.96696 48.9923 4.78491 48.4783 4.78491C47.9857 4.78491 47.6162 4.96696 47.3699 5.33105C47.1343 5.69515 47.0058 6.11814 46.9844 6.60003H49.9882ZM60.7099 11.3707C59.8746 11.3707 59.2214 10.9799 58.7502 10.1981V14.1336H56.8226V3.41956H58.7502V4.3994C59.2428 3.61767 59.896 3.2268 60.7099 3.2268C61.588 3.2268 62.284 3.5909 62.798 4.31909C63.3228 5.03657 63.5851 6.02712 63.5851 7.29074C63.5851 8.54365 63.3228 9.53955 62.798 10.2785C62.284 11.0066 61.588 11.3707 60.7099 11.3707ZM60.0834 9.66806C60.5653 9.66806 60.9347 9.44853 61.1917 9.00948C61.4595 8.57042 61.5933 7.99751 61.5933 7.29074C61.5933 6.59468 61.4595 6.02712 61.1917 5.58806C60.9347 5.14901 60.5653 4.92948 60.0834 4.92948C59.8264 4.92948 59.5694 5.01515 59.3124 5.18649C59.0661 5.35783 58.8787 5.572 58.7502 5.82901V8.75247C58.8787 9.00948 59.0661 9.229 59.3124 9.41105C59.5694 9.58239 59.8264 9.66806 60.0834 9.66806ZM71.0212 11.178H69.0775V10.407C68.8634 10.7068 68.5689 10.9424 68.1941 11.1137C67.83 11.2851 67.4445 11.3707 67.0375 11.3707C66.3843 11.3707 65.8221 11.1405 65.3509 10.68C64.8798 10.2196 64.6442 9.5931 64.6442 8.80066C64.6442 7.99751 64.8744 7.37641 65.3349 6.93735C65.806 6.4983 66.3736 6.27877 67.0375 6.27877C67.4552 6.27877 67.846 6.35909 68.2101 6.51971C68.5849 6.68034 68.8741 6.90523 69.0775 7.19436V6.18239C69.0775 5.76475 68.949 5.43814 68.692 5.20255C68.4457 4.95625 68.0977 4.8331 67.6479 4.8331C66.9412 4.8331 66.304 5.11153 65.7364 5.66838L65.0136 4.35121C65.7953 3.60161 66.7912 3.2268 68.0013 3.2268C68.9116 3.2268 69.6397 3.45169 70.1859 3.90145C70.7427 4.3405 71.0212 5.03121 71.0212 5.97357V11.178ZM67.7764 10.0696C68.3761 10.0696 68.8098 9.82333 69.0775 9.33074V8.33483C68.7991 7.83152 68.3654 7.57987 67.7764 7.57987C67.4123 7.57987 67.1179 7.69767 66.893 7.93326C66.6788 8.15814 66.5717 8.45798 66.5717 8.83278C66.5717 9.20759 66.6788 9.50743 66.893 9.73231C67.1179 9.95719 67.4123 10.0696 67.7764 10.0696ZM74.8846 8.99341C75.1416 9.44318 75.5164 9.66806 76.009 9.66806C76.5016 9.66806 76.8764 9.44318 77.1334 8.99341C77.4011 8.53294 77.535 7.96003 77.535 7.27467C77.535 6.61074 77.4011 6.05389 77.1334 5.60413C76.8764 5.15436 76.5016 4.92948 76.009 4.92948C75.5164 4.92948 75.1416 5.15436 74.8846 5.60413C74.6276 6.05389 74.499 6.61074 74.499 7.27467C74.499 7.96003 74.6276 8.53294 74.8846 8.99341ZM76.009 11.3707C74.8846 11.3707 74.0172 10.9638 73.4068 10.1499C72.8071 9.32538 72.5072 8.25452 72.5072 6.93735C72.5072 4.97767 72.7642 3.58019 73.2783 2.74492C73.803 1.89893 74.7132 1.3635 76.009 1.13862C76.8764 0.988696 77.3101 0.763814 77.3101 0.463972H79.2698C79.2698 1.56696 78.3649 2.26838 76.5551 2.56822C75.1309 2.80381 74.3384 3.39814 74.1778 4.35121C74.6918 3.60161 75.4307 3.2268 76.3945 3.2268C77.369 3.2268 78.1346 3.61767 78.6915 4.3994C79.2483 5.18113 79.5268 6.13956 79.5268 7.27467C79.5268 8.4205 79.2162 9.38963 78.5951 10.1821C77.9847 10.9745 77.1227 11.3707 76.009 11.3707ZM84.154 11.3707C83.0617 11.3707 82.2051 10.9799 81.5839 10.1981C80.9628 9.4057 80.6523 8.43656 80.6523 7.29074C80.6523 6.14491 80.9628 5.18113 81.5839 4.3994C82.2051 3.61767 83.0617 3.2268 84.154 3.2268C85.257 3.2268 86.1191 3.61767 86.7402 4.3994C87.3613 5.18113 87.6718 6.14491 87.6718 7.29074C87.6718 8.44727 87.3613 9.41641 86.7402 10.1981C86.1191 10.9799 85.257 11.3707 84.154 11.3707ZM84.154 9.66806C84.6573 9.66806 85.0375 9.44318 85.2945 8.99341C85.5515 8.54365 85.68 7.97609 85.68 7.29074C85.68 6.60538 85.5515 6.04318 85.2945 5.60413C85.0375 5.15436 84.6573 4.92948 84.154 4.92948C83.6614 4.92948 83.2866 5.15436 83.0296 5.60413C82.7833 6.05389 82.6602 6.61609 82.6602 7.29074C82.6602 7.97609 82.7833 8.54365 83.0296 8.99341C83.2866 9.44318 83.6614 9.66806 84.154 9.66806ZM92.2195 11.178H90.2759V5.10617H88.5732V3.41956H93.9383V5.10617H92.2195V11.178ZM95.0496 14.2139L95.3388 12.5112C95.4887 12.5862 95.6547 12.6236 95.8367 12.6236C96.265 12.6236 96.5488 12.4362 96.688 12.0614L96.945 11.3225L94.3268 3.41956H96.3828L97.941 8.84885L99.5151 3.41956H101.571L98.5353 12.4951C98.3104 13.1805 97.9945 13.6517 97.5876 13.9087C97.1806 14.1764 96.6452 14.3156 95.9813 14.3263C95.6065 14.3263 95.2959 14.2888 95.0496 14.2139ZM12.985 26.3707C11.8927 26.3707 11.0682 26.0227 10.5113 25.3266L11.4269 24.1219C11.8124 24.5931 12.2622 24.8287 12.7762 24.8287C13.2259 24.8287 13.6007 24.6681 13.9006 24.3468C14.2004 24.0148 14.3985 23.5704 14.4949 23.0136H11.8285V21.5197H14.4949C14.3985 20.9736 14.2004 20.5452 13.9006 20.2347C13.6007 19.9241 13.2259 19.7689 12.7762 19.7689C12.2515 19.7689 11.8017 20.0044 11.4269 20.4756L10.5113 19.2709C11.0682 18.5748 11.8927 18.2268 12.985 18.2268C14.0344 18.2268 14.8858 18.607 15.539 19.3673C16.1922 20.1276 16.5189 21.1021 16.5189 22.2907C16.5189 23.4901 16.1922 24.4699 15.539 25.2303C14.8858 25.9906 14.0344 26.3707 12.985 26.3707ZM17.4168 26.3707V24.7484C17.7273 24.7484 17.9682 24.5877 18.1396 24.2665C18.3216 23.9345 18.4608 23.3134 18.5572 22.4032L18.9267 18.4196H24.3078V26.178H22.3641V20.1062H20.6775L20.4687 22.5959C20.3509 23.9666 20.0457 24.9411 19.5531 25.5194C19.0712 26.087 18.3591 26.3707 17.4168 26.3707ZM29.4158 26.3707C28.3235 26.3707 27.4454 25.9959 26.7815 25.2463C26.1282 24.4967 25.8016 23.5115 25.8016 22.2907C25.8016 21.1342 26.1175 20.1704 26.7493 19.3994C27.3812 18.6177 28.2218 18.2268 29.2712 18.2268C30.3207 18.2268 31.1399 18.6123 31.7289 19.3833C32.3178 20.1437 32.6123 21.1396 32.6123 22.3711V22.9172H27.7452C27.7881 23.474 27.9701 23.9292 28.2914 24.2825C28.6126 24.6359 29.0571 24.8126 29.6246 24.8126C29.9137 24.8126 30.2136 24.7484 30.5241 24.6199C30.8347 24.4807 31.0971 24.2933 31.3112 24.0577L32.1947 25.2142C31.4879 25.9852 30.5616 26.3707 29.4158 26.3707ZM30.749 21.6C30.7276 21.1181 30.5991 20.6951 30.3635 20.3311C30.1279 19.967 29.7531 19.7849 29.2391 19.7849C28.7465 19.7849 28.3771 19.967 28.1308 20.3311C27.8952 20.6951 27.7667 21.1181 27.7452 21.6H30.749ZM40.6682 26.178H38.4033L36.797 23.1421L35.9778 24.2825V26.178H34.0502V18.4196H35.9778V21.9374L38.339 18.4196H40.5878L38.1302 21.9052L40.6682 26.178ZM44.7923 26.178H42.8487V20.1062H41.146V18.4196H46.5111V20.1062H44.7923V26.178ZM51.6864 26.3707C50.8511 26.3707 50.1979 25.9799 49.7267 25.1981V29.1336H47.7991V18.4196H49.7267V19.3994C50.2193 18.6177 50.8725 18.2268 51.6864 18.2268C52.5645 18.2268 53.2605 18.5909 53.7745 19.3191C54.2993 20.0366 54.5616 21.0271 54.5616 22.2907C54.5616 23.5437 54.2993 24.5396 53.7745 25.2785C53.2605 26.0066 52.5645 26.3707 51.6864 26.3707ZM51.0599 24.6681C51.5418 24.6681 51.9112 24.4485 52.1682 24.0095C52.436 23.5704 52.5698 22.9975 52.5698 22.2907C52.5698 21.5947 52.436 21.0271 52.1682 20.5881C51.9112 20.149 51.5418 19.9295 51.0599 19.9295C50.8029 19.9295 50.5459 20.0151 50.2889 20.1865C50.0426 20.3578 49.8552 20.572 49.7267 20.829V23.7525C49.8552 24.0095 50.0426 24.229 50.2889 24.4111C50.5459 24.5824 50.8029 24.6681 51.0599 24.6681ZM59.1385 26.3707C58.0462 26.3707 57.1895 25.9799 56.5684 25.1981C55.9473 24.4057 55.6367 23.4366 55.6367 22.2907C55.6367 21.1449 55.9473 20.1811 56.5684 19.3994C57.1895 18.6177 58.0462 18.2268 59.1385 18.2268C60.2414 18.2268 61.1035 18.6177 61.7246 19.3994C62.3457 20.1811 62.6562 21.1449 62.6562 22.2907C62.6562 23.4473 62.3457 24.4164 61.7246 25.1981C61.1035 25.9799 60.2414 26.3707 59.1385 26.3707ZM59.1385 24.6681C59.6418 24.6681 60.0219 24.4432 60.2789 23.9934C60.5359 23.5437 60.6644 22.9761 60.6644 22.2907C60.6644 21.6054 60.5359 21.0432 60.2789 20.6041C60.0219 20.1544 59.6418 19.9295 59.1385 19.9295C58.6459 19.9295 58.271 20.1544 58.014 20.6041C57.7677 21.0539 57.6446 21.6161 57.6446 22.2907C57.6446 22.9761 57.7677 23.5437 58.014 23.9934C58.271 24.4432 58.6459 24.6681 59.1385 24.6681ZM72.2798 26.178H70.3684V21.4715L68.6336 26.178H67.7983L66.0795 21.4715V26.178H64.152V18.4196H66.6257L68.2159 22.7405L69.8222 18.4196H72.2798V26.178ZM77.2796 26.3707C76.1873 26.3707 75.3306 25.9799 74.7095 25.1981C74.0884 24.4057 73.7778 23.4366 73.7778 22.2907C73.7778 21.1449 74.0884 20.1811 74.7095 19.3994C75.3306 18.6177 76.1873 18.2268 77.2796 18.2268C78.3826 18.2268 79.2446 18.6177 79.8657 19.3994C80.4868 20.1811 80.7974 21.1449 80.7974 22.2907C80.7974 23.4473 80.4868 24.4164 79.8657 25.1981C79.2446 25.9799 78.3826 26.3707 77.2796 26.3707ZM77.2796 24.6681C77.7829 24.6681 78.163 24.4432 78.42 23.9934C78.6771 23.5437 78.8056 22.9761 78.8056 22.2907C78.8056 21.6054 78.6771 21.0432 78.42 20.6041C78.163 20.1544 77.7829 19.9295 77.2796 19.9295C76.787 19.9295 76.4122 20.1544 76.1552 20.6041C75.9089 21.0539 75.7857 21.6161 75.7857 22.2907C75.7857 22.9761 75.9089 23.5437 76.1552 23.9934C76.4122 24.4432 76.787 24.6681 77.2796 24.6681ZM84.2207 26.178H82.2931V18.4196H84.2207V21.3109H86.6462V18.4196H88.5898V26.178H86.6462V22.9975H84.2207V26.178ZM93.5372 26.178H91.5936V20.1062H89.8909V18.4196H95.2559V20.1062H93.5372V26.178ZM102.503 26.178H100.56V25.407C100.346 25.7068 100.051 25.9424 99.6763 26.1137C99.3122 26.2851 98.9267 26.3707 98.5197 26.3707C97.8665 26.3707 97.3043 26.1405 96.8331 25.68C96.3619 25.2196 96.1263 24.5931 96.1263 23.8007C96.1263 22.9975 96.3566 22.3764 96.817 21.9374C97.2882 21.4983 97.8558 21.2788 98.5197 21.2788C98.9374 21.2788 99.3282 21.3591 99.6923 21.5197C100.067 21.6803 100.356 21.9052 100.56 22.1944V21.1824C100.56 20.7648 100.431 20.4381 100.174 20.2026C99.9279 19.9563 99.5799 19.8331 99.1301 19.8331C98.4233 19.8331 97.7862 20.1115 97.2186 20.6684L96.4958 19.3512C97.2775 18.6016 98.2734 18.2268 99.4835 18.2268C100.394 18.2268 101.122 18.4517 101.668 18.9014C102.225 19.3405 102.503 20.0312 102.503 20.9736V26.178ZM99.2586 25.0696C99.8583 25.0696 100.292 24.8233 100.56 24.3307V23.3348C100.281 22.8315 99.8476 22.5799 99.2586 22.5799C98.8945 22.5799 98.6 22.6977 98.3752 22.9333C98.161 23.1581 98.0539 23.458 98.0539 23.8328C98.0539 24.2076 98.161 24.5074 98.3752 24.7323C98.6 24.9572 98.8945 25.0696 99.2586 25.0696ZM105.837 26.178H103.572L106.11 21.9052L103.652 18.4196H105.901L107.732 21.1503V18.4196H109.66V21.1824L111.507 18.4196H113.74L111.298 21.9052L113.836 26.178H111.571L109.965 23.1421L109.66 23.5758V26.178H107.732V23.5437L107.443 23.1421L105.837 26.178ZM116.832 26.178H114.905V18.4196H116.832V21.3109H119.258V18.4196H121.201V26.178H119.258V22.9975H116.832V26.178ZM124.96 26.178H123.097V18.4196H125.024V22.7887L127.418 18.4196H129.394V26.178H127.45V21.6322L124.96 26.178ZM137.907 26.178H135.642L134.036 23.1421L133.217 24.2825V26.178H131.289V18.4196H133.217V21.9374L135.578 18.4196H137.827L135.369 21.9052L137.907 26.178ZM141.938 26.3707C140.846 26.3707 139.989 25.9799 139.368 25.1981C138.747 24.4057 138.436 23.4366 138.436 22.2907C138.436 21.1449 138.747 20.1811 139.368 19.3994C139.989 18.6177 140.846 18.2268 141.938 18.2268C143.041 18.2268 143.903 18.6177 144.524 19.3994C145.145 20.1811 145.456 21.1449 145.456 22.2907C145.456 23.4473 145.145 24.4164 144.524 25.1981C143.903 25.9799 143.041 26.3707 141.938 26.3707ZM141.938 24.6681C142.441 24.6681 142.822 24.4432 143.079 23.9934C143.336 23.5437 143.464 22.9761 143.464 22.2907C143.464 21.6054 143.336 21.0432 143.079 20.6041C142.822 20.1544 142.441 19.9295 141.938 19.9295C141.445 19.9295 141.071 20.1544 140.814 20.6041C140.567 21.0539 140.444 21.6161 140.444 22.2907C140.444 22.9761 140.567 23.5437 140.814 23.9934C141.071 24.4432 141.445 24.6681 141.938 24.6681ZM155.079 26.178H153.168V21.4715L151.433 26.178H150.598L148.879 21.4715V26.178H146.952V18.4196H149.425L151.016 22.7405L152.622 18.4196H155.079V26.178ZM13.0171 41.178H11.0896V33.4196H13.0171V36.3109H15.4426V33.4196H17.3863V41.178H15.4426V37.9975H13.0171V41.178ZM25.2411 41.178H23.2974V40.407C23.0833 40.7068 22.7888 40.9424 22.414 41.1137C22.0499 41.2851 21.6644 41.3707 21.2574 41.3707C20.6042 41.3707 20.042 41.1405 19.5708 40.68C19.0996 40.2196 18.864 39.5931 18.864 38.8007C18.864 37.9975 19.0943 37.3764 19.5548 36.9374C20.0259 36.4983 20.5935 36.2788 21.2574 36.2788C21.6751 36.2788 22.0659 36.3591 22.43 36.5197C22.8048 36.6803 23.094 36.9052 23.2974 37.1944V36.1824C23.2974 35.7648 23.1689 35.4381 22.9119 35.2026C22.6656 34.9563 22.3176 34.8331 21.8678 34.8331C21.1611 34.8331 20.5239 35.1115 19.9563 35.6684L19.2335 34.3512C20.0152 33.6016 21.0111 33.2268 22.2212 33.2268C23.1314 33.2268 23.8596 33.4517 24.4058 33.9014C24.9626 34.3405 25.2411 35.0312 25.2411 35.9736V41.178ZM21.9963 40.0696C22.596 40.0696 23.0297 39.8233 23.2974 39.3307V38.3348C23.019 37.8315 22.5853 37.5799 21.9963 37.5799C21.6322 37.5799 21.3377 37.6977 21.1129 37.9333C20.8987 38.1581 20.7916 38.458 20.7916 38.8328C20.7916 39.2076 20.8987 39.5074 21.1129 39.7323C21.3377 39.9572 21.6322 40.0696 21.9963 40.0696ZM36.9586 41.178H35.0311V36.0378C35.0311 35.2989 34.6884 34.9295 34.003 34.9295C33.7139 34.9295 33.4462 35.0259 33.1999 35.2186C32.9536 35.4007 32.7555 35.6255 32.6056 35.8933V41.178H30.6619V30.464H32.6056V34.4315C32.8197 34.0996 33.1303 33.8158 33.5372 33.5802C33.9548 33.3446 34.3992 33.2268 34.8704 33.2268C36.2626 33.2268 36.9586 33.9229 36.9586 35.315V41.178ZM45.1507 41.178H43.2232V36.0378C43.2232 35.2989 42.8805 34.9295 42.1951 34.9295C41.906 34.9295 41.6383 35.0259 41.392 35.2186C41.1457 35.4007 40.9476 35.6255 40.7977 35.8933V41.178H38.854V30.464H40.7977V34.4315C41.0118 34.0996 41.3224 33.8158 41.7293 33.5802C42.147 33.3446 42.5914 33.2268 43.0625 33.2268C44.4547 33.2268 45.1507 33.9229 45.1507 35.315V41.178ZM49.0701 41.0013C48.8345 41.2369 48.5454 41.3547 48.2027 41.3547C47.86 41.3547 47.5655 41.2315 47.3192 40.9852C47.0729 40.7389 46.9498 40.4498 46.9498 40.1178C46.9498 39.7751 47.0729 39.4807 47.3192 39.2344C47.5655 38.9881 47.86 38.8649 48.2027 38.8649C48.5347 38.8649 48.8238 38.9881 49.0701 39.2344C49.3164 39.4807 49.4395 39.7751 49.4395 40.1178C49.4395 40.4605 49.3164 40.755 49.0701 41.0013ZM53.1815 41.178H51.2539V33.4196H53.1815V34.4797C53.4064 34.1263 53.7115 33.8318 54.0971 33.5963C54.4933 33.35 54.8949 33.2268 55.3018 33.2268V35.1222C55.1733 35.0901 55.018 35.074 54.836 35.074C54.5254 35.074 54.2095 35.1651 53.8882 35.3471C53.5777 35.5185 53.3421 35.738 53.1815 36.0057V41.178ZM62.8403 41.178H60.9128V40.1981C60.6879 40.5301 60.372 40.8085 59.9651 41.0334C59.5581 41.2583 59.1137 41.3707 58.6318 41.3707C57.2504 41.3707 56.5597 40.6747 56.5597 39.2825V33.4196H58.4873V38.5437C58.4873 39.2933 58.8299 39.6681 59.5153 39.6681C60.0936 39.6681 60.5594 39.3522 60.9128 38.7203V33.4196H62.8403V41.178Z" fill="white"/>
  <path d="M7.02105 11.2441H5.36656L3.35869 8.3528L5.36656 5.50965H7.02105L5.01318 8.3528L7.02105 11.2441ZM4.30641 11.2441H2.66798L0.660112 8.3528L2.66798 5.50965H4.30641L2.29854 8.3528L4.30641 11.2441Z" fill="white"/>
  <path d="M70.4114 38.1651L68.4035 41.0564H66.7651L68.773 38.1651L66.7651 35.3219H68.4035L70.4114 38.1651ZM73.126 38.1651L71.1182 41.0564H69.4637L71.4715 38.1651L69.4637 35.3219H71.1182L73.126 38.1651Z" fill="white"/>
  </svg>
  