<svg width="174" height="70" viewBox="0 0 174 70" fill="none" xmlns="http://www.w3.org/2000/svg">
  <path d="M10.964 17.6156H8.11376L4.65479 12.6346L8.11376 7.73675H10.964L7.50498 12.6346L10.964 17.6156ZM6.28742 17.6156H3.4649L0.00593399 12.6346L3.4649 7.73675H6.28742L2.82845 12.6346L6.28742 17.6156Z" fill="white"/>
  <path d="M21.0553 19.3589H17.8453V5.99343H21.166V13.5201L25.2891 5.99343H28.6927V19.3589H25.3444V11.5278L21.0553 19.3589ZM45.4894 5.99343H48.81V16.4534H50.3043V22.7625H46.956V19.3589H31.9579V5.99343H35.2786V16.4534H38.7099V5.99343H42.0581V16.4534H45.4894V5.99343ZM55.685 19.3589H52.475V5.99343H55.7957V13.5201L59.9187 5.99343H63.3224V19.3589H59.9741V11.5278L55.685 19.3589ZM71.8453 19.3589H68.497V8.89896H65.5638V5.99343H74.8061V8.89896H71.8453V19.3589ZM82.5594 19.6909C78.7961 19.6909 76.3333 16.8684 76.3333 12.6623C76.3333 8.78827 78.6024 5.66137 82.3104 5.66137C85.9907 5.66137 88.0661 8.64992 88.0661 12.8007V13.7415H79.6816C79.8199 15.5679 80.8991 17.0068 82.9192 17.0068C83.86 17.0068 85.0776 16.5364 85.8247 15.7062L87.3466 17.6986C86.1568 18.9992 84.3581 19.6909 82.5594 19.6909ZM84.8562 11.4724C84.8008 10.0888 84.1921 8.34553 82.255 8.34553C80.401 8.34553 79.7369 10.0888 79.6816 11.4724H84.8562ZM103.326 19.6909C102.054 19.6909 100.781 19.0545 99.9505 17.6709V24.4505H96.6299V5.99343H99.9505V7.6814C100.781 6.35316 102.026 5.66137 103.326 5.66137C106.343 5.66137 108.28 8.29018 108.28 12.6623C108.28 17.0068 106.343 19.6909 103.326 19.6909ZM102.247 16.7577C103.963 16.7577 104.848 15.0144 104.848 12.6623C104.848 10.3379 103.963 8.59457 102.247 8.59457C101.362 8.59457 100.393 9.2587 99.9505 10.1442V15.1805C100.393 16.0383 101.362 16.7577 102.247 16.7577ZM121.09 19.3589H117.741V18.0306C116.994 19.0822 115.583 19.6909 114.227 19.6909C112.124 19.6909 110.104 18.1137 110.104 15.2635C110.104 12.3303 112.124 10.919 114.227 10.919C115.611 10.919 117.022 11.4724 117.741 12.4963V10.753C117.741 9.31404 116.856 8.42854 115.279 8.42854C114.116 8.42854 112.982 8.89896 111.986 9.86747L110.741 7.59839C112.152 6.24247 114.172 5.66137 115.887 5.66137C118.793 5.66137 121.09 6.96194 121.09 10.3932V19.3589ZM115.5 17.4495C116.413 17.4495 117.299 16.9791 117.741 16.1766V14.461C117.299 13.6585 116.413 13.1604 115.5 13.1604C114.255 13.1604 113.425 14.0459 113.425 15.3188C113.425 16.5917 114.255 17.4495 115.5 17.4495ZM129.682 16.7577C131.481 16.7577 132.311 14.8484 132.311 12.6346C132.311 10.5039 131.481 8.59457 129.682 8.59457C127.911 8.59457 127.081 10.5039 127.081 12.6346C127.081 14.8484 127.911 16.7577 129.682 16.7577ZM129.682 19.6909C125.67 19.6909 123.65 16.4257 123.65 12.0535C123.65 5.24629 125.255 2.83885 129.682 2.06404C131.26 1.78732 131.924 1.48293 131.924 0.901823H135.3C135.3 3.50297 132.477 4.22243 130.623 4.52682C127.967 4.96957 126.804 5.99343 126.528 7.59839C127.358 6.38083 128.686 5.66137 130.346 5.66137C133.833 5.66137 135.742 8.92663 135.742 12.6346C135.742 16.3427 133.695 19.6909 129.682 19.6909ZM143.714 19.6909C139.784 19.6909 137.681 16.4257 137.681 12.6623C137.681 8.92663 139.784 5.66137 143.714 5.66137C147.699 5.66137 149.774 8.92663 149.774 12.6623C149.774 16.4257 147.699 19.6909 143.714 19.6909ZM143.714 16.7577C145.54 16.7577 146.343 14.8761 146.343 12.6623C146.343 10.4763 145.54 8.59457 143.714 8.59457C141.943 8.59457 141.14 10.4763 141.14 12.6623C141.14 14.8761 141.943 16.7577 143.714 16.7577ZM157.608 19.3589H154.26V8.89896H151.327V5.99343H160.569V8.89896H157.608V19.3589ZM162.484 24.5888L162.982 21.6556C163.203 21.7663 163.591 21.8493 163.84 21.8493C164.587 21.8493 165.057 21.5726 165.306 20.8808L165.749 19.6079L161.238 5.99343H164.78L167.465 15.3465L170.176 5.99343H173.718L168.488 21.628C167.658 24.0908 166.219 24.7549 164.089 24.7826C163.674 24.7826 162.843 24.6995 162.484 24.5888ZM17.541 49.5888L18.0391 46.6556C18.2604 46.7663 18.6478 46.8493 18.8969 46.8493C19.644 46.8493 20.1144 46.5726 20.3635 45.8808L20.8062 44.6079L16.2957 30.9934H19.8377L22.5219 40.3465L25.2337 30.9934H28.7757L23.5457 46.628C22.7156 49.0908 21.2766 49.7549 19.1459 49.7826C18.7308 49.7826 17.9007 49.6995 17.541 49.5888ZM30.1666 30.9934H33.5149V35.0612C33.5149 36.4448 34.1514 36.9705 35.5903 36.9705C36.4481 36.9705 37.2229 36.7492 37.6657 36.5001V30.9934H41.014V44.3589H37.6657V39.1013C36.9739 39.544 35.7563 39.9037 34.4281 39.9037C31.2735 39.9037 30.1666 38.5478 30.1666 36.1957V30.9934ZM47.4969 44.3589H44.287V30.9934H47.6076V38.5201L51.7307 30.9934H55.1343V44.3589H51.7861V36.5278L47.4969 44.3589ZM63.6572 44.3589H60.309V33.899H57.3758V30.9934H66.6181V33.899H63.6572V44.3589ZM74.3714 44.6909C70.608 44.6909 68.1453 41.8684 68.1453 37.6623C68.1453 33.7883 70.4143 30.6614 74.1224 30.6614C77.8027 30.6614 79.8781 33.6499 79.8781 37.8007V38.7415H71.4935C71.6319 40.5679 72.7111 42.0068 74.7311 42.0068C75.672 42.0068 76.8895 41.5364 77.6367 40.7062L79.1586 42.6986C77.9687 43.9992 76.1701 44.6909 74.3714 44.6909ZM76.6682 36.4724C76.6128 35.0888 76.004 33.3455 74.067 33.3455C72.213 33.3455 71.5489 35.0888 71.4935 36.4724H76.6682ZM81.3313 44.6909V41.8961C82.3275 41.8961 82.9639 41.1766 83.296 37.856L83.9324 30.9934H93.2025V44.3589H89.8542V33.899H86.9486L86.5889 38.1881C86.1738 43.0306 84.4859 44.6909 81.3313 44.6909ZM102.002 44.6909C98.2387 44.6909 95.7759 41.8684 95.7759 37.6623C95.7759 33.7883 98.045 30.6614 101.753 30.6614C105.433 30.6614 107.509 33.6499 107.509 37.8007V38.7415H99.1242C99.2626 40.5679 100.342 42.0068 102.362 42.0068C103.303 42.0068 104.52 41.5364 105.267 40.7062L106.789 42.6986C105.599 43.9992 103.801 44.6909 102.002 44.6909ZM104.299 36.4724C104.243 35.0888 103.635 33.3455 101.698 33.3455C99.8437 33.3455 99.1796 35.0888 99.1242 36.4724H104.299ZM123.988 44.3589H120.695V36.2511L117.706 44.3589H116.267L113.306 36.2511V44.3589H109.986V30.9934H114.247L116.987 38.4371L119.754 30.9934H123.988V44.3589ZM21.166 69.3589H17.8453V55.9934H21.166V60.9743H25.3444V55.9934H28.6927V69.3589H25.3444V63.8799H21.166V69.3589ZM42.2242 69.3589H38.8759V68.0306C38.1287 69.0822 36.7175 69.6909 35.3616 69.6909C33.2585 69.6909 31.2385 68.1137 31.2385 65.2635C31.2385 62.3303 33.2585 60.919 35.3616 60.919C36.7452 60.919 38.1564 61.4724 38.8759 62.4963V60.753C38.8759 59.314 37.9904 58.4285 36.4131 58.4285C35.2509 58.4285 34.1163 58.899 33.1202 59.8675L31.8749 57.5984C33.2862 56.2425 35.3062 55.6614 37.0219 55.6614C39.9274 55.6614 42.2242 56.9619 42.2242 60.3932V69.3589ZM36.6345 67.4495C37.5476 67.4495 38.4331 66.9791 38.8759 66.1766V64.461C38.4331 63.6585 37.5476 63.1604 36.6345 63.1604C35.3892 63.1604 34.5591 64.0459 34.5591 65.3188C34.5591 66.5917 35.3892 67.4495 36.6345 67.4495ZM62.4101 69.3589H59.0895V60.5039C59.0895 59.1203 58.4253 58.5946 57.3185 58.5946C56.2393 58.5946 55.3538 59.4524 54.911 60.2549V69.3589H51.5627V50.9018H54.911V57.7367C55.6028 56.6852 57.0971 55.6614 58.8127 55.6614C61.3032 55.6614 62.4101 57.0173 62.4101 59.2587V69.3589ZM76.5227 69.3589H73.202V60.5039C73.202 59.1203 72.5379 58.5946 71.4311 58.5946C70.3519 58.5946 69.4664 59.4524 69.0236 60.2549V69.3589H65.6753V50.9018H69.0236V57.7367C69.7154 56.6852 71.2097 55.6614 72.9253 55.6614C75.4158 55.6614 76.5227 57.0173 76.5227 59.2587V69.3589ZM81.7803 69.6633C80.6181 69.6633 79.6219 68.6948 79.6219 67.5326C79.6219 66.3703 80.6181 65.3742 81.7803 65.3742C82.9425 65.3742 83.911 66.3703 83.911 67.5326C83.911 68.6948 82.9425 69.6633 81.7803 69.6633ZM90.3572 69.3589H87.0366V55.9934H90.3572V57.8198C91.1044 56.6299 92.571 55.6614 94.0099 55.6614V58.9266C93.7885 58.8713 93.5118 58.8436 93.2074 58.8436C92.1559 58.8436 90.9107 59.5354 90.3572 60.4486V69.3589ZM106.997 69.3589H103.676V67.6709C102.957 68.7224 101.49 69.6909 99.7466 69.6909C97.2838 69.6909 96.177 68.335 96.177 66.0936V55.9934H99.4976V64.8207C99.4976 66.232 100.162 66.7577 101.269 66.7577C102.348 66.7577 103.206 65.9553 103.676 65.1251V55.9934H106.997V69.3589Z" fill="white"/>
  <path d="M113.342 57.3463L116.192 57.3463L119.651 62.3273L116.192 67.2252L113.342 67.2252L116.801 62.3273L113.342 57.3463ZM118.018 57.3463L120.841 57.3463L124.3 62.3273L120.841 67.2252L118.018 67.2252L121.477 62.3273L118.018 57.3463Z" fill="white"/>
  </svg>
  