<svg width="607" height="552" viewBox="0 0 607 552" fill="none" xmlns="http://www.w3.org/2000/svg">
  <path d="M218.516 114.216C236.176 100.687 254.079 88.1713 272.029 76.7895C292.012 64.1116 312.915 52.4058 333.962 42.1582C358.59 30.2094 384.476 19.8402 410.216 12.3874C441.957 3.19289 474.907 -1.87017 505.293 0.641107C545.355 3.92197 576.854 19.9212 593.691 50.5426C615.707 90.642 610.675 151.723 571.144 227.345C525.324 314.996 443.844 402.851 343.687 468.549C253.014 528.009 167.567 555.552 102.054 550.53C52.3624 546.722 23.3316 524.364 9.73543 494.391C-0.715687 471.465 -2.11885 443.963 2.52609 415.771C6.25172 393.089 13.8965 369.394 24.396 345.982C33.2504 326.176 44.3789 305.964 57.3944 285.793C68.91 267.93 81.3449 250.959 94.1185 235.081C106.021 220.297 118.746 205.837 131.81 192.106C144.535 178.739 158.132 165.494 172.212 152.776C186.485 139.855 202.017 126.894 218.516 114.216Z" fill="#D6001C"/>
  </svg>
  