<svg width="149" height="28" viewBox="0 0 149 28" fill="none" xmlns="http://www.w3.org/2000/svg">
  <path d="M6.27441 8.4979H4.67997L2.74497 5.71151L4.67997 2.97155H6.27441L4.33941 5.71151L6.27441 8.4979ZM3.65829 8.4979H2.07933L0.144332 5.71151L2.07933 2.97155H3.65829L1.72329 5.71151L3.65829 8.4979Z" fill="white"/>
  <path d="M11.9197 10.4731H10.124V2.99631H11.9816V7.20687L14.2881 2.99631H16.1922V10.4731H14.3191V6.09231L11.9197 10.4731ZM25.5885 2.99631H27.4461V8.84775H28.282V12.3772H26.409V10.4731H18.0188V2.99631H19.8764V8.84775H21.7959V2.99631H23.669V8.84775H25.5885V2.99631ZM31.2921 10.4731H29.4964V2.99631H31.354V7.20687L33.6605 2.99631H35.5645V10.4731H33.6915V6.09231L31.2921 10.4731ZM40.3324 10.4731H38.4593V4.62171H36.8184V2.99631H41.9887V4.62171H40.3324V10.4731ZM46.326 10.6589C44.2208 10.6589 42.843 9.07994 42.843 6.72699C42.843 4.55979 44.1124 2.81055 46.1867 2.81055C48.2455 2.81055 49.4065 4.48239 49.4065 6.80439V7.33071H44.7161C44.7935 8.35239 45.3972 9.15734 46.5273 9.15734C47.0536 9.15734 47.7347 8.89418 48.1527 8.42979L49.0041 9.54434C48.3384 10.2719 47.3322 10.6589 46.326 10.6589ZM47.6109 6.06135C47.5799 5.28735 47.2394 4.31211 46.1558 4.31211C45.1186 4.31211 44.7471 5.28735 44.7161 6.06135H47.6109ZM57.9434 10.6589C57.2313 10.6589 56.5192 10.3029 56.0548 9.52886V13.3215H54.1972V2.99631H56.0548V3.94059C56.5192 3.19755 57.2158 2.81055 57.9434 2.81055C59.6307 2.81055 60.7143 4.28115 60.7143 6.72699C60.7143 9.15734 59.6307 10.6589 57.9434 10.6589ZM57.3397 9.01802C58.2994 9.01802 58.7948 8.04279 58.7948 6.72699C58.7948 5.42667 58.2994 4.45143 57.3397 4.45143C56.8443 4.45143 56.3025 4.82295 56.0548 5.31831V8.13567C56.3025 8.61555 56.8443 9.01802 57.3397 9.01802ZM67.8805 10.4731H66.0074V9.7301C65.5894 10.3183 64.8 10.6589 64.0414 10.6589C62.865 10.6589 61.7349 9.77654 61.7349 8.18211C61.7349 6.54123 62.865 5.75175 64.0414 5.75175C64.8154 5.75175 65.6049 6.06135 66.0074 6.63411V5.65887C66.0074 4.85391 65.512 4.35855 64.6297 4.35855C63.9795 4.35855 63.3448 4.62171 62.7876 5.16351L62.091 3.89415C62.8804 3.13563 64.0105 2.81055 64.9702 2.81055C66.5956 2.81055 67.8805 3.53811 67.8805 5.45763V10.4731ZM64.7535 9.40502C65.2644 9.40502 65.7597 9.14186 66.0074 8.69295V7.73319C65.7597 7.28427 65.2644 7.00563 64.7535 7.00563C64.0569 7.00563 63.5925 7.50099 63.5925 8.21307C63.5925 8.92515 64.0569 9.40502 64.7535 9.40502ZM72.6873 9.01802C73.6935 9.01802 74.1579 7.94991 74.1579 6.71151C74.1579 5.51955 73.6935 4.45143 72.6873 4.45143C71.6965 4.45143 71.2321 5.51955 71.2321 6.71151C71.2321 7.94991 71.6965 9.01802 72.6873 9.01802ZM72.6873 10.6589C70.4427 10.6589 69.3126 8.83226 69.3126 6.38643C69.3126 2.57835 70.2105 1.23159 72.6873 0.798148C73.5696 0.643347 73.9411 0.473067 73.9411 0.147987H75.8297C75.8297 1.60311 74.2507 2.00559 73.2136 2.17587C71.7275 2.42355 71.0773 2.99631 70.9225 3.89415C71.3869 3.21303 72.13 2.81055 73.0588 2.81055C75.0093 2.81055 76.0774 4.63719 76.0774 6.71151C76.0774 8.78583 74.9319 10.6589 72.6873 10.6589ZM80.5367 10.6589C78.3385 10.6589 77.1621 8.83226 77.1621 6.72699C77.1621 4.63719 78.3385 2.81055 80.5367 2.81055C82.7658 2.81055 83.9268 4.63719 83.9268 6.72699C83.9268 8.83226 82.7658 10.6589 80.5367 10.6589ZM80.5367 9.01802C81.5584 9.01802 82.0073 7.96539 82.0073 6.72699C82.0073 5.50407 81.5584 4.45143 80.5367 4.45143C79.546 4.45143 79.0971 5.50407 79.0971 6.72699C79.0971 7.96539 79.546 9.01802 80.5367 9.01802ZM88.3095 10.4731H86.4364V4.62171H84.7955V2.99631H89.9658V4.62171H88.3095V10.4731ZM91.0368 13.3989L91.3155 11.758C91.4393 11.8199 91.656 11.8663 91.7954 11.8663C92.2133 11.8663 92.4765 11.7115 92.6158 11.3245L92.8635 10.6125L90.3402 2.99631H92.3217L93.8232 8.22855L95.3403 2.99631H97.3217L94.396 11.7425C93.9316 13.1202 93.1266 13.4917 91.9347 13.5072C91.7025 13.5072 91.2381 13.4608 91.0368 13.3989ZM11.9197 24.4731H10.124V16.9963H11.9816V21.2069L14.2881 16.9963H16.1922V24.4731H14.3191V20.0923L11.9197 24.4731ZM19.8764 24.4731H18.0188V16.9963H19.8764V19.7827H22.2139V16.9963H24.087V24.4731H22.2139V21.4081H19.8764V24.4731ZM27.3068 24.4731H25.1241L27.57 20.3555L25.2015 16.9963H27.3687L29.1334 19.6279V16.9963H30.991V19.6589L32.7712 16.9963H34.923L32.57 20.3555L35.0158 24.4731H32.8332L31.2852 21.5474L30.991 21.9654V24.4731H29.1334V21.9344L28.8548 21.5474L27.3068 24.4731ZM39.0057 24.6589C36.9004 24.6589 35.5227 23.0799 35.5227 20.727C35.5227 18.5598 36.792 16.8105 38.8664 16.8105C40.9252 16.8105 42.0862 18.4824 42.0862 20.8044V21.3307H37.3958C37.4732 22.3524 38.0769 23.1573 39.2069 23.1573C39.7332 23.1573 40.4144 22.8942 40.8323 22.4298L41.6837 23.5443C41.0181 24.2719 40.0119 24.6589 39.0057 24.6589ZM40.2905 20.0613C40.2596 19.2873 39.919 18.3121 38.8354 18.3121C37.7982 18.3121 37.4267 19.2873 37.3958 20.0613H40.2905ZM45.3295 24.4731H43.4719V16.9963H45.3295V19.7827H47.667V16.9963H49.5401V24.4731H47.667V21.4081H45.3295V24.4731ZM54.4627 24.6589C52.3574 24.6589 50.9797 23.0799 50.9797 20.727C50.9797 18.5598 52.2491 16.8105 54.3234 16.8105C56.3822 16.8105 57.5432 18.4824 57.5432 20.8044V21.3307H52.8528C52.9302 22.3524 53.5339 23.1573 54.6639 23.1573C55.1903 23.1573 55.8714 22.8942 56.2893 22.4298L57.1407 23.5443C56.4751 24.2719 55.4689 24.6589 54.4627 24.6589ZM55.7475 20.0613C55.7166 19.2873 55.376 18.3121 54.2924 18.3121C53.2553 18.3121 52.8837 19.2873 52.8528 20.0613H55.7475ZM62.6751 24.6589C61.963 24.6589 61.2509 24.3029 60.7865 23.5289V27.3215H58.9289V16.9963H60.7865V17.9406C61.2509 17.1975 61.9475 16.8105 62.6751 16.8105C64.3624 16.8105 65.446 18.2811 65.446 20.727C65.446 23.1573 64.3624 24.6589 62.6751 24.6589ZM62.0714 23.018C63.0311 23.018 63.5265 22.0428 63.5265 20.727C63.5265 19.4267 63.0311 18.4514 62.0714 18.4514C61.576 18.4514 61.0342 18.8229 60.7865 19.3183V22.1357C61.0342 22.6155 61.576 23.018 62.0714 23.018ZM69.8567 24.6589C67.6585 24.6589 66.4821 22.8323 66.4821 20.727C66.4821 18.6372 67.6585 16.8105 69.8567 16.8105C72.0858 16.8105 73.2468 18.6372 73.2468 20.727C73.2468 22.8323 72.0858 24.6589 69.8567 24.6589ZM69.8567 23.018C70.8784 23.018 71.3273 21.9654 71.3273 20.727C71.3273 19.5041 70.8784 18.4514 69.8567 18.4514C68.866 18.4514 68.4171 19.5041 68.4171 20.727C68.4171 21.9654 68.866 23.018 69.8567 23.018ZM82.5212 24.4731H80.679V19.9375L79.0072 24.4731H78.2022L76.5459 19.9375V24.4731H74.6883V16.9963H77.0722L78.6047 21.1604L80.1527 16.9963H82.5212V24.4731ZM89.6144 24.4731H87.7568V16.9963H89.6144V19.7827H91.9519V16.9963H93.8249V24.4731H91.9519V21.4081H89.6144V24.4731ZM101.395 24.4731H99.5216V23.7301C99.1036 24.3183 98.3141 24.6589 97.5556 24.6589C96.3791 24.6589 95.2491 23.7765 95.2491 22.1821C95.2491 20.5412 96.3791 19.7517 97.5556 19.7517C98.3296 19.7517 99.1191 20.0613 99.5216 20.6341V19.6589C99.5216 18.8539 99.0262 18.3585 98.1439 18.3585C97.4937 18.3585 96.859 18.6217 96.3017 19.1635L95.6051 17.8941C96.3946 17.1356 97.5247 16.8105 98.4844 16.8105C100.11 16.8105 101.395 17.5381 101.395 19.4576V24.4731ZM98.2677 23.405C98.7785 23.405 99.2739 23.1419 99.5216 22.6929V21.7332C99.2739 21.2843 98.7785 21.0056 98.2677 21.0056C97.5711 21.0056 97.1067 21.501 97.1067 22.2131C97.1067 22.9251 97.5711 23.405 98.2677 23.405ZM112.687 24.4731H110.829V19.5195C110.829 18.7455 110.458 18.4514 109.839 18.4514C109.235 18.4514 108.74 18.9313 108.492 19.3802V24.4731H106.619V14.148H108.492V17.9715C108.879 17.3833 109.715 16.8105 110.675 16.8105C112.068 16.8105 112.687 17.5691 112.687 18.8229V24.4731ZM120.582 24.4731H118.724V19.5195C118.724 18.7455 118.353 18.4514 117.733 18.4514C117.13 18.4514 116.634 18.9313 116.387 19.3802V24.4731H114.514V14.148H116.387V17.9715C116.774 17.3833 117.61 16.8105 118.569 16.8105C119.963 16.8105 120.582 17.5691 120.582 18.8229V24.4731ZM123.523 24.6434C122.873 24.6434 122.316 24.1016 122.316 23.4515C122.316 22.8013 122.873 22.244 123.523 22.244C124.173 22.244 124.715 22.8013 124.715 23.4515C124.715 24.1016 124.173 24.6434 123.523 24.6434ZM128.321 24.4731H126.463V16.9963H128.321V18.018C128.739 17.3523 129.559 16.8105 130.364 16.8105V18.6372C130.241 18.6062 130.086 18.5907 129.915 18.5907C129.327 18.5907 128.631 18.9777 128.321 19.4886V24.4731ZM137.629 24.4731H135.772V23.5289C135.369 24.1171 134.549 24.6589 133.574 24.6589C132.196 24.6589 131.577 23.9004 131.577 22.6465V16.9963H133.434V21.9344C133.434 22.7239 133.806 23.018 134.425 23.018C135.029 23.018 135.509 22.5691 135.772 22.1047V16.9963H137.629V24.4731Z" fill="white"/>
  <path d="M142.302 18.3407L143.896 18.3407L145.831 21.1271L143.896 23.8671L142.302 23.8671L144.237 21.1271L142.302 18.3407ZM144.918 18.3407L146.497 18.3407L148.432 21.1271L146.497 23.8671L144.918 23.8671L146.853 21.1271L144.918 18.3407Z" fill="white"/>
  </svg>
  