<svg width="334" height="202" viewBox="0 0 334 202" fill="none" xmlns="http://www.w3.org/2000/svg">
  <path d="M334 0L39.9514 0.000185796C25.9673 0.000194632 18.9752 0.00019905 13.634 2.7217C8.93569 5.1156 5.11587 8.93542 2.72197 13.6337C0.000477202 18.9749 0.000477202 25.967 0.000477202 39.9512V161.415C0.000477202 175.399 0.000477202 182.391 2.72197 187.732C5.11587 192.431 8.9357 196.251 13.634 198.644C18.9752 201.366 25.9673 201.366 39.9515 201.366H294.049C308.034 201.366 315.026 201.366 320.367 198.644C325.065 196.251 328.885 192.431 331.279 187.732C334 182.391 334 175.399 334 161.415L334 0Z" fill="#D6001C"/>
  </svg>
  