<svg width="277" height="118" viewBox="0 0 277 118" fill="none" xmlns="http://www.w3.org/2000/svg">
  <path d="M30.6977 30.5762H25.5261V9.04265H30.8761V21.1692L37.5189 9.04265H43.0026V30.5762H37.6081V17.9592L30.6977 30.5762ZM70.0644 9.04265H75.4144V25.895H77.8218V36.0599H72.4273V30.5762H48.2634V9.04265H53.6133V25.895H59.1416V9.04265H64.5361V25.895H70.0644V9.04265ZM86.4908 30.5762H81.3191V9.04265H86.6691V21.1692L93.3119 9.04265H98.7956V30.5762H93.4011V17.9592L86.4908 30.5762ZM112.527 30.5762H107.133V13.7238H102.407V9.04265H117.298V13.7238H112.527V30.5762ZM129.789 31.1112C126.757 31.1112 124.32 30.0709 122.477 27.9904C120.664 25.9098 119.758 23.1754 119.758 19.7871C119.758 16.5772 120.635 13.9022 122.388 11.7622C124.142 9.5925 126.475 8.50765 129.388 8.50765C132.301 8.50765 134.574 9.57764 136.209 11.7176C137.844 13.8279 138.661 16.592 138.661 20.01V21.5258H125.152C125.271 23.0714 125.777 24.3346 126.668 25.3154C127.56 26.2962 128.793 26.7866 130.369 26.7866C131.171 26.7866 132.003 26.6083 132.865 26.2516C133.727 25.8652 134.455 25.3451 135.05 24.6912L137.502 27.9012C135.54 30.0412 132.969 31.1112 129.789 31.1112ZM133.489 17.8701C133.43 16.5326 133.073 15.3586 132.419 14.348C131.766 13.3375 130.725 12.8322 129.299 12.8322C127.931 12.8322 126.906 13.3375 126.222 14.348C125.569 15.3586 125.212 16.5326 125.152 17.8701H133.489ZM163.247 31.1112C160.929 31.1112 159.116 30.0263 157.808 27.8566V38.7794H152.458V9.04265H157.808V11.7622C159.176 9.5925 160.989 8.50765 163.247 8.50765C165.685 8.50765 167.617 9.5182 169.043 11.5393C170.5 13.5307 171.228 16.2799 171.228 19.7871C171.228 23.2646 170.5 26.0287 169.043 28.0795C167.617 30.1006 165.685 31.1112 163.247 31.1112ZM161.509 26.3854C162.846 26.3854 163.872 25.7761 164.585 24.5575C165.328 23.3389 165.7 21.7488 165.7 19.7871C165.7 17.8552 165.328 16.2799 164.585 15.0613C163.872 13.8427 162.846 13.2334 161.509 13.2334C160.795 13.2334 160.082 13.4712 159.369 13.9468C158.685 14.4223 158.165 15.0168 157.808 15.7301V23.8442C158.165 24.5575 158.685 25.1668 159.369 25.6721C160.082 26.1476 160.795 26.3854 161.509 26.3854ZM191.867 30.5762H186.472V28.4362C185.878 29.2684 185.06 29.9223 184.02 30.3978C183.009 30.8734 181.939 31.1112 180.81 31.1112C178.997 31.1112 177.437 30.4721 176.129 29.1941C174.821 27.9161 174.167 26.1773 174.167 23.9779C174.167 21.7488 174.806 20.0249 176.084 18.8063C177.392 17.5877 178.967 16.9784 180.81 16.9784C181.969 16.9784 183.054 17.2013 184.065 17.6471C185.105 18.093 185.907 18.7171 186.472 19.5196V16.7109C186.472 15.5517 186.115 14.6452 185.402 13.9913C184.718 13.3077 183.752 12.9659 182.504 12.9659C180.542 12.9659 178.774 13.7387 177.199 15.2842L175.193 11.6285C177.362 9.54792 180.126 8.50765 183.485 8.50765C186.011 8.50765 188.032 9.13181 189.548 10.3801C191.094 11.5987 191.867 13.5158 191.867 16.1313V30.5762ZM182.861 27.5C184.525 27.5 185.729 26.8163 186.472 25.4491V22.685C185.699 21.2881 184.496 20.5896 182.861 20.5896C181.85 20.5896 181.033 20.9166 180.409 21.5704C179.814 22.1946 179.517 23.0268 179.517 24.0671C179.517 25.1073 179.814 25.9396 180.409 26.5637C181.033 27.1879 181.85 27.5 182.861 27.5ZM202.589 24.5129C203.303 25.7612 204.343 26.3854 205.71 26.3854C207.077 26.3854 208.118 25.7612 208.831 24.5129C209.574 23.2349 209.946 21.6447 209.946 19.7425C209.946 17.8998 209.574 16.3542 208.831 15.1059C208.118 13.8576 207.077 13.2334 205.71 13.2334C204.343 13.2334 203.303 13.8576 202.589 15.1059C201.876 16.3542 201.519 17.8998 201.519 19.7425C201.519 21.6447 201.876 23.2349 202.589 24.5129ZM205.71 31.1112C202.589 31.1112 200.182 29.9817 198.488 27.7229C196.823 25.4343 195.991 22.4621 195.991 18.8063C195.991 13.3672 196.704 9.48847 198.131 7.17017C199.588 4.82213 202.114 3.33604 205.71 2.71188C208.118 2.29577 209.321 1.67161 209.321 0.839397H214.761C214.761 3.90076 212.249 5.84754 207.226 6.67975C203.273 7.33364 201.074 8.9832 200.628 11.6285C202.054 9.54792 204.105 8.50765 206.78 8.50765C209.485 8.50765 211.61 9.5925 213.156 11.7622C214.701 13.9319 215.474 16.592 215.474 19.7425C215.474 22.9228 214.612 25.6126 212.888 27.812C211.194 30.0115 208.801 31.1112 205.71 31.1112ZM228.317 31.1112C225.285 31.1112 222.907 30.0263 221.184 27.8566C219.46 25.6572 218.598 22.9674 218.598 19.7871C218.598 16.6069 219.46 13.9319 221.184 11.7622C222.907 9.5925 225.285 8.50765 228.317 8.50765C231.378 8.50765 233.771 9.5925 235.495 11.7622C237.219 13.9319 238.081 16.6069 238.081 19.7871C238.081 22.9971 237.219 25.6869 235.495 27.8566C233.771 30.0263 231.378 31.1112 228.317 31.1112ZM228.317 26.3854C229.714 26.3854 230.769 25.7612 231.482 24.5129C232.196 23.2646 232.552 21.6893 232.552 19.7871C232.552 17.8849 232.196 16.3245 231.482 15.1059C230.769 13.8576 229.714 13.2334 228.317 13.2334C226.95 13.2334 225.909 13.8576 225.196 15.1059C224.512 16.3542 224.171 17.9146 224.171 19.7871C224.171 21.6893 224.512 23.2646 225.196 24.5129C225.909 25.7612 226.95 26.3854 228.317 26.3854ZM250.703 30.5762H245.308V13.7238H240.582V9.04265H255.473V13.7238H250.703V30.5762ZM258.558 39.0023L259.36 34.2765C259.776 34.4846 260.237 34.5886 260.742 34.5886C261.931 34.5886 262.719 34.0685 263.105 33.0282L263.818 30.9774L256.551 9.04265H262.258L266.583 24.1117L270.952 9.04265H276.658L268.232 34.232C267.608 36.1342 266.731 37.4419 265.602 38.1553C264.472 38.8983 262.986 39.2847 261.143 39.3144C260.103 39.3144 259.241 39.2104 258.558 39.0023ZM34.2644 74.1112C31.3219 74.1112 28.9441 73.056 27.1311 70.9458C25.3181 68.8355 24.4116 66.116 24.4116 62.7871C24.4116 59.488 25.3181 56.7833 27.1311 54.673C28.9441 52.5628 31.3219 51.5077 34.2644 51.5077C37.2366 51.5077 39.5251 52.4736 41.1301 54.4055L38.4552 58.1059C37.4446 56.8576 36.2409 56.2334 34.8439 56.2334C33.3281 56.2334 32.1244 56.8576 31.2327 58.1059C30.3708 59.3245 29.9398 60.8849 29.9398 62.7871C29.9398 64.719 30.3708 66.3092 31.2327 67.5575C32.1244 68.7761 33.3281 69.3854 34.8439 69.3854C36.2409 69.3854 37.4446 68.7612 38.4552 67.5129L41.1301 71.2133C39.5251 73.1452 37.2366 74.1112 34.2644 74.1112ZM55.9717 73.5762H44.7368V52.0426H55.6596C57.8293 52.0426 59.464 52.5628 60.5637 53.603C61.6932 54.6433 62.2579 55.9659 62.2579 57.5709C62.2579 58.8192 61.9161 59.8744 61.2325 60.7363C60.5489 61.5685 59.6572 62.1332 58.5575 62.4305C59.7761 62.698 60.7718 63.3221 61.5446 64.3029C62.3173 65.2838 62.7037 66.4281 62.7037 67.7358C62.7037 69.4597 62.139 70.8715 61.0096 71.9712C59.8801 73.0412 58.2008 73.5762 55.9717 73.5762ZM54.7234 69.2516C56.3878 69.2516 57.22 68.5086 57.22 67.0225C57.22 66.3686 56.9971 65.8336 56.5513 65.4175C56.1352 64.9717 55.5259 64.7488 54.7234 64.7488H50.0868V69.2516H54.7234ZM54.545 60.4242C56.0609 60.4242 56.8188 59.7555 56.8188 58.418C56.8188 57.7938 56.6256 57.3034 56.2392 56.9468C55.8528 56.5604 55.2881 56.3672 54.545 56.3672H50.0868V60.4242H54.545ZM84.1014 73.5762H78.7069V71.4362C78.1124 72.2684 77.2951 72.9223 76.2548 73.3978C75.2443 73.8734 74.1743 74.1112 73.0448 74.1112C71.2318 74.1112 69.6714 73.4721 68.3636 72.1941C67.0559 70.9161 66.402 69.1773 66.402 66.9779C66.402 64.7488 67.041 63.0249 68.3191 61.8063C69.6268 60.5877 71.2021 59.9784 73.0448 59.9784C74.204 59.9784 75.2889 60.2013 76.2994 60.6471C77.3397 61.093 78.1422 61.7171 78.7069 62.5196V59.7109C78.7069 58.5517 78.3502 57.6452 77.6369 56.9913C76.9533 56.3077 75.9873 55.9659 74.739 55.9659C72.7773 55.9659 71.0089 56.7387 69.4336 58.2842L67.4274 54.6285C69.5971 52.5479 72.3612 51.5077 75.7198 51.5077C78.2462 51.5077 80.2673 52.1318 81.7831 53.3801C83.3286 54.5987 84.1014 56.5158 84.1014 59.1313V73.5762ZM75.0957 70.5C76.7601 70.5 77.9638 69.8163 78.7069 68.4491V65.685C77.9341 64.2881 76.7304 63.5896 75.0957 63.5896C74.0851 63.5896 73.2678 63.9166 72.6436 64.5704C72.0492 65.1946 71.7519 66.0268 71.7519 67.0671C71.7519 68.1073 72.0492 68.9396 72.6436 69.5637C73.2678 70.1879 74.0851 70.5 75.0957 70.5ZM100.13 74.1112C97.8113 74.1112 95.9983 73.0263 94.6905 70.8566V81.7794H89.3406V52.0426H94.6905V54.7622C96.0577 52.5925 97.8708 51.5077 100.13 51.5077C102.567 51.5077 104.499 52.5182 105.925 54.5393C107.382 56.5307 108.11 59.2799 108.11 62.7871C108.11 66.2646 107.382 69.0287 105.925 71.0795C104.499 73.1006 102.567 74.1112 100.13 74.1112ZM98.3909 69.3854C99.7284 69.3854 100.754 68.7761 101.467 67.5575C102.21 66.3389 102.582 64.7488 102.582 62.7871C102.582 60.8552 102.21 59.2799 101.467 58.0613C100.754 56.8427 99.7284 56.2334 98.3909 56.2334C97.6776 56.2334 96.9643 56.4712 96.2509 56.9468C95.5673 57.4223 95.0472 58.0168 94.6905 58.7301V66.8442C95.0472 67.5575 95.5673 68.1668 96.2509 68.6721C96.9643 69.1476 97.6776 69.3854 98.3909 69.3854ZM134.009 52.0426H139.359V68.895H141.767V79.0599H136.372V73.5762H112.208V52.0426H117.558V68.895H123.087V52.0426H128.481V68.895H134.009V52.0426ZM150.436 73.5762H145.264V52.0426H150.614V64.1692L157.257 52.0426H162.741V73.5762H157.346V60.9592L150.436 73.5762ZM186.37 73.5762H180.083L175.625 65.15L173.351 68.3154V73.5762H168.001V52.0426H173.351V61.8063L179.905 52.0426H186.147L179.326 61.7171L186.37 73.5762ZM197.558 74.1112C194.527 74.1112 192.149 73.0263 190.425 70.8566C188.701 68.6572 187.839 65.9674 187.839 62.7871C187.839 59.6069 188.701 56.9319 190.425 54.7622C192.149 52.5925 194.527 51.5077 197.558 51.5077C200.62 51.5077 203.012 52.5925 204.736 54.7622C206.46 56.9319 207.322 59.6069 207.322 62.7871C207.322 65.9971 206.46 68.6869 204.736 70.8566C203.012 73.0263 200.62 74.1112 197.558 74.1112ZM197.558 69.3854C198.955 69.3854 200.01 68.7612 200.724 67.5129C201.437 66.2646 201.794 64.6893 201.794 62.7871C201.794 60.8849 201.437 59.3245 200.724 58.1059C200.01 56.8576 198.955 56.2334 197.558 56.2334C196.191 56.2334 195.151 56.8576 194.437 58.1059C193.754 59.3542 193.412 60.9146 193.412 62.7871C193.412 64.6893 193.754 66.2646 194.437 67.5129C195.151 68.7612 196.191 69.3854 197.558 69.3854ZM234.032 73.5762H228.727V60.5134L223.912 73.5762H221.594L216.823 60.5134V73.5762H211.473V52.0426H218.339L222.753 64.0354L227.211 52.0426H234.032V73.5762ZM30.8761 116.576H25.5261V95.0426H30.8761V103.068H37.6081V95.0426H43.0026V116.576H37.6081V107.749H30.8761V116.576ZM64.8036 116.576H59.4091V114.436C58.8147 115.268 57.9973 115.922 56.957 116.398C55.9465 116.873 54.8765 117.111 53.7471 117.111C51.934 117.111 50.3736 116.472 49.0659 115.194C47.7581 113.916 47.1042 112.177 47.1042 109.978C47.1042 107.749 47.7433 106.025 49.0213 104.806C50.3291 103.588 51.9043 102.978 53.7471 102.978C54.9062 102.978 55.9911 103.201 57.0016 103.647C58.0419 104.093 58.8444 104.717 59.4091 105.52V102.711C59.4091 101.552 59.0524 100.645 58.3391 99.9913C57.6555 99.3077 56.6896 98.9659 55.4412 98.9659C53.4796 98.9659 51.7111 99.7387 50.1359 101.284L48.1296 97.6285C50.2993 95.5479 53.0635 94.5077 56.4221 94.5077C58.9484 94.5077 60.9695 95.1318 62.4853 96.3801C64.0309 97.5987 64.8036 99.5158 64.8036 102.131V116.576ZM55.7979 113.5C57.4623 113.5 58.6661 112.816 59.4091 111.449V108.685C58.6363 107.288 57.4326 106.59 55.7979 106.59C54.7873 106.59 53.97 106.917 53.3458 107.57C52.7514 108.195 52.4542 109.027 52.4542 110.067C52.4542 111.107 52.7514 111.94 53.3458 112.564C53.97 113.188 54.7873 113.5 55.7979 113.5ZM97.3258 116.576H91.9758V102.31C91.9758 100.259 91.0247 99.2334 89.1225 99.2334C88.32 99.2334 87.577 99.5009 86.8934 100.036C86.2098 100.541 85.6599 101.165 85.2438 101.908V116.576H79.8493V86.8394H85.2438V97.8514C85.8383 96.93 86.7002 96.1424 87.8296 95.4885C88.9888 94.8346 90.2223 94.5077 91.53 94.5077C95.3939 94.5077 97.3258 96.4396 97.3258 100.303V116.576ZM120.063 116.576H114.713V102.31C114.713 100.259 113.762 99.2334 111.86 99.2334C111.057 99.2334 110.314 99.5009 109.631 100.036C108.947 100.541 108.397 101.165 107.981 101.908V116.576H102.587V86.8394H107.981V97.8514C108.576 96.93 109.437 96.1424 110.567 95.4885C111.726 94.8346 112.96 94.5077 114.267 94.5077C118.131 94.5077 120.063 96.4396 120.063 100.303V116.576ZM130.941 116.086C130.287 116.74 129.485 117.067 128.534 117.067C127.583 117.067 126.765 116.725 126.082 116.041C125.398 115.358 125.056 114.555 125.056 113.634C125.056 112.683 125.398 111.865 126.082 111.182C126.765 110.498 127.583 110.156 128.534 110.156C129.455 110.156 130.258 110.498 130.941 111.182C131.625 111.865 131.967 112.683 131.967 113.634C131.967 114.585 131.625 115.402 130.941 116.086ZM142.352 116.576H137.002V95.0426H142.352V97.9851C142.977 97.0043 143.824 96.1869 144.894 95.5331C145.993 94.8495 147.108 94.5077 148.237 94.5077V99.7684C147.881 99.6793 147.45 99.6347 146.944 99.6347C146.082 99.6347 145.206 99.8873 144.314 100.393C143.452 100.868 142.798 101.477 142.352 102.22V116.576ZM169.161 116.576H163.811V113.857C163.187 114.778 162.31 115.551 161.18 116.175C160.051 116.799 158.817 117.111 157.48 117.111C153.646 117.111 151.729 115.179 151.729 111.315V95.0426H157.079V109.265C157.079 111.345 158.03 112.385 159.932 112.385C161.537 112.385 162.83 111.509 163.811 109.755V95.0426H169.161V116.576ZM190.16 105.743L184.587 113.767H180.04L185.613 105.743L180.04 97.8514H184.587L190.16 105.743ZM197.695 105.743L192.122 113.767H187.53L193.103 105.743L187.53 97.8514H192.122L197.695 105.743Z" fill="white"/>
  <path d="M17.7765 27.8468H13.1844L7.61159 19.8219L13.1844 11.9307H17.7765L12.2036 19.8219L17.7765 27.8468ZM10.242 27.8468H5.69452L0.121666 19.8219L5.69452 11.9307H10.242L4.66912 19.8219L10.242 27.8468Z" fill="white"/>
  </svg>
  