<svg width="226" height="61" viewBox="0 0 226 61" fill="none" xmlns="http://www.w3.org/2000/svg">
  <path d="M18.5841 15.9916H15.8723V4.69993H18.6777V11.0588L22.161 4.69993H25.0365V15.9916H22.2078V9.37556L18.5841 15.9916ZM39.2271 4.69993H42.0324V13.5369H43.2949V18.8671H40.4661V15.9916H27.7951V4.69993H30.6005V13.5369H33.4994V4.69993H36.3282V13.5369H39.2271V4.69993ZM47.8406 15.9916H45.1288V4.69993H47.9341V11.0588L51.4175 4.69993H54.293V15.9916H51.4642V9.37556L47.8406 15.9916ZM61.4935 15.9916H58.6647V7.15464H56.1866V4.69993H63.9949V7.15464H61.4935V15.9916ZM70.5452 16.2721C68.9555 16.2721 67.6775 15.7266 66.7112 14.6356C65.7605 13.5447 65.2851 12.1108 65.2851 10.3341C65.2851 8.65084 65.7449 7.24815 66.6644 6.126C67.584 4.98826 68.8074 4.41939 70.3348 4.41939C71.8622 4.41939 73.0544 4.98047 73.9116 6.10262C74.7688 7.20918 75.1974 8.65863 75.1974 10.451V11.2458H68.1139C68.1762 12.0563 68.4412 12.7186 68.9087 13.233C69.3763 13.7473 70.0231 14.0044 70.8491 14.0044C71.2699 14.0044 71.7063 13.9109 72.1583 13.7239C72.6103 13.5213 72.9921 13.2485 73.3038 12.9057L74.5896 14.5889C73.561 15.711 72.2128 16.2721 70.5452 16.2721ZM72.4856 9.3288C72.4544 8.62746 72.2674 8.01183 71.9245 7.48193C71.5816 6.95202 71.0361 6.68707 70.288 6.68707C69.5711 6.68707 69.0334 6.95202 68.6749 7.48193C68.3321 8.01183 68.145 8.62746 68.1139 9.3288H72.4856ZM88.0899 16.2721C86.8743 16.2721 85.9236 15.7032 85.2378 14.5655V20.2932H82.4324V4.69993H85.2378V6.126C85.9547 4.98826 86.9055 4.41939 88.0899 4.41939C89.368 4.41939 90.381 4.9493 91.1291 6.00911C91.8928 7.05333 92.2746 8.49498 92.2746 10.3341C92.2746 12.1576 91.8928 13.607 91.1291 14.6824C90.381 15.7422 89.368 16.2721 88.0899 16.2721ZM87.1782 13.794C87.8795 13.794 88.4172 13.4745 88.7913 12.8355C89.1809 12.1965 89.3757 11.3627 89.3757 10.3341C89.3757 9.32101 89.1809 8.49498 88.7913 7.85598C88.4172 7.21698 87.8795 6.89748 87.1782 6.89748C86.8041 6.89748 86.4301 7.02216 86.056 7.27153C85.6976 7.52089 85.4248 7.8326 85.2378 8.20665V12.4615C85.4248 12.8355 85.6976 13.155 86.056 13.42C86.4301 13.6693 86.8041 13.794 87.1782 13.794ZM103.097 15.9916H100.268V14.8694C99.9566 15.3058 99.528 15.6487 98.9825 15.8981C98.4526 16.1474 97.8915 16.2721 97.2993 16.2721C96.3486 16.2721 95.5303 15.937 94.8446 15.2669C94.1588 14.5967 93.8159 13.6849 93.8159 12.5316C93.8159 11.3627 94.151 10.4587 94.8212 9.81975C95.507 9.18074 96.333 8.86124 97.2993 8.86124C97.9071 8.86124 98.476 8.97813 99.0059 9.21191C99.5514 9.44569 99.9722 9.77299 100.268 10.1938V8.72097C100.268 8.11314 100.081 7.63778 99.7072 7.2949C99.3488 6.93644 98.8423 6.75721 98.1877 6.75721C97.159 6.75721 96.2317 7.16243 95.4057 7.97287L94.3536 6.05586C95.4914 4.96488 96.9408 4.41939 98.702 4.41939C100.027 4.41939 101.087 4.74669 101.881 5.40127C102.692 6.04028 103.097 7.04554 103.097 8.41706V15.9916ZM98.3747 14.3785C99.2475 14.3785 99.8787 14.02 100.268 13.3031V11.8536C99.8631 11.1211 99.2319 10.7549 98.3747 10.7549C97.8448 10.7549 97.4162 10.9263 97.0889 11.2692C96.7772 11.5965 96.6213 12.0329 96.6213 12.5784C96.6213 13.1239 96.7772 13.5602 97.0889 13.8875C97.4162 14.2148 97.8448 14.3785 98.3747 14.3785ZM108.72 12.8121C109.094 13.4667 109.639 13.794 110.356 13.794C111.073 13.794 111.619 13.4667 111.993 12.8121C112.382 12.142 112.577 11.3082 112.577 10.3107C112.577 9.34439 112.382 8.53395 111.993 7.87936C111.619 7.22477 111.073 6.89748 110.356 6.89748C109.639 6.89748 109.094 7.22477 108.72 7.87936C108.346 8.53395 108.159 9.34439 108.159 10.3107C108.159 11.3082 108.346 12.142 108.72 12.8121ZM110.356 16.2721C108.72 16.2721 107.457 15.6799 106.569 14.4954C105.696 13.2953 105.26 11.7368 105.26 9.81975C105.26 6.96761 105.634 4.93371 106.382 3.71805C107.146 2.4868 108.471 1.70753 110.356 1.38023C111.619 1.16204 112.25 0.834741 112.25 0.398349H115.102C115.102 2.00365 113.785 3.0245 111.151 3.46089C109.078 3.80377 107.925 4.66876 107.691 6.05586C108.439 4.96488 109.515 4.41939 110.917 4.41939C112.336 4.41939 113.45 4.98826 114.261 6.126C115.071 7.26373 115.476 8.65863 115.476 10.3107C115.476 11.9783 115.024 13.3888 114.12 14.5421C113.232 15.6955 111.977 16.2721 110.356 16.2721ZM122.211 16.2721C120.621 16.2721 119.374 15.7032 118.47 14.5655C117.566 13.4122 117.114 12.0017 117.114 10.3341C117.114 8.66642 117.566 7.26373 118.47 6.126C119.374 4.98826 120.621 4.41939 122.211 4.41939C123.816 4.41939 125.071 4.98826 125.975 6.126C126.879 7.26373 127.331 8.66642 127.331 10.3341C127.331 12.0173 126.879 13.4278 125.975 14.5655C125.071 15.7032 123.816 16.2721 122.211 16.2721ZM122.211 13.794C122.943 13.794 123.497 13.4667 123.871 12.8121C124.245 12.1576 124.432 11.3315 124.432 10.3341C124.432 9.3366 124.245 8.51836 123.871 7.87936C123.497 7.22477 122.943 6.89748 122.211 6.89748C121.494 6.89748 120.948 7.22477 120.574 7.87936C120.216 8.53395 120.037 9.35218 120.037 10.3341C120.037 11.3315 120.216 12.1576 120.574 12.8121C120.948 13.4667 121.494 13.794 122.211 13.794ZM133.949 15.9916H131.121V7.15464H128.642V4.69993H136.451V7.15464H133.949V15.9916ZM138.068 20.41L138.489 17.932C138.707 18.0411 138.949 18.0956 139.214 18.0956C139.837 18.0956 140.25 17.8229 140.453 17.2774L140.827 16.202L137.016 4.69993H140.009L142.276 12.6017L144.567 4.69993H147.56L143.141 17.9086C142.814 18.9061 142.354 19.5918 141.762 19.9659C141.17 20.3555 140.39 20.5581 139.424 20.5737C138.879 20.5737 138.427 20.5191 138.068 20.41ZM18.6309 38.2721C17.0412 38.2721 15.8411 37.7656 15.0307 36.7525L16.3632 34.9992C16.9243 35.6849 17.5789 36.0278 18.327 36.0278C18.9816 36.0278 19.5271 35.794 19.9635 35.3265C20.3999 34.8433 20.6882 34.1965 20.8285 33.3861H16.9477V31.2119H20.8285C20.6882 30.4171 20.3999 29.7936 19.9635 29.3417C19.5271 28.8897 18.9816 28.6637 18.327 28.6637C17.5633 28.6637 16.9087 29.0066 16.3632 29.6923L15.0307 27.939C15.8411 26.9259 17.0412 26.4194 18.6309 26.4194C20.1583 26.4194 21.3973 26.9727 22.348 28.0792C23.2987 29.1858 23.7741 30.6041 23.7741 32.3341C23.7741 34.0796 23.2987 35.5057 22.348 36.6123C21.3973 37.7188 20.1583 38.2721 18.6309 38.2721ZM25.0809 38.2721V35.9109C25.5329 35.9109 25.8836 35.6771 26.1329 35.2096C26.3979 34.7264 26.6005 33.8225 26.7408 32.4977L27.2784 26.6999H35.1101V37.9916H32.2814V29.1546H29.8267L29.5228 32.7782C29.3513 34.7732 28.9071 36.1915 28.1902 37.0331C27.4889 37.8591 26.4524 38.2721 25.0809 38.2721ZM42.5444 38.2721C40.9547 38.2721 39.6767 37.7266 38.7104 36.6356C37.7597 35.5447 37.2843 34.1108 37.2843 32.3341C37.2843 30.6508 37.7441 29.2481 38.6636 28.126C39.5831 26.9883 40.8066 26.4194 42.334 26.4194C43.8613 26.4194 45.0536 26.9805 45.9108 28.1026C46.768 29.2092 47.1966 30.6586 47.1966 32.451V33.2458H40.1131C40.1754 34.0563 40.4403 34.7186 40.9079 35.233C41.3755 35.7473 42.0223 36.0044 42.8483 36.0044C43.2691 36.0044 43.7055 35.9109 44.1575 35.7239C44.6094 35.5213 44.9913 35.2485 45.303 34.9057L46.5888 36.5889C45.5602 37.711 44.212 38.2721 42.5444 38.2721ZM44.4848 31.3288C44.4536 30.6275 44.2666 30.0118 43.9237 29.4819C43.5808 28.952 43.0353 28.6871 42.2872 28.6871C41.5703 28.6871 41.0326 28.952 40.6741 29.4819C40.3312 30.0118 40.1442 30.6275 40.1131 31.3288H44.4848ZM58.9211 37.9916H55.6248L53.287 33.5731L52.0947 35.233V37.9916H49.2893V26.6999H52.0947V31.8197L55.5313 26.6999H58.8042L55.2274 31.773L58.9211 37.9916ZM64.9235 37.9916H62.0947V29.1546H59.6166V26.6999H67.4249V29.1546H64.9235V37.9916ZM74.9571 38.2721C73.7414 38.2721 72.7907 37.7032 72.105 36.5655V42.2932H69.2996V26.6999H72.105V28.126C72.8219 26.9883 73.7726 26.4194 74.9571 26.4194C76.2351 26.4194 77.2482 26.9493 77.9963 28.0091C78.7599 29.0533 79.1418 30.495 79.1418 32.3341C79.1418 34.1576 78.7599 35.607 77.9963 36.6824C77.2482 37.7422 76.2351 38.2721 74.9571 38.2721ZM74.0453 35.794C74.7467 35.794 75.2844 35.4745 75.6584 34.8355C76.0481 34.1965 76.2429 33.3627 76.2429 32.3341C76.2429 31.321 76.0481 30.495 75.6584 29.856C75.2844 29.217 74.7467 28.8975 74.0453 28.8975C73.6713 28.8975 73.2972 29.0222 72.9232 29.2715C72.5647 29.5209 72.292 29.8326 72.105 30.2067V34.4615C72.292 34.8355 72.5647 35.155 72.9232 35.42C73.2972 35.6693 73.6713 35.794 74.0453 35.794ZM85.8029 38.2721C84.2132 38.2721 82.9664 37.7032 82.0624 36.5655C81.1584 35.4122 80.7065 34.0017 80.7065 32.3341C80.7065 30.6664 81.1584 29.2637 82.0624 28.126C82.9664 26.9883 84.2132 26.4194 85.8029 26.4194C87.4082 26.4194 88.6628 26.9883 89.5668 28.126C90.4707 29.2637 90.9227 30.6664 90.9227 32.3341C90.9227 34.0173 90.4707 35.4278 89.5668 36.5655C88.6628 37.7032 87.4082 38.2721 85.8029 38.2721ZM85.8029 35.794C86.5354 35.794 87.0887 35.4667 87.4628 34.8121C87.8368 34.1576 88.0238 33.3315 88.0238 32.3341C88.0238 31.3366 87.8368 30.5184 87.4628 29.8794C87.0887 29.2248 86.5354 28.8975 85.8029 28.8975C85.086 28.8975 84.5405 29.2248 84.1664 29.8794C83.808 30.5339 83.6287 31.3522 83.6287 32.3341C83.6287 33.3315 83.808 34.1576 84.1664 34.8121C84.5405 35.4667 85.086 35.794 85.8029 35.794ZM104.929 37.9916H102.147V31.1418L99.6221 37.9916H98.4065L95.905 31.1418V37.9916H93.0996V26.6999H96.6999L99.0143 32.9887L101.352 26.6999H104.929V37.9916ZM112.206 38.2721C110.616 38.2721 109.369 37.7032 108.465 36.5655C107.561 35.4122 107.109 34.0017 107.109 32.3341C107.109 30.6664 107.561 29.2637 108.465 28.126C109.369 26.9883 110.616 26.4194 112.206 26.4194C113.811 26.4194 115.066 26.9883 115.969 28.126C116.873 29.2637 117.325 30.6664 117.325 32.3341C117.325 34.0173 116.873 35.4278 115.969 36.5655C115.066 37.7032 113.811 38.2721 112.206 38.2721ZM112.206 35.794C112.938 35.794 113.491 35.4667 113.865 34.8121C114.24 34.1576 114.427 33.3315 114.427 32.3341C114.427 31.3366 114.24 30.5184 113.865 29.8794C113.491 29.2248 112.938 28.8975 112.206 28.8975C111.489 28.8975 110.943 29.2248 110.569 29.8794C110.211 30.5339 110.031 31.3522 110.031 32.3341C110.031 33.3315 110.211 34.1576 110.569 34.8121C110.943 35.4667 111.489 35.794 112.206 35.794ZM122.308 37.9916H119.502V26.6999H122.308V30.908H125.838V26.6999H128.667V37.9916H125.838V33.3627H122.308V37.9916ZM135.867 37.9916H133.038V29.1546H130.56V26.6999H138.368V29.1546H135.867V37.9916ZM148.916 37.9916H146.088V36.8694C145.776 37.3058 145.347 37.6487 144.802 37.8981C144.272 38.1474 143.711 38.2721 143.119 38.2721C142.168 38.2721 141.35 37.937 140.664 37.2669C139.978 36.5967 139.635 35.6849 139.635 34.5316C139.635 33.3627 139.97 32.4587 140.641 31.8197C141.326 31.1807 142.152 30.8612 143.119 30.8612C143.726 30.8612 144.295 30.9781 144.825 31.2119C145.371 31.4457 145.792 31.773 146.088 32.1938V30.721C146.088 30.1131 145.901 29.6378 145.527 29.2949C145.168 28.9364 144.662 28.7572 144.007 28.7572C142.978 28.7572 142.051 29.1624 141.225 29.9729L140.173 28.0559C141.311 26.9649 142.76 26.4194 144.521 26.4194C145.846 26.4194 146.906 26.7467 147.701 27.4013C148.511 28.0403 148.916 29.0455 148.916 30.4171V37.9916ZM144.194 36.3785C145.067 36.3785 145.698 36.02 146.088 35.3031V33.8536C145.682 33.1211 145.051 32.7549 144.194 32.7549C143.664 32.7549 143.236 32.9263 142.908 33.2692C142.597 33.5965 142.441 34.0329 142.441 34.5784C142.441 35.1239 142.597 35.5602 142.908 35.8875C143.236 36.2148 143.664 36.3785 144.194 36.3785ZM153.768 37.9916H150.471L154.165 31.773L150.588 26.6999H153.861L156.526 30.6742V26.6999H159.332V30.721L162.02 26.6999H165.27L161.716 31.773L165.41 37.9916H162.114L159.776 33.5731L159.332 34.2043V37.9916H156.526V34.1576L156.106 33.5731L153.768 37.9916ZM169.771 37.9916H166.965V26.6999H169.771V30.908H173.301V26.6999H176.13V37.9916H173.301V33.3627H169.771V37.9916ZM181.6 37.9916H178.888V26.6999H181.694V33.0588L185.177 26.6999H188.053V37.9916H185.224V31.3756L181.6 37.9916ZM200.443 37.9916H197.147L194.809 33.5731L193.617 35.233V37.9916H190.811V26.6999H193.617V31.8197L197.053 26.6999H200.326L196.749 31.773L200.443 37.9916ZM206.31 38.2721C204.72 38.2721 203.473 37.7032 202.569 36.5655C201.666 35.4122 201.214 34.0017 201.214 32.3341C201.214 30.6664 201.666 29.2637 202.569 28.126C203.473 26.9883 204.72 26.4194 206.31 26.4194C207.915 26.4194 209.17 26.9883 210.074 28.126C210.978 29.2637 211.43 30.6664 211.43 32.3341C211.43 34.0173 210.978 35.4278 210.074 36.5655C209.17 37.7032 207.915 38.2721 206.31 38.2721ZM206.31 35.794C207.042 35.794 207.596 35.4667 207.97 34.8121C208.344 34.1576 208.531 33.3315 208.531 32.3341C208.531 31.3366 208.344 30.5184 207.97 29.8794C207.596 29.2248 207.042 28.8975 206.31 28.8975C205.593 28.8975 205.048 29.2248 204.674 29.8794C204.315 30.5339 204.136 31.3522 204.136 32.3341C204.136 33.3315 204.315 34.1576 204.674 34.8121C205.048 35.4667 205.593 35.794 206.31 35.794ZM225.436 37.9916H222.654V31.1418L220.129 37.9916H218.914L216.412 31.1418V37.9916H213.607V26.6999H217.207L219.521 32.9887L221.859 26.6999H225.436V37.9916ZM18.6777 59.9916H15.8723V48.6999H18.6777V52.908H22.2078V48.6999H25.0365V59.9916H22.2078V55.3627H18.6777V59.9916ZM36.4684 59.9916H33.6397V58.8694C33.328 59.3058 32.8994 59.6487 32.3539 59.8981C31.824 60.1474 31.2629 60.2721 30.6707 60.2721C29.7199 60.2721 28.9017 59.937 28.2159 59.2669C27.5302 58.5967 27.1873 57.6849 27.1873 56.5316C27.1873 55.3627 27.5224 54.4587 28.1926 53.8197C28.8783 53.1807 29.7044 52.8612 30.6707 52.8612C31.2785 52.8612 31.8474 52.9781 32.3773 53.2119C32.9227 53.4457 33.3436 53.773 33.6397 54.1938V52.721C33.6397 52.1131 33.4527 51.6378 33.0786 51.2949C32.7201 50.9364 32.2136 50.7572 31.559 50.7572C30.5304 50.7572 29.6031 51.1624 28.777 51.9729L27.725 50.0559C28.8627 48.9649 30.3122 48.4194 32.0733 48.4194C33.3981 48.4194 34.4579 48.7467 35.2528 49.4013C36.0632 50.0403 36.4684 51.0455 36.4684 52.4171V59.9916ZM31.746 58.3785C32.6188 58.3785 33.25 58.02 33.6397 57.3031V55.8536C33.2345 55.1211 32.6032 54.7549 31.746 54.7549C31.2161 54.7549 30.7875 54.9263 30.4603 55.2692C30.1485 55.5965 29.9927 56.0329 29.9927 56.5784C29.9927 57.1239 30.1485 57.5602 30.4603 57.8875C30.7875 58.2148 31.2161 58.3785 31.746 58.3785ZM53.5222 59.9916H50.7169V52.5106C50.7169 51.4352 50.2181 50.8975 49.2207 50.8975C48.7999 50.8975 48.4102 51.0377 48.0518 51.3183C47.6933 51.5832 47.405 51.9105 47.1868 52.3002V59.9916H44.358V44.3983H47.1868V50.1728C47.4985 49.6896 47.9505 49.2766 48.5427 48.9337C49.1505 48.5908 49.7973 48.4194 50.4831 48.4194C52.5092 48.4194 53.5222 49.4324 53.5222 51.4586V59.9916ZM65.4451 59.9916H62.6397V52.5106C62.6397 51.4352 62.141 50.8975 61.1435 50.8975C60.7227 50.8975 60.3331 51.0377 59.9746 51.3183C59.6162 51.5832 59.3278 51.9105 59.1096 52.3002V59.9916H56.2809V44.3983H59.1096V50.1728C59.4213 49.6896 59.8733 49.2766 60.4656 48.9337C61.0734 48.5908 61.7202 48.4194 62.4059 48.4194C64.4321 48.4194 65.4451 49.4324 65.4451 51.4586V59.9916ZM71.1494 59.7344C70.8065 60.0773 70.3857 60.2487 69.887 60.2487C69.3882 60.2487 68.9596 60.0695 68.6012 59.711C68.2427 59.3526 68.0635 58.9318 68.0635 58.4486C68.0635 57.9499 68.2427 57.5213 68.6012 57.1628C68.9596 56.8044 69.3882 56.6251 69.887 56.6251C70.3701 56.6251 70.7909 56.8044 71.1494 57.1628C71.5078 57.5213 71.6871 57.9499 71.6871 58.4486C71.6871 58.9474 71.5078 59.376 71.1494 59.7344ZM77.1331 59.9916H74.3277V48.6999H77.1331V50.2429C77.4604 49.7286 77.9046 49.3 78.4656 48.9571C79.0423 48.5986 79.6268 48.4194 80.219 48.4194V51.178C80.032 51.1313 79.806 51.1079 79.541 51.1079C79.0891 51.1079 78.6293 51.2404 78.1617 51.5053C77.7097 51.7547 77.3669 52.0742 77.1331 52.4638V59.9916ZM91.1907 59.9916H88.3853V58.5655C88.058 59.0487 87.5982 59.4539 87.006 59.7812C86.4137 60.1085 85.7669 60.2721 85.0656 60.2721C83.0551 60.2721 82.0498 59.2591 82.0498 57.233V48.6999H84.8552V56.1576C84.8552 57.2485 85.3539 57.794 86.3514 57.794C87.193 57.794 87.871 57.3343 88.3853 56.4147V48.6999H91.1907V59.9916Z" fill="white"/>
  <path d="M9.95079 15.0879H7.54284L4.62057 10.8798L7.54284 6.74191H9.95079L7.02852 10.8798L9.95079 15.0879ZM5.99988 15.0879H3.61531L0.693044 10.8798L3.61531 6.74191H5.99988L3.07762 10.8798L5.99988 15.0879Z" fill="white"/>
  <path d="M102.21 55.2687L99.2876 59.4768H96.903L99.8253 55.2687L96.903 51.1308H99.2876L102.21 55.2687ZM106.161 55.2687L103.238 59.4768H100.831L103.753 55.2687L100.831 51.1308H103.238L106.161 55.2687Z" fill="white"/>
  </svg>
  