<svg width="190" height="52" viewBox="0 0 190 52" fill="none" xmlns="http://www.w3.org/2000/svg">
  <path d="M15.2017 13.563H12.9207V4.06534H15.2804V9.41391L18.2103 4.06534H20.629V13.563H18.2496V7.99811L15.2017 13.563ZM32.5649 4.06534H34.9246V11.4983H35.9864V15.9816H33.6071V13.563H22.9493V4.06534H25.309V11.4983H27.7473V4.06534H30.1266V11.4983H32.5649V4.06534ZM39.81 13.563H37.529V4.06534H39.8887V9.41391L42.8186 4.06534H45.2372V13.563H42.8579V7.99811L39.81 13.563ZM51.2937 13.563H48.9144V6.13005H46.83V4.06534H53.3977V6.13005H51.2937V13.563ZM58.9073 13.799C57.5701 13.799 56.4952 13.3401 55.6824 12.4225C54.8828 11.5048 54.4829 10.2988 54.4829 8.80433C54.4829 7.38853 54.8696 6.2087 55.6431 5.26484C56.4165 4.30786 57.4456 3.82937 58.7303 3.82937C60.015 3.82937 61.0179 4.30131 61.7389 5.24517C62.4599 6.17593 62.8204 7.39509 62.8204 8.90265V9.57122H56.8622C56.9147 10.2529 57.1375 10.81 57.5308 11.2427C57.9241 11.6753 58.4681 11.8916 59.1629 11.8916C59.5169 11.8916 59.8839 11.8129 60.2641 11.6556C60.6443 11.4852 60.9654 11.2558 61.2276 10.9674L62.3091 12.3832C61.4439 13.327 60.31 13.799 58.9073 13.799ZM60.5394 7.95879C60.5132 7.36887 60.3559 6.85106 60.0675 6.40534C59.7791 5.95963 59.3202 5.73677 58.691 5.73677C58.088 5.73677 57.6357 5.95963 57.3342 6.40534C57.0458 6.85106 56.8885 7.36887 56.8622 7.95879H60.5394ZM73.6646 13.799C72.642 13.799 71.8424 13.3205 71.2656 12.3635V17.1811H68.9059V4.06534H71.2656V5.26484C71.8686 4.30786 72.6683 3.82937 73.6646 3.82937C74.7395 3.82937 75.5916 4.27509 76.2209 5.16652C76.8632 6.04484 77.1844 7.25744 77.1844 8.80433C77.1844 10.3381 76.8632 11.5573 76.2209 12.4618C75.5916 13.3532 74.7395 13.799 73.6646 13.799ZM72.8977 11.7146C73.4876 11.7146 73.9399 11.4458 74.2545 10.9084C74.5822 10.3709 74.7461 9.66954 74.7461 8.80433C74.7461 7.95223 74.5822 7.25744 74.2545 6.71996C73.9399 6.18248 73.4876 5.91374 72.8977 5.91374C72.5831 5.91374 72.2684 6.01862 71.9538 6.22837C71.6523 6.43811 71.4229 6.7003 71.2656 7.01492V10.5937C71.4229 10.9084 71.6523 11.1771 71.9538 11.4C72.2684 11.6097 72.5831 11.7146 72.8977 11.7146ZM86.2874 13.563H83.9081V12.6191C83.6459 12.9862 83.2854 13.2746 82.8265 13.4843C82.3808 13.6941 81.9089 13.799 81.4107 13.799C80.6111 13.799 79.9228 13.5171 79.346 12.9534C78.7692 12.3897 78.4808 11.6228 78.4808 10.6527C78.4808 9.66954 78.7627 8.90921 79.3264 8.37173C79.9032 7.83425 80.598 7.56551 81.4107 7.56551C81.922 7.56551 82.4005 7.66383 82.8462 7.86047C83.305 8.05711 83.659 8.3324 83.9081 8.68635V7.44753C83.9081 6.93627 83.7507 6.53643 83.4361 6.24803C83.1346 5.94652 82.7086 5.79576 82.158 5.79576C81.2928 5.79576 80.5128 6.1366 79.818 6.81828L78.9331 5.20585C79.8901 4.2882 81.1092 3.82937 82.5906 3.82937C83.7049 3.82937 84.5963 4.10467 85.2649 4.65526C85.9465 5.19274 86.2874 6.03828 86.2874 7.1919V13.563ZM82.3153 12.2062C83.0494 12.2062 83.5803 11.9047 83.9081 11.3016V10.0825C83.5672 9.46635 83.0363 9.15828 82.3153 9.15828C81.8696 9.15828 81.5091 9.30248 81.2338 9.59089C80.9716 9.86618 80.8405 10.2332 80.8405 10.6921C80.8405 11.1509 80.9716 11.5179 81.2338 11.7932C81.5091 12.0685 81.8696 12.2062 82.3153 12.2062ZM91.0168 10.8887C91.3315 11.4393 91.7903 11.7146 92.3933 11.7146C92.9963 11.7146 93.4552 11.4393 93.7698 10.8887C94.0975 10.325 94.2614 9.62366 94.2614 8.78467C94.2614 7.9719 94.0975 7.29022 93.7698 6.73963C93.4552 6.18904 92.9963 5.91374 92.3933 5.91374C91.7903 5.91374 91.3315 6.18904 91.0168 6.73963C90.7022 7.29022 90.5449 7.9719 90.5449 8.78467C90.5449 9.62366 90.7022 10.325 91.0168 10.8887ZM92.3933 13.799C91.0168 13.799 89.955 13.3008 89.2078 12.3045C88.4736 11.2951 88.1066 9.98416 88.1066 8.37173C88.1066 5.97274 88.4212 4.26198 89.0505 3.23946C89.6928 2.20383 90.8071 1.54837 92.3933 1.27307C93.4552 1.08954 93.9861 0.814249 93.9861 0.44719H96.3851C96.3851 1.79744 95.2773 2.6561 93.0619 3.02316C91.3184 3.31156 90.3483 4.03912 90.1516 5.20585C90.7809 4.2882 91.6854 3.82937 92.8652 3.82937C94.0582 3.82937 94.9955 4.30786 95.6772 5.26484C96.3589 6.22181 96.6997 7.39509 96.6997 8.78467C96.6997 10.1874 96.3195 11.3737 95.5592 12.3438C94.812 13.3139 93.7567 13.799 92.3933 13.799ZM102.364 13.799C101.027 13.799 99.9784 13.3205 99.2181 12.3635C98.4577 11.3934 98.0776 10.207 98.0776 8.80433C98.0776 7.40164 98.4577 6.22181 99.2181 5.26484C99.9784 4.30786 101.027 3.82937 102.364 3.82937C103.715 3.82937 104.77 4.30786 105.53 5.26484C106.29 6.22181 106.671 7.40164 106.671 8.80433C106.671 10.2201 106.29 11.4065 105.53 12.3635C104.77 13.3205 103.715 13.799 102.364 13.799ZM102.364 11.7146C102.98 11.7146 103.446 11.4393 103.76 10.8887C104.075 10.3381 104.232 9.64332 104.232 8.80433C104.232 7.96534 104.075 7.27711 103.76 6.73963C103.446 6.18904 102.98 5.91374 102.364 5.91374C101.761 5.91374 101.302 6.18904 100.988 6.73963C100.686 7.29022 100.536 7.97845 100.536 8.80433C100.536 9.64332 100.686 10.3381 100.988 10.8887C101.302 11.4393 101.761 11.7146 102.364 11.7146ZM112.238 13.563H109.859V6.13005H107.774V4.06534H114.342V6.13005H112.238V13.563ZM115.702 17.2795L116.056 15.1951C116.24 15.2869 116.443 15.3327 116.666 15.3327C117.19 15.3327 117.538 15.1033 117.708 14.6445L118.023 13.74L114.817 4.06534H117.334L119.242 10.7117L121.169 4.06534H123.686L119.969 15.1754C119.694 16.0144 119.307 16.5912 118.809 16.9058C118.311 17.2336 117.656 17.404 116.843 17.4171C116.384 17.4171 116.004 17.3712 115.702 17.2795ZM15.2411 32.799C13.9039 32.799 12.8945 32.3729 12.2128 31.5208L13.3337 30.046C13.8056 30.6228 14.3562 30.9112 14.9854 30.9112C15.536 30.9112 15.9949 30.7146 16.3619 30.3213C16.729 29.9149 16.9715 29.3709 17.0895 28.6892H13.8253V26.8605H17.0895C16.9715 26.1919 16.729 25.6675 16.3619 25.2874C15.9949 24.9072 15.536 24.7171 14.9854 24.7171C14.3431 24.7171 13.7925 25.0055 13.3337 25.5823L12.2128 24.1075C12.8945 23.2554 13.9039 22.8294 15.2411 22.8294C16.5258 22.8294 17.568 23.2948 18.3676 24.2255C19.1673 25.1563 19.5671 26.3492 19.5671 27.8043C19.5671 29.2726 19.1673 30.4721 18.3676 31.4028C17.568 32.3336 16.5258 32.799 15.2411 32.799ZM20.6663 32.799V30.8129C21.0465 30.8129 21.3414 30.6163 21.5512 30.223C21.774 29.8166 21.9445 29.0563 22.0624 27.942L22.5147 23.0653H29.1021V32.563H26.7228V25.13H24.6581L24.4024 28.1779C24.2582 29.8559 23.8846 31.0489 23.2816 31.7568C22.6917 32.4516 21.8199 32.799 20.6663 32.799ZM35.3552 32.799C34.0181 32.799 32.9431 32.3401 32.1303 31.4225C31.3307 30.5048 30.9308 29.2988 30.9308 27.8043C30.9308 26.3885 31.3176 25.2087 32.091 24.2648C32.8645 23.3079 33.8935 22.8294 35.1782 22.8294C36.4629 22.8294 37.4658 23.3013 38.1868 24.2452C38.9078 25.1759 39.2683 26.3951 39.2683 27.9027V28.5712H33.3102C33.3626 29.2529 33.5855 29.81 33.9787 30.2427C34.372 30.6753 34.916 30.8916 35.6108 30.8916C35.9648 30.8916 36.3318 30.8129 36.712 30.6556C37.0922 30.4852 37.4134 30.2558 37.6755 29.9674L38.7571 31.3832C37.8918 32.327 36.7579 32.799 35.3552 32.799ZM36.9873 26.9588C36.9611 26.3689 36.8038 25.8511 36.5154 25.4053C36.227 24.9596 35.7681 24.7368 35.1389 24.7368C34.5359 24.7368 34.0836 24.9596 33.7821 25.4053C33.4937 25.8511 33.3364 26.3689 33.3102 26.9588H36.9873ZM49.1301 32.563H46.3574L44.3911 28.8465L43.3882 30.2427V32.563H41.0285V23.0653H43.3882V27.3717L46.2788 23.0653H49.0317L46.0232 27.3324L49.1301 32.563ZM54.1787 32.563H51.7994V25.13H49.715V23.0653H56.2828V25.13H54.1787V32.563ZM62.6182 32.799C61.5957 32.799 60.796 32.3205 60.2192 31.3635V36.1811H57.8596V23.0653H60.2192V24.2648C60.8223 23.3079 61.6219 22.8294 62.6182 22.8294C63.6932 22.8294 64.5453 23.2751 65.1745 24.1665C65.8169 25.0448 66.1381 26.2574 66.1381 27.8043C66.1381 29.3381 65.8169 30.5573 65.1745 31.4618C64.5453 32.3532 63.6932 32.799 62.6182 32.799ZM61.8513 30.7146C62.4413 30.7146 62.8935 30.4458 63.2081 29.9084C63.5359 29.3709 63.6997 28.6695 63.6997 27.8043C63.6997 26.9522 63.5359 26.2574 63.2081 25.72C62.8935 25.1825 62.4413 24.9137 61.8513 24.9137C61.5367 24.9137 61.2221 25.0186 60.9075 25.2284C60.606 25.4381 60.3766 25.7003 60.2192 26.0149V29.5937C60.3766 29.9084 60.606 30.1771 60.9075 30.4C61.2221 30.6097 61.5367 30.7146 61.8513 30.7146ZM71.7409 32.799C70.4037 32.799 69.355 32.3205 68.5947 31.3635C67.8343 30.3934 67.4542 29.207 67.4542 27.8043C67.4542 26.4016 67.8343 25.2218 68.5947 24.2648C69.355 23.3079 70.4037 22.8294 71.7409 22.8294C73.0911 22.8294 74.1464 23.3079 74.9068 24.2648C75.6671 25.2218 76.0473 26.4016 76.0473 27.8043C76.0473 29.2201 75.6671 30.4065 74.9068 31.3635C74.1464 32.3205 73.0911 32.799 71.7409 32.799ZM71.7409 30.7146C72.357 30.7146 72.8224 30.4393 73.137 29.8887C73.4516 29.3381 73.6089 28.6433 73.6089 27.8043C73.6089 26.9653 73.4516 26.2771 73.137 25.7396C72.8224 25.189 72.357 24.9137 71.7409 24.9137C71.1379 24.9137 70.679 25.189 70.3644 25.7396C70.0629 26.2902 69.9121 26.9785 69.9121 27.8043C69.9121 28.6433 70.0629 29.3381 70.3644 29.8887C70.679 30.4393 71.1379 30.7146 71.7409 30.7146ZM87.8282 32.563H85.4882V26.8015L83.3645 32.563H82.342L80.238 26.8015V32.563H77.8783V23.0653H80.9065L82.8533 28.3549L84.8197 23.0653H87.8282V32.563ZM93.9488 32.799C92.6116 32.799 91.5629 32.3205 90.8025 31.3635C90.0422 30.3934 89.662 29.207 89.662 27.8043C89.662 26.4016 90.0422 25.2218 90.8025 24.2648C91.5629 23.3079 92.6116 22.8294 93.9488 22.8294C95.299 22.8294 96.3543 23.3079 97.1146 24.2648C97.875 25.2218 98.2551 26.4016 98.2551 27.8043C98.2551 29.2201 97.875 30.4065 97.1146 31.3635C96.3543 32.3205 95.299 32.799 93.9488 32.799ZM93.9488 30.7146C94.5649 30.7146 95.0303 30.4393 95.3449 29.8887C95.6595 29.3381 95.8168 28.6433 95.8168 27.8043C95.8168 26.9653 95.6595 26.2771 95.3449 25.7396C95.0303 25.189 94.5649 24.9137 93.9488 24.9137C93.3457 24.9137 92.8869 25.189 92.5723 25.7396C92.2708 26.2902 92.12 26.9785 92.12 27.8043C92.12 28.6433 92.2708 29.3381 92.5723 29.8887C92.8869 30.4393 93.3457 30.7146 93.9488 30.7146ZM102.446 32.563H100.086V23.0653H102.446V26.6048H105.415V23.0653H107.794V32.563H105.415V28.6695H102.446V32.563ZM113.851 32.563H111.472V25.13H109.387V23.0653H115.955V25.13H113.851V32.563ZM124.827 32.563H122.448V31.6191C122.186 31.9862 121.825 32.2746 121.366 32.4843C120.92 32.6941 120.449 32.799 119.95 32.799C119.151 32.799 118.462 32.5171 117.886 31.9534C117.309 31.3897 117.02 30.6228 117.02 29.6527C117.02 28.6695 117.302 27.9092 117.866 27.3717C118.443 26.8342 119.138 26.5655 119.95 26.5655C120.462 26.5655 120.94 26.6638 121.386 26.8605C121.845 27.0571 122.199 27.3324 122.448 27.6863V26.4475C122.448 25.9363 122.29 25.5364 121.976 25.248C121.674 24.9465 121.248 24.7958 120.698 24.7958C119.832 24.7958 119.052 25.1366 118.358 25.8183L117.473 24.2058C118.43 23.2882 119.649 22.8294 121.13 22.8294C122.244 22.8294 123.136 23.1047 123.804 23.6553C124.486 24.1927 124.827 25.0383 124.827 26.1919V32.563ZM120.855 31.2062C121.589 31.2062 122.12 30.9047 122.448 30.3016V29.0825C122.107 28.4663 121.576 28.1583 120.855 28.1583C120.409 28.1583 120.049 28.3025 119.773 28.5909C119.511 28.8662 119.38 29.2332 119.38 29.6921C119.38 30.1509 119.511 30.5179 119.773 30.7932C120.049 31.0685 120.409 31.2062 120.855 31.2062ZM128.908 32.563H126.135L129.242 27.3324L126.233 23.0653H128.986L131.228 26.4082V23.0653H133.588V26.4475L135.849 23.0653H138.582L135.593 27.3324L138.7 32.563H135.928L133.961 28.8465L133.588 29.3774V32.563H131.228V29.3381L130.874 28.8465L128.908 32.563ZM142.368 32.563H140.008V23.0653H142.368V26.6048H145.337V23.0653H147.717V32.563H145.337V28.6695H142.368V32.563ZM152.318 32.563H150.037V23.0653H152.397V28.4139L155.327 23.0653H157.745V32.563H155.366V26.9981L152.318 32.563ZM168.167 32.563H165.394L163.428 28.8465L162.425 30.2427V32.563H160.066V23.0653H162.425V27.3717L165.316 23.0653H168.069L165.06 27.3324L168.167 32.563ZM173.102 32.799C171.765 32.799 170.716 32.3205 169.956 31.3635C169.195 30.3934 168.815 29.207 168.815 27.8043C168.815 26.4016 169.195 25.2218 169.956 24.2648C170.716 23.3079 171.765 22.8294 173.102 22.8294C174.452 22.8294 175.508 23.3079 176.268 24.2648C177.028 25.2218 177.408 26.4016 177.408 27.8043C177.408 29.2201 177.028 30.4065 176.268 31.3635C175.508 32.3205 174.452 32.799 173.102 32.799ZM173.102 30.7146C173.718 30.7146 174.183 30.4393 174.498 29.8887C174.813 29.3381 174.97 28.6433 174.97 27.8043C174.97 26.9653 174.813 26.2771 174.498 25.7396C174.183 25.189 173.718 24.9137 173.102 24.9137C172.499 24.9137 172.04 25.189 171.725 25.7396C171.424 26.2902 171.273 26.9785 171.273 27.8043C171.273 28.6433 171.424 29.3381 171.725 29.8887C172.04 30.4393 172.499 30.7146 173.102 30.7146ZM189.189 32.563H186.849V26.8015L184.726 32.563H183.703L181.599 26.8015V32.563H179.239V23.0653H182.268L184.214 28.3549L186.181 23.0653H189.189V32.563ZM15.2804 51.563H12.9207V42.0653H15.2804V45.6048H18.2496V42.0653H20.629V51.563H18.2496V47.6695H15.2804V51.563ZM30.2446 51.563H27.8653V50.6191C27.6031 50.9862 27.2426 51.2746 26.7838 51.4843C26.338 51.6941 25.8661 51.799 25.368 51.799C24.5683 51.799 23.8801 51.5171 23.3033 50.9534C22.7264 50.3897 22.438 49.6228 22.438 48.6527C22.438 47.6695 22.7199 46.9092 23.2836 46.3717C23.8604 45.8342 24.5552 45.5655 25.368 45.5655C25.8792 45.5655 26.3577 45.6638 26.8034 45.8605C27.2622 46.0571 27.6162 46.3324 27.8653 46.6863V45.4475C27.8653 44.9363 27.708 44.5364 27.3933 44.248C27.0918 43.9465 26.6658 43.7958 26.1152 43.7958C25.25 43.7958 24.47 44.1366 23.7752 44.8183L22.8903 43.2058C23.8473 42.2882 25.0664 41.8294 26.5478 41.8294C27.6621 41.8294 28.5535 42.1047 29.2221 42.6553C29.9038 43.1927 30.2446 44.0383 30.2446 45.1919V51.563ZM26.2725 50.2062C27.0066 50.2062 27.5375 49.9047 27.8653 49.3016V48.0825C27.5244 47.4663 26.9935 47.1583 26.2725 47.1583C25.8268 47.1583 25.4663 47.3025 25.191 47.5909C24.9288 47.8662 24.7977 48.2332 24.7977 48.6921C24.7977 49.1509 24.9288 49.5179 25.191 49.7932C25.4663 50.0685 25.8268 50.2062 26.2725 50.2062ZM44.5889 51.563H42.2293V45.2706C42.2293 44.366 41.8098 43.9137 40.9708 43.9137C40.6168 43.9137 40.2891 44.0317 39.9876 44.2677C39.6861 44.4906 39.4435 44.7658 39.26 45.0936V51.563H36.8807V38.4472H39.26V43.3042C39.5222 42.8978 39.9024 42.5504 40.4005 42.262C40.9118 41.9736 41.4558 41.8294 42.0326 41.8294C43.7368 41.8294 44.5889 42.6815 44.5889 44.3857V51.563ZM54.6175 51.563H52.2578V45.2706C52.2578 44.366 51.8383 43.9137 50.9993 43.9137C50.6454 43.9137 50.3177 44.0317 50.0162 44.2677C49.7146 44.4906 49.4721 44.7658 49.2886 45.0936V51.563H46.9093V38.4472H49.2886V43.3042C49.5508 42.8978 49.9309 42.5504 50.4291 42.262C50.9404 41.9736 51.4844 41.8294 52.0612 41.8294C53.7654 41.8294 54.6175 42.6815 54.6175 44.3857V51.563ZM59.4155 51.3467C59.1271 51.6351 58.7731 51.7793 58.3536 51.7793C57.9341 51.7793 57.5736 51.6285 57.2721 51.327C56.9706 51.0255 56.8198 50.6716 56.8198 50.2652C56.8198 49.8457 56.9706 49.4852 57.2721 49.1837C57.5736 48.8821 57.9341 48.7314 58.3536 48.7314C58.76 48.7314 59.114 48.8821 59.4155 49.1837C59.717 49.4852 59.8677 49.8457 59.8677 50.2652C59.8677 50.6847 59.717 51.0452 59.4155 51.3467ZM64.4485 51.563H62.0888V42.0653H64.4485V43.3632C64.7238 42.9306 65.0974 42.57 65.5693 42.2816C66.0544 41.9801 66.546 41.8294 67.0441 41.8294V44.1497C66.8868 44.1104 66.6967 44.0907 66.4739 44.0907C66.0937 44.0907 65.707 44.2021 65.3137 44.425C64.9336 44.6348 64.6451 44.9035 64.4485 45.2312V51.563ZM76.2726 51.563H73.913V50.3635C73.6377 50.7699 73.251 51.1107 72.7528 51.386C72.2547 51.6613 71.7106 51.799 71.1207 51.799C69.4296 51.799 68.5841 50.9469 68.5841 49.2427V42.0653H70.9437V48.3381C70.9437 49.2558 71.3632 49.7146 72.2022 49.7146C72.9101 49.7146 73.4804 49.3279 73.913 48.5544V42.0653H76.2726V51.563Z" fill="white"/>
  <path d="M7.93979 12.644H5.91442L3.45643 9.10449L5.91442 5.62399H7.93979L5.48181 9.10449L7.93979 12.644ZM4.6166 12.644H2.61089L0.152904 9.10449L2.61089 5.62399H4.6166L2.15862 9.10449L4.6166 12.644Z" fill="white"/>
  <path d="M85.5409 46.5999L83.0829 50.1394H81.0772L83.5352 46.5999L81.0772 43.1194H83.0829L85.5409 46.5999ZM88.8641 46.5999L86.4061 50.1394H84.3808L86.8387 46.5999L84.3808 43.1194H86.4061L88.8641 46.5999Z" fill="white"/>
  </svg>
  