<svg viewBox="0 0 136 82" fill="none" xmlns="http://www.w3.org/2000/svg">
  <path d="M136 0L16.2675 7.56536e-05C10.5733 7.92514e-05 7.72623 8.10504e-05 5.55136 1.10824C3.63829 2.083 2.08291 3.63838 1.10815 5.55145C-4.22014e-06 7.72632 -4.22014e-06 10.5734 -4.22014e-06 16.2675V65.7258C-4.22014e-06 71.42 -4.22014e-06 74.2671 1.10815 76.442C2.08291 78.355 3.63829 79.9104 5.55136 80.8852C7.72624 81.9933 10.5733 81.9933 16.2675 81.9933H119.733C125.427 81.9933 128.274 81.9933 130.449 80.8852C132.362 79.9104 133.917 78.355 134.892 76.442C136 74.2671 136 71.42 136 65.7259L136 0Z" fill="#D6001C"/>
  </svg>
  