<svg width="114" height="47" viewBox="0 0 114 47" fill="none" xmlns="http://www.w3.org/2000/svg">
  <path d="M12.8649 12.564H10.7591V3.79582H12.9375V8.73358L15.6424 3.79582H17.8753V12.564H15.6787V7.42652L12.8649 12.564ZM28.8944 3.79582H31.0729V10.6578H32.0532V14.7968H29.8566V12.564H20.0174V3.79582H22.1958V10.6578H24.4468V3.79582H26.6434V10.6578H28.8944V3.79582ZM35.583 12.564H33.4772V3.79582H35.6556V8.73358L38.3605 3.79582H40.5934V12.564H38.3968V7.42652L35.583 12.564ZM46.1847 12.564H43.9881V5.70194H42.0638V3.79582H48.1271V5.70194H46.1847V12.564ZM53.2135 12.7818C51.979 12.7818 50.9866 12.3582 50.2363 11.5111C49.4981 10.6639 49.1289 9.55048 49.1289 8.17082C49.1289 6.86376 49.486 5.77455 50.2 4.90319C50.914 4.01972 51.8641 3.57798 53.0501 3.57798C54.2361 3.57798 55.1619 4.01367 55.8276 4.88503C56.4932 5.7443 56.826 6.86982 56.826 8.26158V8.8788H51.3255C51.3739 9.50813 51.5797 10.0225 51.9427 10.4219C52.3058 10.8212 52.808 11.0209 53.4495 11.0209C53.7762 11.0209 54.1151 10.9483 54.4661 10.8031C54.817 10.6457 55.1135 10.434 55.3556 10.1677L56.354 11.4748C55.5553 12.3461 54.5084 12.7818 53.2135 12.7818ZM54.7202 7.39022C54.696 6.84561 54.5508 6.36757 54.2845 5.95609C54.0183 5.54461 53.5947 5.33887 53.0138 5.33887C52.4571 5.33887 52.0395 5.54461 51.7612 5.95609C51.4949 6.36757 51.3497 6.84561 51.3255 7.39022H54.7202ZM66.8373 12.7818C65.8933 12.7818 65.155 12.3401 64.6225 11.4566V15.9042H62.4441V3.79582H64.6225V4.90319C65.1792 4.01972 65.9175 3.57798 66.8373 3.57798C67.8296 3.57798 68.6163 3.98946 69.1972 4.81242C69.7902 5.62328 70.0867 6.74274 70.0867 8.17082C70.0867 9.58679 69.7902 10.7123 69.1972 11.5474C68.6163 12.3703 67.8296 12.7818 66.8373 12.7818ZM66.1293 10.8575C66.6739 10.8575 67.0914 10.6094 67.3819 10.1132C67.6844 9.61705 67.8357 8.96957 67.8357 8.17082C67.8357 7.38417 67.6844 6.74274 67.3819 6.24655C67.0914 5.75035 66.6739 5.50225 66.1293 5.50225C65.8388 5.50225 65.5484 5.59907 65.2579 5.79271C64.9795 5.98635 64.7678 6.22839 64.6225 6.51885V9.82279C64.7678 10.1132 64.9795 10.3613 65.2579 10.5671C65.5484 10.7607 65.8388 10.8575 66.1293 10.8575ZM78.4905 12.564H76.2939V11.6926C76.0519 12.0315 75.7191 12.2977 75.2955 12.4914C74.884 12.685 74.4483 12.7818 73.9885 12.7818C73.2502 12.7818 72.6148 12.5216 72.0823 12.0012C71.5498 11.4808 71.2836 10.7728 71.2836 9.87725C71.2836 8.96957 71.5438 8.26764 72.0642 7.77144C72.5967 7.27524 73.2381 7.02715 73.9885 7.02715C74.4604 7.02715 74.9022 7.11791 75.3137 7.29945C75.7372 7.48098 76.064 7.73513 76.2939 8.0619V6.91823C76.2939 6.44623 76.1487 6.07711 75.8583 5.81086C75.5799 5.53251 75.1866 5.39333 74.6783 5.39333C73.8795 5.39333 73.1594 5.70799 72.518 6.33731L71.7011 4.84873C72.5846 4.00156 73.7101 3.57798 75.0777 3.57798C76.1064 3.57798 76.9293 3.83213 77.5465 4.34043C78.1759 4.83662 78.4905 5.61722 78.4905 6.68223V12.564ZM74.8235 11.3114C75.5012 11.3114 75.9914 11.033 76.2939 10.4763V9.3508C75.9793 8.78199 75.4891 8.49758 74.8235 8.49758C74.412 8.49758 74.0792 8.63071 73.8251 8.89696C73.583 9.15111 73.462 9.48997 73.462 9.91355C73.462 10.3371 73.583 10.676 73.8251 10.9301C74.0792 11.1843 74.412 11.3114 74.8235 11.3114ZM82.8567 10.0951C83.1472 10.6034 83.5708 10.8575 84.1275 10.8575C84.6842 10.8575 85.1078 10.6034 85.3982 10.0951C85.7008 9.57469 85.8521 8.92721 85.8521 8.15266C85.8521 7.40232 85.7008 6.773 85.3982 6.2647C85.1078 5.7564 84.6842 5.50225 84.1275 5.50225C83.5708 5.50225 83.1472 5.7564 82.8567 6.2647C82.5663 6.773 82.421 7.40232 82.421 8.15266C82.421 8.92721 82.5663 9.57469 82.8567 10.0951ZM84.1275 12.7818C82.8567 12.7818 81.8764 12.3219 81.1866 11.4021C80.5089 10.4703 80.17 9.26003 80.17 7.77144C80.17 5.55671 80.4605 3.97736 81.0414 3.03338C81.6344 2.07729 82.6631 1.47218 84.1275 1.21803C85.1078 1.04859 85.5979 0.794444 85.5979 0.455578H87.8126C87.8126 1.70212 86.79 2.49482 84.7447 2.83369C83.1351 3.09994 82.2395 3.77162 82.058 4.84873C82.6389 4.00156 83.4739 3.57798 84.5632 3.57798C85.6645 3.57798 86.5298 4.01972 87.1591 4.90319C87.7884 5.78666 88.1031 6.86982 88.1031 8.15266C88.1031 9.44761 87.7521 10.5429 87.0502 11.4384C86.3604 12.334 85.3861 12.7818 84.1275 12.7818ZM93.3326 12.7818C92.0981 12.7818 91.1299 12.3401 90.428 11.4566C89.7261 10.561 89.3751 9.46577 89.3751 8.17082C89.3751 6.87587 89.7261 5.78666 90.428 4.90319C91.1299 4.01972 92.0981 3.57798 93.3326 3.57798C94.5791 3.57798 95.5533 4.01972 96.2553 4.90319C96.9572 5.78666 97.3082 6.87587 97.3082 8.17082C97.3082 9.47787 96.9572 10.5731 96.2553 11.4566C95.5533 12.3401 94.5791 12.7818 93.3326 12.7818ZM93.3326 10.8575C93.9014 10.8575 94.331 10.6034 94.6215 10.0951C94.9119 9.58679 95.0572 8.94537 95.0572 8.17082C95.0572 7.39627 94.9119 6.7609 94.6215 6.2647C94.331 5.7564 93.9014 5.50225 93.3326 5.50225C92.7759 5.50225 92.3523 5.7564 92.0618 6.2647C91.7835 6.773 91.6443 7.40837 91.6443 8.17082C91.6443 8.94537 91.7835 9.58679 92.0618 10.0951C92.3523 10.6034 92.7759 10.8575 93.3326 10.8575ZM102.448 12.564H100.251V5.70194H98.3269V3.79582H104.39V5.70194H102.448V12.564ZM105.646 15.995L105.973 14.0707C106.142 14.1554 106.33 14.1978 106.536 14.1978C107.02 14.1978 107.34 13.986 107.498 13.5624L107.788 12.7273L104.829 3.79582H107.153L108.914 9.93171L110.693 3.79582H113.016L109.585 14.0526C109.331 14.8271 108.974 15.3596 108.514 15.6501C108.055 15.9526 107.449 16.1099 106.699 16.1221C106.275 16.1221 105.925 16.0797 105.646 15.995ZM14.3172 29.7818C13.1191 29.7818 12.1509 29.3522 11.4126 28.4929C10.6744 27.6336 10.3053 26.5263 10.3053 25.1708C10.3053 23.8275 10.6744 22.7261 11.4126 21.8669C12.1509 21.0076 13.1191 20.578 14.3172 20.578C15.5274 20.578 16.4593 20.9713 17.1128 21.758L16.0236 23.2647C15.6121 22.7564 15.122 22.5023 14.5532 22.5023C13.936 22.5023 13.4458 22.7564 13.0827 23.2647C12.7318 23.7609 12.5563 24.3963 12.5563 25.1708C12.5563 25.9575 12.7318 26.6049 13.0827 27.1132C13.4458 27.6094 13.936 27.8575 14.5532 27.8575C15.122 27.8575 15.6121 27.6034 16.0236 27.0951L17.1128 28.6018C16.4593 29.3885 15.5274 29.7818 14.3172 29.7818ZM23.1561 29.564H18.5814V20.7958H23.029C23.9125 20.7958 24.5781 21.0076 25.0259 21.4312C25.4858 21.8548 25.7157 22.3933 25.7157 23.0469C25.7157 23.5552 25.5766 23.9848 25.2982 24.3358C25.0199 24.6746 24.6568 24.9046 24.209 25.0256C24.7052 25.1345 25.1106 25.3887 25.4253 25.788C25.7399 26.1874 25.8973 26.6534 25.8973 27.1859C25.8973 27.8878 25.6673 28.4627 25.2074 28.9104C24.7476 29.3461 24.0638 29.564 23.1561 29.564ZM22.6478 27.8031C23.3255 27.8031 23.6644 27.5005 23.6644 26.8954C23.6644 26.6291 23.5736 26.4113 23.3921 26.2419C23.2227 26.0603 22.9746 25.9696 22.6478 25.9696H20.7598V27.8031H22.6478ZM22.5752 24.2087C23.1924 24.2087 23.501 23.9364 23.501 23.3918C23.501 23.1376 23.4223 22.9379 23.265 22.7927C23.1077 22.6354 22.8777 22.5567 22.5752 22.5567H20.7598V24.2087H22.5752ZM34.6101 29.564H32.4135V28.6926C32.1715 29.0315 31.8387 29.2977 31.4151 29.4914C31.0036 29.685 30.5679 29.7818 30.108 29.7818C29.3698 29.7818 28.7344 29.5216 28.2019 29.0012C27.6694 28.4808 27.4032 27.7728 27.4032 26.8772C27.4032 25.9696 27.6634 25.2676 28.1838 24.7714C28.7163 24.2752 29.3577 24.0271 30.108 24.0271C30.58 24.0271 31.0218 24.1179 31.4332 24.2994C31.8568 24.481 32.1836 24.7351 32.4135 25.0619V23.9182C32.4135 23.4462 32.2683 23.0771 31.9778 22.8109C31.6995 22.5325 31.3062 22.3933 30.7979 22.3933C29.9991 22.3933 29.279 22.708 28.6376 23.3373L27.8207 21.8487C28.7042 21.0016 29.8297 20.578 31.1972 20.578C32.2259 20.578 33.0489 20.8321 33.6661 21.3404C34.2954 21.8366 34.6101 22.6172 34.6101 23.6822V29.564ZM30.9431 28.3114C31.6208 28.3114 32.111 28.033 32.4135 27.4763V26.3508C32.0989 25.782 31.6087 25.4976 30.9431 25.4976C30.5316 25.4976 30.1988 25.6307 29.9447 25.897C29.7026 26.1511 29.5816 26.49 29.5816 26.9136C29.5816 27.3371 29.7026 27.676 29.9447 27.9301C30.1988 28.1843 30.5316 28.3114 30.9431 28.3114ZM41.1366 29.7818C40.1926 29.7818 39.4543 29.3401 38.9218 28.4566V32.9042H36.7434V20.7958H38.9218V21.9032C39.4786 21.0197 40.2168 20.578 41.1366 20.578C42.129 20.578 42.9156 20.9895 43.4965 21.8124C44.0895 22.6233 44.386 23.7427 44.386 25.1708C44.386 26.5868 44.0895 27.7123 43.4965 28.5474C42.9156 29.3703 42.129 29.7818 41.1366 29.7818ZM40.4286 27.8575C40.9732 27.8575 41.3907 27.6094 41.6812 27.1132C41.9837 26.617 42.135 25.9696 42.135 25.1708C42.135 24.3842 41.9837 23.7427 41.6812 23.2465C41.3907 22.7504 40.9732 22.5023 40.4286 22.5023C40.1381 22.5023 39.8477 22.5991 39.5572 22.7927C39.2789 22.9863 39.0671 23.2284 38.9218 23.5188V26.8228C39.0671 27.1132 39.2789 27.3613 39.5572 27.5671C39.8477 27.7607 40.1381 27.8575 40.4286 27.8575ZM54.932 20.7958H57.1104V27.6578H58.0907V31.7968H55.8941V29.564H46.0549V20.7958H48.2333V27.6578H50.4843V20.7958H52.6809V27.6578H54.932V20.7958ZM61.6205 29.564H59.5147V20.7958H61.6931V25.7336L64.398 20.7958H66.6309V29.564H64.4343V24.4265L61.6205 29.564ZM76.2523 29.564H73.6926L71.8773 26.133L70.9514 27.4219V29.564H68.773V20.7958H70.9514V24.7714L73.62 20.7958H76.1615L73.384 24.7351L76.2523 29.564ZM80.8081 29.7818C79.5736 29.7818 78.6054 29.3401 77.9035 28.4566C77.2016 27.561 76.8506 26.4658 76.8506 25.1708C76.8506 23.8759 77.2016 22.7867 77.9035 21.9032C78.6054 21.0197 79.5736 20.578 80.8081 20.578C82.0546 20.578 83.0289 21.0197 83.7308 21.9032C84.4327 22.7867 84.7837 23.8759 84.7837 25.1708C84.7837 26.4779 84.4327 27.5731 83.7308 28.4566C83.0289 29.3401 82.0546 29.7818 80.8081 29.7818ZM80.8081 27.8575C81.3769 27.8575 81.8065 27.6034 82.097 27.0951C82.3874 26.5868 82.5327 25.9454 82.5327 25.1708C82.5327 24.3963 82.3874 23.7609 82.097 23.2647C81.8065 22.7564 81.3769 22.5023 80.8081 22.5023C80.2514 22.5023 79.8278 22.7564 79.5373 23.2647C79.259 23.773 79.1198 24.4084 79.1198 25.1708C79.1198 25.9454 79.259 26.5868 79.5373 27.0951C79.8278 27.6034 80.2514 27.8575 80.8081 27.8575ZM95.6598 29.564H93.4995V24.245L91.5389 29.564H90.5949L88.6525 24.245V29.564H86.4741V20.7958H89.2697L91.0669 25.6791L92.8823 20.7958H95.6598V29.564ZM12.9375 46.564H10.7591V37.7958H12.9375V41.0635H15.6787V37.7958H17.8753V46.564H15.6787V42.9696H12.9375V46.564ZM26.7523 46.564H24.5558V45.6926C24.3137 46.0315 23.9809 46.2977 23.5573 46.4914C23.1458 46.685 22.7102 46.7818 22.2503 46.7818C21.512 46.7818 20.8766 46.5216 20.3441 46.0012C19.8116 45.4808 19.5454 44.7728 19.5454 43.8772C19.5454 42.9696 19.8056 42.2676 20.326 41.7714C20.8585 41.2752 21.4999 41.0271 22.2503 41.0271C22.7223 41.0271 23.164 41.1179 23.5755 41.2994C23.9991 41.481 24.3258 41.7351 24.5558 42.0619V40.9182C24.5558 40.4462 24.4105 40.0771 24.1201 39.8109C23.8417 39.5325 23.4484 39.3933 22.9401 39.3933C22.1413 39.3933 21.4213 39.708 20.7798 40.3373L19.9629 38.8487C20.8464 38.0016 21.9719 37.578 23.3395 37.578C24.3682 37.578 25.1911 37.8321 25.8084 38.3404C26.4377 38.8366 26.7523 39.6172 26.7523 40.6822V46.564ZM23.0853 45.3114C23.7631 45.3114 24.2532 45.033 24.5558 44.4763V43.3508C24.2411 42.782 23.751 42.4976 23.0853 42.4976C22.6738 42.4976 22.341 42.6307 22.0869 42.897C21.8448 43.1511 21.7238 43.49 21.7238 43.9136C21.7238 44.3371 21.8448 44.676 22.0869 44.9301C22.341 45.1843 22.6738 45.3114 23.0853 45.3114ZM39.9949 46.564H37.8165V40.7548C37.8165 39.9198 37.4292 39.5023 36.6546 39.5023C36.3279 39.5023 36.0253 39.6112 35.747 39.829C35.4686 40.0348 35.2447 40.2889 35.0753 40.5915V46.564H32.8787V34.4556H35.0753V38.9395C35.3173 38.5643 35.6683 38.2436 36.1282 37.9774C36.6002 37.7111 37.1024 37.578 37.6349 37.578C39.2082 37.578 39.9949 38.3646 39.9949 39.9379V46.564ZM49.2532 46.564H47.0748V40.7548C47.0748 39.9198 46.6875 39.5023 45.9129 39.5023C45.5862 39.5023 45.2836 39.6112 45.0053 39.829C44.7269 40.0348 44.503 40.2889 44.3336 40.5915V46.564H42.137V34.4556H44.3336V38.9395C44.5756 38.5643 44.9266 38.2436 45.3865 37.9774C45.8585 37.7111 46.3607 37.578 46.8932 37.578C48.4665 37.578 49.2532 38.3646 49.2532 39.9379V46.564ZM53.6826 46.3643C53.4164 46.6305 53.0896 46.7637 52.7023 46.7637C52.3151 46.7637 51.9822 46.6245 51.7039 46.3461C51.4255 46.0678 51.2864 45.741 51.2864 45.3658C51.2864 44.9786 51.4255 44.6457 51.7039 44.3674C51.9822 44.089 52.3151 43.9499 52.7023 43.9499C53.0775 43.9499 53.4043 44.089 53.6826 44.3674C53.961 44.6457 54.1002 44.9786 54.1002 45.3658C54.1002 45.7531 53.961 46.0859 53.6826 46.3643ZM58.3291 46.564H56.1507V37.7958H58.3291V38.994C58.5832 38.5946 58.9281 38.2618 59.3638 37.9955C59.8116 37.7172 60.2654 37.578 60.7253 37.578V39.7201C60.5801 39.6838 60.4046 39.6656 60.1989 39.6656C59.8479 39.6656 59.4909 39.7685 59.1278 39.9742C58.7769 40.1679 58.5106 40.416 58.3291 40.7185V46.564ZM69.245 46.564H67.0666V45.4566C66.8124 45.8318 66.4554 46.1464 65.9955 46.4006C65.5356 46.6547 65.0334 46.7818 64.4888 46.7818C62.9276 46.7818 62.147 45.9952 62.147 44.4219V37.7958H64.3254V43.5868C64.3254 44.434 64.7127 44.8575 65.4872 44.8575C66.1408 44.8575 66.6672 44.5005 67.0666 43.7865V37.7958H69.245V46.564ZM77.7957 42.1527L75.5265 45.4203H73.6749L75.9441 42.1527L73.6749 38.9395H75.5265L77.7957 42.1527ZM80.8637 42.1527L78.5945 45.4203H76.7247L78.9939 42.1527L76.7247 38.9395H78.5945L80.8637 42.1527Z" fill="white"/>
  <path d="M7.60351 11.267H5.7337L3.46451 7.99934L5.7337 4.78617H7.60351L5.33432 7.99934L7.60351 11.267ZM4.53557 11.267H2.68391L0.414722 7.99934L2.68391 4.78617H4.53557L2.26638 7.99934L4.53557 11.267Z" fill="white"/>
  </svg>
  