<svg width="393" height="122" viewBox="0 0 393 122" fill="none" xmlns="http://www.w3.org/2000/svg">
  <path d="M20.14 28.5089H15.1076L9.00022 19.7143L15.1076 11.0663H20.14L14.0327 19.7143L20.14 28.5089ZM11.8829 28.5089H6.89929L0.791937 19.7143L6.89929 11.0663H11.8829L5.77554 19.7143L11.8829 28.5089Z" fill="white"/>
  <path d="M37.9583 32.587H32.2907V8.98822H38.1538V22.2778L45.4337 8.98822H51.4434V32.587H45.5315V18.76L37.9583 32.587ZM81.1007 8.98822H86.9638V27.4569H89.6021V38.5967H83.6902V32.587H57.2087V8.98822H63.0718V27.4569H69.1303V8.98822H75.0422V27.4569H81.1007V8.98822ZM99.1025 32.587H93.4349V8.98822H99.2979V22.2778L106.578 8.98822H112.588V32.587H106.676V18.76L99.1025 32.587ZM127.636 32.587H121.724V14.1184H116.545V8.98822H132.864V14.1184H127.636V32.587ZM146.554 33.1733C143.231 33.1733 140.56 32.0333 138.541 29.7532C136.554 27.4731 135.56 24.4765 135.56 20.7632C135.56 17.2454 136.521 14.3138 138.443 11.9686C140.365 9.59081 142.922 8.40191 146.114 8.40191C149.306 8.40191 151.798 9.57453 153.589 11.9198C155.381 14.2324 156.276 17.2616 156.276 21.0075V22.6687H141.472C141.603 24.3625 142.156 25.7468 143.133 26.8217C144.111 27.8966 145.462 28.434 147.189 28.434C148.068 28.434 148.98 28.2386 149.925 27.8477C150.869 27.4243 151.667 26.8543 152.319 26.1377L155.006 29.6555C152.856 32.0007 150.039 33.1733 146.554 33.1733ZM150.609 18.6623C150.544 17.1965 150.153 15.9099 149.436 14.8024C148.72 13.695 147.58 13.1412 146.016 13.1412C144.518 13.1412 143.394 13.695 142.645 14.8024C141.928 15.9099 141.537 17.1965 141.472 18.6623H150.609ZM183.221 33.1733C180.68 33.1733 178.693 31.9844 177.26 29.6066V41.5771H171.397V8.98822H177.26V11.9686C178.759 9.59081 180.745 8.40191 183.221 8.40191C185.892 8.40191 188.009 9.50938 189.573 11.7243C191.169 13.9067 191.967 16.9196 191.967 20.7632C191.967 24.5742 191.169 27.6034 189.573 29.8509C188.009 32.0659 185.892 33.1733 183.221 33.1733ZM181.315 27.9943C182.781 27.9943 183.905 27.3266 184.687 25.9911C185.501 24.6556 185.908 22.913 185.908 20.7632C185.908 18.646 185.501 16.9196 184.687 15.5842C183.905 14.2487 182.781 13.581 181.315 13.581C180.534 13.581 179.752 13.8415 178.97 14.3627C178.221 14.8839 177.651 15.5353 177.26 16.317V25.2094C177.651 25.9911 178.221 26.6588 178.97 27.2126C179.752 27.7337 180.534 27.9943 181.315 27.9943ZM214.585 32.587H208.673V30.2418C208.022 31.1538 207.126 31.8704 205.986 32.3916C204.878 32.9128 203.706 33.1733 202.468 33.1733C200.481 33.1733 198.771 32.473 197.338 31.0724C195.905 29.6718 195.188 27.7663 195.188 25.3559C195.188 22.913 195.888 21.0238 197.289 19.6883C198.722 18.3528 200.448 17.6851 202.468 17.6851C203.738 17.6851 204.927 17.9294 206.035 18.418C207.175 18.9066 208.054 19.5906 208.673 20.47V17.3919C208.673 16.1216 208.282 15.1281 207.5 14.4116C206.751 13.6624 205.693 13.2878 204.325 13.2878C202.175 13.2878 200.237 14.1347 198.51 15.8285L196.312 11.822C198.69 9.54195 201.719 8.40191 205.399 8.40191C208.168 8.40191 210.383 9.08594 212.044 10.454C213.738 11.7895 214.585 13.8904 214.585 16.7568V32.587ZM204.715 29.2158C206.539 29.2158 207.859 28.4666 208.673 26.9683V23.939C207.826 22.4081 206.507 21.6427 204.715 21.6427C203.608 21.6427 202.712 22.001 202.028 22.7176C201.377 23.4016 201.051 24.3136 201.051 25.4536C201.051 26.5937 201.377 27.5057 202.028 28.1897C202.712 28.8738 203.608 29.2158 204.715 29.2158ZM226.336 25.9422C227.118 27.3103 228.258 27.9943 229.756 27.9943C231.255 27.9943 232.395 27.3103 233.176 25.9422C233.991 24.5416 234.398 22.799 234.398 20.7143C234.398 18.6948 233.991 17.0011 233.176 15.633C232.395 14.265 231.255 13.581 229.756 13.581C228.258 13.581 227.118 14.265 226.336 15.633C225.554 17.0011 225.164 18.6948 225.164 20.7143C225.164 22.799 225.554 24.5416 226.336 25.9422ZM229.756 33.1733C226.336 33.1733 223.698 31.9356 221.841 29.4601C220.017 26.952 219.105 23.6947 219.105 19.6883C219.105 13.7275 219.887 9.47681 221.45 6.93615C223.046 4.36292 225.815 2.73429 229.756 2.05027C232.395 1.59425 233.714 0.910226 233.714 -0.00180585H239.675C239.675 3.35317 236.922 5.48667 231.418 6.3987C227.085 7.1153 224.675 8.92308 224.186 11.822C225.75 9.54195 227.997 8.40191 230.929 8.40191C233.893 8.40191 236.222 9.59081 237.916 11.9686C239.61 14.3464 240.456 17.2616 240.456 20.7143C240.456 24.1996 239.512 27.1474 237.623 29.5578C235.766 31.9682 233.144 33.1733 229.756 33.1733ZM254.531 33.1733C251.209 33.1733 248.603 31.9844 246.714 29.6066C244.825 27.1963 243.88 24.2485 243.88 20.7632C243.88 17.2779 244.825 14.3464 246.714 11.9686C248.603 9.59081 251.209 8.40191 254.531 8.40191C257.886 8.40191 260.508 9.59081 262.397 11.9686C264.287 14.3464 265.231 17.2779 265.231 20.7632C265.231 24.281 264.287 27.2289 262.397 29.6066C260.508 31.9844 257.886 33.1733 254.531 33.1733ZM254.531 27.9943C256.062 27.9943 257.218 27.3103 258 25.9422C258.782 24.5742 259.173 22.8478 259.173 20.7632C259.173 18.6786 258.782 16.9685 258 15.633C257.218 14.265 256.062 13.581 254.531 13.581C253.033 13.581 251.893 14.265 251.111 15.633C250.362 17.0011 249.987 18.7111 249.987 20.7632C249.987 22.8478 250.362 24.5742 251.111 25.9422C251.893 27.3103 253.033 27.9943 254.531 27.9943ZM279.064 32.587H273.152V14.1184H267.973V8.98822H284.292V14.1184H279.064V32.587ZM287.672 41.8214L288.552 36.6423C289.008 36.8703 289.513 36.9843 290.066 36.9843C291.369 36.9843 292.233 36.4143 292.656 35.2743L293.438 33.0268L285.474 8.98822H291.728L296.467 25.5025L301.255 8.98822H307.509L298.275 36.5935C297.591 38.6781 296.63 40.1113 295.392 40.893C294.154 41.7074 292.526 42.1308 290.506 42.1634C289.366 42.1634 288.422 42.0494 287.672 41.8214ZM50.4173 76.587H44.5054V74.2418C43.854 75.1538 42.9582 75.8704 41.8182 76.3916C40.7107 76.9128 39.5381 77.1733 38.3004 77.1733C36.3134 77.1733 34.6034 76.473 33.1702 75.0724C31.737 73.6718 31.0204 71.7663 31.0204 69.3559C31.0204 66.913 31.7207 65.0238 33.1213 63.6883C34.5545 62.3528 36.2809 61.6851 38.3004 61.6851C39.5707 61.6851 40.7596 61.9294 41.8671 62.418C43.0071 62.9066 43.8866 63.5906 44.5054 64.47V61.3919C44.5054 60.1216 44.1146 59.1281 43.3328 58.4116C42.5836 57.6624 41.525 57.2878 40.157 57.2878C38.0072 57.2878 36.0691 58.1347 34.3428 59.8285L32.1441 55.822C34.5219 53.542 37.5512 52.4019 41.2319 52.4019C44.0006 52.4019 46.2155 53.0859 47.8767 54.454C49.5705 55.7895 50.4173 57.8904 50.4173 60.7568V76.587ZM40.5479 73.2158C42.3719 73.2158 43.6911 72.4666 44.5054 70.9683V67.939C43.6585 66.4081 42.3394 65.6427 40.5479 65.6427C39.4404 65.6427 38.5447 66.001 37.8606 66.7176C37.2092 67.4016 36.8835 68.3136 36.8835 69.4536C36.8835 70.5937 37.2092 71.5057 37.8606 72.1897C38.5447 72.8738 39.4404 73.2158 40.5479 73.2158ZM54.3512 82.5967V71.8966C55.361 71.7337 56.1264 71.2289 56.6476 70.382C57.1688 69.5025 57.5596 67.7436 57.8202 65.1052L58.944 52.9882H75.3117V71.4569H77.7546V82.5967H71.8916V76.587H60.2143V82.5967H54.3512ZM64.2696 58.1184L63.6833 65.3006C63.4553 68.0367 62.6572 70.0888 61.2892 71.4569H69.3998V58.1184H64.2696ZM106.277 76.587H100.463V62.2714L95.1858 76.587H92.6451L87.4172 62.2714V76.587H81.5542V52.9882H89.0784L93.9154 66.1312L98.8013 52.9882H106.277V76.587ZM117.722 76.587H112.055V52.9882H117.918V66.2778L125.198 52.9882H131.207V76.587H125.295V62.76L117.722 76.587ZM142.836 76.587H136.973V52.9882H142.836V61.7828H150.213V52.9882H156.125V76.587H150.213V66.913H142.836V76.587ZM167.558 76.587H161.891V52.9882H167.754V66.2778L175.034 52.9882H181.043V76.587H175.131V62.76L167.558 76.587ZM196.385 77.1733C193.16 77.1733 190.555 76.017 188.568 73.7044C186.581 71.3917 185.587 68.4113 185.587 64.7632C185.587 61.1476 186.581 58.1835 188.568 55.8709C190.555 53.5582 193.16 52.4019 196.385 52.4019C199.642 52.4019 202.15 53.4605 203.909 55.5777L200.978 59.633C199.87 58.265 198.551 57.581 197.02 57.581C195.359 57.581 194.04 58.265 193.063 59.633C192.118 60.9685 191.646 62.6786 191.646 64.7632C191.646 66.8804 192.118 68.623 193.063 69.9911C194.04 71.3266 195.359 71.9943 197.02 71.9943C198.551 71.9943 199.87 71.3103 200.978 69.9422L203.909 73.9975C202.15 76.1147 199.642 77.1733 196.385 77.1733ZM217.145 76.587H211.233V58.1184H206.054V52.9882H222.373V58.1184H217.145V76.587ZM238.115 77.1733C235.574 77.1733 233.587 75.9844 232.154 73.6066V85.5771H226.291V52.9882H232.154V55.9686C233.652 53.5908 235.639 52.4019 238.115 52.4019C240.786 52.4019 242.903 53.5094 244.466 55.7243C246.062 57.9067 246.86 60.9196 246.86 64.7632C246.86 68.5742 246.062 71.6034 244.466 73.8509C242.903 76.0659 240.786 77.1733 238.115 77.1733ZM236.209 71.9943C237.675 71.9943 238.799 71.3266 239.58 69.9911C240.395 68.6556 240.802 66.913 240.802 64.7632C240.802 62.646 240.395 60.9196 239.58 59.5842C238.799 58.2487 237.675 57.581 236.209 57.581C235.427 57.581 234.646 57.8415 233.864 58.3627C233.115 58.8839 232.545 59.5353 232.154 60.317V69.2094C232.545 69.9911 233.115 70.6588 233.864 71.2126C234.646 71.7337 235.427 71.9943 236.209 71.9943ZM269.479 76.587H263.567V74.2418C262.915 75.1538 262.019 75.8704 260.879 76.3916C259.772 76.9128 258.599 77.1733 257.362 77.1733C255.375 77.1733 253.665 76.473 252.231 75.0724C250.798 73.6718 250.082 71.7663 250.082 69.3559C250.082 66.913 250.782 65.0238 252.183 63.6883C253.616 62.3528 255.342 61.6851 257.362 61.6851C258.632 61.6851 259.821 61.9294 260.928 62.418C262.068 62.9066 262.948 63.5906 263.567 64.47V61.3919C263.567 60.1216 263.176 59.1281 262.394 58.4116C261.645 57.6624 260.586 57.2878 259.218 57.2878C257.068 57.2878 255.13 58.1347 253.404 59.8285L251.205 55.822C253.583 53.542 256.612 52.4019 260.293 52.4019C263.062 52.4019 265.277 53.0859 266.938 54.454C268.632 55.7895 269.479 57.8904 269.479 60.7568V76.587ZM259.609 73.2158C261.433 73.2158 262.752 72.4666 263.567 70.9683V67.939C262.72 66.4081 261.401 65.6427 259.609 65.6427C258.502 65.6427 257.606 66.001 256.922 66.7176C256.27 67.4016 255.945 68.3136 255.945 69.4536C255.945 70.5937 256.27 71.5057 256.922 72.1897C257.606 72.8738 258.502 73.2158 259.609 73.2158ZM284.503 76.587H278.592V58.1184H273.412V52.9882H289.731V58.1184H284.503V76.587ZM303.079 77.1733C299.757 77.1733 297.151 75.9844 295.262 73.6066C293.372 71.1963 292.428 68.2485 292.428 64.7632C292.428 61.2779 293.372 58.3464 295.262 55.9686C297.151 53.5908 299.757 52.4019 303.079 52.4019C306.434 52.4019 309.056 53.5908 310.945 55.9686C312.834 58.3464 313.779 61.2779 313.779 64.7632C313.779 68.281 312.834 71.2289 310.945 73.6066C309.056 75.9844 306.434 77.1733 303.079 77.1733ZM303.079 71.9943C304.61 71.9943 305.766 71.3103 306.548 69.9422C307.33 68.5742 307.721 66.8478 307.721 64.7632C307.721 62.6786 307.33 60.9685 306.548 59.633C305.766 58.265 304.61 57.581 303.079 57.581C301.581 57.581 300.441 58.265 299.659 59.633C298.91 61.0011 298.535 62.7111 298.535 64.7632C298.535 66.8478 298.91 68.5742 299.659 69.9422C300.441 71.3103 301.581 71.9943 303.079 71.9943ZM330.152 77.1733C327.612 77.1733 325.625 75.9844 324.192 73.6066V85.5771H318.329V52.9882H324.192V55.9686C325.69 53.5908 327.677 52.4019 330.152 52.4019C332.823 52.4019 334.941 53.5094 336.504 55.7243C338.1 57.9067 338.898 60.9196 338.898 64.7632C338.898 68.5742 338.1 71.6034 336.504 73.8509C334.941 76.0659 332.823 77.1733 330.152 77.1733ZM328.247 71.9943C329.713 71.9943 330.836 71.3266 331.618 69.9911C332.433 68.6556 332.84 66.913 332.84 64.7632C332.84 62.646 332.433 60.9196 331.618 59.5842C330.836 58.2487 329.713 57.581 328.247 57.581C327.465 57.581 326.683 57.8415 325.902 58.3627C325.153 58.8839 324.583 59.5353 324.192 60.317V69.2094C324.583 69.9911 325.153 70.6588 325.902 71.2126C326.683 71.7337 327.465 71.9943 328.247 71.9943ZM352.82 77.1733C349.497 77.1733 346.891 75.9844 345.002 73.6066C343.113 71.1963 342.168 68.2485 342.168 64.7632C342.168 61.2779 343.113 58.3464 345.002 55.9686C346.891 53.5908 349.497 52.4019 352.82 52.4019C356.175 52.4019 358.797 53.5908 360.686 55.9686C362.575 58.3464 363.52 61.2779 363.52 64.7632C363.52 68.281 362.575 71.2289 360.686 73.6066C358.797 75.9844 356.175 77.1733 352.82 77.1733ZM352.82 71.9943C354.35 71.9943 355.507 71.3103 356.289 69.9422C357.07 68.5742 357.461 66.8478 357.461 64.7632C357.461 62.6786 357.07 60.9685 356.289 59.633C355.507 58.265 354.35 57.581 352.82 57.581C351.321 57.581 350.181 58.265 349.399 59.633C348.65 61.0011 348.276 62.7111 348.276 64.7632C348.276 66.8478 348.65 68.5742 349.399 69.9422C350.181 71.3103 351.321 71.9943 352.82 71.9943ZM392.792 76.587H386.978V62.2714L381.701 76.587H379.16L373.932 62.2714V76.587H368.069V52.9882H375.593L380.43 66.1312L385.316 52.9882H392.792V76.587ZM38.1538 120.587H32.2907V96.9882H38.1538V105.783H45.5315V96.9882H51.4434V120.587H45.5315V110.913H38.1538V120.587ZM75.3353 120.587H69.4234V118.242C68.772 119.154 67.8762 119.87 66.7362 120.392C65.6287 120.913 64.4561 121.173 63.2184 121.173C61.2314 121.173 59.5214 120.473 58.0882 119.072C56.655 117.672 55.9384 115.766 55.9384 113.356C55.9384 110.913 56.6387 109.024 58.0393 107.688C59.4725 106.353 61.1989 105.685 63.2184 105.685C64.4887 105.685 65.6776 105.929 66.7851 106.418C67.9251 106.907 68.8046 107.591 69.4234 108.47V105.392C69.4234 104.122 69.0326 103.128 68.2508 102.412C67.5017 101.662 66.443 101.288 65.075 101.288C62.9252 101.288 60.9871 102.135 59.2608 103.828L57.0621 99.822C59.4399 97.542 62.4692 96.4019 66.1499 96.4019C68.9186 96.4019 71.1335 97.0859 72.7947 98.454C74.4885 99.7895 75.3353 101.89 75.3353 104.757V120.587ZM65.4659 117.216C67.2899 117.216 68.6091 116.467 69.4234 114.968V111.939C68.5765 110.408 67.2574 109.643 65.4659 109.643C64.3584 109.643 63.4627 110.001 62.7786 110.718C62.1272 111.402 61.8015 112.314 61.8015 113.454C61.8015 114.594 62.1272 115.506 62.7786 116.19C63.4627 116.874 64.3584 117.216 65.4659 117.216ZM110.977 120.587H105.114V104.952C105.114 102.705 104.071 101.581 101.987 101.581C101.107 101.581 100.293 101.874 99.5438 102.46C98.7946 103.014 98.192 103.698 97.736 104.512V120.587H91.8241V87.9982H97.736V100.066C98.3874 99.0566 99.332 98.1934 100.57 97.4768C101.84 96.7602 103.192 96.4019 104.625 96.4019C108.86 96.4019 110.977 98.5191 110.977 102.754V120.587ZM135.895 120.587H130.032V104.952C130.032 102.705 128.989 101.581 126.905 101.581C126.025 101.581 125.211 101.874 124.462 102.46C123.713 103.014 123.11 103.698 122.654 104.512V120.587H116.742V87.9982H122.654V100.066C123.305 99.0566 124.25 98.1934 125.488 97.4768C126.758 96.7602 128.11 96.4019 129.543 96.4019C133.778 96.4019 135.895 98.5191 135.895 102.754V120.587ZM147.816 120.05C147.1 120.766 146.22 121.124 145.178 121.124C144.136 121.124 143.24 120.75 142.491 120.001C141.741 119.252 141.367 118.372 141.367 117.362C141.367 116.32 141.741 115.424 142.491 114.675C143.24 113.926 144.136 113.551 145.178 113.551C146.188 113.551 147.067 113.926 147.816 114.675C148.565 115.424 148.94 116.32 148.94 117.362C148.94 118.405 148.565 119.3 147.816 120.05ZM160.322 120.587H154.459V96.9882H160.322V100.213C161.006 99.138 161.934 98.2423 163.107 97.5257C164.312 96.7765 165.533 96.4019 166.771 96.4019V102.167C166.38 102.07 165.908 102.021 165.354 102.021C164.41 102.021 163.449 102.298 162.472 102.851C161.527 103.372 160.81 104.04 160.322 104.854V120.587ZM189.701 120.587H183.838V117.607C183.154 118.616 182.193 119.463 180.956 120.147C179.718 120.831 178.366 121.173 176.9 121.173C172.698 121.173 170.597 119.056 170.597 114.822V96.9882H176.461V112.574C176.461 114.854 177.503 115.994 179.587 115.994C181.346 115.994 182.763 115.033 183.838 113.112V96.9882H189.701V120.587Z" fill="white"/>
  <path d="M200.904 100.818L205.937 100.818L212.044 109.612L205.937 118.26L200.904 118.26L207.012 109.612L200.904 100.818ZM209.161 100.818L214.145 100.818L220.252 109.612L214.145 118.26L209.161 118.26L215.269 109.612L209.161 100.818Z" fill="white"/>
  </svg>
  