<svg width="349" height="72" viewBox="0 0 349 72" fill="none" xmlns="http://www.w3.org/2000/svg">
  <path d="M16.4038 23.805H12.2803L7.27595 16.5988L12.2803 9.51267H16.4038L11.3995 16.5988L16.4038 23.805ZM9.63798 23.805H5.55446L0.550155 16.5988L5.55446 9.51267H9.63798L4.63367 16.5988L9.63798 23.805Z" fill="white"/>
  <path d="M31.0041 27.3271H26.3601V7.9905H31.1642V18.8799L37.1294 7.9905H42.0536V27.3271H37.2094V15.9974L31.0041 27.3271ZM66.3545 7.9905H71.1587V23.1235H73.3205V32.2514H68.4764V27.3271H46.7777V7.9905H51.5818V23.1235H56.5461V7.9905H61.3903V23.1235H66.3545V7.9905ZM81.105 27.3271H76.461V7.9905H81.2652V18.8799L87.2303 7.9905H92.1546V27.3271H87.3104V15.9974L81.105 27.3271ZM104.485 27.3271H99.641V12.1941H95.3973V7.9905H108.769V12.1941H104.485V27.3271ZM119.986 27.8076C114.541 27.8076 110.978 23.724 110.978 17.6388C110.978 12.034 114.261 7.51009 119.626 7.51009C124.95 7.51009 127.953 11.8338 127.953 17.839V19.2002H115.822C116.023 21.8424 117.584 23.9242 120.506 23.9242C121.868 23.9242 123.629 23.2436 124.71 22.0426L126.912 24.9251C125.19 26.8067 122.588 27.8076 119.986 27.8076ZM123.309 15.9173C123.229 13.9156 122.348 11.3934 119.546 11.3934C116.863 11.3934 115.902 13.9156 115.822 15.9173H123.309ZM150.031 27.8076C148.189 27.8076 146.348 26.8868 145.147 24.885V34.6935H140.343V7.9905H145.147V10.4326C146.348 8.51095 148.149 7.51009 150.031 7.51009C154.395 7.51009 157.197 11.3134 157.197 17.6388C157.197 23.9242 154.395 27.8076 150.031 27.8076ZM148.47 23.5639C150.952 23.5639 152.233 21.0417 152.233 17.6388C152.233 14.2759 150.952 11.7537 148.47 11.7537C147.188 11.7537 145.787 12.7146 145.147 13.9957V21.2819C145.787 22.523 147.188 23.5639 148.47 23.5639ZM175.73 27.3271H170.886V25.4055C169.805 26.9268 167.763 27.8076 165.802 27.8076C162.759 27.8076 159.837 25.5256 159.837 21.402C159.837 17.1584 162.759 15.1166 165.802 15.1166C167.803 15.1166 169.845 15.9173 170.886 17.3986V14.8764C170.886 12.7946 169.605 11.5135 167.323 11.5135C165.642 11.5135 164 12.1941 162.559 13.5953L160.757 10.3125C162.799 8.35081 165.722 7.51009 168.204 7.51009C172.407 7.51009 175.73 9.39171 175.73 14.356V27.3271ZM167.643 24.5648C168.964 24.5648 170.246 23.8842 170.886 22.7232V20.241C170.246 19.08 168.964 18.3594 167.643 18.3594C165.842 18.3594 164.641 19.6405 164.641 21.4821C164.641 23.3237 165.842 24.5648 167.643 24.5648ZM188.162 23.5639C190.764 23.5639 191.965 20.8015 191.965 17.5988C191.965 14.5161 190.764 11.7537 188.162 11.7537C185.599 11.7537 184.398 14.5161 184.398 17.5988C184.398 20.8015 185.599 23.5639 188.162 23.5639ZM188.162 27.8076C182.357 27.8076 179.434 23.0835 179.434 16.7581C179.434 6.90957 181.756 3.42657 188.162 2.30561C190.444 1.90526 191.404 1.46488 191.404 0.62416H196.289C196.289 4.3874 192.205 5.4283 189.523 5.86868C185.679 6.50923 183.998 7.9905 183.598 10.3125C184.799 8.55099 186.72 7.51009 189.122 7.51009C194.167 7.51009 196.929 12.2342 196.929 17.5988C196.929 22.9634 193.967 27.8076 188.162 27.8076ZM208.462 27.8076C202.777 27.8076 199.734 23.0835 199.734 17.6388C199.734 12.2342 202.777 7.51009 208.462 7.51009C214.227 7.51009 217.229 12.2342 217.229 17.6388C217.229 23.0835 214.227 27.8076 208.462 27.8076ZM208.462 23.5639C211.104 23.5639 212.265 20.8416 212.265 17.6388C212.265 14.4761 211.104 11.7537 208.462 11.7537C205.9 11.7537 204.739 14.4761 204.739 17.6388C204.739 20.8416 205.9 23.5639 208.462 23.5639ZM228.564 27.3271H223.72V12.1941H219.476V7.9905H232.848V12.1941H228.564V27.3271ZM235.617 34.8937L236.338 30.65C236.658 30.8101 237.219 30.9303 237.579 30.9303C238.66 30.9303 239.341 30.5299 239.701 29.529L240.341 27.6875L233.816 7.9905H238.94L242.824 21.5222L246.747 7.9905H251.871L244.305 30.61C243.104 34.173 241.022 35.1339 237.939 35.1739C237.339 35.1739 236.138 35.0538 235.617 34.8937ZM25.9197 70.8937L26.6403 66.65C26.9606 66.8101 27.5211 66.9303 27.8814 66.9303C28.9623 66.9303 29.6429 66.5299 30.0032 65.529L30.6438 63.6875L24.1182 43.9905H29.2426L33.1259 57.5222L37.0493 43.9905H42.1737L34.6072 66.61C33.4062 70.173 31.3244 71.1339 28.2417 71.1739C27.6412 71.1739 26.4402 71.0538 25.9197 70.8937ZM44.1861 43.9905H49.0302V49.8756C49.0302 51.8773 49.951 52.6379 52.0328 52.6379C53.2739 52.6379 54.3949 52.3177 55.0354 51.9574V43.9905H59.8796V63.3271H55.0354V55.7206C54.0346 56.3612 52.273 56.8816 50.3514 56.8816C45.7875 56.8816 44.1861 54.9199 44.1861 51.517V43.9905ZM69.2589 63.3271H64.6149V43.9905H69.419V54.8799L75.3842 43.9905H80.3084V63.3271H75.4642V51.9974L69.2589 63.3271ZM92.639 63.3271H87.7949V48.1941H83.5512V43.9905H96.9227V48.1941H92.639V63.3271ZM108.14 63.8076C102.695 63.8076 99.1321 59.724 99.1321 53.6388C99.1321 48.034 102.415 43.5101 107.78 43.5101C113.104 43.5101 116.107 47.8338 116.107 53.839V55.2002H103.976C104.176 57.8424 105.738 59.9242 108.66 59.9242C110.021 59.9242 111.783 59.2436 112.864 58.0426L115.066 60.9251C113.344 62.8067 110.742 63.8076 108.14 63.8076ZM111.463 51.9173C111.383 49.9156 110.502 47.3934 107.699 47.3934C105.017 47.3934 104.056 49.9156 103.976 51.9173H111.463ZM118.209 63.8076V59.7641C119.65 59.7641 120.571 58.7232 121.052 53.919L121.972 43.9905H135.384V63.3271H130.54V48.1941H126.336L125.816 54.3995C125.215 61.4055 122.773 63.8076 118.209 63.8076ZM148.115 63.8076C142.67 63.8076 139.107 59.724 139.107 53.6388C139.107 48.034 142.39 43.5101 147.755 43.5101C153.079 43.5101 156.082 47.8338 156.082 53.839V55.2002H143.951C144.152 57.8424 145.713 59.9242 148.635 59.9242C149.997 59.9242 151.758 59.2436 152.839 58.0426L155.041 60.9251C153.319 62.8067 150.717 63.8076 148.115 63.8076ZM151.438 51.9173C151.358 49.9156 150.477 47.3934 147.675 47.3934C144.992 47.3934 144.031 49.9156 143.951 51.9173H151.438ZM179.923 63.3271H175.159V51.5971L170.835 63.3271H168.753L164.47 51.5971V63.3271H159.665V43.9905H165.831L169.794 54.7598L173.798 43.9905H179.923V63.3271ZM198.267 63.3271H193.463V43.9905H198.267V51.1967H204.313V43.9905H209.157V63.3271H204.313V55.4003H198.267V63.3271ZM228.734 63.3271H223.89V61.4055C222.809 62.9268 220.767 63.8076 218.805 63.8076C215.763 63.8076 212.84 61.5256 212.84 57.402C212.84 53.1584 215.763 51.1166 218.805 51.1166C220.807 51.1166 222.849 51.9173 223.89 53.3986V50.8764C223.89 48.7946 222.608 47.5135 220.326 47.5135C218.645 47.5135 217.004 48.1941 215.562 49.5953L213.761 46.3125C215.803 44.3508 218.725 43.5101 221.207 43.5101C225.411 43.5101 228.734 45.3917 228.734 50.356V63.3271ZM220.647 60.5648C221.968 60.5648 223.249 59.8842 223.89 58.7232V56.241C223.249 55.08 221.968 54.3594 220.647 54.3594C218.845 54.3594 217.644 55.6405 217.644 57.4821C217.644 59.3237 218.845 60.5648 220.647 60.5648ZM257.938 63.3271H253.134V50.5161C253.134 48.5144 252.173 47.7537 250.572 47.7537C249.01 47.7537 247.729 48.9948 247.089 50.1558V63.3271H242.244V36.6242H247.089V46.5127C248.089 44.9914 250.251 43.5101 252.733 43.5101C256.337 43.5101 257.938 45.4718 257.938 48.7146V63.3271ZM278.355 63.3271H273.551V50.5161C273.551 48.5144 272.59 47.7537 270.989 47.7537C269.428 47.7537 268.147 48.9948 267.506 50.1558V63.3271H262.662V36.6242H267.506V46.5127C268.507 44.9914 270.669 43.5101 273.151 43.5101C276.754 43.5101 278.355 45.4718 278.355 48.7146V63.3271ZM285.962 63.7675C284.281 63.7675 282.839 62.3663 282.839 60.6849C282.839 59.0034 284.281 57.5622 285.962 57.5622C287.643 57.5622 289.045 59.0034 289.045 60.6849C289.045 62.3663 287.643 63.7675 285.962 63.7675ZM298.371 63.3271H293.567V43.9905H298.371V46.6328C299.452 44.9113 301.574 43.5101 303.655 43.5101V48.2342C303.335 48.1541 302.935 48.1141 302.494 48.1141C300.973 48.1141 299.172 49.1149 298.371 50.4361V63.3271ZM322.444 63.3271H317.64V60.885C316.599 62.4064 314.477 63.8076 311.955 63.8076C308.392 63.8076 306.791 61.8459 306.791 58.6031V43.9905H311.595V56.7615C311.595 58.8033 312.556 59.5639 314.157 59.5639C315.718 59.5639 316.959 58.4029 317.64 57.2019V43.9905H322.444V63.3271Z" fill="white"/>
  <path d="M332.993 48.1569L337.116 48.1569L342.121 55.3631L337.116 62.4492L332.993 62.4492L337.997 55.3631L332.993 48.1569ZM339.759 48.1569L343.842 48.1569L348.846 55.3631L343.842 62.4492L339.759 62.4492L344.763 55.3631L339.759 48.1569Z" fill="white"/>
  </svg>
  