<svg width="308" height="122" viewBox="0 0 308 122" fill="none" xmlns="http://www.w3.org/2000/svg">
  <path d="M20.14 28.5088H15.1076L9.00022 19.7142L15.1076 11.0662H20.14L14.0327 19.7142L20.14 28.5088ZM11.8829 28.5088H6.89929L0.791937 19.7142L6.89929 11.0662H11.8829L5.77554 19.7142L11.8829 28.5088Z" fill="white"/>
  <path d="M37.9583 32.5869H32.2907V8.9881H38.1538V22.2777L45.4337 8.9881H51.4434V32.5869H45.5315V18.7599L37.9583 32.5869ZM81.1007 8.9881H86.9638V27.4567H89.6021V38.5966H83.6902V32.5869H57.2087V8.9881H63.0718V27.4567H69.1303V8.9881H75.0422V27.4567H81.1007V8.9881ZM99.1025 32.5869H93.4349V8.9881H99.2979V22.2777L106.578 8.9881H112.588V32.5869H106.676V18.7599L99.1025 32.5869ZM127.636 32.5869H121.724V14.1183H116.545V8.9881H132.864V14.1183H127.636V32.5869ZM146.554 33.1732C139.909 33.1732 135.56 28.1896 135.56 20.7631C135.56 13.9228 139.567 8.40179 146.114 8.40179C152.612 8.40179 156.276 13.6785 156.276 21.0074V22.6686H141.472C141.717 25.8933 143.622 28.4339 147.189 28.4339C148.85 28.4339 151 27.6033 152.319 26.1375L155.006 29.6554C152.905 31.9517 149.729 33.1732 146.554 33.1732ZM150.609 18.6621C150.511 16.2192 149.436 13.1411 146.016 13.1411C142.743 13.1411 141.57 16.2192 141.472 18.6621H150.609ZM183.221 33.1732C180.973 33.1732 178.726 32.0495 177.26 29.6065V41.5769H171.397V8.9881H177.26V11.9685C178.726 9.62326 180.925 8.40179 183.221 8.40179C188.547 8.40179 191.967 13.0434 191.967 20.7631C191.967 28.4339 188.547 33.1732 183.221 33.1732ZM181.315 27.9942C184.345 27.9942 185.908 24.9161 185.908 20.7631C185.908 16.6589 184.345 13.5808 181.315 13.5808C179.752 13.5808 178.042 14.7534 177.26 16.3169V25.2092C178.042 26.7239 179.752 27.9942 181.315 27.9942ZM214.585 32.5869H208.673V30.2417C207.354 32.0983 204.862 33.1732 202.468 33.1732C198.755 33.1732 195.188 30.3883 195.188 25.3558C195.188 20.1768 198.755 17.685 202.468 17.685C204.911 17.685 207.403 18.6621 208.673 20.4699V17.3918C208.673 14.8512 207.11 13.2877 204.325 13.2877C202.272 13.2877 200.269 14.1183 198.51 15.8283L196.312 11.8219C198.804 9.42783 202.37 8.40179 205.399 8.40179C210.53 8.40179 214.585 10.6982 214.585 16.7567V32.5869ZM204.715 29.2157C206.328 29.2157 207.891 28.3851 208.673 26.9681V23.9389C207.891 22.522 206.328 21.6425 204.715 21.6425C202.517 21.6425 201.051 23.206 201.051 25.4535C201.051 27.701 202.517 29.2157 204.715 29.2157ZM229.756 27.9942C232.932 27.9942 234.398 24.6229 234.398 20.7142C234.398 16.9521 232.932 13.5808 229.756 13.5808C226.629 13.5808 225.164 16.9521 225.164 20.7142C225.164 24.6229 226.629 27.9942 229.756 27.9942ZM229.756 33.1732C222.672 33.1732 219.105 27.4079 219.105 19.6882C219.105 7.66891 221.939 3.41819 229.756 2.05015C232.541 1.56155 233.714 1.02411 233.714 -0.00192792H239.675C239.675 4.5908 234.691 5.86113 231.418 6.39858C226.727 7.18032 224.675 8.9881 224.186 11.8219C225.652 9.67212 227.997 8.40179 230.929 8.40179C237.085 8.40179 240.456 14.1671 240.456 20.7142C240.456 27.2613 236.841 33.1732 229.756 33.1732ZM254.531 33.1732C247.593 33.1732 243.88 27.4079 243.88 20.7631C243.88 14.1671 247.593 8.40179 254.531 8.40179C261.567 8.40179 265.231 14.1671 265.231 20.7631C265.231 27.4079 261.567 33.1732 254.531 33.1732ZM254.531 27.9942C257.756 27.9942 259.173 24.6718 259.173 20.7631C259.173 16.9032 257.756 13.5808 254.531 13.5808C251.404 13.5808 249.987 16.9032 249.987 20.7631C249.987 24.6718 251.404 27.9942 254.531 27.9942ZM279.064 32.5869H273.152V14.1183H267.973V8.9881H284.292V14.1183H279.064V32.5869ZM287.672 41.8212L288.552 36.6422C288.943 36.8376 289.627 36.9842 290.066 36.9842C291.386 36.9842 292.216 36.4956 292.656 35.2741L293.438 33.0266L285.474 8.9881H291.728L296.467 25.5024L301.255 8.9881H307.509L298.275 36.5933C296.809 40.9418 294.268 42.1144 290.506 42.1632C289.773 42.1632 288.308 42.0167 287.672 41.8212ZM31.7533 85.8212L32.6327 80.6422C33.0236 80.8376 33.7076 80.9842 34.1474 80.9842C35.4665 80.9842 36.2971 80.4956 36.7369 79.2741L37.5186 77.0266L29.5546 52.9881H35.8086L40.5479 69.5024L45.336 52.9881H51.59L42.3556 80.5933C40.8899 84.9418 38.3492 86.1144 34.5871 86.1632C33.8542 86.1632 32.3884 86.0167 31.7533 85.8212ZM54.0459 52.9881H59.9578V60.1703C59.9578 62.6133 61.0815 63.5416 63.6222 63.5416C65.1368 63.5416 66.5049 63.1507 67.2866 62.711V52.9881H73.1985V76.5869H67.2866V67.3037C66.0652 68.0855 63.9154 68.7206 61.5701 68.7206C56.0002 68.7206 54.0459 66.3266 54.0459 62.1736V52.9881ZM84.6452 76.5869H78.9776V52.9881H84.8407V66.2777L92.1206 52.9881H98.1303V76.5869H92.2184V62.7599L84.6452 76.5869ZM113.179 76.5869H107.267V58.1183H102.088V52.9881H118.407V58.1183H113.179V76.5869ZM132.096 77.1732C125.452 77.1732 121.103 72.1896 121.103 64.7631C121.103 57.9228 125.11 52.4018 131.657 52.4018C138.155 52.4018 141.819 57.6785 141.819 65.0074V66.6686H127.015C127.259 69.8933 129.165 72.4339 132.731 72.4339C134.393 72.4339 136.542 71.6033 137.862 70.1375L140.549 73.6554C138.448 75.9517 135.272 77.1732 132.096 77.1732ZM136.152 62.6621C136.054 60.2192 134.979 57.1411 131.559 57.1411C128.285 57.1411 127.113 60.2192 127.015 62.6621H136.152ZM144.385 77.1732V72.2385C146.144 72.2385 147.268 70.9681 147.854 65.1051L148.978 52.9881H165.346V76.5869H159.434V58.1183H154.303L153.668 65.6914C152.935 74.2417 149.955 77.1732 144.385 77.1732ZM180.883 77.1732C174.238 77.1732 169.889 72.1896 169.889 64.7631C169.889 57.9228 173.896 52.4018 180.443 52.4018C186.941 52.4018 190.606 57.6785 190.606 65.0074V66.6686H175.801C176.046 69.8933 177.951 72.4339 181.518 72.4339C183.179 72.4339 185.329 71.6033 186.648 70.1375L189.335 73.6554C187.234 75.9517 184.058 77.1732 180.883 77.1732ZM184.938 62.6621C184.84 60.2192 183.765 57.1411 180.345 57.1411C177.072 57.1411 175.899 60.2192 175.801 62.6621H184.938ZM219.702 76.5869H213.888V62.2713L208.611 76.5869H206.07L200.842 62.2713V76.5869H194.979V52.9881H202.503L207.34 66.1311L212.226 52.9881H219.702V76.5869ZM38.1538 120.587H32.2907V96.9881H38.1538V105.783H45.5315V96.9881H51.4434V120.587H45.5315V110.913H38.1538V120.587ZM75.3353 120.587H69.4234V118.242C68.1042 120.098 65.6124 121.173 63.2184 121.173C59.5051 121.173 55.9384 118.388 55.9384 113.356C55.9384 108.177 59.5051 105.685 63.2184 105.685C65.6613 105.685 68.1531 106.662 69.4234 108.47V105.392C69.4234 102.851 67.8599 101.288 65.075 101.288C63.0229 101.288 61.0197 102.118 59.2608 103.828L57.0621 99.8219C59.5539 97.4278 63.1206 96.4018 66.1499 96.4018C71.2801 96.4018 75.3353 98.6982 75.3353 104.757V120.587ZM65.4659 117.216C67.0782 117.216 68.6417 116.385 69.4234 114.968V111.939C68.6417 110.522 67.0782 109.643 65.4659 109.643C63.2672 109.643 61.8015 111.206 61.8015 113.454C61.8015 115.701 63.2672 117.216 65.4659 117.216ZM110.977 120.587H105.114V104.952C105.114 102.509 103.941 101.581 101.987 101.581C100.081 101.581 98.5177 103.095 97.736 104.512V120.587H91.8241V87.9981H97.736V100.066C98.9574 98.2096 101.596 96.4018 104.625 96.4018C109.022 96.4018 110.977 98.7959 110.977 102.753V120.587ZM135.895 120.587H130.032V104.952C130.032 102.509 128.859 101.581 126.905 101.581C124.999 101.581 123.436 103.095 122.654 104.512V120.587H116.742V87.9981H122.654V100.066C123.875 98.2096 126.514 96.4018 129.543 96.4018C133.94 96.4018 135.895 98.7959 135.895 102.753V120.587ZM145.178 121.124C143.126 121.124 141.367 119.414 141.367 117.362C141.367 115.31 143.126 113.551 145.178 113.551C147.23 113.551 148.94 115.31 148.94 117.362C148.94 119.414 147.23 121.124 145.178 121.124ZM160.322 120.587H154.459V96.9881H160.322V100.213C161.641 98.1119 164.231 96.4018 166.771 96.4018V102.167C166.38 102.069 165.892 102.021 165.354 102.021C163.498 102.021 161.299 103.242 160.322 104.854V120.587ZM189.701 120.587H183.838V117.607C182.568 119.463 179.978 121.173 176.9 121.173C172.552 121.173 170.597 118.779 170.597 114.822V96.9881H176.461V112.574C176.461 115.066 177.633 115.994 179.587 115.994C181.493 115.994 183.008 114.577 183.838 113.112V96.9881H189.701V120.587Z" fill="white"/>
  <path d="M200.904 100.818L205.937 100.818L212.044 109.612L205.937 118.26L200.904 118.26L207.012 109.612L200.904 100.818ZM209.162 100.818L214.145 100.818L220.252 109.612L214.145 118.26L209.162 118.26L215.269 109.612L209.162 100.818Z" fill="white"/>
  </svg>
  