<svg width="147" height="28" viewBox="0 0 147 28" fill="none" xmlns="http://www.w3.org/2000/svg">
  <path d="M6.11714 8.46351H4.53112L2.60634 5.69183L4.53112 2.96634H6.11714L4.19236 5.69183L6.11714 8.46351ZM3.51484 8.46351H1.94422L0.0194417 5.69183L1.94422 2.96634H3.51484L1.59006 5.69183L3.51484 8.46351Z" fill="white"/>
  <path d="M11.7327 10.4336H9.94656V2.99625H11.7943V7.18457L14.0887 2.99625H15.9827V10.4336H14.1195V6.0759L11.7327 10.4336ZM25.3294 2.99625H27.1772V8.81678H28.0087V12.3276H26.1455V10.4336H17.7996V2.99625H19.6474V8.81678H21.5568V2.99625H23.42V8.81678H25.3294V2.99625ZM31.0028 10.4336H29.2166V2.99625H31.0644V7.18457L33.3587 2.99625H35.2527V10.4336H33.3895V6.0759L31.0028 10.4336ZM39.9953 10.4336H38.1322V4.61307H36.4999V2.99625H41.6429V4.61307H39.9953V10.4336ZM45.9573 10.6184C44.9103 10.6184 44.0685 10.2591 43.432 9.5405C42.8058 8.82191 42.4927 7.87749 42.4927 6.70722C42.4927 5.59855 42.7956 4.67466 43.4012 3.93554C44.0069 3.18616 44.8127 2.81147 45.8188 2.81147C46.8248 2.81147 47.6101 3.18103 48.1747 3.92015C48.7393 4.649 49.0216 5.60369 49.0216 6.78422V7.30776H44.3559C44.397 7.84156 44.5715 8.27784 44.8795 8.6166C45.1874 8.95536 45.6134 9.12475 46.1575 9.12475C46.4347 9.12475 46.7221 9.06315 47.0198 8.93997C47.3175 8.80652 47.569 8.62687 47.7743 8.40103L48.6212 9.5097C47.9437 10.2488 47.0557 10.6184 45.9573 10.6184ZM47.2354 6.0451C47.2149 5.58315 47.0917 5.17767 46.8658 4.82864C46.64 4.47962 46.2807 4.3051 45.788 4.3051C45.3157 4.3051 44.9616 4.47962 44.7255 4.82864C44.4996 5.17767 44.3765 5.58315 44.3559 6.0451H47.2354ZM57.5133 10.6184C56.7126 10.6184 56.0864 10.2437 55.6348 9.4943V13.2669H53.787V2.99625H55.6348V3.93554C56.107 3.18616 56.7332 2.81147 57.5133 2.81147C58.3551 2.81147 59.0224 3.1605 59.5151 3.85855C60.0181 4.54634 60.2696 5.4959 60.2696 6.70722C60.2696 7.90829 60.0181 8.86298 59.5151 9.57129C59.0224 10.2693 58.3551 10.6184 57.5133 10.6184ZM56.9128 8.98616C57.3748 8.98616 57.7289 8.77572 57.9753 8.35483C58.2319 7.93395 58.3602 7.38475 58.3602 6.70722C58.3602 6.03997 58.2319 5.4959 57.9753 5.07501C57.7289 4.65413 57.3748 4.44369 56.9128 4.44369C56.6664 4.44369 56.4201 4.52581 56.1737 4.69006C55.9376 4.85431 55.7579 5.05962 55.6348 5.30599V8.10846C55.7579 8.35483 55.9376 8.56528 56.1737 8.73979C56.4201 8.90404 56.6664 8.98616 56.9128 8.98616ZM67.3979 10.4336H65.5347V9.69448C65.3294 9.98191 65.0471 10.2078 64.6878 10.372C64.3388 10.5362 63.9692 10.6184 63.5792 10.6184C62.953 10.6184 62.414 10.3977 61.9623 9.95625C61.5107 9.51483 61.2848 8.9143 61.2848 8.15466C61.2848 7.38475 61.5055 6.78935 61.9469 6.36846C62.3986 5.94758 62.9427 5.73714 63.5792 5.73714C63.9795 5.73714 64.3542 5.81413 64.7032 5.96811C65.0625 6.12209 65.3397 6.33767 65.5347 6.61484V5.64475C65.5347 5.24439 65.4115 4.9313 65.1652 4.70546C64.9291 4.46935 64.5954 4.3513 64.1643 4.3513C63.4868 4.3513 62.876 4.6182 62.3319 5.152L61.639 3.88935C62.3884 3.17077 63.343 2.81147 64.503 2.81147C65.3756 2.81147 66.0737 3.02705 66.5972 3.4582C67.131 3.87908 67.3979 4.54121 67.3979 5.44457V10.4336ZM64.2875 9.37112C64.8623 9.37112 65.2781 9.13501 65.5347 8.6628V7.70811C65.2678 7.22563 64.8521 6.98439 64.2875 6.98439C63.9384 6.98439 63.6561 7.09731 63.4406 7.32315C63.2353 7.53873 63.1326 7.82616 63.1326 8.18545C63.1326 8.54475 63.2353 8.83218 63.4406 9.04775C63.6561 9.26333 63.9384 9.37112 64.2875 9.37112ZM71.1014 8.33944C71.3478 8.77059 71.7071 8.98616 72.1793 8.98616C72.6515 8.98616 73.0108 8.77059 73.2572 8.33944C73.5138 7.89802 73.6421 7.34882 73.6421 6.69183C73.6421 6.05537 73.5138 5.52156 73.2572 5.09041C73.0108 4.65926 72.6515 4.44369 72.1793 4.44369C71.7071 4.44369 71.3478 4.65926 71.1014 5.09041C70.8551 5.52156 70.7319 6.05537 70.7319 6.69183C70.7319 7.34882 70.8551 7.89802 71.1014 8.33944ZM72.1793 10.6184C71.1014 10.6184 70.2699 10.2283 69.6848 9.44811C69.1099 8.65767 68.8225 7.63112 68.8225 6.36846C68.8225 4.48988 69.0689 3.15024 69.5616 2.34953C70.0646 1.53856 70.9372 1.02528 72.1793 0.809707C73.0108 0.665989 73.4266 0.450414 73.4266 0.162981H75.3051C75.3051 1.22033 74.4377 1.89271 72.7028 2.18015C71.3375 2.40599 70.5779 2.97572 70.4239 3.88935C70.9166 3.17077 71.625 2.81147 72.5489 2.81147C73.483 2.81147 74.217 3.18616 74.7508 3.93554C75.2846 4.68493 75.5515 5.60369 75.5515 6.69183C75.5515 7.79023 75.2538 8.71926 74.6584 9.4789C74.0733 10.2385 73.2469 10.6184 72.1793 10.6184ZM79.9873 10.6184C78.9402 10.6184 78.119 10.2437 77.5236 9.4943C76.9282 8.73466 76.6305 7.80563 76.6305 6.70722C76.6305 5.60882 76.9282 4.68493 77.5236 3.93554C78.119 3.18616 78.9402 2.81147 79.9873 2.81147C81.0446 2.81147 81.871 3.18616 82.4664 3.93554C83.0618 4.68493 83.3595 5.60882 83.3595 6.70722C83.3595 7.8159 83.0618 8.74492 82.4664 9.4943C81.871 10.2437 81.0446 10.6184 79.9873 10.6184ZM79.9873 8.98616C80.4698 8.98616 80.8342 8.77059 81.0806 8.33944C81.3269 7.90829 81.4501 7.36422 81.4501 6.70722C81.4501 6.05023 81.3269 5.5113 81.0806 5.09041C80.8342 4.65926 80.4698 4.44369 79.9873 4.44369C79.5151 4.44369 79.1558 4.65926 78.9094 5.09041C78.6733 5.52156 78.5552 6.0605 78.5552 6.70722C78.5552 7.36422 78.6733 7.90829 78.9094 8.33944C79.1558 8.77059 79.5151 8.98616 79.9873 8.98616ZM87.719 10.4336H85.8558V4.61307H84.2236V2.99625H89.3666V4.61307H87.719V10.4336ZM90.432 13.3439L90.7091 11.7116C90.8528 11.7835 91.012 11.8194 91.1865 11.8194C91.5971 11.8194 91.8691 11.6398 92.0026 11.2805L92.2489 10.5722L89.739 2.99625H91.71L93.2036 8.20085L94.7127 2.99625H96.6836L93.7734 11.6962C93.5578 12.3532 93.255 12.8049 92.8649 13.0513C92.4748 13.3079 91.9615 13.4414 91.3251 13.4516C90.9658 13.4516 90.6681 13.4157 90.432 13.3439ZM9.77717 27.3439L10.0543 25.7116C10.1981 25.7835 10.3572 25.8194 10.5317 25.8194C10.9423 25.8194 11.2143 25.6398 11.3478 25.2805L11.5942 24.5722L9.08425 16.9963H11.0552L12.5489 22.2009L14.0579 16.9963H16.0289L13.1186 25.6962C12.903 26.3532 12.6002 26.8049 12.2101 27.0513C11.82 27.3079 11.3067 27.4414 10.6703 27.4516C10.311 27.4516 10.0133 27.4157 9.77717 27.3439ZM18.8816 22.3394C19.128 22.7706 19.4873 22.9862 19.9595 22.9862C20.4317 22.9862 20.791 22.7706 21.0374 22.3394C21.294 21.898 21.4223 21.3488 21.4223 20.6918C21.4223 20.0554 21.294 19.5216 21.0374 19.0904C20.791 18.6593 20.4317 18.4437 19.9595 18.4437C19.4873 18.4437 19.128 18.6593 18.8816 19.0904C18.6352 19.5216 18.5121 20.0554 18.5121 20.6918C18.5121 21.3488 18.6352 21.898 18.8816 22.3394ZM19.9595 24.6184C18.8816 24.6184 18.0501 24.2283 17.465 23.4481C16.8901 22.6577 16.6027 21.6311 16.6027 20.3685C16.6027 18.4899 16.849 17.1502 17.3418 16.3495C17.8448 15.5386 18.7174 15.0253 19.9595 14.8097C20.791 14.666 21.2067 14.4504 21.2067 14.163H23.0853C23.0853 15.2203 22.2179 15.8927 20.483 16.1801C19.1177 16.406 18.3581 16.9757 18.2041 17.8894C18.6968 17.1708 19.4052 16.8115 20.329 16.8115C21.2632 16.8115 21.9972 17.1862 22.531 17.9355C23.0648 18.6849 23.3317 19.6037 23.3317 20.6918C23.3317 21.7902 23.034 22.7193 22.4386 23.4789C21.8535 24.2385 21.0271 24.6184 19.9595 24.6184ZM27.7675 24.6184C26.7204 24.6184 25.8992 24.2437 25.3038 23.4943C24.7084 22.7347 24.4107 21.8056 24.4107 20.7072C24.4107 19.6088 24.7084 18.6849 25.3038 17.9355C25.8992 17.1862 26.7204 16.8115 27.7675 16.8115C28.8248 16.8115 29.6512 17.1862 30.2466 17.9355C30.842 18.6849 31.1397 19.6088 31.1397 20.7072C31.1397 21.8159 30.842 22.7449 30.2466 23.4943C29.6512 24.2437 28.8248 24.6184 27.7675 24.6184ZM27.7675 22.9862C28.2499 22.9862 28.6144 22.7706 28.8607 22.3394C29.1071 21.9083 29.2303 21.3642 29.2303 20.7072C29.2303 20.0502 29.1071 19.5113 28.8607 19.0904C28.6144 18.6593 28.2499 18.4437 27.7675 18.4437C27.2953 18.4437 26.936 18.6593 26.6896 19.0904C26.4535 19.5216 26.3354 20.0605 26.3354 20.7072C26.3354 21.3642 26.4535 21.9083 26.6896 22.3394C26.936 22.7706 27.2953 22.9862 27.7675 22.9862ZM36.2999 24.6184C35.4992 24.6184 34.873 24.2437 34.4213 23.4943V27.2669H32.5735V16.9963H34.4213V17.9355C34.8935 17.1862 35.5197 16.8115 36.2999 16.8115C37.1417 16.8115 37.8089 17.1605 38.3017 17.8586C38.8047 18.5463 39.0562 19.4959 39.0562 20.7072C39.0562 21.9083 38.8047 22.863 38.3017 23.5713C37.8089 24.2693 37.1417 24.6184 36.2999 24.6184ZM35.6994 22.9862C36.1613 22.9862 36.5155 22.7757 36.7618 22.3548C37.0185 21.9339 37.1468 21.3847 37.1468 20.7072C37.1468 20.04 37.0185 19.4959 36.7618 19.075C36.5155 18.6541 36.1613 18.4437 35.6994 18.4437C35.453 18.4437 35.2066 18.5258 34.9602 18.6901C34.7241 18.8543 34.5445 19.0596 34.4213 19.306V22.1085C34.5445 22.3548 34.7241 22.5653 34.9602 22.7398C35.2066 22.904 35.453 22.9862 35.6994 22.9862ZM48.0015 16.9963H49.8492V22.8168H50.6807V26.3276H48.8176V24.4336H40.4717V16.9963H42.3195V22.8168H44.2289V16.9963H46.0921V22.8168H48.0015V16.9963ZM53.6748 24.4336H51.8887V16.9963H53.7364V21.1846L56.0308 16.9963H57.9248V24.4336H56.0616V20.0759L53.6748 24.4336ZM64.7 26.3276V24.4336H59.7417V16.9963H61.5895V22.8168H63.9147V16.9963H65.7778V22.8168H66.5478V26.3276H64.7ZM70.8249 24.6184C69.7778 24.6184 68.936 24.2591 68.2996 23.5405C67.6734 22.8219 67.3603 21.8775 67.3603 20.7072C67.3603 19.5986 67.6631 18.6747 68.2688 17.9355C68.8744 17.1862 69.6803 16.8115 70.6863 16.8115C71.6923 16.8115 72.4776 17.181 73.0422 17.9201C73.6068 18.649 73.8891 19.6037 73.8891 20.7842V21.3078H69.2234C69.2645 21.8416 69.439 22.2778 69.747 22.6166C70.0549 22.9554 70.481 23.1247 71.025 23.1247C71.3022 23.1247 71.5896 23.0632 71.8873 22.94C72.185 22.8065 72.4365 22.6269 72.6418 22.401L73.4888 23.5097C72.8112 24.2488 71.9233 24.6184 70.8249 24.6184ZM72.1029 20.0451C72.0824 19.5832 71.9592 19.1777 71.7334 18.8286C71.5075 18.4796 71.1482 18.3051 70.6555 18.3051C70.1833 18.3051 69.8291 18.4796 69.593 18.8286C69.3672 19.1777 69.244 19.5832 69.2234 20.0451H72.1029ZM77.0537 24.4336H75.2675V16.9963H77.1153V21.1846L79.4096 16.9963H81.3036V24.4336H79.4404V20.0759L77.0537 24.4336ZM80.5953 14.9945C80.0101 15.7644 79.2402 16.1494 78.2855 16.1494C77.3308 16.1494 76.5609 15.7644 75.9758 14.9945L76.8227 14.317C77.182 14.8302 77.6696 15.0869 78.2855 15.0869C78.9117 15.0869 79.3993 14.8302 79.7484 14.317L80.5953 14.9945ZM88.3554 24.4336H86.5076V16.9963H88.3554V19.7679H90.6805V16.9963H92.5437V24.4336H90.6805V21.3847H88.3554V24.4336ZM100.073 24.4336H98.2102V23.6945C98.0049 23.9819 97.7226 24.2078 97.3633 24.372C97.0143 24.5362 96.6447 24.6184 96.2547 24.6184C95.6285 24.6184 95.0895 24.3977 94.6378 23.9562C94.1862 23.5148 93.9603 22.9143 93.9603 22.1547C93.9603 21.3847 94.181 20.7893 94.6224 20.3685C95.0741 19.9476 95.6182 19.7371 96.2547 19.7371C96.655 19.7371 97.0297 19.8141 97.3787 19.9681C97.738 20.1221 98.0152 20.3377 98.2102 20.6148V19.6447C98.2102 19.2444 98.087 18.9313 97.8407 18.7055C97.6046 18.4694 97.2709 18.3513 96.8398 18.3513C96.1623 18.3513 95.5515 18.6182 95.0074 19.152L94.3145 17.8894C95.0639 17.1708 96.0185 16.8115 97.1785 16.8115C98.0511 16.8115 98.7492 17.027 99.2727 17.4582C99.8065 17.8791 100.073 18.5412 100.073 19.4446V24.4336ZM96.963 23.3711C97.5378 23.3711 97.9536 23.135 98.2102 22.6628V21.7081C97.9433 21.2256 97.5276 20.9844 96.963 20.9844C96.6139 20.9844 96.3316 21.0973 96.1161 21.3232C95.9108 21.5387 95.8081 21.8262 95.8081 22.1855C95.8081 22.5447 95.9108 22.8322 96.1161 23.0478C96.3316 23.2633 96.6139 23.3711 96.963 23.3711ZM111.306 24.4336H109.458V19.5062C109.458 18.7978 109.13 18.4437 108.473 18.4437C108.196 18.4437 107.939 18.5361 107.703 18.7209C107.467 18.8954 107.277 19.1109 107.133 19.3676V24.4336H105.27V14.163H107.133V17.9663C107.338 17.6481 107.636 17.3761 108.026 17.1502C108.427 16.9244 108.853 16.8115 109.304 16.8115C110.639 16.8115 111.306 17.4787 111.306 18.8132V24.4336ZM119.159 24.4336H117.311V19.5062C117.311 18.7978 116.983 18.4437 116.326 18.4437C116.049 18.4437 115.792 18.5361 115.556 18.7209C115.32 18.8954 115.13 19.1109 114.986 19.3676V24.4336H113.123V14.163H114.986V17.9663C115.192 17.6481 115.489 17.3761 115.879 17.1502C116.28 16.9244 116.706 16.8115 117.157 16.8115C118.492 16.8115 119.159 17.4787 119.159 18.8132V24.4336ZM122.916 24.2642C122.69 24.4901 122.413 24.603 122.085 24.603C121.756 24.603 121.474 24.4849 121.238 24.2488C121.002 24.0127 120.884 23.7355 120.884 23.4173C120.884 23.0888 121.002 22.8065 121.238 22.5704C121.474 22.3343 121.756 22.2163 122.085 22.2163C122.403 22.2163 122.68 22.3343 122.916 22.5704C123.152 22.8065 123.27 23.0888 123.27 23.4173C123.27 23.7458 123.152 24.0281 122.916 24.2642ZM126.858 24.4336H125.01V16.9963H126.858V18.0125C127.073 17.6738 127.366 17.3915 127.735 17.1656C128.115 16.9295 128.5 16.8115 128.89 16.8115V18.6285C128.767 18.5977 128.618 18.5823 128.444 18.5823C128.146 18.5823 127.843 18.6695 127.535 18.844C127.237 19.0083 127.012 19.2187 126.858 19.4754V24.4336ZM136.117 24.4336H134.269V23.4943C134.053 23.8125 133.75 24.0794 133.36 24.295C132.97 24.5106 132.544 24.6184 132.082 24.6184C130.758 24.6184 130.096 23.9511 130.096 22.6166V16.9963H131.944V21.9083C131.944 22.6269 132.272 22.9862 132.929 22.9862C133.484 22.9862 133.93 22.6833 134.269 22.0777V16.9963H136.117V24.4336Z" fill="white"/>
  <path d="M140.113 18.1381L141.699 18.1381L143.624 20.9097L141.699 23.6352L140.113 23.6352L142.038 20.9097L140.113 18.1381ZM142.715 18.1381L144.286 18.1381L146.211 20.9097L144.286 23.6352L142.715 23.6352L144.64 20.9097L142.715 18.1381Z" fill="white"/>
  </svg>
  