<svg width="325" height="88" viewBox="0 0 325 88" fill="none" xmlns="http://www.w3.org/2000/svg">
  <path d="M25.8556 22.9917H21.9373V6.67685H25.9907V15.8645L31.0236 6.67685H35.1783V22.9917H31.0912V13.4325L25.8556 22.9917ZM55.6817 6.67685H59.735V19.445H61.5591V27.1464H57.4719V22.9917H39.1642V6.67685H43.2175V19.445H47.406V6.67685H51.4932V19.445H55.6817V6.67685ZM68.1271 22.9917H64.2088V6.67685H68.2622V15.8645L73.2951 6.67685H77.4498V22.9917H73.3627V13.4325L68.1271 22.9917ZM87.8535 22.9917H83.7663V10.2236H80.1859V6.67685H91.4678V10.2236H87.8535V22.9917ZM100.932 23.397C98.6351 23.397 96.7885 22.6089 95.3924 21.0326C94.0187 19.4563 93.3319 17.3845 93.3319 14.8174C93.3319 12.3854 93.9962 10.3587 95.3248 8.73732C96.6534 7.09345 98.4211 6.27152 100.628 6.27152C102.835 6.27152 104.558 7.08219 105.796 8.70354C107.035 10.3024 107.654 12.3966 107.654 14.9863V16.1347H97.4191C97.5091 17.3057 97.8919 18.2628 98.5675 19.0059C99.2431 19.749 100.178 20.1206 101.371 20.1206C101.979 20.1206 102.61 19.9854 103.263 19.7152C103.916 19.4225 104.467 19.0284 104.918 18.533L106.776 20.965C105.289 22.5864 103.341 23.397 100.932 23.397ZM103.736 13.3649C103.691 12.3516 103.42 11.4621 102.925 10.6965C102.429 9.93082 101.641 9.548 100.56 9.548C99.5246 9.548 98.7477 9.93082 98.2297 10.6965C97.7343 11.4621 97.4641 12.3516 97.4191 13.3649H103.736ZM126.282 23.397C124.525 23.397 123.152 22.5751 122.161 20.9312V29.2069H118.107V6.67685H122.161V8.73732C123.197 7.09345 124.57 6.27152 126.282 6.27152C128.128 6.27152 129.592 7.03715 130.673 8.56843C131.776 10.0772 132.328 12.1602 132.328 14.8174C132.328 17.4521 131.776 19.5463 130.673 21.1001C129.592 22.6314 128.128 23.397 126.282 23.397ZM124.964 19.8166C125.978 19.8166 126.755 19.3549 127.295 18.4316C127.858 17.5084 128.139 16.3036 128.139 14.8174C128.139 13.3537 127.858 12.1602 127.295 11.2369C126.755 10.3136 125.978 9.852 124.964 9.852C124.424 9.852 123.883 10.0322 123.343 10.3925C122.825 10.7528 122.431 11.2031 122.161 11.7436V17.8912C122.431 18.4316 122.825 18.8933 123.343 19.2761C123.883 19.6364 124.424 19.8166 124.964 19.8166ZM147.965 22.9917H143.878V21.3703C143.427 22.0009 142.808 22.4963 142.02 22.8566C141.254 23.2169 140.444 23.397 139.588 23.397C138.214 23.397 137.032 22.9129 136.041 21.9446C135.05 20.9763 134.555 19.6589 134.555 17.9925C134.555 16.3036 135.039 14.9975 136.007 14.0743C136.998 13.151 138.192 12.6894 139.588 12.6894C140.466 12.6894 141.288 12.8583 142.054 13.196C142.842 13.5338 143.45 14.0067 143.878 14.6147V12.4867C143.878 11.6085 143.608 10.9216 143.067 10.4262C142.549 9.9083 141.817 9.64933 140.871 9.64933C139.385 9.64933 138.045 10.2348 136.852 11.4058L135.332 8.63599C136.976 7.05967 139.07 6.27152 141.615 6.27152C143.529 6.27152 145.06 6.74441 146.208 7.6902C147.379 8.61347 147.965 10.0659 147.965 12.0476V22.9917ZM141.142 20.661C142.403 20.661 143.315 20.1431 143.878 19.1072V17.013C143.292 15.9546 142.38 15.4254 141.142 15.4254C140.376 15.4254 139.757 15.6731 139.284 16.1685C138.834 16.6414 138.608 17.2719 138.608 18.0601C138.608 18.8482 138.834 19.4788 139.284 19.9517C139.757 20.4246 140.376 20.661 141.142 20.661ZM156.089 18.3979C156.63 19.3437 157.418 19.8166 158.454 19.8166C159.489 19.8166 160.278 19.3437 160.818 18.3979C161.381 17.4296 161.662 16.2248 161.662 14.7836C161.662 13.3874 161.381 12.2165 160.818 11.2707C160.278 10.3249 159.489 9.852 158.454 9.852C157.418 9.852 156.63 10.3249 156.089 11.2707C155.549 12.2165 155.278 13.3874 155.278 14.7836C155.278 16.2248 155.549 17.4296 156.089 18.3979ZM158.454 23.397C156.089 23.397 154.265 22.5413 152.981 20.8299C151.72 19.096 151.09 16.8441 151.09 14.0743C151.09 9.95333 151.63 7.01464 152.711 5.25817C153.815 3.47919 155.729 2.35325 158.454 1.88036C160.278 1.56509 161.19 1.0922 161.19 0.461675H165.31C165.31 2.78111 163.408 4.25609 159.602 4.88661C156.607 5.38203 154.941 6.63182 154.603 8.63599C155.684 7.05967 157.238 6.27152 159.264 6.27152C161.313 6.27152 162.923 7.09345 164.094 8.73732C165.265 10.3812 165.851 12.3966 165.851 14.7836C165.851 17.1931 165.198 19.2311 163.892 20.8975C162.608 22.5638 160.795 23.397 158.454 23.397ZM175.581 23.397C173.285 23.397 171.483 22.5751 170.177 20.9312C168.871 19.2648 168.218 17.2269 168.218 14.8174C168.218 12.4079 168.871 10.3812 170.177 8.73732C171.483 7.09345 173.285 6.27152 175.581 6.27152C177.901 6.27152 179.714 7.09345 181.02 8.73732C182.326 10.3812 182.979 12.4079 182.979 14.8174C182.979 17.2494 182.326 19.2874 181.02 20.9312C179.714 22.5751 177.901 23.397 175.581 23.397ZM175.581 19.8166C176.64 19.8166 177.439 19.3437 177.98 18.3979C178.52 17.4521 178.79 16.2586 178.79 14.8174C178.79 13.3762 178.52 12.194 177.98 11.2707C177.439 10.3249 176.64 9.852 175.581 9.852C174.546 9.852 173.757 10.3249 173.217 11.2707C172.699 12.2165 172.44 13.3987 172.44 14.8174C172.44 16.2586 172.699 17.4521 173.217 18.3979C173.757 19.3437 174.546 19.8166 175.581 19.8166ZM192.542 22.9917H188.455V10.2236H184.874V6.67685H196.156V10.2236H192.542V22.9917ZM198.493 29.3758L199.101 25.7953C199.417 25.9529 199.766 26.0317 200.148 26.0317C201.049 26.0317 201.646 25.6377 201.939 24.8495L202.479 23.2957L196.973 6.67685H201.297L204.573 18.0939L207.884 6.67685H212.207L205.823 25.7615C205.35 27.2027 204.686 28.1935 203.83 28.734C202.975 29.297 201.849 29.5897 200.452 29.6122C199.664 29.6122 199.011 29.5334 198.493 29.3758ZM25.9231 55.397C23.6262 55.397 21.8923 54.6652 20.7213 53.2015L22.6466 50.6681C23.4573 51.6589 24.4031 52.1543 25.484 52.1543C26.4298 52.1543 27.218 51.8166 27.8485 51.141C28.479 50.4429 28.8956 49.5084 29.0983 48.3374H23.4911V45.196H29.0983C28.8956 44.0476 28.479 43.1468 27.8485 42.4938C27.218 41.8407 26.4298 41.5142 25.484 41.5142C24.3806 41.5142 23.4348 42.0096 22.6466 43.0005L20.7213 40.4671C21.8923 39.0034 23.6262 38.2715 25.9231 38.2715C28.13 38.2715 29.9202 39.0709 31.2938 40.6698C32.6675 42.2686 33.3543 44.3178 33.3543 46.8174C33.3543 49.3395 32.6675 51.4 31.2938 52.9988C29.9202 54.5976 28.13 55.397 25.9231 55.397ZM35.2425 55.397V51.9854C35.8955 51.9854 36.4022 51.6477 36.7625 50.9721C37.1453 50.274 37.438 48.9679 37.6407 47.0538L38.4176 38.6769H49.7333V54.9917H45.6461V42.2236H42.0994L41.6603 47.4592C41.4126 50.3416 40.7708 52.3908 39.735 53.6068C38.7216 54.8003 37.2241 55.397 35.2425 55.397ZM60.4747 55.397C58.1778 55.397 56.3313 54.6089 54.9351 53.0326C53.5615 51.4563 52.8747 49.3845 52.8747 46.8174C52.8747 44.3854 53.539 42.3587 54.8676 40.7373C56.1962 39.0935 57.9639 38.2715 60.1707 38.2715C62.3776 38.2715 64.1003 39.0822 65.3388 40.7035C66.5773 42.3024 67.1966 44.3966 67.1966 46.9863V48.1347H56.9618C57.0519 49.3057 57.4347 50.2628 58.1103 51.0059C58.7858 51.749 59.7204 52.1206 60.9139 52.1206C61.5219 52.1206 62.1524 51.9854 62.8054 51.7152C63.4585 51.4225 64.0102 51.0284 64.4606 50.533L66.3184 52.965C64.8321 54.5864 62.8842 55.397 60.4747 55.397ZM63.2783 45.3649C63.2333 44.3516 62.9631 43.4621 62.4676 42.6965C61.9722 41.9308 61.1841 41.548 60.1032 41.548C59.0673 41.548 58.2904 41.9308 57.7725 42.6965C57.2771 43.4621 57.0068 44.3516 56.9618 45.3649H63.2783ZM84.1369 54.9917H79.3741L75.9963 48.6076L74.2736 51.0059V54.9917H70.2203V38.6769H74.2736V46.0743L79.239 38.6769H83.968L78.7999 46.0067L84.1369 54.9917ZM92.8094 54.9917H88.7222V42.2236H85.1418V38.6769H96.4237V42.2236H92.8094V54.9917ZM107.307 55.397C105.55 55.397 104.176 54.5751 103.186 52.9312V61.2069H99.1322V38.6769H103.186V40.7373C104.221 39.0935 105.595 38.2715 107.307 38.2715C109.153 38.2715 110.617 39.0372 111.698 40.5684C112.801 42.0772 113.353 44.1602 113.353 46.8174C113.353 49.4521 112.801 51.5463 111.698 53.1001C110.617 54.6314 109.153 55.397 107.307 55.397ZM105.989 51.8166C107.003 51.8166 107.779 51.3549 108.32 50.4316C108.883 49.5084 109.164 48.3036 109.164 46.8174C109.164 45.3537 108.883 44.1602 108.32 43.2369C107.779 42.3136 107.003 41.852 105.989 41.852C105.449 41.852 104.908 42.0322 104.368 42.3925C103.85 42.7528 103.456 43.2031 103.186 43.7436V49.8912C103.456 50.4316 103.85 50.8933 104.368 51.2761C104.908 51.6364 105.449 51.8166 105.989 51.8166ZM122.977 55.397C120.68 55.397 118.879 54.5751 117.573 52.9312C116.267 51.2648 115.614 49.2269 115.614 46.8174C115.614 44.4079 116.267 42.3812 117.573 40.7373C118.879 39.0935 120.68 38.2715 122.977 38.2715C125.297 38.2715 127.109 39.0935 128.416 40.7373C129.722 42.3812 130.375 44.4079 130.375 46.8174C130.375 49.2494 129.722 51.2874 128.416 52.9312C127.109 54.5751 125.297 55.397 122.977 55.397ZM122.977 51.8166C124.036 51.8166 124.835 51.3437 125.375 50.3979C125.916 49.4521 126.186 48.2586 126.186 46.8174C126.186 45.3762 125.916 44.194 125.375 43.2707C124.835 42.3249 124.036 41.852 122.977 41.852C121.941 41.852 121.153 42.3249 120.613 43.2707C120.095 44.2165 119.836 45.3987 119.836 46.8174C119.836 48.2586 120.095 49.4521 120.613 50.3979C121.153 51.3437 121.941 51.8166 122.977 51.8166ZM150.612 54.9917H146.592V45.0947L142.944 54.9917H141.188L137.573 45.0947V54.9917H133.52V38.6769H138.722L142.066 47.7632L145.444 38.6769H150.612V54.9917ZM161.125 55.397C158.829 55.397 157.027 54.5751 155.721 52.9312C154.415 51.2648 153.762 49.2269 153.762 46.8174C153.762 44.4079 154.415 42.3812 155.721 40.7373C157.027 39.0935 158.829 38.2715 161.125 38.2715C163.445 38.2715 165.258 39.0935 166.564 40.7373C167.87 42.3812 168.523 44.4079 168.523 46.8174C168.523 49.2494 167.87 51.2874 166.564 52.9312C165.258 54.5751 163.445 55.397 161.125 55.397ZM161.125 51.8166C162.184 51.8166 162.983 51.3437 163.524 50.3979C164.064 49.4521 164.334 48.2586 164.334 46.8174C164.334 45.3762 164.064 44.194 163.524 43.2707C162.983 42.3249 162.184 41.852 161.125 41.852C160.09 41.852 159.301 42.3249 158.761 43.2707C158.243 44.2165 157.984 45.3987 157.984 46.8174C157.984 48.2586 158.243 49.4521 158.761 50.3979C159.301 51.3437 160.09 51.8166 161.125 51.8166ZM175.722 54.9917H171.668V38.6769H175.722V44.7569H180.822V38.6769H184.909V54.9917H180.822V48.3036H175.722V54.9917ZM195.313 54.9917H191.226V42.2236H187.645V38.6769H198.927V42.2236H195.313V54.9917ZM214.167 54.9917H210.08V53.3703C209.63 54.0009 209.011 54.4963 208.222 54.8566C207.457 55.2169 206.646 55.397 205.79 55.397C204.417 55.397 203.235 54.9129 202.244 53.9446C201.253 52.9763 200.757 51.6589 200.757 49.9925C200.757 48.3036 201.242 46.9975 202.21 46.0743C203.201 45.151 204.394 44.6894 205.79 44.6894C206.669 44.6894 207.491 44.8583 208.256 45.196C209.044 45.5338 209.652 46.0067 210.08 46.6147V44.4867C210.08 43.6085 209.81 42.9216 209.27 42.4262C208.752 41.9083 208.02 41.6493 207.074 41.6493C205.588 41.6493 204.248 42.2348 203.054 43.4058L201.534 40.636C203.178 39.0597 205.272 38.2715 207.817 38.2715C209.731 38.2715 211.262 38.7444 212.411 39.6902C213.582 40.6135 214.167 42.0659 214.167 44.0476V54.9917ZM207.344 52.661C208.605 52.661 209.517 52.1431 210.08 51.1072V49.013C209.495 47.9546 208.583 47.4254 207.344 47.4254C206.579 47.4254 205.959 47.6731 205.486 48.1685C205.036 48.6414 204.811 49.2719 204.811 50.0601C204.811 50.8482 205.036 51.4788 205.486 51.9517C205.959 52.4246 206.579 52.661 207.344 52.661ZM221.177 54.9917H216.414L221.751 46.0067L216.583 38.6769H221.312L225.163 44.4191V38.6769H229.216V44.4867L233.101 38.6769H237.796L232.661 46.0067L237.998 54.9917H233.236L229.858 48.6076L229.216 49.5196V54.9917H225.163V49.4521L224.555 48.6076L221.177 54.9917ZM244.299 54.9917H240.246V38.6769H244.299V44.7569H249.4V38.6769H253.487V54.9917H249.4V48.3036H244.299V54.9917ZM261.391 54.9917H257.473V38.6769H261.526V47.8645L266.559 38.6769H270.714V54.9917H266.626V45.4325L261.391 54.9917ZM288.616 54.9917H283.853L280.475 48.6076L278.753 51.0059V54.9917H274.699V38.6769H278.753V46.0743L283.718 38.6769H288.447L283.279 46.0067L288.616 54.9917ZM297.093 55.397C294.796 55.397 292.995 54.5751 291.689 52.9312C290.382 51.2648 289.729 49.2269 289.729 46.8174C289.729 44.4079 290.382 42.3812 291.689 40.7373C292.995 39.0935 294.796 38.2715 297.093 38.2715C299.412 38.2715 301.225 39.0935 302.531 40.7373C303.837 42.3812 304.49 44.4079 304.49 46.8174C304.49 49.2494 303.837 51.2874 302.531 52.9312C301.225 54.5751 299.412 55.397 297.093 55.397ZM297.093 51.8166C298.151 51.8166 298.951 51.3437 299.491 50.3979C300.032 49.4521 300.302 48.2586 300.302 46.8174C300.302 45.3762 300.032 44.194 299.491 43.2707C298.951 42.3249 298.151 41.852 297.093 41.852C296.057 41.852 295.269 42.3249 294.729 43.2707C294.211 44.2165 293.952 45.3987 293.952 46.8174C293.952 48.2586 294.211 49.4521 294.729 50.3979C295.269 51.3437 296.057 51.8166 297.093 51.8166ZM324.727 54.9917H320.708V45.0947L317.06 54.9917H315.303L311.689 45.0947V54.9917H307.636V38.6769H312.838L316.182 47.7632L319.559 38.6769H324.727V54.9917ZM25.9907 86.9917H21.9373V70.6769H25.9907V76.7569H31.0912V70.6769H35.1783V86.9917H31.0912V80.3036H25.9907V86.9917ZM51.6958 86.9917H47.6087V85.3703C47.1583 86.0009 46.5391 86.4963 45.7509 86.8566C44.9853 87.2169 44.1746 87.397 43.3189 87.397C41.9452 87.397 40.763 86.9129 39.7722 85.9446C38.7813 84.9763 38.2859 83.6589 38.2859 81.9925C38.2859 80.3036 38.7701 78.9975 39.7384 78.0743C40.7292 77.151 41.9227 76.6894 43.3189 76.6894C44.1971 76.6894 45.019 76.8583 45.7847 77.196C46.5728 77.5338 47.1808 78.0067 47.6087 78.6147V76.4867C47.6087 75.6085 47.3385 74.9216 46.798 74.4262C46.2801 73.9083 45.5482 73.6493 44.6024 73.6493C43.1162 73.6493 41.7763 74.2348 40.5828 75.4058L39.0628 72.636C40.7067 71.0597 42.8009 70.2715 45.3456 70.2715C47.2597 70.2715 48.7909 70.7444 49.9394 71.6902C51.1104 72.6135 51.6958 74.0659 51.6958 76.0476V86.9917ZM44.8727 84.661C46.1337 84.661 47.0457 84.1431 47.6087 83.1072V81.013C47.0232 79.9546 46.1112 79.4254 44.8727 79.4254C44.107 79.4254 43.4878 79.6731 43.0149 80.1685C42.5645 80.6414 42.3393 81.2719 42.3393 82.0601C42.3393 82.8482 42.5645 83.4788 43.0149 83.9517C43.4878 84.4246 44.107 84.661 44.8727 84.661ZM76.3362 86.9917H72.2828V76.1827C72.2828 74.6289 71.5622 73.852 70.121 73.852C69.513 73.852 68.9501 74.0547 68.4321 74.46C67.9142 74.8428 67.4976 75.3157 67.1823 75.8787V86.9917H63.0952V64.4617H67.1823V72.8049C67.6327 72.1068 68.2858 71.51 69.1415 71.0146C70.0197 70.5192 70.9542 70.2715 71.9451 70.2715C74.8725 70.2715 76.3362 71.7352 76.3362 74.6627V86.9917ZM93.5631 86.9917H89.5097V76.1827C89.5097 74.6289 88.7891 73.852 87.3479 73.852C86.7399 73.852 86.1769 74.0547 85.659 74.46C85.141 74.8428 84.7245 75.3157 84.4092 75.8787V86.9917H80.322V64.4617H84.4092V72.8049C84.8596 72.1068 85.5126 71.51 86.3683 71.0146C87.2466 70.5192 88.1811 70.2715 89.1719 70.2715C92.0993 70.2715 93.5631 71.7352 93.5631 74.6627V86.9917ZM101.805 86.6201C101.31 87.1156 100.702 87.3633 99.9809 87.3633C99.2603 87.3633 98.641 87.1043 98.1231 86.5864C97.6052 86.0684 97.3462 85.4604 97.3462 84.7623C97.3462 84.0417 97.6052 83.4225 98.1231 82.9045C98.641 82.3866 99.2603 82.1276 99.9809 82.1276C100.679 82.1276 101.287 82.3866 101.805 82.9045C102.323 83.4225 102.582 84.0417 102.582 84.7623C102.582 85.4829 102.323 86.1022 101.805 86.6201ZM110.451 86.9917H106.397V70.6769H110.451V72.9062C110.923 72.1631 111.565 71.5438 112.376 71.0484C113.209 70.5305 114.054 70.2715 114.909 70.2715V74.2573C114.639 74.1898 114.313 74.156 113.93 74.156C113.277 74.156 112.612 74.3474 111.937 74.7302C111.284 75.0905 110.788 75.5522 110.451 76.1151V86.9917ZM130.762 86.9917H126.708V84.9312C126.236 85.6293 125.571 86.2148 124.715 86.6877C123.86 87.1606 122.925 87.397 121.912 87.397C119.007 87.397 117.555 85.9333 117.555 83.0059V70.6769H121.608V81.4521C121.608 83.0284 122.328 83.8166 123.77 83.8166C124.986 83.8166 125.965 83.1522 126.708 81.8236V70.6769H130.762V86.9917Z" fill="white"/>
  <path d="M13.3812 21.1308H9.90204L5.67977 15.0507L9.90204 9.07197H13.3812L9.15892 15.0507L13.3812 21.1308ZM7.67268 21.1308H4.22731L0.0050436 15.0507L4.22731 9.07197H7.67268L3.45041 15.0507L7.67268 21.1308Z" fill="white"/>
  <path d="M146.682 79.7414L142.46 85.8214H139.015L143.237 79.7414L139.015 73.7626H142.46L146.682 79.7414ZM152.391 79.7414L148.169 85.8214H144.69L148.912 79.7414L144.69 73.7626H148.169L152.391 79.7414Z" fill="white"/>
  </svg>
  