<svg width="116" height="47" viewBox="0 0 116 47" fill="none" xmlns="http://www.w3.org/2000/svg">
  <path d="M13.4173 12.564H11.3115V3.79582H13.4899V8.73358L16.1948 3.79582H18.4276V12.564H16.2311V7.42652L13.4173 12.564ZM29.4468 3.79582H31.6252V10.6578H32.6055V14.7968H30.4089V12.564H20.5698V3.79582H22.7482V10.6578H24.9992V3.79582H27.1958V10.6578H29.4468V3.79582ZM36.1354 12.564H34.0296V3.79582H36.208V8.73358L38.9129 3.79582H41.1458V12.564H38.9492V7.42652L36.1354 12.564ZM46.737 12.564H44.5405V5.70194H42.6162V3.79582H48.6795V5.70194H46.737V12.564ZM53.7658 12.7818C52.5314 12.7818 51.539 12.3582 50.7887 11.5111C50.0504 10.6639 49.6813 9.55048 49.6813 8.17082C49.6813 6.86376 50.0383 5.77455 50.7524 4.90319C51.4664 4.01972 52.4164 3.57798 53.6025 3.57798C54.7885 3.57798 55.7143 4.01367 56.3799 4.88503C57.0456 5.7443 57.3784 6.86982 57.3784 8.26158V8.8788H51.8779C51.9263 9.50813 52.132 10.0225 52.4951 10.4219C52.8582 10.8212 53.3604 11.0209 54.0018 11.0209C54.3286 11.0209 54.6675 10.9483 55.0184 10.8031C55.3694 10.6457 55.6659 10.434 55.908 10.1677L56.9064 11.4748C56.1076 12.3461 55.0608 12.7818 53.7658 12.7818ZM55.2726 7.39022C55.2484 6.84561 55.1031 6.36757 54.8369 5.95609C54.5706 5.54461 54.1471 5.33887 53.5662 5.33887C53.0094 5.33887 52.5919 5.54461 52.3136 5.95609C52.0473 6.36757 51.9021 6.84561 51.8779 7.39022H55.2726ZM67.3896 12.7818C66.4456 12.7818 65.7074 12.3401 65.1749 11.4566V15.9042H62.9965V3.79582H65.1749V4.90319C65.7316 4.01972 66.4698 3.57798 67.3896 3.57798C68.382 3.57798 69.1687 3.98946 69.7496 4.81242C70.3426 5.62328 70.6391 6.74274 70.6391 8.17082C70.6391 9.58679 70.3426 10.7123 69.7496 11.5474C69.1687 12.3703 68.382 12.7818 67.3896 12.7818ZM66.6816 10.8575C67.2262 10.8575 67.6438 10.6094 67.9342 10.1132C68.2368 9.61705 68.3881 8.96957 68.3881 8.17082C68.3881 7.38417 68.2368 6.74274 67.9342 6.24655C67.6438 5.75035 67.2262 5.50225 66.6816 5.50225C66.3912 5.50225 66.1007 5.59907 65.8103 5.79271C65.5319 5.98635 65.3201 6.22839 65.1749 6.51885V9.82279C65.3201 10.1132 65.5319 10.3613 65.8103 10.5671C66.1007 10.7607 66.3912 10.8575 66.6816 10.8575ZM79.0429 12.564H76.8463V11.6926C76.6043 12.0315 76.2715 12.2977 75.8479 12.4914C75.4364 12.685 75.0007 12.7818 74.5408 12.7818C73.8026 12.7818 73.1672 12.5216 72.6347 12.0012C72.1022 11.4808 71.836 10.7728 71.836 9.87725C71.836 8.96957 72.0962 8.26764 72.6166 7.77144C73.1491 7.27524 73.7905 7.02715 74.5408 7.02715C75.0128 7.02715 75.4545 7.11791 75.866 7.29945C76.2896 7.48098 76.6164 7.73513 76.8463 8.0619V6.91823C76.8463 6.44623 76.7011 6.07711 76.4106 5.81086C76.1323 5.53251 75.739 5.39333 75.2307 5.39333C74.4319 5.39333 73.7118 5.70799 73.0704 6.33731L72.2535 4.84873C73.137 4.00156 74.2625 3.57798 75.63 3.57798C76.6587 3.57798 77.4817 3.83213 78.0989 4.34043C78.7282 4.83662 79.0429 5.61722 79.0429 6.68223V12.564ZM75.3759 11.3114C76.0536 11.3114 76.5438 11.033 76.8463 10.4763V9.3508C76.5317 8.78199 76.0415 8.49758 75.3759 8.49758C74.9644 8.49758 74.6316 8.63071 74.3774 8.89696C74.1354 9.15111 74.0144 9.48997 74.0144 9.91355C74.0144 10.3371 74.1354 10.676 74.3774 10.9301C74.6316 11.1843 74.9644 11.3114 75.3759 11.3114ZM83.4091 10.0951C83.6995 10.6034 84.1231 10.8575 84.6798 10.8575C85.2365 10.8575 85.6601 10.6034 85.9506 10.0951C86.2531 9.57469 86.4044 8.92721 86.4044 8.15266C86.4044 7.40232 86.2531 6.773 85.9506 6.2647C85.6601 5.7564 85.2365 5.50225 84.6798 5.50225C84.1231 5.50225 83.6995 5.7564 83.4091 6.2647C83.1186 6.773 82.9734 7.40232 82.9734 8.15266C82.9734 8.92721 83.1186 9.57469 83.4091 10.0951ZM84.6798 12.7818C83.4091 12.7818 82.4288 12.3219 81.739 11.4021C81.0612 10.4703 80.7224 9.26003 80.7224 7.77144C80.7224 5.55671 81.0128 3.97736 81.5937 3.03338C82.1868 2.07729 83.2155 1.47218 84.6798 1.21803C85.6601 1.04859 86.1503 0.794444 86.1503 0.455578H88.365C88.365 1.70212 87.3424 2.49482 85.2971 2.83369C83.6874 3.09994 82.7919 3.77162 82.6103 4.84873C83.1913 4.00156 84.0263 3.57798 85.1155 3.57798C86.2168 3.57798 87.0822 4.01972 87.7115 4.90319C88.3408 5.78666 88.6555 6.86982 88.6555 8.15266C88.6555 9.44761 88.3045 10.5429 87.6026 11.4384C86.9127 12.334 85.9385 12.7818 84.6798 12.7818ZM93.8849 12.7818C92.6505 12.7818 91.6823 12.3401 90.9804 11.4566C90.2784 10.561 89.9275 9.46577 89.9275 8.17082C89.9275 6.87587 90.2784 5.78666 90.9804 4.90319C91.6823 4.01972 92.6505 3.57798 93.8849 3.57798C95.1315 3.57798 96.1057 4.01972 96.8077 4.90319C97.5096 5.78666 97.8606 6.87587 97.8606 8.17082C97.8606 9.47787 97.5096 10.5731 96.8077 11.4566C96.1057 12.3401 95.1315 12.7818 93.8849 12.7818ZM93.8849 10.8575C94.4537 10.8575 94.8834 10.6034 95.1738 10.0951C95.4643 9.58679 95.6095 8.94537 95.6095 8.17082C95.6095 7.39627 95.4643 6.7609 95.1738 6.2647C94.8834 5.7564 94.4537 5.50225 93.8849 5.50225C93.3282 5.50225 92.9046 5.7564 92.6142 6.2647C92.3358 6.773 92.1967 7.40837 92.1967 8.17082C92.1967 8.94537 92.3358 9.58679 92.6142 10.0951C92.9046 10.6034 93.3282 10.8575 93.8849 10.8575ZM103 12.564H100.804V5.70194H98.8793V3.79582H104.943V5.70194H103V12.564ZM106.199 15.995L106.525 14.0707C106.695 14.1554 106.882 14.1978 107.088 14.1978C107.572 14.1978 107.893 13.986 108.05 13.5624L108.341 12.7273L105.382 3.79582H107.705L109.466 9.93171L111.245 3.79582H113.569L110.138 14.0526C109.884 14.8271 109.527 15.3596 109.067 15.6501C108.607 15.9526 108.002 16.1099 107.251 16.1221C106.828 16.1221 106.477 16.0797 106.199 15.995ZM18.0464 29.564H15.8498V28.6926C15.6078 29.0315 15.275 29.2977 14.8514 29.4914C14.4399 29.685 14.0042 29.7818 13.5443 29.7818C12.8061 29.7818 12.1707 29.5216 11.6382 29.0012C11.1057 28.4808 10.8395 27.7728 10.8395 26.8772C10.8395 25.9696 11.0997 25.2676 11.6201 24.7714C12.1526 24.2752 12.794 24.0271 13.5443 24.0271C14.0163 24.0271 14.4581 24.1179 14.8696 24.2994C15.2931 24.481 15.6199 24.7351 15.8498 25.0619V23.9182C15.8498 23.4462 15.7046 23.0771 15.4142 22.8109C15.1358 22.5325 14.7425 22.3933 14.2342 22.3933C13.4354 22.3933 12.7153 22.708 12.0739 23.3373L11.257 21.8487C12.1405 21.0016 13.266 20.578 14.6336 20.578C15.6623 20.578 16.4852 20.8321 17.1024 21.3404C17.7318 21.8366 18.0464 22.6172 18.0464 23.6822V29.564ZM14.3794 28.3114C15.0571 28.3114 15.5473 28.033 15.8498 27.4763V26.3508C15.5352 25.782 15.045 25.4976 14.3794 25.4976C13.9679 25.4976 13.6351 25.6307 13.381 25.897C13.1389 26.1511 13.0179 26.49 13.0179 26.9136C13.0179 27.3371 13.1389 27.676 13.381 27.9301C13.6351 28.1843 13.9679 28.3114 14.3794 28.3114ZM24.7544 29.564H20.1797V20.7958H24.6273C25.5108 20.7958 26.1764 21.0076 26.6242 21.4312C27.0841 21.8548 27.3141 22.3933 27.3141 23.0469C27.3141 23.5552 27.1749 23.9848 26.8965 24.3358C26.6182 24.6746 26.2551 24.9046 25.8073 25.0256C26.3035 25.1345 26.7089 25.3887 27.0236 25.788C27.3383 26.1874 27.4956 26.6534 27.4956 27.1859C27.4956 27.8878 27.2657 28.4627 26.8058 28.9104C26.3459 29.3461 25.6621 29.564 24.7544 29.564ZM24.2461 27.8031C24.9239 27.8031 25.2627 27.5005 25.2627 26.8954C25.2627 26.6291 25.1719 26.4113 24.9904 26.2419C24.821 26.0603 24.5729 25.9696 24.2461 25.9696H22.3582V27.8031H24.2461ZM24.1735 24.2087C24.7907 24.2087 25.0993 23.9364 25.0993 23.3918C25.0993 23.1376 25.0207 22.9379 24.8633 22.7927C24.706 22.6354 24.4761 22.5567 24.1735 22.5567H22.3582V24.2087H24.1735ZM32.9226 29.564H30.7261V22.7019H28.8018V20.7958H34.8651V22.7019H32.9226V29.564ZM39.8244 29.7818C38.5899 29.7818 37.6218 29.3401 36.9198 28.4566C36.2179 27.561 35.8669 26.4658 35.8669 25.1708C35.8669 23.8759 36.2179 22.7867 36.9198 21.9032C37.6218 21.0197 38.5899 20.578 39.8244 20.578C41.0709 20.578 42.0452 21.0197 42.7471 21.9032C43.449 22.7867 43.8 23.8759 43.8 25.1708C43.8 26.4779 43.449 27.5731 42.7471 28.4566C42.0452 29.3401 41.0709 29.7818 39.8244 29.7818ZM39.8244 27.8575C40.3932 27.8575 40.8228 27.6034 41.1133 27.0951C41.4037 26.5868 41.549 25.9454 41.549 25.1708C41.549 24.3963 41.4037 23.7609 41.1133 23.2647C40.8228 22.7564 40.3932 22.5023 39.8244 22.5023C39.2677 22.5023 38.8441 22.7564 38.5536 23.2647C38.2753 23.773 38.1361 24.4084 38.1361 25.1708C38.1361 25.9454 38.2753 26.5868 38.5536 27.0951C38.8441 27.6034 39.2677 27.8575 39.8244 27.8575ZM49.0485 29.7818C47.8504 29.7818 46.8822 29.3522 46.1439 28.4929C45.4057 27.6336 45.0366 26.5263 45.0366 25.1708C45.0366 23.8275 45.4057 22.7261 46.1439 21.8669C46.8822 21.0076 47.8504 20.578 49.0485 20.578C50.2587 20.578 51.1906 20.9713 51.8441 21.758L50.7549 23.2647C50.3434 22.7564 49.8533 22.5023 49.2845 22.5023C48.6673 22.5023 48.1771 22.7564 47.814 23.2647C47.4631 23.7609 47.2876 24.3963 47.2876 25.1708C47.2876 25.9575 47.4631 26.6049 47.814 27.1132C48.1771 27.6094 48.6673 27.8575 49.2845 27.8575C49.8533 27.8575 50.3434 27.6034 50.7549 27.0951L51.8441 28.6018C51.1906 29.3885 50.2587 29.7818 49.0485 29.7818ZM52.641 29.7818V27.9483C52.992 27.9483 53.2643 27.7668 53.4579 27.4037C53.6637 27.0285 53.821 26.3266 53.9299 25.2979L54.3475 20.7958H60.4289V29.564H58.2323V22.7019H56.3262L56.0902 25.5157C55.9571 27.0648 55.6122 28.1661 55.0554 28.8197C54.5108 29.4611 53.706 29.7818 52.641 29.7818ZM66.2017 29.7818C64.9673 29.7818 63.9749 29.3582 63.2245 28.5111C62.4863 27.6639 62.1172 26.5505 62.1172 25.1708C62.1172 23.8638 62.4742 22.7746 63.1882 21.9032C63.9023 21.0197 64.8523 20.578 66.0383 20.578C67.2243 20.578 68.1502 21.0137 68.8158 21.885C69.4814 22.7443 69.8142 23.8698 69.8142 25.2616V25.8788H64.3137C64.3621 26.5081 64.5679 27.0225 64.931 27.4219C65.294 27.8212 65.7963 28.0209 66.4377 28.0209C66.7645 28.0209 67.1033 27.9483 67.4543 27.8031C67.8053 27.6457 68.1018 27.434 68.3438 27.1677L69.3423 28.4748C68.5435 29.3461 67.4966 29.7818 66.2017 29.7818ZM67.7084 24.3902C67.6842 23.8456 67.539 23.3676 67.2728 22.9561C67.0065 22.5446 66.5829 22.3389 66.002 22.3389C65.4453 22.3389 65.0278 22.5446 64.7494 22.9561C64.4832 23.3676 64.3379 23.8456 64.3137 24.3902H67.7084ZM74.9974 29.7818C73.7992 29.7818 72.831 29.3522 72.0928 28.4929C71.3545 27.6336 70.9854 26.5263 70.9854 25.1708C70.9854 23.8275 71.3545 22.7261 72.0928 21.8669C72.831 21.0076 73.7992 20.578 74.9974 20.578C76.2076 20.578 77.1395 20.9713 77.793 21.758L76.7038 23.2647C76.2923 22.7564 75.8022 22.5023 75.2333 22.5023C74.6161 22.5023 74.126 22.7564 73.7629 23.2647C73.4119 23.7609 73.2365 24.3963 73.2365 25.1708C73.2365 25.9575 73.4119 26.6049 73.7629 27.1132C74.126 27.6094 74.6161 27.8575 75.2333 27.8575C75.8022 27.8575 76.2923 27.6034 76.7038 27.0951L77.793 28.6018C77.1395 29.3885 76.2076 29.7818 74.9974 29.7818ZM85.9965 29.564H83.8V28.6926C83.5579 29.0315 83.2251 29.2977 82.8015 29.4914C82.39 29.685 81.9544 29.7818 81.4945 29.7818C80.7562 29.7818 80.1209 29.5216 79.5883 29.0012C79.0558 28.4808 78.7896 27.7728 78.7896 26.8772C78.7896 25.9696 79.0498 25.2676 79.5702 24.7714C80.1027 24.2752 80.7441 24.0271 81.4945 24.0271C81.9665 24.0271 82.4082 24.1179 82.8197 24.2994C83.2433 24.481 83.57 24.7351 83.8 25.0619V23.9182C83.8 23.4462 83.6547 23.0771 83.3643 22.8109C83.0859 22.5325 82.6926 22.3933 82.1843 22.3933C81.3855 22.3933 80.6655 22.708 80.024 23.3373L79.2071 21.8487C80.0906 21.0016 81.2161 20.578 82.5837 20.578C83.6124 20.578 84.4353 20.8321 85.0526 21.3404C85.6819 21.8366 85.9965 22.6172 85.9965 23.6822V29.564ZM82.3295 28.3114C83.0073 28.3114 83.4974 28.033 83.8 27.4763V26.3508C83.4853 25.782 82.9952 25.4976 82.3295 25.4976C81.918 25.4976 81.5852 25.6307 81.3311 25.897C81.089 26.1511 80.968 26.49 80.968 26.9136C80.968 27.3371 81.089 27.676 81.3311 27.9301C81.5852 28.1843 81.918 28.3114 82.3295 28.3114ZM92.523 29.7818C91.579 29.7818 90.8408 29.3401 90.3083 28.4566V32.9042H88.1298V20.7958H90.3083V21.9032C90.865 21.0197 91.6032 20.578 92.523 20.578C93.5154 20.578 94.302 20.9895 94.883 21.8124C95.476 22.6233 95.7725 23.7427 95.7725 25.1708C95.7725 26.5868 95.476 27.7123 94.883 28.5474C94.302 29.3703 93.5154 29.7818 92.523 29.7818ZM91.815 27.8575C92.3596 27.8575 92.7771 27.6094 93.0676 27.1132C93.3702 26.617 93.5214 25.9696 93.5214 25.1708C93.5214 24.3842 93.3702 23.7427 93.0676 23.2465C92.7771 22.7504 92.3596 22.5023 91.815 22.5023C91.5246 22.5023 91.2341 22.5991 90.9436 22.7927C90.6653 22.9863 90.4535 23.2284 90.3083 23.5188V26.8228C90.4535 27.1132 90.6653 27.3613 90.9436 27.5671C91.2341 27.7607 91.5246 27.8575 91.815 27.8575ZM101.072 29.7818C99.8376 29.7818 98.8452 29.3582 98.0948 28.5111C97.3566 27.6639 96.9875 26.5505 96.9875 25.1708C96.9875 23.8638 97.3445 22.7746 98.0585 21.9032C98.7726 21.0197 99.7226 20.578 100.909 20.578C102.095 20.578 103.02 21.0137 103.686 21.885C104.352 22.7443 104.685 23.8698 104.685 25.2616V25.8788H99.1841C99.2325 26.5081 99.4382 27.0225 99.8013 27.4219C100.164 27.8212 100.667 28.0209 101.308 28.0209C101.635 28.0209 101.974 27.9483 102.325 27.8031C102.676 27.6457 102.972 27.434 103.214 27.1677L104.213 28.4748C103.414 29.3461 102.367 29.7818 101.072 29.7818ZM102.579 24.3902C102.555 23.8456 102.409 23.3676 102.143 22.9561C101.877 22.5446 101.453 22.3389 100.872 22.3389C100.316 22.3389 99.8981 22.5446 99.6197 22.9561C99.3535 23.3676 99.2083 23.8456 99.1841 24.3902H102.579ZM115.495 29.564H113.335V24.245L111.374 29.564H110.43L108.488 24.245V29.564H106.31V20.7958H109.105L110.902 25.6791L112.718 20.7958H115.495V29.564ZM13.4899 46.564H11.3115V37.7958H13.4899V41.0635H16.2311V37.7958H18.4276V46.564H16.2311V42.9696H13.4899V46.564ZM27.3047 46.564H25.1081V45.6926C24.8661 46.0315 24.5333 46.2977 24.1097 46.4914C23.6982 46.685 23.2625 46.7818 22.8026 46.7818C22.0644 46.7818 21.429 46.5216 20.8965 46.0012C20.364 45.4808 20.0978 44.7728 20.0978 43.8772C20.0978 42.9696 20.358 42.2676 20.8784 41.7714C21.4109 41.2752 22.0523 41.0271 22.8026 41.0271C23.2746 41.0271 23.7164 41.1179 24.1278 41.2994C24.5514 41.481 24.8782 41.7351 25.1081 42.0619V40.9182C25.1081 40.4462 24.9629 40.0771 24.6724 39.8109C24.3941 39.5325 24.0008 39.3933 23.4925 39.3933C22.6937 39.3933 21.9736 39.708 21.3322 40.3373L20.5153 38.8487C21.3988 38.0016 22.5243 37.578 23.8918 37.578C24.9205 37.578 25.7435 37.8321 26.3607 38.3404C26.99 38.8366 27.3047 39.6172 27.3047 40.6822V46.564ZM23.6377 45.3114C24.3154 45.3114 24.8056 45.033 25.1081 44.4763V43.3508C24.7935 42.782 24.3033 42.4976 23.6377 42.4976C23.2262 42.4976 22.8934 42.6307 22.6393 42.897C22.3972 43.1511 22.2762 43.49 22.2762 43.9136C22.2762 44.3371 22.3972 44.676 22.6393 44.9301C22.8934 45.1843 23.2262 45.3114 23.6377 45.3114ZM40.5473 46.564H38.3688V40.7548C38.3688 39.9198 37.9816 39.5023 37.207 39.5023C36.8802 39.5023 36.5777 39.6112 36.2993 39.829C36.021 40.0348 35.7971 40.2889 35.6277 40.5915V46.564H33.4311V34.4556H35.6277V38.9395C35.8697 38.5643 36.2207 38.2436 36.6806 37.9774C37.1525 37.7111 37.6548 37.578 38.1873 37.578C39.7606 37.578 40.5473 38.3646 40.5473 39.9379V46.564ZM49.8055 46.564H47.6271V40.7548C47.6271 39.9198 47.2398 39.5023 46.4653 39.5023C46.1385 39.5023 45.836 39.6112 45.5576 39.829C45.2793 40.0348 45.0554 40.2889 44.8859 40.5915V46.564H42.6894V34.4556H44.8859V38.9395C45.128 38.5643 45.479 38.2436 45.9388 37.9774C46.4108 37.7111 46.9131 37.578 47.4456 37.578C49.0189 37.578 49.8055 38.3646 49.8055 39.9379V46.564ZM54.235 46.3643C53.9687 46.6305 53.642 46.7637 53.2547 46.7637C52.8674 46.7637 52.5346 46.6245 52.2563 46.3461C51.9779 46.0678 51.8387 45.741 51.8387 45.3658C51.8387 44.9786 51.9779 44.6457 52.2563 44.3674C52.5346 44.089 52.8674 43.9499 53.2547 43.9499C53.6299 43.9499 53.9566 44.089 54.235 44.3674C54.5133 44.6457 54.6525 44.9786 54.6525 45.3658C54.6525 45.7531 54.5133 46.0859 54.235 46.3643ZM58.8814 46.564H56.703V37.7958H58.8814V38.994C59.1356 38.5946 59.4805 38.2618 59.9162 37.9955C60.364 37.7172 60.8178 37.578 61.2777 37.578V39.7201C61.1325 39.6838 60.957 39.6656 60.7513 39.6656C60.4003 39.6656 60.0433 39.7685 59.6802 39.9742C59.3292 40.1679 59.063 40.416 58.8814 40.7185V46.564ZM69.7974 46.564H67.6189V45.4566C67.3648 45.8318 67.0078 46.1464 66.5479 46.4006C66.088 46.6547 65.5858 46.7818 65.0412 46.7818C63.4799 46.7818 62.6993 45.9952 62.6993 44.4219V37.7958H64.8778V43.5868C64.8778 44.434 65.265 44.8575 66.0396 44.8575C66.6931 44.8575 67.2196 44.5005 67.6189 43.7865V37.7958H69.7974V46.564ZM78.3481 42.1527L76.0789 45.4203H74.2272L76.4964 42.1527L74.2272 38.9395H76.0789L78.3481 42.1527ZM81.416 42.1527L79.1468 45.4203H77.277L79.5462 42.1527L77.277 38.9395H79.1468L81.416 42.1527Z" fill="white"/>
  <path d="M7.8645 11.267H5.99468L3.7255 7.99934L5.99468 4.78617H7.8645L5.59531 7.99934L7.8645 11.267ZM4.79655 11.267H2.9449L0.675709 7.99934L2.9449 4.78617H4.79655L2.52737 7.99934L4.79655 11.267Z" fill="white"/>
  </svg>
  