<svg width="127" height="34" viewBox="0 0 127 34" fill="none" xmlns="http://www.w3.org/2000/svg">
  <path d="M10.0932 9.01562H8.5701V2.67388H10.1457V6.24521L12.102 2.67388H13.717V9.01562H12.1283V5.29986L10.0932 9.01562ZM21.6869 2.67388H23.2625V7.63698H23.9715V10.6306H22.3828V9.01562H15.2664V2.67388H16.8419V7.63698H18.4701V2.67388H20.0588V7.63698H21.6869V2.67388ZM26.5245 9.01562H25.0015V2.67388H26.5771V6.24521L28.5334 2.67388H30.1484V9.01562H28.5597V5.29986L26.5245 9.01562ZM34.1924 9.01562H32.6037V4.05252H31.2119V2.67388H35.5973V4.05252H34.1924V9.01562ZM39.2761 9.17318C38.3833 9.17318 37.6655 8.86682 37.1228 8.25409C36.5889 7.64136 36.3219 6.83606 36.3219 5.83819C36.3219 4.89283 36.5801 4.10504 37.0966 3.4748C37.613 2.83581 38.3001 2.51632 39.158 2.51632C40.0158 2.51632 40.6854 2.83144 41.1668 3.46167C41.6483 4.08316 41.889 4.89721 41.889 5.90384V6.35025H37.9106C37.9456 6.80542 38.0944 7.17744 38.357 7.4663C38.6196 7.75515 38.9829 7.89958 39.4468 7.89958C39.6832 7.89958 39.9283 7.84706 40.1821 7.74202C40.4359 7.62823 40.6504 7.47505 40.8255 7.28248L41.5476 8.22783C40.9699 8.85807 40.2127 9.17318 39.2761 9.17318ZM40.3659 5.2736C40.3484 4.8797 40.2434 4.53395 40.0508 4.23634C39.8582 3.93873 39.5519 3.78992 39.1317 3.78992C38.7291 3.78992 38.4271 3.93873 38.2257 4.23634C38.0332 4.53395 37.9281 4.8797 37.9106 5.2736H40.3659ZM49.1298 9.17318C48.4471 9.17318 47.9131 8.85369 47.528 8.2147V11.4315H45.9524V2.67388H47.528V3.4748C47.9306 2.83581 48.4646 2.51632 49.1298 2.51632C49.8476 2.51632 50.4166 2.81393 50.8367 3.40915C51.2656 3.99562 51.4801 4.8053 51.4801 5.83819C51.4801 6.86232 51.2656 7.67637 50.8367 8.28035C50.4166 8.87557 49.8476 9.17318 49.1298 9.17318ZM48.6178 7.78141C49.0117 7.78141 49.3136 7.60197 49.5237 7.24309C49.7426 6.8842 49.852 6.4159 49.852 5.83819C49.852 5.26922 49.7426 4.8053 49.5237 4.44642C49.3136 4.08753 49.0117 3.90809 48.6178 3.90809C48.4077 3.90809 48.1976 3.97812 47.9875 4.11817C47.7862 4.25822 47.633 4.43329 47.528 4.64337V7.03301C47.633 7.24309 47.7862 7.42253 47.9875 7.57133C48.1976 7.71139 48.4077 7.78141 48.6178 7.78141ZM57.5583 9.01562H55.9696V8.38539C55.7945 8.63048 55.5538 8.82305 55.2474 8.96311C54.9498 9.10316 54.6347 9.17318 54.3021 9.17318C53.7681 9.17318 53.3086 8.98499 52.9234 8.6086C52.5383 8.23221 52.3457 7.72014 52.3457 7.0724C52.3457 6.4159 52.5339 5.90821 52.9103 5.54933C53.2955 5.19044 53.7594 5.011 54.3021 5.011C54.6435 5.011 54.963 5.07665 55.2606 5.20795C55.5669 5.33925 55.8033 5.52307 55.9696 5.75941V4.93222C55.9696 4.59085 55.8645 4.32387 55.6545 4.1313C55.4531 3.92997 55.1687 3.82931 54.801 3.82931C54.2233 3.82931 53.7025 4.0569 53.2386 4.51207L52.6477 3.43541C53.2867 2.82268 54.1008 2.51632 55.0899 2.51632C55.8339 2.51632 56.4291 2.70014 56.8755 3.06778C57.3307 3.42666 57.5583 3.99125 57.5583 4.76153V9.01562ZM54.9061 8.10966C55.3962 8.10966 55.7507 7.90834 55.9696 7.50569V6.69163C55.742 6.28023 55.3875 6.07453 54.9061 6.07453C54.6084 6.07453 54.3677 6.17081 54.1839 6.36338C54.0088 6.5472 53.9213 6.79229 53.9213 7.09866C53.9213 7.40502 54.0088 7.65011 54.1839 7.83393C54.3677 8.01775 54.6084 8.10966 54.9061 8.10966ZM60.7162 7.22996C60.9263 7.59759 61.2327 7.78141 61.6353 7.78141C62.038 7.78141 62.3444 7.59759 62.5544 7.22996C62.7733 6.85357 62.8827 6.38527 62.8827 5.82506C62.8827 5.28235 62.7733 4.82718 62.5544 4.45955C62.3444 4.09191 62.038 3.90809 61.6353 3.90809C61.2327 3.90809 60.9263 4.09191 60.7162 4.45955C60.5062 4.82718 60.4011 5.28235 60.4011 5.82506C60.4011 6.38527 60.5062 6.85357 60.7162 7.22996ZM61.6353 9.17318C60.7162 9.17318 60.0072 8.84056 59.5083 8.17531C59.0181 7.50131 58.773 6.62598 58.773 5.54933C58.773 3.94748 58.9831 2.80518 59.4033 2.12242C59.8322 1.43091 60.5762 0.993251 61.6353 0.809432C62.3444 0.686886 62.6989 0.503067 62.6989 0.257975H64.3007C64.3007 1.15956 63.5611 1.7329 62.0818 1.97799C60.9176 2.17057 60.2698 2.65637 60.1385 3.43541C60.5587 2.82268 61.1627 2.51632 61.9505 2.51632C62.747 2.51632 63.3729 2.83581 63.828 3.4748C64.2832 4.11379 64.5108 4.89721 64.5108 5.82506C64.5108 6.76166 64.2569 7.55383 63.7493 8.20157C63.2503 8.84931 62.5457 9.17318 61.6353 9.17318ZM68.2931 9.17318C67.4003 9.17318 66.7 8.85369 66.1923 8.2147C65.6847 7.56696 65.4308 6.77479 65.4308 5.83819C65.4308 4.90159 65.6847 4.11379 66.1923 3.4748C66.7 2.83581 67.4003 2.51632 68.2931 2.51632C69.1947 2.51632 69.8994 2.83581 70.407 3.4748C70.9147 4.11379 71.1686 4.90159 71.1686 5.83819C71.1686 6.78354 70.9147 7.57571 70.407 8.2147C69.8994 8.85369 69.1947 9.17318 68.2931 9.17318ZM68.2931 7.78141C68.7045 7.78141 69.0153 7.59759 69.2254 7.22996C69.4354 6.86232 69.5405 6.3984 69.5405 5.83819C69.5405 5.27798 69.4354 4.81843 69.2254 4.45955C69.0153 4.09191 68.7045 3.90809 68.2931 3.90809C67.8905 3.90809 67.5841 4.09191 67.374 4.45955C67.1727 4.82718 67.072 5.28673 67.072 5.83819C67.072 6.3984 67.1727 6.86232 67.374 7.22996C67.5841 7.59759 67.8905 7.78141 68.2931 7.78141ZM74.8859 9.01562H73.2972V4.05252H71.9054V2.67388H76.2908V4.05252H74.8859V9.01562ZM77.1992 11.4972L77.4355 10.1054C77.5581 10.1667 77.6938 10.1973 77.8426 10.1973C78.1927 10.1973 78.4247 10.0441 78.5385 9.73777L78.7485 9.13379L76.6084 2.67388H78.289L79.5626 7.11179L80.8493 2.67388H82.53L80.0484 10.0923C79.8646 10.6525 79.6064 11.0376 79.2737 11.2477C78.9411 11.4665 78.5034 11.5803 77.9607 11.5891C77.6544 11.5891 77.4005 11.5585 77.1992 11.4972ZM10.1194 21.1732C9.22659 21.1732 8.55259 20.8887 8.09742 20.3197L8.84583 19.335C9.16095 19.7201 9.52858 19.9127 9.94874 19.9127C10.3164 19.9127 10.6227 19.7814 10.8678 19.5188C11.1129 19.2475 11.2749 18.8842 11.3536 18.429H9.17407V17.208H11.3536C11.2749 16.7615 11.1129 16.4114 10.8678 16.1576C10.6227 15.9037 10.3164 15.7768 9.94874 15.7768C9.51983 15.7768 9.15219 15.9694 8.84583 16.3545L8.09742 15.3698C8.55259 14.8008 9.22659 14.5163 10.1194 14.5163C10.9772 14.5163 11.6731 14.8271 12.2071 15.4485C12.741 16.07 13.008 16.8666 13.008 17.8382C13.008 18.8186 12.741 19.6195 12.2071 20.241C11.6731 20.8624 10.9772 21.1732 10.1194 21.1732ZM13.7419 21.1732V19.8471C13.9958 19.8471 14.1927 19.7158 14.3328 19.4532C14.4816 19.1818 14.5954 18.6741 14.6742 17.9301L14.9762 14.6739H19.3747V21.0156H17.786V16.0525H16.4073L16.2366 18.0877C16.1403 19.2081 15.8909 20.0046 15.4882 20.4773C15.0943 20.9412 14.5122 21.1732 13.7419 21.1732ZM23.55 21.1732C22.6572 21.1732 21.9394 20.8668 21.3967 20.2541C20.8627 19.6414 20.5958 18.8361 20.5958 17.8382C20.5958 16.8928 20.854 16.105 21.3704 15.4748C21.8869 14.8358 22.574 14.5163 23.4318 14.5163C24.2896 14.5163 24.9593 14.8314 25.4407 15.4617C25.9221 16.0832 26.1628 16.8972 26.1628 17.9038V18.3503H22.1845C22.2195 18.8054 22.3683 19.1774 22.6309 19.4663C22.8935 19.7552 23.2568 19.8996 23.7207 19.8996C23.957 19.8996 24.2021 19.8471 24.456 19.742C24.7098 19.6282 24.9243 19.475 25.0993 19.2825L25.8215 20.2278C25.2437 20.8581 24.4866 21.1732 23.55 21.1732ZM24.6398 17.2736C24.6223 16.8797 24.5172 16.5339 24.3247 16.2363C24.1321 15.9387 23.8257 15.7899 23.4056 15.7899C23.0029 15.7899 22.7009 15.9387 22.4996 16.2363C22.307 16.5339 22.202 16.8797 22.1845 17.2736H24.6398ZM32.7477 21.0156H30.8964L29.5834 18.5341L28.9138 19.4663V21.0156H27.3382V14.6739H28.9138V17.5493L30.8439 14.6739H32.682L30.6732 17.5231L32.7477 21.0156ZM36.1188 21.0156H34.5301V16.0525H33.1383V14.6739H37.5237V16.0525H36.1188V21.0156ZM41.754 21.1732C41.0712 21.1732 40.5373 20.8537 40.1521 20.2147V23.4315H38.5766V14.6739H40.1521V15.4748C40.5548 14.8358 41.0887 14.5163 41.754 14.5163C42.4718 14.5163 43.0407 14.8139 43.4609 15.4092C43.8898 15.9956 44.1042 16.8053 44.1042 17.8382C44.1042 18.8623 43.8898 19.6764 43.4609 20.2804C43.0407 20.8756 42.4718 21.1732 41.754 21.1732ZM41.2419 19.7814C41.6358 19.7814 41.9378 19.602 42.1479 19.2431C42.3667 18.8842 42.4761 18.4159 42.4761 17.8382C42.4761 17.2692 42.3667 16.8053 42.1479 16.4464C41.9378 16.0875 41.6358 15.9081 41.2419 15.9081C41.0318 15.9081 40.8218 15.9781 40.6117 16.1182C40.4104 16.2582 40.2572 16.4333 40.1521 16.6434V19.033C40.2572 19.2431 40.4104 19.4225 40.6117 19.5713C40.8218 19.7114 41.0318 19.7814 41.2419 19.7814ZM47.8453 21.1732C46.9525 21.1732 46.2523 20.8537 45.7446 20.2147C45.2369 19.567 44.983 18.7748 44.983 17.8382C44.983 16.9016 45.2369 16.1138 45.7446 15.4748C46.2523 14.8358 46.9525 14.5163 47.8453 14.5163C48.7469 14.5163 49.4516 14.8358 49.9593 15.4748C50.467 16.1138 50.7208 16.9016 50.7208 17.8382C50.7208 18.7835 50.467 19.5757 49.9593 20.2147C49.4516 20.8537 48.7469 21.1732 47.8453 21.1732ZM47.8453 19.7814C48.2568 19.7814 48.5675 19.5976 48.7776 19.23C48.9877 18.8623 49.0927 18.3984 49.0927 17.8382C49.0927 17.278 48.9877 16.8184 48.7776 16.4595C48.5675 16.0919 48.2568 15.9081 47.8453 15.9081C47.4427 15.9081 47.1363 16.0919 46.9263 16.4595C46.7249 16.8272 46.6243 17.2867 46.6243 17.8382C46.6243 18.3984 46.7249 18.8623 46.9263 19.23C47.1363 19.5976 47.4427 19.7814 47.8453 19.7814ZM58.5872 21.0156H57.0247V17.1686L55.6067 21.0156H54.9239L53.519 17.1686V21.0156H51.9434V14.6739H53.9654L55.2653 18.2058L56.5783 14.6739H58.5872V21.0156ZM62.6739 21.1732C61.7811 21.1732 61.0808 20.8537 60.5732 20.2147C60.0655 19.567 59.8116 18.7748 59.8116 17.8382C59.8116 16.9016 60.0655 16.1138 60.5732 15.4748C61.0808 14.8358 61.7811 14.5163 62.6739 14.5163C63.5755 14.5163 64.2802 14.8358 64.7879 15.4748C65.2955 16.1138 65.5494 16.9016 65.5494 17.8382C65.5494 18.7835 65.2955 19.5757 64.7879 20.2147C64.2802 20.8537 63.5755 21.1732 62.6739 21.1732ZM62.6739 19.7814C63.0853 19.7814 63.3961 19.5976 63.6062 19.23C63.8162 18.8623 63.9213 18.3984 63.9213 17.8382C63.9213 17.278 63.8162 16.8184 63.6062 16.4595C63.3961 16.0919 63.0853 15.9081 62.6739 15.9081C62.2713 15.9081 61.9649 16.0919 61.7548 16.4595C61.5535 16.8272 61.4529 17.2867 61.4529 17.8382C61.4529 18.3984 61.5535 18.8623 61.7548 19.23C61.9649 19.5976 62.2713 19.7814 62.6739 19.7814ZM68.3476 21.0156H66.772V14.6739H68.3476V17.0373H70.3302V14.6739H71.9189V21.0156H70.3302V18.4159H68.3476V21.0156ZM75.9629 21.0156H74.3742V16.0525H72.9825V14.6739H77.3678V16.0525H75.9629V21.0156ZM83.2919 21.0156H81.7032V20.3854C81.5281 20.6305 81.2874 20.8231 80.981 20.9631C80.6834 21.1032 80.3683 21.1732 80.0357 21.1732C79.5017 21.1732 79.0422 20.985 78.657 20.6086C78.2719 20.2322 78.0793 19.7201 78.0793 19.0724C78.0793 18.4159 78.2675 17.9082 78.6439 17.5493C79.0291 17.1904 79.493 17.011 80.0357 17.011C80.3771 17.011 80.6966 17.0767 80.9942 17.208C81.3005 17.3393 81.5369 17.5231 81.7032 17.7594V16.9322C81.7032 16.5908 81.5981 16.3239 81.3881 16.1313C81.1867 15.93 80.9023 15.8293 80.5346 15.8293C79.9569 15.8293 79.4361 16.0569 78.9722 16.5121L78.3813 15.4354C79.0203 14.8227 79.8344 14.5163 80.8235 14.5163C81.5675 14.5163 82.1627 14.7001 82.6091 15.0678C83.0643 15.4267 83.2919 15.9912 83.2919 16.7615V21.0156ZM80.6397 20.1097C81.1298 20.1097 81.4843 19.9083 81.7032 19.5057V18.6916C81.4756 18.2802 81.1211 18.0745 80.6397 18.0745C80.342 18.0745 80.1013 18.1708 79.9175 18.3634C79.7424 18.5472 79.6549 18.7923 79.6549 19.0987C79.6549 19.405 79.7424 19.6501 79.9175 19.8339C80.1013 20.0178 80.342 20.1097 80.6397 20.1097ZM86.0166 21.0156H84.1652L86.2398 17.5231L84.2309 14.6739H86.0691L87.5659 16.906V14.6739H89.1415V16.9322L90.6514 14.6739H92.4765L90.4807 17.5231L92.5553 21.0156H90.7039L89.3909 18.5341L89.1415 18.8886V21.0156H87.5659V18.8623L87.3296 18.5341L86.0166 21.0156ZM95.0044 21.0156H93.4288V14.6739H95.0044V17.0373H96.987V14.6739H98.5757V21.0156H96.987V18.4159H95.0044V21.0156ZM101.648 21.0156H100.125V14.6739H101.701V18.2452L103.657 14.6739H105.272V21.0156H103.683V17.2999L101.648 21.0156ZM112.231 21.0156H110.38L109.067 18.5341L108.397 19.4663V21.0156H106.821V14.6739H108.397V17.5493L110.327 14.6739H112.165L110.156 17.5231L112.231 21.0156ZM115.526 21.1732C114.633 21.1732 113.933 20.8537 113.425 20.2147C112.917 19.567 112.664 18.7748 112.664 17.8382C112.664 16.9016 112.917 16.1138 113.425 15.4748C113.933 14.8358 114.633 14.5163 115.526 14.5163C116.428 14.5163 117.132 14.8358 117.64 15.4748C118.148 16.1138 118.401 16.9016 118.401 17.8382C118.401 18.7835 118.148 19.5757 117.64 20.2147C117.132 20.8537 116.428 21.1732 115.526 21.1732ZM115.526 19.7814C115.937 19.7814 116.248 19.5976 116.458 19.23C116.668 18.8623 116.773 18.3984 116.773 17.8382C116.773 17.278 116.668 16.8184 116.458 16.4595C116.248 16.0919 115.937 15.9081 115.526 15.9081C115.123 15.9081 114.817 16.0919 114.607 16.4595C114.406 16.8272 114.305 17.2867 114.305 17.8382C114.305 18.3984 114.406 18.8623 114.607 19.23C114.817 19.5976 115.123 19.7814 115.526 19.7814ZM126.268 21.0156H124.705V17.1686L123.287 21.0156H122.604L121.2 17.1686V21.0156H119.624V14.6739H121.646L122.946 18.2058L124.259 14.6739H126.268V21.0156ZM10.1457 33.0156H8.5701V26.6739H10.1457V29.0373H12.1283V26.6739H13.717V33.0156H12.1283V30.4159H10.1457V33.0156ZM20.1375 33.0156H18.5488V32.3854C18.3738 32.6305 18.133 32.8231 17.8267 32.9631C17.5291 33.1032 17.214 33.1732 16.8813 33.1732C16.3474 33.1732 15.8878 32.985 15.5027 32.6086C15.1175 32.2322 14.925 31.7201 14.925 31.0724C14.925 30.4159 15.1132 29.9082 15.4896 29.5493C15.8747 29.1904 16.3386 29.011 16.8813 29.011C17.2227 29.011 17.5422 29.0767 17.8398 29.208C18.1462 29.3393 18.3825 29.5231 18.5488 29.7594V28.9322C18.5488 28.5908 18.4438 28.3239 18.2337 28.1313C18.0324 27.93 17.7479 27.8293 17.3803 27.8293C16.8026 27.8293 16.2817 28.0569 15.8178 28.5121L15.227 27.4354C15.866 26.8227 16.68 26.5163 17.6691 26.5163C18.4132 26.5163 19.0084 26.7001 19.4548 27.0678C19.91 27.4267 20.1375 27.9912 20.1375 28.7615V33.0156ZM17.4853 32.1097C17.9755 32.1097 18.33 31.9083 18.5488 31.5057V30.6916C18.3212 30.2802 17.9667 30.0745 17.4853 30.0745C17.1877 30.0745 16.947 30.1708 16.7632 30.3634C16.5881 30.5472 16.5006 30.7923 16.5006 31.0987C16.5006 31.405 16.5881 31.6501 16.7632 31.8339C16.947 32.0178 17.1877 32.1097 17.4853 32.1097ZM29.7155 33.0156H28.1399V28.8141C28.1399 28.2101 27.8598 27.9081 27.2996 27.9081C27.0633 27.9081 26.8444 27.9869 26.6431 28.1444C26.4418 28.2932 26.2798 28.4771 26.1573 28.6959V33.0156H24.5686V24.258H26.1573V27.5011C26.3324 27.2297 26.5862 26.9977 26.9188 26.8052C27.2602 26.6126 27.6235 26.5163 28.0086 26.5163C29.1465 26.5163 29.7155 27.0853 29.7155 28.2232V33.0156ZM36.4118 33.0156H34.8362V28.8141C34.8362 28.2101 34.5561 27.9081 33.9959 27.9081C33.7595 27.9081 33.5407 27.9869 33.3394 28.1444C33.138 28.2932 32.9761 28.4771 32.8536 28.6959V33.0156H31.2648V24.258H32.8536V27.5011C33.0286 27.2297 33.2825 26.9977 33.6151 26.8052C33.9565 26.6126 34.3197 26.5163 34.7049 26.5163C35.8428 26.5163 36.4118 27.0853 36.4118 28.2232V33.0156ZM39.6155 32.8712C39.4229 33.0638 39.1866 33.1601 38.9064 33.1601C38.6263 33.1601 38.3856 33.0594 38.1843 32.8581C37.983 32.6567 37.8823 32.4204 37.8823 32.1491C37.8823 31.8689 37.983 31.6282 38.1843 31.4269C38.3856 31.2256 38.6263 31.1249 38.9064 31.1249C39.1778 31.1249 39.4141 31.2256 39.6155 31.4269C39.8168 31.6282 39.9174 31.8689 39.9174 32.1491C39.9174 32.4292 39.8168 32.6699 39.6155 32.8712ZM42.9761 33.0156H41.4005V26.6739H42.9761V27.5405C43.1599 27.2516 43.4094 27.0109 43.7245 26.8183C44.0484 26.617 44.3766 26.5163 44.7093 26.5163V28.0656C44.6042 28.0394 44.4773 28.0263 44.3285 28.0263C44.0746 28.0263 43.8164 28.1007 43.5538 28.2495C43.3 28.3895 43.1074 28.569 42.9761 28.7878V33.0156ZM50.8713 33.0156H49.2957V32.2147C49.1119 32.4861 48.8536 32.7136 48.521 32.8975C48.1884 33.0813 47.8251 33.1732 47.4312 33.1732C46.3021 33.1732 45.7375 32.6042 45.7375 31.4663V26.6739H47.3131V30.8623C47.3131 31.475 47.5932 31.7814 48.1534 31.7814C48.6261 31.7814 49.0068 31.5232 49.2957 31.0067V26.6739H50.8713V33.0156Z" fill="white"/>
  <path d="M5.24446 9.06967H3.89208L2.25085 6.70628L3.89208 4.38229H5.24446L3.60323 6.70628L5.24446 9.06967ZM3.02551 9.06967H1.68626L0.0450203 6.70628L1.68626 4.38229H3.02551L1.38427 6.70628L3.02551 9.06967Z" fill="white"/>
  <path d="M57.0599 31.0749L55.4187 33.4383H54.0794L55.7207 31.0749L54.0794 28.7509H55.4187L57.0599 31.0749ZM59.2789 31.0749L57.6376 33.4383H56.2853L57.9265 31.0749L56.2853 28.7509H57.6376L59.2789 31.0749Z" fill="white"/>
  </svg>
  