<svg width="198" height="111" viewBox="0 0 198 111" fill="none" xmlns="http://www.w3.org/2000/svg">
  <path d="M13.4896 13.7638H9.99722L5.75891 7.66061L9.99722 1.65916H13.4896L9.25128 7.66061L13.4896 13.7638ZM7.75939 13.7638H4.30092L0.0626064 7.66061L4.30092 1.65916H7.75939L3.52107 7.66061L7.75939 13.7638Z" fill="white"/>
  <path d="M25.8549 16.8999H21.9218V0.523043H25.9906V9.74562L31.0426 0.523043H35.2131V16.8999H31.1104V7.30435L25.8549 16.8999ZM55.7944 0.523043H59.8632V13.3397H61.6941V21.0704H57.5915V16.8999H39.2141V0.523043H43.2829V13.3397H47.4873V0.523043H51.59V13.3397H55.7944V0.523043ZM68.2871 16.8999H64.354V0.523043H68.4227V9.74562L73.4748 0.523043H77.6453V16.8999H73.5426V7.30435L68.2871 16.8999ZM88.0885 16.8999H83.9858V4.08323H80.3917V0.523043H91.7165V4.08323H88.0885V16.8999ZM101.217 17.3068C98.9111 17.3068 97.0575 16.5156 95.6561 14.9333C94.2772 13.351 93.5878 11.2714 93.5878 8.69452C93.5878 6.25325 94.2546 4.21886 95.5882 2.59134C96.9219 0.941223 98.6963 0.116164 100.912 0.116164C103.127 0.116164 104.856 0.929921 106.099 2.55744C107.343 4.16234 107.964 6.26455 107.964 8.86405V10.0169H97.6904C97.7809 11.1923 98.1651 12.153 98.8433 12.8989C99.5214 13.6449 100.459 14.0178 101.658 14.0178C102.268 14.0178 102.901 13.8822 103.556 13.611C104.212 13.3171 104.766 12.9215 105.218 12.4242L107.083 14.8655C105.591 16.493 103.635 17.3068 101.217 17.3068ZM104.031 7.23654C103.986 6.21934 103.715 5.32647 103.217 4.55792C102.72 3.78937 101.929 3.4051 100.844 3.4051C99.804 3.4051 99.0241 3.78937 98.5042 4.55792C98.0069 5.32647 97.7357 6.21934 97.6904 7.23654H104.031ZM30.1272 48.3068C28.364 48.3068 26.9852 47.4817 25.9906 45.8316V54.1387H21.9218V31.523H25.9906V33.5913C27.0304 31.9412 28.4092 31.1162 30.1272 31.1162C31.9807 31.1162 33.45 31.8847 34.535 33.4218C35.6426 34.9363 36.1964 37.0272 36.1964 39.6945C36.1964 42.3392 35.6426 44.4414 34.535 46.0011C33.45 47.5382 31.9807 48.3068 30.1272 48.3068ZM28.8048 44.7127C29.822 44.7127 30.6018 44.2493 31.1444 43.3225C31.7095 42.3957 31.992 41.1864 31.992 39.6945C31.992 38.2252 31.7095 37.0272 31.1444 36.1004C30.6018 35.1736 29.822 34.7103 28.8048 34.7103C28.2623 34.7103 27.7198 34.8911 27.1773 35.2528C26.6574 35.6144 26.2618 36.0665 25.9906 36.609V42.78C26.2618 43.3225 26.6574 43.7859 27.1773 44.1702C27.7198 44.5319 28.2623 44.7127 28.8048 44.7127ZM51.8928 47.8999H47.7901V46.2724C47.338 46.9053 46.7164 47.4026 45.9252 47.7643C45.1567 48.1259 44.3429 48.3068 43.4839 48.3068C42.1051 48.3068 40.9184 47.8208 39.9238 46.8488C38.9292 45.8768 38.4319 44.5545 38.4319 42.8817C38.4319 41.1864 38.9179 39.8754 39.8899 38.9486C40.8844 38.0218 42.0825 37.5584 43.4839 37.5584C44.3655 37.5584 45.1906 37.7279 45.9591 38.067C46.7503 38.4061 47.3606 38.8808 47.7901 39.4911V37.355C47.7901 36.4734 47.5188 35.784 46.9763 35.2867C46.4564 34.7668 45.7218 34.5068 44.7724 34.5068C43.2805 34.5068 41.9355 35.0945 40.7375 36.27L39.2117 33.4896C40.8618 31.9073 42.964 31.1162 45.5183 31.1162C47.4397 31.1162 48.9768 31.5909 50.1296 32.5402C51.3051 33.467 51.8928 34.925 51.8928 36.9142V47.8999ZM45.0436 45.5604C46.3095 45.5604 47.225 45.0405 47.7901 44.0007V41.8984C47.2024 40.836 46.2869 40.3048 45.0436 40.3048C44.2751 40.3048 43.6535 40.5535 43.1788 41.0508C42.7267 41.5255 42.5007 42.1584 42.5007 42.9495C42.5007 43.7407 42.7267 44.3736 43.1788 44.8483C43.6535 45.323 44.2751 45.5604 45.0436 45.5604ZM60.0478 43.2886C60.5903 44.238 61.3815 44.7127 62.4213 44.7127C63.4611 44.7127 64.2522 44.238 64.7947 43.2886C65.3598 42.3166 65.6424 41.1073 65.6424 39.6606C65.6424 38.2591 65.3598 37.0837 64.7947 36.1343C64.2522 35.1849 63.4611 34.7103 62.4213 34.7103C61.3815 34.7103 60.5903 35.1849 60.0478 36.1343C59.5053 37.0837 59.2341 38.2591 59.2341 39.6606C59.2341 41.1073 59.5053 42.3166 60.0478 43.2886ZM62.4213 48.3068C60.0478 48.3068 58.2169 47.4478 56.9284 45.7299C55.6626 43.9893 55.0297 41.7289 55.0297 38.9486C55.0297 34.812 55.5722 31.8621 56.6572 30.099C57.7648 28.3132 59.6862 27.183 62.4213 26.7083C64.2522 26.3919 65.1677 25.9172 65.1677 25.2842H69.3043C69.3043 27.6125 67.3942 29.0931 63.5741 29.726C60.5677 30.2233 58.895 31.4778 58.5559 33.4896C59.6409 31.9073 61.2006 31.1162 63.235 31.1162C65.292 31.1162 66.9082 31.9412 68.0837 33.5913C69.2591 35.2415 69.8468 37.2646 69.8468 39.6606C69.8468 42.0793 69.1913 44.125 67.8802 45.7977C66.5918 47.4704 64.7721 48.3068 62.4213 48.3068ZM79.6143 48.3068C77.3086 48.3068 75.5003 47.4817 74.1892 45.8316C72.8782 44.1589 72.2227 42.1132 72.2227 39.6945C72.2227 37.2759 72.8782 35.2415 74.1892 33.5913C75.5003 31.9412 77.3086 31.1162 79.6143 31.1162C81.9425 31.1162 83.7622 31.9412 85.0732 33.5913C86.3843 35.2415 87.0398 37.2759 87.0398 39.6945C87.0398 42.1358 86.3843 44.1815 85.0732 45.8316C83.7622 47.4817 81.9425 48.3068 79.6143 48.3068ZM79.6143 44.7127C80.6767 44.7127 81.4791 44.238 82.0216 43.2886C82.5641 42.3392 82.8354 41.1412 82.8354 39.6945C82.8354 38.2478 82.5641 37.0611 82.0216 36.1343C81.4791 35.1849 80.6767 34.7103 79.6143 34.7103C78.5745 34.7103 77.7833 35.1849 77.2408 36.1343C76.7209 37.0837 76.461 38.2704 76.461 39.6945C76.461 41.1412 76.7209 42.3392 77.2408 43.2886C77.7833 44.238 78.5745 44.7127 79.6143 44.7127ZM96.6393 47.8999H92.5366V35.0832H88.9426V31.523H100.267V35.0832H96.6393V47.8999ZM102.613 54.3082L103.224 50.7141C103.54 50.8724 103.89 50.9515 104.275 50.9515C105.179 50.9515 105.778 50.5559 106.072 49.7648L106.614 48.2051L101.087 31.523H105.427L108.716 42.9835L112.039 31.523H116.379L109.971 50.6802C109.496 52.1269 108.829 53.1215 107.97 53.664C107.112 54.2291 105.981 54.523 104.58 54.5456C103.789 54.5456 103.133 54.4665 102.613 54.3082ZM39.0785 78.8999H35.0436V68.9653L31.3817 78.8999H29.6186L25.9906 68.9653V78.8999H21.9218V62.523H27.1434L30.5001 71.6439L33.8908 62.523H39.0785V78.8999ZM55.6675 78.8999H51.5648V77.2724C51.1127 77.9053 50.4911 78.4026 49.7 78.7643C48.9314 79.1259 48.1177 79.3068 47.2587 79.3068C45.8798 79.3068 44.6931 78.8208 43.6985 77.8488C42.7039 76.8768 42.2066 75.5545 42.2066 73.8817C42.2066 72.1864 42.6926 70.8754 43.6646 69.9486C44.6592 69.0218 45.8572 68.5584 47.2587 68.5584C48.1403 68.5584 48.9653 68.7279 49.7339 69.067C50.525 69.4061 51.1353 69.8808 51.5648 70.4911V68.355C51.5648 67.4734 51.2936 66.784 50.7511 66.2867C50.2312 65.7668 49.4965 65.5068 48.5471 65.5068C47.0553 65.5068 45.7103 66.0945 44.5123 67.27L42.9865 64.4896C44.6366 62.9073 46.7388 62.1162 49.2931 62.1162C51.2145 62.1162 52.7516 62.5909 53.9044 63.5402C55.0798 64.467 55.6675 65.925 55.6675 67.9142V78.8999ZM48.8184 76.5604C50.0842 76.5604 50.9997 76.0405 51.5648 75.0007V72.8984C50.9771 71.836 50.0616 71.3048 48.8184 71.3048C48.0499 71.3048 47.4282 71.5535 46.9535 72.0508C46.5015 72.5255 46.2754 73.1584 46.2754 73.9495C46.2754 74.7407 46.5015 75.3736 46.9535 75.8483C47.4282 76.323 48.0499 76.5604 48.8184 76.5604ZM76.2324 62.523H80.3012V78.8999H59.6521V62.523H63.7209V75.3397H67.9253V62.523H72.028V75.3397H76.2324V62.523ZM88.2284 78.8999H84.2952V62.523H88.364V71.7456L93.4161 62.523H97.5866V78.8999H93.4839V69.3044L88.2284 78.8999ZM105.656 78.8999H101.588V62.523H105.656V68.6262H110.776V62.523H114.879V78.8999H110.776V72.1864H105.656V78.8999ZM122.813 78.8999H118.88V62.523H122.949V71.7456L128.001 62.523H132.171V78.8999H128.069V69.3044L122.813 78.8999ZM142.818 79.3068C140.58 79.3068 138.772 78.5043 137.393 76.8994C136.014 75.2945 135.325 73.2262 135.325 70.6945C135.325 68.1854 136.014 66.1284 137.393 64.5235C138.772 62.9186 140.58 62.1162 142.818 62.1162C145.078 62.1162 146.819 62.8508 148.04 64.3201L146.005 67.1343C145.237 66.1849 144.321 65.7103 143.259 65.7103C142.106 65.7103 141.19 66.1849 140.512 67.1343C139.857 68.0611 139.529 69.2478 139.529 70.6945C139.529 72.1638 139.857 73.3731 140.512 74.3225C141.19 75.2493 142.106 75.7127 143.259 75.7127C144.321 75.7127 145.237 75.238 146.005 74.2886L148.04 77.1029C146.819 78.5721 145.078 79.3068 142.818 79.3068ZM157.225 78.8999H153.122V66.0832H149.528V62.523H160.853V66.0832H157.225V78.8999ZM170.116 79.3068C167.81 79.3068 166.002 78.4817 164.691 76.8316C163.38 75.1589 162.724 73.1132 162.724 70.6945C162.724 68.2759 163.38 66.2415 164.691 64.5913C166.002 62.9412 167.81 62.1162 170.116 62.1162C172.444 62.1162 174.264 62.9412 175.575 64.5913C176.886 66.2415 177.541 68.2759 177.541 70.6945C177.541 73.1358 176.886 75.1815 175.575 76.8316C174.264 78.4817 172.444 79.3068 170.116 79.3068ZM170.116 75.7127C171.178 75.7127 171.98 75.238 172.523 74.2886C173.065 73.3392 173.337 72.1412 173.337 70.6945C173.337 69.2478 173.065 68.0611 172.523 67.1343C171.98 66.1849 171.178 65.7103 170.116 65.7103C169.076 65.7103 168.285 66.1849 167.742 67.1343C167.222 68.0837 166.962 69.2704 166.962 70.6945C166.962 72.1412 167.222 73.3392 167.742 74.2886C168.285 75.238 169.076 75.7127 170.116 75.7127ZM197.855 78.8999H193.82V68.9653L190.158 78.8999H188.395L184.767 68.9653V78.8999H180.698V62.523H185.92L189.277 71.6439L192.667 62.523H197.855V78.8999ZM25.9906 109.9H21.9218V93.523H25.9906V99.6262H31.1104V93.523H35.2131V109.9H31.1104V103.186H25.9906V109.9ZM51.7934 109.9H47.6907V108.272C47.2387 108.905 46.617 109.403 45.8259 109.764C45.0573 110.126 44.2436 110.307 43.3846 110.307C42.0057 110.307 40.819 109.821 39.8244 108.849C38.8298 107.877 38.3325 106.554 38.3325 104.882C38.3325 103.186 38.8185 101.875 39.7905 100.949C40.7851 100.022 41.9831 99.5584 43.3846 99.5584C44.2662 99.5584 45.0912 99.7279 45.8598 100.067C46.6509 100.406 47.2613 100.881 47.6907 101.491V99.355C47.6907 98.4734 47.4195 97.784 46.877 97.2867C46.3571 96.7668 45.6224 96.5068 44.6731 96.5068C43.1812 96.5068 41.8362 97.0945 40.6382 98.27L39.1124 95.4896C40.7625 93.9073 42.8647 93.1162 45.419 93.1162C47.3404 93.1162 48.8775 93.5909 50.0303 94.5402C51.2057 95.467 51.7934 96.925 51.7934 98.9142V109.9ZM44.9443 107.56C46.2102 107.56 47.1256 107.04 47.6907 106.001V103.898C47.103 102.836 46.1876 102.305 44.9443 102.305C44.1758 102.305 43.5541 102.553 43.0795 103.051C42.6274 103.525 42.4013 104.158 42.4013 104.95C42.4013 105.741 42.6274 106.374 43.0795 106.848C43.5541 107.323 44.1758 107.56 44.9443 107.56ZM76.5275 109.9H72.4587V99.0498C72.4587 97.4901 71.7353 96.7103 70.2887 96.7103C69.6783 96.7103 69.1132 96.9137 68.5933 97.3206C68.0734 97.7048 67.6552 98.1795 67.3388 98.7446V109.9H63.2361V87.2842H67.3388V95.6592C67.7909 94.9584 68.4464 94.3594 69.3054 93.8621C70.1869 93.3648 71.125 93.1162 72.1196 93.1162C75.0582 93.1162 76.5275 94.5854 76.5275 97.524V109.9ZM93.8198 109.9H89.751V99.0498C89.751 97.4901 89.0277 96.7103 87.581 96.7103C86.9707 96.7103 86.4056 96.9137 85.8857 97.3206C85.3658 97.7048 84.9476 98.1795 84.6311 98.7446V109.9H80.5284V87.2842H84.6311V95.6592C85.0832 94.9584 85.7387 94.3594 86.5977 93.8621C87.4793 93.3648 88.4174 93.1162 89.4119 93.1162C92.3505 93.1162 93.8198 94.5854 93.8198 97.524V109.9ZM102.093 109.527C101.596 110.024 100.985 110.273 100.262 110.273C99.5387 110.273 98.9171 110.013 98.3972 109.493C97.8773 108.973 97.6173 108.363 97.6173 107.662C97.6173 106.939 97.8773 106.317 98.3972 105.797C98.9171 105.277 99.5387 105.017 100.262 105.017C100.963 105.017 101.573 105.277 102.093 105.797C102.613 106.317 102.873 106.939 102.873 107.662C102.873 108.385 102.613 109.007 102.093 109.527ZM110.771 109.9H106.703V93.523H110.771V95.7609C111.246 95.0149 111.89 94.3933 112.704 93.896C113.541 93.3761 114.388 93.1162 115.247 93.1162V97.1171C114.976 97.0493 114.648 97.0154 114.264 97.0154C113.608 97.0154 112.941 97.2076 112.263 97.5918C111.608 97.9535 111.111 98.4169 110.771 98.982V109.9ZM131.16 109.9H127.091V107.832C126.616 108.532 125.95 109.12 125.091 109.595C124.232 110.069 123.294 110.307 122.276 110.307C119.36 110.307 117.902 108.837 117.902 105.899V93.523H121.971V104.339C121.971 105.922 122.695 106.713 124.141 106.713C125.362 106.713 126.345 106.046 127.091 104.712V93.523H131.16V109.9Z" fill="white"/>
  <path d="M138.934 93.1395L142.427 93.1395L146.665 99.2427L142.427 105.244L138.934 105.244L143.173 99.2427L138.934 93.1395ZM144.665 93.1395L148.123 93.1395L152.361 99.2427L148.123 105.244L144.665 105.244L148.903 99.2427L144.665 93.1395Z" fill="white"/>
  </svg>
  