<svg width="190" height="52" viewBox="0 0 190 52" fill="none" xmlns="http://www.w3.org/2000/svg">
  <path d="M15.2017 13.563H12.9207V4.0654H15.2804V9.41397L18.2103 4.0654H20.629V13.563H18.2496V7.99818L15.2017 13.563ZM32.5649 4.0654H34.9246V11.4983H35.9864V15.9817H33.6071V13.563H22.9493V4.0654H25.309V11.4983H27.7473V4.0654H30.1266V11.4983H32.5649V4.0654ZM39.81 13.563H37.529V4.0654H39.8887V9.41397L42.8186 4.0654H45.2372V13.563H42.8579V7.99818L39.81 13.563ZM51.2937 13.563H48.9144V6.13011H46.83V4.0654H53.3977V6.13011H51.2937V13.563ZM58.9073 13.799C57.5701 13.799 56.4952 13.3402 55.6824 12.4225C54.8828 11.5049 54.4829 10.2988 54.4829 8.80439C54.4829 7.3886 54.8696 6.20876 55.6431 5.2649C56.4165 4.30792 57.4456 3.82944 58.7303 3.82944C60.015 3.82944 61.0179 4.30137 61.7389 5.24523C62.4599 6.17599 62.8204 7.39515 62.8204 8.90271V9.57128H56.8622C56.9147 10.253 57.1375 10.8101 57.5308 11.2427C57.9241 11.6753 58.4681 11.8916 59.1629 11.8916C59.5169 11.8916 59.8839 11.813 60.2641 11.6557C60.6443 11.4852 60.9654 11.2558 61.2276 10.9674L62.3091 12.3832C61.4439 13.3271 60.31 13.799 58.9073 13.799ZM60.5394 7.95885C60.5132 7.36893 60.3559 6.85112 60.0675 6.4054C59.7791 5.95969 59.3202 5.73683 58.691 5.73683C58.088 5.73683 57.6357 5.95969 57.3342 6.4054C57.0458 6.85112 56.8885 7.36893 56.8622 7.95885H60.5394ZM73.6646 13.799C72.642 13.799 71.8424 13.3205 71.2656 12.3636V17.1812H68.9059V4.0654H71.2656V5.2649C71.8686 4.30792 72.6683 3.82944 73.6646 3.82944C74.7395 3.82944 75.5916 4.27515 76.2209 5.16658C76.8632 6.0449 77.1844 7.2575 77.1844 8.80439C77.1844 10.3382 76.8632 11.5573 76.2209 12.4619C75.5916 13.3533 74.7395 13.799 73.6646 13.799ZM72.8977 11.7146C73.4876 11.7146 73.9399 11.4459 74.2545 10.9084C74.5822 10.3709 74.7461 9.6696 74.7461 8.80439C74.7461 7.95229 74.5822 7.2575 74.2545 6.72002C73.9399 6.18255 73.4876 5.91381 72.8977 5.91381C72.5831 5.91381 72.2684 6.01868 71.9538 6.22843C71.6523 6.43818 71.4229 6.70036 71.2656 7.01498V10.5938C71.4229 10.9084 71.6523 11.1772 71.9538 11.4C72.2684 11.6098 72.5831 11.7146 72.8977 11.7146ZM86.2874 13.563H83.9081V12.6192C83.6459 12.9862 83.2854 13.2746 82.8265 13.4844C82.3808 13.6941 81.9089 13.799 81.4107 13.799C80.6111 13.799 79.9228 13.5172 79.346 12.9535C78.7692 12.3898 78.4808 11.6229 78.4808 10.6528C78.4808 9.6696 78.7627 8.90927 79.3264 8.37179C79.9032 7.83431 80.598 7.56557 81.4107 7.56557C81.922 7.56557 82.4005 7.66389 82.8462 7.86053C83.305 8.05717 83.659 8.33246 83.9081 8.68641V7.44759C83.9081 6.93633 83.7507 6.53649 83.4361 6.24809C83.1346 5.94658 82.7086 5.79582 82.158 5.79582C81.2928 5.79582 80.5128 6.13666 79.818 6.81834L78.9331 5.20591C79.8901 4.28826 81.1092 3.82944 82.5906 3.82944C83.7049 3.82944 84.5963 4.10473 85.2649 4.65532C85.9465 5.1928 86.2874 6.03834 86.2874 7.19196V13.563ZM82.3153 12.2062C83.0494 12.2062 83.5803 11.9047 83.9081 11.3017V10.0825C83.5672 9.46641 83.0363 9.15834 82.3153 9.15834C81.8696 9.15834 81.5091 9.30255 81.2338 9.59095C80.9716 9.86624 80.8405 10.2333 80.8405 10.6921C80.8405 11.1509 80.9716 11.518 81.2338 11.7933C81.5091 12.0686 81.8696 12.2062 82.3153 12.2062ZM91.0168 10.8888C91.3315 11.4394 91.7903 11.7146 92.3933 11.7146C92.9963 11.7146 93.4552 11.4394 93.7698 10.8888C94.0975 10.3251 94.2614 9.62372 94.2614 8.78473C94.2614 7.97196 94.0975 7.29028 93.7698 6.73969C93.4552 6.1891 92.9963 5.91381 92.3933 5.91381C91.7903 5.91381 91.3315 6.1891 91.0168 6.73969C90.7022 7.29028 90.5449 7.97196 90.5449 8.78473C90.5449 9.62372 90.7022 10.3251 91.0168 10.8888ZM92.3933 13.799C91.0168 13.799 89.955 13.3009 89.2078 12.3046C88.4736 11.2952 88.1066 9.98423 88.1066 8.37179C88.1066 5.9728 88.4212 4.26204 89.0505 3.23952C89.6928 2.20389 90.8071 1.54843 92.3933 1.27313C93.4552 1.0896 93.9861 0.81431 93.9861 0.447251H96.3851C96.3851 1.7975 95.2773 2.65616 93.0619 3.02322C91.3184 3.31162 90.3483 4.03918 90.1516 5.20591C90.7809 4.28826 91.6854 3.82944 92.8652 3.82944C94.0582 3.82944 94.9955 4.30792 95.6772 5.2649C96.3589 6.22187 96.6997 7.39515 96.6997 8.78473C96.6997 10.1874 96.3195 11.3738 95.5592 12.3439C94.812 13.314 93.7567 13.799 92.3933 13.799ZM102.364 13.799C101.027 13.799 99.9784 13.3205 99.2181 12.3636C98.4577 11.3935 98.0776 10.2071 98.0776 8.80439C98.0776 7.40171 98.4577 6.22187 99.2181 5.2649C99.9784 4.30792 101.027 3.82944 102.364 3.82944C103.715 3.82944 104.77 4.30792 105.53 5.2649C106.29 6.22187 106.671 7.40171 106.671 8.80439C106.671 10.2202 106.29 11.4066 105.53 12.3636C104.77 13.3205 103.715 13.799 102.364 13.799ZM102.364 11.7146C102.98 11.7146 103.446 11.4394 103.76 10.8888C104.075 10.3382 104.232 9.64339 104.232 8.80439C104.232 7.9654 104.075 7.27717 103.76 6.73969C103.446 6.1891 102.98 5.91381 102.364 5.91381C101.761 5.91381 101.302 6.1891 100.988 6.73969C100.686 7.29028 100.536 7.97851 100.536 8.80439C100.536 9.64339 100.686 10.3382 100.988 10.8888C101.302 11.4394 101.761 11.7146 102.364 11.7146ZM112.238 13.563H109.859V6.13011H107.774V4.0654H114.342V6.13011H112.238V13.563ZM115.702 17.2795L116.056 15.1952C116.24 15.2869 116.443 15.3328 116.666 15.3328C117.19 15.3328 117.538 15.1034 117.708 14.6446L118.023 13.74L114.817 4.0654H117.334L119.242 10.7118L121.169 4.0654H123.686L119.969 15.1755C119.694 16.0145 119.307 16.5913 118.809 16.9059C118.311 17.2336 117.656 17.4041 116.843 17.4172C116.384 17.4172 116.004 17.3713 115.702 17.2795ZM15.2411 32.799C13.9039 32.799 12.8945 32.373 12.2128 31.5209L13.3337 30.0461C13.8056 30.6229 14.3562 30.9113 14.9854 30.9113C15.536 30.9113 15.9949 30.7146 16.3619 30.3214C16.729 29.915 16.9715 29.3709 17.0895 28.6893H13.8253V26.8605H17.0895C16.9715 26.192 16.729 25.6676 16.3619 25.2874C15.9949 24.9073 15.536 24.7172 14.9854 24.7172C14.3431 24.7172 13.7925 25.0056 13.3337 25.5824L12.2128 24.1076C12.8945 23.2555 13.9039 22.8294 15.2411 22.8294C16.5258 22.8294 17.568 23.2948 18.3676 24.2256C19.1673 25.1563 19.5671 26.3493 19.5671 27.8044C19.5671 29.2726 19.1673 30.4721 18.3676 31.4029C17.568 32.3336 16.5258 32.799 15.2411 32.799ZM20.6663 32.799V30.813C21.0465 30.813 21.3414 30.6163 21.5512 30.223C21.774 29.8167 21.9445 29.0563 22.0624 27.942L22.5147 23.0654H29.1021V32.563H26.7228V25.1301H24.6581L24.4024 28.178C24.2582 29.856 23.8846 31.0489 23.2816 31.7568C22.6917 32.4516 21.8199 32.799 20.6663 32.799ZM35.3552 32.799C34.0181 32.799 32.9431 32.3402 32.1303 31.4225C31.3307 30.5049 30.9308 29.2988 30.9308 27.8044C30.9308 26.3886 31.3176 25.2088 32.091 24.2649C32.8645 23.3079 33.8935 22.8294 35.1782 22.8294C36.4629 22.8294 37.4658 23.3014 38.1868 24.2452C38.9078 25.176 39.2683 26.3952 39.2683 27.9027V28.5713H33.3102C33.3626 29.253 33.5855 29.8101 33.9787 30.2427C34.372 30.6753 34.916 30.8916 35.6108 30.8916C35.9648 30.8916 36.3318 30.813 36.712 30.6557C37.0922 30.4852 37.4134 30.2558 37.6755 29.9674L38.7571 31.3832C37.8918 32.3271 36.7579 32.799 35.3552 32.799ZM36.9873 26.9588C36.9611 26.3689 36.8038 25.8511 36.5154 25.4054C36.227 24.9597 35.7681 24.7368 35.1389 24.7368C34.5359 24.7368 34.0836 24.9597 33.7821 25.4054C33.4937 25.8511 33.3364 26.3689 33.3102 26.9588H36.9873ZM49.1301 32.563H46.3574L44.3911 28.8466L43.3882 30.2427V32.563H41.0285V23.0654H43.3882V27.3718L46.2788 23.0654H49.0317L46.0232 27.3325L49.1301 32.563ZM54.1787 32.563H51.7994V25.1301H49.715V23.0654H56.2828V25.1301H54.1787V32.563ZM62.6182 32.799C61.5957 32.799 60.796 32.3205 60.2192 31.3636V36.1812H57.8596V23.0654H60.2192V24.2649C60.8223 23.3079 61.6219 22.8294 62.6182 22.8294C63.6932 22.8294 64.5453 23.2752 65.1745 24.1666C65.8169 25.0449 66.1381 26.2575 66.1381 27.8044C66.1381 29.3382 65.8169 30.5573 65.1745 31.4619C64.5453 32.3533 63.6932 32.799 62.6182 32.799ZM61.8513 30.7146C62.4413 30.7146 62.8935 30.4459 63.2081 29.9084C63.5359 29.3709 63.6997 28.6696 63.6997 27.8044C63.6997 26.9523 63.5359 26.2575 63.2081 25.72C62.8935 25.1825 62.4413 24.9138 61.8513 24.9138C61.5367 24.9138 61.2221 25.0187 60.9075 25.2284C60.606 25.4382 60.3766 25.7004 60.2192 26.015V29.5938C60.3766 29.9084 60.606 30.1772 60.9075 30.4C61.2221 30.6098 61.5367 30.7146 61.8513 30.7146ZM71.7409 32.799C70.4037 32.799 69.355 32.3205 68.5947 31.3636C67.8343 30.3935 67.4542 29.2071 67.4542 27.8044C67.4542 26.4017 67.8343 25.2219 68.5947 24.2649C69.355 23.3079 70.4037 22.8294 71.7409 22.8294C73.0911 22.8294 74.1464 23.3079 74.9068 24.2649C75.6671 25.2219 76.0473 26.4017 76.0473 27.8044C76.0473 29.2202 75.6671 30.4066 74.9068 31.3636C74.1464 32.3205 73.0911 32.799 71.7409 32.799ZM71.7409 30.7146C72.357 30.7146 72.8224 30.4394 73.137 29.8888C73.4516 29.3382 73.6089 28.6434 73.6089 27.8044C73.6089 26.9654 73.4516 26.2772 73.137 25.7397C72.8224 25.1891 72.357 24.9138 71.7409 24.9138C71.1379 24.9138 70.679 25.1891 70.3644 25.7397C70.0629 26.2903 69.9121 26.9785 69.9121 27.8044C69.9121 28.6434 70.0629 29.3382 70.3644 29.8888C70.679 30.4394 71.1379 30.7146 71.7409 30.7146ZM87.8282 32.563H85.4882V26.8015L83.3645 32.563H82.342L80.238 26.8015V32.563H77.8783V23.0654H80.9065L82.8533 28.355L84.8197 23.0654H87.8282V32.563ZM93.9488 32.799C92.6116 32.799 91.5629 32.3205 90.8025 31.3636C90.0422 30.3935 89.662 29.2071 89.662 27.8044C89.662 26.4017 90.0422 25.2219 90.8025 24.2649C91.5629 23.3079 92.6116 22.8294 93.9488 22.8294C95.299 22.8294 96.3543 23.3079 97.1146 24.2649C97.875 25.2219 98.2551 26.4017 98.2551 27.8044C98.2551 29.2202 97.875 30.4066 97.1146 31.3636C96.3543 32.3205 95.299 32.799 93.9488 32.799ZM93.9488 30.7146C94.5649 30.7146 95.0303 30.4394 95.3449 29.8888C95.6595 29.3382 95.8168 28.6434 95.8168 27.8044C95.8168 26.9654 95.6595 26.2772 95.3449 25.7397C95.0303 25.1891 94.5649 24.9138 93.9488 24.9138C93.3457 24.9138 92.8869 25.1891 92.5723 25.7397C92.2708 26.2903 92.12 26.9785 92.12 27.8044C92.12 28.6434 92.2708 29.3382 92.5723 29.8888C92.8869 30.4394 93.3457 30.7146 93.9488 30.7146ZM102.446 32.563H100.086V23.0654H102.446V26.6049H105.415V23.0654H107.794V32.563H105.415V28.6696H102.446V32.563ZM113.851 32.563H111.472V25.1301H109.387V23.0654H115.955V25.1301H113.851V32.563ZM124.827 32.563H122.448V31.6192C122.186 31.9862 121.825 32.2746 121.366 32.4844C120.92 32.6941 120.449 32.799 119.95 32.799C119.151 32.799 118.462 32.5172 117.886 31.9535C117.309 31.3898 117.02 30.6229 117.02 29.6528C117.02 28.6696 117.302 27.9093 117.866 27.3718C118.443 26.8343 119.138 26.5656 119.95 26.5656C120.462 26.5656 120.94 26.6639 121.386 26.8605C121.845 27.0572 122.199 27.3325 122.448 27.6864V26.4476C122.448 25.9363 122.29 25.5365 121.976 25.2481C121.674 24.9466 121.248 24.7958 120.698 24.7958C119.832 24.7958 119.052 25.1367 118.358 25.8183L117.473 24.2059C118.43 23.2883 119.649 22.8294 121.13 22.8294C122.244 22.8294 123.136 23.1047 123.804 23.6553C124.486 24.1928 124.827 25.0383 124.827 26.192V32.563ZM120.855 31.2062C121.589 31.2062 122.12 30.9047 122.448 30.3017V29.0825C122.107 28.4664 121.576 28.1583 120.855 28.1583C120.409 28.1583 120.049 28.3025 119.773 28.5909C119.511 28.8662 119.38 29.2333 119.38 29.6921C119.38 30.1509 119.511 30.518 119.773 30.7933C120.049 31.0686 120.409 31.2062 120.855 31.2062ZM128.908 32.563H126.135L129.242 27.3325L126.233 23.0654H128.986L131.228 26.4083V23.0654H133.588V26.4476L135.849 23.0654H138.582L135.593 27.3325L138.7 32.563H135.928L133.961 28.8466L133.588 29.3775V32.563H131.228V29.3382L130.874 28.8466L128.908 32.563ZM142.368 32.563H140.008V23.0654H142.368V26.6049H145.337V23.0654H147.717V32.563H145.337V28.6696H142.368V32.563ZM152.318 32.563H150.037V23.0654H152.397V28.414L155.327 23.0654H157.745V32.563H155.366V26.9982L152.318 32.563ZM168.167 32.563H165.394L163.428 28.8466L162.425 30.2427V32.563H160.066V23.0654H162.425V27.3718L165.316 23.0654H168.069L165.06 27.3325L168.167 32.563ZM173.102 32.799C171.765 32.799 170.716 32.3205 169.956 31.3636C169.195 30.3935 168.815 29.2071 168.815 27.8044C168.815 26.4017 169.195 25.2219 169.956 24.2649C170.716 23.3079 171.765 22.8294 173.102 22.8294C174.452 22.8294 175.508 23.3079 176.268 24.2649C177.028 25.2219 177.408 26.4017 177.408 27.8044C177.408 29.2202 177.028 30.4066 176.268 31.3636C175.508 32.3205 174.452 32.799 173.102 32.799ZM173.102 30.7146C173.718 30.7146 174.183 30.4394 174.498 29.8888C174.813 29.3382 174.97 28.6434 174.97 27.8044C174.97 26.9654 174.813 26.2772 174.498 25.7397C174.183 25.1891 173.718 24.9138 173.102 24.9138C172.499 24.9138 172.04 25.1891 171.725 25.7397C171.424 26.2903 171.273 26.9785 171.273 27.8044C171.273 28.6434 171.424 29.3382 171.725 29.8888C172.04 30.4394 172.499 30.7146 173.102 30.7146ZM189.189 32.563H186.849V26.8015L184.726 32.563H183.703L181.599 26.8015V32.563H179.239V23.0654H182.268L184.214 28.355L186.181 23.0654H189.189V32.563ZM15.2804 51.563H12.9207V42.0654H15.2804V45.6049H18.2496V42.0654H20.629V51.563H18.2496V47.6696H15.2804V51.563ZM30.2446 51.563H27.8653V50.6192C27.6031 50.9862 27.2426 51.2746 26.7838 51.4844C26.338 51.6941 25.8661 51.799 25.368 51.799C24.5683 51.799 23.8801 51.5172 23.3033 50.9535C22.7264 50.3898 22.438 49.6229 22.438 48.6528C22.438 47.6696 22.7199 46.9093 23.2836 46.3718C23.8604 45.8343 24.5552 45.5656 25.368 45.5656C25.8792 45.5656 26.3577 45.6639 26.8034 45.8605C27.2622 46.0572 27.6162 46.3325 27.8653 46.6864V45.4476C27.8653 44.9363 27.708 44.5365 27.3933 44.2481C27.0918 43.9466 26.6658 43.7958 26.1152 43.7958C25.25 43.7958 24.47 44.1367 23.7752 44.8183L22.8903 43.2059C23.8473 42.2883 25.0664 41.8294 26.5478 41.8294C27.6621 41.8294 28.5535 42.1047 29.2221 42.6553C29.9038 43.1928 30.2446 44.0383 30.2446 45.192V51.563ZM26.2725 50.2062C27.0066 50.2062 27.5375 49.9047 27.8653 49.3017V48.0825C27.5244 47.4664 26.9935 47.1583 26.2725 47.1583C25.8268 47.1583 25.4663 47.3025 25.191 47.5909C24.9288 47.8662 24.7977 48.2333 24.7977 48.6921C24.7977 49.1509 24.9288 49.518 25.191 49.7933C25.4663 50.0686 25.8268 50.2062 26.2725 50.2062ZM44.5889 51.563H42.2293V45.2706C42.2293 44.3661 41.8098 43.9138 40.9708 43.9138C40.6168 43.9138 40.2891 44.0318 39.9876 44.2678C39.6861 44.4906 39.4435 44.7659 39.26 45.0936V51.563H36.8807V38.4473H39.26V43.3042C39.5222 42.8978 39.9024 42.5504 40.4005 42.262C40.9118 41.9736 41.4558 41.8294 42.0326 41.8294C43.7368 41.8294 44.5889 42.6815 44.5889 44.3857V51.563ZM54.6175 51.563H52.2578V45.2706C52.2578 44.3661 51.8383 43.9138 50.9993 43.9138C50.6454 43.9138 50.3177 44.0318 50.0162 44.2678C49.7146 44.4906 49.4721 44.7659 49.2886 45.0936V51.563H46.9093V38.4473H49.2886V43.3042C49.5508 42.8978 49.9309 42.5504 50.4291 42.262C50.9404 41.9736 51.4844 41.8294 52.0612 41.8294C53.7654 41.8294 54.6175 42.6815 54.6175 44.3857V51.563ZM59.4155 51.3467C59.1271 51.6352 58.7731 51.7794 58.3536 51.7794C57.9341 51.7794 57.5736 51.6286 57.2721 51.3271C56.9706 51.0256 56.8198 50.6716 56.8198 50.2652C56.8198 49.8457 56.9706 49.4852 57.2721 49.1837C57.5736 48.8822 57.9341 48.7315 58.3536 48.7315C58.76 48.7315 59.114 48.8822 59.4155 49.1837C59.717 49.4852 59.8677 49.8457 59.8677 50.2652C59.8677 50.6847 59.717 51.0452 59.4155 51.3467ZM64.4485 51.563H62.0888V42.0654H64.4485V43.3632C64.7238 42.9306 65.0974 42.5701 65.5693 42.2817C66.0544 41.9802 66.546 41.8294 67.0441 41.8294V44.1498C66.8868 44.1104 66.6967 44.0908 66.4739 44.0908C66.0937 44.0908 65.707 44.2022 65.3137 44.4251C64.9336 44.6348 64.6451 44.9036 64.4485 45.2313V51.563ZM76.2726 51.563H73.913V50.3636C73.6377 50.7699 73.251 51.1108 72.7528 51.3861C72.2547 51.6614 71.7106 51.799 71.1207 51.799C69.4296 51.799 68.5841 50.9469 68.5841 49.2427V42.0654H70.9437V48.3382C70.9437 49.2558 71.3632 49.7146 72.2022 49.7146C72.9101 49.7146 73.4804 49.3279 73.913 48.5545V42.0654H76.2726V51.563Z" fill="white"/>
  <path d="M7.93979 12.6441H5.91442L3.45643 9.10455L5.91442 5.62405H7.93979L5.48181 9.10455L7.93979 12.6441ZM4.6166 12.6441H2.61089L0.152904 9.10455L2.61089 5.62405H4.6166L2.15862 9.10455L4.6166 12.6441Z" fill="white"/>
  <path d="M85.5409 46.5999L83.0829 50.1394H81.0772L83.5352 46.5999L81.0772 43.1194H83.0829L85.5409 46.5999ZM88.8641 46.5999L86.4061 50.1394H84.3808L86.8387 46.5999L84.3808 43.1194H86.4061L88.8641 46.5999Z" fill="white"/>
  </svg>
  