<svg width="229" height="80" viewBox="0 0 229 80" fill="none" xmlns="http://www.w3.org/2000/svg">
  <path d="M229 0.000244141L19.5903 0.00032044C12.733 0.000322938 9.30441 0.000324188 6.68529 1.33483C4.38145 2.5087 2.50837 4.38178 1.3345 6.68563C-8.17809e-06 9.30475 -8.17809e-06 12.7334 -8.17809e-06 19.5906V60.0225C-8.17809e-06 66.8798 -8.17809e-06 70.3084 1.3345 72.9275C2.50837 75.2314 4.38145 77.1044 6.68529 78.2783C9.30441 79.6128 12.733 79.6128 19.5903 79.6128H209.41C216.267 79.6128 219.696 79.6128 222.315 78.2783C224.619 77.1044 226.492 75.2314 227.665 72.9275C229 70.3084 229 66.8798 229 60.0225L229 0.000244141Z" fill="#D6001C"/>
  </svg>
  