<svg width="208" height="41" viewBox="0 0 208 41" fill="none" xmlns="http://www.w3.org/2000/svg">
  <path d="M15.5783 15.1091H13.0423V4.54999H15.6657V10.4963L18.9231 4.54999H21.6121V15.1091H18.9668V8.9223L15.5783 15.1091ZM34.8821 4.54999H37.5054V12.8137H38.686V17.7981H36.0407V15.1091H24.1917V4.54999H26.8151V12.8137H29.526V4.54999H32.1712V12.8137H34.8821V4.54999ZM42.9369 15.1091H40.4009V4.54999H43.0243V10.4963L46.2817 4.54999H48.9706V15.1091H46.3254V8.9223L42.9369 15.1091ZM55.704 15.1091H53.0588V6.84545H50.7414V4.54999H58.0432V6.84545H55.704V15.1091ZM64.1685 15.3715C62.682 15.3715 61.4869 14.8614 60.5832 13.8412C59.6942 12.821 59.2497 11.4801 59.2497 9.81863C59.2497 8.2446 59.6796 6.9329 60.5395 5.88355C61.3994 4.81962 62.5435 4.28765 63.9718 4.28765C65.4001 4.28765 66.515 4.81233 67.3166 5.86168C68.1182 6.89646 68.519 8.25188 68.519 9.92794V10.6712H61.8949C61.9532 11.4291 62.201 12.0485 62.6382 12.5295C63.0755 13.0104 63.6803 13.2509 64.4527 13.2509C64.8462 13.2509 65.2543 13.1635 65.677 12.9886C66.0996 12.7991 66.4567 12.544 66.7482 12.2234L67.9506 13.7974C66.9887 14.8468 65.728 15.3715 64.1685 15.3715ZM65.9831 8.87858C65.9539 8.22273 65.779 7.64705 65.4584 7.15152C65.1377 6.65599 64.6276 6.40822 63.9281 6.40822C63.2576 6.40822 62.7548 6.65599 62.4196 7.15152C62.099 7.64705 61.9241 8.22273 61.8949 8.87858H65.9831ZM80.5751 15.3715C79.4383 15.3715 78.5493 14.8395 77.908 13.7756V19.1317H75.2846V4.54999H77.908V5.88355C78.5785 4.81962 79.4675 4.28765 80.5751 4.28765C81.7702 4.28765 82.7176 4.78318 83.4171 5.77424C84.1313 6.75072 84.4884 8.09885 84.4884 9.81863C84.4884 11.5238 84.1313 12.8793 83.4171 13.8849C82.7176 14.8759 81.7702 15.3715 80.5751 15.3715ZM79.7225 13.0541C80.3784 13.0541 80.8812 12.7554 81.231 12.1578C81.5953 11.5603 81.7775 10.7805 81.7775 9.81863C81.7775 8.87129 81.5953 8.09885 81.231 7.5013C80.8812 6.90375 80.3784 6.60498 79.7225 6.60498C79.3728 6.60498 79.023 6.72157 78.6732 6.95476C78.338 7.18795 78.0829 7.47944 77.908 7.82923V11.808C78.0829 12.1578 78.338 12.4566 78.6732 12.7044C79.023 12.9375 79.3728 13.0541 79.7225 13.0541ZM94.6087 15.1091H91.9635V14.0598C91.672 14.4679 91.2712 14.7885 90.7611 15.0217C90.2656 15.2549 89.7409 15.3715 89.1871 15.3715C88.298 15.3715 87.5329 15.0581 86.8916 14.4314C86.2503 13.8047 85.9297 12.9521 85.9297 11.8736C85.9297 10.7805 86.243 9.93522 86.8697 9.33767C87.511 8.74012 88.2835 8.44135 89.1871 8.44135C89.7555 8.44135 90.2874 8.55066 90.783 8.76927C91.2931 8.98789 91.6866 9.29395 91.9635 9.68746V8.31018C91.9635 7.74178 91.7886 7.29726 91.4388 6.97662C91.1036 6.64141 90.6299 6.47381 90.0178 6.47381C89.0559 6.47381 88.1887 6.85274 87.4163 7.61061L86.4325 5.81796C87.4964 4.79775 88.8519 4.28765 90.4988 4.28765C91.7376 4.28765 92.7286 4.59371 93.4719 5.20584C94.2298 5.80339 94.6087 6.74343 94.6087 8.02598V15.1091ZM90.1927 13.6007C91.0089 13.6007 91.5991 13.2655 91.9635 12.595V11.2396C91.5846 10.5546 90.9943 10.2121 90.1927 10.2121C89.6972 10.2121 89.2964 10.3725 88.9903 10.6931C88.6988 10.9992 88.5531 11.4072 88.5531 11.9173C88.5531 12.4274 88.6988 12.8355 88.9903 13.1416C89.2964 13.4477 89.6972 13.6007 90.1927 13.6007ZM99.8668 12.136C100.217 12.7481 100.727 13.0541 101.397 13.0541C102.068 13.0541 102.578 12.7481 102.927 12.136C103.292 11.5093 103.474 10.7295 103.474 9.79677C103.474 8.89316 103.292 8.13529 102.927 7.52316C102.578 6.91104 102.068 6.60498 101.397 6.60498C100.727 6.60498 100.217 6.91104 99.8668 7.52316C99.517 8.13529 99.3421 8.89316 99.3421 9.79677C99.3421 10.7295 99.517 11.5093 99.8668 12.136ZM101.397 15.3715C99.8668 15.3715 98.6863 14.8176 97.8555 13.71C97.0394 12.5878 96.6313 11.1303 96.6313 9.33767C96.6313 6.67056 96.9811 4.7686 97.6806 3.6318C98.3948 2.48043 99.6336 1.75171 101.397 1.44565C102.578 1.2416 103.168 0.935541 103.168 0.527458H105.835C105.835 2.02862 104.603 2.98324 102.14 3.39133C100.202 3.71196 99.1235 4.52084 98.9049 5.81796C99.6044 4.79775 100.61 4.28765 101.922 4.28765C103.248 4.28765 104.29 4.81962 105.048 5.88355C105.806 6.94748 106.185 8.25188 106.185 9.79677C106.185 11.3562 105.762 12.6752 104.917 13.7537C104.086 14.8322 102.913 15.3715 101.397 15.3715ZM112.482 15.3715C110.996 15.3715 109.83 14.8395 108.985 13.7756C108.139 12.6971 107.717 11.3781 107.717 9.81863C107.717 8.25917 108.139 6.94748 108.985 5.88355C109.83 4.81962 110.996 4.28765 112.482 4.28765C113.984 4.28765 115.157 4.81962 116.002 5.88355C116.847 6.94748 117.27 8.25917 117.27 9.81863C117.27 11.3927 116.847 12.7116 116.002 13.7756C115.157 14.8395 113.984 15.3715 112.482 15.3715ZM112.482 13.0541C113.167 13.0541 113.685 12.7481 114.035 12.136C114.384 11.5238 114.559 10.7514 114.559 9.81863C114.559 8.88587 114.384 8.12071 114.035 7.52316C113.685 6.91104 113.167 6.60498 112.482 6.60498C111.812 6.60498 111.302 6.91104 110.952 7.52316C110.617 8.13529 110.449 8.90044 110.449 9.81863C110.449 10.7514 110.617 11.5238 110.952 12.136C111.302 12.7481 111.812 13.0541 112.482 13.0541ZM123.46 15.1091H120.814V6.84545H118.497V4.54999H125.799V6.84545H123.46V15.1091ZM127.311 19.241L127.705 16.9236C127.909 17.0257 128.135 17.0767 128.382 17.0767C128.965 17.0767 129.352 16.8216 129.541 16.3115L129.891 15.3059L126.327 4.54999H129.126L131.246 11.9392L133.389 4.54999H136.187L132.055 16.9018C131.749 17.8345 131.319 18.4758 130.765 18.8256C130.212 19.19 129.483 19.3794 128.579 19.394C128.069 19.394 127.646 19.343 127.311 19.241ZM17.3272 36.3715C15.8843 36.3715 14.7184 35.8541 13.8294 34.8193C12.9403 33.7845 12.4958 32.451 12.4958 30.8186C12.4958 29.2009 12.9403 27.8746 13.8294 26.8398C14.7184 25.805 15.8843 25.2876 17.3272 25.2876C18.7846 25.2876 19.9069 25.7613 20.6939 26.7087L19.3822 28.5232C18.8867 27.911 18.2964 27.605 17.6114 27.605C16.8681 27.605 16.2779 27.911 15.8406 28.5232C15.418 29.1207 15.2066 29.8859 15.2066 30.8186C15.2066 31.766 15.418 32.5457 15.8406 33.1578C16.2779 33.7554 16.8681 34.0541 17.6114 34.0541C18.2964 34.0541 18.8867 33.7481 19.3822 33.136L20.6939 34.9505C19.9069 35.8978 18.7846 36.3715 17.3272 36.3715ZM27.9716 36.1091H22.4625V25.55H27.8185C28.8825 25.55 29.6841 25.805 30.2233 26.3151C30.7771 26.8252 31.0541 27.4738 31.0541 28.2608C31.0541 28.8729 30.8865 29.3903 30.5512 29.813C30.216 30.2211 29.7788 30.498 29.2395 30.6437C29.8371 30.7749 30.3253 31.081 30.7043 31.5619C31.0832 32.0429 31.2727 32.604 31.2727 33.2453C31.2727 34.0906 30.9958 34.7829 30.4419 35.3221C29.8881 35.8468 29.0647 36.1091 27.9716 36.1091ZM27.3595 33.9886C28.1756 33.9886 28.5837 33.6242 28.5837 32.8955C28.5837 32.5748 28.4744 32.3125 28.2558 32.1085C28.0517 31.8898 27.753 31.7805 27.3595 31.7805H25.0858V33.9886H27.3595ZM27.272 29.66C28.0153 29.66 28.3869 29.332 28.3869 28.6762C28.3869 28.3701 28.2922 28.1297 28.1027 27.9548C27.9133 27.7653 27.6364 27.6706 27.272 27.6706H25.0858V29.66H27.272ZM41.7652 36.1091H39.12V35.0598C38.8285 35.4679 38.4277 35.7885 37.9176 36.0217C37.422 36.2549 36.8974 36.3715 36.3435 36.3715C35.4545 36.3715 34.6893 36.0581 34.0481 35.4314C33.4068 34.8047 33.0862 33.9521 33.0862 32.8736C33.0862 31.7805 33.3995 30.9352 34.0262 30.3377C34.6675 29.7401 35.4399 29.4413 36.3435 29.4413C36.9119 29.4413 37.4439 29.5507 37.9394 29.7693C38.4495 29.9879 38.843 30.294 39.12 30.6875V29.3102C39.12 28.7418 38.9451 28.2973 38.5953 27.9766C38.2601 27.6414 37.7864 27.4738 37.1743 27.4738C36.2124 27.4738 35.3452 27.8527 34.5727 28.6106L33.589 26.818C34.6529 25.7978 36.0083 25.2876 37.6552 25.2876C38.8941 25.2876 39.8851 25.5937 40.6284 26.2058C41.3863 26.8034 41.7652 27.7434 41.7652 29.026V36.1091ZM37.3492 34.6007C38.1653 34.6007 38.7556 34.2655 39.12 33.595V32.2396C38.741 31.5546 38.1508 31.2121 37.3492 31.2121C36.8536 31.2121 36.4528 31.3725 36.1468 31.6931C35.8553 31.9992 35.7096 32.4072 35.7096 32.9173C35.7096 33.4274 35.8553 33.8355 36.1468 34.1416C36.4528 34.4477 36.8536 34.6007 37.3492 34.6007ZM49.6248 36.3715C48.488 36.3715 47.5989 35.8395 46.9577 34.7756V40.1317H44.3343V25.55H46.9577V26.8835C47.6281 25.8196 48.5171 25.2876 49.6248 25.2876C50.8199 25.2876 51.7672 25.7832 52.4668 26.7742C53.1809 27.7507 53.538 29.0989 53.538 30.8186C53.538 32.5238 53.1809 33.8793 52.4668 34.8849C51.7672 35.8759 50.8199 36.3715 49.6248 36.3715ZM48.7722 34.0541C49.428 34.0541 49.9308 33.7554 50.2806 33.1578C50.645 32.5603 50.8272 31.7805 50.8272 30.8186C50.8272 29.8713 50.645 29.0989 50.2806 28.5013C49.9308 27.9038 49.428 27.605 48.7722 27.605C48.4224 27.605 48.0726 27.7216 47.7228 27.9548C47.3876 28.188 47.1326 28.4794 46.9577 28.8292V32.808C47.1326 33.1578 47.3876 33.4566 47.7228 33.7044C48.0726 33.9375 48.4224 34.0541 48.7722 34.0541ZM66.238 25.55H68.8614V33.8137H70.042V38.7981H67.3967V36.1091H55.5477V25.55H58.1711V33.8137H60.882V25.55H63.5272V33.8137H66.238V25.55ZM74.2928 36.1091H71.7569V25.55H74.3803V31.4963L77.6377 25.55H80.3266V36.1091H77.6814V29.9223L74.2928 36.1091ZM91.9133 36.1091H88.8308L86.6446 31.9773L85.5297 33.5295V36.1091H82.9063V25.55H85.5297V30.3377L88.7433 25.55H91.804L88.4591 30.294L91.9133 36.1091ZM97.3997 36.3715C95.9131 36.3715 94.7471 35.8395 93.9018 34.7756C93.0565 33.6971 92.6338 32.3781 92.6338 30.8186C92.6338 29.2592 93.0565 27.9475 93.9018 26.8835C94.7471 25.8196 95.9131 25.2876 97.3997 25.2876C98.9008 25.2876 100.074 25.8196 100.919 26.8835C101.765 27.9475 102.187 29.2592 102.187 30.8186C102.187 32.3927 101.765 33.7116 100.919 34.7756C100.074 35.8395 98.9008 36.3715 97.3997 36.3715ZM97.3997 34.0541C98.0847 34.0541 98.6021 33.7481 98.9518 33.136C99.3016 32.5238 99.4765 31.7514 99.4765 30.8186C99.4765 29.8859 99.3016 29.1207 98.9518 28.5232C98.6021 27.911 98.0847 27.605 97.3997 27.605C96.7293 27.605 96.2191 27.911 95.8694 28.5232C95.5342 29.1353 95.3665 29.9004 95.3665 30.8186C95.3665 31.7514 95.5342 32.5238 95.8694 33.136C96.2191 33.7481 96.7293 34.0541 97.3997 34.0541ZM115.285 36.1091H112.683V29.7037L110.322 36.1091H109.186L106.846 29.7037V36.1091H104.223V25.55H107.59L109.754 31.4308L111.94 25.55H115.285V36.1091ZM125.302 36.1091H122.679V25.55H125.302V29.4851H128.603V25.55H131.249V36.1091H128.603V31.7805H125.302V36.1091ZM141.939 36.1091H139.294V35.0598C139.002 35.4679 138.602 35.7885 138.091 36.0217C137.596 36.2549 137.071 36.3715 136.517 36.3715C135.628 36.3715 134.863 36.0581 134.222 35.4314C133.581 34.8047 133.26 33.9521 133.26 32.8736C133.26 31.7805 133.573 30.9352 134.2 30.3377C134.841 29.7401 135.614 29.4413 136.517 29.4413C137.086 29.4413 137.618 29.5507 138.113 29.7693C138.623 29.9879 139.017 30.294 139.294 30.6875V29.3102C139.294 28.7418 139.119 28.2973 138.769 27.9766C138.434 27.6414 137.96 27.4738 137.348 27.4738C136.386 27.4738 135.519 27.8527 134.747 28.6106L133.763 26.818C134.827 25.7978 136.182 25.2876 137.829 25.2876C139.068 25.2876 140.059 25.5937 140.802 26.2058C141.56 26.8034 141.939 27.7434 141.939 29.026V36.1091ZM137.523 34.6007C138.339 34.6007 138.929 34.2655 139.294 33.595V32.2396C138.915 31.5546 138.325 31.2121 137.523 31.2121C137.027 31.2121 136.627 31.3725 136.321 31.6931C136.029 31.9992 135.883 32.4072 135.883 32.9173C135.883 33.4274 136.029 33.8355 136.321 34.1416C136.627 34.4477 137.027 34.6007 137.523 34.6007ZM157.887 36.1091H155.263V29.1134C155.263 28.1078 154.797 27.605 153.864 27.605C153.471 27.605 153.106 27.7361 152.771 27.9985C152.436 28.2463 152.166 28.5523 151.962 28.9167V36.1091H149.317V21.5275H151.962V26.9273C152.254 26.4755 152.676 26.0892 153.23 25.7686C153.798 25.448 154.403 25.2876 155.045 25.2876C156.939 25.2876 157.887 26.235 157.887 28.1297V36.1091ZM169.036 36.1091H166.413V29.1134C166.413 28.1078 165.946 27.605 165.013 27.605C164.62 27.605 164.256 27.7361 163.92 27.9985C163.585 28.2463 163.316 28.5523 163.111 28.9167V36.1091H160.466V21.5275H163.111V26.9273C163.403 26.4755 163.826 26.0892 164.379 25.7686C164.948 25.448 165.553 25.2876 166.194 25.2876C168.089 25.2876 169.036 26.235 169.036 28.1297V36.1091ZM174.37 35.8687C174.05 36.1893 173.656 36.3496 173.19 36.3496C172.723 36.3496 172.322 36.182 171.987 35.8468C171.652 35.5116 171.484 35.1181 171.484 34.6663C171.484 34.1999 171.652 33.7991 171.987 33.4639C172.322 33.1287 172.723 32.9611 173.19 32.9611C173.641 32.9611 174.035 33.1287 174.37 33.4639C174.705 33.7991 174.873 34.1999 174.873 34.6663C174.873 35.1326 174.705 35.5334 174.37 35.8687ZM179.966 36.1091H177.342V25.55H179.966V26.9929C180.272 26.5119 180.687 26.1111 181.212 25.7905C181.751 25.4553 182.298 25.2876 182.851 25.2876V27.8673C182.677 27.8236 182.465 27.8017 182.217 27.8017C181.795 27.8017 181.365 27.9256 180.928 28.1734C180.505 28.4066 180.184 28.7053 179.966 29.0697V36.1091ZM193.111 36.1091H190.488V34.7756C190.182 35.2274 189.752 35.6063 189.198 35.9124C188.644 36.2184 188.039 36.3715 187.384 36.3715C185.504 36.3715 184.563 35.4241 184.563 33.5295V25.55H187.187V32.5238C187.187 33.544 187.653 34.0541 188.586 34.0541C189.373 34.0541 190.007 33.6242 190.488 32.7643V25.55H193.111V36.1091ZM203.409 30.7968L200.676 34.7319H198.446L201.179 30.7968L198.446 26.9273H200.676L203.409 30.7968ZM207.103 30.7968L204.371 34.7319H202.119L204.852 30.7968L202.119 26.9273H204.371L207.103 30.7968Z" fill="white"/>
  <path d="M9.33256 13.7516H7.08082L4.34812 9.81654L7.08082 5.94704H9.33256L6.59987 9.81654L9.33256 13.7516ZM5.63796 13.7516H3.40808L0.675379 9.81654L3.40808 5.94704H5.63796L2.90526 9.81654L5.63796 13.7516Z" fill="white"/>
  </svg>
  