<svg width="168" height="25" viewBox="0 0 168 25" fill="none" xmlns="http://www.w3.org/2000/svg">
  <path d="M6.24726 8.71363H4.84525L3.14379 6.26352L4.84525 3.85425H6.24726L4.5458 6.26352L6.24726 8.71363ZM3.94688 8.71363H2.55849L0.857021 6.26352L2.55849 3.85425H3.94688L2.24542 6.26352L3.94688 8.71363Z" fill="white"/>
  <path d="M11.2113 9.57117H9.63231V2.99671H11.2657V6.69909L13.2939 2.99671H14.9681V9.57117H13.3211V5.71905L11.2113 9.57117ZM23.2304 2.99671H24.8638V8.14194H25.5989V11.2454H23.9518V9.57117H16.5743V2.99671H18.2077V8.14194H19.8955V2.99671H21.5426V8.14194H23.2304V2.99671ZM28.2456 9.57117H26.6666V2.99671H28.3V6.69909L30.3282 2.99671H32.0024V9.57117H30.3554V5.71905L28.2456 9.57117ZM36.1948 9.57117H34.5478V4.42594H33.105V2.99671H37.6513V4.42594H36.1948V9.57117ZM41.4651 9.73451C40.5395 9.73451 39.7954 9.4169 39.2328 8.78169C38.6793 8.14647 38.4025 7.31162 38.4025 6.27713C38.4025 5.29709 38.6702 4.48038 39.2056 3.82702C39.741 3.16458 40.4533 2.83337 41.3426 2.83337C42.2319 2.83337 42.9261 3.16005 43.4252 3.81341C43.9243 4.4577 44.1739 5.30162 44.1739 6.34519V6.80799H40.0495C40.0858 7.27986 40.2401 7.66553 40.5123 7.96498C40.7845 8.26444 41.1611 8.41417 41.6421 8.41417C41.8871 8.41417 42.1412 8.35972 42.4043 8.25083C42.6675 8.13286 42.8898 7.97406 43.0713 7.77442L43.8199 8.75446C43.221 9.40783 42.4361 9.73451 41.4651 9.73451ZM42.5949 5.69183C42.5767 5.28348 42.4679 4.92503 42.2682 4.6165C42.0686 4.30797 41.751 4.1537 41.3154 4.1537C40.898 4.1537 40.5849 4.30797 40.3762 4.6165C40.1765 4.92503 40.0677 5.28348 40.0495 5.69183H42.5949ZM51.6804 9.73451C50.9726 9.73451 50.419 9.40329 50.0198 8.74085V12.0757H48.3864V2.99671H50.0198V3.82702C50.4372 3.16458 50.9907 2.83337 51.6804 2.83337C52.4245 2.83337 53.0143 3.1419 53.4499 3.75896C53.8946 4.36695 54.1169 5.20634 54.1169 6.27713C54.1169 7.33885 53.8946 8.18277 53.4499 8.80891C53.0143 9.42598 52.4245 9.73451 51.6804 9.73451ZM51.1495 8.29167C51.5579 8.29167 51.871 8.10564 52.0887 7.73358C52.3156 7.36153 52.429 6.87605 52.429 6.27713C52.429 5.68729 52.3156 5.20634 52.0887 4.83429C51.871 4.46224 51.5579 4.27621 51.1495 4.27621C50.9318 4.27621 50.714 4.3488 50.4962 4.494C50.2875 4.63919 50.1287 4.82068 50.0198 5.03846V7.5158C50.1287 7.73358 50.2875 7.91961 50.4962 8.07388C50.714 8.21907 50.9318 8.29167 51.1495 8.29167ZM60.4182 9.57117H58.7711V8.9178C58.5897 9.17189 58.3401 9.37153 58.0225 9.51672C57.714 9.66191 57.3873 9.73451 57.0425 9.73451C56.4889 9.73451 56.0125 9.53941 55.6132 9.1492C55.2139 8.759 55.0143 8.22814 55.0143 7.55663C55.0143 6.87605 55.2094 6.34973 55.5996 5.97767C55.9989 5.60562 56.4798 5.41959 57.0425 5.41959C57.3964 5.41959 57.7276 5.48765 58.0361 5.62377C58.3537 5.75989 58.5987 5.95045 58.7711 6.19546V5.33792C58.7711 4.98402 58.6623 4.70725 58.4445 4.50761C58.2358 4.29889 57.9408 4.19454 57.5597 4.19454C56.9608 4.19454 56.4209 4.43047 55.9399 4.90235L55.3274 3.78619C55.9898 3.15097 56.8337 2.83337 57.8592 2.83337C58.6305 2.83337 59.2476 3.02393 59.7104 3.40506C60.1822 3.77711 60.4182 4.36242 60.4182 5.16097V9.57117ZM57.6686 8.63196C58.1768 8.63196 58.5443 8.42325 58.7711 8.00582V7.16189C58.5352 6.73539 58.1677 6.52214 57.6686 6.52214C57.3601 6.52214 57.1105 6.62196 56.92 6.8216C56.7385 7.01216 56.6477 7.26625 56.6477 7.58386C56.6477 7.90146 56.7385 8.15555 56.92 8.34611C57.1105 8.53668 57.3601 8.63196 57.6686 8.63196ZM63.692 7.71997C63.9098 8.1011 64.2274 8.29167 64.6448 8.29167C65.0622 8.29167 65.3798 8.1011 65.5976 7.71997C65.8245 7.32977 65.9379 6.84429 65.9379 6.26352C65.9379 5.7009 65.8245 5.22903 65.5976 4.8479C65.3798 4.46677 65.0622 4.27621 64.6448 4.27621C64.2274 4.27621 63.9098 4.46677 63.692 4.8479C63.4742 5.22903 63.3653 5.7009 63.3653 6.26352C63.3653 6.84429 63.4742 7.32977 63.692 7.71997ZM64.6448 9.73451C63.692 9.73451 62.957 9.38968 62.4397 8.70002C61.9315 8.00128 61.6775 7.09383 61.6775 5.97767C61.6775 4.31704 61.8952 3.13282 62.3308 2.42501C62.7755 1.70813 63.5468 1.25441 64.6448 1.06384C65.3798 0.9368 65.7474 0.746236 65.7474 0.49215H67.408C67.408 1.42682 66.6412 2.0212 65.1076 2.27529C63.9007 2.47492 63.2292 2.97856 63.0931 3.78619C63.5287 3.15097 64.1548 2.83337 64.9715 2.83337C65.7973 2.83337 66.4461 3.16458 66.918 3.82702C67.3898 4.48946 67.6258 5.30162 67.6258 6.26352C67.6258 7.23449 67.3626 8.05573 66.8363 8.72724C66.3191 9.39875 65.5886 9.73451 64.6448 9.73451ZM71.5469 9.73451C70.6213 9.73451 69.8954 9.40329 69.369 8.74085C68.8427 8.06934 68.5796 7.2481 68.5796 6.27713C68.5796 5.30616 68.8427 4.48946 69.369 3.82702C69.8954 3.16458 70.6213 2.83337 71.5469 2.83337C72.4816 2.83337 73.2121 3.16458 73.7384 3.82702C74.2647 4.48946 74.5279 5.30616 74.5279 6.27713C74.5279 7.25717 74.2647 8.07842 73.7384 8.74085C73.2121 9.40329 72.4816 9.73451 71.5469 9.73451ZM71.5469 8.29167C71.9734 8.29167 72.2956 8.1011 72.5133 7.71997C72.7311 7.33885 72.84 6.8579 72.84 6.27713C72.84 5.69636 72.7311 5.21995 72.5133 4.8479C72.2956 4.46677 71.9734 4.27621 71.5469 4.27621C71.1295 4.27621 70.8119 4.46677 70.5941 4.8479C70.3854 5.22903 70.281 5.70544 70.281 6.27713C70.281 6.8579 70.3854 7.33885 70.5941 7.71997C70.8119 8.1011 71.1295 8.29167 71.5469 8.29167ZM78.3816 9.57117H76.7346V4.42594H75.2917V2.99671H79.838V4.42594H78.3816V9.57117ZM80.7798 12.1438L81.0248 10.7009C81.1519 10.7645 81.2925 10.7962 81.4468 10.7962C81.8098 10.7962 82.0502 10.6374 82.1682 10.3198L82.386 9.69367L80.1673 2.99671H81.9096L83.2299 7.59747L84.5639 2.99671H86.3062L83.7335 10.6873C83.543 11.2681 83.2753 11.6674 82.9305 11.8852C82.5856 12.112 82.1319 12.23 81.5693 12.2391C81.2517 12.2391 80.9885 12.2073 80.7798 12.1438ZM14.6823 21.5712H13.0352V20.9178C12.8538 21.1719 12.6042 21.3715 12.2866 21.5167C11.9781 21.6619 11.6514 21.7345 11.3066 21.7345C10.753 21.7345 10.2766 21.5394 9.87732 21.1492C9.47804 20.759 9.27841 20.2281 9.27841 19.5566C9.27841 18.876 9.47351 18.3497 9.86371 17.9777C10.263 17.6056 10.7439 17.4196 11.3066 17.4196C11.6605 17.4196 11.9917 17.4877 12.3002 17.6238C12.6178 17.7599 12.8628 17.9504 13.0352 18.1955V17.3379C13.0352 16.984 12.9263 16.7072 12.7086 16.5076C12.4998 16.2989 12.2049 16.1945 11.8238 16.1945C11.2249 16.1945 10.685 16.4305 10.204 16.9023L9.59148 15.7862C10.2539 15.151 11.0978 14.8334 12.1233 14.8334C12.8946 14.8334 13.5117 15.0239 13.9744 15.4051C14.4463 15.7771 14.6823 16.3624 14.6823 17.161V21.5712ZM11.9327 20.632C12.4409 20.632 12.8084 20.4232 13.0352 20.0058V19.1619C12.7993 18.7354 12.4318 18.5221 11.9327 18.5221C11.6242 18.5221 11.3746 18.622 11.184 18.8216C11.0026 19.0122 10.9118 19.2662 10.9118 19.5839C10.9118 19.9015 11.0026 20.1555 11.184 20.3461C11.3746 20.5367 11.6242 20.632 11.9327 20.632ZM15.7782 23.2454V20.2644C16.0595 20.2191 16.2728 20.0784 16.418 19.8425C16.5632 19.5975 16.672 19.1074 16.7446 18.3724L17.0577 14.9967H21.6176V20.1419H22.2982V23.2454H20.6648V21.5712H17.4116V23.2454H15.7782ZM18.5414 16.4259L18.3781 18.4269C18.3145 19.1891 18.0922 19.7608 17.7111 20.1419H19.9706V16.4259H18.5414ZM30.2443 21.5712H28.6245V17.5829L27.1544 21.5712H26.4466L24.9902 17.5829V21.5712H23.3568V14.9967H25.453L26.8005 18.6583L28.1617 14.9967H30.2443V21.5712ZM33.4329 21.5712H31.854V14.9967H33.4874V18.6991L35.5155 14.9967H37.1898V21.5712H35.5427V17.7191L33.4329 21.5712ZM40.4294 21.5712H38.7959V14.9967H40.4294V17.4468H42.4847V14.9967H44.1317V21.5712H42.4847V18.876H40.4294V21.5712ZM47.3169 21.5712H45.7379V14.9967H47.3713V18.6991L49.3995 14.9967H51.0737V21.5712H49.4267V17.7191L47.3169 21.5712ZM55.3478 21.7345C54.4494 21.7345 53.7235 21.4124 53.1699 20.7681C52.6164 20.1238 52.3396 19.2935 52.3396 18.2771C52.3396 17.2699 52.6164 16.4441 53.1699 15.7998C53.7235 15.1555 54.4494 14.8334 55.3478 14.8334C56.2552 14.8334 56.954 15.1283 57.444 15.7181L56.6273 16.8479C56.3188 16.4668 55.9512 16.2762 55.5247 16.2762C55.0619 16.2762 54.6944 16.4668 54.4222 16.8479C54.159 17.22 54.0275 17.6964 54.0275 18.2771C54.0275 18.867 54.159 19.3525 54.4222 19.7336C54.6944 20.1056 55.0619 20.2917 55.5247 20.2917C55.9512 20.2917 56.3188 20.1011 56.6273 19.72L57.444 20.8497C56.954 21.4396 56.2552 21.7345 55.3478 21.7345ZM61.1314 21.5712H59.4844V16.4259H58.0415V14.9967H62.5878V16.4259H61.1314V21.5712ZM66.9734 21.7345C66.2656 21.7345 65.712 21.4033 65.3127 20.7409V24.0757H63.6793V14.9967H65.3127V15.827C65.7302 15.1646 66.2837 14.8334 66.9734 14.8334C67.7175 14.8334 68.3073 15.1419 68.7429 15.759C69.1875 16.367 69.4099 17.2063 69.4099 18.2771C69.4099 19.3388 69.1875 20.1828 68.7429 20.8089C68.3073 21.426 67.7175 21.7345 66.9734 21.7345ZM66.4425 20.2917C66.8509 20.2917 67.1639 20.1056 67.3817 19.7336C67.6086 19.3615 67.722 18.876 67.722 18.2771C67.722 17.6873 67.6086 17.2063 67.3817 16.8343C67.1639 16.4622 66.8509 16.2762 66.4425 16.2762C66.2247 16.2762 66.0069 16.3488 65.7892 16.494C65.5804 16.6392 65.4216 16.8207 65.3127 17.0385V19.5158C65.4216 19.7336 65.5804 19.9196 65.7892 20.0739C66.0069 20.2191 66.2247 20.2917 66.4425 20.2917ZM75.7111 21.5712H74.0641V20.9178C73.8826 21.1719 73.6331 21.3715 73.3155 21.5167C73.0069 21.6619 72.6803 21.7345 72.3354 21.7345C71.7819 21.7345 71.3055 21.5394 70.9062 21.1492C70.5069 20.759 70.3073 20.2281 70.3073 19.5566C70.3073 18.876 70.5024 18.3497 70.8926 17.9777C71.2919 17.6056 71.7728 17.4196 72.3354 17.4196C72.6893 17.4196 73.0206 17.4877 73.3291 17.6238C73.6467 17.7599 73.8917 17.9504 74.0641 18.1955V17.3379C74.0641 16.984 73.9552 16.7072 73.7374 16.5076C73.5287 16.2989 73.2338 16.1945 72.8527 16.1945C72.2538 16.1945 71.7138 16.4305 71.2329 16.9023L70.6204 15.7862C71.2828 15.151 72.1267 14.8334 73.1521 14.8334C73.9235 14.8334 74.5405 15.0239 75.0033 15.4051C75.4752 15.7771 75.7111 16.3624 75.7111 17.161V21.5712ZM72.9616 20.632C73.4697 20.632 73.8373 20.4232 74.0641 20.0058V19.1619C73.8282 18.7354 73.4607 18.5221 72.9616 18.5221C72.653 18.5221 72.4035 18.622 72.2129 18.8216C72.0314 19.0122 71.9407 19.2662 71.9407 19.5839C71.9407 19.9015 72.0314 20.1555 72.2129 20.3461C72.4035 20.5367 72.653 20.632 72.9616 20.632ZM79.897 21.5712H78.2499V16.4259H76.8071V14.9967H81.3534V16.4259H79.897V21.5712ZM85.072 21.7345C84.1464 21.7345 83.4204 21.4033 82.8941 20.7409C82.3678 20.0693 82.1046 19.2481 82.1046 18.2771C82.1046 17.3062 82.3678 16.4895 82.8941 15.827C83.4204 15.1646 84.1464 14.8334 85.072 14.8334C86.0066 14.8334 86.7371 15.1646 87.2635 15.827C87.7898 16.4895 88.0529 17.3062 88.0529 18.2771C88.0529 19.2572 87.7898 20.0784 87.2635 20.7409C86.7371 21.4033 86.0066 21.7345 85.072 21.7345ZM85.072 20.2917C85.4985 20.2917 85.8206 20.1011 86.0384 19.72C86.2562 19.3388 86.3651 18.8579 86.3651 18.2771C86.3651 17.6964 86.2562 17.22 86.0384 16.8479C85.8206 16.4668 85.4985 16.2762 85.072 16.2762C84.6545 16.2762 84.3369 16.4668 84.1191 16.8479C83.9104 17.229 83.8061 17.7054 83.8061 18.2771C83.8061 18.8579 83.9104 19.3388 84.1191 19.72C84.3369 20.1011 84.6545 20.2917 85.072 20.2917ZM92.6144 21.7345C91.9066 21.7345 91.3531 21.4033 90.9538 20.7409V24.0757H89.3204V14.9967H90.9538V15.827C91.3712 15.1646 91.9248 14.8334 92.6144 14.8334C93.3586 14.8334 93.9484 15.1419 94.384 15.759C94.8286 16.367 95.0509 17.2063 95.0509 18.2771C95.0509 19.3388 94.8286 20.1828 94.384 20.8089C93.9484 21.426 93.3586 21.7345 92.6144 21.7345ZM92.0836 20.2917C92.4919 20.2917 92.805 20.1056 93.0228 19.7336C93.2497 19.3615 93.3631 18.876 93.3631 18.2771C93.3631 17.6873 93.2497 17.2063 93.0228 16.8343C92.805 16.4622 92.4919 16.2762 92.0836 16.2762C91.8658 16.2762 91.648 16.3488 91.4302 16.494C91.2215 16.6392 91.0627 16.8207 90.9538 17.0385V19.5158C91.0627 19.7336 91.2215 19.9196 91.4302 20.0739C91.648 20.2191 91.8658 20.2917 92.0836 20.2917ZM98.9293 21.7345C98.0037 21.7345 97.2778 21.4033 96.7514 20.7409C96.2251 20.0693 95.962 19.2481 95.962 18.2771C95.962 17.3062 96.2251 16.4895 96.7514 15.827C97.2778 15.1646 98.0037 14.8334 98.9293 14.8334C99.864 14.8334 100.594 15.1646 101.121 15.827C101.647 16.4895 101.91 17.3062 101.91 18.2771C101.91 19.2572 101.647 20.0784 101.121 20.7409C100.594 21.4033 99.864 21.7345 98.9293 21.7345ZM98.9293 20.2917C99.3558 20.2917 99.678 20.1011 99.8958 19.72C100.114 19.3388 100.222 18.8579 100.222 18.2771C100.222 17.6964 100.114 17.22 99.8958 16.8479C99.678 16.4668 99.3558 16.2762 98.9293 16.2762C98.5119 16.2762 98.1943 16.4668 97.9765 16.8479C97.7678 17.229 97.6634 17.7054 97.6634 18.2771C97.6634 18.8579 97.7678 19.3388 97.9765 19.72C98.1943 20.1011 98.5119 20.2917 98.9293 20.2917ZM110.065 21.5712H108.446V17.5829L106.975 21.5712H106.268L104.811 17.5829V21.5712H103.178V14.9967H105.274L106.622 18.6583L107.983 14.9967H110.065V21.5712ZM116.302 21.5712H114.669V14.9967H116.302V17.4468H118.358V14.9967H120.005V21.5712H118.358V18.876H116.302V21.5712ZM126.661 21.5712H125.014V20.9178C124.832 21.1719 124.583 21.3715 124.265 21.5167C123.957 21.6619 123.63 21.7345 123.285 21.7345C122.732 21.7345 122.255 21.5394 121.856 21.1492C121.457 20.759 121.257 20.2281 121.257 19.5566C121.257 18.876 121.452 18.3497 121.842 17.9777C122.242 17.6056 122.723 17.4196 123.285 17.4196C123.639 17.4196 123.97 17.4877 124.279 17.6238C124.597 17.7599 124.842 17.9504 125.014 18.1955V17.3379C125.014 16.984 124.905 16.7072 124.687 16.5076C124.479 16.2989 124.184 16.1945 123.803 16.1945C123.204 16.1945 122.664 16.4305 122.183 16.9023L121.57 15.7862C122.233 15.151 123.077 14.8334 124.102 14.8334C124.873 14.8334 125.49 15.0239 125.953 15.4051C126.425 15.7771 126.661 16.3624 126.661 17.161V21.5712ZM123.911 20.632C124.42 20.632 124.787 20.4232 125.014 20.0058V19.1619C124.778 18.7354 124.411 18.5221 123.911 18.5221C123.603 18.5221 123.353 18.622 123.163 18.8216C122.981 19.0122 122.891 19.2662 122.891 19.5839C122.891 19.9015 122.981 20.1555 123.163 20.3461C123.353 20.5367 123.603 20.632 123.911 20.632ZM136.59 21.5712H134.957V17.2154C134.957 16.5893 134.667 16.2762 134.086 16.2762C133.841 16.2762 133.614 16.3579 133.405 16.5212C133.197 16.6755 133.029 16.866 132.902 17.0929V21.5712H131.255V12.4922H132.902V15.8542C133.083 15.5729 133.346 15.3325 133.691 15.1328C134.045 14.9332 134.422 14.8334 134.821 14.8334C136.001 14.8334 136.59 15.4232 136.59 16.6029V21.5712ZM143.532 21.5712H141.899V17.2154C141.899 16.5893 141.609 16.2762 141.028 16.2762C140.783 16.2762 140.556 16.3579 140.347 16.5212C140.139 16.6755 139.971 16.866 139.844 17.0929V21.5712H138.197V12.4922H139.844V15.8542C140.025 15.5729 140.288 15.3325 140.633 15.1328C140.987 14.9332 141.364 14.8334 141.763 14.8334C142.943 14.8334 143.532 15.4232 143.532 16.6029V21.5712ZM146.854 21.4214C146.654 21.6211 146.409 21.7209 146.119 21.7209C145.828 21.7209 145.579 21.6165 145.37 21.4078C145.161 21.1991 145.057 20.9541 145.057 20.6728C145.057 20.3824 145.161 20.1329 145.37 19.9241C145.579 19.7154 145.828 19.6111 146.119 19.6111C146.4 19.6111 146.645 19.7154 146.854 19.9241C147.062 20.1329 147.167 20.3824 147.167 20.6728C147.167 20.9632 147.062 21.2127 146.854 21.4214ZM150.338 21.5712H148.704V14.9967H150.338V15.8951C150.528 15.5956 150.787 15.3461 151.113 15.1464C151.449 14.9377 151.79 14.8334 152.134 14.8334V16.4395C152.025 16.4123 151.894 16.3987 151.74 16.3987C151.476 16.3987 151.209 16.4758 150.937 16.6301C150.673 16.7753 150.474 16.9613 150.338 17.1882V21.5712ZM158.522 21.5712H156.889V20.7409C156.699 21.0222 156.431 21.2581 156.086 21.4487C155.741 21.6392 155.365 21.7345 154.956 21.7345C153.786 21.7345 153.2 21.1447 153.2 19.965V14.9967H154.834V19.3388C154.834 19.9741 155.124 20.2917 155.705 20.2917C156.195 20.2917 156.59 20.024 156.889 19.4886V14.9967H158.522V21.5712Z" fill="white"/>
  <path d="M162.215 17.6522L163.617 17.6522L165.318 20.1023L163.617 22.5115L162.215 22.5115L163.916 20.1023L162.215 17.6522ZM164.515 17.6522L165.904 17.6522L167.605 20.1023L165.904 22.5115L164.515 22.5115L166.217 20.1023L164.515 17.6522Z" fill="white"/>
  </svg>
  