<svg width="154" height="48" viewBox="0 0 154 48" fill="none" xmlns="http://www.w3.org/2000/svg">
  <path d="M7.92456 12.1223H5.96387L3.5844 8.69583L5.96387 5.3265H7.92456L5.54508 8.69583L7.92456 12.1223ZM4.70751 12.1223H2.76586L0.386382 8.69583L2.76586 5.3265H4.70751L2.32803 8.69583L4.70751 12.1223Z" fill="white"/>
  <path d="M14.8667 13.3215H12.6585V4.12724H14.9428V9.30498L17.7792 4.12724H20.1206V13.3215H17.8173V7.9344L14.8667 13.3215ZM31.6753 4.12724H33.9596V11.3228H34.9875V15.6629H32.6842V13.3215H22.3668V4.12724H24.6511V11.3228H27.0115V4.12724H29.3149V11.3228H31.6753V4.12724ZM38.689 13.3215H36.4808V4.12724H38.7651V9.30498L41.6014 4.12724H43.9428V13.3215H41.6395V7.9344L38.689 13.3215ZM49.8059 13.3215H47.5025V6.126H45.4847V4.12724H51.8427V6.126H49.8059V13.3215ZM57.1763 13.55C55.8819 13.55 54.8412 13.1058 54.0544 12.2175C53.2803 11.3291 52.8932 10.1616 52.8932 8.71487C52.8932 7.34429 53.2676 6.20214 54.0164 5.28842C54.7651 4.36202 55.7613 3.89881 57.005 3.89881C58.2486 3.89881 59.2195 4.35567 59.9175 5.26939C60.6154 6.17042 60.9644 7.35064 60.9644 8.81005V9.45727H55.1966C55.2473 10.1172 55.4631 10.6565 55.8438 11.0753C56.2245 11.4941 56.7512 11.7035 57.4238 11.7035C57.7664 11.7035 58.1217 11.6273 58.4898 11.4751C58.8578 11.3101 59.1687 11.088 59.4225 10.8088L60.4695 12.1794C59.6319 13.0931 58.5342 13.55 57.1763 13.55ZM58.7563 7.89633C58.7309 7.32526 58.5786 6.82398 58.2994 6.3925C58.0202 5.96102 57.576 5.74528 56.9669 5.74528C56.3831 5.74528 55.9453 5.96102 55.6534 6.3925C55.3742 6.82398 55.222 7.32526 55.1966 7.89633H58.7563ZM71.4622 13.55C70.4724 13.55 69.6982 13.0868 69.1399 12.1603V16.8241H66.8556V4.12724H69.1399V5.28842C69.7236 4.36202 70.4977 3.89881 71.4622 3.89881C72.5028 3.89881 73.3277 4.33029 73.9369 5.19325C74.5587 6.04351 74.8696 7.21739 74.8696 8.71487C74.8696 10.1997 74.5587 11.3799 73.9369 12.2555C73.3277 13.1185 72.5028 13.55 71.4622 13.55ZM70.7198 11.5322C71.2909 11.5322 71.7287 11.272 72.0333 10.7517C72.3506 10.2314 72.5092 9.55244 72.5092 8.71487C72.5092 7.88998 72.3506 7.21739 72.0333 6.69707C71.7287 6.17676 71.2909 5.91661 70.7198 5.91661C70.4152 5.91661 70.1107 6.01813 69.8061 6.22118C69.5142 6.42423 69.2921 6.67804 69.1399 6.98261V10.4471C69.2921 10.7517 69.5142 11.0119 69.8061 11.2276C70.1107 11.4306 70.4152 11.5322 70.7198 11.5322ZM83.6819 13.3215H81.3785V12.4078C81.1247 12.7631 80.7757 13.0423 80.3316 13.2454C79.9001 13.4484 79.4432 13.55 78.961 13.55C78.1869 13.55 77.5206 13.2771 76.9622 12.7314C76.4038 12.1857 76.1247 11.4433 76.1247 10.5042C76.1247 9.55244 76.3975 8.81639 76.9432 8.29608C77.5016 7.77577 78.1742 7.51561 78.961 7.51561C79.4559 7.51561 79.9191 7.61079 80.3506 7.80115C80.7948 7.99151 81.1374 8.25801 81.3785 8.60065V7.4014C81.3785 6.90647 81.2262 6.51941 80.9217 6.24022C80.6298 5.94833 80.2173 5.80239 79.6843 5.80239C78.8468 5.80239 78.0917 6.13235 77.4191 6.79225L76.5625 5.23132C77.4889 4.34298 78.6691 3.89881 80.1031 3.89881C81.1818 3.89881 82.0448 4.16531 82.692 4.69832C83.3519 5.21863 83.6819 6.03717 83.6819 7.15393V13.3215ZM79.8366 12.0081C80.5473 12.0081 81.0613 11.7162 81.3785 11.1324V9.9522C81.0486 9.35574 80.5346 9.05751 79.8366 9.05751C79.4052 9.05751 79.0562 9.19711 78.7897 9.4763C78.5359 9.7428 78.4089 10.0981 78.4089 10.5423C78.4089 10.9865 78.5359 11.3418 78.7897 11.6083C79.0562 11.8748 79.4052 12.0081 79.8366 12.0081ZM88.2603 10.7327C88.5648 11.2657 89.009 11.5322 89.5928 11.5322C90.1765 11.5322 90.6207 11.2657 90.9253 10.7327C91.2426 10.187 91.4012 9.50803 91.4012 8.69583C91.4012 7.90902 91.2426 7.24911 90.9253 6.71611C90.6207 6.18311 90.1765 5.91661 89.5928 5.91661C89.009 5.91661 88.5648 6.18311 88.2603 6.71611C87.9557 7.24911 87.8034 7.90902 87.8034 8.69583C87.8034 9.50803 87.9557 10.187 88.2603 10.7327ZM89.5928 13.55C88.2603 13.55 87.2323 13.0677 86.509 12.1032C85.7983 11.1261 85.443 9.85702 85.443 8.29608C85.443 5.97371 85.7475 4.3176 86.3567 3.32774C86.9785 2.32518 88.0572 1.69066 89.5928 1.42416C90.6207 1.24649 91.1347 0.979988 91.1347 0.624653H93.457C93.457 1.93178 92.3847 2.76301 90.24 3.11834C88.5522 3.39754 87.6131 4.10186 87.4227 5.23132C88.0318 4.34298 88.9075 3.89881 90.0496 3.89881C91.2045 3.89881 92.1119 4.36202 92.7718 5.28842C93.4317 6.21483 93.7616 7.35064 93.7616 8.69583C93.7616 10.0537 93.3936 11.2022 92.6575 12.1413C91.9342 13.0804 90.9126 13.55 89.5928 13.55ZM99.2453 13.55C97.9508 13.55 96.9356 13.0868 96.1995 12.1603C95.4635 11.2212 95.0955 10.0728 95.0955 8.71487C95.0955 7.35698 95.4635 6.21483 96.1995 5.28842C96.9356 4.36202 97.9508 3.89881 99.2453 3.89881C100.552 3.89881 101.574 4.36202 102.31 5.28842C103.046 6.21483 103.414 7.35698 103.414 8.71487C103.414 10.0854 103.046 11.2339 102.31 12.1603C101.574 13.0868 100.552 13.55 99.2453 13.55ZM99.2453 11.5322C99.8417 11.5322 100.292 11.2657 100.597 10.7327C100.901 10.1997 101.054 9.52706 101.054 8.71487C101.054 7.90267 100.901 7.23642 100.597 6.71611C100.292 6.18311 99.8417 5.91661 99.2453 5.91661C98.6615 5.91661 98.2173 6.18311 97.9128 6.71611C97.6209 7.24911 97.4749 7.91537 97.4749 8.71487C97.4749 9.52706 97.6209 10.1997 97.9128 10.7327C98.2173 11.2657 98.6615 11.5322 99.2453 11.5322ZM108.803 13.3215H106.5V6.126H104.482V4.12724H110.84V6.126H108.803V13.3215ZM112.157 16.9193L112.5 14.9015C112.678 14.9903 112.874 15.0348 113.09 15.0348C113.598 15.0348 113.934 14.8127 114.099 14.3685L114.404 13.4929L111.301 4.12724H113.737L115.584 10.5613L117.449 4.12724H119.886L116.288 14.8825C116.022 15.6947 115.647 16.253 115.165 16.5576C114.683 16.8749 114.048 17.0399 113.261 17.0526C112.817 17.0526 112.449 17.0081 112.157 16.9193ZM19.7208 30.3215H17.4175V29.4078C17.1637 29.7631 16.8147 30.0423 16.3705 30.2454C15.9391 30.4484 15.4822 30.55 15 30.55C14.2258 30.55 13.5596 30.2771 13.0012 29.7314C12.4428 29.1857 12.1636 28.4433 12.1636 27.5042C12.1636 26.5524 12.4365 25.8164 12.9822 25.2961C13.5405 24.7758 14.2131 24.5156 15 24.5156C15.4949 24.5156 15.9581 24.6108 16.3896 24.8012C16.8337 24.9915 17.1764 25.258 17.4175 25.6007V24.4014C17.4175 23.9065 17.2652 23.5194 16.9606 23.2402C16.6688 22.9483 16.2563 22.8024 15.7233 22.8024C14.8857 22.8024 14.1307 23.1323 13.4581 23.7923L12.6014 22.2313C13.5279 21.343 14.7081 20.8988 16.1421 20.8988C17.2208 20.8988 18.0838 21.1653 18.731 21.6983C19.3909 22.2186 19.7208 23.0372 19.7208 24.1539V30.3215ZM15.8756 29.0081C16.5863 29.0081 17.1002 28.7162 17.4175 28.1324V26.9522C17.0875 26.3557 16.5736 26.0575 15.8756 26.0575C15.4441 26.0575 15.0951 26.1971 14.8286 26.4763C14.5748 26.7428 14.4479 27.0981 14.4479 27.5423C14.4479 27.9865 14.5748 28.3418 14.8286 28.6083C15.0951 28.8748 15.4441 29.0081 15.8756 29.0081ZM21.2535 32.6629V28.4941C21.6469 28.4306 21.9451 28.2339 22.1482 27.904C22.3512 27.5613 22.5035 26.8761 22.6051 25.8481L23.0429 21.1272H29.4199V28.3228H30.3717V32.6629H28.0874V30.3215H23.5378V32.6629H21.2535ZM25.1178 23.126L24.8893 25.9243C24.8005 26.9903 24.4896 27.7898 23.9566 28.3228H27.1165V23.126H25.1178ZM41.4841 30.3215H39.2188V24.744L37.163 30.3215H36.1731L34.1363 24.744V30.3215H31.852V21.1272H34.7835L36.668 26.2479L38.5716 21.1272H41.4841V30.3215ZM45.9434 30.3215H43.7352V21.1272H46.0195V26.305L48.8559 21.1272H51.1973V30.3215H48.8939V24.9344L45.9434 30.3215ZM55.7278 30.3215H53.4435V21.1272H55.7278V24.5537H58.6022V21.1272H60.9055V30.3215H58.6022V26.5524H55.7278V30.3215ZM65.3599 30.3215H63.1518V21.1272H65.4361V26.305L68.2724 21.1272H70.6138V30.3215H68.3105V24.9344L65.3599 30.3215ZM76.591 30.55C75.3347 30.55 74.3194 30.0994 73.5453 29.1984C72.7712 28.2974 72.3841 27.1362 72.3841 25.7149C72.3841 24.3062 72.7712 23.1514 73.5453 22.2504C74.3194 21.3493 75.3347 20.8988 76.591 20.8988C77.8601 20.8988 78.8373 21.3113 79.5225 22.1361L78.3804 23.7161C77.9489 23.1831 77.435 22.9166 76.8385 22.9166C76.1913 22.9166 75.6773 23.1831 75.2966 23.7161C74.9286 24.2364 74.7446 24.9027 74.7446 25.7149C74.7446 26.5398 74.9286 27.2187 75.2966 27.7517C75.6773 28.272 76.1913 28.5322 76.8385 28.5322C77.435 28.5322 77.9489 28.2657 78.3804 27.7327L79.5225 29.3126C78.8373 30.1375 77.8601 30.55 76.591 30.55ZM84.6793 30.3215H82.376V23.126H80.3582V21.1272H86.7161V23.126H84.6793V30.3215ZM92.8492 30.55C91.8594 30.55 91.0853 30.0868 90.5269 29.1603V33.8241H88.2426V21.1272H90.5269V22.2884C91.1106 21.362 91.8848 20.8988 92.8492 20.8988C93.8899 20.8988 94.7148 21.3303 95.3239 22.1932C95.9457 23.0435 96.2567 24.2174 96.2567 25.7149C96.2567 27.1997 95.9457 28.3799 95.3239 29.2555C94.7148 30.1185 93.8899 30.55 92.8492 30.55ZM92.1068 28.5322C92.6779 28.5322 93.1157 28.272 93.4203 27.7517C93.7376 27.2314 93.8962 26.5524 93.8962 25.7149C93.8962 24.89 93.7376 24.2174 93.4203 23.6971C93.1157 23.1768 92.6779 22.9166 92.1068 22.9166C91.8023 22.9166 91.4977 23.0181 91.1931 23.2212C90.9012 23.4242 90.6792 23.678 90.5269 23.9826V27.4471C90.6792 27.7517 90.9012 28.0119 91.1931 28.2276C91.4977 28.4306 91.8023 28.5322 92.1068 28.5322ZM105.069 30.3215H102.766V29.4078C102.512 29.7631 102.163 30.0423 101.719 30.2454C101.287 30.4484 100.83 30.55 100.348 30.55C99.5739 30.55 98.9076 30.2771 98.3492 29.7314C97.7909 29.1857 97.5117 28.4433 97.5117 27.5042C97.5117 26.5524 97.7845 25.8164 98.3302 25.2961C98.8886 24.7758 99.5612 24.5156 100.348 24.5156C100.843 24.5156 101.306 24.6108 101.738 24.8012C102.182 24.9915 102.524 25.258 102.766 25.6007V24.4014C102.766 23.9065 102.613 23.5194 102.309 23.2402C102.017 22.9483 101.604 22.8024 101.071 22.8024C100.234 22.8024 99.4787 23.1323 98.8061 23.7923L97.9495 22.2313C98.8759 21.343 100.056 20.8988 101.49 20.8988C102.569 20.8988 103.432 21.1653 104.079 21.6983C104.739 22.2186 105.069 23.0372 105.069 24.1539V30.3215ZM101.224 29.0081C101.934 29.0081 102.448 28.7162 102.766 28.1324V26.9522C102.436 26.3557 101.922 26.0575 101.224 26.0575C100.792 26.0575 100.443 26.1971 100.177 26.4763C99.9229 26.7428 99.796 27.0981 99.796 27.5423C99.796 27.9865 99.9229 28.3418 100.177 28.6083C100.443 28.8748 100.792 29.0081 101.224 29.0081ZM110.923 30.3215H108.619V23.126H106.602V21.1272H112.96V23.126H110.923V30.3215ZM118.16 30.55C116.865 30.55 115.85 30.0868 115.114 29.1603C114.378 28.2212 114.01 27.0728 114.01 25.7149C114.01 24.357 114.378 23.2148 115.114 22.2884C115.85 21.362 116.865 20.8988 118.16 20.8988C119.467 20.8988 120.489 21.362 121.225 22.2884C121.961 23.2148 122.329 24.357 122.329 25.7149C122.329 27.0854 121.961 28.2339 121.225 29.1603C120.489 30.0868 119.467 30.55 118.16 30.55ZM118.16 28.5322C118.756 28.5322 119.207 28.2657 119.511 27.7327C119.816 27.1997 119.968 26.5271 119.968 25.7149C119.968 24.9027 119.816 24.2364 119.511 23.7161C119.207 23.1831 118.756 22.9166 118.16 22.9166C117.576 22.9166 117.132 23.1831 116.827 23.7161C116.535 24.2491 116.39 24.9154 116.39 25.7149C116.39 26.5271 116.535 27.1997 116.827 27.7327C117.132 28.2657 117.576 28.5322 118.16 28.5322ZM128.708 30.55C127.718 30.55 126.944 30.0868 126.386 29.1603V33.8241H124.101V21.1272H126.386V22.2884C126.969 21.362 127.743 20.8988 128.708 20.8988C129.749 20.8988 130.573 21.3303 131.183 22.1932C131.804 23.0435 132.115 24.2174 132.115 25.7149C132.115 27.1997 131.804 28.3799 131.183 29.2555C130.573 30.1185 129.749 30.55 128.708 30.55ZM127.966 28.5322C128.537 28.5322 128.974 28.272 129.279 27.7517C129.596 27.2314 129.755 26.5524 129.755 25.7149C129.755 24.89 129.596 24.2174 129.279 23.6971C128.974 23.1768 128.537 22.9166 127.966 22.9166C127.661 22.9166 127.356 23.0181 127.052 23.2212C126.76 23.4242 126.538 23.678 126.386 23.9826V27.4471C126.538 27.7517 126.76 28.0119 127.052 28.2276C127.356 28.4306 127.661 28.5322 127.966 28.5322ZM137.539 30.55C136.245 30.55 135.23 30.0868 134.493 29.1603C133.757 28.2212 133.389 27.0728 133.389 25.7149C133.389 24.357 133.757 23.2148 134.493 22.2884C135.23 21.362 136.245 20.8988 137.539 20.8988C138.846 20.8988 139.868 21.362 140.604 22.2884C141.34 23.2148 141.708 24.357 141.708 25.7149C141.708 27.0854 141.34 28.2339 140.604 29.1603C139.868 30.0868 138.846 30.55 137.539 30.55ZM137.539 28.5322C138.136 28.5322 138.586 28.2657 138.891 27.7327C139.195 27.1997 139.348 26.5271 139.348 25.7149C139.348 24.9027 139.195 24.2364 138.891 23.7161C138.586 23.1831 138.136 22.9166 137.539 22.9166C136.955 22.9166 136.511 23.1831 136.207 23.7161C135.915 24.2491 135.769 24.9154 135.769 25.7149C135.769 26.5271 135.915 27.1997 136.207 27.7327C136.511 28.2657 136.955 28.5322 137.539 28.5322ZM153.113 30.3215H150.847V24.744L148.792 30.3215H147.802L145.765 24.744V30.3215H143.481V21.1272H146.412L148.297 26.2479L150.2 21.1272H153.113V30.3215ZM14.9428 47.3215H12.6585V38.1272H14.9428V41.5537H17.8173V38.1272H20.1206V47.3215H17.8173V43.5524H14.9428V47.3215ZM29.4291 47.3215H27.1258V46.4078C26.8719 46.7631 26.523 47.0423 26.0788 47.2454C25.6473 47.4484 25.1905 47.55 24.7082 47.55C23.9341 47.55 23.2678 47.2771 22.7095 46.7314C22.1511 46.1857 21.8719 45.4433 21.8719 44.5042C21.8719 43.5524 22.1447 42.8164 22.6904 42.2961C23.2488 41.7758 23.9214 41.5156 24.7082 41.5156C25.2031 41.5156 25.6663 41.6108 26.0978 41.8012C26.542 41.9915 26.8846 42.258 27.1258 42.6007V41.4014C27.1258 40.9065 26.9735 40.5194 26.6689 40.2402C26.377 39.9483 25.9646 39.8024 25.4316 39.8024C24.594 39.8024 23.8389 40.1323 23.1663 40.7923L22.3097 39.2313C23.2361 38.343 24.4163 37.8988 25.8504 37.8988C26.9291 37.8988 27.792 38.1653 28.4392 38.6983C29.0991 39.2186 29.4291 40.0372 29.4291 41.1539V47.3215ZM25.5839 46.0081C26.2945 46.0081 26.8085 45.7162 27.1258 45.1324V43.9522C26.7958 43.3557 26.2818 43.0575 25.5839 43.0575C25.1524 43.0575 24.8034 43.1971 24.5369 43.4763C24.2831 43.7428 24.1562 44.0981 24.1562 44.5423C24.1562 44.9865 24.2831 45.3418 24.5369 45.6083C24.8034 45.8748 25.1524 46.0081 25.5839 46.0081ZM43.3153 47.3215H41.031V41.2301C41.031 40.3544 40.6249 39.9166 39.8127 39.9166C39.47 39.9166 39.1528 40.0308 38.8609 40.2593C38.569 40.475 38.3342 40.7415 38.1566 41.0588V47.3215H35.8532V34.6247H38.1566V39.3265C38.4104 38.9331 38.7784 38.5968 39.2606 38.3176C39.7556 38.0384 40.2822 37.8988 40.8406 37.8988C42.4904 37.8988 43.3153 38.7237 43.3153 40.3735V47.3215ZM53.0235 47.3215H50.7392V41.2301C50.7392 40.3544 50.3331 39.9166 49.5209 39.9166C49.1783 39.9166 48.861 40.0308 48.5691 40.2593C48.2773 40.475 48.0425 40.7415 47.8648 41.0588V47.3215H45.5615V34.6247H47.8648V39.3265C48.1186 38.9331 48.4867 38.5968 48.9689 38.3176C49.4638 38.0384 49.9905 37.8988 50.5489 37.8988C52.1986 37.8988 53.0235 38.7237 53.0235 40.3735V47.3215ZM57.6683 47.1121C57.3891 47.3913 57.0464 47.5309 56.6403 47.5309C56.2342 47.5309 55.8852 47.385 55.5934 47.0931C55.3015 46.8012 55.1555 46.4586 55.1555 46.0652C55.1555 45.6591 55.3015 45.3101 55.5934 45.0182C55.8852 44.7263 56.2342 44.5804 56.6403 44.5804C57.0337 44.5804 57.3764 44.7263 57.6683 45.0182C57.9601 45.3101 58.1061 45.6591 58.1061 46.0652C58.1061 46.4713 57.9601 46.8203 57.6683 47.1121ZM62.5405 47.3215H60.2562V38.1272H62.5405V39.3836C62.807 38.9648 63.1687 38.6158 63.6256 38.3366C64.0951 38.0448 64.571 37.8988 65.0533 37.8988V40.145C64.901 40.107 64.717 40.0879 64.5012 40.0879C64.1332 40.0879 63.7588 40.1958 63.3781 40.4115C63.0101 40.6146 62.7309 40.8747 62.5405 41.192V47.3215ZM73.987 47.3215H71.7027V46.1603C71.4362 46.5538 71.0618 46.8837 70.5796 47.1502C70.0973 47.4167 69.5707 47.55 68.9996 47.55C67.3625 47.55 66.544 46.7251 66.544 45.0753V38.1272H68.8283V44.1997C68.8283 45.088 69.2344 45.5322 70.0466 45.5322C70.7319 45.5322 71.2839 45.1578 71.7027 44.4091V38.1272H73.987V47.3215Z" fill="white"/>
  <path d="M78.3518 40.3461L80.3125 40.3461L82.692 43.7726L80.3125 47.1419L78.3518 47.1419L80.7313 43.7726L78.3518 40.3461ZM81.5689 40.3461L83.5105 40.3461L85.89 43.7726L83.5105 47.1419L81.5689 47.1419L83.9483 43.7726L81.5689 40.3461Z" fill="white"/>
  </svg>
  